solid test_fix_table
facet normal 0.0 0.0 -1.0
  outer loop
    vertex 17.7796504156115 16.22073162287293 0.0
    vertex 23.527654259208933 11.766957897303248 0.0
    vertex 17.7796504156115 4.928569972872922 0.0
  endloop
endfacet
facet normal 0.0 0.0 -1.0
  outer loop
    vertex 23.527654259208933 11.766957897303248 0.0
    vertex 17.7796504156115 16.22073162287293 0.0
    vertex 23.783265448549376 11.978478583981044 0.0
  endloop
endfacet
facet normal 0.0 0.0 -1.0
  outer loop
    vertex 23.783265448549376 11.978478583981044 0.0
    vertex 17.7796504156115 16.22073162287293 0.0
    vertex 24.08093098308384 12.111446046334702 0.0
  endloop
endfacet
facet normal 0.0 0.0 -1.0
  outer loop
    vertex 24.08093098308384 12.111446046334702 0.0
    vertex 17.7796504156115 16.22073162287293 0.0
    vertex 40.1837565136115 16.22073162287293 0.0
  endloop
endfacet
facet normal 0.0 0.0 -1.0
  outer loop
    vertex 17.7796504156115 4.928569972872922 0.0
    vertex 23.527654259208933 11.766957897303248 0.0
    vertex 23.331516895198625 11.491298771543953 0.0
  endloop
endfacet
facet normal 0.0 0.0 -1.0
  outer loop
    vertex 17.7796504156115 4.928569972872922 0.0
    vertex 23.331516895198625 11.491298771543953 0.0
    vertex 23.20821979374341 11.170286920575409 0.0
  endloop
endfacet
facet normal 0.0 0.0 -1.0
  outer loop
    vertex 17.7796504156115 4.928569972872922 0.0
    vertex 23.20821979374341 11.170286920575409 0.0
    vertex 23.166165448549386 10.825798771543955 0.0
  endloop
endfacet
facet normal 0.0 0.0 -1.0
  outer loop
    vertex 24.08093098308384 12.111446046334702 0.0
    vertex 40.1837565136115 16.22073162287293 0.0
    vertex 24.400365448549383 12.156798771543956 0.0
  endloop
endfacet
facet normal 0.0 0.0 -1.0
  outer loop
    vertex 24.400365448549383 12.156798771543956 0.0
    vertex 40.1837565136115 16.22073162287293 0.0
    vertex 24.719799914014903 12.111446046334702 0.0
  endloop
endfacet
facet normal 0.0 0.0 -1.0
  outer loop
    vertex 24.719799914014903 12.111446046334702 0.0
    vertex 40.1837565136115 16.22073162287293 0.0
    vertex 25.017465448549377 11.978478583981044 0.0
  endloop
endfacet
facet normal 0.0 0.0 -1.0
  outer loop
    vertex 25.017465448549377 11.978478583981044 0.0
    vertex 40.1837565136115 16.22073162287293 0.0
    vertex 25.273076637889815 11.766957897303248 0.0
  endloop
endfacet
facet normal 0.0 0.0 -1.0
  outer loop
    vertex 25.273076637889815 11.766957897303248 0.0
    vertex 40.1837565136115 16.22073162287293 0.0
    vertex 25.469214001900127 11.491298771543955 0.0
  endloop
endfacet
facet normal 0.0 0.0 -1.0
  outer loop
    vertex 25.469214001900127 11.491298771543955 0.0
    vertex 40.1837565136115 16.22073162287293 0.0
    vertex 25.59251110335535 11.17028692057541 0.0
  endloop
endfacet
facet normal 0.0 0.0 -1.0
  outer loop
    vertex 25.59251110335535 11.17028692057541 0.0
    vertex 40.1837565136115 16.22073162287293 0.0
    vertex 25.634565448549374 10.825798771543955 0.0
  endloop
endfacet
facet normal 0.0 0.0 -1.0
  outer loop
    vertex 25.634565448549374 10.825798771543955 0.0
    vertex 40.1837565136115 16.22073162287293 0.0
    vertex 33.4420376444714 11.959721991556908 0.0
  endloop
endfacet
facet normal 0.0 0.0 -1.0
  outer loop
    vertex 25.634565448549374 10.825798771543955 0.0
    vertex 33.4420376444714 11.959721991556908 0.0
    vertex 33.191922557946086 11.740693166082174 0.0
  endloop
endfacet
facet normal 0.0 0.0 -1.0
  outer loop
    vertex 25.634565448549374 10.825798771543955 0.0
    vertex 33.191922557946086 11.740693166082174 0.0
    vertex 33.002895943679924 11.459315799554128 0.0
  endloop
endfacet
facet normal 0.0 0.0 -1.0
  outer loop
    vertex 25.634565448549374 10.825798771543955 0.0
    vertex 33.002895943679924 11.459315799554128 0.0
    vertex 32.88783965305391 11.134765294503582 0.0
  endloop
endfacet
facet normal 0.0 0.0 -1.0
  outer loop
    vertex 25.634565448549374 10.825798771543955 0.0
    vertex 32.88783965305391 11.134765294503582 0.0
    vertex 32.85459458213469 10.789159231504655 0.0
  endloop
endfacet
facet normal 0.0 0.0 -1.0
  outer loop
    vertex 33.4420376444714 11.959721991556908 0.0
    vertex 40.1837565136115 16.22073162287293 0.0
    vertex 33.73619627344389 12.101475823484488 0.0
  endloop
endfacet
facet normal 0.0 0.0 -1.0
  outer loop
    vertex 33.73619627344389 12.101475823484488 0.0
    vertex 40.1837565136115 16.22073162287293 0.0
    vertex 34.054352020419216 12.156294372478321 0.0
  endloop
endfacet
facet normal 0.0 0.0 -1.0
  outer loop
    vertex 34.054352020419216 12.156294372478321 0.0
    vertex 40.1837565136115 16.22073162287293 0.0
    vertex 34.37482309701822 12.120441845016417 0.0
  endloop
endfacet
facet normal 0.0 0.0 -1.0
  outer loop
    vertex 34.37482309701822 12.120441845016417 0.0
    vertex 40.1837565136115 16.22073162287293 0.0
    vertex 34.67576992897418 11.996361531596206 0.0
  endloop
endfacet
facet normal 0.0 0.0 -1.0
  outer loop
    vertex 34.67576992897418 11.996361531596206 0.0
    vertex 40.1837565136115 16.22073162287293 0.0
    vertex 34.93668348702745 11.79250930052486 0.0
  endloop
endfacet
facet normal 0.0 0.0 -1.0
  outer loop
    vertex 34.93668348702745 11.79250930052486 0.0
    vertex 40.1837565136115 16.22073162287293 0.0
    vertex 35.13978294337675 11.522777344468143 0.0
  endloop
endfacet
facet normal 0.0 0.0 -1.0
  outer loop
    vertex 35.13978294337675 11.522777344468143 0.0
    vertex 40.1837565136115 16.22073162287293 0.0
    vertex 35.2712274057096 11.205547450478198 0.0
  endloop
endfacet
facet normal 0.0 0.0 -1.0
  outer loop
    vertex 35.2712274057096 11.205547450478198 0.0
    vertex 40.1837565136115 16.22073162287293 0.0
    vertex 35.322059151140245 10.862438311583245 0.0
  endloop
endfacet
facet normal 0.0 0.0 -1.0
  outer loop
    vertex 17.7796504156115 4.928569972872922 0.0
    vertex 24.08093098308385 9.540151496753206 0.0
    vertex 40.1837565136115 4.928569972872922 0.0
  endloop
endfacet
facet normal 0.0 0.0 -1.0
  outer loop
    vertex 24.08093098308385 9.540151496753206 0.0
    vertex 17.7796504156115 4.928569972872922 0.0
    vertex 23.783265448549376 9.673118959106867 0.0
  endloop
endfacet
facet normal 0.0 0.0 -1.0
  outer loop
    vertex 23.783265448549376 9.673118959106867 0.0
    vertex 17.7796504156115 4.928569972872922 0.0
    vertex 23.527654259208933 9.88463964578466 0.0
  endloop
endfacet
facet normal 0.0 0.0 -1.0
  outer loop
    vertex 23.527654259208933 9.88463964578466 0.0
    vertex 17.7796504156115 4.928569972872922 0.0
    vertex 23.331516895198625 10.160298771543953 0.0
  endloop
endfacet
facet normal 0.0 0.0 -1.0
  outer loop
    vertex 23.331516895198625 10.160298771543953 0.0
    vertex 17.7796504156115 4.928569972872922 0.0
    vertex 23.20821979374341 10.481310622512499 0.0
  endloop
endfacet
facet normal 0.0 0.0 -1.0
  outer loop
    vertex 23.20821979374341 10.481310622512499 0.0
    vertex 17.7796504156115 4.928569972872922 0.0
    vertex 23.166165448549386 10.825798771543955 0.0
  endloop
endfacet
facet normal 0.0 0.0 -1.0
  outer loop
    vertex 40.1837565136115 4.928569972872922 0.0
    vertex 24.08093098308385 9.540151496753206 0.0
    vertex 24.400365448549383 9.494798771543952 0.0
  endloop
endfacet
facet normal 0.0 0.0 -1.0
  outer loop
    vertex 40.1837565136115 4.928569972872922 0.0
    vertex 24.400365448549383 9.494798771543952 0.0
    vertex 24.719799914014903 9.540151496753206 0.0
  endloop
endfacet
facet normal 0.0 0.0 -1.0
  outer loop
    vertex 40.1837565136115 4.928569972872922 0.0
    vertex 24.719799914014903 9.540151496753206 0.0
    vertex 25.017465448549377 9.673118959106867 0.0
  endloop
endfacet
facet normal 0.0 0.0 -1.0
  outer loop
    vertex 40.1837565136115 4.928569972872922 0.0
    vertex 25.017465448549377 9.673118959106867 0.0
    vertex 25.273076637889815 9.88463964578466 0.0
  endloop
endfacet
facet normal 0.0 0.0 -1.0
  outer loop
    vertex 40.1837565136115 4.928569972872922 0.0
    vertex 25.273076637889815 9.88463964578466 0.0
    vertex 25.469214001900127 10.160298771543955 0.0
  endloop
endfacet
facet normal 0.0 0.0 -1.0
  outer loop
    vertex 40.1837565136115 4.928569972872922 0.0
    vertex 25.469214001900127 10.160298771543955 0.0
    vertex 25.59251110335535 10.4813106225125 0.0
  endloop
endfacet
facet normal 0.0 0.0 -1.0
  outer loop
    vertex 40.1837565136115 4.928569972872922 0.0
    vertex 25.59251110335535 10.4813106225125 0.0
    vertex 25.634565448549374 10.825798771543955 0.0
  endloop
endfacet
facet normal 0.0 0.0 -1.0
  outer loop
    vertex 40.1837565136115 4.928569972872922 0.0
    vertex 25.634565448549374 10.825798771543955 0.0
    vertex 33.500883804300756 9.6552360114917 0.0
  endloop
endfacet
facet normal 0.0 0.0 -1.0
  outer loop
    vertex 33.500883804300756 9.6552360114917 0.0
    vertex 25.634565448549374 10.825798771543955 0.0
    vertex 33.23997024624748 9.859088242563049 0.0
  endloop
endfacet
facet normal 0.0 0.0 -1.0
  outer loop
    vertex 33.23997024624748 9.859088242563049 0.0
    vertex 25.634565448549374 10.825798771543955 0.0
    vertex 33.03687078989818 10.128820198619762 0.0
  endloop
endfacet
facet normal 0.0 0.0 -1.0
  outer loop
    vertex 33.03687078989818 10.128820198619762 0.0
    vertex 25.634565448549374 10.825798771543955 0.0
    vertex 32.90542632756533 10.446050092609708 0.0
  endloop
endfacet
facet normal 0.0 0.0 -1.0
  outer loop
    vertex 32.90542632756533 10.446050092609708 0.0
    vertex 25.634565448549374 10.825798771543955 0.0
    vertex 32.85459458213469 10.789159231504655 0.0
  endloop
endfacet
facet normal 0.0 0.0 -1.0
  outer loop
    vertex 40.1837565136115 4.928569972872922 0.0
    vertex 33.500883804300756 9.6552360114917 0.0
    vertex 33.80183063625672 9.531155698071487 0.0
  endloop
endfacet
facet normal 0.0 0.0 -1.0
  outer loop
    vertex 40.1837565136115 4.928569972872922 0.0
    vertex 33.80183063625672 9.531155698071487 0.0
    vertex 34.122301712855716 9.495303170609583 0.0
  endloop
endfacet
facet normal 0.0 0.0 -1.0
  outer loop
    vertex 40.1837565136115 4.928569972872922 0.0
    vertex 34.122301712855716 9.495303170609583 0.0
    vertex 34.440457459831045 9.550121719603416 0.0
  endloop
endfacet
facet normal 0.0 0.0 -1.0
  outer loop
    vertex 40.1837565136115 4.928569972872922 0.0
    vertex 34.440457459831045 9.550121719603416 0.0
    vertex 34.734616088803534 9.691875551530993 0.0
  endloop
endfacet
facet normal 0.0 0.0 -1.0
  outer loop
    vertex 40.1837565136115 4.928569972872922 0.0
    vertex 34.734616088803534 9.691875551530993 0.0
    vertex 34.984731175328854 9.910904377005734 0.0
  endloop
endfacet
facet normal 0.0 0.0 -1.0
  outer loop
    vertex 40.1837565136115 4.928569972872922 0.0
    vertex 34.984731175328854 9.910904377005734 0.0
    vertex 35.173757789595015 10.192281743533774 0.0
  endloop
endfacet
facet normal 0.0 0.0 -1.0
  outer loop
    vertex 40.1837565136115 4.928569972872922 0.0
    vertex 35.173757789595015 10.192281743533774 0.0
    vertex 35.288814080221016 10.516832248584324 0.0
  endloop
endfacet
facet normal 0.0 0.0 -1.0
  outer loop
    vertex 40.1837565136115 4.928569972872922 0.0
    vertex 35.288814080221016 10.516832248584324 0.0
    vertex 35.322059151140245 10.862438311583245 0.0
  endloop
endfacet
facet normal 0.0 0.0 -1.0
  outer loop
    vertex 40.1837565136115 4.928569972872922 0.0
    vertex 35.322059151140245 10.862438311583245 0.0
    vertex 40.1837565136115 16.22073162287293 0.0
  endloop
endfacet
facet normal 0.0 0.0 1.0
  outer loop
    vertex 17.7796504156115 4.928569972872922 6.0
    vertex 22.997865448549387 8.20607192509602 6.0
    vertex 17.7796504156115 16.22073162287293 6.0
  endloop
endfacet
facet normal 0.0 0.0 1.0
  outer loop
    vertex 22.997865448549387 8.20607192509602 6.0
    vertex 17.7796504156115 4.928569972872922 6.0
    vertex 40.1837565136115 4.928569972872922 6.0
  endloop
endfacet
facet normal 0.0 0.0 1.0
  outer loop
    vertex 17.7796504156115 16.22073162287293 6.0
    vertex 22.997865448549387 8.20607192509602 6.0
    vertex 21.595365448549373 10.825798771543955 6.0
  endloop
endfacet
facet normal 0.0 0.0 1.0
  outer loop
    vertex 22.997865448549387 8.20607192509602 6.0
    vertex 40.1837565136115 4.928569972872922 6.0
    vertex 25.80286544854938 8.206071925096023 6.0
  endloop
endfacet
facet normal 0.0 0.0 1.0
  outer loop
    vertex 25.80286544854938 8.206071925096023 6.0
    vertex 40.1837565136115 4.928569972872922 6.0
    vertex 27.20536544854938 10.825798771543955 6.0
  endloop
endfacet
facet normal 0.0 0.0 1.0
  outer loop
    vertex 27.20536544854938 10.825798771543955 6.0
    vertex 40.1837565136115 4.928569972872922 6.0
    vertex 34.08832686663747 7.800798771543951 6.0
  endloop
endfacet
facet normal 0.0 0.0 1.0
  outer loop
    vertex 27.20536544854938 10.825798771543955 6.0
    vertex 34.08832686663747 7.800798771543951 6.0
    vertex 31.659125609022123 9.313298771543955 6.0
  endloop
endfacet
facet normal 0.0 0.0 1.0
  outer loop
    vertex 34.08832686663747 7.800798771543951 6.0
    vertex 40.1837565136115 4.928569972872922 6.0
    vertex 36.51752812425281 9.313298771543952 6.0
  endloop
endfacet
facet normal 0.0 0.0 1.0
  outer loop
    vertex 36.51752812425281 9.313298771543952 6.0
    vertex 40.1837565136115 4.928569972872922 6.0
    vertex 36.51752812425281 12.338298771543949 6.0
  endloop
endfacet
facet normal 0.0 0.0 1.0
  outer loop
    vertex 17.7796504156115 16.22073162287293 6.0
    vertex 22.99786544854938 13.445525617991883 6.0
    vertex 40.1837565136115 16.22073162287293 6.0
  endloop
endfacet
facet normal 0.0 0.0 1.0
  outer loop
    vertex 22.99786544854938 13.445525617991883 6.0
    vertex 17.7796504156115 16.22073162287293 6.0
    vertex 21.595365448549373 10.825798771543955 6.0
  endloop
endfacet
facet normal 0.0 0.0 1.0
  outer loop
    vertex 40.1837565136115 16.22073162287293 6.0
    vertex 22.99786544854938 13.445525617991883 6.0
    vertex 25.80286544854938 13.445525617991883 6.0
  endloop
endfacet
facet normal 0.0 0.0 1.0
  outer loop
    vertex 40.1837565136115 16.22073162287293 6.0
    vertex 25.80286544854938 13.445525617991883 6.0
    vertex 34.08832686663747 13.850798771543957 6.0
  endloop
endfacet
facet normal 0.0 0.0 1.0
  outer loop
    vertex 34.08832686663747 13.850798771543957 6.0
    vertex 25.80286544854938 13.445525617991883 6.0
    vertex 27.20536544854938 10.825798771543955 6.0
  endloop
endfacet
facet normal 0.0 0.0 1.0
  outer loop
    vertex 34.08832686663747 13.850798771543957 6.0
    vertex 27.20536544854938 10.825798771543955 6.0
    vertex 31.659125609022123 12.338298771543952 6.0
  endloop
endfacet
facet normal 0.0 0.0 1.0
  outer loop
    vertex 31.659125609022123 12.338298771543952 6.0
    vertex 27.20536544854938 10.825798771543955 6.0
    vertex 31.659125609022123 9.313298771543955 6.0
  endloop
endfacet
facet normal 0.0 0.0 1.0
  outer loop
    vertex 40.1837565136115 16.22073162287293 6.0
    vertex 34.08832686663747 13.850798771543957 6.0
    vertex 36.51752812425281 12.338298771543949 6.0
  endloop
endfacet
facet normal 0.0 0.0 1.0
  outer loop
    vertex 40.1837565136115 16.22073162287293 6.0
    vertex 36.51752812425281 12.338298771543949 6.0
    vertex 40.1837565136115 4.928569972872922 6.0
  endloop
endfacet
facet normal 0.0 -1.0 0.0
  outer loop
    vertex 40.1837565136115 4.928569972872922 6.0
    vertex 17.7796504156115 4.928569972872922 0.0
    vertex 40.1837565136115 4.928569972872922 0.0
  endloop
endfacet
facet normal 0.0 -1.0 0.0
  outer loop
    vertex 17.7796504156115 4.928569972872922 0.0
    vertex 40.1837565136115 4.928569972872922 6.0
    vertex 17.7796504156115 4.928569972872922 6.0
  endloop
endfacet
facet normal -1.0 0.0 0.0
  outer loop
    vertex 17.7796504156115 16.22073162287293 6.0
    vertex 17.7796504156115 4.928569972872922 0.0
    vertex 17.7796504156115 4.928569972872922 6.0
  endloop
endfacet
facet normal -1.0 0.0 0.0
  outer loop
    vertex 17.7796504156115 4.928569972872922 0.0
    vertex 17.7796504156115 16.22073162287293 6.0
    vertex 17.7796504156115 16.22073162287293 0.0
  endloop
endfacet
facet normal 0.0 1.0 0.0
  outer loop
    vertex 17.7796504156115 16.22073162287293 6.0
    vertex 40.1837565136115 16.22073162287293 0.0
    vertex 17.7796504156115 16.22073162287293 0.0
  endloop
endfacet
facet normal 0.0 1.0 0.0
  outer loop
    vertex 40.1837565136115 16.22073162287293 0.0
    vertex 17.7796504156115 16.22073162287293 6.0
    vertex 40.1837565136115 16.22073162287293 6.0
  endloop
endfacet
facet normal 1.0 0.0 0.0
  outer loop
    vertex 40.1837565136115 16.22073162287293 0.0
    vertex 40.1837565136115 4.928569972872922 6.0
    vertex 40.1837565136115 4.928569972872922 0.0
  endloop
endfacet
facet normal 1.0 0.0 0.0
  outer loop
    vertex 40.1837565136115 4.928569972872922 6.0
    vertex 40.1837565136115 16.22073162287293 0.0
    vertex 40.1837565136115 16.22073162287293 6.0
  endloop
endfacet
facet normal -0.8816095250015652 0.4719794968285328 6.1333743544959975e-18
  outer loop
    vertex 27.20536544854938 10.825798771543955 6.0
    vertex 25.80286544854938 8.206071925096023 1.9999999999999998
    vertex 25.80286544854938 8.206071925096023 6.0
  endloop
endfacet
facet normal -0.8816095250015652 0.4719794968285328 6.1333743544959975e-18
  outer loop
    vertex 25.80286544854938 8.206071925096023 1.9999999999999998
    vertex 27.20536544854938 10.825798771543955 6.0
    vertex 27.20536544854938 10.825798771543955 1.9999999999999998
  endloop
endfacet
facet normal -0.8816095250015641 -0.4719794968285344 -1.8113413688373048e-17
  outer loop
    vertex 25.80286544854938 13.445525617991883 6.0
    vertex 27.20536544854938 10.825798771543955 1.9999999999999998
    vertex 27.20536544854938 10.825798771543955 6.0
  endloop
endfacet
facet normal -0.8816095250015641 -0.4719794968285344 -1.8113413688373048e-17
  outer loop
    vertex 27.20536544854938 10.825798771543955 1.9999999999999998
    vertex 25.80286544854938 13.445525617991883 6.0
    vertex 25.80286544854938 13.445525617991883 1.9999999999999998
  endloop
endfacet
facet normal 0.0 -1.0 0.0
  outer loop
    vertex 25.80286544854938 13.445525617991883 6.0
    vertex 22.99786544854938 13.445525617991883 1.9999999999999998
    vertex 25.80286544854938 13.445525617991883 1.9999999999999998
  endloop
endfacet
facet normal 0.0 -1.0 0.0
  outer loop
    vertex 22.99786544854938 13.445525617991883 1.9999999999999998
    vertex 25.80286544854938 13.445525617991883 6.0
    vertex 22.99786544854938 13.445525617991883 6.0
  endloop
endfacet
facet normal 0.8816095250015652 -0.4719794968285328 6.1333743544959975e-18
  outer loop
    vertex 22.99786544854938 13.445525617991883 1.9999999999999998
    vertex 21.595365448549373 10.825798771543955 6.0
    vertex 21.595365448549373 10.825798771543955 1.9999999999999998
  endloop
endfacet
facet normal 0.8816095250015652 -0.4719794968285328 6.1333743544959975e-18
  outer loop
    vertex 21.595365448549373 10.825798771543955 6.0
    vertex 22.99786544854938 13.445525617991883 1.9999999999999998
    vertex 22.99786544854938 13.445525617991883 6.0
  endloop
endfacet
facet normal 0.8816095250015642 0.4719794968285342 1.5666091596404733e-18
  outer loop
    vertex 21.595365448549373 10.825798771543955 1.9999999999999998
    vertex 22.997865448549387 8.20607192509602 6.0
    vertex 22.997865448549387 8.20607192509602 1.9999999999999998
  endloop
endfacet
facet normal 0.8816095250015642 0.4719794968285342 1.5666091596404733e-18
  outer loop
    vertex 22.997865448549387 8.20607192509602 6.0
    vertex 21.595365448549373 10.825798771543955 1.9999999999999998
    vertex 21.595365448549373 10.825798771543955 6.0
  endloop
endfacet
facet normal -6.082280648632723e-16 1.0 5.114465368179836e-33
  outer loop
    vertex 22.997865448549387 8.20607192509602 6.0
    vertex 25.80286544854938 8.206071925096023 1.9999999999999998
    vertex 22.997865448549387 8.20607192509602 1.9999999999999998
  endloop
endfacet
facet normal -6.082280648632723e-16 1.0 5.114465368179836e-33
  outer loop
    vertex 25.80286544854938 8.206071925096023 1.9999999999999998
    vertex 22.997865448549387 8.20607192509602 6.0
    vertex 25.80286544854938 8.206071925096023 6.0
  endloop
endfacet
facet normal -0.5285530289346666 0.8489002860195003 -5.475842780101537e-18
  outer loop
    vertex 34.08832686663747 7.800798771543951 6.0
    vertex 36.51752812425281 9.313298771543952 1.9999999999999998
    vertex 34.08832686663747 7.800798771543951 1.9999999999999998
  endloop
endfacet
facet normal -0.5285530289346666 0.8489002860195003 -5.475842780101537e-18
  outer loop
    vertex 36.51752812425281 9.313298771543952 1.9999999999999998
    vertex 34.08832686663747 7.800798771543951 6.0
    vertex 36.51752812425281 9.313298771543952 6.0
  endloop
endfacet
facet normal -1.0 0.0 0.0
  outer loop
    vertex 36.51752812425281 12.338298771543949 6.0
    vertex 36.51752812425281 9.313298771543952 1.9999999999999998
    vertex 36.51752812425281 9.313298771543952 6.0
  endloop
endfacet
facet normal -1.0 0.0 0.0
  outer loop
    vertex 36.51752812425281 9.313298771543952 1.9999999999999998
    vertex 36.51752812425281 12.338298771543949 6.0
    vertex 36.51752812425281 12.338298771543949 1.9999999999999998
  endloop
endfacet
facet normal -0.5285530289346675 -0.8489002860195 -6.071292108081515e-18
  outer loop
    vertex 36.51752812425281 12.338298771543949 6.0
    vertex 34.08832686663747 13.850798771543957 1.9999999999999998
    vertex 36.51752812425281 12.338298771543949 1.9999999999999998
  endloop
endfacet
facet normal -0.5285530289346675 -0.8489002860195 -6.071292108081515e-18
  outer loop
    vertex 34.08832686663747 13.850798771543957 1.9999999999999998
    vertex 36.51752812425281 12.338298771543949 6.0
    vertex 34.08832686663747 13.850798771543957 6.0
  endloop
endfacet
facet normal 0.5285530289346665 -0.8489002860195005 3.551320298737824e-18
  outer loop
    vertex 34.08832686663747 13.850798771543957 6.0
    vertex 31.659125609022123 12.338298771543952 1.9999999999999998
    vertex 34.08832686663747 13.850798771543957 1.9999999999999998
  endloop
endfacet
facet normal 0.5285530289346665 -0.8489002860195005 3.551320298737824e-18
  outer loop
    vertex 31.659125609022123 12.338298771543952 1.9999999999999998
    vertex 34.08832686663747 13.850798771543957 6.0
    vertex 31.659125609022123 12.338298771543952 6.0
  endloop
endfacet
facet normal 1.0 0.0 0.0
  outer loop
    vertex 31.659125609022123 12.338298771543952 1.9999999999999998
    vertex 31.659125609022123 9.313298771543955 6.0
    vertex 31.659125609022123 9.313298771543955 1.9999999999999998
  endloop
endfacet
facet normal 1.0 0.0 0.0
  outer loop
    vertex 31.659125609022123 9.313298771543955 6.0
    vertex 31.659125609022123 12.338298771543952 1.9999999999999998
    vertex 31.659125609022123 12.338298771543952 6.0
  endloop
endfacet
facet normal 0.5285530289346668 0.8489002860195004 2.222247145353677e-18
  outer loop
    vertex 31.659125609022123 9.313298771543955 6.0
    vertex 34.08832686663747 7.800798771543951 1.9999999999999998
    vertex 31.659125609022123 9.313298771543955 1.9999999999999998
  endloop
endfacet
facet normal 0.5285530289346668 0.8489002860195004 2.222247145353677e-18
  outer loop
    vertex 34.08832686663747 7.800798771543951 1.9999999999999998
    vertex 31.659125609022123 9.313298771543955 6.0
    vertex 34.08832686663747 7.800798771543951 6.0
  endloop
endfacet
facet normal 0.0 0.0 1.0
  outer loop
    vertex 22.997865448549387 8.20607192509602 1.9999999999999998
    vertex 23.20821979374341 10.481310622512499 1.9999999999999998
    vertex 23.166165448549386 10.825798771543955 1.9999999999999998
  endloop
endfacet
facet normal 0.0 0.0 1.0
  outer loop
    vertex 23.20821979374341 10.481310622512499 1.9999999999999998
    vertex 22.997865448549387 8.20607192509602 1.9999999999999998
    vertex 23.331516895198625 10.160298771543953 1.9999999999999998
  endloop
endfacet
facet normal 0.0 0.0 1.0
  outer loop
    vertex 23.331516895198625 10.160298771543953 1.9999999999999998
    vertex 22.997865448549387 8.20607192509602 1.9999999999999998
    vertex 23.527654259208933 9.88463964578466 1.9999999999999998
  endloop
endfacet
facet normal 0.0 0.0 1.0
  outer loop
    vertex 23.527654259208933 9.88463964578466 1.9999999999999998
    vertex 22.997865448549387 8.20607192509602 1.9999999999999998
    vertex 23.783265448549376 9.673118959106867 1.9999999999999998
  endloop
endfacet
facet normal 0.0 0.0 1.0
  outer loop
    vertex 23.783265448549376 9.673118959106867 1.9999999999999998
    vertex 22.997865448549387 8.20607192509602 1.9999999999999998
    vertex 25.80286544854938 8.206071925096023 1.9999999999999998
  endloop
endfacet
facet normal 0.0 0.0 1.0
  outer loop
    vertex 23.783265448549376 9.673118959106867 1.9999999999999998
    vertex 25.80286544854938 8.206071925096023 1.9999999999999998
    vertex 24.08093098308385 9.540151496753206 1.9999999999999998
  endloop
endfacet
facet normal 0.0 0.0 1.0
  outer loop
    vertex 24.08093098308385 9.540151496753206 1.9999999999999998
    vertex 25.80286544854938 8.206071925096023 1.9999999999999998
    vertex 24.400365448549383 9.494798771543952 1.9999999999999998
  endloop
endfacet
facet normal 0.0 0.0 1.0
  outer loop
    vertex 24.400365448549383 9.494798771543952 1.9999999999999998
    vertex 25.80286544854938 8.206071925096023 1.9999999999999998
    vertex 24.719799914014903 9.540151496753206 1.9999999999999998
  endloop
endfacet
facet normal 0.0 0.0 1.0
  outer loop
    vertex 24.719799914014903 9.540151496753206 1.9999999999999998
    vertex 25.80286544854938 8.206071925096023 1.9999999999999998
    vertex 25.017465448549377 9.673118959106867 1.9999999999999998
  endloop
endfacet
facet normal 0.0 0.0 1.0
  outer loop
    vertex 25.017465448549377 9.673118959106867 1.9999999999999998
    vertex 25.80286544854938 8.206071925096023 1.9999999999999998
    vertex 25.273076637889815 9.88463964578466 1.9999999999999998
  endloop
endfacet
facet normal 0.0 0.0 1.0
  outer loop
    vertex 25.273076637889815 9.88463964578466 1.9999999999999998
    vertex 25.80286544854938 8.206071925096023 1.9999999999999998
    vertex 25.469214001900127 10.160298771543955 1.9999999999999998
  endloop
endfacet
facet normal 0.0 0.0 1.0
  outer loop
    vertex 25.469214001900127 10.160298771543955 1.9999999999999998
    vertex 25.80286544854938 8.206071925096023 1.9999999999999998
    vertex 25.59251110335535 10.4813106225125 1.9999999999999998
  endloop
endfacet
facet normal 0.0 0.0 1.0
  outer loop
    vertex 25.59251110335535 10.4813106225125 1.9999999999999998
    vertex 25.80286544854938 8.206071925096023 1.9999999999999998
    vertex 25.634565448549374 10.825798771543955 1.9999999999999998
  endloop
endfacet
facet normal 0.0 0.0 1.0
  outer loop
    vertex 22.997865448549387 8.20607192509602 1.9999999999999998
    vertex 22.99786544854938 13.445525617991883 1.9999999999999998
    vertex 21.595365448549373 10.825798771543955 1.9999999999999998
  endloop
endfacet
facet normal 0.0 0.0 1.0
  outer loop
    vertex 22.99786544854938 13.445525617991883 1.9999999999999998
    vertex 22.997865448549387 8.20607192509602 1.9999999999999998
    vertex 23.166165448549386 10.825798771543955 1.9999999999999998
  endloop
endfacet
facet normal 0.0 0.0 1.0
  outer loop
    vertex 22.99786544854938 13.445525617991883 1.9999999999999998
    vertex 23.166165448549386 10.825798771543955 1.9999999999999998
    vertex 23.20821979374341 11.170286920575409 1.9999999999999998
  endloop
endfacet
facet normal 0.0 0.0 1.0
  outer loop
    vertex 22.99786544854938 13.445525617991883 1.9999999999999998
    vertex 23.20821979374341 11.170286920575409 1.9999999999999998
    vertex 23.331516895198625 11.491298771543953 1.9999999999999998
  endloop
endfacet
facet normal 0.0 0.0 1.0
  outer loop
    vertex 22.99786544854938 13.445525617991883 1.9999999999999998
    vertex 23.331516895198625 11.491298771543953 1.9999999999999998
    vertex 23.527654259208933 11.766957897303248 1.9999999999999998
  endloop
endfacet
facet normal 0.0 0.0 1.0
  outer loop
    vertex 22.99786544854938 13.445525617991883 1.9999999999999998
    vertex 23.527654259208933 11.766957897303248 1.9999999999999998
    vertex 23.783265448549376 11.978478583981044 1.9999999999999998
  endloop
endfacet
facet normal 0.0 0.0 1.0
  outer loop
    vertex 22.99786544854938 13.445525617991883 1.9999999999999998
    vertex 23.783265448549376 11.978478583981044 1.9999999999999998
    vertex 25.80286544854938 13.445525617991883 1.9999999999999998
  endloop
endfacet
facet normal 0.0 0.0 1.0
  outer loop
    vertex 25.80286544854938 13.445525617991883 1.9999999999999998
    vertex 23.783265448549376 11.978478583981044 1.9999999999999998
    vertex 24.08093098308384 12.111446046334702 1.9999999999999998
  endloop
endfacet
facet normal 0.0 0.0 1.0
  outer loop
    vertex 25.80286544854938 13.445525617991883 1.9999999999999998
    vertex 24.08093098308384 12.111446046334702 1.9999999999999998
    vertex 24.400365448549383 12.156798771543956 1.9999999999999998
  endloop
endfacet
facet normal 0.0 0.0 1.0
  outer loop
    vertex 25.80286544854938 13.445525617991883 1.9999999999999998
    vertex 24.400365448549383 12.156798771543956 1.9999999999999998
    vertex 24.719799914014903 12.111446046334702 1.9999999999999998
  endloop
endfacet
facet normal 0.0 0.0 1.0
  outer loop
    vertex 25.80286544854938 13.445525617991883 1.9999999999999998
    vertex 24.719799914014903 12.111446046334702 1.9999999999999998
    vertex 25.017465448549377 11.978478583981044 1.9999999999999998
  endloop
endfacet
facet normal 0.0 0.0 1.0
  outer loop
    vertex 25.80286544854938 13.445525617991883 1.9999999999999998
    vertex 25.017465448549377 11.978478583981044 1.9999999999999998
    vertex 25.273076637889815 11.766957897303248 1.9999999999999998
  endloop
endfacet
facet normal 0.0 0.0 1.0
  outer loop
    vertex 25.80286544854938 13.445525617991883 1.9999999999999998
    vertex 25.273076637889815 11.766957897303248 1.9999999999999998
    vertex 25.469214001900127 11.491298771543955 1.9999999999999998
  endloop
endfacet
facet normal 0.0 0.0 1.0
  outer loop
    vertex 25.80286544854938 13.445525617991883 1.9999999999999998
    vertex 25.469214001900127 11.491298771543955 1.9999999999999998
    vertex 25.59251110335535 11.17028692057541 1.9999999999999998
  endloop
endfacet
facet normal 0.0 0.0 1.0
  outer loop
    vertex 25.80286544854938 13.445525617991883 1.9999999999999998
    vertex 25.59251110335535 11.17028692057541 1.9999999999999998
    vertex 25.634565448549374 10.825798771543955 1.9999999999999998
  endloop
endfacet
facet normal 0.0 0.0 1.0
  outer loop
    vertex 25.80286544854938 13.445525617991883 1.9999999999999998
    vertex 25.634565448549374 10.825798771543955 1.9999999999999998
    vertex 25.80286544854938 8.206071925096023 1.9999999999999998
  endloop
endfacet
facet normal 0.0 0.0 1.0
  outer loop
    vertex 25.80286544854938 13.445525617991883 1.9999999999999998
    vertex 25.80286544854938 8.206071925096023 1.9999999999999998
    vertex 27.20536544854938 10.825798771543955 1.9999999999999998
  endloop
endfacet
facet normal -0.40785815846324164 0.9130453014910999 0.0
  outer loop
    vertex 24.719799914014903 9.540151496753206 1.9999999999999998
    vertex 25.017465448549377 9.673118959106867 0.0
    vertex 24.719799914014903 9.540151496753206 0.0
  endloop
endfacet
facet normal -0.40785815846324164 0.9130453014910999 0.0
  outer loop
    vertex 25.017465448549377 9.673118959106867 0.0
    vertex 24.719799914014903 9.540151496753206 1.9999999999999998
    vertex 25.017465448549377 9.673118959106867 1.9999999999999998
  endloop
endfacet
facet normal -0.637532637549238 0.7704233485944674 0.0
  outer loop
    vertex 25.017465448549377 9.673118959106867 1.9999999999999998
    vertex 25.273076637889815 9.88463964578466 0.0
    vertex 25.017465448549377 9.673118959106867 0.0
  endloop
endfacet
facet normal -0.637532637549238 0.7704233485944674 0.0
  outer loop
    vertex 25.273076637889815 9.88463964578466 0.0
    vertex 25.017465448549377 9.673118959106867 1.9999999999999998
    vertex 25.273076637889815 9.88463964578466 1.9999999999999998
  endloop
endfacet
facet normal -0.8147974123087914 0.5797457864399684 0.0
  outer loop
    vertex 25.469214001900127 10.160298771543955 1.9999999999999998
    vertex 25.273076637889815 9.88463964578466 0.0
    vertex 25.273076637889815 9.88463964578466 1.9999999999999998
  endloop
endfacet
facet normal -0.8147974123087914 0.5797457864399684 0.0
  outer loop
    vertex 25.273076637889815 9.88463964578466 0.0
    vertex 25.469214001900127 10.160298771543955 1.9999999999999998
    vertex 25.469214001900127 10.160298771543955 0.0
  endloop
endfacet
facet normal -0.9335101663279547 0.35855092994211374 0.0
  outer loop
    vertex 25.59251110335535 10.4813106225125 1.9999999999999998
    vertex 25.469214001900127 10.160298771543955 0.0
    vertex 25.469214001900127 10.160298771543955 1.9999999999999998
  endloop
endfacet
facet normal -0.9335101663279547 0.35855092994211374 0.0
  outer loop
    vertex 25.469214001900127 10.160298771543955 0.0
    vertex 25.59251110335535 10.4813106225125 1.9999999999999998
    vertex 25.59251110335535 10.4813106225125 0.0
  endloop
endfacet
facet normal -0.9926307750085733 0.1211781519329249 0.0
  outer loop
    vertex 25.634565448549374 10.825798771543955 1.9999999999999998
    vertex 25.59251110335535 10.4813106225125 0.0
    vertex 25.59251110335535 10.4813106225125 1.9999999999999998
  endloop
endfacet
facet normal -0.9926307750085733 0.1211781519329249 0.0
  outer loop
    vertex 25.59251110335535 10.4813106225125 0.0
    vertex 25.634565448549374 10.825798771543955 1.9999999999999998
    vertex 25.634565448549374 10.825798771543955 0.0
  endloop
endfacet
facet normal -0.9926307750085736 -0.12117815193292429 0.0
  outer loop
    vertex 25.59251110335535 11.17028692057541 1.9999999999999998
    vertex 25.634565448549374 10.825798771543955 0.0
    vertex 25.634565448549374 10.825798771543955 1.9999999999999998
  endloop
endfacet
facet normal -0.9926307750085736 -0.12117815193292429 0.0
  outer loop
    vertex 25.634565448549374 10.825798771543955 0.0
    vertex 25.59251110335535 11.17028692057541 1.9999999999999998
    vertex 25.59251110335535 11.17028692057541 0.0
  endloop
endfacet
facet normal -0.9335101663279485 -0.35855092994212995 0.0
  outer loop
    vertex 25.469214001900127 11.491298771543955 1.9999999999999998
    vertex 25.59251110335535 11.17028692057541 0.0
    vertex 25.59251110335535 11.17028692057541 1.9999999999999998
  endloop
endfacet
facet normal -0.9335101663279485 -0.35855092994212995 0.0
  outer loop
    vertex 25.59251110335535 11.17028692057541 0.0
    vertex 25.469214001900127 11.491298771543955 1.9999999999999998
    vertex 25.469214001900127 11.491298771543955 0.0
  endloop
endfacet
facet normal -0.8147974123087983 -0.5797457864399587 0.0
  outer loop
    vertex 25.273076637889815 11.766957897303248 1.9999999999999998
    vertex 25.469214001900127 11.491298771543955 0.0
    vertex 25.469214001900127 11.491298771543955 1.9999999999999998
  endloop
endfacet
facet normal -0.8147974123087983 -0.5797457864399587 0.0
  outer loop
    vertex 25.469214001900127 11.491298771543955 0.0
    vertex 25.273076637889815 11.766957897303248 1.9999999999999998
    vertex 25.273076637889815 11.766957897303248 0.0
  endloop
endfacet
facet normal -0.637532637549238 -0.7704233485944674 0.0
  outer loop
    vertex 25.273076637889815 11.766957897303248 1.9999999999999998
    vertex 25.017465448549377 11.978478583981044 0.0
    vertex 25.273076637889815 11.766957897303248 0.0
  endloop
endfacet
facet normal -0.637532637549238 -0.7704233485944674 0.0
  outer loop
    vertex 25.017465448549377 11.978478583981044 0.0
    vertex 25.273076637889815 11.766957897303248 1.9999999999999998
    vertex 25.017465448549377 11.978478583981044 1.9999999999999998
  endloop
endfacet
facet normal -0.40785815846324164 -0.9130453014910999 0.0
  outer loop
    vertex 25.017465448549377 11.978478583981044 1.9999999999999998
    vertex 24.719799914014903 12.111446046334702 0.0
    vertex 25.017465448549377 11.978478583981044 0.0
  endloop
endfacet
facet normal -0.40785815846324164 -0.9130453014910999 0.0
  outer loop
    vertex 24.719799914014903 12.111446046334702 0.0
    vertex 25.017465448549377 11.978478583981044 1.9999999999999998
    vertex 24.719799914014903 12.111446046334702 1.9999999999999998
  endloop
endfacet
facet normal -0.14056847643559153 -0.9900709587865794 0.0
  outer loop
    vertex 24.719799914014903 12.111446046334702 1.9999999999999998
    vertex 24.400365448549383 12.156798771543956 0.0
    vertex 24.719799914014903 12.111446046334702 0.0
  endloop
endfacet
facet normal -0.14056847643559153 -0.9900709587865794 0.0
  outer loop
    vertex 24.400365448549383 12.156798771543956 0.0
    vertex 24.719799914014903 12.111446046334702 1.9999999999999998
    vertex 24.400365448549383 12.156798771543956 1.9999999999999998
  endloop
endfacet
facet normal 0.14056847643558884 -0.9900709587865798 0.0
  outer loop
    vertex 24.400365448549383 12.156798771543956 1.9999999999999998
    vertex 24.08093098308384 12.111446046334702 0.0
    vertex 24.400365448549383 12.156798771543956 0.0
  endloop
endfacet
facet normal 0.14056847643558884 -0.9900709587865798 0.0
  outer loop
    vertex 24.08093098308384 12.111446046334702 0.0
    vertex 24.400365448549383 12.156798771543956 1.9999999999999998
    vertex 24.08093098308384 12.111446046334702 1.9999999999999998
  endloop
endfacet
facet normal 0.4078581584632488 -0.9130453014910966 0.0
  outer loop
    vertex 24.08093098308384 12.111446046334702 1.9999999999999998
    vertex 23.783265448549376 11.978478583981044 0.0
    vertex 24.08093098308384 12.111446046334702 0.0
  endloop
endfacet
facet normal 0.4078581584632488 -0.9130453014910966 0.0
  outer loop
    vertex 23.783265448549376 11.978478583981044 0.0
    vertex 24.08093098308384 12.111446046334702 1.9999999999999998
    vertex 23.783265448549376 11.978478583981044 1.9999999999999998
  endloop
endfacet
facet normal 0.637532637549238 -0.7704233485944674 0.0
  outer loop
    vertex 23.783265448549376 11.978478583981044 1.9999999999999998
    vertex 23.527654259208933 11.766957897303248 0.0
    vertex 23.783265448549376 11.978478583981044 0.0
  endloop
endfacet
facet normal 0.637532637549238 -0.7704233485944674 0.0
  outer loop
    vertex 23.527654259208933 11.766957897303248 0.0
    vertex 23.783265448549376 11.978478583981044 1.9999999999999998
    vertex 23.527654259208933 11.766957897303248 1.9999999999999998
  endloop
endfacet
facet normal 0.8147974123087914 -0.5797457864399684 0.0
  outer loop
    vertex 23.527654259208933 11.766957897303248 0.0
    vertex 23.331516895198625 11.491298771543953 1.9999999999999998
    vertex 23.331516895198625 11.491298771543953 0.0
  endloop
endfacet
facet normal 0.8147974123087914 -0.5797457864399684 0.0
  outer loop
    vertex 23.331516895198625 11.491298771543953 1.9999999999999998
    vertex 23.527654259208933 11.766957897303248 0.0
    vertex 23.527654259208933 11.766957897303248 1.9999999999999998
  endloop
endfacet
facet normal 0.9335101663279547 -0.35855092994211374 0.0
  outer loop
    vertex 23.331516895198625 11.491298771543953 0.0
    vertex 23.20821979374341 11.170286920575409 1.9999999999999998
    vertex 23.20821979374341 11.170286920575409 0.0
  endloop
endfacet
facet normal 0.9335101663279547 -0.35855092994211374 0.0
  outer loop
    vertex 23.20821979374341 11.170286920575409 1.9999999999999998
    vertex 23.331516895198625 11.491298771543953 0.0
    vertex 23.331516895198625 11.491298771543953 1.9999999999999998
  endloop
endfacet
facet normal 0.9926307750085733 -0.1211781519329249 0.0
  outer loop
    vertex 23.20821979374341 11.170286920575409 0.0
    vertex 23.166165448549386 10.825798771543955 1.9999999999999998
    vertex 23.166165448549386 10.825798771543955 0.0
  endloop
endfacet
facet normal 0.9926307750085733 -0.1211781519329249 0.0
  outer loop
    vertex 23.166165448549386 10.825798771543955 1.9999999999999998
    vertex 23.20821979374341 11.170286920575409 0.0
    vertex 23.20821979374341 11.170286920575409 1.9999999999999998
  endloop
endfacet
facet normal 0.9926307750085736 0.12117815193292429 0.0
  outer loop
    vertex 23.166165448549386 10.825798771543955 0.0
    vertex 23.20821979374341 10.481310622512499 1.9999999999999998
    vertex 23.20821979374341 10.481310622512499 0.0
  endloop
endfacet
facet normal 0.9926307750085736 0.12117815193292429 0.0
  outer loop
    vertex 23.20821979374341 10.481310622512499 1.9999999999999998
    vertex 23.166165448549386 10.825798771543955 0.0
    vertex 23.166165448549386 10.825798771543955 1.9999999999999998
  endloop
endfacet
facet normal 0.9335101663279485 0.35855092994212995 0.0
  outer loop
    vertex 23.20821979374341 10.481310622512499 0.0
    vertex 23.331516895198625 10.160298771543953 1.9999999999999998
    vertex 23.331516895198625 10.160298771543953 0.0
  endloop
endfacet
facet normal 0.9335101663279485 0.35855092994212995 0.0
  outer loop
    vertex 23.331516895198625 10.160298771543953 1.9999999999999998
    vertex 23.20821979374341 10.481310622512499 0.0
    vertex 23.20821979374341 10.481310622512499 1.9999999999999998
  endloop
endfacet
facet normal 0.8147974123087983 0.5797457864399587 0.0
  outer loop
    vertex 23.331516895198625 10.160298771543953 0.0
    vertex 23.527654259208933 9.88463964578466 1.9999999999999998
    vertex 23.527654259208933 9.88463964578466 0.0
  endloop
endfacet
facet normal 0.8147974123087983 0.5797457864399587 0.0
  outer loop
    vertex 23.527654259208933 9.88463964578466 1.9999999999999998
    vertex 23.331516895198625 10.160298771543953 0.0
    vertex 23.331516895198625 10.160298771543953 1.9999999999999998
  endloop
endfacet
facet normal 0.637532637549238 0.7704233485944674 0.0
  outer loop
    vertex 23.527654259208933 9.88463964578466 1.9999999999999998
    vertex 23.783265448549376 9.673118959106867 0.0
    vertex 23.527654259208933 9.88463964578466 0.0
  endloop
endfacet
facet normal 0.637532637549238 0.7704233485944674 0.0
  outer loop
    vertex 23.783265448549376 9.673118959106867 0.0
    vertex 23.527654259208933 9.88463964578466 1.9999999999999998
    vertex 23.783265448549376 9.673118959106867 1.9999999999999998
  endloop
endfacet
facet normal 0.40785815846324164 0.9130453014910999 0.0
  outer loop
    vertex 23.783265448549376 9.673118959106867 1.9999999999999998
    vertex 24.08093098308385 9.540151496753206 0.0
    vertex 23.783265448549376 9.673118959106867 0.0
  endloop
endfacet
facet normal 0.40785815846324164 0.9130453014910999 0.0
  outer loop
    vertex 24.08093098308385 9.540151496753206 0.0
    vertex 23.783265448549376 9.673118959106867 1.9999999999999998
    vertex 24.08093098308385 9.540151496753206 1.9999999999999998
  endloop
endfacet
facet normal 0.14056847643559153 0.9900709587865794 0.0
  outer loop
    vertex 24.08093098308385 9.540151496753206 1.9999999999999998
    vertex 24.400365448549383 9.494798771543952 0.0
    vertex 24.08093098308385 9.540151496753206 0.0
  endloop
endfacet
facet normal 0.14056847643559153 0.9900709587865794 0.0
  outer loop
    vertex 24.400365448549383 9.494798771543952 0.0
    vertex 24.08093098308385 9.540151496753206 1.9999999999999998
    vertex 24.400365448549383 9.494798771543952 1.9999999999999998
  endloop
endfacet
facet normal -0.14056847643559153 0.9900709587865794 0.0
  outer loop
    vertex 24.400365448549383 9.494798771543952 1.9999999999999998
    vertex 24.719799914014903 9.540151496753206 0.0
    vertex 24.400365448549383 9.494798771543952 0.0
  endloop
endfacet
facet normal -0.14056847643559153 0.9900709587865794 0.0
  outer loop
    vertex 24.719799914014903 9.540151496753206 0.0
    vertex 24.400365448549383 9.494798771543952 1.9999999999999998
    vertex 24.719799914014903 9.540151496753206 1.9999999999999998
  endloop
endfacet
facet normal 0.0 0.0 1.0
  outer loop
    vertex 34.08832686663747 7.800798771543951 1.9999999999999998
    vertex 31.659125609022123 12.338298771543952 1.9999999999999998
    vertex 31.659125609022123 9.313298771543955 1.9999999999999998
  endloop
endfacet
facet normal 0.0 0.0 1.0
  outer loop
    vertex 31.659125609022123 12.338298771543952 1.9999999999999998
    vertex 34.08832686663747 7.800798771543951 1.9999999999999998
    vertex 33.03687078989818 10.128820198619762 1.9999999999999998
  endloop
endfacet
facet normal 0.0 0.0 1.0
  outer loop
    vertex 31.659125609022123 12.338298771543952 1.9999999999999998
    vertex 33.03687078989818 10.128820198619762 1.9999999999999998
    vertex 32.90542632756533 10.446050092609708 1.9999999999999998
  endloop
endfacet
facet normal 0.0 0.0 1.0
  outer loop
    vertex 31.659125609022123 12.338298771543952 1.9999999999999998
    vertex 32.90542632756533 10.446050092609708 1.9999999999999998
    vertex 32.85459458213469 10.789159231504655 1.9999999999999998
  endloop
endfacet
facet normal 0.0 0.0 1.0
  outer loop
    vertex 33.03687078989818 10.128820198619762 1.9999999999999998
    vertex 34.08832686663747 7.800798771543951 1.9999999999999998
    vertex 33.23997024624748 9.859088242563049 1.9999999999999998
  endloop
endfacet
facet normal 0.0 0.0 1.0
  outer loop
    vertex 33.23997024624748 9.859088242563049 1.9999999999999998
    vertex 34.08832686663747 7.800798771543951 1.9999999999999998
    vertex 33.500883804300756 9.6552360114917 1.9999999999999998
  endloop
endfacet
facet normal 0.0 0.0 1.0
  outer loop
    vertex 33.500883804300756 9.6552360114917 1.9999999999999998
    vertex 34.08832686663747 7.800798771543951 1.9999999999999998
    vertex 33.80183063625672 9.531155698071487 1.9999999999999998
  endloop
endfacet
facet normal 0.0 0.0 1.0
  outer loop
    vertex 33.80183063625672 9.531155698071487 1.9999999999999998
    vertex 34.08832686663747 7.800798771543951 1.9999999999999998
    vertex 34.122301712855716 9.495303170609583 1.9999999999999998
  endloop
endfacet
facet normal 0.0 0.0 1.0
  outer loop
    vertex 34.122301712855716 9.495303170609583 1.9999999999999998
    vertex 34.08832686663747 7.800798771543951 1.9999999999999998
    vertex 36.51752812425281 9.313298771543952 1.9999999999999998
  endloop
endfacet
facet normal 0.0 0.0 1.0
  outer loop
    vertex 34.122301712855716 9.495303170609583 1.9999999999999998
    vertex 36.51752812425281 9.313298771543952 1.9999999999999998
    vertex 34.440457459831045 9.550121719603416 1.9999999999999998
  endloop
endfacet
facet normal 0.0 0.0 1.0
  outer loop
    vertex 34.440457459831045 9.550121719603416 1.9999999999999998
    vertex 36.51752812425281 9.313298771543952 1.9999999999999998
    vertex 34.734616088803534 9.691875551530993 1.9999999999999998
  endloop
endfacet
facet normal 0.0 0.0 1.0
  outer loop
    vertex 34.734616088803534 9.691875551530993 1.9999999999999998
    vertex 36.51752812425281 9.313298771543952 1.9999999999999998
    vertex 34.984731175328854 9.910904377005734 1.9999999999999998
  endloop
endfacet
facet normal 0.0 0.0 1.0
  outer loop
    vertex 34.984731175328854 9.910904377005734 1.9999999999999998
    vertex 36.51752812425281 9.313298771543952 1.9999999999999998
    vertex 35.173757789595015 10.192281743533774 1.9999999999999998
  endloop
endfacet
facet normal 0.0 0.0 1.0
  outer loop
    vertex 35.173757789595015 10.192281743533774 1.9999999999999998
    vertex 36.51752812425281 9.313298771543952 1.9999999999999998
    vertex 35.288814080221016 10.516832248584324 1.9999999999999998
  endloop
endfacet
facet normal 0.0 0.0 1.0
  outer loop
    vertex 35.288814080221016 10.516832248584324 1.9999999999999998
    vertex 36.51752812425281 9.313298771543952 1.9999999999999998
    vertex 35.322059151140245 10.862438311583245 1.9999999999999998
  endloop
endfacet
facet normal 0.0 0.0 1.0
  outer loop
    vertex 31.659125609022123 12.338298771543952 1.9999999999999998
    vertex 33.002895943679924 11.459315799554128 1.9999999999999998
    vertex 34.08832686663747 13.850798771543957 1.9999999999999998
  endloop
endfacet
facet normal 0.0 0.0 1.0
  outer loop
    vertex 33.002895943679924 11.459315799554128 1.9999999999999998
    vertex 31.659125609022123 12.338298771543952 1.9999999999999998
    vertex 32.88783965305391 11.134765294503582 1.9999999999999998
  endloop
endfacet
facet normal 0.0 0.0 1.0
  outer loop
    vertex 32.88783965305391 11.134765294503582 1.9999999999999998
    vertex 31.659125609022123 12.338298771543952 1.9999999999999998
    vertex 32.85459458213469 10.789159231504655 1.9999999999999998
  endloop
endfacet
facet normal 0.0 0.0 1.0
  outer loop
    vertex 34.08832686663747 13.850798771543957 1.9999999999999998
    vertex 33.002895943679924 11.459315799554128 1.9999999999999998
    vertex 33.191922557946086 11.740693166082174 1.9999999999999998
  endloop
endfacet
facet normal 0.0 0.0 1.0
  outer loop
    vertex 34.08832686663747 13.850798771543957 1.9999999999999998
    vertex 33.191922557946086 11.740693166082174 1.9999999999999998
    vertex 33.4420376444714 11.959721991556908 1.9999999999999998
  endloop
endfacet
facet normal 0.0 0.0 1.0
  outer loop
    vertex 34.08832686663747 13.850798771543957 1.9999999999999998
    vertex 33.4420376444714 11.959721991556908 1.9999999999999998
    vertex 33.73619627344389 12.101475823484488 1.9999999999999998
  endloop
endfacet
facet normal 0.0 0.0 1.0
  outer loop
    vertex 34.08832686663747 13.850798771543957 1.9999999999999998
    vertex 33.73619627344389 12.101475823484488 1.9999999999999998
    vertex 34.054352020419216 12.156294372478321 1.9999999999999998
  endloop
endfacet
facet normal 0.0 0.0 1.0
  outer loop
    vertex 34.08832686663747 13.850798771543957 1.9999999999999998
    vertex 34.054352020419216 12.156294372478321 1.9999999999999998
    vertex 34.37482309701822 12.120441845016417 1.9999999999999998
  endloop
endfacet
facet normal 0.0 0.0 1.0
  outer loop
    vertex 34.08832686663747 13.850798771543957 1.9999999999999998
    vertex 34.37482309701822 12.120441845016417 1.9999999999999998
    vertex 36.51752812425281 12.338298771543949 1.9999999999999998
  endloop
endfacet
facet normal 0.0 0.0 1.0
  outer loop
    vertex 36.51752812425281 12.338298771543949 1.9999999999999998
    vertex 34.37482309701822 12.120441845016417 1.9999999999999998
    vertex 34.67576992897418 11.996361531596206 1.9999999999999998
  endloop
endfacet
facet normal 0.0 0.0 1.0
  outer loop
    vertex 36.51752812425281 12.338298771543949 1.9999999999999998
    vertex 34.67576992897418 11.996361531596206 1.9999999999999998
    vertex 34.93668348702745 11.79250930052486 1.9999999999999998
  endloop
endfacet
facet normal 0.0 0.0 1.0
  outer loop
    vertex 36.51752812425281 12.338298771543949 1.9999999999999998
    vertex 34.93668348702745 11.79250930052486 1.9999999999999998
    vertex 35.13978294337675 11.522777344468143 1.9999999999999998
  endloop
endfacet
facet normal 0.0 0.0 1.0
  outer loop
    vertex 36.51752812425281 12.338298771543949 1.9999999999999998
    vertex 35.13978294337675 11.522777344468143 1.9999999999999998
    vertex 35.2712274057096 11.205547450478198 1.9999999999999998
  endloop
endfacet
facet normal 0.0 0.0 1.0
  outer loop
    vertex 36.51752812425281 12.338298771543949 1.9999999999999998
    vertex 35.2712274057096 11.205547450478198 1.9999999999999998
    vertex 35.322059151140245 10.862438311583245 1.9999999999999998
  endloop
endfacet
facet normal 0.0 0.0 1.0
  outer loop
    vertex 36.51752812425281 12.338298771543949 1.9999999999999998
    vertex 35.322059151140245 10.862438311583245 1.9999999999999998
    vertex 36.51752812425281 9.313298771543952 1.9999999999999998
  endloop
endfacet
facet normal -0.16979895602047185 0.9854787235320496 0.0
  outer loop
    vertex 34.122301712855716 9.495303170609583 1.9999999999999998
    vertex 34.440457459831045 9.550121719603416 0.0
    vertex 34.122301712855716 9.495303170609583 0.0
  endloop
endfacet
facet normal -0.16979895602047185 0.9854787235320496 0.0
  outer loop
    vertex 34.440457459831045 9.550121719603416 0.0
    vertex 34.122301712855716 9.495303170609583 1.9999999999999998
    vertex 34.440457459831045 9.550121719603416 1.9999999999999998
  endloop
endfacet
facet normal -0.43411865283088985 0.9008557016882854 0.0
  outer loop
    vertex 34.440457459831045 9.550121719603416 1.9999999999999998
    vertex 34.734616088803534 9.691875551530993 0.0
    vertex 34.440457459831045 9.550121719603416 0.0
  endloop
endfacet
facet normal -0.43411865283088985 0.9008557016882854 0.0
  outer loop
    vertex 34.734616088803534 9.691875551530993 0.0
    vertex 34.440457459831045 9.550121719603416 1.9999999999999998
    vertex 34.734616088803534 9.691875551530993 1.9999999999999998
  endloop
endfacet
facet normal -0.658808001742711 0.7523111170518327 0.0
  outer loop
    vertex 34.734616088803534 9.691875551530993 1.9999999999999998
    vertex 34.984731175328854 9.910904377005734 0.0
    vertex 34.734616088803534 9.691875551530993 0.0
  endloop
endfacet
facet normal -0.658808001742711 0.7523111170518327 0.0
  outer loop
    vertex 34.984731175328854 9.910904377005734 0.0
    vertex 34.734616088803534 9.691875551530993 1.9999999999999998
    vertex 34.984731175328854 9.910904377005734 1.9999999999999998
  endloop
endfacet
facet normal -0.8300821053079765 0.5576411914909778 0.0
  outer loop
    vertex 35.173757789595015 10.192281743533774 1.9999999999999998
    vertex 34.984731175328854 9.910904377005734 0.0
    vertex 34.984731175328854 9.910904377005734 1.9999999999999998
  endloop
endfacet
facet normal -0.8300821053079765 0.5576411914909778 0.0
  outer loop
    vertex 34.984731175328854 9.910904377005734 0.0
    vertex 35.173757789595015 10.192281743533774 1.9999999999999998
    vertex 35.173757789595015 10.192281743533774 0.0
  endloop
endfacet
facet normal -0.9425254460216244 0.3341343795566956 0.0
  outer loop
    vertex 35.288814080221016 10.516832248584324 1.9999999999999998
    vertex 35.173757789595015 10.192281743533774 0.0
    vertex 35.173757789595015 10.192281743533774 1.9999999999999998
  endloop
endfacet
facet normal -0.9425254460216244 0.3341343795566956 0.0
  outer loop
    vertex 35.173757789595015 10.192281743533774 0.0
    vertex 35.288814080221016 10.516832248584324 1.9999999999999998
    vertex 35.288814080221016 10.516832248584324 0.0
  endloop
endfacet
facet normal -0.9954052638798113 0.09575155685608033 0.0
  outer loop
    vertex 35.322059151140245 10.862438311583245 1.9999999999999998
    vertex 35.288814080221016 10.516832248584324 0.0
    vertex 35.288814080221016 10.516832248584324 1.9999999999999998
  endloop
endfacet
facet normal -0.9954052638798113 0.09575155685608033 0.0
  outer loop
    vertex 35.288814080221016 10.516832248584324 0.0
    vertex 35.322059151140245 10.862438311583245 1.9999999999999998
    vertex 35.322059151140245 10.862438311583245 0.0
  endloop
endfacet
facet normal -0.989203143922009 -0.1465508104884213 0.0
  outer loop
    vertex 35.2712274057096 11.205547450478198 1.9999999999999998
    vertex 35.322059151140245 10.862438311583245 0.0
    vertex 35.322059151140245 10.862438311583245 1.9999999999999998
  endloop
endfacet
facet normal -0.989203143922009 -0.1465508104884213 0.0
  outer loop
    vertex 35.322059151140245 10.862438311583245 0.0
    vertex 35.2712274057096 11.205547450478198 1.9999999999999998
    vertex 35.2712274057096 11.205547450478198 0.0
  endloop
endfacet
facet normal -0.9238346989152588 -0.38279165231252543 0.0
  outer loop
    vertex 35.13978294337675 11.522777344468143 1.9999999999999998
    vertex 35.2712274057096 11.205547450478198 0.0
    vertex 35.2712274057096 11.205547450478198 1.9999999999999998
  endloop
endfacet
facet normal -0.9238346989152588 -0.38279165231252543 0.0
  outer loop
    vertex 35.2712274057096 11.205547450478198 0.0
    vertex 35.13978294337675 11.522777344468143 1.9999999999999998
    vertex 35.13978294337675 11.522777344468143 0.0
  endloop
endfacet
facet normal -0.798860579189045 -0.6015162300534741 0.0
  outer loop
    vertex 34.93668348702745 11.79250930052486 1.9999999999999998
    vertex 35.13978294337675 11.522777344468143 0.0
    vertex 35.13978294337675 11.522777344468143 1.9999999999999998
  endloop
endfacet
facet normal -0.798860579189045 -0.6015162300534741 0.0
  outer loop
    vertex 35.13978294337675 11.522777344468143 0.0
    vertex 34.93668348702745 11.79250930052486 1.9999999999999998
    vertex 34.93668348702745 11.79250930052486 0.0
  endloop
endfacet
facet normal -0.6156693865336788 -0.7880045726296541 0.0
  outer loop
    vertex 34.93668348702745 11.79250930052486 1.9999999999999998
    vertex 34.67576992897418 11.996361531596206 0.0
    vertex 34.93668348702745 11.79250930052486 0.0
  endloop
endfacet
facet normal -0.6156693865336788 -0.7880045726296541 0.0
  outer loop
    vertex 34.67576992897418 11.996361531596206 0.0
    vertex 34.93668348702745 11.79250930052486 1.9999999999999998
    vertex 34.67576992897418 11.996361531596206 1.9999999999999998
  endloop
endfacet
facet normal -0.3811727319475439 -0.9245038390507885 0.0
  outer loop
    vertex 34.67576992897418 11.996361531596206 1.9999999999999998
    vertex 34.37482309701822 12.120441845016417 0.0
    vertex 34.67576992897418 11.996361531596206 0.0
  endloop
endfacet
facet normal -0.3811727319475439 -0.9245038390507885 0.0
  outer loop
    vertex 34.37482309701822 12.120441845016417 0.0
    vertex 34.67576992897418 11.996361531596206 1.9999999999999998
    vertex 34.37482309701822 12.120441845016417 1.9999999999999998
  endloop
endfacet
facet normal -0.11118085592959923 -0.993800189814211 0.0
  outer loop
    vertex 34.37482309701822 12.120441845016417 1.9999999999999998
    vertex 34.054352020419216 12.156294372478321 0.0
    vertex 34.37482309701822 12.120441845016417 0.0
  endloop
endfacet
facet normal -0.11118085592959923 -0.993800189814211 0.0
  outer loop
    vertex 34.054352020419216 12.156294372478321 0.0
    vertex 34.37482309701822 12.120441845016417 1.9999999999999998
    vertex 34.054352020419216 12.156294372478321 1.9999999999999998
  endloop
endfacet
facet normal 0.16979895602047185 -0.9854787235320496 0.0
  outer loop
    vertex 34.054352020419216 12.156294372478321 1.9999999999999998
    vertex 33.73619627344389 12.101475823484488 0.0
    vertex 34.054352020419216 12.156294372478321 0.0
  endloop
endfacet
facet normal 0.16979895602047185 -0.9854787235320496 0.0
  outer loop
    vertex 33.73619627344389 12.101475823484488 0.0
    vertex 34.054352020419216 12.156294372478321 1.9999999999999998
    vertex 33.73619627344389 12.101475823484488 1.9999999999999998
  endloop
endfacet
facet normal 0.43411865283088985 -0.9008557016882854 0.0
  outer loop
    vertex 33.73619627344389 12.101475823484488 1.9999999999999998
    vertex 33.4420376444714 11.959721991556908 0.0
    vertex 33.73619627344389 12.101475823484488 0.0
  endloop
endfacet
facet normal 0.43411865283088985 -0.9008557016882854 0.0
  outer loop
    vertex 33.4420376444714 11.959721991556908 0.0
    vertex 33.73619627344389 12.101475823484488 1.9999999999999998
    vertex 33.4420376444714 11.959721991556908 1.9999999999999998
  endloop
endfacet
facet normal 0.658808001742711 -0.7523111170518327 0.0
  outer loop
    vertex 33.4420376444714 11.959721991556908 1.9999999999999998
    vertex 33.191922557946086 11.740693166082174 0.0
    vertex 33.4420376444714 11.959721991556908 0.0
  endloop
endfacet
facet normal 0.658808001742711 -0.7523111170518327 0.0
  outer loop
    vertex 33.191922557946086 11.740693166082174 0.0
    vertex 33.4420376444714 11.959721991556908 1.9999999999999998
    vertex 33.191922557946086 11.740693166082174 1.9999999999999998
  endloop
endfacet
facet normal 0.8300821053079765 -0.5576411914909778 0.0
  outer loop
    vertex 33.191922557946086 11.740693166082174 0.0
    vertex 33.002895943679924 11.459315799554128 1.9999999999999998
    vertex 33.002895943679924 11.459315799554128 0.0
  endloop
endfacet
facet normal 0.8300821053079765 -0.5576411914909778 0.0
  outer loop
    vertex 33.002895943679924 11.459315799554128 1.9999999999999998
    vertex 33.191922557946086 11.740693166082174 0.0
    vertex 33.191922557946086 11.740693166082174 1.9999999999999998
  endloop
endfacet
facet normal 0.9425254460216244 -0.3341343795566956 0.0
  outer loop
    vertex 33.002895943679924 11.459315799554128 0.0
    vertex 32.88783965305391 11.134765294503582 1.9999999999999998
    vertex 32.88783965305391 11.134765294503582 0.0
  endloop
endfacet
facet normal 0.9425254460216244 -0.3341343795566956 0.0
  outer loop
    vertex 32.88783965305391 11.134765294503582 1.9999999999999998
    vertex 33.002895943679924 11.459315799554128 0.0
    vertex 33.002895943679924 11.459315799554128 1.9999999999999998
  endloop
endfacet
facet normal 0.9954052638798113 -0.09575155685608033 0.0
  outer loop
    vertex 32.88783965305391 11.134765294503582 0.0
    vertex 32.85459458213469 10.789159231504655 1.9999999999999998
    vertex 32.85459458213469 10.789159231504655 0.0
  endloop
endfacet
facet normal 0.9954052638798113 -0.09575155685608033 0.0
  outer loop
    vertex 32.85459458213469 10.789159231504655 1.9999999999999998
    vertex 32.88783965305391 11.134765294503582 0.0
    vertex 32.88783965305391 11.134765294503582 1.9999999999999998
  endloop
endfacet
facet normal 0.989203143922009 0.1465508104884213 0.0
  outer loop
    vertex 32.85459458213469 10.789159231504655 0.0
    vertex 32.90542632756533 10.446050092609708 1.9999999999999998
    vertex 32.90542632756533 10.446050092609708 0.0
  endloop
endfacet
facet normal 0.989203143922009 0.1465508104884213 0.0
  outer loop
    vertex 32.90542632756533 10.446050092609708 1.9999999999999998
    vertex 32.85459458213469 10.789159231504655 0.0
    vertex 32.85459458213469 10.789159231504655 1.9999999999999998
  endloop
endfacet
facet normal 0.9238346989152588 0.38279165231252543 0.0
  outer loop
    vertex 32.90542632756533 10.446050092609708 0.0
    vertex 33.03687078989818 10.128820198619762 1.9999999999999998
    vertex 33.03687078989818 10.128820198619762 0.0
  endloop
endfacet
facet normal 0.9238346989152588 0.38279165231252543 0.0
  outer loop
    vertex 33.03687078989818 10.128820198619762 1.9999999999999998
    vertex 32.90542632756533 10.446050092609708 0.0
    vertex 32.90542632756533 10.446050092609708 1.9999999999999998
  endloop
endfacet
facet normal 0.798860579189045 0.6015162300534741 0.0
  outer loop
    vertex 33.03687078989818 10.128820198619762 0.0
    vertex 33.23997024624748 9.859088242563049 1.9999999999999998
    vertex 33.23997024624748 9.859088242563049 0.0
  endloop
endfacet
facet normal 0.798860579189045 0.6015162300534741 0.0
  outer loop
    vertex 33.23997024624748 9.859088242563049 1.9999999999999998
    vertex 33.03687078989818 10.128820198619762 0.0
    vertex 33.03687078989818 10.128820198619762 1.9999999999999998
  endloop
endfacet
facet normal 0.6156693865336788 0.7880045726296541 0.0
  outer loop
    vertex 33.23997024624748 9.859088242563049 1.9999999999999998
    vertex 33.500883804300756 9.6552360114917 0.0
    vertex 33.23997024624748 9.859088242563049 0.0
  endloop
endfacet
facet normal 0.6156693865336788 0.7880045726296541 0.0
  outer loop
    vertex 33.500883804300756 9.6552360114917 0.0
    vertex 33.23997024624748 9.859088242563049 1.9999999999999998
    vertex 33.500883804300756 9.6552360114917 1.9999999999999998
  endloop
endfacet
facet normal 0.38117273194753715 0.9245038390507911 0.0
  outer loop
    vertex 33.500883804300756 9.6552360114917 1.9999999999999998
    vertex 33.80183063625672 9.531155698071487 0.0
    vertex 33.500883804300756 9.6552360114917 0.0
  endloop
endfacet
facet normal 0.38117273194753715 0.9245038390507911 0.0
  outer loop
    vertex 33.80183063625672 9.531155698071487 0.0
    vertex 33.500883804300756 9.6552360114917 1.9999999999999998
    vertex 33.80183063625672 9.531155698071487 1.9999999999999998
  endloop
endfacet
facet normal 0.11118085592960136 0.9938001898142107 0.0
  outer loop
    vertex 33.80183063625672 9.531155698071487 1.9999999999999998
    vertex 34.122301712855716 9.495303170609583 0.0
    vertex 33.80183063625672 9.531155698071487 0.0
  endloop
endfacet
facet normal 0.11118085592960136 0.9938001898142107 0.0
  outer loop
    vertex 34.122301712855716 9.495303170609583 0.0
    vertex 33.80183063625672 9.531155698071487 1.9999999999999998
    vertex 34.122301712855716 9.495303170609583 1.9999999999999998
  endloop
endfacet
endsolid test_fix_table
