solid tray1
facet normal -0.9402612036000199 -0.34045391607815023 5.6297385572128844e-06
  outer loop
    vertex 89.34962662569481 49.60180268796844 6.001373581583823
    vertex 87.43019841447259 54.90275537515754 0.001306476332018834
    vertex 89.34964533862417 49.60165179097362 0.001373583510496333
  endloop
endfacet
facet normal -0.9402612036000199 -0.34045391607815023 5.6297385572128844e-06
  outer loop
    vertex 87.43019841447259 54.90275537515754 0.001306476332018834
    vertex 89.34962662569481 49.60180268796844 6.001373581583823
    vertex 87.43017970154324 54.902906272152336 6.001306474405345
  endloop
endfacet
facet normal -0.29272496221441713 -0.9561966826763959 2.3134910728629124e-05
  outer loop
    vertex 75.39141217093604 66.35044752767254 0.0010627009438352153
    vertex 70.00044715067781 68.00095402705622 6.000981776825112
    vertex 70.00046586360718 68.0008031300614 0.0009817787517853727
  endloop
endfacet
facet normal -0.29272496221441713 -0.9561966826763959 2.3134910728629124e-05
  outer loop
    vertex 70.00044715067781 68.00095402705622 6.000981776825112
    vertex 75.39141217093604 66.35044752767254 0.0010627009438352153
    vertex 75.39139345800668 66.35059842466734 6.001062699017162
  endloop
endfacet
facet normal 3.2029433384578334e-05 -0.9999999991708066 2.514959901658831e-05
  outer loop
    vertex 52.00026227838118 75.00009632393208 0.0010782972397670634
    vertex 28.000243583690573 74.99947850073855 6.0005300944821975
    vertex 28.000262296619933 74.99932760374374 0.0005300964088707283
  endloop
endfacet
facet normal 3.2029433384578334e-05 -0.9999999991708066 2.514959901658831e-05
  outer loop
    vertex 28.000243583690573 74.99947850073855 6.0005300944821975
    vertex 52.00026227838118 75.00009632393208 0.0010782972397670634
    vertex 52.00024356545183 75.0002472209269 6.001078295313093
  endloop
endfacet
facet normal 0.9999999994018792 3.44458984166365e-05 3.1179552607515803e-06
  outer loop
    vertex 28.000262296619933 74.99932760374374 0.0005300964088707283
    vertex 28.002379218207093 12.999743470003956 6.001190586858287
    vertex 28.00239793113645 12.99959257300914 0.0011905887849599547
  endloop
endfacet
facet normal 0.9999999994018792 3.44458984166365e-05 3.1179552607515803e-06
  outer loop
    vertex 28.002379218207093 12.999743470003956 6.001190586858287
    vertex 28.000262296619933 74.99932760374374 0.0005300964088707283
    vertex 28.000243583690573 74.99947850073855 6.0005300944821975
  endloop
endfacet
facet normal 0.7837888483926855 0.6210274075769225 -1.317403069622839e-05
  outer loop
    vertex 99.5964551857564 69.83427271369632 0.001058622268727373
    vertex 104.02088093486869 64.25040238362479 6.001300118103172
    vertex 104.02089964779805 64.25025148662999 0.0013001200298458152
  endloop
endfacet
facet normal 0.7837888483926855 0.6210274075769225 -1.317403069622839e-05
  outer loop
    vertex 104.02088093486869 64.25040238362479 6.001300118103172
    vertex 99.5964551857564 69.83427271369632 0.001058622268727373
    vertex 99.59643647282705 69.83442361069115 6.001058620342054
  endloop
endfacet
facet normal 0.6513087867747025 0.7588127990349659 -1.705244595307522e-05
  outer loop
    vertex 94.19035447799402 74.47460456921145 6.000818436125541
    vertex 99.5964551857564 69.83427271369632 0.001058622268727373
    vertex 94.19037319092337 74.47445367221663 0.0008184380522149952
  endloop
endfacet
facet normal 0.6513087867747025 0.7588127990349659 -1.705244595307522e-05
  outer loop
    vertex 99.5964551857564 69.83427271369632 0.001058622268727373
    vertex 94.19035447799402 74.47460456921145 6.000818436125541
    vertex 99.59643647282705 69.83442361069115 6.001058620342054
  endloop
endfacet
facet normal -0.9999999994018793 -3.444589840917026e-05 -3.117955260751744e-06
  outer loop
    vertex 52.00237919996789 13.000512190193296 6.001738787689092
    vertex 52.00026227838118 75.00009632393208 0.0010782972397670634
    vertex 52.00239791289724 13.00036129319848 0.0017387896157665796
  endloop
endfacet
facet normal -0.9999999994018793 -3.444589840917026e-05 -3.117955260751744e-06
  outer loop
    vertex 52.00026227838118 75.00009632393208 0.0010782972397670634
    vertex 52.00237919996789 13.000512190193296 6.001738787689092
    vertex 52.00024356545183 75.0002472209269 6.001078295313093
  endloop
endfacet
facet normal -3.284516690793526e-05 0.9999999991443463 -2.5149601560050118e-05
  outer loop
    vertex 9.023892744153272e-14 85.998569728069 6.000443271644212
    vertex 69.99974736604045 86.00071798965864 0.0006743409423829366
    vertex 1.8712929425923617e-05 85.99841883107422 0.0004432735708851748
  endloop
endfacet
facet normal -3.284516690793526e-05 0.9999999991443463 -2.5149601560050118e-05
  outer loop
    vertex 69.99974736604045 86.00071798965864 0.0006743409423829366
    vertex 9.023892744153272e-14 85.998569728069 6.000443271644212
    vertex 69.9997286531111 86.00086888665344 6.00067433901571
  endloop
endfacet
facet normal -0.993307168506865 0.11550267943576577 -6.002782350078391e-06
  outer loop
    vertex 89.34995271371228 38.40149719739447 6.001464582644719
    vertex 90.00116459068053 44.00151800947274 0.0014272411883729018
    vertex 89.34997142664163 38.40134630039963 0.001464584571392026
  endloop
endfacet
facet normal -0.993307168506865 0.11550267943576577 -6.002782350078391e-06
  outer loop
    vertex 90.00116459068053 44.00151800947274 0.0014272411883729018
    vertex 89.34995271371228 38.40149719739447 6.001464582644719
    vertex 90.00114587775117 44.00166890646755 6.0014272392617
  endloop
endfacet
facet normal -0.5044233114571154 0.863456497060665 -2.3288704732143913e-05
  outer loop
    vertex 75.39269482551298 21.651888720457926 6.00142587036158
    vertex 80.26079946489838 24.495628665354566 0.0014637328610885
    vertex 75.39271353844231 21.651737823463108 0.0014258722882535962
  endloop
endfacet
facet normal -0.5044233114571154 0.863456497060665 -2.3288704732143913e-05
  outer loop
    vertex 80.26079946489838 24.495628665354566 0.0014637328610885
    vertex 75.39269482551298 21.651888720457926 6.00142587036158
    vertex 80.26078075196902 24.49577956234936 6.0014637309344145
  endloop
endfacet
facet normal -0.6890925264310781 -0.7246733676342713 1.607601561046198e-05
  outer loop
    vertex 84.34530347583707 59.62180177470085 0.0012295025187146215
    vertex 80.25964497146546 63.50699104951442 6.001146769791243
    vertex 80.25966368439481 63.5068401525196 0.0011467717179163893
  endloop
endfacet
facet normal -0.6890925264310781 -0.7246733676342713 1.607601561046198e-05
  outer loop
    vertex 80.25964497146546 63.50699104951442 6.001146769791243
    vertex 84.34530347583707 59.62180177470085 0.0012295025187146215
    vertex 84.34528476290772 59.62195267169567 6.001229500592041
  endloop
endfacet
facet normal -0.8370530903388712 0.5471216717387036 -1.637045523947382e-05
  outer loop
    vertex 84.34619431685879 28.38105583474203 6.001483328914625
    vertex 87.43083318060242 33.10013095846036 0.0014836198888874066
    vertex 84.34621302978813 28.380904937747232 0.001483330841297535
  endloop
endfacet
facet normal -0.8370530903388712 0.5471216717387036 -1.637045523947382e-05
  outer loop
    vertex 87.43083318060242 33.10013095846036 0.0014836198888874066
    vertex 84.34619431685879 28.38105583474203 6.001483328914625
    vertex 87.43081446767306 33.10028185545518 6.001483617962213
  endloop
endfacet
facet normal -0.2927806391537788 0.9561796362157452 -2.4960569511559428e-05
  outer loop
    vertex 70.00184462491394 20.001219213511902 6.001371768579762
    vertex 75.39271353844231 21.651737823463108 0.0014258722882535962
    vertex 70.0018633378433 20.00106831651711 0.0013717705064359138
  endloop
endfacet
facet normal -0.2927806391537788 0.9561796362157452 -2.4960569511559428e-05
  outer loop
    vertex 75.39271353844231 21.651737823463108 0.0014258722882535962
    vertex 70.00184462491394 20.001219213511902 6.001371768579762
    vertex 75.39269482551298 21.651888720457926 6.00142587036158
  endloop
endfacet
facet normal -3.2029433426294964e-05 0.9999999991708066 -2.5149599016588474e-05
  outer loop
    vertex 28.002379218207093 12.999743470003956 6.001190586858287
    vertex 52.00239791289724 13.00036129319848 0.0017387896157665796
    vertex 28.00239793113645 12.99959257300914 0.0011905887849599547
  endloop
endfacet
facet normal -3.2029433426294964e-05 0.9999999991708066 -2.5149599016588474e-05
  outer loop
    vertex 52.00239791289724 13.00036129319848 0.0017387896157665796
    vertex 28.002379218207093 12.999743470003956 6.001190586858287
    vertex 52.00237919996789 13.000512190193296 6.001738787689092
  endloop
endfacet
facet normal 3.38804899864246e-05 -0.999999999109805 2.514960478816944e-05
  outer loop
    vertex 70.00230740086428 2.001055702371549 0.002786894013588939
    vertex 0.0022072450577956815 1.9988349564946049 6.002555828511377
    vertex 0.002225957987131366 1.9986840594997886 0.002555830438050703
  endloop
endfacet
facet normal 3.38804899864246e-05 -0.999999999109805 2.514960478816944e-05
  outer loop
    vertex 0.0022072450577956815 1.9988349564946049 6.002555828511377
    vertex 70.00230740086428 2.001055702371549 0.002786894013588939
    vertex 70.00228868793494 2.0012065993663652 6.002786892086915
  endloop
endfacet
facet normal 0.49502584403970273 0.8688782501212451 -1.4107550564841067e-05
  outer loop
    vertex 88.0001503773414 78.00141262461584 6.000588340771312
    vertex 94.19037319092337 74.47445367221663 0.0008184380522149952
    vertex 88.00016909027076 78.00126172762104 0.0005883426979851683
  endloop
endfacet
facet normal 0.49502584403970273 0.8688782501212451 -1.4107550564841067e-05
  outer loop
    vertex 94.19037319092337 74.47445367221663 0.0008184380522149952
    vertex 88.0001503773414 78.00141262461584 6.000588340771312
    vertex 94.19035447799402 74.47460456921145 6.000818436125541
  endloop
endfacet
facet normal 0.4061100125826826 0.9138241939432235 -1.5624061522320212e-05
  outer loop
    vertex 69.99974736604045 86.00071798965864 0.0006743409423829366
    vertex 88.0001503773414 78.00141262461584 6.000588340771312
    vertex 88.00016909027076 78.00126172762104 0.0005883426979851683
  endloop
endfacet
facet normal 0.4061100125826826 0.9138241939432235 -1.5624061522320212e-05
  outer loop
    vertex 88.0001503773414 78.00141262461584 6.000588340771312
    vertex 69.99974736604045 86.00071798965864 0.0006743409423829366
    vertex 69.9997286531111 86.00086888665344 6.00067433901571
  endloop
endfacet
facet normal 0.8876587937264536 -0.4605017543008707 1.4349837858843115e-05
  outer loop
    vertex 107.30284886958641 30.07748110326401 0.0022344978074337993
    vertex 104.0220338306052 23.75360026565693 6.002318597125441
    vertex 104.02205254353454 23.753449368662118 0.0023185990521144935
  endloop
endfacet
facet normal 0.8876587937264536 -0.4605017543008707 1.4349837858843115e-05
  outer loop
    vertex 104.0220338306052 23.75360026565693 6.002318597125441
    vertex 107.30284886958641 30.07748110326401 0.0022344978074337993
    vertex 107.30283015665708 30.077632000258824 6.00223449588076
  endloop
endfacet
facet normal 0.9590620733614799 -0.2831959380663838 1.0113379473301758e-05
  outer loop
    vertex 109.32044855213617 36.91021799454762 0.00210874857624347
    vertex 107.30283015665708 30.077632000258824 6.00223449588076
    vertex 107.30284886958641 30.07748110326401 0.0022344978074337993
  endloop
endfacet
facet normal 0.9590620733614799 -0.2831959380663838 1.0113379473301758e-05
  outer loop
    vertex 107.30283015665708 30.077632000258824 6.00223449588076
    vertex 109.32044855213617 36.91021799454762 0.00210874857624347
    vertex 109.32042983920681 36.91036889154244 6.0021087466495695
  endloop
endfacet
facet normal -0.9402810260490844 0.34039916556886884 -1.1493437259100779e-05
  outer loop
    vertex 87.43081446767306 33.10028185545518 6.001483617962213
    vertex 89.34997142664163 38.40134630039963 0.001464584571392026
    vertex 87.43083318060242 33.10013095846036 0.0014836198888874066
  endloop
endfacet
facet normal -0.9402810260490844 0.34039916556886884 -1.1493437259100779e-05
  outer loop
    vertex 89.34997142664163 38.40134630039963 0.001464584571392026
    vertex 87.43081446767306 33.10028185545518 6.001483617962213
    vertex 89.34995271371228 38.40149719739447 6.001464582644719
  endloop
endfacet
facet normal -0.5043730331967549 -0.8634858672718142 2.0143187589181232e-05
  outer loop
    vertex 80.25966368439481 63.5068401525196 0.0011467717179163893
    vertex 75.39139345800668 66.35059842466734 6.001062699017162
    vertex 75.39141217093604 66.35044752767254 0.0010627009438352153
  endloop
endfacet
facet normal -0.5043730331967549 -0.8634858672718142 2.0143187589181232e-05
  outer loop
    vertex 75.39139345800668 66.35059842466734 6.001062699017162
    vertex 80.25966368439481 63.5068401525196 0.0011467717179163893
    vertex 80.25964497146546 63.50699104951442 6.001146769791243
  endloop
endfacet
facet normal 3.118821558708189e-06 -2.5149499135278816e-05 -0.9999999996788879
  outer loop
    vertex 1.8712929425923617e-05 85.99841883107422 0.0004432735708851748
    vertex 28.000262296619933 74.99932760374374 0.0005300964088707283
    vertex 0.002225957987131366 1.9986840594997886 0.002555830438050703
  endloop
endfacet
facet normal 3.118821558708189e-06 -2.5149499135278816e-05 -0.9999999996788879
  outer loop
    vertex 28.000262296619933 74.99932760374374 0.0005300964088707283
    vertex 1.8712929425923617e-05 85.99841883107422 0.0004432735708851748
    vertex 69.99974736604045 86.00071798965864 0.0006743409423829366
  endloop
endfacet
facet normal 3.118821558708189e-06 -2.5149499135278816e-05 -0.9999999996788879
  outer loop
    vertex 28.000262296619933 74.99932760374374 0.0005300964088707283
    vertex 69.99974736604045 86.00071798965864 0.0006743409423829366
    vertex 52.00026227838118 75.00009632393208 0.0010782972397670634
  endloop
endfacet
facet normal 3.118821558708189e-06 -2.5149499135278816e-05 -0.9999999996788879
  outer loop
    vertex 52.00026227838118 75.00009632393208 0.0010782972397670634
    vertex 69.99974736604045 86.00071798965864 0.0006743409423829366
    vertex 52.00239791289724 13.00036129319848 0.0017387896157665796
  endloop
endfacet
facet normal 3.118821558708189e-06 -2.5149499135278816e-05 -0.9999999996788879
  outer loop
    vertex 88.00016909027076 78.00126172762104 0.0005883426979851683
    vertex 70.00046586360718 68.0008031300614 0.0009817787517853727
    vertex 69.99974736604045 86.00071798965864 0.0006743409423829366
  endloop
endfacet
facet normal 3.118821558708189e-06 -2.5149499135278816e-05 -0.9999999996788879
  outer loop
    vertex 70.00046586360718 68.0008031300614 0.0009817787517853727
    vertex 88.00016909027076 78.00126172762104 0.0005883426979851683
    vertex 75.39141217093604 66.35044752767254 0.0010627009438352153
  endloop
endfacet
facet normal 3.118821558708189e-06 -2.5149499135278816e-05 -0.9999999996788879
  outer loop
    vertex 75.39141217093604 66.35044752767254 0.0010627009438352153
    vertex 88.00016909027076 78.00126172762104 0.0005883426979851683
    vertex 80.25966368439481 63.5068401525196 0.0011467717179163893
  endloop
endfacet
facet normal 3.118821558708189e-06 -2.5149499135278816e-05 -0.9999999996788879
  outer loop
    vertex 80.25966368439481 63.5068401525196 0.0011467717179163893
    vertex 88.00016909027076 78.00126172762104 0.0005883426979851683
    vertex 84.34530347583707 59.62180177470085 0.0012295025187146215
  endloop
endfacet
facet normal 3.118821558708189e-06 -2.5149499135278816e-05 -0.9999999996788879
  outer loop
    vertex 84.34530347583707 59.62180177470085 0.0012295025187146215
    vertex 88.00016909027076 78.00126172762104 0.0005883426979851683
    vertex 87.43019841447259 54.90275537515754 0.001306476332018834
  endloop
endfacet
facet normal 3.118821558708189e-06 -2.5149499135278816e-05 -0.9999999996788879
  outer loop
    vertex 87.43019841447259 54.90275537515754 0.001306476332018834
    vertex 88.00016909027076 78.00126172762104 0.0005883426979851683
    vertex 89.34964533862417 49.60165179097362 0.001373583510496333
  endloop
endfacet
facet normal 3.118821558708189e-06 -2.5149499135278816e-05 -0.9999999996788879
  outer loop
    vertex 89.34964533862417 49.60165179097362 0.001373583510496333
    vertex 88.00016909027076 78.00126172762104 0.0005883426979851683
    vertex 94.19037319092337 74.47445367221663 0.0008184380522149952
  endloop
endfacet
facet normal 3.118821558708189e-06 -2.5149499135278816e-05 -0.9999999996788879
  outer loop
    vertex 89.34964533862417 49.60165179097362 0.001373583510496333
    vertex 94.19037319092337 74.47445367221663 0.0008184380522149952
    vertex 90.00116459068053 44.00151800947274 0.0014272411883729018
  endloop
endfacet
facet normal 3.118821558708189e-06 -2.5149499135278816e-05 -0.9999999996788879
  outer loop
    vertex 0.002225957987131366 1.9986840594997886 0.002555830438050703
    vertex 28.00239793113645 12.99959257300914 0.0011905887849599547
    vertex 70.00230740086428 2.001055702371549 0.002786894013588939
  endloop
endfacet
facet normal 3.118821558708189e-06 -2.5149499135278816e-05 -0.9999999996788879
  outer loop
    vertex 28.00239793113645 12.99959257300914 0.0011905887849599547
    vertex 0.002225957987131366 1.9986840594997886 0.002555830438050703
    vertex 28.000262296619933 74.99932760374374 0.0005300964088707283
  endloop
endfacet
facet normal 3.118821558708189e-06 -2.5149499135278816e-05 -0.9999999996788879
  outer loop
    vertex 70.00230740086428 2.001055702371549 0.002786894013588939
    vertex 28.00239793113645 12.99959257300914 0.0011905887849599547
    vertex 52.00239791289724 13.00036129319848 0.0017387896157665796
  endloop
endfacet
facet normal 3.118821558708189e-06 -2.5149499135278816e-05 -0.9999999996788879
  outer loop
    vertex 70.00230740086428 2.001055702371549 0.002786894013588939
    vertex 52.00239791289724 13.00036129319848 0.0017387896157665796
    vertex 69.99974736604045 86.00071798965864 0.0006743409423829366
  endloop
endfacet
facet normal 3.118821558708189e-06 -2.5149499135278816e-05 -0.9999999996788879
  outer loop
    vertex 70.00230740086428 2.001055702371549 0.002786894013588939
    vertex 69.99974736604045 86.00071798965864 0.0006743409423829366
    vertex 70.00046586360718 68.0008031300614 0.0009817787517853727
  endloop
endfacet
facet normal 3.118821558708189e-06 -2.5149499135278816e-05 -0.9999999996788879
  outer loop
    vertex 70.00230740086428 2.001055702371549 0.002786894013588939
    vertex 70.00046586360718 68.0008031300614 0.0009817787517853727
    vertex 70.0018633378433 20.00106831651711 0.0013717705064359138
  endloop
endfacet
facet normal 3.118821558708189e-06 -2.5149499135278816e-05 -0.9999999996788879
  outer loop
    vertex 70.00230740086428 2.001055702371549 0.002786894013588939
    vertex 70.0018633378433 20.00106831651711 0.0013717705064359138
    vertex 75.39271353844231 21.651737823463108 0.0014258722882535962
  endloop
endfacet
facet normal 3.118821558708189e-06 -2.5149499135278816e-05 -0.9999999996788879
  outer loop
    vertex 70.00230740086428 2.001055702371549 0.002786894013588939
    vertex 75.39271353844231 21.651737823463108 0.0014258722882535962
    vertex 88.00210496120965 10.001562939222508 0.0022985090101467266
  endloop
endfacet
facet normal 3.118821558708189e-06 -2.5149499135278816e-05 -0.9999999996788879
  outer loop
    vertex 88.00210496120965 10.001562939222508 0.0022985090101467266
    vertex 75.39271353844231 21.651737823463108 0.0014258722882535962
    vertex 80.26079946489838 24.495628665354566 0.0014637328610885
  endloop
endfacet
facet normal 3.118821558708189e-06 -2.5149499135278816e-05 -0.9999999996788879
  outer loop
    vertex 88.00210496120965 10.001562939222508 0.0022985090101467266
    vertex 80.26079946489838 24.495628665354566 0.0014637328610885
    vertex 84.34621302978813 28.380904937747232 0.001483330841297535
  endloop
endfacet
facet normal 3.118821558708189e-06 -2.5149499135278816e-05 -0.9999999996788879
  outer loop
    vertex 88.00210496120965 10.001562939222508 0.0022985090101467266
    vertex 84.34621302978813 28.380904937747232 0.001483330841297535
    vertex 87.43083318060242 33.10013095846036 0.0014836198888874066
  endloop
endfacet
facet normal 3.118821558708189e-06 -2.5149499135278816e-05 -0.9999999996788879
  outer loop
    vertex 88.00210496120965 10.001562939222508 0.0022985090101467266
    vertex 87.43083318060242 33.10013095846036 0.0014836198888874066
    vertex 89.34997142664163 38.40134630039963 0.001464584571392026
  endloop
endfacet
facet normal 3.118821558708189e-06 -2.5149499135278816e-05 -0.9999999996788879
  outer loop
    vertex 88.00210496120965 10.001562939222508 0.0022985090101467266
    vertex 89.34997142664163 38.40134630039963 0.001464584571392026
    vertex 94.19210824432041 13.528687461589902 0.002351200668750221
  endloop
endfacet
facet normal 3.118821558708189e-06 -2.5149499135278816e-05 -0.9999999996788879
  outer loop
    vertex 94.19210824432041 13.528687461589902 0.002351200668750221
    vertex 89.34997142664163 38.40134630039963 0.001464584571392026
    vertex 90.00116459068053 44.00151800947274 0.0014272411883729018
  endloop
endfacet
facet normal 3.118821558708189e-06 -2.5149499135278816e-05 -0.9999999996788879
  outer loop
    vertex 94.19210824432041 13.528687461589902 0.002351200668750221
    vertex 90.00116459068053 44.00151800947274 0.0014272411883729018
    vertex 94.19037319092337 74.47445367221663 0.0008184380522149952
  endloop
endfacet
facet normal 3.118821558708189e-06 -2.5149499135278816e-05 -0.9999999996788879
  outer loop
    vertex 94.19210824432041 13.528687461589902 0.002351200668750221
    vertex 94.19037319092337 74.47445367221663 0.0008184380522149952
    vertex 99.5964551857564 69.83427271369632 0.001058622268727373
  endloop
endfacet
facet normal 3.118821558708189e-06 -2.5149499135278816e-05 -0.9999999996788879
  outer loop
    vertex 94.19210824432041 13.528687461589902 0.002351200668750221
    vertex 99.5964551857564 69.83427271369632 0.001058622268727373
    vertex 99.59792602953699 18.16917622823211 0.0023579796056565363
  endloop
endfacet
facet normal 3.118821558708189e-06 -2.5149499135278816e-05 -0.9999999996788879
  outer loop
    vertex 99.59792602953699 18.16917622823211 0.0023579796056565363
    vertex 99.5964551857564 69.83427271369632 0.001058622268727373
    vertex 104.02089964779805 64.25025148662999 0.0013001200298458152
  endloop
endfacet
facet normal 3.118821558708189e-06 -2.5149499135278816e-05 -0.9999999996788879
  outer loop
    vertex 99.59792602953699 18.16917622823211 0.0023579796056565363
    vertex 104.02089964779805 64.25025148662999 0.0013001200298458152
    vertex 104.02205254353454 23.753449368662118 0.0023185990521144935
  endloop
endfacet
facet normal 3.118821558708189e-06 -2.5149499135278816e-05 -0.9999999996788879
  outer loop
    vertex 104.02205254353454 23.753449368662118 0.0023185990521144935
    vertex 104.02089964779805 64.25025148662999 0.0013001200298458152
    vertex 107.30205604383788 57.926406566778724 0.001534108026154135
  endloop
endfacet
facet normal 3.118821558708189e-06 -2.5149499135278816e-05 -0.9999999996788879
  outer loop
    vertex 104.02205254353454 23.753449368662118 0.0023185990521144935
    vertex 107.30205604383788 57.926406566778724 0.001534108026154135
    vertex 107.30284886958641 30.07748110326401 0.0022344978074337993
  endloop
endfacet
facet normal 3.118821558708189e-06 -2.5149499135278816e-05 -0.9999999996788879
  outer loop
    vertex 107.30284886958641 30.07748110326401 0.0022344978074337993
    vertex 107.30205604383788 57.926406566778724 0.001534108026154135
    vertex 109.32004476288384 51.093784566210026 0.0017520373235857048
  endloop
endfacet
facet normal 3.118821558708189e-06 -2.5149499135278816e-05 -0.9999999996788879
  outer loop
    vertex 107.30284886958641 30.07748110326401 0.0022344978074337993
    vertex 109.32004476288384 51.093784566210026 0.0017520373235857048
    vertex 109.32044855213617 36.91021799454762 0.00210874857624347
  endloop
endfacet
facet normal 3.118821558708189e-06 -2.5149499135278816e-05 -0.9999999996788879
  outer loop
    vertex 109.32044855213617 36.91021799454762 0.00210874857624347
    vertex 109.32004476288384 51.093784566210026 0.0017520373235857048
    vertex 110.00113701135778 44.0020206649076 0.0019459457049585333
  endloop
endfacet
facet normal -3.118821558708189e-06 2.5149499135278816e-05 0.9999999996788879
  outer loop
    vertex 0.0022072450577956815 1.9988349564946049 6.002555828511377
    vertex 28.002379218207093 12.999743470003956 6.001190586858287
    vertex 28.000243583690573 74.99947850073855 6.0005300944821975
  endloop
endfacet
facet normal -3.118821558708189e-06 2.5149499135278816e-05 0.9999999996788879
  outer loop
    vertex 28.002379218207093 12.999743470003956 6.001190586858287
    vertex 0.0022072450577956815 1.9988349564946049 6.002555828511377
    vertex 70.00228868793494 2.0012065993663652 6.002786892086915
  endloop
endfacet
facet normal -3.118821558708189e-06 2.5149499135278816e-05 0.9999999996788879
  outer loop
    vertex 28.002379218207093 12.999743470003956 6.001190586858287
    vertex 70.00228868793494 2.0012065993663652 6.002786892086915
    vertex 52.00237919996789 13.000512190193296 6.001738787689092
  endloop
endfacet
facet normal -3.118821558708189e-06 2.5149499135278816e-05 0.9999999996788879
  outer loop
    vertex 52.00237919996789 13.000512190193296 6.001738787689092
    vertex 70.00228868793494 2.0012065993663652 6.002786892086915
    vertex 69.9997286531111 86.00086888665344 6.00067433901571
  endloop
endfacet
facet normal -3.118821558708189e-06 2.5149499135278816e-05 0.9999999996788879
  outer loop
    vertex 69.9997286531111 86.00086888665344 6.00067433901571
    vertex 70.00228868793494 2.0012065993663652 6.002786892086915
    vertex 70.00044715067781 68.00095402705622 6.000981776825112
  endloop
endfacet
facet normal -3.118821558708189e-06 2.5149499135278816e-05 0.9999999996788879
  outer loop
    vertex 70.00044715067781 68.00095402705622 6.000981776825112
    vertex 70.00228868793494 2.0012065993663652 6.002786892086915
    vertex 70.00184462491394 20.001219213511902 6.001371768579762
  endloop
endfacet
facet normal -3.118821558708189e-06 2.5149499135278816e-05 0.9999999996788879
  outer loop
    vertex 70.00184462491394 20.001219213511902 6.001371768579762
    vertex 70.00228868793494 2.0012065993663652 6.002786892086915
    vertex 75.39269482551298 21.651888720457926 6.00142587036158
  endloop
endfacet
facet normal -3.118821558708189e-06 2.5149499135278816e-05 0.9999999996788879
  outer loop
    vertex 75.39269482551298 21.651888720457926 6.00142587036158
    vertex 70.00228868793494 2.0012065993663652 6.002786892086915
    vertex 88.0020862482803 10.001713836217323 6.002298507083474
  endloop
endfacet
facet normal -3.118821558708189e-06 2.5149499135278816e-05 0.9999999996788879
  outer loop
    vertex 75.39269482551298 21.651888720457926 6.00142587036158
    vertex 88.0020862482803 10.001713836217323 6.002298507083474
    vertex 80.26078075196902 24.49577956234936 6.0014637309344145
  endloop
endfacet
facet normal -3.118821558708189e-06 2.5149499135278816e-05 0.9999999996788879
  outer loop
    vertex 80.26078075196902 24.49577956234936 6.0014637309344145
    vertex 88.0020862482803 10.001713836217323 6.002298507083474
    vertex 84.34619431685879 28.38105583474203 6.001483328914625
  endloop
endfacet
facet normal -3.118821558708189e-06 2.5149499135278816e-05 0.9999999996788879
  outer loop
    vertex 84.34619431685879 28.38105583474203 6.001483328914625
    vertex 88.0020862482803 10.001713836217323 6.002298507083474
    vertex 87.43081446767306 33.10028185545518 6.001483617962213
  endloop
endfacet
facet normal -3.118821558708189e-06 2.5149499135278816e-05 0.9999999996788879
  outer loop
    vertex 87.43081446767306 33.10028185545518 6.001483617962213
    vertex 88.0020862482803 10.001713836217323 6.002298507083474
    vertex 89.34995271371228 38.40149719739447 6.001464582644719
  endloop
endfacet
facet normal -3.118821558708189e-06 2.5149499135278816e-05 0.9999999996788879
  outer loop
    vertex 89.34995271371228 38.40149719739447 6.001464582644719
    vertex 88.0020862482803 10.001713836217323 6.002298507083474
    vertex 94.19208953139105 13.52883835858472 6.002351198742077
  endloop
endfacet
facet normal -3.118821558708189e-06 2.5149499135278816e-05 0.9999999996788879
  outer loop
    vertex 89.34995271371228 38.40149719739447 6.001464582644719
    vertex 94.19208953139105 13.52883835858472 6.002351198742077
    vertex 90.00114587775117 44.00166890646755 6.0014272392617
  endloop
endfacet
facet normal -3.118821558708189e-06 2.5149499135278816e-05 0.9999999996788879
  outer loop
    vertex 90.00114587775117 44.00166890646755 6.0014272392617
    vertex 94.19208953139105 13.52883835858472 6.002351198742077
    vertex 94.19035447799402 74.47460456921145 6.000818436125541
  endloop
endfacet
facet normal -3.118821558708189e-06 2.5149499135278816e-05 0.9999999996788879
  outer loop
    vertex 94.19035447799402 74.47460456921145 6.000818436125541
    vertex 94.19208953139105 13.52883835858472 6.002351198742077
    vertex 99.59643647282705 69.83442361069115 6.001058620342054
  endloop
endfacet
facet normal -3.118821558708189e-06 2.5149499135278816e-05 0.9999999996788879
  outer loop
    vertex 99.59643647282705 69.83442361069115 6.001058620342054
    vertex 94.19208953139105 13.52883835858472 6.002351198742077
    vertex 99.59790731660765 18.16932712522693 6.002357977678983
  endloop
endfacet
facet normal -3.118821558708189e-06 2.5149499135278816e-05 0.9999999996788879
  outer loop
    vertex 99.59643647282705 69.83442361069115 6.001058620342054
    vertex 99.59790731660765 18.16932712522693 6.002357977678983
    vertex 104.02088093486869 64.25040238362479 6.001300118103172
  endloop
endfacet
facet normal -3.118821558708189e-06 2.5149499135278816e-05 0.9999999996788879
  outer loop
    vertex 104.02088093486869 64.25040238362479 6.001300118103172
    vertex 99.59790731660765 18.16932712522693 6.002357977678983
    vertex 104.0220338306052 23.75360026565693 6.002318597125441
  endloop
endfacet
facet normal -3.118821558708189e-06 2.5149499135278816e-05 0.9999999996788879
  outer loop
    vertex 104.02088093486869 64.25040238362479 6.001300118103172
    vertex 104.0220338306052 23.75360026565693 6.002318597125441
    vertex 107.30203733090852 57.926557463773534 6.001534106099481
  endloop
endfacet
facet normal -3.118821558708189e-06 2.5149499135278816e-05 0.9999999996788879
  outer loop
    vertex 107.30203733090852 57.926557463773534 6.001534106099481
    vertex 104.0220338306052 23.75360026565693 6.002318597125441
    vertex 107.30283015665708 30.077632000258824 6.00223449588076
  endloop
endfacet
facet normal -3.118821558708189e-06 2.5149499135278816e-05 0.9999999996788879
  outer loop
    vertex 107.30203733090852 57.926557463773534 6.001534106099481
    vertex 107.30283015665708 30.077632000258824 6.00223449588076
    vertex 109.3200260499545 51.093935463204815 6.001752035396913
  endloop
endfacet
facet normal -3.118821558708189e-06 2.5149499135278816e-05 0.9999999996788879
  outer loop
    vertex 109.3200260499545 51.093935463204815 6.001752035396913
    vertex 107.30283015665708 30.077632000258824 6.00223449588076
    vertex 109.32042983920681 36.91036889154244 6.0021087466495695
  endloop
endfacet
facet normal -3.118821558708189e-06 2.5149499135278816e-05 0.9999999996788879
  outer loop
    vertex 109.3200260499545 51.093935463204815 6.001752035396913
    vertex 109.32042983920681 36.91036889154244 6.0021087466495695
    vertex 110.00111829842844 44.002171561902415 6.001945943778285
  endloop
endfacet
facet normal -3.118821558708189e-06 2.5149499135278816e-05 0.9999999996788879
  outer loop
    vertex 70.00044715067781 68.00095402705622 6.000981776825112
    vertex 88.0001503773414 78.00141262461584 6.000588340771312
    vertex 69.9997286531111 86.00086888665344 6.00067433901571
  endloop
endfacet
facet normal -3.118821558708189e-06 2.5149499135278816e-05 0.9999999996788879
  outer loop
    vertex 88.0001503773414 78.00141262461584 6.000588340771312
    vertex 70.00044715067781 68.00095402705622 6.000981776825112
    vertex 75.39139345800668 66.35059842466734 6.001062699017162
  endloop
endfacet
facet normal -3.118821558708189e-06 2.5149499135278816e-05 0.9999999996788879
  outer loop
    vertex 88.0001503773414 78.00141262461584 6.000588340771312
    vertex 75.39139345800668 66.35059842466734 6.001062699017162
    vertex 80.25964497146546 63.50699104951442 6.001146769791243
  endloop
endfacet
facet normal -3.118821558708189e-06 2.5149499135278816e-05 0.9999999996788879
  outer loop
    vertex 88.0001503773414 78.00141262461584 6.000588340771312
    vertex 80.25964497146546 63.50699104951442 6.001146769791243
    vertex 84.34528476290772 59.62195267169567 6.001229500592041
  endloop
endfacet
facet normal -3.118821558708189e-06 2.5149499135278816e-05 0.9999999996788879
  outer loop
    vertex 88.0001503773414 78.00141262461584 6.000588340771312
    vertex 84.34528476290772 59.62195267169567 6.001229500592041
    vertex 87.43017970154324 54.902906272152336 6.001306474405345
  endloop
endfacet
facet normal -3.118821558708189e-06 2.5149499135278816e-05 0.9999999996788879
  outer loop
    vertex 88.0001503773414 78.00141262461584 6.000588340771312
    vertex 87.43017970154324 54.902906272152336 6.001306474405345
    vertex 89.34962662569481 49.60180268796844 6.001373581583823
  endloop
endfacet
facet normal -3.118821558708189e-06 2.5149499135278816e-05 0.9999999996788879
  outer loop
    vertex 88.0001503773414 78.00141262461584 6.000588340771312
    vertex 89.34962662569481 49.60180268796844 6.001373581583823
    vertex 94.19035447799402 74.47460456921145 6.000818436125541
  endloop
endfacet
facet normal -3.118821558708189e-06 2.5149499135278816e-05 0.9999999996788879
  outer loop
    vertex 94.19035447799402 74.47460456921145 6.000818436125541
    vertex 89.34962662569481 49.60180268796844 6.001373581583823
    vertex 90.00114587775117 44.00166890646755 6.0014272392617
  endloop
endfacet
facet normal -3.118821558708189e-06 2.5149499135278816e-05 0.9999999996788879
  outer loop
    vertex 9.023892744153272e-14 85.998569728069 6.000443271644212
    vertex 28.000243583690573 74.99947850073855 6.0005300944821975
    vertex 69.9997286531111 86.00086888665344 6.00067433901571
  endloop
endfacet
facet normal -3.118821558708189e-06 2.5149499135278816e-05 0.9999999996788879
  outer loop
    vertex 28.000243583690573 74.99947850073855 6.0005300944821975
    vertex 9.023892744153272e-14 85.998569728069 6.000443271644212
    vertex 0.0022072450577956815 1.9988349564946049 6.002555828511377
  endloop
endfacet
facet normal -3.118821558708189e-06 2.5149499135278816e-05 0.9999999996788879
  outer loop
    vertex 69.9997286531111 86.00086888665344 6.00067433901571
    vertex 28.000243583690573 74.99947850073855 6.0005300944821975
    vertex 52.00024356545183 75.0002472209269 6.001078295313093
  endloop
endfacet
facet normal -3.118821558708189e-06 2.5149499135278816e-05 0.9999999996788879
  outer loop
    vertex 69.9997286531111 86.00086888665344 6.00067433901571
    vertex 52.00024356545183 75.0002472209269 6.001078295313093
    vertex 52.00237919996789 13.000512190193296 6.001738787689092
  endloop
endfacet
facet normal -0.8370212310027093 -0.5471704110479428 1.1150541922733271e-05
  outer loop
    vertex 87.43017970154324 54.902906272152336 6.001306474405345
    vertex 84.34530347583707 59.62180177470085 0.0012295025187146215
    vertex 87.43019841447259 54.90275537515754 0.001306476332018834
  endloop
endfacet
facet normal -0.8370212310027093 -0.5471704110479428 1.1150541922733271e-05
  outer loop
    vertex 84.34530347583707 59.62180177470085 0.0012295025187146215
    vertex 87.43017970154324 54.902906272152336 6.001306474405345
    vertex 84.34528476290772 59.62195267169567 6.001229500592041
  endloop
endfacet
facet normal -0.6891347216455473 0.7246332417212423 -2.0373451319327372e-05
  outer loop
    vertex 80.26078075196902 24.49577956234936 6.0014637309344145
    vertex 84.34621302978813 28.380904937747232 0.001483330841297535
    vertex 80.26079946489838 24.495628665354566 0.0014637328610885
  endloop
endfacet
facet normal -0.6891347216455473 0.7246332417212423 -2.0373451319327372e-05
  outer loop
    vertex 84.34621302978813 28.380904937747232 0.001483330841297535
    vertex 80.26078075196902 24.49577956234936 6.0014637309344145
    vertex 84.34619431685879 28.38105583474203 6.001483328914625
  endloop
endfacet
facet normal -0.993300441297762 -0.11556051798791309 -1.9163768344597677e-07
  outer loop
    vertex 90.00114587775117 44.00166890646755 6.0014272392617
    vertex 89.34964533862417 49.60165179097362 0.001373583510496333
    vertex 90.00116459068053 44.00151800947274 0.0014272411883729018
  endloop
endfacet
facet normal -0.993300441297762 -0.11556051798791309 -1.9163768344597677e-07
  outer loop
    vertex 89.34964533862417 49.60165179097362 0.001373583510496333
    vertex 90.00114587775117 44.00166890646755 6.0014272392617
    vertex 89.34962662569481 49.60180268796844 6.001373581583823
  endloop
endfacet
facet normal -0.999999999649901 -2.6276888259035082e-05 -3.118160708039072e-06
  outer loop
    vertex 0.0022072450577956815 1.9988349564946049 6.002555828511377
    vertex 1.8712929425923617e-05 85.99841883107422 0.0004432735708851748
    vertex 0.002225957987131366 1.9986840594997886 0.002555830438050703
  endloop
endfacet
facet normal -0.999999999649901 -2.6276888259035082e-05 -3.118160708039072e-06
  outer loop
    vertex 1.8712929425923617e-05 85.99841883107422 0.0004432735708851748
    vertex 0.0022072450577956815 1.9988349564946049 6.002555828511377
    vertex 9.023892744153272e-14 85.998569728069 6.000443271644212
  endloop
endfacet
facet normal 0.9999999995713196 2.911423275696867e-05 3.118089350000956e-06
  outer loop
    vertex 70.00046586360718 68.0008031300614 0.0009817787517853727
    vertex 70.00184462491394 20.001219213511902 6.001371768579762
    vertex 70.0018633378433 20.00106831651711 0.0013717705064359138
  endloop
endfacet
facet normal 0.9999999995713196 2.911423275696867e-05 3.118089350000956e-06
  outer loop
    vertex 70.00184462491394 20.001219213511902 6.001371768579762
    vertex 70.00046586360718 68.0008031300614 0.0009817787517853727
    vertex 70.00044715067781 68.00095402705622 6.000981776825112
  endloop
endfacet
facet normal 0.9954198296563253 0.09560001425984373 7.002443489620879e-07
  outer loop
    vertex 109.32004476288384 51.093784566210026 0.0017520373235857048
    vertex 110.00111829842844 44.002171561902415 6.001945943778285
    vertex 110.00113701135778 44.0020206649076 0.0019459457049585333
  endloop
endfacet
facet normal 0.9954198296563253 0.09560001425984373 7.002443489620879e-07
  outer loop
    vertex 110.00111829842844 44.002171561902415 6.001945943778285
    vertex 109.32004476288384 51.093784566210026 0.0017520373235857048
    vertex 109.3200260499545 51.093935463204815 6.001752035396913
  endloop
endfacet
facet normal 0.99542527127995 -0.09554333711414113 5.507420872053149e-06
  outer loop
    vertex 110.00113701135778 44.0020206649076 0.0019459457049585333
    vertex 109.32042983920681 36.91036889154244 6.0021087466495695
    vertex 109.32044855213617 36.91021799454762 0.00210874857624347
  endloop
endfacet
facet normal 0.99542527127995 -0.09554333711414113 5.507420872053149e-06
  outer loop
    vertex 109.32042983920681 36.91036889154244 6.0021087466495695
    vertex 110.00113701135778 44.0020206649076 0.0019459457049585333
    vertex 110.00111829842844 44.002171561902415 6.001945943778285
  endloop
endfacet
facet normal 0.7838242069439944 -0.6209827793766765 1.8062013713611048e-05
  outer loop
    vertex 104.02205254353454 23.753449368662118 0.0023185990521144935
    vertex 99.59790731660765 18.16932712522693 6.002357977678983
    vertex 99.59792602953699 18.16917622823211 0.0023579796056565363
  endloop
endfacet
facet normal 0.7838242069439944 -0.6209827793766765 1.8062013713611048e-05
  outer loop
    vertex 99.59790731660765 18.16932712522693 6.002357977678983
    vertex 104.02205254353454 23.753449368662118 0.0023185990521144935
    vertex 104.0220338306052 23.75360026565693 6.002318597125441
  endloop
endfacet
facet normal 0.9590459473045915 0.28325054446825176 -4.132516148253294e-06
  outer loop
    vertex 107.30205604383788 57.926406566778724 0.001534108026154135
    vertex 109.3200260499545 51.093935463204815 6.001752035396913
    vertex 109.32004476288384 51.093784566210026 0.0017520373235857048
  endloop
endfacet
facet normal 0.9590459473045915 0.28325054446825176 -4.132516148253294e-06
  outer loop
    vertex 109.3200260499545 51.093935463204815 6.001752035396913
    vertex 107.30205604383788 57.926406566778724 0.001534108026154135
    vertex 107.30203733090852 57.926557463773534 6.001534106099481
  endloop
endfacet
facet normal 0.6513519907124865 -0.7587757137317115 2.1114279794088006e-05
  outer loop
    vertex 99.59792602953699 18.16917622823211 0.0023579796056565363
    vertex 94.19208953139105 13.52883835858472 6.002351198742077
    vertex 94.19210824432041 13.528687461589902 0.002351200668750221
  endloop
endfacet
facet normal 0.6513519907124865 -0.7587757137317115 2.1114279794088006e-05
  outer loop
    vertex 94.19208953139105 13.52883835858472 6.002351198742077
    vertex 99.59792602953699 18.16917622823211 0.0023579796056565363
    vertex 99.59790731660765 18.16932712522693 6.002357977678983
  endloop
endfacet
facet normal 0.8876325724143943 0.46055229487140037 -8.814291941391789e-06
  outer loop
    vertex 104.02089964779805 64.25025148662999 0.0013001200298458152
    vertex 107.30203733090852 57.926557463773534 6.001534106099481
    vertex 107.30205604383788 57.926406566778724 0.001534108026154135
  endloop
endfacet
facet normal 0.8876325724143943 0.46055229487140037 -8.814291941391789e-06
  outer loop
    vertex 107.30203733090852 57.926557463773534 6.001534106099481
    vertex 104.02089964779805 64.25025148662999 0.0013001200298458152
    vertex 104.02088093486869 64.25040238362479 6.001300118103172
  endloop
endfacet
facet normal 0.4950783073840687 -0.8688483578912904 2.3395161931306165e-05
  outer loop
    vertex 94.19210824432041 13.528687461589902 0.002351200668750221
    vertex 88.0020862482803 10.001713836217323 6.002298507083474
    vertex 88.00210496120965 10.001562939222508 0.0022985090101467266
  endloop
endfacet
facet normal 0.4950783073840687 -0.8688483578912904 2.3395161931306165e-05
  outer loop
    vertex 88.0020862482803 10.001713836217323 6.002298507083474
    vertex 94.19210824432041 13.528687461589902 0.002351200668750221
    vertex 94.19208953139105 13.52883835858472 6.002351198742077
  endloop
endfacet
facet normal 0.4061637840160323 -0.9138002954507043 2.4248372113997228e-05
  outer loop
    vertex 88.0020862482803 10.001713836217323 6.002298507083474
    vertex 70.00230740086428 2.001055702371549 0.002786894013588939
    vertex 88.00210496120965 10.001562939222508 0.0022985090101467266
  endloop
endfacet
facet normal 0.4061637840160323 -0.9138002954507043 2.4248372113997228e-05
  outer loop
    vertex 70.00230740086428 2.001055702371549 0.002786894013588939
    vertex 88.0020862482803 10.001713836217323 6.002298507083474
    vertex 70.00228868793494 2.0012065993663652 6.002786892086915
  endloop
endfacet
endsolid tray1
