solid landing
facet normal 0.0 0.0 -1.0
  outer loop
    vertex -4.18842854647348 19.556509563597643 3.9999999999999996
    vertex -3.863703305156273 1.0352761804100836 3.9999999999999996
    vertex -3.9999999999999996 2.449293598294706e-16 3.9999999999999996
  endloop
endfacet
facet normal 0.0 0.0 -1.0
  outer loop
    vertex -3.863703305156273 1.0352761804100836 3.9999999999999996
    vertex -4.18842854647348 19.556509563597643 3.9999999999999996
    vertex 1.015885826183543 19.974182736426524 3.9999999999999996
  endloop
endfacet
facet normal 0.0 0.0 -1.0
  outer loop
    vertex -3.863703305156273 1.0352761804100836 3.9999999999999996
    vertex 1.015885826183543 19.974182736426524 3.9999999999999996
    vertex -3.464101615137754 1.9999999999999998 3.9999999999999996
  endloop
endfacet
facet normal 0.0 0.0 -1.0
  outer loop
    vertex -3.464101615137754 1.9999999999999998 3.9999999999999996
    vertex 1.015885826183543 19.974182736426524 3.9999999999999996
    vertex -2.82842712474619 2.82842712474619 3.9999999999999996
  endloop
endfacet
facet normal 0.0 0.0 -1.0
  outer loop
    vertex -2.82842712474619 2.82842712474619 3.9999999999999996
    vertex 1.015885826183543 19.974182736426524 3.9999999999999996
    vertex -1.9999999999999996 3.464101615137754 3.9999999999999996
  endloop
endfacet
facet normal 0.0 0.0 -1.0
  outer loop
    vertex -1.9999999999999996 3.464101615137754 3.9999999999999996
    vertex 1.015885826183543 19.974182736426524 3.9999999999999996
    vertex -1.035276180410083 3.863703305156272 3.9999999999999996
  endloop
endfacet
facet normal 0.0 0.0 -1.0
  outer loop
    vertex -1.035276180410083 3.863703305156272 3.9999999999999996
    vertex 1.015885826183543 19.974182736426524 3.9999999999999996
    vertex 0.0 3.999999999999999 3.9999999999999996
  endloop
endfacet
facet normal 0.0 0.0 -1.0
  outer loop
    vertex 0.0 3.999999999999999 3.9999999999999996
    vertex 1.015885826183543 19.974182736426524 3.9999999999999996
    vertex 1.035276180410086 3.8637033051562715 3.9999999999999996
  endloop
endfacet
facet normal 0.0 0.0 -1.0
  outer loop
    vertex 1.035276180410086 3.8637033051562715 3.9999999999999996
    vertex 1.015885826183543 19.974182736426524 3.9999999999999996
    vertex 6.150969258616853 19.030648364665627 3.9999999999999996
  endloop
endfacet
facet normal 0.0 0.0 -1.0
  outer loop
    vertex 1.035276180410086 3.8637033051562715 3.9999999999999996
    vertex 6.150969258616853 19.030648364665627 3.9999999999999996
    vertex 2.0000000000000018 3.4641016151377526 3.9999999999999996
  endloop
endfacet
facet normal 0.0 0.0 -1.0
  outer loop
    vertex 2.0000000000000018 3.4641016151377526 3.9999999999999996
    vertex 6.150969258616853 19.030648364665627 3.9999999999999996
    vertex 2.8284271247461903 2.8284271247461885 3.9999999999999996
  endloop
endfacet
facet normal 0.0 0.0 -1.0
  outer loop
    vertex 2.8284271247461903 2.8284271247461885 3.9999999999999996
    vertex 6.150969258616853 19.030648364665627 3.9999999999999996
    vertex 3.464101615137756 1.9999999999999967 3.9999999999999996
  endloop
endfacet
facet normal 0.0 0.0 -1.0
  outer loop
    vertex 3.464101615137756 1.9999999999999967 3.9999999999999996
    vertex 6.150969258616853 19.030648364665627 3.9999999999999996
    vertex 3.8637033051562732 1.035276180410081 3.9999999999999996
  endloop
endfacet
facet normal 0.0 0.0 -1.0
  outer loop
    vertex 3.8637033051562732 1.035276180410081 3.9999999999999996
    vertex 6.150969258616853 19.030648364665627 3.9999999999999996
    vertex 3.9999999999999996 -7.347880794884117e-16 3.9999999999999996
  endloop
endfacet
facet normal 0.0 0.0 -1.0
  outer loop
    vertex 3.9999999999999996 -7.347880794884117e-16 3.9999999999999996
    vertex 6.150969258616853 19.030648364665627 3.9999999999999996
    vertex 4.188428546473468 -19.556509563597647 3.9999999999999996
  endloop
endfacet
facet normal 0.0 0.0 -1.0
  outer loop
    vertex 4.188428546473468 -19.556509563597647 3.9999999999999996
    vertex 6.150969258616853 19.030648364665627 3.9999999999999996
    vertex 9.10730843539378 -17.806092582669713 3.9999999999999996
  endloop
endfacet
facet normal 0.0 0.0 -1.0
  outer loop
    vertex 9.10730843539378 -17.806092582669713 3.9999999999999996
    vertex 6.150969258616853 19.030648364665627 3.9999999999999996
    vertex 10.866874301032752 16.790206756486175 3.9999999999999996
  endloop
endfacet
facet normal 0.0 0.0 -1.0
  outer loop
    vertex 9.10730843539378 -17.806092582669713 3.9999999999999996
    vertex 10.866874301032752 16.790206756486175 3.9999999999999996
    vertex 13.405540304980788 -14.84221981819214 3.9999999999999996
  endloop
endfacet
facet normal 0.0 0.0 -1.0
  outer loop
    vertex 13.405540304980788 -14.84221981819214 3.9999999999999996
    vertex 10.866874301032752 16.790206756486175 3.9999999999999996
    vertex 14.84221981819214 13.405540304980788 3.9999999999999996
  endloop
endfacet
facet normal 0.0 0.0 -1.0
  outer loop
    vertex 13.405540304980788 -14.84221981819214 3.9999999999999996
    vertex 14.84221981819214 13.405540304980788 3.9999999999999996
    vertex 16.790206756486178 -10.86687430103275 3.9999999999999996
  endloop
endfacet
facet normal 0.0 0.0 -1.0
  outer loop
    vertex 16.790206756486178 -10.86687430103275 3.9999999999999996
    vertex 14.84221981819214 13.405540304980788 3.9999999999999996
    vertex 17.806092582669713 9.107308435393778 3.9999999999999996
  endloop
endfacet
facet normal 0.0 0.0 -1.0
  outer loop
    vertex 16.790206756486178 -10.86687430103275 3.9999999999999996
    vertex 17.806092582669713 9.107308435393778 3.9999999999999996
    vertex 19.030648364665627 -6.150969258616853 3.9999999999999996
  endloop
endfacet
facet normal 0.0 0.0 -1.0
  outer loop
    vertex 19.030648364665627 -6.150969258616853 3.9999999999999996
    vertex 17.806092582669713 9.107308435393778 3.9999999999999996
    vertex 19.556509563597643 4.188428546473481 3.9999999999999996
  endloop
endfacet
facet normal 0.0 0.0 -1.0
  outer loop
    vertex 19.030648364665627 -6.150969258616853 3.9999999999999996
    vertex 19.556509563597643 4.188428546473481 3.9999999999999996
    vertex 19.974182736426524 -1.0158858261835375 3.9999999999999996
  endloop
endfacet
facet normal 0.0 0.0 -1.0
  outer loop
    vertex -19.030648364665623 6.150969258616862 3.9999999999999996
    vertex -19.556509563597647 -4.188428546473469 3.9999999999999996
    vertex -19.974182736426524 1.0158858261835446 3.9999999999999996
  endloop
endfacet
facet normal 0.0 0.0 -1.0
  outer loop
    vertex -19.556509563597647 -4.188428546473469 3.9999999999999996
    vertex -19.030648364665623 6.150969258616862 3.9999999999999996
    vertex -17.806092582669717 -9.107308435393776 3.9999999999999996
  endloop
endfacet
facet normal 0.0 0.0 -1.0
  outer loop
    vertex -17.806092582669717 -9.107308435393776 3.9999999999999996
    vertex -19.030648364665623 6.150969258616862 3.9999999999999996
    vertex -16.790206756486175 10.866874301032754 3.9999999999999996
  endloop
endfacet
facet normal 0.0 0.0 -1.0
  outer loop
    vertex -17.806092582669717 -9.107308435393776 3.9999999999999996
    vertex -16.790206756486175 10.866874301032754 3.9999999999999996
    vertex -14.842219818192147 -13.405540304980782 3.9999999999999996
  endloop
endfacet
facet normal 0.0 0.0 -1.0
  outer loop
    vertex -14.842219818192147 -13.405540304980782 3.9999999999999996
    vertex -16.790206756486175 10.866874301032754 3.9999999999999996
    vertex -13.405540304980784 14.842219818192147 3.9999999999999996
  endloop
endfacet
facet normal 0.0 0.0 -1.0
  outer loop
    vertex -14.842219818192147 -13.405540304980782 3.9999999999999996
    vertex -13.405540304980784 14.842219818192147 3.9999999999999996
    vertex -10.866874301032757 -16.79020675648617 3.9999999999999996
  endloop
endfacet
facet normal 0.0 0.0 -1.0
  outer loop
    vertex -10.866874301032757 -16.79020675648617 3.9999999999999996
    vertex -13.405540304980784 14.842219818192147 3.9999999999999996
    vertex -9.107308435393776 17.806092582669713 3.9999999999999996
  endloop
endfacet
facet normal 0.0 0.0 -1.0
  outer loop
    vertex -10.866874301032757 -16.79020675648617 3.9999999999999996
    vertex -9.107308435393776 17.806092582669713 3.9999999999999996
    vertex -6.150969258616858 -19.030648364665623 3.9999999999999996
  endloop
endfacet
facet normal 0.0 0.0 -1.0
  outer loop
    vertex -6.150969258616858 -19.030648364665623 3.9999999999999996
    vertex -9.107308435393776 17.806092582669713 3.9999999999999996
    vertex -4.18842854647348 19.556509563597643 3.9999999999999996
  endloop
endfacet
facet normal 0.0 0.0 -1.0
  outer loop
    vertex -6.150969258616858 -19.030648364665623 3.9999999999999996
    vertex -4.18842854647348 19.556509563597643 3.9999999999999996
    vertex -3.9999999999999996 2.449293598294706e-16 3.9999999999999996
  endloop
endfacet
facet normal 0.0 0.0 -1.0
  outer loop
    vertex -6.150969258616858 -19.030648364665623 3.9999999999999996
    vertex -3.9999999999999996 2.449293598294706e-16 3.9999999999999996
    vertex -3.863703305156273 -1.0352761804100823 3.9999999999999996
  endloop
endfacet
facet normal 0.0 0.0 -1.0
  outer loop
    vertex -6.150969258616858 -19.030648364665623 3.9999999999999996
    vertex -3.863703305156273 -1.0352761804100823 3.9999999999999996
    vertex -1.0158858261835446 -19.974182736426524 3.9999999999999996
  endloop
endfacet
facet normal 0.0 0.0 -1.0
  outer loop
    vertex -1.0158858261835446 -19.974182736426524 3.9999999999999996
    vertex -3.863703305156273 -1.0352761804100823 3.9999999999999996
    vertex -3.4641016151377544 -1.9999999999999984 3.9999999999999996
  endloop
endfacet
facet normal 0.0 0.0 -1.0
  outer loop
    vertex -1.0158858261835446 -19.974182736426524 3.9999999999999996
    vertex -3.4641016151377544 -1.9999999999999984 3.9999999999999996
    vertex -2.8284271247461903 -2.8284271247461894 3.9999999999999996
  endloop
endfacet
facet normal 0.0 0.0 -1.0
  outer loop
    vertex -1.0158858261835446 -19.974182736426524 3.9999999999999996
    vertex -2.8284271247461903 -2.8284271247461894 3.9999999999999996
    vertex -2.0000000000000013 -3.464101615137753 3.9999999999999996
  endloop
endfacet
facet normal 0.0 0.0 -1.0
  outer loop
    vertex -1.0158858261835446 -19.974182736426524 3.9999999999999996
    vertex -2.0000000000000013 -3.464101615137753 3.9999999999999996
    vertex -1.035276180410084 -3.863703305156272 3.9999999999999996
  endloop
endfacet
facet normal 0.0 0.0 -1.0
  outer loop
    vertex -1.0158858261835446 -19.974182736426524 3.9999999999999996
    vertex -1.035276180410084 -3.863703305156272 3.9999999999999996
    vertex -4.898587196589412e-16 -3.999999999999999 3.9999999999999996
  endloop
endfacet
facet normal 0.0 0.0 -1.0
  outer loop
    vertex -1.0158858261835446 -19.974182736426524 3.9999999999999996
    vertex -4.898587196589412e-16 -3.999999999999999 3.9999999999999996
    vertex 4.188428546473468 -19.556509563597647 3.9999999999999996
  endloop
endfacet
facet normal 0.0 0.0 -1.0
  outer loop
    vertex 4.188428546473468 -19.556509563597647 3.9999999999999996
    vertex -4.898587196589412e-16 -3.999999999999999 3.9999999999999996
    vertex 1.0352761804100814 -3.863703305156273 3.9999999999999996
  endloop
endfacet
facet normal 0.0 0.0 -1.0
  outer loop
    vertex 4.188428546473468 -19.556509563597647 3.9999999999999996
    vertex 1.0352761804100814 -3.863703305156273 3.9999999999999996
    vertex 1.999999999999999 -3.4641016151377544 3.9999999999999996
  endloop
endfacet
facet normal 0.0 0.0 -1.0
  outer loop
    vertex 4.188428546473468 -19.556509563597647 3.9999999999999996
    vertex 1.999999999999999 -3.4641016151377544 3.9999999999999996
    vertex 2.8284271247461885 -2.828427124746191 3.9999999999999996
  endloop
endfacet
facet normal 0.0 0.0 -1.0
  outer loop
    vertex 4.188428546473468 -19.556509563597647 3.9999999999999996
    vertex 2.8284271247461885 -2.828427124746191 3.9999999999999996
    vertex 3.464101615137753 -2.0000000000000013 3.9999999999999996
  endloop
endfacet
facet normal 0.0 0.0 -1.0
  outer loop
    vertex 4.188428546473468 -19.556509563597647 3.9999999999999996
    vertex 3.464101615137753 -2.0000000000000013 3.9999999999999996
    vertex 3.863703305156272 -1.0352761804100858 3.9999999999999996
  endloop
endfacet
facet normal 0.0 0.0 -1.0
  outer loop
    vertex 4.188428546473468 -19.556509563597647 3.9999999999999996
    vertex 3.863703305156272 -1.0352761804100858 3.9999999999999996
    vertex 3.9999999999999996 -7.347880794884117e-16 3.9999999999999996
  endloop
endfacet
facet normal -0.07999796165905432 0.9967950271396806 0.0
  outer loop
    vertex -4.18842854647348 19.556509563597643 11.0
    vertex 1.015885826183543 19.974182736426524 3.9999999999999996
    vertex -4.18842854647348 19.556509563597643 3.9999999999999996
  endloop
endfacet
facet normal -0.07999796165905432 0.9967950271396806 0.0
  outer loop
    vertex 1.015885826183543 19.974182736426524 3.9999999999999996
    vertex -4.18842854647348 19.556509563597643 11.0
    vertex 1.015885826183543 19.974182736426524 11.0
  endloop
endfacet
facet normal 0.18071743987027003 0.9835350562774747 0.0
  outer loop
    vertex 1.015885826183543 19.974182736426524 11.0
    vertex 6.150969258616853 19.030648364665627 3.9999999999999996
    vertex 1.015885826183543 19.974182736426524 3.9999999999999996
  endloop
endfacet
facet normal 0.18071743987027003 0.9835350562774747 0.0
  outer loop
    vertex 6.150969258616853 19.030648364665627 3.9999999999999996
    vertex 1.015885826183543 19.974182736426524 11.0
    vertex 6.150969258616853 19.030648364665627 11.0
  endloop
endfacet
facet normal 0.4291172465221262 0.9032487966984893 0.0
  outer loop
    vertex 6.150969258616853 19.030648364665627 11.0
    vertex 10.866874301032752 16.790206756486175 3.9999999999999996
    vertex 6.150969258616853 19.030648364665627 3.9999999999999996
  endloop
endfacet
facet normal 0.4291172465221262 0.9032487966984893 0.0
  outer loop
    vertex 10.866874301032752 16.790206756486175 3.9999999999999996
    vertex 6.150969258616853 19.030648364665627 11.0
    vertex 10.866874301032752 16.790206756486175 11.0
  endloop
endfacet
facet normal 0.6482734219732783 0.7614076243137156 0.0
  outer loop
    vertex 10.866874301032752 16.790206756486175 11.0
    vertex 14.84221981819214 13.405540304980788 3.9999999999999996
    vertex 10.866874301032752 16.790206756486175 3.9999999999999996
  endloop
endfacet
facet normal 0.6482734219732783 0.7614076243137156 0.0
  outer loop
    vertex 14.84221981819214 13.405540304980788 3.9999999999999996
    vertex 10.866874301032752 16.790206756486175 11.0
    vertex 14.84221981819214 13.405540304980788 11.0
  endloop
endfacet
facet normal 0.8232508350394349 0.5676777806175552 0.0
  outer loop
    vertex 14.84221981819214 13.405540304980788 3.9999999999999996
    vertex 17.806092582669713 9.107308435393778 11.0
    vertex 17.806092582669713 9.107308435393778 3.9999999999999996
  endloop
endfacet
facet normal 0.8232508350394349 0.5676777806175552 0.0
  outer loop
    vertex 17.806092582669713 9.107308435393778 11.0
    vertex 14.84221981819214 13.405540304980788 3.9999999999999996
    vertex 14.84221981819214 13.405540304980788 11.0
  endloop
endfacet
facet normal 0.9421250641839856 0.33526163430419703 0.0
  outer loop
    vertex 17.806092582669713 9.107308435393778 3.9999999999999996
    vertex 19.556509563597643 4.188428546473481 11.0
    vertex 19.556509563597643 4.188428546473481 3.9999999999999996
  endloop
endfacet
facet normal 0.9421250641839856 0.33526163430419703 0.0
  outer loop
    vertex 19.556509563597643 4.188428546473481 11.0
    vertex 17.806092582669713 9.107308435393778 3.9999999999999996
    vertex 17.806092582669713 9.107308435393778 11.0
  endloop
endfacet
facet normal 0.9967950271396806 0.07999796165905439 0.0
  outer loop
    vertex 19.556509563597643 4.188428546473481 3.9999999999999996
    vertex 19.974182736426524 -1.0158858261835375 11.0
    vertex 19.974182736426524 -1.0158858261835375 3.9999999999999996
  endloop
endfacet
facet normal 0.9967950271396806 0.07999796165905439 0.0
  outer loop
    vertex 19.974182736426524 -1.0158858261835375 11.0
    vertex 19.556509563597643 4.188428546473481 3.9999999999999996
    vertex 19.556509563597643 4.188428546473481 11.0
  endloop
endfacet
facet normal 0.9835350562774747 -0.18071743987026984 0.0
  outer loop
    vertex 19.974182736426524 -1.0158858261835375 3.9999999999999996
    vertex 19.030648364665627 -6.150969258616853 11.0
    vertex 19.030648364665627 -6.150969258616853 3.9999999999999996
  endloop
endfacet
facet normal 0.9835350562774747 -0.18071743987026984 0.0
  outer loop
    vertex 19.030648364665627 -6.150969258616853 11.0
    vertex 19.974182736426524 -1.0158858261835375 3.9999999999999996
    vertex 19.974182736426524 -1.0158858261835375 11.0
  endloop
endfacet
facet normal 0.9032487966984898 -0.4291172465221254 0.0
  outer loop
    vertex 19.030648364665627 -6.150969258616853 3.9999999999999996
    vertex 16.790206756486178 -10.86687430103275 11.0
    vertex 16.790206756486178 -10.86687430103275 3.9999999999999996
  endloop
endfacet
facet normal 0.9032487966984898 -0.4291172465221254 0.0
  outer loop
    vertex 16.790206756486178 -10.86687430103275 11.0
    vertex 19.030648364665627 -6.150969258616853 3.9999999999999996
    vertex 19.030648364665627 -6.150969258616853 11.0
  endloop
endfacet
facet normal 0.761407624313715 -0.6482734219732786 0.0
  outer loop
    vertex 16.790206756486178 -10.86687430103275 3.9999999999999996
    vertex 13.405540304980788 -14.84221981819214 11.0
    vertex 13.405540304980788 -14.84221981819214 3.9999999999999996
  endloop
endfacet
facet normal 0.761407624313715 -0.6482734219732786 0.0
  outer loop
    vertex 13.405540304980788 -14.84221981819214 11.0
    vertex 16.790206756486178 -10.86687430103275 3.9999999999999996
    vertex 16.790206756486178 -10.86687430103275 11.0
  endloop
endfacet
facet normal 0.5676777806175555 -0.8232508350394349 0.0
  outer loop
    vertex 13.405540304980788 -14.84221981819214 11.0
    vertex 9.10730843539378 -17.806092582669713 3.9999999999999996
    vertex 13.405540304980788 -14.84221981819214 3.9999999999999996
  endloop
endfacet
facet normal 0.5676777806175555 -0.8232508350394349 0.0
  outer loop
    vertex 9.10730843539378 -17.806092582669713 3.9999999999999996
    vertex 13.405540304980788 -14.84221981819214 11.0
    vertex 9.10730843539378 -17.806092582669713 11.0
  endloop
endfacet
facet normal 0.3352616343041967 -0.9421250641839857 0.0
  outer loop
    vertex 9.10730843539378 -17.806092582669713 11.0
    vertex 4.188428546473468 -19.556509563597647 3.9999999999999996
    vertex 9.10730843539378 -17.806092582669713 3.9999999999999996
  endloop
endfacet
facet normal 0.3352616343041967 -0.9421250641839857 0.0
  outer loop
    vertex 4.188428546473468 -19.556509563597647 3.9999999999999996
    vertex 9.10730843539378 -17.806092582669713 11.0
    vertex 4.188428546473468 -19.556509563597647 11.0
  endloop
endfacet
facet normal 0.0799979616590534 -0.9967950271396807 0.0
  outer loop
    vertex 4.188428546473468 -19.556509563597647 11.0
    vertex -1.0158858261835446 -19.974182736426524 3.9999999999999996
    vertex 4.188428546473468 -19.556509563597647 3.9999999999999996
  endloop
endfacet
facet normal 0.0799979616590534 -0.9967950271396807 0.0
  outer loop
    vertex -1.0158858261835446 -19.974182736426524 3.9999999999999996
    vertex 4.188428546473468 -19.556509563597647 11.0
    vertex -1.0158858261835446 -19.974182736426524 11.0
  endloop
endfacet
facet normal -0.18071743987026995 -0.9835350562774747 -0.0
  outer loop
    vertex -1.0158858261835446 -19.974182736426524 11.0
    vertex -6.150969258616858 -19.030648364665623 3.9999999999999996
    vertex -1.0158858261835446 -19.974182736426524 3.9999999999999996
  endloop
endfacet
facet normal -0.18071743987026995 -0.9835350562774747 -0.0
  outer loop
    vertex -6.150969258616858 -19.030648364665623 3.9999999999999996
    vertex -1.0158858261835446 -19.974182736426524 11.0
    vertex -6.150969258616858 -19.030648364665623 11.0
  endloop
endfacet
facet normal -0.42911724652212613 -0.9032487966984895 -0.0
  outer loop
    vertex -6.150969258616858 -19.030648364665623 11.0
    vertex -10.866874301032757 -16.79020675648617 3.9999999999999996
    vertex -6.150969258616858 -19.030648364665623 3.9999999999999996
  endloop
endfacet
facet normal -0.42911724652212613 -0.9032487966984895 -0.0
  outer loop
    vertex -10.866874301032757 -16.79020675648617 3.9999999999999996
    vertex -6.150969258616858 -19.030648364665623 11.0
    vertex -10.866874301032757 -16.79020675648617 11.0
  endloop
endfacet
facet normal -0.6482734219732785 -0.7614076243137151 -0.0
  outer loop
    vertex -10.866874301032757 -16.79020675648617 11.0
    vertex -14.842219818192147 -13.405540304980782 3.9999999999999996
    vertex -10.866874301032757 -16.79020675648617 3.9999999999999996
  endloop
endfacet
facet normal -0.6482734219732785 -0.7614076243137151 -0.0
  outer loop
    vertex -14.842219818192147 -13.405540304980782 3.9999999999999996
    vertex -10.866874301032757 -16.79020675648617 11.0
    vertex -14.842219818192147 -13.405540304980782 11.0
  endloop
endfacet
facet normal -0.823250835039435 -0.5676777806175554 -0.0
  outer loop
    vertex -17.806092582669717 -9.107308435393776 11.0
    vertex -14.842219818192147 -13.405540304980782 3.9999999999999996
    vertex -14.842219818192147 -13.405540304980782 11.0
  endloop
endfacet
facet normal -0.823250835039435 -0.5676777806175554 -0.0
  outer loop
    vertex -14.842219818192147 -13.405540304980782 3.9999999999999996
    vertex -17.806092582669717 -9.107308435393776 11.0
    vertex -17.806092582669717 -9.107308435393776 3.9999999999999996
  endloop
endfacet
facet normal -0.9421250641839858 -0.3352616343041964 -0.0
  outer loop
    vertex -19.556509563597647 -4.188428546473469 11.0
    vertex -17.806092582669717 -9.107308435393776 3.9999999999999996
    vertex -17.806092582669717 -9.107308435393776 11.0
  endloop
endfacet
facet normal -0.9421250641839858 -0.3352616343041964 -0.0
  outer loop
    vertex -17.806092582669717 -9.107308435393776 3.9999999999999996
    vertex -19.556509563597647 -4.188428546473469 11.0
    vertex -19.556509563597647 -4.188428546473469 3.9999999999999996
  endloop
endfacet
facet normal -0.9967950271396806 -0.07999796165905339 -0.0
  outer loop
    vertex -19.974182736426524 1.0158858261835446 11.0
    vertex -19.556509563597647 -4.188428546473469 3.9999999999999996
    vertex -19.556509563597647 -4.188428546473469 11.0
  endloop
endfacet
facet normal -0.9967950271396806 -0.07999796165905339 -0.0
  outer loop
    vertex -19.556509563597647 -4.188428546473469 3.9999999999999996
    vertex -19.974182736426524 1.0158858261835446 11.0
    vertex -19.974182736426524 1.0158858261835446 3.9999999999999996
  endloop
endfacet
facet normal -0.9835350562774747 0.18071743987026978 0.0
  outer loop
    vertex -19.030648364665623 6.150969258616862 11.0
    vertex -19.974182736426524 1.0158858261835446 3.9999999999999996
    vertex -19.974182736426524 1.0158858261835446 11.0
  endloop
endfacet
facet normal -0.9835350562774747 0.18071743987026978 0.0
  outer loop
    vertex -19.974182736426524 1.0158858261835446 3.9999999999999996
    vertex -19.030648364665623 6.150969258616862 11.0
    vertex -19.030648364665623 6.150969258616862 3.9999999999999996
  endloop
endfacet
facet normal -0.9032487966984896 0.4291172465221257 0.0
  outer loop
    vertex -16.790206756486175 10.866874301032754 11.0
    vertex -19.030648364665623 6.150969258616862 3.9999999999999996
    vertex -19.030648364665623 6.150969258616862 11.0
  endloop
endfacet
facet normal -0.9032487966984896 0.4291172465221257 0.0
  outer loop
    vertex -19.030648364665623 6.150969258616862 3.9999999999999996
    vertex -16.790206756486175 10.866874301032754 11.0
    vertex -16.790206756486175 10.866874301032754 3.9999999999999996
  endloop
endfacet
facet normal -0.7614076243137151 0.6482734219732785 0.0
  outer loop
    vertex -13.405540304980784 14.842219818192147 11.0
    vertex -16.790206756486175 10.866874301032754 3.9999999999999996
    vertex -16.790206756486175 10.866874301032754 11.0
  endloop
endfacet
facet normal -0.7614076243137151 0.6482734219732785 0.0
  outer loop
    vertex -16.790206756486175 10.866874301032754 3.9999999999999996
    vertex -13.405540304980784 14.842219818192147 11.0
    vertex -13.405540304980784 14.842219818192147 3.9999999999999996
  endloop
endfacet
facet normal -0.5676777806175547 0.8232508350394353 0.0
  outer loop
    vertex -13.405540304980784 14.842219818192147 11.0
    vertex -9.107308435393776 17.806092582669713 3.9999999999999996
    vertex -13.405540304980784 14.842219818192147 3.9999999999999996
  endloop
endfacet
facet normal -0.5676777806175547 0.8232508350394353 0.0
  outer loop
    vertex -9.107308435393776 17.806092582669713 3.9999999999999996
    vertex -13.405540304980784 14.842219818192147 11.0
    vertex -9.107308435393776 17.806092582669713 11.0
  endloop
endfacet
facet normal -0.3352616343041971 0.9421250641839857 0.0
  outer loop
    vertex -9.107308435393776 17.806092582669713 11.0
    vertex -4.18842854647348 19.556509563597643 3.9999999999999996
    vertex -9.107308435393776 17.806092582669713 3.9999999999999996
  endloop
endfacet
facet normal -0.3352616343041971 0.9421250641839857 0.0
  outer loop
    vertex -4.18842854647348 19.556509563597643 3.9999999999999996
    vertex -9.107308435393776 17.806092582669713 11.0
    vertex -4.18842854647348 19.556509563597643 11.0
  endloop
endfacet
facet normal 0.0 0.0 1.0
  outer loop
    vertex -3.499999999999999 -6.06217782649107 25.999999999999996
    vertex -3.9999999999999996 2.449293598294706e-16 26.000000000000007
    vertex -4.949747468305833 -4.949747468305833 25.999999999999996
  endloop
endfacet
facet normal 0.0 0.0 1.0
  outer loop
    vertex -3.9999999999999996 2.449293598294706e-16 26.000000000000007
    vertex -3.499999999999999 -6.06217782649107 25.999999999999996
    vertex -3.863703305156273 -1.0352761804100823 26.000000000000007
  endloop
endfacet
facet normal 0.0 0.0 1.0
  outer loop
    vertex -3.863703305156273 -1.0352761804100823 26.000000000000007
    vertex -3.499999999999999 -6.06217782649107 25.999999999999996
    vertex -3.4641016151377544 -1.9999999999999984 26.000000000000007
  endloop
endfacet
facet normal 0.0 0.0 1.0
  outer loop
    vertex -3.4641016151377544 -1.9999999999999984 26.000000000000007
    vertex -3.499999999999999 -6.06217782649107 25.999999999999996
    vertex -1.8117333157176452 -6.761480784023478 25.999999999999996
  endloop
endfacet
facet normal 0.0 0.0 1.0
  outer loop
    vertex -3.4641016151377544 -1.9999999999999984 26.000000000000007
    vertex -1.8117333157176452 -6.761480784023478 25.999999999999996
    vertex -2.8284271247461903 -2.8284271247461894 26.000000000000007
  endloop
endfacet
facet normal 0.0 0.0 1.0
  outer loop
    vertex -2.8284271247461903 -2.8284271247461894 26.000000000000007
    vertex -1.8117333157176452 -6.761480784023478 25.999999999999996
    vertex -2.0000000000000013 -3.464101615137753 26.000000000000007
  endloop
endfacet
facet normal 0.0 0.0 1.0
  outer loop
    vertex -2.0000000000000013 -3.464101615137753 26.000000000000007
    vertex -1.8117333157176452 -6.761480784023478 25.999999999999996
    vertex -1.035276180410084 -3.863703305156272 26.000000000000007
  endloop
endfacet
facet normal 0.0 0.0 1.0
  outer loop
    vertex -1.035276180410084 -3.863703305156272 26.000000000000007
    vertex -1.8117333157176452 -6.761480784023478 25.999999999999996
    vertex 0.0 -7.0 25.999999999999996
  endloop
endfacet
facet normal 0.0 0.0 1.0
  outer loop
    vertex -1.035276180410084 -3.863703305156272 26.000000000000007
    vertex 0.0 -7.0 25.999999999999996
    vertex -4.898587196589412e-16 -3.999999999999999 26.000000000000007
  endloop
endfacet
facet normal 0.0 0.0 1.0
  outer loop
    vertex -4.898587196589412e-16 -3.999999999999999 26.000000000000007
    vertex 0.0 -7.0 25.999999999999996
    vertex 1.0352761804100814 -3.863703305156273 26.000000000000007
  endloop
endfacet
facet normal 0.0 0.0 1.0
  outer loop
    vertex 1.0352761804100814 -3.863703305156273 26.000000000000007
    vertex 0.0 -7.0 25.999999999999996
    vertex 1.811733315717651 -6.761480784023476 25.999999999999996
  endloop
endfacet
facet normal 0.0 0.0 1.0
  outer loop
    vertex 1.0352761804100814 -3.863703305156273 26.000000000000007
    vertex 1.811733315717651 -6.761480784023476 25.999999999999996
    vertex 1.999999999999999 -3.4641016151377544 26.000000000000007
  endloop
endfacet
facet normal 0.0 0.0 1.0
  outer loop
    vertex 1.999999999999999 -3.4641016151377544 26.000000000000007
    vertex 1.811733315717651 -6.761480784023476 25.999999999999996
    vertex 3.5000000000000027 -6.062177826491069 25.999999999999996
  endloop
endfacet
facet normal 0.0 0.0 1.0
  outer loop
    vertex 1.999999999999999 -3.4641016151377544 26.000000000000007
    vertex 3.5000000000000027 -6.062177826491069 25.999999999999996
    vertex 2.8284271247461885 -2.828427124746191 26.000000000000007
  endloop
endfacet
facet normal 0.0 0.0 1.0
  outer loop
    vertex 2.8284271247461885 -2.828427124746191 26.000000000000007
    vertex 3.5000000000000027 -6.062177826491069 25.999999999999996
    vertex 3.464101615137753 -2.0000000000000013 26.000000000000007
  endloop
endfacet
facet normal 0.0 0.0 1.0
  outer loop
    vertex 3.464101615137753 -2.0000000000000013 26.000000000000007
    vertex 3.5000000000000027 -6.062177826491069 25.999999999999996
    vertex 3.863703305156272 -1.0352761804100858 26.000000000000007
  endloop
endfacet
facet normal 0.0 0.0 1.0
  outer loop
    vertex 3.863703305156272 -1.0352761804100858 26.000000000000007
    vertex 3.5000000000000027 -6.062177826491069 25.999999999999996
    vertex 4.949747468305834 -4.949747468305832 25.999999999999996
  endloop
endfacet
facet normal 0.0 0.0 1.0
  outer loop
    vertex 3.863703305156272 -1.0352761804100858 26.000000000000007
    vertex 4.949747468305834 -4.949747468305832 25.999999999999996
    vertex 3.9999999999999996 -7.347880794884117e-16 26.000000000000007
  endloop
endfacet
facet normal 0.0 0.0 1.0
  outer loop
    vertex 3.9999999999999996 -7.347880794884117e-16 26.000000000000007
    vertex 4.949747468305834 -4.949747468305832 25.999999999999996
    vertex 4.949747468305829 4.949747468305835 25.999999999999996
  endloop
endfacet
facet normal 0.0 0.0 1.0
  outer loop
    vertex 4.949747468305829 4.949747468305835 25.999999999999996
    vertex 4.949747468305834 -4.949747468305832 25.999999999999996
    vertex 6.062177826491069 3.5000000000000027 25.999999999999996
  endloop
endfacet
facet normal 0.0 0.0 1.0
  outer loop
    vertex 6.062177826491069 3.5000000000000027 25.999999999999996
    vertex 4.949747468305834 -4.949747468305832 25.999999999999996
    vertex 6.062177826491073 -3.499999999999995 25.999999999999996
  endloop
endfacet
facet normal 0.0 0.0 1.0
  outer loop
    vertex 6.062177826491069 3.5000000000000027 25.999999999999996
    vertex 6.062177826491073 -3.499999999999995 25.999999999999996
    vertex 6.761480784023476 1.8117333157176505 25.999999999999996
  endloop
endfacet
facet normal 0.0 0.0 1.0
  outer loop
    vertex 6.761480784023476 1.8117333157176505 25.999999999999996
    vertex 6.062177826491073 -3.499999999999995 25.999999999999996
    vertex 6.761480784023479 -1.811733315717642 25.999999999999996
  endloop
endfacet
facet normal 0.0 0.0 1.0
  outer loop
    vertex 6.761480784023476 1.8117333157176505 25.999999999999996
    vertex 6.761480784023479 -1.811733315717642 25.999999999999996
    vertex 7.0 1.2858791391047208e-15 25.999999999999996
  endloop
endfacet
facet normal 0.0 0.0 1.0
  outer loop
    vertex -6.761480784023478 -1.8117333157176467 25.999999999999996
    vertex -6.761480784023478 1.8117333157176443 25.999999999999996
    vertex -7.0 -4.286263797015736e-16 25.999999999999996
  endloop
endfacet
facet normal 0.0 0.0 1.0
  outer loop
    vertex -6.761480784023478 1.8117333157176443 25.999999999999996
    vertex -6.761480784023478 -1.8117333157176467 25.999999999999996
    vertex -6.06217782649107 -3.5000000000000004 25.999999999999996
  endloop
endfacet
facet normal 0.0 0.0 1.0
  outer loop
    vertex -6.761480784023478 1.8117333157176443 25.999999999999996
    vertex -6.06217782649107 -3.5000000000000004 25.999999999999996
    vertex -6.06217782649107 3.4999999999999987 25.999999999999996
  endloop
endfacet
facet normal 0.0 0.0 1.0
  outer loop
    vertex -6.06217782649107 3.4999999999999987 25.999999999999996
    vertex -6.06217782649107 -3.5000000000000004 25.999999999999996
    vertex -4.949747468305833 4.949747468305833 25.999999999999996
  endloop
endfacet
facet normal 0.0 0.0 1.0
  outer loop
    vertex -4.949747468305833 4.949747468305833 25.999999999999996
    vertex -6.06217782649107 -3.5000000000000004 25.999999999999996
    vertex -4.949747468305833 -4.949747468305833 25.999999999999996
  endloop
endfacet
facet normal 0.0 0.0 1.0
  outer loop
    vertex -4.949747468305833 4.949747468305833 25.999999999999996
    vertex -4.949747468305833 -4.949747468305833 25.999999999999996
    vertex -3.500000000000002 6.0621778264910695 25.999999999999996
  endloop
endfacet
facet normal 0.0 0.0 1.0
  outer loop
    vertex -3.500000000000002 6.0621778264910695 25.999999999999996
    vertex -4.949747468305833 -4.949747468305833 25.999999999999996
    vertex -3.9999999999999996 2.449293598294706e-16 26.000000000000007
  endloop
endfacet
facet normal 0.0 0.0 1.0
  outer loop
    vertex -3.500000000000002 6.0621778264910695 25.999999999999996
    vertex -3.9999999999999996 2.449293598294706e-16 26.000000000000007
    vertex -3.863703305156273 1.0352761804100836 26.000000000000007
  endloop
endfacet
facet normal 0.0 0.0 1.0
  outer loop
    vertex -3.500000000000002 6.0621778264910695 25.999999999999996
    vertex -3.863703305156273 1.0352761804100836 26.000000000000007
    vertex -3.464101615137754 1.9999999999999998 26.000000000000007
  endloop
endfacet
facet normal 0.0 0.0 1.0
  outer loop
    vertex -3.500000000000002 6.0621778264910695 25.999999999999996
    vertex -3.464101615137754 1.9999999999999998 26.000000000000007
    vertex -1.811733315717647 6.761480784023478 25.999999999999996
  endloop
endfacet
facet normal 0.0 0.0 1.0
  outer loop
    vertex -1.811733315717647 6.761480784023478 25.999999999999996
    vertex -3.464101615137754 1.9999999999999998 26.000000000000007
    vertex -2.82842712474619 2.82842712474619 26.000000000000007
  endloop
endfacet
facet normal 0.0 0.0 1.0
  outer loop
    vertex -1.811733315717647 6.761480784023478 25.999999999999996
    vertex -2.82842712474619 2.82842712474619 26.000000000000007
    vertex -1.9999999999999996 3.464101615137754 26.000000000000007
  endloop
endfacet
facet normal 0.0 0.0 1.0
  outer loop
    vertex -1.811733315717647 6.761480784023478 25.999999999999996
    vertex -1.9999999999999996 3.464101615137754 26.000000000000007
    vertex -1.035276180410083 3.863703305156272 26.000000000000007
  endloop
endfacet
facet normal 0.0 0.0 1.0
  outer loop
    vertex -1.811733315717647 6.761480784023478 25.999999999999996
    vertex -1.035276180410083 3.863703305156272 26.000000000000007
    vertex -8.572527594031472e-16 7.0 25.999999999999996
  endloop
endfacet
facet normal 0.0 0.0 1.0
  outer loop
    vertex -8.572527594031472e-16 7.0 25.999999999999996
    vertex -1.035276180410083 3.863703305156272 26.000000000000007
    vertex 0.0 3.999999999999999 26.000000000000007
  endloop
endfacet
facet normal 0.0 0.0 1.0
  outer loop
    vertex -8.572527594031472e-16 7.0 25.999999999999996
    vertex 0.0 3.999999999999999 26.000000000000007
    vertex 1.8117333157176425 6.761480784023479 25.999999999999996
  endloop
endfacet
facet normal 0.0 0.0 1.0
  outer loop
    vertex 1.8117333157176425 6.761480784023479 25.999999999999996
    vertex 0.0 3.999999999999999 26.000000000000007
    vertex 1.035276180410086 3.8637033051562715 26.000000000000007
  endloop
endfacet
facet normal 0.0 0.0 1.0
  outer loop
    vertex 1.8117333157176425 6.761480784023479 25.999999999999996
    vertex 1.035276180410086 3.8637033051562715 26.000000000000007
    vertex 2.0000000000000018 3.4641016151377526 26.000000000000007
  endloop
endfacet
facet normal 0.0 0.0 1.0
  outer loop
    vertex 1.8117333157176425 6.761480784023479 25.999999999999996
    vertex 2.0000000000000018 3.4641016151377526 26.000000000000007
    vertex 3.499999999999998 6.062177826491071 25.999999999999996
  endloop
endfacet
facet normal 0.0 0.0 1.0
  outer loop
    vertex 3.499999999999998 6.062177826491071 25.999999999999996
    vertex 2.0000000000000018 3.4641016151377526 26.000000000000007
    vertex 2.8284271247461903 2.8284271247461885 26.000000000000007
  endloop
endfacet
facet normal 0.0 0.0 1.0
  outer loop
    vertex 3.499999999999998 6.062177826491071 25.999999999999996
    vertex 2.8284271247461903 2.8284271247461885 26.000000000000007
    vertex 3.464101615137756 1.9999999999999967 26.000000000000007
  endloop
endfacet
facet normal 0.0 0.0 1.0
  outer loop
    vertex 3.499999999999998 6.062177826491071 25.999999999999996
    vertex 3.464101615137756 1.9999999999999967 26.000000000000007
    vertex 3.8637033051562732 1.035276180410081 26.000000000000007
  endloop
endfacet
facet normal 0.0 0.0 1.0
  outer loop
    vertex 3.499999999999998 6.062177826491071 25.999999999999996
    vertex 3.8637033051562732 1.035276180410081 26.000000000000007
    vertex 4.949747468305829 4.949747468305835 25.999999999999996
  endloop
endfacet
facet normal 0.0 0.0 1.0
  outer loop
    vertex 4.949747468305829 4.949747468305835 25.999999999999996
    vertex 3.8637033051562732 1.035276180410081 26.000000000000007
    vertex 3.9999999999999996 -7.347880794884117e-16 26.000000000000007
  endloop
endfacet
facet normal -0.38268343236508967 -0.9238795325112868 -0.0
  outer loop
    vertex -1.8117333157176452 -6.761480784023478 25.999999999999996
    vertex -3.499999999999999 -6.06217782649107 9.0
    vertex -1.8117333157176452 -6.761480784023478 9.0
  endloop
endfacet
facet normal -0.38268343236508967 -0.9238795325112868 -0.0
  outer loop
    vertex -3.499999999999999 -6.06217782649107 9.0
    vertex -1.8117333157176452 -6.761480784023478 25.999999999999996
    vertex -3.499999999999999 -6.06217782649107 25.999999999999996
  endloop
endfacet
facet normal -0.13052619222005177 -0.9914448613738105 -0.0
  outer loop
    vertex 0.0 -7.0 25.999999999999996
    vertex -1.8117333157176452 -6.761480784023478 9.0
    vertex 0.0 -7.0 9.0
  endloop
endfacet
facet normal -0.13052619222005177 -0.9914448613738105 -0.0
  outer loop
    vertex -1.8117333157176452 -6.761480784023478 9.0
    vertex 0.0 -7.0 25.999999999999996
    vertex -1.8117333157176452 -6.761480784023478 25.999999999999996
  endloop
endfacet
facet normal 0.13052619222005213 -0.9914448613738105 0.0
  outer loop
    vertex 1.811733315717651 -6.761480784023476 25.999999999999996
    vertex 0.0 -7.0 9.0
    vertex 1.811733315717651 -6.761480784023476 9.0
  endloop
endfacet
facet normal 0.13052619222005213 -0.9914448613738105 0.0
  outer loop
    vertex 0.0 -7.0 9.0
    vertex 1.811733315717651 -6.761480784023476 25.999999999999996
    vertex 0.0 -7.0 25.999999999999996
  endloop
endfacet
facet normal 0.3826834323650904 -0.9238795325112865 0.0
  outer loop
    vertex 3.5000000000000027 -6.062177826491069 25.999999999999996
    vertex 1.811733315717651 -6.761480784023476 9.0
    vertex 3.5000000000000027 -6.062177826491069 9.0
  endloop
endfacet
facet normal 0.3826834323650904 -0.9238795325112865 0.0
  outer loop
    vertex 1.811733315717651 -6.761480784023476 9.0
    vertex 3.5000000000000027 -6.062177826491069 25.999999999999996
    vertex 1.811733315717651 -6.761480784023476 25.999999999999996
  endloop
endfacet
facet normal 0.6087614290087208 -0.793353340291235 0.0
  outer loop
    vertex 4.949747468305834 -4.949747468305832 25.999999999999996
    vertex 3.5000000000000027 -6.062177826491069 9.0
    vertex 4.949747468305834 -4.949747468305832 9.0
  endloop
endfacet
facet normal 0.6087614290087208 -0.793353340291235 0.0
  outer loop
    vertex 3.5000000000000027 -6.062177826491069 9.0
    vertex 4.949747468305834 -4.949747468305832 25.999999999999996
    vertex 3.5000000000000027 -6.062177826491069 25.999999999999996
  endloop
endfacet
facet normal 0.7933533402912356 -0.6087614290087203 0.0
  outer loop
    vertex 6.062177826491073 -3.499999999999995 9.0
    vertex 4.949747468305834 -4.949747468305832 25.999999999999996
    vertex 4.949747468305834 -4.949747468305832 9.0
  endloop
endfacet
facet normal 0.7933533402912356 -0.6087614290087203 0.0
  outer loop
    vertex 4.949747468305834 -4.949747468305832 25.999999999999996
    vertex 6.062177826491073 -3.499999999999995 9.0
    vertex 6.062177826491073 -3.499999999999995 25.999999999999996
  endloop
endfacet
facet normal 0.923879532511287 -0.38268343236508917 0.0
  outer loop
    vertex 6.761480784023479 -1.811733315717642 9.0
    vertex 6.062177826491073 -3.499999999999995 25.999999999999996
    vertex 6.062177826491073 -3.499999999999995 9.0
  endloop
endfacet
facet normal 0.923879532511287 -0.38268343236508917 0.0
  outer loop
    vertex 6.062177826491073 -3.499999999999995 25.999999999999996
    vertex 6.761480784023479 -1.811733315717642 9.0
    vertex 6.761480784023479 -1.811733315717642 25.999999999999996
  endloop
endfacet
facet normal 0.9914448613738106 -0.13052619222005113 0.0
  outer loop
    vertex 7.0 1.2858791391047208e-15 9.0
    vertex 6.761480784023479 -1.811733315717642 25.999999999999996
    vertex 6.761480784023479 -1.811733315717642 9.0
  endloop
endfacet
facet normal 0.9914448613738106 -0.13052619222005113 0.0
  outer loop
    vertex 6.761480784023479 -1.811733315717642 25.999999999999996
    vertex 7.0 1.2858791391047208e-15 9.0
    vertex 7.0 1.2858791391047208e-15 25.999999999999996
  endloop
endfacet
facet normal 0.9914448613738104 0.13052619222005224 0.0
  outer loop
    vertex 6.761480784023476 1.8117333157176505 9.0
    vertex 7.0 1.2858791391047208e-15 25.999999999999996
    vertex 7.0 1.2858791391047208e-15 9.0
  endloop
endfacet
facet normal 0.9914448613738104 0.13052619222005224 0.0
  outer loop
    vertex 7.0 1.2858791391047208e-15 25.999999999999996
    vertex 6.761480784023476 1.8117333157176505 9.0
    vertex 6.761480784023476 1.8117333157176505 25.999999999999996
  endloop
endfacet
facet normal 0.9238795325112865 0.38268343236509034 0.0
  outer loop
    vertex 6.062177826491069 3.5000000000000027 9.0
    vertex 6.761480784023476 1.8117333157176505 25.999999999999996
    vertex 6.761480784023476 1.8117333157176505 9.0
  endloop
endfacet
facet normal 0.9238795325112865 0.38268343236509034 0.0
  outer loop
    vertex 6.761480784023476 1.8117333157176505 25.999999999999996
    vertex 6.062177826491069 3.5000000000000027 9.0
    vertex 6.062177826491069 3.5000000000000027 25.999999999999996
  endloop
endfacet
facet normal 0.7933533402912348 0.6087614290087211 0.0
  outer loop
    vertex 4.949747468305829 4.949747468305835 9.0
    vertex 6.062177826491069 3.5000000000000027 25.999999999999996
    vertex 6.062177826491069 3.5000000000000027 9.0
  endloop
endfacet
facet normal 0.7933533402912348 0.6087614290087211 0.0
  outer loop
    vertex 6.062177826491069 3.5000000000000027 25.999999999999996
    vertex 4.949747468305829 4.949747468305835 9.0
    vertex 4.949747468305829 4.949747468305835 25.999999999999996
  endloop
endfacet
facet normal 0.6087614290087203 0.7933533402912354 0.0
  outer loop
    vertex 3.499999999999998 6.062177826491071 25.999999999999996
    vertex 4.949747468305829 4.949747468305835 9.0
    vertex 3.499999999999998 6.062177826491071 9.0
  endloop
endfacet
facet normal 0.6087614290087203 0.7933533402912354 0.0
  outer loop
    vertex 4.949747468305829 4.949747468305835 9.0
    vertex 3.499999999999998 6.062177826491071 25.999999999999996
    vertex 4.949747468305829 4.949747468305835 25.999999999999996
  endloop
endfacet
facet normal 0.3826834323650898 0.9238795325112868 0.0
  outer loop
    vertex 1.8117333157176425 6.761480784023479 25.999999999999996
    vertex 3.499999999999998 6.062177826491071 9.0
    vertex 1.8117333157176425 6.761480784023479 9.0
  endloop
endfacet
facet normal 0.3826834323650898 0.9238795325112868 0.0
  outer loop
    vertex 3.499999999999998 6.062177826491071 9.0
    vertex 1.8117333157176425 6.761480784023479 25.999999999999996
    vertex 3.499999999999998 6.062177826491071 25.999999999999996
  endloop
endfacet
facet normal 0.13052619222005113 0.9914448613738105 0.0
  outer loop
    vertex -8.572527594031472e-16 7.0 25.999999999999996
    vertex 1.8117333157176425 6.761480784023479 9.0
    vertex -8.572527594031472e-16 7.0 9.0
  endloop
endfacet
facet normal 0.13052619222005113 0.9914448613738105 0.0
  outer loop
    vertex 1.8117333157176425 6.761480784023479 9.0
    vertex -8.572527594031472e-16 7.0 25.999999999999996
    vertex 1.8117333157176425 6.761480784023479 25.999999999999996
  endloop
endfacet
facet normal -0.13052619222005168 0.9914448613738104 0.0
  outer loop
    vertex -1.811733315717647 6.761480784023478 25.999999999999996
    vertex -8.572527594031472e-16 7.0 9.0
    vertex -1.811733315717647 6.761480784023478 9.0
  endloop
endfacet
facet normal -0.13052619222005168 0.9914448613738104 0.0
  outer loop
    vertex -8.572527594031472e-16 7.0 9.0
    vertex -1.811733315717647 6.761480784023478 25.999999999999996
    vertex -8.572527594031472e-16 7.0 25.999999999999996
  endloop
endfacet
facet normal -0.3826834323650901 0.9238795325112867 0.0
  outer loop
    vertex -3.500000000000002 6.0621778264910695 25.999999999999996
    vertex -1.811733315717647 6.761480784023478 9.0
    vertex -3.500000000000002 6.0621778264910695 9.0
  endloop
endfacet
facet normal -0.3826834323650901 0.9238795325112867 0.0
  outer loop
    vertex -1.811733315717647 6.761480784023478 9.0
    vertex -3.500000000000002 6.0621778264910695 25.999999999999996
    vertex -1.811733315717647 6.761480784023478 25.999999999999996
  endloop
endfacet
facet normal -0.6087614290087208 0.793353340291235 0.0
  outer loop
    vertex -4.949747468305833 4.949747468305833 25.999999999999996
    vertex -3.500000000000002 6.0621778264910695 9.0
    vertex -4.949747468305833 4.949747468305833 9.0
  endloop
endfacet
facet normal -0.6087614290087208 0.793353340291235 0.0
  outer loop
    vertex -3.500000000000002 6.0621778264910695 9.0
    vertex -4.949747468305833 4.949747468305833 25.999999999999996
    vertex -3.500000000000002 6.0621778264910695 25.999999999999996
  endloop
endfacet
facet normal -0.7933533402912356 0.6087614290087203 0.0
  outer loop
    vertex -4.949747468305833 4.949747468305833 25.999999999999996
    vertex -6.06217782649107 3.4999999999999987 9.0
    vertex -6.06217782649107 3.4999999999999987 25.999999999999996
  endloop
endfacet
facet normal -0.7933533402912356 0.6087614290087203 0.0
  outer loop
    vertex -6.06217782649107 3.4999999999999987 9.0
    vertex -4.949747468305833 4.949747468305833 25.999999999999996
    vertex -4.949747468305833 4.949747468305833 9.0
  endloop
endfacet
facet normal -0.923879532511287 0.38268343236508967 0.0
  outer loop
    vertex -6.06217782649107 3.4999999999999987 25.999999999999996
    vertex -6.761480784023478 1.8117333157176443 9.0
    vertex -6.761480784023478 1.8117333157176443 25.999999999999996
  endloop
endfacet
facet normal -0.923879532511287 0.38268343236508967 0.0
  outer loop
    vertex -6.761480784023478 1.8117333157176443 9.0
    vertex -6.06217782649107 3.4999999999999987 25.999999999999996
    vertex -6.06217782649107 3.4999999999999987 9.0
  endloop
endfacet
facet normal -0.9914448613738105 0.1305261922200518 0.0
  outer loop
    vertex -6.761480784023478 1.8117333157176443 25.999999999999996
    vertex -7.0 -4.286263797015736e-16 9.0
    vertex -7.0 -4.286263797015736e-16 25.999999999999996
  endloop
endfacet
facet normal -0.9914448613738105 0.1305261922200518 0.0
  outer loop
    vertex -7.0 -4.286263797015736e-16 9.0
    vertex -6.761480784023478 1.8117333157176443 25.999999999999996
    vertex -6.761480784023478 1.8117333157176443 9.0
  endloop
endfacet
facet normal -0.9914448613738104 -0.13052619222005168 -0.0
  outer loop
    vertex -7.0 -4.286263797015736e-16 25.999999999999996
    vertex -6.761480784023478 -1.8117333157176467 9.0
    vertex -6.761480784023478 -1.8117333157176467 25.999999999999996
  endloop
endfacet
facet normal -0.9914448613738104 -0.13052619222005168 -0.0
  outer loop
    vertex -6.761480784023478 -1.8117333157176467 9.0
    vertex -7.0 -4.286263797015736e-16 25.999999999999996
    vertex -7.0 -4.286263797015736e-16 9.0
  endloop
endfacet
facet normal -0.9238795325112868 -0.38268343236509006 -0.0
  outer loop
    vertex -6.761480784023478 -1.8117333157176467 25.999999999999996
    vertex -6.06217782649107 -3.5000000000000004 9.0
    vertex -6.06217782649107 -3.5000000000000004 25.999999999999996
  endloop
endfacet
facet normal -0.9238795325112868 -0.38268343236509006 -0.0
  outer loop
    vertex -6.06217782649107 -3.5000000000000004 9.0
    vertex -6.761480784023478 -1.8117333157176467 25.999999999999996
    vertex -6.761480784023478 -1.8117333157176467 9.0
  endloop
endfacet
facet normal -0.7933533402912353 -0.6087614290087207 -0.0
  outer loop
    vertex -6.06217782649107 -3.5000000000000004 25.999999999999996
    vertex -4.949747468305833 -4.949747468305833 9.0
    vertex -4.949747468305833 -4.949747468305833 25.999999999999996
  endloop
endfacet
facet normal -0.7933533402912353 -0.6087614290087207 -0.0
  outer loop
    vertex -4.949747468305833 -4.949747468305833 9.0
    vertex -6.06217782649107 -3.5000000000000004 25.999999999999996
    vertex -6.06217782649107 -3.5000000000000004 9.0
  endloop
endfacet
facet normal -0.6087614290087204 -0.7933533402912353 -0.0
  outer loop
    vertex -3.499999999999999 -6.06217782649107 25.999999999999996
    vertex -4.949747468305833 -4.949747468305833 9.0
    vertex -3.499999999999999 -6.06217782649107 9.0
  endloop
endfacet
facet normal -0.6087614290087204 -0.7933533402912353 -0.0
  outer loop
    vertex -4.949747468305833 -4.949747468305833 9.0
    vertex -3.499999999999999 -6.06217782649107 25.999999999999996
    vertex -4.949747468305833 -4.949747468305833 25.999999999999996
  endloop
endfacet
facet normal -0.0 -0.0 1.0
  outer loop
    vertex -9.20074705890131 -1.9705291225442336 9.0
    vertex -8.953345248075612 2.8938452504302847 9.0
    vertex -9.397249671189568 0.4779435970944461 9.0
  endloop
endfacet
facet normal -0.0 -0.0 1.0
  outer loop
    vertex -8.953345248075612 2.8938452504302847 9.0
    vertex -9.20074705890131 -1.9705291225442336 9.0
    vertex -8.377228739502353 -4.284713538934878 9.0
  endloop
endfacet
facet normal -0.0 -0.0 1.0
  outer loop
    vertex -8.953345248075612 2.8938452504302847 9.0
    vertex -8.377228739502353 -4.284713538934878 9.0
    vertex -7.899285142407911 5.112536132254686 9.0
  endloop
endfacet
facet normal -0.0 -0.0 1.0
  outer loop
    vertex -7.899285142407911 5.112536132254686 9.0
    vertex -8.377228739502353 -4.284713538934878 9.0
    vertex -6.98281612553137 -6.306901808471025 9.0
  endloop
endfacet
facet normal -0.0 -0.0 1.0
  outer loop
    vertex -7.899285142407911 5.112536132254686 9.0
    vertex -6.98281612553137 -6.306901808471025 9.0
    vertex -7.0 -4.286263797015736e-16 9.0
  endloop
endfacet
facet normal -0.0 -0.0 1.0
  outer loop
    vertex -7.0 -4.286263797015736e-16 9.0
    vertex -6.98281612553137 -6.306901808471025 9.0
    vertex -6.761480784023478 -1.8117333157176467 9.0
  endloop
endfacet
facet normal -0.0 -0.0 1.0
  outer loop
    vertex -6.761480784023478 -1.8117333157176467 9.0
    vertex -6.98281612553137 -6.306901808471025 9.0
    vertex -5.112536132254703 -7.899285142407898 9.0
  endloop
endfacet
facet normal -0.0 -0.0 1.0
  outer loop
    vertex -6.761480784023478 -1.8117333157176467 9.0
    vertex -5.112536132254703 -7.899285142407898 9.0
    vertex -6.06217782649107 -3.5000000000000004 9.0
  endloop
endfacet
facet normal -0.0 -0.0 1.0
  outer loop
    vertex -6.06217782649107 -3.5000000000000004 9.0
    vertex -5.112536132254703 -7.899285142407898 9.0
    vertex -4.949747468305833 -4.949747468305833 9.0
  endloop
endfacet
facet normal -0.0 -0.0 1.0
  outer loop
    vertex -4.949747468305833 -4.949747468305833 9.0
    vertex -5.112536132254703 -7.899285142407898 9.0
    vertex -2.893845250430293 -8.953345248075609 9.0
  endloop
endfacet
facet normal -0.0 -0.0 1.0
  outer loop
    vertex -4.949747468305833 -4.949747468305833 9.0
    vertex -2.893845250430293 -8.953345248075609 9.0
    vertex -3.499999999999999 -6.06217782649107 9.0
  endloop
endfacet
facet normal -0.0 -0.0 1.0
  outer loop
    vertex -3.499999999999999 -6.06217782649107 9.0
    vertex -2.893845250430293 -8.953345248075609 9.0
    vertex -1.8117333157176452 -6.761480784023478 9.0
  endloop
endfacet
facet normal -0.0 -0.0 1.0
  outer loop
    vertex -1.8117333157176452 -6.761480784023478 9.0
    vertex -2.893845250430293 -8.953345248075609 9.0
    vertex -0.477943597094456 -9.397249671189568 9.0
  endloop
endfacet
facet normal -0.0 -0.0 1.0
  outer loop
    vertex -1.8117333157176452 -6.761480784023478 9.0
    vertex -0.477943597094456 -9.397249671189568 9.0
    vertex 0.0 -7.0 9.0
  endloop
endfacet
facet normal -0.0 -0.0 1.0
  outer loop
    vertex 0.0 -7.0 9.0
    vertex -0.477943597094456 -9.397249671189568 9.0
    vertex 1.9705291225442254 -9.200747058901312 9.0
  endloop
endfacet
facet normal -0.0 -0.0 1.0
  outer loop
    vertex 0.0 -7.0 9.0
    vertex 1.9705291225442254 -9.200747058901312 9.0
    vertex 1.811733315717651 -6.761480784023476 9.0
  endloop
endfacet
facet normal -0.0 -0.0 1.0
  outer loop
    vertex 1.811733315717651 -6.761480784023476 9.0
    vertex 1.9705291225442254 -9.200747058901312 9.0
    vertex 3.5000000000000027 -6.062177826491069 9.0
  endloop
endfacet
facet normal -0.0 -0.0 1.0
  outer loop
    vertex 3.5000000000000027 -6.062177826491069 9.0
    vertex 1.9705291225442254 -9.200747058901312 9.0
    vertex 4.284713538934891 -8.377228739502343 9.0
  endloop
endfacet
facet normal -0.0 -0.0 1.0
  outer loop
    vertex 3.5000000000000027 -6.062177826491069 9.0
    vertex 4.284713538934891 -8.377228739502343 9.0
    vertex 4.949747468305834 -4.949747468305832 9.0
  endloop
endfacet
facet normal -0.0 -0.0 1.0
  outer loop
    vertex 4.949747468305834 -4.949747468305832 9.0
    vertex 4.284713538934891 -8.377228739502343 9.0
    vertex 6.30690180847104 -6.982816125531353 9.0
  endloop
endfacet
facet normal -0.0 -0.0 1.0
  outer loop
    vertex 4.949747468305834 -4.949747468305832 9.0
    vertex 6.30690180847104 -6.982816125531353 9.0
    vertex 6.062177826491073 -3.499999999999995 9.0
  endloop
endfacet
facet normal -0.0 -0.0 1.0
  outer loop
    vertex 6.062177826491073 -3.499999999999995 9.0
    vertex 6.30690180847104 -6.982816125531353 9.0
    vertex 6.761480784023479 -1.811733315717642 9.0
  endloop
endfacet
facet normal -0.0 -0.0 1.0
  outer loop
    vertex 6.761480784023479 -1.811733315717642 9.0
    vertex 6.30690180847104 -6.982816125531353 9.0
    vertex 7.899285142407904 -5.1125361322546965 9.0
  endloop
endfacet
facet normal -0.0 -0.0 1.0
  outer loop
    vertex 6.761480784023479 -1.811733315717642 9.0
    vertex 7.899285142407904 -5.1125361322546965 9.0
    vertex 7.0 1.2858791391047208e-15 9.0
  endloop
endfacet
facet normal -0.0 -0.0 1.0
  outer loop
    vertex -7.0 -4.286263797015736e-16 9.0
    vertex -6.306901808471035 6.982816125531361 9.0
    vertex -7.899285142407911 5.112536132254686 9.0
  endloop
endfacet
facet normal -0.0 -0.0 1.0
  outer loop
    vertex -6.306901808471035 6.982816125531361 9.0
    vertex -7.0 -4.286263797015736e-16 9.0
    vertex -6.761480784023478 1.8117333157176443 9.0
  endloop
endfacet
facet normal -0.0 -0.0 1.0
  outer loop
    vertex -6.306901808471035 6.982816125531361 9.0
    vertex -6.761480784023478 1.8117333157176443 9.0
    vertex -6.06217782649107 3.4999999999999987 9.0
  endloop
endfacet
facet normal -0.0 -0.0 1.0
  outer loop
    vertex -6.306901808471035 6.982816125531361 9.0
    vertex -6.06217782649107 3.4999999999999987 9.0
    vertex -4.284713538934888 8.377228739502344 9.0
  endloop
endfacet
facet normal -0.0 -0.0 1.0
  outer loop
    vertex -4.284713538934888 8.377228739502344 9.0
    vertex -6.06217782649107 3.4999999999999987 9.0
    vertex -4.949747468305833 4.949747468305833 9.0
  endloop
endfacet
facet normal -0.0 -0.0 1.0
  outer loop
    vertex -4.284713538934888 8.377228739502344 9.0
    vertex -4.949747468305833 4.949747468305833 9.0
    vertex -3.500000000000002 6.0621778264910695 9.0
  endloop
endfacet
facet normal -0.0 -0.0 1.0
  outer loop
    vertex -4.284713538934888 8.377228739502344 9.0
    vertex -3.500000000000002 6.0621778264910695 9.0
    vertex -1.970529122544241 9.200747058901305 9.0
  endloop
endfacet
facet normal -0.0 -0.0 1.0
  outer loop
    vertex -1.970529122544241 9.200747058901305 9.0
    vertex -3.500000000000002 6.0621778264910695 9.0
    vertex -1.811733315717647 6.761480784023478 9.0
  endloop
endfacet
facet normal -0.0 -0.0 1.0
  outer loop
    vertex -1.970529122544241 9.200747058901305 9.0
    vertex -1.811733315717647 6.761480784023478 9.0
    vertex 0.4779435970944428 9.397249671189568 9.0
  endloop
endfacet
facet normal -0.0 -0.0 1.0
  outer loop
    vertex 0.4779435970944428 9.397249671189568 9.0
    vertex -1.811733315717647 6.761480784023478 9.0
    vertex -8.572527594031472e-16 7.0 9.0
  endloop
endfacet
facet normal -0.0 -0.0 1.0
  outer loop
    vertex 0.4779435970944428 9.397249671189568 9.0
    vertex -8.572527594031472e-16 7.0 9.0
    vertex 1.8117333157176425 6.761480784023479 9.0
  endloop
endfacet
facet normal -0.0 -0.0 1.0
  outer loop
    vertex 0.4779435970944428 9.397249671189568 9.0
    vertex 1.8117333157176425 6.761480784023479 9.0
    vertex 2.8938452504302634 8.953345248075616 9.0
  endloop
endfacet
facet normal -0.0 -0.0 1.0
  outer loop
    vertex 2.8938452504302634 8.953345248075616 9.0
    vertex 1.8117333157176425 6.761480784023479 9.0
    vertex 3.499999999999998 6.062177826491071 9.0
  endloop
endfacet
facet normal -0.0 -0.0 1.0
  outer loop
    vertex 2.8938452504302634 8.953345248075616 9.0
    vertex 3.499999999999998 6.062177826491071 9.0
    vertex 5.112536132254683 7.899285142407907 9.0
  endloop
endfacet
facet normal -0.0 -0.0 1.0
  outer loop
    vertex 5.112536132254683 7.899285142407907 9.0
    vertex 3.499999999999998 6.062177826491071 9.0
    vertex 4.949747468305829 4.949747468305835 9.0
  endloop
endfacet
facet normal -0.0 -0.0 1.0
  outer loop
    vertex 5.112536132254683 7.899285142407907 9.0
    vertex 4.949747468305829 4.949747468305835 9.0
    vertex 6.062177826491069 3.5000000000000027 9.0
  endloop
endfacet
facet normal -0.0 -0.0 1.0
  outer loop
    vertex 5.112536132254683 7.899285142407907 9.0
    vertex 6.062177826491069 3.5000000000000027 9.0
    vertex 6.9828161255313725 6.30690180847102 9.0
  endloop
endfacet
facet normal -0.0 -0.0 1.0
  outer loop
    vertex 6.9828161255313725 6.30690180847102 9.0
    vertex 6.062177826491069 3.5000000000000027 9.0
    vertex 6.761480784023476 1.8117333157176505 9.0
  endloop
endfacet
facet normal -0.0 -0.0 1.0
  outer loop
    vertex 6.9828161255313725 6.30690180847102 9.0
    vertex 6.761480784023476 1.8117333157176505 9.0
    vertex 7.0 1.2858791391047208e-15 9.0
  endloop
endfacet
facet normal -0.0 -0.0 1.0
  outer loop
    vertex 6.9828161255313725 6.30690180847102 9.0
    vertex 7.0 1.2858791391047208e-15 9.0
    vertex 8.377228739502344 4.284713538934888 9.0
  endloop
endfacet
facet normal -0.0 -0.0 1.0
  outer loop
    vertex 8.377228739502344 4.284713538934888 9.0
    vertex 7.0 1.2858791391047208e-15 9.0
    vertex 7.899285142407904 -5.1125361322546965 9.0
  endloop
endfacet
facet normal -0.0 -0.0 1.0
  outer loop
    vertex 8.377228739502344 4.284713538934888 9.0
    vertex 7.899285142407904 -5.1125361322546965 9.0
    vertex 8.953345248075614 -2.8938452504302816 9.0
  endloop
endfacet
facet normal -0.0 -0.0 1.0
  outer loop
    vertex 8.377228739502344 4.284713538934888 9.0
    vertex 8.953345248075614 -2.8938452504302816 9.0
    vertex 9.200747058901303 1.9705291225442518 9.0
  endloop
endfacet
facet normal -0.0 -0.0 1.0
  outer loop
    vertex 9.200747058901303 1.9705291225442518 9.0
    vertex 8.953345248075614 -2.8938452504302816 9.0
    vertex 9.39724967118957 -0.4779435970944535 9.0
  endloop
endfacet
facet normal 0.0 0.0 1.0
  outer loop
    vertex -10.866874301032757 -16.79020675648617 11.0
    vertex -9.20074705890131 -1.9705291225442336 11.0
    vertex -9.397249671189568 0.4779435970944461 11.0
  endloop
endfacet
facet normal 0.0 0.0 1.0
  outer loop
    vertex -9.20074705890131 -1.9705291225442336 11.0
    vertex -10.866874301032757 -16.79020675648617 11.0
    vertex -6.150969258616858 -19.030648364665623 11.0
  endloop
endfacet
facet normal 0.0 0.0 1.0
  outer loop
    vertex -9.20074705890131 -1.9705291225442336 11.0
    vertex -6.150969258616858 -19.030648364665623 11.0
    vertex -8.377228739502353 -4.284713538934878 11.0
  endloop
endfacet
facet normal 0.0 0.0 1.0
  outer loop
    vertex -8.377228739502353 -4.284713538934878 11.0
    vertex -6.150969258616858 -19.030648364665623 11.0
    vertex -6.98281612553137 -6.306901808471025 11.0
  endloop
endfacet
facet normal 0.0 0.0 1.0
  outer loop
    vertex -6.98281612553137 -6.306901808471025 11.0
    vertex -6.150969258616858 -19.030648364665623 11.0
    vertex -5.112536132254703 -7.899285142407898 11.0
  endloop
endfacet
facet normal 0.0 0.0 1.0
  outer loop
    vertex -5.112536132254703 -7.899285142407898 11.0
    vertex -6.150969258616858 -19.030648364665623 11.0
    vertex -1.0158858261835446 -19.974182736426524 11.0
  endloop
endfacet
facet normal 0.0 0.0 1.0
  outer loop
    vertex -5.112536132254703 -7.899285142407898 11.0
    vertex -1.0158858261835446 -19.974182736426524 11.0
    vertex -2.893845250430293 -8.953345248075609 11.0
  endloop
endfacet
facet normal 0.0 0.0 1.0
  outer loop
    vertex -2.893845250430293 -8.953345248075609 11.0
    vertex -1.0158858261835446 -19.974182736426524 11.0
    vertex -0.477943597094456 -9.397249671189568 11.0
  endloop
endfacet
facet normal 0.0 0.0 1.0
  outer loop
    vertex -0.477943597094456 -9.397249671189568 11.0
    vertex -1.0158858261835446 -19.974182736426524 11.0
    vertex 4.188428546473468 -19.556509563597647 11.0
  endloop
endfacet
facet normal 0.0 0.0 1.0
  outer loop
    vertex -0.477943597094456 -9.397249671189568 11.0
    vertex 4.188428546473468 -19.556509563597647 11.0
    vertex 1.9705291225442254 -9.200747058901312 11.0
  endloop
endfacet
facet normal 0.0 0.0 1.0
  outer loop
    vertex 1.9705291225442254 -9.200747058901312 11.0
    vertex 4.188428546473468 -19.556509563597647 11.0
    vertex 4.284713538934891 -8.377228739502343 11.0
  endloop
endfacet
facet normal 0.0 0.0 1.0
  outer loop
    vertex 4.284713538934891 -8.377228739502343 11.0
    vertex 4.188428546473468 -19.556509563597647 11.0
    vertex 9.10730843539378 -17.806092582669713 11.0
  endloop
endfacet
facet normal 0.0 0.0 1.0
  outer loop
    vertex 4.284713538934891 -8.377228739502343 11.0
    vertex 9.10730843539378 -17.806092582669713 11.0
    vertex 6.30690180847104 -6.982816125531353 11.0
  endloop
endfacet
facet normal 0.0 0.0 1.0
  outer loop
    vertex 6.30690180847104 -6.982816125531353 11.0
    vertex 9.10730843539378 -17.806092582669713 11.0
    vertex 7.899285142407904 -5.1125361322546965 11.0
  endloop
endfacet
facet normal 0.0 0.0 1.0
  outer loop
    vertex 7.899285142407904 -5.1125361322546965 11.0
    vertex 9.10730843539378 -17.806092582669713 11.0
    vertex 8.953345248075614 -2.8938452504302816 11.0
  endloop
endfacet
facet normal 0.0 0.0 1.0
  outer loop
    vertex 8.953345248075614 -2.8938452504302816 11.0
    vertex 9.10730843539378 -17.806092582669713 11.0
    vertex 9.39724967118957 -0.4779435970944535 11.0
  endloop
endfacet
facet normal 0.0 0.0 1.0
  outer loop
    vertex 9.39724967118957 -0.4779435970944535 11.0
    vertex 9.10730843539378 -17.806092582669713 11.0
    vertex 13.405540304980788 -14.84221981819214 11.0
  endloop
endfacet
facet normal 0.0 0.0 1.0
  outer loop
    vertex 9.39724967118957 -0.4779435970944535 11.0
    vertex 13.405540304980788 -14.84221981819214 11.0
    vertex 10.866874301032752 16.790206756486175 11.0
  endloop
endfacet
facet normal 0.0 0.0 1.0
  outer loop
    vertex 10.866874301032752 16.790206756486175 11.0
    vertex 13.405540304980788 -14.84221981819214 11.0
    vertex 14.84221981819214 13.405540304980788 11.0
  endloop
endfacet
facet normal 0.0 0.0 1.0
  outer loop
    vertex 14.84221981819214 13.405540304980788 11.0
    vertex 13.405540304980788 -14.84221981819214 11.0
    vertex 16.790206756486178 -10.86687430103275 11.0
  endloop
endfacet
facet normal 0.0 0.0 1.0
  outer loop
    vertex 14.84221981819214 13.405540304980788 11.0
    vertex 16.790206756486178 -10.86687430103275 11.0
    vertex 17.806092582669713 9.107308435393778 11.0
  endloop
endfacet
facet normal 0.0 0.0 1.0
  outer loop
    vertex 17.806092582669713 9.107308435393778 11.0
    vertex 16.790206756486178 -10.86687430103275 11.0
    vertex 19.030648364665627 -6.150969258616853 11.0
  endloop
endfacet
facet normal 0.0 0.0 1.0
  outer loop
    vertex 17.806092582669713 9.107308435393778 11.0
    vertex 19.030648364665627 -6.150969258616853 11.0
    vertex 19.556509563597643 4.188428546473481 11.0
  endloop
endfacet
facet normal 0.0 0.0 1.0
  outer loop
    vertex 19.556509563597643 4.188428546473481 11.0
    vertex 19.030648364665627 -6.150969258616853 11.0
    vertex 19.974182736426524 -1.0158858261835375 11.0
  endloop
endfacet
facet normal 0.0 0.0 1.0
  outer loop
    vertex -19.556509563597647 -4.188428546473469 11.0
    vertex -19.030648364665623 6.150969258616862 11.0
    vertex -19.974182736426524 1.0158858261835446 11.0
  endloop
endfacet
facet normal 0.0 0.0 1.0
  outer loop
    vertex -19.030648364665623 6.150969258616862 11.0
    vertex -19.556509563597647 -4.188428546473469 11.0
    vertex -17.806092582669717 -9.107308435393776 11.0
  endloop
endfacet
facet normal 0.0 0.0 1.0
  outer loop
    vertex -19.030648364665623 6.150969258616862 11.0
    vertex -17.806092582669717 -9.107308435393776 11.0
    vertex -16.790206756486175 10.866874301032754 11.0
  endloop
endfacet
facet normal 0.0 0.0 1.0
  outer loop
    vertex -16.790206756486175 10.866874301032754 11.0
    vertex -17.806092582669717 -9.107308435393776 11.0
    vertex -14.842219818192147 -13.405540304980782 11.0
  endloop
endfacet
facet normal 0.0 0.0 1.0
  outer loop
    vertex -16.790206756486175 10.866874301032754 11.0
    vertex -14.842219818192147 -13.405540304980782 11.0
    vertex -13.405540304980784 14.842219818192147 11.0
  endloop
endfacet
facet normal 0.0 0.0 1.0
  outer loop
    vertex -13.405540304980784 14.842219818192147 11.0
    vertex -14.842219818192147 -13.405540304980782 11.0
    vertex -10.866874301032757 -16.79020675648617 11.0
  endloop
endfacet
facet normal 0.0 0.0 1.0
  outer loop
    vertex -13.405540304980784 14.842219818192147 11.0
    vertex -10.866874301032757 -16.79020675648617 11.0
    vertex -9.107308435393776 17.806092582669713 11.0
  endloop
endfacet
facet normal 0.0 0.0 1.0
  outer loop
    vertex -9.107308435393776 17.806092582669713 11.0
    vertex -10.866874301032757 -16.79020675648617 11.0
    vertex -9.397249671189568 0.4779435970944461 11.0
  endloop
endfacet
facet normal 0.0 0.0 1.0
  outer loop
    vertex -9.107308435393776 17.806092582669713 11.0
    vertex -9.397249671189568 0.4779435970944461 11.0
    vertex -8.953345248075612 2.8938452504302847 11.0
  endloop
endfacet
facet normal 0.0 0.0 1.0
  outer loop
    vertex -9.107308435393776 17.806092582669713 11.0
    vertex -8.953345248075612 2.8938452504302847 11.0
    vertex -4.18842854647348 19.556509563597643 11.0
  endloop
endfacet
facet normal 0.0 0.0 1.0
  outer loop
    vertex -4.18842854647348 19.556509563597643 11.0
    vertex -8.953345248075612 2.8938452504302847 11.0
    vertex -7.899285142407911 5.112536132254686 11.0
  endloop
endfacet
facet normal 0.0 0.0 1.0
  outer loop
    vertex -4.18842854647348 19.556509563597643 11.0
    vertex -7.899285142407911 5.112536132254686 11.0
    vertex -6.306901808471035 6.982816125531361 11.0
  endloop
endfacet
facet normal 0.0 0.0 1.0
  outer loop
    vertex -4.18842854647348 19.556509563597643 11.0
    vertex -6.306901808471035 6.982816125531361 11.0
    vertex -4.284713538934888 8.377228739502344 11.0
  endloop
endfacet
facet normal 0.0 0.0 1.0
  outer loop
    vertex -4.18842854647348 19.556509563597643 11.0
    vertex -4.284713538934888 8.377228739502344 11.0
    vertex -1.970529122544241 9.200747058901305 11.0
  endloop
endfacet
facet normal 0.0 0.0 1.0
  outer loop
    vertex -4.18842854647348 19.556509563597643 11.0
    vertex -1.970529122544241 9.200747058901305 11.0
    vertex 1.015885826183543 19.974182736426524 11.0
  endloop
endfacet
facet normal 0.0 0.0 1.0
  outer loop
    vertex 1.015885826183543 19.974182736426524 11.0
    vertex -1.970529122544241 9.200747058901305 11.0
    vertex 0.4779435970944428 9.397249671189568 11.0
  endloop
endfacet
facet normal 0.0 0.0 1.0
  outer loop
    vertex 1.015885826183543 19.974182736426524 11.0
    vertex 0.4779435970944428 9.397249671189568 11.0
    vertex 2.8938452504302634 8.953345248075616 11.0
  endloop
endfacet
facet normal 0.0 0.0 1.0
  outer loop
    vertex 1.015885826183543 19.974182736426524 11.0
    vertex 2.8938452504302634 8.953345248075616 11.0
    vertex 6.150969258616853 19.030648364665627 11.0
  endloop
endfacet
facet normal 0.0 0.0 1.0
  outer loop
    vertex 6.150969258616853 19.030648364665627 11.0
    vertex 2.8938452504302634 8.953345248075616 11.0
    vertex 5.112536132254683 7.899285142407907 11.0
  endloop
endfacet
facet normal 0.0 0.0 1.0
  outer loop
    vertex 6.150969258616853 19.030648364665627 11.0
    vertex 5.112536132254683 7.899285142407907 11.0
    vertex 6.9828161255313725 6.30690180847102 11.0
  endloop
endfacet
facet normal 0.0 0.0 1.0
  outer loop
    vertex 6.150969258616853 19.030648364665627 11.0
    vertex 6.9828161255313725 6.30690180847102 11.0
    vertex 10.866874301032752 16.790206756486175 11.0
  endloop
endfacet
facet normal 0.0 0.0 1.0
  outer loop
    vertex 10.866874301032752 16.790206756486175 11.0
    vertex 6.9828161255313725 6.30690180847102 11.0
    vertex 8.377228739502344 4.284713538934888 11.0
  endloop
endfacet
facet normal 0.0 0.0 1.0
  outer loop
    vertex 10.866874301032752 16.790206756486175 11.0
    vertex 8.377228739502344 4.284713538934888 11.0
    vertex 9.200747058901303 1.9705291225442518 11.0
  endloop
endfacet
facet normal 0.0 0.0 1.0
  outer loop
    vertex 10.866874301032752 16.790206756486175 11.0
    vertex 9.200747058901303 1.9705291225442518 11.0
    vertex 9.39724967118957 -0.4779435970944535 11.0
  endloop
endfacet
facet normal -0.18071743987026967 -0.9835350562774748 0.0
  outer loop
    vertex 2.8938452504302634 8.953345248075616 11.0
    vertex 0.4779435970944428 9.397249671189568 9.0
    vertex 2.8938452504302634 8.953345248075616 9.0
  endloop
endfacet
facet normal -0.18071743987026967 -0.9835350562774748 0.0
  outer loop
    vertex 0.4779435970944428 9.397249671189568 9.0
    vertex 2.8938452504302634 8.953345248075616 11.0
    vertex 0.4779435970944428 9.397249671189568 11.0
  endloop
endfacet
facet normal -0.4291172465221255 -0.9032487966984898 0.0
  outer loop
    vertex 5.112536132254683 7.899285142407907 11.0
    vertex 2.8938452504302634 8.953345248075616 9.0
    vertex 5.112536132254683 7.899285142407907 9.0
  endloop
endfacet
facet normal -0.4291172465221255 -0.9032487966984898 0.0
  outer loop
    vertex 2.8938452504302634 8.953345248075616 9.0
    vertex 5.112536132254683 7.899285142407907 11.0
    vertex 2.8938452504302634 8.953345248075616 11.0
  endloop
endfacet
facet normal -0.6482734219732781 -0.7614076243137156 0.0
  outer loop
    vertex 6.9828161255313725 6.30690180847102 11.0
    vertex 5.112536132254683 7.899285142407907 9.0
    vertex 6.9828161255313725 6.30690180847102 9.0
  endloop
endfacet
facet normal -0.6482734219732781 -0.7614076243137156 0.0
  outer loop
    vertex 5.112536132254683 7.899285142407907 9.0
    vertex 6.9828161255313725 6.30690180847102 11.0
    vertex 5.112536132254683 7.899285142407907 11.0
  endloop
endfacet
facet normal -0.8232508350394353 -0.5676777806175547 0.0
  outer loop
    vertex 6.9828161255313725 6.30690180847102 11.0
    vertex 8.377228739502344 4.284713538934888 9.0
    vertex 8.377228739502344 4.284713538934888 11.0
  endloop
endfacet
facet normal -0.8232508350394353 -0.5676777806175547 0.0
  outer loop
    vertex 8.377228739502344 4.284713538934888 9.0
    vertex 6.9828161255313725 6.30690180847102 11.0
    vertex 6.9828161255313725 6.30690180847102 9.0
  endloop
endfacet
facet normal -0.9421250641839853 -0.335261634304198 0.0
  outer loop
    vertex 8.377228739502344 4.284713538934888 11.0
    vertex 9.200747058901303 1.9705291225442518 9.0
    vertex 9.200747058901303 1.9705291225442518 11.0
  endloop
endfacet
facet normal -0.9421250641839853 -0.335261634304198 0.0
  outer loop
    vertex 9.200747058901303 1.9705291225442518 9.0
    vertex 8.377228739502344 4.284713538934888 11.0
    vertex 8.377228739502344 4.284713538934888 9.0
  endloop
endfacet
facet normal -0.9967950271396804 -0.07999796165905582 0.0
  outer loop
    vertex 9.200747058901303 1.9705291225442518 11.0
    vertex 9.39724967118957 -0.4779435970944535 9.0
    vertex 9.39724967118957 -0.4779435970944535 11.0
  endloop
endfacet
facet normal -0.9967950271396804 -0.07999796165905582 0.0
  outer loop
    vertex 9.39724967118957 -0.4779435970944535 9.0
    vertex 9.200747058901303 1.9705291225442518 11.0
    vertex 9.200747058901303 1.9705291225442518 9.0
  endloop
endfacet
facet normal -0.9835350562774746 0.1807174398702708 0.0
  outer loop
    vertex 9.39724967118957 -0.4779435970944535 11.0
    vertex 8.953345248075614 -2.8938452504302816 9.0
    vertex 8.953345248075614 -2.8938452504302816 11.0
  endloop
endfacet
facet normal -0.9835350562774746 0.1807174398702708 0.0
  outer loop
    vertex 8.953345248075614 -2.8938452504302816 9.0
    vertex 9.39724967118957 -0.4779435970944535 11.0
    vertex 9.39724967118957 -0.4779435970944535 9.0
  endloop
endfacet
facet normal -0.9032487966984893 0.42911724652212624 0.0
  outer loop
    vertex 8.953345248075614 -2.8938452504302816 11.0
    vertex 7.899285142407904 -5.1125361322546965 9.0
    vertex 7.899285142407904 -5.1125361322546965 11.0
  endloop
endfacet
facet normal -0.9032487966984893 0.42911724652212624 0.0
  outer loop
    vertex 7.899285142407904 -5.1125361322546965 9.0
    vertex 8.953345248075614 -2.8938452504302816 11.0
    vertex 8.953345248075614 -2.8938452504302816 9.0
  endloop
endfacet
facet normal -0.7614076243137147 0.6482734219732793 0.0
  outer loop
    vertex 7.899285142407904 -5.1125361322546965 11.0
    vertex 6.30690180847104 -6.982816125531353 9.0
    vertex 6.30690180847104 -6.982816125531353 11.0
  endloop
endfacet
facet normal -0.7614076243137147 0.6482734219732793 0.0
  outer loop
    vertex 6.30690180847104 -6.982816125531353 9.0
    vertex 7.899285142407904 -5.1125361322546965 11.0
    vertex 7.899285142407904 -5.1125361322546965 9.0
  endloop
endfacet
facet normal -0.5676777806175561 0.8232508350394343 0.0
  outer loop
    vertex 4.284713538934891 -8.377228739502343 11.0
    vertex 6.30690180847104 -6.982816125531353 9.0
    vertex 4.284713538934891 -8.377228739502343 9.0
  endloop
endfacet
facet normal -0.5676777806175561 0.8232508350394343 0.0
  outer loop
    vertex 6.30690180847104 -6.982816125531353 9.0
    vertex 4.284713538934891 -8.377228739502343 11.0
    vertex 6.30690180847104 -6.982816125531353 11.0
  endloop
endfacet
facet normal -0.3352616343041982 0.9421250641839852 0.0
  outer loop
    vertex 1.9705291225442254 -9.200747058901312 11.0
    vertex 4.284713538934891 -8.377228739502343 9.0
    vertex 1.9705291225442254 -9.200747058901312 9.0
  endloop
endfacet
facet normal -0.3352616343041982 0.9421250641839852 0.0
  outer loop
    vertex 4.284713538934891 -8.377228739502343 9.0
    vertex 1.9705291225442254 -9.200747058901312 11.0
    vertex 4.284713538934891 -8.377228739502343 11.0
  endloop
endfacet
facet normal -0.07999796165905261 0.9967950271396808 0.0
  outer loop
    vertex -0.477943597094456 -9.397249671189568 11.0
    vertex 1.9705291225442254 -9.200747058901312 9.0
    vertex -0.477943597094456 -9.397249671189568 9.0
  endloop
endfacet
facet normal -0.07999796165905261 0.9967950271396808 0.0
  outer loop
    vertex 1.9705291225442254 -9.200747058901312 9.0
    vertex -0.477943597094456 -9.397249671189568 11.0
    vertex 1.9705291225442254 -9.200747058901312 11.0
  endloop
endfacet
facet normal 0.18071743987027128 0.9835350562774746 -0.0
  outer loop
    vertex -2.893845250430293 -8.953345248075609 11.0
    vertex -0.477943597094456 -9.397249671189568 9.0
    vertex -2.893845250430293 -8.953345248075609 9.0
  endloop
endfacet
facet normal 0.18071743987027128 0.9835350562774746 -0.0
  outer loop
    vertex -0.477943597094456 -9.397249671189568 9.0
    vertex -2.893845250430293 -8.953345248075609 11.0
    vertex -0.477943597094456 -9.397249671189568 11.0
  endloop
endfacet
facet normal 0.4291172465221275 0.9032487966984887 -0.0
  outer loop
    vertex -5.112536132254703 -7.899285142407898 11.0
    vertex -2.893845250430293 -8.953345248075609 9.0
    vertex -5.112536132254703 -7.899285142407898 9.0
  endloop
endfacet
facet normal 0.4291172465221275 0.9032487966984887 -0.0
  outer loop
    vertex -2.893845250430293 -8.953345248075609 9.0
    vertex -5.112536132254703 -7.899285142407898 11.0
    vertex -2.893845250430293 -8.953345248075609 11.0
  endloop
endfacet
facet normal 0.6482734219732793 0.7614076243137144 -0.0
  outer loop
    vertex -6.98281612553137 -6.306901808471025 11.0
    vertex -5.112536132254703 -7.899285142407898 9.0
    vertex -6.98281612553137 -6.306901808471025 9.0
  endloop
endfacet
facet normal 0.6482734219732793 0.7614076243137144 -0.0
  outer loop
    vertex -5.112536132254703 -7.899285142407898 9.0
    vertex -6.98281612553137 -6.306901808471025 11.0
    vertex -5.112536132254703 -7.899285142407898 11.0
  endloop
endfacet
facet normal 0.8232508350394353 0.5676777806175549 -0.0
  outer loop
    vertex -8.377228739502353 -4.284713538934878 9.0
    vertex -6.98281612553137 -6.306901808471025 11.0
    vertex -6.98281612553137 -6.306901808471025 9.0
  endloop
endfacet
facet normal 0.8232508350394353 0.5676777806175549 -0.0
  outer loop
    vertex -6.98281612553137 -6.306901808471025 11.0
    vertex -8.377228739502353 -4.284713538934878 9.0
    vertex -8.377228739502353 -4.284713538934878 11.0
  endloop
endfacet
facet normal 0.9421250641839859 0.33526163430419637 -0.0
  outer loop
    vertex -9.20074705890131 -1.9705291225442336 9.0
    vertex -8.377228739502353 -4.284713538934878 11.0
    vertex -8.377228739502353 -4.284713538934878 9.0
  endloop
endfacet
facet normal 0.9421250641839859 0.33526163430419637 -0.0
  outer loop
    vertex -8.377228739502353 -4.284713538934878 11.0
    vertex -9.20074705890131 -1.9705291225442336 9.0
    vertex -9.20074705890131 -1.9705291225442336 11.0
  endloop
endfacet
facet normal 0.9967950271396807 0.07999796165905323 -0.0
  outer loop
    vertex -9.397249671189568 0.4779435970944461 9.0
    vertex -9.20074705890131 -1.9705291225442336 11.0
    vertex -9.20074705890131 -1.9705291225442336 9.0
  endloop
endfacet
facet normal 0.9967950271396807 0.07999796165905323 -0.0
  outer loop
    vertex -9.20074705890131 -1.9705291225442336 11.0
    vertex -9.397249671189568 0.4779435970944461 9.0
    vertex -9.397249671189568 0.4779435970944461 11.0
  endloop
endfacet
facet normal 0.9835350562774748 -0.18071743987027006 0.0
  outer loop
    vertex -8.953345248075612 2.8938452504302847 9.0
    vertex -9.397249671189568 0.4779435970944461 11.0
    vertex -9.397249671189568 0.4779435970944461 9.0
  endloop
endfacet
facet normal 0.9835350562774748 -0.18071743987027006 0.0
  outer loop
    vertex -9.397249671189568 0.4779435970944461 11.0
    vertex -8.953345248075612 2.8938452504302847 9.0
    vertex -8.953345248075612 2.8938452504302847 11.0
  endloop
endfacet
facet normal 0.9032487966984896 -0.4291172465221256 0.0
  outer loop
    vertex -7.899285142407911 5.112536132254686 9.0
    vertex -8.953345248075612 2.8938452504302847 11.0
    vertex -8.953345248075612 2.8938452504302847 9.0
  endloop
endfacet
facet normal 0.9032487966984896 -0.4291172465221256 0.0
  outer loop
    vertex -8.953345248075612 2.8938452504302847 11.0
    vertex -7.899285142407911 5.112536132254686 9.0
    vertex -7.899285142407911 5.112536132254686 11.0
  endloop
endfacet
facet normal 0.7614076243137153 -0.6482734219732783 0.0
  outer loop
    vertex -6.306901808471035 6.982816125531361 9.0
    vertex -7.899285142407911 5.112536132254686 11.0
    vertex -7.899285142407911 5.112536132254686 9.0
  endloop
endfacet
facet normal 0.7614076243137153 -0.6482734219732783 0.0
  outer loop
    vertex -7.899285142407911 5.112536132254686 11.0
    vertex -6.306901808471035 6.982816125531361 9.0
    vertex -6.306901808471035 6.982816125531361 11.0
  endloop
endfacet
facet normal 0.5676777806175549 -0.8232508350394353 0.0
  outer loop
    vertex -4.284713538934888 8.377228739502344 11.0
    vertex -6.306901808471035 6.982816125531361 9.0
    vertex -4.284713538934888 8.377228739502344 9.0
  endloop
endfacet
facet normal 0.5676777806175549 -0.8232508350394353 0.0
  outer loop
    vertex -6.306901808471035 6.982816125531361 9.0
    vertex -4.284713538934888 8.377228739502344 11.0
    vertex -6.306901808471035 6.982816125531361 11.0
  endloop
endfacet
facet normal 0.33526163430419703 -0.9421250641839856 0.0
  outer loop
    vertex -1.970529122544241 9.200747058901305 11.0
    vertex -4.284713538934888 8.377228739502344 9.0
    vertex -1.970529122544241 9.200747058901305 9.0
  endloop
endfacet
facet normal 0.33526163430419703 -0.9421250641839856 0.0
  outer loop
    vertex -4.284713538934888 8.377228739502344 9.0
    vertex -1.970529122544241 9.200747058901305 11.0
    vertex -4.284713538934888 8.377228739502344 11.0
  endloop
endfacet
facet normal 0.07999796165905539 -0.9967950271396806 0.0
  outer loop
    vertex 0.4779435970944428 9.397249671189568 11.0
    vertex -1.970529122544241 9.200747058901305 9.0
    vertex 0.4779435970944428 9.397249671189568 9.0
  endloop
endfacet
facet normal 0.07999796165905539 -0.9967950271396806 0.0
  outer loop
    vertex -1.970529122544241 9.200747058901305 9.0
    vertex 0.4779435970944428 9.397249671189568 11.0
    vertex -1.970529122544241 9.200747058901305 11.0
  endloop
endfacet
facet normal -0.9914448613738106 -0.13052619222005127 -0.0
  outer loop
    vertex 3.8637033051562732 1.035276180410081 26.000000000000007
    vertex 3.9999999999999996 -7.347880794884117e-16 3.9999999999999996
    vertex 3.9999999999999996 -7.347880794884117e-16 26.000000000000007
  endloop
endfacet
facet normal -0.9914448613738106 -0.13052619222005127 -0.0
  outer loop
    vertex 3.9999999999999996 -7.347880794884117e-16 3.9999999999999996
    vertex 3.8637033051562732 1.035276180410081 26.000000000000007
    vertex 3.8637033051562732 1.035276180410081 3.9999999999999996
  endloop
endfacet
facet normal -0.9914448613738104 0.13052619222005216 -0.0
  outer loop
    vertex 3.9999999999999996 -7.347880794884117e-16 26.000000000000007
    vertex 3.863703305156272 -1.0352761804100858 3.9999999999999996
    vertex 3.863703305156272 -1.0352761804100858 26.000000000000007
  endloop
endfacet
facet normal -0.9914448613738104 0.13052619222005216 -0.0
  outer loop
    vertex 3.863703305156272 -1.0352761804100858 3.9999999999999996
    vertex 3.9999999999999996 -7.347880794884117e-16 26.000000000000007
    vertex 3.9999999999999996 -7.347880794884117e-16 3.9999999999999996
  endloop
endfacet
facet normal -0.9238795325112865 0.3826834323650905 -0.0
  outer loop
    vertex 3.863703305156272 -1.0352761804100858 26.000000000000007
    vertex 3.464101615137753 -2.0000000000000013 3.9999999999999996
    vertex 3.464101615137753 -2.0000000000000013 26.000000000000007
  endloop
endfacet
facet normal -0.9238795325112865 0.3826834323650905 -0.0
  outer loop
    vertex 3.464101615137753 -2.0000000000000013 3.9999999999999996
    vertex 3.863703305156272 -1.0352761804100858 26.000000000000007
    vertex 3.863703305156272 -1.0352761804100858 3.9999999999999996
  endloop
endfacet
facet normal -0.7933533402912349 0.6087614290087209 -0.0
  outer loop
    vertex 3.464101615137753 -2.0000000000000013 26.000000000000007
    vertex 2.8284271247461885 -2.828427124746191 3.9999999999999996
    vertex 2.8284271247461885 -2.828427124746191 26.000000000000007
  endloop
endfacet
facet normal -0.7933533402912349 0.6087614290087209 -0.0
  outer loop
    vertex 2.8284271247461885 -2.828427124746191 3.9999999999999996
    vertex 3.464101615137753 -2.0000000000000013 26.000000000000007
    vertex 3.464101615137753 -2.0000000000000013 3.9999999999999996
  endloop
endfacet
facet normal -0.6087614290087203 0.7933533402912355 -0.0
  outer loop
    vertex 1.999999999999999 -3.4641016151377544 26.000000000000007
    vertex 2.8284271247461885 -2.828427124746191 3.9999999999999996
    vertex 1.999999999999999 -3.4641016151377544 3.9999999999999996
  endloop
endfacet
facet normal -0.6087614290087203 0.7933533402912355 -0.0
  outer loop
    vertex 2.8284271247461885 -2.828427124746191 3.9999999999999996
    vertex 1.999999999999999 -3.4641016151377544 26.000000000000007
    vertex 2.8284271247461885 -2.828427124746191 26.000000000000007
  endloop
endfacet
facet normal -0.38268343236508934 0.9238795325112871 -0.0
  outer loop
    vertex 1.0352761804100814 -3.863703305156273 26.000000000000007
    vertex 1.999999999999999 -3.4641016151377544 3.9999999999999996
    vertex 1.0352761804100814 -3.863703305156273 3.9999999999999996
  endloop
endfacet
facet normal -0.38268343236508934 0.9238795325112871 -0.0
  outer loop
    vertex 1.999999999999999 -3.4641016151377544 3.9999999999999996
    vertex 1.0352761804100814 -3.863703305156273 26.000000000000007
    vertex 1.999999999999999 -3.4641016151377544 26.000000000000007
  endloop
endfacet
facet normal -0.13052619222005124 0.9914448613738106 -0.0
  outer loop
    vertex -4.898587196589412e-16 -3.999999999999999 26.000000000000007
    vertex 1.0352761804100814 -3.863703305156273 3.9999999999999996
    vertex -4.898587196589412e-16 -3.999999999999999 3.9999999999999996
  endloop
endfacet
facet normal -0.13052619222005124 0.9914448613738106 -0.0
  outer loop
    vertex 1.0352761804100814 -3.863703305156273 3.9999999999999996
    vertex -4.898587196589412e-16 -3.999999999999999 26.000000000000007
    vertex 1.0352761804100814 -3.863703305156273 26.000000000000007
  endloop
endfacet
facet normal 0.13052619222005168 0.9914448613738104 0.0
  outer loop
    vertex -1.035276180410084 -3.863703305156272 26.000000000000007
    vertex -4.898587196589412e-16 -3.999999999999999 3.9999999999999996
    vertex -1.035276180410084 -3.863703305156272 3.9999999999999996
  endloop
endfacet
facet normal 0.13052619222005168 0.9914448613738104 0.0
  outer loop
    vertex -4.898587196589412e-16 -3.999999999999999 3.9999999999999996
    vertex -1.035276180410084 -3.863703305156272 26.000000000000007
    vertex -4.898587196589412e-16 -3.999999999999999 26.000000000000007
  endloop
endfacet
facet normal 0.3826834323650899 0.9238795325112867 0.0
  outer loop
    vertex -2.0000000000000013 -3.464101615137753 26.000000000000007
    vertex -1.035276180410084 -3.863703305156272 3.9999999999999996
    vertex -2.0000000000000013 -3.464101615137753 3.9999999999999996
  endloop
endfacet
facet normal 0.3826834323650899 0.9238795325112867 0.0
  outer loop
    vertex -1.035276180410084 -3.863703305156272 3.9999999999999996
    vertex -2.0000000000000013 -3.464101615137753 26.000000000000007
    vertex -1.035276180410084 -3.863703305156272 26.000000000000007
  endloop
endfacet
facet normal 0.6087614290087208 0.793353340291235 0.0
  outer loop
    vertex -2.8284271247461903 -2.8284271247461894 26.000000000000007
    vertex -2.0000000000000013 -3.464101615137753 3.9999999999999996
    vertex -2.8284271247461903 -2.8284271247461894 3.9999999999999996
  endloop
endfacet
facet normal 0.6087614290087208 0.793353340291235 0.0
  outer loop
    vertex -2.0000000000000013 -3.464101615137753 3.9999999999999996
    vertex -2.8284271247461903 -2.8284271247461894 26.000000000000007
    vertex -2.0000000000000013 -3.464101615137753 26.000000000000007
  endloop
endfacet
facet normal 0.7933533402912355 0.6087614290087202 0.0
  outer loop
    vertex -3.4641016151377544 -1.9999999999999984 3.9999999999999996
    vertex -2.8284271247461903 -2.8284271247461894 26.000000000000007
    vertex -2.8284271247461903 -2.8284271247461894 3.9999999999999996
  endloop
endfacet
facet normal 0.7933533402912355 0.6087614290087202 0.0
  outer loop
    vertex -2.8284271247461903 -2.8284271247461894 26.000000000000007
    vertex -3.4641016151377544 -1.9999999999999984 3.9999999999999996
    vertex -3.4641016151377544 -1.9999999999999984 26.000000000000007
  endloop
endfacet
facet normal 0.9238795325112867 0.3826834323650896 0.0
  outer loop
    vertex -3.863703305156273 -1.0352761804100823 3.9999999999999996
    vertex -3.4641016151377544 -1.9999999999999984 26.000000000000007
    vertex -3.4641016151377544 -1.9999999999999984 3.9999999999999996
  endloop
endfacet
facet normal 0.9238795325112867 0.3826834323650896 0.0
  outer loop
    vertex -3.4641016151377544 -1.9999999999999984 26.000000000000007
    vertex -3.863703305156273 -1.0352761804100823 3.9999999999999996
    vertex -3.863703305156273 -1.0352761804100823 26.000000000000007
  endloop
endfacet
facet normal 0.9914448613738104 0.1305261922200518 0.0
  outer loop
    vertex -3.9999999999999996 2.449293598294706e-16 3.9999999999999996
    vertex -3.863703305156273 -1.0352761804100823 26.000000000000007
    vertex -3.863703305156273 -1.0352761804100823 3.9999999999999996
  endloop
endfacet
facet normal 0.9914448613738104 0.1305261922200518 0.0
  outer loop
    vertex -3.863703305156273 -1.0352761804100823 26.000000000000007
    vertex -3.9999999999999996 2.449293598294706e-16 3.9999999999999996
    vertex -3.9999999999999996 2.449293598294706e-16 26.000000000000007
  endloop
endfacet
facet normal 0.9914448613738104 -0.13052619222005168 -0.0
  outer loop
    vertex -3.863703305156273 1.0352761804100836 3.9999999999999996
    vertex -3.9999999999999996 2.449293598294706e-16 26.000000000000007
    vertex -3.9999999999999996 2.449293598294706e-16 3.9999999999999996
  endloop
endfacet
facet normal 0.9914448613738104 -0.13052619222005168 -0.0
  outer loop
    vertex -3.9999999999999996 2.449293598294706e-16 26.000000000000007
    vertex -3.863703305156273 1.0352761804100836 3.9999999999999996
    vertex -3.863703305156273 1.0352761804100836 26.000000000000007
  endloop
endfacet
facet normal 0.9238795325112867 -0.38268343236509034 -0.0
  outer loop
    vertex -3.464101615137754 1.9999999999999998 3.9999999999999996
    vertex -3.863703305156273 1.0352761804100836 26.000000000000007
    vertex -3.863703305156273 1.0352761804100836 3.9999999999999996
  endloop
endfacet
facet normal 0.9238795325112867 -0.38268343236509034 -0.0
  outer loop
    vertex -3.863703305156273 1.0352761804100836 26.000000000000007
    vertex -3.464101615137754 1.9999999999999998 3.9999999999999996
    vertex -3.464101615137754 1.9999999999999998 26.000000000000007
  endloop
endfacet
facet normal 0.7933533402912353 -0.6087614290087205 -0.0
  outer loop
    vertex -2.82842712474619 2.82842712474619 3.9999999999999996
    vertex -3.464101615137754 1.9999999999999998 26.000000000000007
    vertex -3.464101615137754 1.9999999999999998 3.9999999999999996
  endloop
endfacet
facet normal 0.7933533402912353 -0.6087614290087205 -0.0
  outer loop
    vertex -3.464101615137754 1.9999999999999998 26.000000000000007
    vertex -2.82842712474619 2.82842712474619 3.9999999999999996
    vertex -2.82842712474619 2.82842712474619 26.000000000000007
  endloop
endfacet
facet normal 0.6087614290087203 -0.7933533402912354 -0.0
  outer loop
    vertex -1.9999999999999996 3.464101615137754 26.000000000000007
    vertex -2.82842712474619 2.82842712474619 3.9999999999999996
    vertex -1.9999999999999996 3.464101615137754 3.9999999999999996
  endloop
endfacet
facet normal 0.6087614290087203 -0.7933533402912354 -0.0
  outer loop
    vertex -2.82842712474619 2.82842712474619 3.9999999999999996
    vertex -1.9999999999999996 3.464101615137754 26.000000000000007
    vertex -2.82842712474619 2.82842712474619 26.000000000000007
  endloop
endfacet
facet normal 0.38268343236508956 -0.9238795325112868 -0.0
  outer loop
    vertex -1.035276180410083 3.863703305156272 26.000000000000007
    vertex -1.9999999999999996 3.464101615137754 3.9999999999999996
    vertex -1.035276180410083 3.863703305156272 3.9999999999999996
  endloop
endfacet
facet normal 0.38268343236508956 -0.9238795325112868 -0.0
  outer loop
    vertex -1.9999999999999996 3.464101615137754 3.9999999999999996
    vertex -1.035276180410083 3.863703305156272 26.000000000000007
    vertex -1.9999999999999996 3.464101615137754 26.000000000000007
  endloop
endfacet
facet normal 0.13052619222005174 -0.9914448613738104 -0.0
  outer loop
    vertex 0.0 3.999999999999999 26.000000000000007
    vertex -1.035276180410083 3.863703305156272 3.9999999999999996
    vertex 0.0 3.999999999999999 3.9999999999999996
  endloop
endfacet
facet normal 0.13052619222005174 -0.9914448613738104 -0.0
  outer loop
    vertex -1.035276180410083 3.863703305156272 3.9999999999999996
    vertex 0.0 3.999999999999999 26.000000000000007
    vertex -1.035276180410083 3.863703305156272 26.000000000000007
  endloop
endfacet
facet normal -0.13052619222005202 -0.9914448613738104 -0.0
  outer loop
    vertex 1.035276180410086 3.8637033051562715 26.000000000000007
    vertex 0.0 3.999999999999999 3.9999999999999996
    vertex 1.035276180410086 3.8637033051562715 3.9999999999999996
  endloop
endfacet
facet normal -0.13052619222005202 -0.9914448613738104 -0.0
  outer loop
    vertex 0.0 3.999999999999999 3.9999999999999996
    vertex 1.035276180410086 3.8637033051562715 26.000000000000007
    vertex 0.0 3.999999999999999 26.000000000000007
  endloop
endfacet
facet normal -0.3826834323650905 -0.9238795325112865 -0.0
  outer loop
    vertex 2.0000000000000018 3.4641016151377526 26.000000000000007
    vertex 1.035276180410086 3.8637033051562715 3.9999999999999996
    vertex 2.0000000000000018 3.4641016151377526 3.9999999999999996
  endloop
endfacet
facet normal -0.3826834323650905 -0.9238795325112865 -0.0
  outer loop
    vertex 1.035276180410086 3.8637033051562715 3.9999999999999996
    vertex 2.0000000000000018 3.4641016151377526 26.000000000000007
    vertex 1.035276180410086 3.8637033051562715 26.000000000000007
  endloop
endfacet
facet normal -0.6087614290087208 -0.793353340291235 -0.0
  outer loop
    vertex 2.8284271247461903 2.8284271247461885 26.000000000000007
    vertex 2.0000000000000018 3.4641016151377526 3.9999999999999996
    vertex 2.8284271247461903 2.8284271247461885 3.9999999999999996
  endloop
endfacet
facet normal -0.6087614290087208 -0.793353340291235 -0.0
  outer loop
    vertex 2.0000000000000018 3.4641016151377526 3.9999999999999996
    vertex 2.8284271247461903 2.8284271247461885 26.000000000000007
    vertex 2.0000000000000018 3.4641016151377526 26.000000000000007
  endloop
endfacet
facet normal -0.7933533402912355 -0.6087614290087204 -0.0
  outer loop
    vertex 2.8284271247461903 2.8284271247461885 26.000000000000007
    vertex 3.464101615137756 1.9999999999999967 3.9999999999999996
    vertex 3.464101615137756 1.9999999999999967 26.000000000000007
  endloop
endfacet
facet normal -0.7933533402912355 -0.6087614290087204 -0.0
  outer loop
    vertex 3.464101615137756 1.9999999999999967 3.9999999999999996
    vertex 2.8284271247461903 2.8284271247461885 26.000000000000007
    vertex 2.8284271247461903 2.8284271247461885 3.9999999999999996
  endloop
endfacet
facet normal -0.923879532511287 -0.3826834323650892 -0.0
  outer loop
    vertex 3.464101615137756 1.9999999999999967 26.000000000000007
    vertex 3.8637033051562732 1.035276180410081 3.9999999999999996
    vertex 3.8637033051562732 1.035276180410081 26.000000000000007
  endloop
endfacet
facet normal -0.923879532511287 -0.3826834323650892 -0.0
  outer loop
    vertex 3.8637033051562732 1.035276180410081 3.9999999999999996
    vertex 3.464101615137756 1.9999999999999967 26.000000000000007
    vertex 3.464101615137756 1.9999999999999967 3.9999999999999996
  endloop
endfacet
endsolid landing
