solid nut_enbedding2
facet normal -0.0 1.0 0.0
  outer loop
    vertex 0.0 10.0 1.9999999999999998
    vertex 10.0 10.0 0.9999999999999999
    vertex 0.0 10.0 0.9999999999999999
  endloop
endfacet
facet normal -0.0 1.0 0.0
  outer loop
    vertex 10.0 10.0 0.9999999999999999
    vertex 0.0 10.0 1.9999999999999998
    vertex 10.0 10.0 1.9999999999999998
  endloop
endfacet
facet normal 1.0 0.0 0.0
  outer loop
    vertex 10.0 10.0 0.9999999999999999
    vertex 10.0 0.0 1.9999999999999998
    vertex 10.0 0.0 0.9999999999999999
  endloop
endfacet
facet normal 1.0 0.0 0.0
  outer loop
    vertex 10.0 0.0 1.9999999999999998
    vertex 10.0 10.0 0.9999999999999999
    vertex 10.0 10.0 1.9999999999999998
  endloop
endfacet
facet normal 0.0 -1.0 0.0
  outer loop
    vertex 10.0 0.0 1.9999999999999998
    vertex 0.0 0.0 0.9999999999999999
    vertex 10.0 0.0 0.9999999999999999
  endloop
endfacet
facet normal 0.0 -1.0 0.0
  outer loop
    vertex 0.0 0.0 0.9999999999999999
    vertex 10.0 0.0 1.9999999999999998
    vertex 0.0 0.0 2.652430921239469
  endloop
endfacet
facet normal 0.0 -1.0 0.0
  outer loop
    vertex 0.0 0.0 2.652430921239469
    vertex 10.0 0.0 1.9999999999999998
    vertex 10.0 0.0 5.3
  endloop
endfacet
facet normal 0.0 -1.0 0.0
  outer loop
    vertex 0.0 0.0 2.652430921239469
    vertex 10.0 0.0 5.3
    vertex 0.0 0.0 5.3
  endloop
endfacet
facet normal 0.0 0.0 1.0
  outer loop
    vertex 0.0 0.0 5.3
    vertex 3.6143593539448977 4.1999999999999975 5.3
    vertex 0.0 10.0 5.3
  endloop
endfacet
facet normal 0.0 0.0 1.0
  outer loop
    vertex 3.6143593539448977 4.1999999999999975 5.3
    vertex 0.0 0.0 5.3
    vertex 3.868629150101524 3.868629150101522 5.3
  endloop
endfacet
facet normal 0.0 0.0 1.0
  outer loop
    vertex 3.868629150101524 3.868629150101522 5.3
    vertex 0.0 0.0 5.3
    vertex 4.200000000000001 3.6143593539448964 5.3
  endloop
endfacet
facet normal 0.0 0.0 1.0
  outer loop
    vertex 4.200000000000001 3.6143593539448964 5.3
    vertex 0.0 0.0 5.3
    vertex 10.0 0.0 5.3
  endloop
endfacet
facet normal 0.0 0.0 1.0
  outer loop
    vertex 0.0 10.0 5.3
    vertex 3.6143593539448977 4.1999999999999975 5.3
    vertex 3.4545186779374903 4.585889527835964 5.3
  endloop
endfacet
facet normal 0.0 0.0 1.0
  outer loop
    vertex 0.0 10.0 5.3
    vertex 3.4545186779374903 4.585889527835964 5.3
    vertex 3.3999999999999995 4.999999999999999 5.3
  endloop
endfacet
facet normal 0.0 0.0 1.0
  outer loop
    vertex 4.200000000000001 3.6143593539448964 5.3
    vertex 10.0 0.0 5.3
    vertex 4.585889527835968 3.454518677937489 5.3
  endloop
endfacet
facet normal 0.0 0.0 1.0
  outer loop
    vertex 4.585889527835968 3.454518677937489 5.3
    vertex 10.0 0.0 5.3
    vertex 5.0 3.3999999999999986 5.3
  endloop
endfacet
facet normal 0.0 0.0 1.0
  outer loop
    vertex 5.0 3.3999999999999986 5.3
    vertex 10.0 0.0 5.3
    vertex 5.414110472164035 3.45451867793749 5.3
  endloop
endfacet
facet normal 0.0 0.0 1.0
  outer loop
    vertex 5.414110472164035 3.45451867793749 5.3
    vertex 10.0 0.0 5.3
    vertex 5.800000000000001 3.6143593539448977 5.3
  endloop
endfacet
facet normal 0.0 0.0 1.0
  outer loop
    vertex 5.800000000000001 3.6143593539448977 5.3
    vertex 10.0 0.0 5.3
    vertex 6.1313708498984765 3.868629150101524 5.3
  endloop
endfacet
facet normal 0.0 0.0 1.0
  outer loop
    vertex 6.1313708498984765 3.868629150101524 5.3
    vertex 10.0 0.0 5.3
    vertex 6.385640646055102 4.199999999999999 5.3
  endloop
endfacet
facet normal 0.0 0.0 1.0
  outer loop
    vertex 6.385640646055102 4.199999999999999 5.3
    vertex 10.0 0.0 5.3
    vertex 6.54548132206251 4.585889527835967 5.3
  endloop
endfacet
facet normal 0.0 0.0 1.0
  outer loop
    vertex 6.54548132206251 4.585889527835967 5.3
    vertex 10.0 0.0 5.3
    vertex 6.6000000000000005 4.999999999999999 5.3
  endloop
endfacet
facet normal 0.0 0.0 1.0
  outer loop
    vertex 0.0 10.0 5.3
    vertex 4.199999999999999 6.3856406460551005 5.3
    vertex 10.0 10.0 5.3
  endloop
endfacet
facet normal 0.0 0.0 1.0
  outer loop
    vertex 4.199999999999999 6.3856406460551005 5.3
    vertex 0.0 10.0 5.3
    vertex 3.868629150101524 6.131370849898476 5.3
  endloop
endfacet
facet normal 0.0 0.0 1.0
  outer loop
    vertex 3.868629150101524 6.131370849898476 5.3
    vertex 0.0 10.0 5.3
    vertex 3.6143593539448977 5.799999999999999 5.3
  endloop
endfacet
facet normal 0.0 0.0 1.0
  outer loop
    vertex 3.6143593539448977 5.799999999999999 5.3
    vertex 0.0 10.0 5.3
    vertex 3.4545186779374903 5.414110472164032 5.3
  endloop
endfacet
facet normal 0.0 0.0 1.0
  outer loop
    vertex 3.4545186779374903 5.414110472164032 5.3
    vertex 0.0 10.0 5.3
    vertex 3.3999999999999995 4.999999999999999 5.3
  endloop
endfacet
facet normal 0.0 0.0 1.0
  outer loop
    vertex 10.0 10.0 5.3
    vertex 4.199999999999999 6.3856406460551005 5.3
    vertex 4.585889527835966 6.54548132206251 5.3
  endloop
endfacet
facet normal 0.0 0.0 1.0
  outer loop
    vertex 10.0 10.0 5.3
    vertex 4.585889527835966 6.54548132206251 5.3
    vertex 5.0 6.599999999999999 5.3
  endloop
endfacet
facet normal 0.0 0.0 1.0
  outer loop
    vertex 10.0 10.0 5.3
    vertex 5.0 6.599999999999999 5.3
    vertex 5.414110472164033 6.54548132206251 5.3
  endloop
endfacet
facet normal 0.0 0.0 1.0
  outer loop
    vertex 10.0 10.0 5.3
    vertex 5.414110472164033 6.54548132206251 5.3
    vertex 5.8 6.385640646055102 5.3
  endloop
endfacet
facet normal 0.0 0.0 1.0
  outer loop
    vertex 10.0 10.0 5.3
    vertex 5.8 6.385640646055102 5.3
    vertex 6.1313708498984765 6.1313708498984765 5.3
  endloop
endfacet
facet normal 0.0 0.0 1.0
  outer loop
    vertex 10.0 10.0 5.3
    vertex 6.1313708498984765 6.1313708498984765 5.3
    vertex 6.385640646055102 5.8 5.3
  endloop
endfacet
facet normal 0.0 0.0 1.0
  outer loop
    vertex 10.0 10.0 5.3
    vertex 6.385640646055102 5.8 5.3
    vertex 6.54548132206251 5.414110472164033 5.3
  endloop
endfacet
facet normal 0.0 0.0 1.0
  outer loop
    vertex 10.0 10.0 5.3
    vertex 6.54548132206251 5.414110472164033 5.3
    vertex 6.6000000000000005 4.999999999999999 5.3
  endloop
endfacet
facet normal 0.0 0.0 1.0
  outer loop
    vertex 10.0 10.0 5.3
    vertex 6.6000000000000005 4.999999999999999 5.3
    vertex 10.0 0.0 5.3
  endloop
endfacet
facet normal 0.793353340291235 0.6087614290087211 1.0637227010966523e-15
  outer loop
    vertex 3.8686291501015244 3.8686291501015244 4.299999999999999
    vertex 3.6143593539448977 4.1999999999999975 5.3
    vertex 3.868629150101524 3.868629150101522 5.3
  endloop
endfacet
facet normal 0.793353340291235 0.6087614290087211 1.0637227010966523e-15
  outer loop
    vertex 3.6143593539448977 4.1999999999999975 5.3
    vertex 3.8686291501015244 3.8686291501015244 4.299999999999999
    vertex 3.614359353944899 4.2 4.299999999999999
  endloop
endfacet
facet normal 0.6087614290087204 0.7933533402912355 9.423298636894513e-16
  outer loop
    vertex 3.868629150101524 3.868629150101522 5.3
    vertex 4.200000000000001 3.6143593539448986 4.299999999999999
    vertex 3.8686291501015244 3.8686291501015244 4.299999999999999
  endloop
endfacet
facet normal 0.6087614290087204 0.7933533402912355 9.423298636894513e-16
  outer loop
    vertex 4.200000000000001 3.6143593539448986 4.299999999999999
    vertex 3.868629150101524 3.868629150101522 5.3
    vertex 4.200000000000001 3.6143593539448964 5.3
  endloop
endfacet
facet normal 0.3826834323650904 0.9238795325112867 8.118375353901874e-16
  outer loop
    vertex 4.200000000000001 3.6143593539448964 5.3
    vertex 4.585889527835968 3.4545186779374903 4.299999999999999
    vertex 4.200000000000001 3.6143593539448986 4.299999999999999
  endloop
endfacet
facet normal 0.3826834323650904 0.9238795325112867 8.118375353901874e-16
  outer loop
    vertex 4.585889527835968 3.4545186779374903 4.299999999999999
    vertex 4.200000000000001 3.6143593539448964 5.3
    vertex 4.585889527835968 3.454518677937489 5.3
  endloop
endfacet
facet normal 0.13052619222005094 0.9914448613738105 7.000589205215595e-16
  outer loop
    vertex 4.585889527835968 3.454518677937489 5.3
    vertex 5.0 3.4 4.299999999999999
    vertex 4.585889527835968 3.4545186779374903 4.299999999999999
  endloop
endfacet
facet normal 0.13052619222005094 0.9914448613738105 7.000589205215595e-16
  outer loop
    vertex 5.0 3.4 4.299999999999999
    vertex 4.585889527835968 3.454518677937489 5.3
    vertex 5.0 3.3999999999999986 5.3
  endloop
endfacet
facet normal -0.13052619222005138 0.9914448613738105 5.71193218686195e-16
  outer loop
    vertex 5.0 3.3999999999999986 5.3
    vertex 5.414110472164033 3.4545186779374903 4.299999999999999
    vertex 5.0 3.4 4.299999999999999
  endloop
endfacet
facet normal -0.13052619222005138 0.9914448613738105 5.71193218686195e-16
  outer loop
    vertex 5.414110472164033 3.4545186779374903 4.299999999999999
    vertex 5.0 3.3999999999999986 5.3
    vertex 5.414110472164035 3.45451867793749 5.3
  endloop
endfacet
facet normal -0.3826834323650907 0.9238795325112865 3.6970537959433705e-16
  outer loop
    vertex 5.414110472164035 3.45451867793749 5.3
    vertex 5.8 3.6143593539448977 4.299999999999999
    vertex 5.414110472164033 3.4545186779374903 4.299999999999999
  endloop
endfacet
facet normal -0.3826834323650907 0.9238795325112865 3.6970537959433705e-16
  outer loop
    vertex 5.8 3.6143593539448977 4.299999999999999
    vertex 5.414110472164035 3.45451867793749 5.3
    vertex 5.800000000000001 3.6143593539448977 5.3
  endloop
endfacet
facet normal -0.6087614290087209 0.7933533402912352 2.1290940123087363e-16
  outer loop
    vertex 5.800000000000001 3.6143593539448977 5.3
    vertex 6.1313708498984765 3.868629150101524 4.299999999999999
    vertex 5.8 3.6143593539448977 4.299999999999999
  endloop
endfacet
facet normal -0.6087614290087209 0.7933533402912352 2.1290940123087363e-16
  outer loop
    vertex 6.1313708498984765 3.868629150101524 4.299999999999999
    vertex 5.800000000000001 3.6143593539448977 5.3
    vertex 6.1313708498984765 3.868629150101524 5.3
  endloop
endfacet
facet normal -0.7933533402912354 0.6087614290087203 3.516438681311242e-16
  outer loop
    vertex 6.385640646055102 4.199999999999999 5.3
    vertex 6.1313708498984765 3.868629150101524 4.299999999999999
    vertex 6.1313708498984765 3.868629150101524 5.3
  endloop
endfacet
facet normal -0.7933533402912354 0.6087614290087203 3.516438681311242e-16
  outer loop
    vertex 6.1313708498984765 3.868629150101524 4.299999999999999
    vertex 6.385640646055102 4.199999999999999 5.3
    vertex 6.385640646055102 4.200000000000001 4.299999999999999
  endloop
endfacet
facet normal -0.9238795325112871 0.38268343236508934 2.0814567105897583e-16
  outer loop
    vertex 6.54548132206251 4.585889527835967 5.3
    vertex 6.385640646055102 4.200000000000001 4.299999999999999
    vertex 6.385640646055102 4.199999999999999 5.3
  endloop
endfacet
facet normal -0.9238795325112871 0.38268343236508934 2.0814567105897583e-16
  outer loop
    vertex 6.385640646055102 4.200000000000001 4.299999999999999
    vertex 6.54548132206251 4.585889527835967 5.3
    vertex 6.54548132206251 4.585889527835968 4.299999999999999
  endloop
endfacet
facet normal -0.9914448613738103 0.1305261922200526 4.679174535197406e-17
  outer loop
    vertex 6.6000000000000005 4.999999999999999 5.3
    vertex 6.54548132206251 4.585889527835968 4.299999999999999
    vertex 6.54548132206251 4.585889527835967 5.3
  endloop
endfacet
facet normal -0.9914448613738103 0.1305261922200526 4.679174535197406e-17
  outer loop
    vertex 6.54548132206251 4.585889527835968 4.299999999999999
    vertex 6.6000000000000005 4.999999999999999 5.3
    vertex 6.6000000000000005 5.0 4.299999999999999
  endloop
endfacet
facet normal -0.9914448613738105 -0.13052619222005216 -4.565048327021942e-17
  outer loop
    vertex 6.54548132206251 5.414110472164033 5.3
    vertex 6.6000000000000005 5.0 4.299999999999999
    vertex 6.6000000000000005 4.999999999999999 5.3
  endloop
endfacet
facet normal -0.9914448613738105 -0.13052619222005216 -4.565048327021942e-17
  outer loop
    vertex 6.6000000000000005 5.0 4.299999999999999
    vertex 6.54548132206251 5.414110472164033 5.3
    vertex 6.54548132206251 5.414110472164034 4.299999999999999
  endloop
endfacet
facet normal -0.9238795325112868 -0.3826834323650896 -1.298014521033967e-16
  outer loop
    vertex 6.385640646055102 5.8 5.3
    vertex 6.54548132206251 5.414110472164034 4.299999999999999
    vertex 6.54548132206251 5.414110472164033 5.3
  endloop
endfacet
facet normal -0.9238795325112868 -0.3826834323650896 -1.298014521033967e-16
  outer loop
    vertex 6.54548132206251 5.414110472164034 4.299999999999999
    vertex 6.385640646055102 5.8 5.3
    vertex 6.385640646055102 5.800000000000001 4.299999999999999
  endloop
endfacet
facet normal -0.7933533402912352 -0.6087614290087207 -2.486575291881945e-16
  outer loop
    vertex 6.1313708498984765 6.1313708498984765 5.3
    vertex 6.385640646055102 5.800000000000001 4.299999999999999
    vertex 6.385640646055102 5.8 5.3
  endloop
endfacet
facet normal -0.7933533402912352 -0.6087614290087207 -2.486575291881945e-16
  outer loop
    vertex 6.385640646055102 5.800000000000001 4.299999999999999
    vertex 6.1313708498984765 6.1313708498984765 5.3
    vertex 6.1313708498984765 6.1313708498984765 4.299999999999999
  endloop
endfacet
facet normal -0.6087614290087204 -0.7933533402912355 -1.064547006154365e-16
  outer loop
    vertex 6.1313708498984765 6.1313708498984765 5.3
    vertex 5.8 6.385640646055102 4.299999999999999
    vertex 6.1313708498984765 6.1313708498984765 4.299999999999999
  endloop
endfacet
facet normal -0.6087614290087204 -0.7933533402912355 -1.064547006154365e-16
  outer loop
    vertex 5.8 6.385640646055102 4.299999999999999
    vertex 6.1313708498984765 6.1313708498984765 5.3
    vertex 5.8 6.385640646055102 5.3
  endloop
endfacet
facet normal -0.3826834323650898 -0.9238795325112867 -5.953521857458652e-17
  outer loop
    vertex 5.8 6.385640646055102 5.3
    vertex 5.414110472164034 6.54548132206251 4.299999999999999
    vertex 5.8 6.385640646055102 4.299999999999999
  endloop
endfacet
facet normal -0.3826834323650898 -0.9238795325112867 -5.953521857458652e-17
  outer loop
    vertex 5.414110472164034 6.54548132206251 4.299999999999999
    vertex 5.8 6.385640646055102 5.3
    vertex 5.414110472164033 6.54548132206251 5.3
  endloop
endfacet
facet normal -0.13052619222004908 -0.9914448613738107 -4.679174535197332e-17
  outer loop
    vertex 5.414110472164033 6.54548132206251 5.3
    vertex 5.000000000000001 6.599999999999999 4.299999999999999
    vertex 5.414110472164034 6.54548132206251 4.299999999999999
  endloop
endfacet
facet normal -0.13052619222004908 -0.9914448613738107 -4.679174535197332e-17
  outer loop
    vertex 5.000000000000001 6.599999999999999 4.299999999999999
    vertex 5.414110472164033 6.54548132206251 5.3
    vertex 5.0 6.599999999999999 5.3
  endloop
endfacet
facet normal 0.13052619222004894 -0.9914448613738109 6.961698698708216e-17
  outer loop
    vertex 5.0 6.599999999999999 5.3
    vertex 4.585889527835968 6.54548132206251 4.299999999999999
    vertex 5.000000000000001 6.599999999999999 4.299999999999999
  endloop
endfacet
facet normal 0.13052619222004894 -0.9914448613738109 6.961698698708216e-17
  outer loop
    vertex 4.585889527835968 6.54548132206251 4.299999999999999
    vertex 5.0 6.599999999999999 5.3
    vertex 4.585889527835966 6.54548132206251 5.3
  endloop
endfacet
facet normal 0.3826834323650925 -0.9238795325112857 2.7102690075398414e-16
  outer loop
    vertex 4.585889527835966 6.54548132206251 5.3
    vertex 4.200000000000001 6.3856406460551005 4.299999999999999
    vertex 4.585889527835968 6.54548132206251 4.299999999999999
  endloop
endfacet
facet normal 0.3826834323650925 -0.9238795325112857 2.7102690075398414e-16
  outer loop
    vertex 4.200000000000001 6.3856406460551005 4.299999999999999
    vertex 4.585889527835966 6.54548132206251 5.3
    vertex 4.199999999999999 6.3856406460551005 5.3
  endloop
endfacet
facet normal 0.60876142900872 -0.7933533402912357 2.8708433556149466e-16
  outer loop
    vertex 4.199999999999999 6.3856406460551005 5.3
    vertex 3.8686291501015253 6.1313708498984765 4.299999999999999
    vertex 4.200000000000001 6.3856406460551005 4.299999999999999
  endloop
endfacet
facet normal 0.60876142900872 -0.7933533402912357 2.8708433556149466e-16
  outer loop
    vertex 3.8686291501015253 6.1313708498984765 4.299999999999999
    vertex 4.199999999999999 6.3856406460551005 5.3
    vertex 3.868629150101524 6.131370849898476 5.3
  endloop
endfacet
facet normal 0.7933533402912349 -0.6087614290087209 3.454968280426381e-16
  outer loop
    vertex 3.614359353944899 5.8 4.299999999999999
    vertex 3.868629150101524 6.131370849898476 5.3
    vertex 3.6143593539448977 5.799999999999999 5.3
  endloop
endfacet
facet normal 0.7933533402912349 -0.6087614290087209 3.454968280426381e-16
  outer loop
    vertex 3.868629150101524 6.131370849898476 5.3
    vertex 3.614359353944899 5.8 4.299999999999999
    vertex 3.8686291501015253 6.1313708498984765 4.299999999999999
  endloop
endfacet
facet normal 0.9238795325112868 -0.3826834323650896 5.164373820380456e-16
  outer loop
    vertex 3.454518677937492 5.414110472164033 4.299999999999999
    vertex 3.6143593539448977 5.799999999999999 5.3
    vertex 3.4545186779374903 5.414110472164032 5.3
  endloop
endfacet
facet normal 0.9238795325112868 -0.3826834323650896 5.164373820380456e-16
  outer loop
    vertex 3.6143593539448977 5.799999999999999 5.3
    vertex 3.454518677937492 5.414110472164033 4.299999999999999
    vertex 3.614359353944899 5.8 4.299999999999999
  endloop
endfacet
facet normal 0.9914448613738105 -0.1305261922200524 6.543507684384836e-16
  outer loop
    vertex 3.400000000000001 5.0 4.299999999999999
    vertex 3.4545186779374903 5.414110472164032 5.3
    vertex 3.3999999999999995 4.999999999999999 5.3
  endloop
endfacet
facet normal 0.9914448613738105 -0.1305261922200524 6.543507684384836e-16
  outer loop
    vertex 3.4545186779374903 5.414110472164032 5.3
    vertex 3.400000000000001 5.0 4.299999999999999
    vertex 3.454518677937492 5.414110472164033 4.299999999999999
  endloop
endfacet
facet normal 0.9914448613738105 0.13052619222005216 7.924434803308961e-16
  outer loop
    vertex 3.454518677937492 4.585889527835967 4.299999999999999
    vertex 3.3999999999999995 4.999999999999999 5.3
    vertex 3.4545186779374903 4.585889527835964 5.3
  endloop
endfacet
facet normal 0.9914448613738105 0.13052619222005216 7.924434803308961e-16
  outer loop
    vertex 3.3999999999999995 4.999999999999999 5.3
    vertex 3.454518677937492 4.585889527835967 4.299999999999999
    vertex 3.400000000000001 5.0 4.299999999999999
  endloop
endfacet
facet normal 0.9238795325112868 0.38268343236508967 1.0584911835460096e-15
  outer loop
    vertex 3.614359353944899 4.2 4.299999999999999
    vertex 3.4545186779374903 4.585889527835964 5.3
    vertex 3.6143593539448977 4.1999999999999975 5.3
  endloop
endfacet
facet normal 0.9238795325112868 0.38268343236508967 1.0584911835460096e-15
  outer loop
    vertex 3.4545186779374903 4.585889527835964 5.3
    vertex 3.614359353944899 4.2 4.299999999999999
    vertex 3.454518677937492 4.585889527835967 4.299999999999999
  endloop
endfacet
facet normal -0.855563810843011 -0.5176973687163038 -0.0
  outer loop
    vertex 6.5909013242887164 7.891199228067206 4.299999999999999
    vertex 8.299302641052519 5.067838652285271 1.9999999999999998
    vertex 8.299302641052519 5.067838652285271 4.299999999999999
  endloop
endfacet
facet normal -0.855563810843011 -0.5176973687163038 -0.0
  outer loop
    vertex 8.299302641052519 5.067838652285271 1.9999999999999998
    vertex 6.5909013242887164 7.891199228067206 4.299999999999999
    vertex 6.5909013242887164 7.891199228067206 1.9999999999999998
  endloop
endfacet
facet normal -0.8761209782021838 0.4820913103905201 -0.0
  outer loop
    vertex 8.299302641052519 5.067838652285271 4.299999999999999
    vertex 6.708401316763801 2.176639424218063 1.9999999999999998
    vertex 6.708401316763801 2.176639424218063 4.299999999999999
  endloop
endfacet
facet normal -0.8761209782021838 0.4820913103905201 -0.0
  outer loop
    vertex 6.708401316763801 2.176639424218063 1.9999999999999998
    vertex 8.299302641052519 5.067838652285271 4.299999999999999
    vertex 8.299302641052519 5.067838652285271 1.9999999999999998
  endloop
endfacet
facet normal -0.020557167359172485 0.9997886791068237 -0.0
  outer loop
    vertex 3.4090986757112844 2.108800771932794 4.299999999999999
    vertex 6.708401316763801 2.176639424218063 1.9999999999999998
    vertex 3.4090986757112844 2.108800771932794 1.9999999999999998
  endloop
endfacet
facet normal -0.020557167359172485 0.9997886791068237 -0.0
  outer loop
    vertex 6.708401316763801 2.176639424218063 1.9999999999999998
    vertex 3.4090986757112844 2.108800771932794 4.299999999999999
    vertex 6.708401316763801 2.176639424218063 4.299999999999999
  endloop
endfacet
facet normal 0.8761209782021837 -0.48209131039052017 -0.0
  outer loop
    vertex 3.2915986832362 7.823360575781936 1.9999999999999998
    vertex 1.7006973589474836 4.93216134771473 4.299999999999999
    vertex 1.7006973589474836 4.93216134771473 1.9999999999999998
  endloop
endfacet
facet normal 0.8761209782021837 -0.48209131039052017 -0.0
  outer loop
    vertex 1.7006973589474836 4.93216134771473 4.299999999999999
    vertex 3.2915986832362 7.823360575781936 1.9999999999999998
    vertex 3.2915986832362 7.823360575781936 4.299999999999999
  endloop
endfacet
facet normal 0.02055716735917292 -0.9997886791068237 -0.0
  outer loop
    vertex 6.5909013242887164 7.891199228067206 4.299999999999999
    vertex 3.2915986832362 7.823360575781936 1.9999999999999998
    vertex 6.5909013242887164 7.891199228067206 1.9999999999999998
  endloop
endfacet
facet normal 0.02055716735917292 -0.9997886791068237 -0.0
  outer loop
    vertex 3.2915986832362 7.823360575781936 1.9999999999999998
    vertex 6.5909013242887164 7.891199228067206 4.299999999999999
    vertex 3.2915986832362 7.823360575781936 4.299999999999999
  endloop
endfacet
facet normal 0.0 0.0 -1.0
  outer loop
    vertex 3.2915986832362 7.823360575781936 4.299999999999999
    vertex 3.454518677937492 5.414110472164033 4.299999999999999
    vertex 3.400000000000001 5.0 4.299999999999999
  endloop
endfacet
facet normal 0.0 0.0 -1.0
  outer loop
    vertex 3.454518677937492 5.414110472164033 4.299999999999999
    vertex 3.2915986832362 7.823360575781936 4.299999999999999
    vertex 3.614359353944899 5.8 4.299999999999999
  endloop
endfacet
facet normal 0.0 0.0 -1.0
  outer loop
    vertex 3.614359353944899 5.8 4.299999999999999
    vertex 3.2915986832362 7.823360575781936 4.299999999999999
    vertex 3.8686291501015253 6.1313708498984765 4.299999999999999
  endloop
endfacet
facet normal 0.0 0.0 -1.0
  outer loop
    vertex 3.8686291501015253 6.1313708498984765 4.299999999999999
    vertex 3.2915986832362 7.823360575781936 4.299999999999999
    vertex 4.200000000000001 6.3856406460551005 4.299999999999999
  endloop
endfacet
facet normal 0.0 0.0 -1.0
  outer loop
    vertex 4.200000000000001 6.3856406460551005 4.299999999999999
    vertex 3.2915986832362 7.823360575781936 4.299999999999999
    vertex 6.5909013242887164 7.891199228067206 4.299999999999999
  endloop
endfacet
facet normal 0.0 0.0 -1.0
  outer loop
    vertex 4.200000000000001 6.3856406460551005 4.299999999999999
    vertex 6.5909013242887164 7.891199228067206 4.299999999999999
    vertex 4.585889527835968 6.54548132206251 4.299999999999999
  endloop
endfacet
facet normal 0.0 0.0 -1.0
  outer loop
    vertex 4.585889527835968 6.54548132206251 4.299999999999999
    vertex 6.5909013242887164 7.891199228067206 4.299999999999999
    vertex 5.000000000000001 6.599999999999999 4.299999999999999
  endloop
endfacet
facet normal 0.0 0.0 -1.0
  outer loop
    vertex 5.000000000000001 6.599999999999999 4.299999999999999
    vertex 6.5909013242887164 7.891199228067206 4.299999999999999
    vertex 5.414110472164034 6.54548132206251 4.299999999999999
  endloop
endfacet
facet normal 0.0 0.0 -1.0
  outer loop
    vertex 5.414110472164034 6.54548132206251 4.299999999999999
    vertex 6.5909013242887164 7.891199228067206 4.299999999999999
    vertex 5.8 6.385640646055102 4.299999999999999
  endloop
endfacet
facet normal 0.0 0.0 -1.0
  outer loop
    vertex 5.8 6.385640646055102 4.299999999999999
    vertex 6.5909013242887164 7.891199228067206 4.299999999999999
    vertex 6.1313708498984765 6.1313708498984765 4.299999999999999
  endloop
endfacet
facet normal 0.0 0.0 -1.0
  outer loop
    vertex 6.1313708498984765 6.1313708498984765 4.299999999999999
    vertex 6.5909013242887164 7.891199228067206 4.299999999999999
    vertex 6.385640646055102 5.800000000000001 4.299999999999999
  endloop
endfacet
facet normal 0.0 0.0 -1.0
  outer loop
    vertex 6.385640646055102 5.800000000000001 4.299999999999999
    vertex 6.5909013242887164 7.891199228067206 4.299999999999999
    vertex 6.54548132206251 5.414110472164034 4.299999999999999
  endloop
endfacet
facet normal 0.0 0.0 -1.0
  outer loop
    vertex 6.54548132206251 5.414110472164034 4.299999999999999
    vertex 6.5909013242887164 7.891199228067206 4.299999999999999
    vertex 6.6000000000000005 5.0 4.299999999999999
  endloop
endfacet
facet normal 0.0 0.0 -1.0
  outer loop
    vertex 6.6000000000000005 5.0 4.299999999999999
    vertex 6.5909013242887164 7.891199228067206 4.299999999999999
    vertex 8.299302641052519 5.067838652285271 4.299999999999999
  endloop
endfacet
facet normal 0.0 0.0 -1.0
  outer loop
    vertex 6.6000000000000005 5.0 4.299999999999999
    vertex 8.299302641052519 5.067838652285271 4.299999999999999
    vertex 6.708401316763801 2.176639424218063 4.299999999999999
  endloop
endfacet
facet normal 0.0 0.0 -1.0
  outer loop
    vertex 3.2915986832362 7.823360575781936 4.299999999999999
    vertex 3.4090986757112844 2.108800771932794 4.299999999999999
    vertex 1.7006973589474836 4.93216134771473 4.299999999999999
  endloop
endfacet
facet normal 0.0 0.0 -1.0
  outer loop
    vertex 3.4090986757112844 2.108800771932794 4.299999999999999
    vertex 3.2915986832362 7.823360575781936 4.299999999999999
    vertex 3.400000000000001 5.0 4.299999999999999
  endloop
endfacet
facet normal 0.0 0.0 -1.0
  outer loop
    vertex 3.4090986757112844 2.108800771932794 4.299999999999999
    vertex 3.400000000000001 5.0 4.299999999999999
    vertex 3.454518677937492 4.585889527835967 4.299999999999999
  endloop
endfacet
facet normal 0.0 0.0 -1.0
  outer loop
    vertex 3.4090986757112844 2.108800771932794 4.299999999999999
    vertex 3.454518677937492 4.585889527835967 4.299999999999999
    vertex 3.614359353944899 4.2 4.299999999999999
  endloop
endfacet
facet normal 0.0 0.0 -1.0
  outer loop
    vertex 3.4090986757112844 2.108800771932794 4.299999999999999
    vertex 3.614359353944899 4.2 4.299999999999999
    vertex 3.8686291501015244 3.8686291501015244 4.299999999999999
  endloop
endfacet
facet normal 0.0 0.0 -1.0
  outer loop
    vertex 3.4090986757112844 2.108800771932794 4.299999999999999
    vertex 3.8686291501015244 3.8686291501015244 4.299999999999999
    vertex 4.200000000000001 3.6143593539448986 4.299999999999999
  endloop
endfacet
facet normal 0.0 0.0 -1.0
  outer loop
    vertex 3.4090986757112844 2.108800771932794 4.299999999999999
    vertex 4.200000000000001 3.6143593539448986 4.299999999999999
    vertex 6.708401316763801 2.176639424218063 4.299999999999999
  endloop
endfacet
facet normal 0.0 0.0 -1.0
  outer loop
    vertex 6.708401316763801 2.176639424218063 4.299999999999999
    vertex 4.200000000000001 3.6143593539448986 4.299999999999999
    vertex 4.585889527835968 3.4545186779374903 4.299999999999999
  endloop
endfacet
facet normal 0.0 0.0 -1.0
  outer loop
    vertex 6.708401316763801 2.176639424218063 4.299999999999999
    vertex 4.585889527835968 3.4545186779374903 4.299999999999999
    vertex 5.0 3.4 4.299999999999999
  endloop
endfacet
facet normal 0.0 0.0 -1.0
  outer loop
    vertex 6.708401316763801 2.176639424218063 4.299999999999999
    vertex 5.0 3.4 4.299999999999999
    vertex 5.414110472164033 3.4545186779374903 4.299999999999999
  endloop
endfacet
facet normal 0.0 0.0 -1.0
  outer loop
    vertex 6.708401316763801 2.176639424218063 4.299999999999999
    vertex 5.414110472164033 3.4545186779374903 4.299999999999999
    vertex 5.8 3.6143593539448977 4.299999999999999
  endloop
endfacet
facet normal 0.0 0.0 -1.0
  outer loop
    vertex 6.708401316763801 2.176639424218063 4.299999999999999
    vertex 5.8 3.6143593539448977 4.299999999999999
    vertex 6.1313708498984765 3.868629150101524 4.299999999999999
  endloop
endfacet
facet normal 0.0 0.0 -1.0
  outer loop
    vertex 6.708401316763801 2.176639424218063 4.299999999999999
    vertex 6.1313708498984765 3.868629150101524 4.299999999999999
    vertex 6.385640646055102 4.200000000000001 4.299999999999999
  endloop
endfacet
facet normal 0.0 0.0 -1.0
  outer loop
    vertex 6.708401316763801 2.176639424218063 4.299999999999999
    vertex 6.385640646055102 4.200000000000001 4.299999999999999
    vertex 6.54548132206251 4.585889527835968 4.299999999999999
  endloop
endfacet
facet normal 0.0 0.0 -1.0
  outer loop
    vertex 6.708401316763801 2.176639424218063 4.299999999999999
    vertex 6.54548132206251 4.585889527835968 4.299999999999999
    vertex 6.6000000000000005 5.0 4.299999999999999
  endloop
endfacet
facet normal 1.0 -0.0 -0.0
  outer loop
    vertex 10.0 10.0 1.9999999999999998
    vertex 10.0 0.0 5.3
    vertex 10.0 0.0 1.9999999999999998
  endloop
endfacet
facet normal 1.0 -0.0 -0.0
  outer loop
    vertex 10.0 0.0 5.3
    vertex 10.0 10.0 1.9999999999999998
    vertex 10.0 10.0 5.3
  endloop
endfacet
facet normal -0.0 1.0 -0.0
  outer loop
    vertex 0.0 10.0 3.318952624787358
    vertex 10.0 10.0 1.9999999999999998
    vertex 0.0 10.0 1.9999999999999998
  endloop
endfacet
facet normal -0.0 1.0 -0.0
  outer loop
    vertex 10.0 10.0 1.9999999999999998
    vertex 0.0 10.0 3.318952624787358
    vertex 10.0 10.0 5.3
  endloop
endfacet
facet normal -0.0 1.0 -0.0
  outer loop
    vertex 10.0 10.0 5.3
    vertex 0.0 10.0 3.318952624787358
    vertex 0.0 10.0 5.3
  endloop
endfacet
facet normal -0.0 -0.0 1.0
  outer loop
    vertex 3.4090986757112844 2.108800771932794 1.9999999999999998
    vertex 3.2915986832362 7.823360575781936 1.9999999999999998
    vertex 1.7006973589474836 4.93216134771473 1.9999999999999998
  endloop
endfacet
facet normal -0.0 -0.0 1.0
  outer loop
    vertex 3.2915986832362 7.823360575781936 1.9999999999999998
    vertex 3.4090986757112844 2.108800771932794 1.9999999999999998
    vertex 3.400000000000001 5.0 1.9999999999999998
  endloop
endfacet
facet normal -0.0 -0.0 1.0
  outer loop
    vertex 3.400000000000001 5.0 1.9999999999999998
    vertex 3.4090986757112844 2.108800771932794 1.9999999999999998
    vertex 3.454518677937492 4.585889527835967 1.9999999999999998
  endloop
endfacet
facet normal -0.0 -0.0 1.0
  outer loop
    vertex 3.454518677937492 4.585889527835967 1.9999999999999998
    vertex 3.4090986757112844 2.108800771932794 1.9999999999999998
    vertex 3.614359353944899 4.2 1.9999999999999998
  endloop
endfacet
facet normal -0.0 -0.0 1.0
  outer loop
    vertex 3.614359353944899 4.2 1.9999999999999998
    vertex 3.4090986757112844 2.108800771932794 1.9999999999999998
    vertex 3.8686291501015244 3.8686291501015244 1.9999999999999998
  endloop
endfacet
facet normal -0.0 -0.0 1.0
  outer loop
    vertex 3.8686291501015244 3.8686291501015244 1.9999999999999998
    vertex 3.4090986757112844 2.108800771932794 1.9999999999999998
    vertex 4.200000000000001 3.6143593539448986 1.9999999999999998
  endloop
endfacet
facet normal -0.0 -0.0 1.0
  outer loop
    vertex 4.200000000000001 3.6143593539448986 1.9999999999999998
    vertex 3.4090986757112844 2.108800771932794 1.9999999999999998
    vertex 6.708401316763801 2.176639424218063 1.9999999999999998
  endloop
endfacet
facet normal -0.0 -0.0 1.0
  outer loop
    vertex 4.200000000000001 3.6143593539448986 1.9999999999999998
    vertex 6.708401316763801 2.176639424218063 1.9999999999999998
    vertex 4.585889527835968 3.4545186779374903 1.9999999999999998
  endloop
endfacet
facet normal -0.0 -0.0 1.0
  outer loop
    vertex 4.585889527835968 3.4545186779374903 1.9999999999999998
    vertex 6.708401316763801 2.176639424218063 1.9999999999999998
    vertex 5.0 3.4 1.9999999999999998
  endloop
endfacet
facet normal -0.0 -0.0 1.0
  outer loop
    vertex 5.0 3.4 1.9999999999999998
    vertex 6.708401316763801 2.176639424218063 1.9999999999999998
    vertex 5.414110472164033 3.4545186779374903 1.9999999999999998
  endloop
endfacet
facet normal -0.0 -0.0 1.0
  outer loop
    vertex 5.414110472164033 3.4545186779374903 1.9999999999999998
    vertex 6.708401316763801 2.176639424218063 1.9999999999999998
    vertex 5.8 3.6143593539448977 1.9999999999999998
  endloop
endfacet
facet normal -0.0 -0.0 1.0
  outer loop
    vertex 5.8 3.6143593539448977 1.9999999999999998
    vertex 6.708401316763801 2.176639424218063 1.9999999999999998
    vertex 6.1313708498984765 3.868629150101524 1.9999999999999998
  endloop
endfacet
facet normal -0.0 -0.0 1.0
  outer loop
    vertex 6.1313708498984765 3.868629150101524 1.9999999999999998
    vertex 6.708401316763801 2.176639424218063 1.9999999999999998
    vertex 6.385640646055102 4.200000000000001 1.9999999999999998
  endloop
endfacet
facet normal -0.0 -0.0 1.0
  outer loop
    vertex 6.385640646055102 4.200000000000001 1.9999999999999998
    vertex 6.708401316763801 2.176639424218063 1.9999999999999998
    vertex 6.54548132206251 4.585889527835968 1.9999999999999998
  endloop
endfacet
facet normal -0.0 -0.0 1.0
  outer loop
    vertex 6.54548132206251 4.585889527835968 1.9999999999999998
    vertex 6.708401316763801 2.176639424218063 1.9999999999999998
    vertex 6.6000000000000005 5.0 1.9999999999999998
  endloop
endfacet
facet normal -0.0 -0.0 1.0
  outer loop
    vertex 3.2915986832362 7.823360575781936 1.9999999999999998
    vertex 4.200000000000001 6.3856406460551005 1.9999999999999998
    vertex 6.5909013242887164 7.891199228067206 1.9999999999999998
  endloop
endfacet
facet normal -0.0 -0.0 1.0
  outer loop
    vertex 4.200000000000001 6.3856406460551005 1.9999999999999998
    vertex 3.2915986832362 7.823360575781936 1.9999999999999998
    vertex 3.8686291501015253 6.1313708498984765 1.9999999999999998
  endloop
endfacet
facet normal -0.0 -0.0 1.0
  outer loop
    vertex 3.8686291501015253 6.1313708498984765 1.9999999999999998
    vertex 3.2915986832362 7.823360575781936 1.9999999999999998
    vertex 3.614359353944899 5.8 1.9999999999999998
  endloop
endfacet
facet normal -0.0 -0.0 1.0
  outer loop
    vertex 3.614359353944899 5.8 1.9999999999999998
    vertex 3.2915986832362 7.823360575781936 1.9999999999999998
    vertex 3.454518677937492 5.414110472164033 1.9999999999999998
  endloop
endfacet
facet normal -0.0 -0.0 1.0
  outer loop
    vertex 3.454518677937492 5.414110472164033 1.9999999999999998
    vertex 3.2915986832362 7.823360575781936 1.9999999999999998
    vertex 3.400000000000001 5.0 1.9999999999999998
  endloop
endfacet
facet normal -0.0 -0.0 1.0
  outer loop
    vertex 6.5909013242887164 7.891199228067206 1.9999999999999998
    vertex 4.200000000000001 6.3856406460551005 1.9999999999999998
    vertex 4.585889527835968 6.54548132206251 1.9999999999999998
  endloop
endfacet
facet normal -0.0 -0.0 1.0
  outer loop
    vertex 6.5909013242887164 7.891199228067206 1.9999999999999998
    vertex 4.585889527835968 6.54548132206251 1.9999999999999998
    vertex 5.000000000000001 6.599999999999999 1.9999999999999998
  endloop
endfacet
facet normal -0.0 -0.0 1.0
  outer loop
    vertex 6.5909013242887164 7.891199228067206 1.9999999999999998
    vertex 5.000000000000001 6.599999999999999 1.9999999999999998
    vertex 5.414110472164034 6.54548132206251 1.9999999999999998
  endloop
endfacet
facet normal -0.0 -0.0 1.0
  outer loop
    vertex 6.5909013242887164 7.891199228067206 1.9999999999999998
    vertex 5.414110472164034 6.54548132206251 1.9999999999999998
    vertex 5.8 6.385640646055102 1.9999999999999998
  endloop
endfacet
facet normal -0.0 -0.0 1.0
  outer loop
    vertex 6.5909013242887164 7.891199228067206 1.9999999999999998
    vertex 5.8 6.385640646055102 1.9999999999999998
    vertex 6.1313708498984765 6.1313708498984765 1.9999999999999998
  endloop
endfacet
facet normal -0.0 -0.0 1.0
  outer loop
    vertex 6.5909013242887164 7.891199228067206 1.9999999999999998
    vertex 6.1313708498984765 6.1313708498984765 1.9999999999999998
    vertex 6.385640646055102 5.800000000000001 1.9999999999999998
  endloop
endfacet
facet normal -0.0 -0.0 1.0
  outer loop
    vertex 6.5909013242887164 7.891199228067206 1.9999999999999998
    vertex 6.385640646055102 5.800000000000001 1.9999999999999998
    vertex 6.54548132206251 5.414110472164034 1.9999999999999998
  endloop
endfacet
facet normal -0.0 -0.0 1.0
  outer loop
    vertex 6.5909013242887164 7.891199228067206 1.9999999999999998
    vertex 6.54548132206251 5.414110472164034 1.9999999999999998
    vertex 6.6000000000000005 5.0 1.9999999999999998
  endloop
endfacet
facet normal -0.0 -0.0 1.0
  outer loop
    vertex 6.5909013242887164 7.891199228067206 1.9999999999999998
    vertex 6.6000000000000005 5.0 1.9999999999999998
    vertex 8.299302641052519 5.067838652285271 1.9999999999999998
  endloop
endfacet
facet normal -0.0 -0.0 1.0
  outer loop
    vertex 8.299302641052519 5.067838652285271 1.9999999999999998
    vertex 6.6000000000000005 5.0 1.9999999999999998
    vertex 6.708401316763801 2.176639424218063 1.9999999999999998
  endloop
endfacet
facet normal 0.0 0.0 -1.0
  outer loop
    vertex 0.0 10.0 0.9999999999999999
    vertex 3.6143593539448986 5.800000000000001 0.9999999999999999
    vertex 0.0 0.0 0.9999999999999999
  endloop
endfacet
facet normal 0.0 0.0 -1.0
  outer loop
    vertex 3.6143593539448986 5.800000000000001 0.9999999999999999
    vertex 0.0 10.0 0.9999999999999999
    vertex 3.8686291501015244 6.1313708498984765 0.9999999999999999
  endloop
endfacet
facet normal 0.0 0.0 -1.0
  outer loop
    vertex 3.8686291501015244 6.1313708498984765 0.9999999999999999
    vertex 0.0 10.0 0.9999999999999999
    vertex 4.200000000000001 6.385640646055102 0.9999999999999999
  endloop
endfacet
facet normal 0.0 0.0 -1.0
  outer loop
    vertex 4.200000000000001 6.385640646055102 0.9999999999999999
    vertex 0.0 10.0 0.9999999999999999
    vertex 10.0 10.0 0.9999999999999999
  endloop
endfacet
facet normal 0.0 0.0 -1.0
  outer loop
    vertex 0.0 0.0 0.9999999999999999
    vertex 3.6143593539448986 5.800000000000001 0.9999999999999999
    vertex 3.4545186779374912 5.414110472164034 0.9999999999999999
  endloop
endfacet
facet normal 0.0 0.0 -1.0
  outer loop
    vertex 0.0 0.0 0.9999999999999999
    vertex 3.4545186779374912 5.414110472164034 0.9999999999999999
    vertex 3.4 5.0 0.9999999999999999
  endloop
endfacet
facet normal 0.0 0.0 -1.0
  outer loop
    vertex 4.200000000000001 6.385640646055102 0.9999999999999999
    vertex 10.0 10.0 0.9999999999999999
    vertex 4.585889527835968 6.54548132206251 0.9999999999999999
  endloop
endfacet
facet normal 0.0 0.0 -1.0
  outer loop
    vertex 4.585889527835968 6.54548132206251 0.9999999999999999
    vertex 10.0 10.0 0.9999999999999999
    vertex 5.000000000000001 6.6000000000000005 0.9999999999999999
  endloop
endfacet
facet normal 0.0 0.0 -1.0
  outer loop
    vertex 5.000000000000001 6.6000000000000005 0.9999999999999999
    vertex 10.0 10.0 0.9999999999999999
    vertex 5.414110472164036 6.54548132206251 0.9999999999999999
  endloop
endfacet
facet normal 0.0 0.0 -1.0
  outer loop
    vertex 5.414110472164036 6.54548132206251 0.9999999999999999
    vertex 10.0 10.0 0.9999999999999999
    vertex 5.8000000000000025 6.385640646055102 0.9999999999999999
  endloop
endfacet
facet normal 0.0 0.0 -1.0
  outer loop
    vertex 5.8000000000000025 6.385640646055102 0.9999999999999999
    vertex 10.0 10.0 0.9999999999999999
    vertex 6.131370849898477 6.1313708498984765 0.9999999999999999
  endloop
endfacet
facet normal 0.0 0.0 -1.0
  outer loop
    vertex 6.131370849898477 6.1313708498984765 0.9999999999999999
    vertex 10.0 10.0 0.9999999999999999
    vertex 6.385640646055104 5.799999999999999 0.9999999999999999
  endloop
endfacet
facet normal 0.0 0.0 -1.0
  outer loop
    vertex 6.385640646055104 5.799999999999999 0.9999999999999999
    vertex 10.0 10.0 0.9999999999999999
    vertex 6.5454813220625105 5.414110472164032 0.9999999999999999
  endloop
endfacet
facet normal 0.0 0.0 -1.0
  outer loop
    vertex 6.5454813220625105 5.414110472164032 0.9999999999999999
    vertex 10.0 10.0 0.9999999999999999
    vertex 6.600000000000002 5.0 0.9999999999999999
  endloop
endfacet
facet normal 0.0 0.0 -1.0
  outer loop
    vertex 0.0 0.0 0.9999999999999999
    vertex 4.2 3.6143593539448977 0.9999999999999999
    vertex 10.0 0.0 0.9999999999999999
  endloop
endfacet
facet normal 0.0 0.0 -1.0
  outer loop
    vertex 4.2 3.6143593539448977 0.9999999999999999
    vertex 0.0 0.0 0.9999999999999999
    vertex 3.868629150101524 3.868629150101524 0.9999999999999999
  endloop
endfacet
facet normal 0.0 0.0 -1.0
  outer loop
    vertex 3.868629150101524 3.868629150101524 0.9999999999999999
    vertex 0.0 0.0 0.9999999999999999
    vertex 3.6143593539448986 4.2 0.9999999999999999
  endloop
endfacet
facet normal 0.0 0.0 -1.0
  outer loop
    vertex 3.6143593539448986 4.2 0.9999999999999999
    vertex 0.0 0.0 0.9999999999999999
    vertex 3.4545186779374903 4.585889527835967 0.9999999999999999
  endloop
endfacet
facet normal 0.0 0.0 -1.0
  outer loop
    vertex 3.4545186779374903 4.585889527835967 0.9999999999999999
    vertex 0.0 0.0 0.9999999999999999
    vertex 3.4 5.0 0.9999999999999999
  endloop
endfacet
facet normal 0.0 0.0 -1.0
  outer loop
    vertex 10.0 0.0 0.9999999999999999
    vertex 4.2 3.6143593539448977 0.9999999999999999
    vertex 4.585889527835967 3.4545186779374903 0.9999999999999999
  endloop
endfacet
facet normal 0.0 0.0 -1.0
  outer loop
    vertex 10.0 0.0 0.9999999999999999
    vertex 4.585889527835967 3.4545186779374903 0.9999999999999999
    vertex 5.000000000000001 3.3999999999999995 0.9999999999999999
  endloop
endfacet
facet normal 0.0 0.0 -1.0
  outer loop
    vertex 10.0 0.0 0.9999999999999999
    vertex 5.000000000000001 3.3999999999999995 0.9999999999999999
    vertex 5.414110472164033 3.45451867793749 0.9999999999999999
  endloop
endfacet
facet normal 0.0 0.0 -1.0
  outer loop
    vertex 10.0 0.0 0.9999999999999999
    vertex 5.414110472164033 3.45451867793749 0.9999999999999999
    vertex 5.800000000000001 3.6143593539448977 0.9999999999999999
  endloop
endfacet
facet normal 0.0 0.0 -1.0
  outer loop
    vertex 10.0 0.0 0.9999999999999999
    vertex 5.800000000000001 3.6143593539448977 0.9999999999999999
    vertex 6.1313708498984765 3.868629150101523 0.9999999999999999
  endloop
endfacet
facet normal 0.0 0.0 -1.0
  outer loop
    vertex 10.0 0.0 0.9999999999999999
    vertex 6.1313708498984765 3.868629150101523 0.9999999999999999
    vertex 6.385640646055102 4.199999999999999 0.9999999999999999
  endloop
endfacet
facet normal 0.0 0.0 -1.0
  outer loop
    vertex 10.0 0.0 0.9999999999999999
    vertex 6.385640646055102 4.199999999999999 0.9999999999999999
    vertex 6.54548132206251 4.585889527835965 0.9999999999999999
  endloop
endfacet
facet normal 0.0 0.0 -1.0
  outer loop
    vertex 10.0 0.0 0.9999999999999999
    vertex 6.54548132206251 4.585889527835965 0.9999999999999999
    vertex 6.600000000000002 5.0 0.9999999999999999
  endloop
endfacet
facet normal 0.0 0.0 -1.0
  outer loop
    vertex 10.0 0.0 0.9999999999999999
    vertex 6.600000000000002 5.0 0.9999999999999999
    vertex 10.0 10.0 0.9999999999999999
  endloop
endfacet
facet normal -0.1305261922200505 -0.9914448613738107 -3.9570877793742657e-16
  outer loop
    vertex 5.414110472164034 6.54548132206251 1.9999999999999998
    vertex 5.000000000000001 6.6000000000000005 0.9999999999999999
    vertex 5.414110472164036 6.54548132206251 0.9999999999999999
  endloop
endfacet
facet normal -0.1305261922200505 -0.9914448613738107 -3.9570877793742657e-16
  outer loop
    vertex 5.000000000000001 6.6000000000000005 0.9999999999999999
    vertex 5.414110472164034 6.54548132206251 1.9999999999999998
    vertex 5.000000000000001 6.599999999999999 1.9999999999999998
  endloop
endfacet
facet normal -0.3826834323650899 -0.9238795325112867 -3.4129313428279276e-16
  outer loop
    vertex 5.8 6.385640646055102 1.9999999999999998
    vertex 5.414110472164036 6.54548132206251 0.9999999999999999
    vertex 5.8000000000000025 6.385640646055102 0.9999999999999999
  endloop
endfacet
facet normal -0.3826834323650899 -0.9238795325112867 -3.4129313428279276e-16
  outer loop
    vertex 5.414110472164036 6.54548132206251 0.9999999999999999
    vertex 5.8 6.385640646055102 1.9999999999999998
    vertex 5.414110472164034 6.54548132206251 1.9999999999999998
  endloop
endfacet
facet normal -0.6087614290087208 -0.7933533402912352 -4.2581880246174686e-16
  outer loop
    vertex 6.1313708498984765 6.1313708498984765 1.9999999999999998
    vertex 5.8000000000000025 6.385640646055102 0.9999999999999999
    vertex 6.131370849898477 6.1313708498984765 0.9999999999999999
  endloop
endfacet
facet normal -0.6087614290087208 -0.7933533402912352 -4.2581880246174686e-16
  outer loop
    vertex 5.8000000000000025 6.385640646055102 0.9999999999999999
    vertex 6.1313708498984765 6.1313708498984765 1.9999999999999998
    vertex 5.8 6.385640646055102 1.9999999999999998
  endloop
endfacet
facet normal -0.7933533402912354 -0.6087614290087203 -2.0329399946988103e-16
  outer loop
    vertex 6.385640646055102 5.800000000000001 1.9999999999999998
    vertex 6.131370849898477 6.1313708498984765 0.9999999999999999
    vertex 6.385640646055104 5.799999999999999 0.9999999999999999
  endloop
endfacet
facet normal -0.7933533402912354 -0.6087614290087203 -2.0329399946988103e-16
  outer loop
    vertex 6.131370849898477 6.1313708498984765 0.9999999999999999
    vertex 6.385640646055102 5.800000000000001 1.9999999999999998
    vertex 6.1313708498984765 6.1313708498984765 1.9999999999999998
  endloop
endfacet
facet normal -0.9238795325112868 -0.3826834323650896 -3.7186592226704145e-16
  outer loop
    vertex 6.54548132206251 5.414110472164034 1.9999999999999998
    vertex 6.385640646055104 5.799999999999999 0.9999999999999999
    vertex 6.5454813220625105 5.414110472164032 0.9999999999999999
  endloop
endfacet
facet normal -0.9238795325112868 -0.3826834323650896 -3.7186592226704145e-16
  outer loop
    vertex 6.385640646055104 5.799999999999999 0.9999999999999999
    vertex 6.54548132206251 5.414110472164034 1.9999999999999998
    vertex 6.385640646055102 5.800000000000001 1.9999999999999998
  endloop
endfacet
facet normal -0.9914448613738103 -0.1305261922200524 -6.510423198189306e-16
  outer loop
    vertex 6.54548132206251 5.414110472164034 1.9999999999999998
    vertex 6.600000000000002 5.0 0.9999999999999999
    vertex 6.6000000000000005 5.0 1.9999999999999998
  endloop
endfacet
facet normal -0.9914448613738103 -0.1305261922200524 -6.510423198189306e-16
  outer loop
    vertex 6.600000000000002 5.0 0.9999999999999999
    vertex 6.54548132206251 5.414110472164034 1.9999999999999998
    vertex 6.5454813220625105 5.414110472164032 0.9999999999999999
  endloop
endfacet
facet normal -0.9914448613738103 0.13052619222005396 -4.185340195725374e-16
  outer loop
    vertex 6.54548132206251 4.585889527835968 1.9999999999999998
    vertex 6.600000000000002 5.0 0.9999999999999999
    vertex 6.54548132206251 4.585889527835965 0.9999999999999999
  endloop
endfacet
facet normal -0.9914448613738103 0.13052619222005396 -4.185340195725374e-16
  outer loop
    vertex 6.600000000000002 5.0 0.9999999999999999
    vertex 6.54548132206251 4.585889527835968 1.9999999999999998
    vertex 6.6000000000000005 5.0 1.9999999999999998
  endloop
endfacet
facet normal -0.9238795325112867 0.3826834323650899 -3.4129313428279276e-16
  outer loop
    vertex 6.385640646055102 4.200000000000001 1.9999999999999998
    vertex 6.54548132206251 4.585889527835965 0.9999999999999999
    vertex 6.385640646055102 4.199999999999999 0.9999999999999999
  endloop
endfacet
facet normal -0.9238795325112867 0.3826834323650899 -3.4129313428279276e-16
  outer loop
    vertex 6.54548132206251 4.585889527835965 0.9999999999999999
    vertex 6.385640646055102 4.200000000000001 1.9999999999999998
    vertex 6.54548132206251 4.585889527835968 1.9999999999999998
  endloop
endfacet
facet normal -0.7933533402912355 0.6087614290087204 -3.193641018463099e-16
  outer loop
    vertex 6.1313708498984765 3.868629150101524 1.9999999999999998
    vertex 6.385640646055102 4.199999999999999 0.9999999999999999
    vertex 6.1313708498984765 3.868629150101523 0.9999999999999999
  endloop
endfacet
facet normal -0.7933533402912355 0.6087614290087204 -3.193641018463099e-16
  outer loop
    vertex 6.385640646055102 4.199999999999999 0.9999999999999999
    vertex 6.1313708498984765 3.868629150101524 1.9999999999999998
    vertex 6.385640646055102 4.200000000000001 1.9999999999999998
  endloop
endfacet
facet normal -0.6087614290087208 0.7933533402912352 -2.4518916751568808e-16
  outer loop
    vertex 5.8 3.6143593539448977 1.9999999999999998
    vertex 6.1313708498984765 3.868629150101523 0.9999999999999999
    vertex 5.800000000000001 3.6143593539448977 0.9999999999999999
  endloop
endfacet
facet normal -0.6087614290087208 0.7933533402912352 -2.4518916751568808e-16
  outer loop
    vertex 6.1313708498984765 3.868629150101523 0.9999999999999999
    vertex 5.8 3.6143593539448977 1.9999999999999998
    vertex 6.1313708498984765 3.868629150101524 1.9999999999999998
  endloop
endfacet
facet normal -0.38268343236509 0.9238795325112867 -2.2847993094375155e-16
  outer loop
    vertex 5.414110472164033 3.4545186779374903 1.9999999999999998
    vertex 5.800000000000001 3.6143593539448977 0.9999999999999999
    vertex 5.414110472164033 3.45451867793749 0.9999999999999999
  endloop
endfacet
facet normal -0.38268343236509 0.9238795325112867 -2.2847993094375155e-16
  outer loop
    vertex 5.800000000000001 3.6143593539448977 0.9999999999999999
    vertex 5.414110472164033 3.4545186779374903 1.9999999999999998
    vertex 5.8 3.6143593539448977 1.9999999999999998
  endloop
endfacet
facet normal -0.13052619222005082 0.9914448613738105 -3.739671295712163e-16
  outer loop
    vertex 5.0 3.4 1.9999999999999998
    vertex 5.414110472164033 3.45451867793749 0.9999999999999999
    vertex 5.000000000000001 3.3999999999999995 0.9999999999999999
  endloop
endfacet
facet normal -0.13052619222005082 0.9914448613738105 -3.739671295712163e-16
  outer loop
    vertex 5.414110472164033 3.45451867793749 0.9999999999999999
    vertex 5.0 3.4 1.9999999999999998
    vertex 5.414110472164033 3.4545186779374903 1.9999999999999998
  endloop
endfacet
facet normal 0.13052619222005155 0.9914448613738105 -1.7559977837448177e-16
  outer loop
    vertex 4.585889527835968 3.4545186779374903 1.9999999999999998
    vertex 5.000000000000001 3.3999999999999995 0.9999999999999999
    vertex 4.585889527835967 3.4545186779374903 0.9999999999999999
  endloop
endfacet
facet normal 0.13052619222005155 0.9914448613738105 -1.7559977837448177e-16
  outer loop
    vertex 5.000000000000001 3.3999999999999995 0.9999999999999999
    vertex 4.585889527835968 3.4545186779374903 1.9999999999999998
    vertex 5.0 3.4 1.9999999999999998
  endloop
endfacet
facet normal 0.3826834323650904 0.9238795325112867 -2.9874616447256195e-16
  outer loop
    vertex 4.200000000000001 3.6143593539448986 1.9999999999999998
    vertex 4.585889527835967 3.4545186779374903 0.9999999999999999
    vertex 4.2 3.6143593539448977 0.9999999999999999
  endloop
endfacet
facet normal 0.3826834323650904 0.9238795325112867 -2.9874616447256195e-16
  outer loop
    vertex 4.585889527835967 3.4545186779374903 0.9999999999999999
    vertex 4.200000000000001 3.6143593539448986 1.9999999999999998
    vertex 4.585889527835968 3.4545186779374903 1.9999999999999998
  endloop
endfacet
facet normal 0.6087614290087209 0.7933533402912349 -4.9037833503137615e-16
  outer loop
    vertex 3.8686291501015244 3.8686291501015244 1.9999999999999998
    vertex 4.2 3.6143593539448977 0.9999999999999999
    vertex 3.868629150101524 3.868629150101524 0.9999999999999999
  endloop
endfacet
facet normal 0.6087614290087209 0.7933533402912349 -4.9037833503137615e-16
  outer loop
    vertex 4.2 3.6143593539448977 0.9999999999999999
    vertex 3.8686291501015244 3.8686291501015244 1.9999999999999998
    vertex 4.200000000000001 3.6143593539448986 1.9999999999999998
  endloop
endfacet
facet normal 0.7933533402912356 0.6087614290087203 -3.8392363441593954e-16
  outer loop
    vertex 3.6143593539448986 4.2 0.9999999999999999
    vertex 3.8686291501015244 3.8686291501015244 1.9999999999999998
    vertex 3.868629150101524 3.868629150101524 0.9999999999999999
  endloop
endfacet
facet normal 0.7933533402912356 0.6087614290087203 -3.8392363441593954e-16
  outer loop
    vertex 3.8686291501015244 3.8686291501015244 1.9999999999999998
    vertex 3.6143593539448986 4.2 0.9999999999999999
    vertex 3.614359353944899 4.2 1.9999999999999998
  endloop
endfacet
facet normal 0.9238795325112867 0.3826834323650904 -4.846791256060823e-16
  outer loop
    vertex 3.4545186779374903 4.585889527835967 0.9999999999999999
    vertex 3.614359353944899 4.2 1.9999999999999998
    vertex 3.6143593539448986 4.2 0.9999999999999999
  endloop
endfacet
facet normal 0.9238795325112867 0.3826834323650904 -4.846791256060823e-16
  outer loop
    vertex 3.614359353944899 4.2 1.9999999999999998
    vertex 3.4545186779374903 4.585889527835967 0.9999999999999999
    vertex 3.454518677937492 4.585889527835967 1.9999999999999998
  endloop
endfacet
facet normal 0.9914448613738105 0.13052619222005155 -5.233755488781789e-16
  outer loop
    vertex 3.4 5.0 0.9999999999999999
    vertex 3.454518677937492 4.585889527835967 1.9999999999999998
    vertex 3.4545186779374903 4.585889527835967 0.9999999999999999
  endloop
endfacet
facet normal 0.9914448613738105 0.13052619222005155 -5.233755488781789e-16
  outer loop
    vertex 3.454518677937492 4.585889527835967 1.9999999999999998
    vertex 3.4 5.0 0.9999999999999999
    vertex 3.400000000000001 5.0 1.9999999999999998
  endloop
endfacet
facet normal 0.9914448613738105 -0.1305261922200523 -3.717422742205621e-16
  outer loop
    vertex 3.4545186779374912 5.414110472164034 0.9999999999999999
    vertex 3.400000000000001 5.0 1.9999999999999998
    vertex 3.4 5.0 0.9999999999999999
  endloop
endfacet
facet normal 0.9914448613738105 -0.1305261922200523 -3.717422742205621e-16
  outer loop
    vertex 3.400000000000001 5.0 1.9999999999999998
    vertex 3.4545186779374912 5.414110472164034 0.9999999999999999
    vertex 3.454518677937492 5.414110472164033 1.9999999999999998
  endloop
endfacet
facet normal 0.9238795325112868 -0.3826834323650896 -4.603058730079225e-16
  outer loop
    vertex 3.4545186779374912 5.414110472164034 0.9999999999999999
    vertex 3.614359353944899 5.8 1.9999999999999998
    vertex 3.454518677937492 5.414110472164033 1.9999999999999998
  endloop
endfacet
facet normal 0.9238795325112868 -0.3826834323650896 -4.603058730079225e-16
  outer loop
    vertex 3.614359353944899 5.8 1.9999999999999998
    vertex 3.4545186779374912 5.414110472164034 0.9999999999999999
    vertex 3.6143593539448986 5.800000000000001 0.9999999999999999
  endloop
endfacet
facet normal 0.7933533402912347 -0.6087614290087213 -3.839236344159395e-16
  outer loop
    vertex 3.6143593539448986 5.800000000000001 0.9999999999999999
    vertex 3.8686291501015253 6.1313708498984765 1.9999999999999998
    vertex 3.614359353944899 5.8 1.9999999999999998
  endloop
endfacet
facet normal 0.7933533402912347 -0.6087614290087213 -3.839236344159395e-16
  outer loop
    vertex 3.8686291501015253 6.1313708498984765 1.9999999999999998
    vertex 3.6143593539448986 5.800000000000001 0.9999999999999999
    vertex 3.8686291501015244 6.1313708498984765 0.9999999999999999
  endloop
endfacet
facet normal 0.6087614290087202 -0.7933533402912355 -3.8392363441593954e-16
  outer loop
    vertex 4.200000000000001 6.3856406460551005 1.9999999999999998
    vertex 3.8686291501015244 6.1313708498984765 0.9999999999999999
    vertex 4.200000000000001 6.385640646055102 0.9999999999999999
  endloop
endfacet
facet normal 0.6087614290087202 -0.7933533402912355 -3.8392363441593954e-16
  outer loop
    vertex 3.8686291501015244 6.1313708498984765 0.9999999999999999
    vertex 4.200000000000001 6.3856406460551005 1.9999999999999998
    vertex 3.8686291501015253 6.1313708498984765 1.9999999999999998
  endloop
endfacet
facet normal 0.38268343236509106 -0.9238795325112864 -3.271584097841054e-16
  outer loop
    vertex 4.585889527835968 6.54548132206251 1.9999999999999998
    vertex 4.200000000000001 6.385640646055102 0.9999999999999999
    vertex 4.585889527835968 6.54548132206251 0.9999999999999999
  endloop
endfacet
facet normal 0.38268343236509106 -0.9238795325112864 -3.271584097841054e-16
  outer loop
    vertex 4.200000000000001 6.385640646055102 0.9999999999999999
    vertex 4.585889527835968 6.54548132206251 1.9999999999999998
    vertex 4.200000000000001 6.3856406460551005 1.9999999999999998
  endloop
endfacet
facet normal 0.1305261922200507 -0.9914448613738105 -3.4891703258545267e-16
  outer loop
    vertex 5.000000000000001 6.599999999999999 1.9999999999999998
    vertex 4.585889527835968 6.54548132206251 0.9999999999999999
    vertex 5.000000000000001 6.6000000000000005 0.9999999999999999
  endloop
endfacet
facet normal 0.1305261922200507 -0.9914448613738105 -3.4891703258545267e-16
  outer loop
    vertex 4.585889527835968 6.54548132206251 0.9999999999999999
    vertex 5.000000000000001 6.599999999999999 1.9999999999999998
    vertex 4.585889527835968 6.54548132206251 1.9999999999999998
  endloop
endfacet
facet normal 0.8555638108430113 0.5176973687163035 0.0
  outer loop
    vertex 1.7006973589474836 4.93216134771473 1.9999999999999998
    vertex 3.4090986757112844 2.108800771932794 4.299999999999999
    vertex 3.4090986757112844 2.108800771932794 1.9999999999999998
  endloop
endfacet
facet normal 0.8555638108430113 0.5176973687163035 0.0
  outer loop
    vertex 3.4090986757112844 2.108800771932794 4.299999999999999
    vertex 1.7006973589474836 4.93216134771473 1.9999999999999998
    vertex 1.7006973589474836 4.93216134771473 4.299999999999999
  endloop
endfacet
facet normal -1.0 0.0 0.0
  outer loop
    vertex 0.0 10.0 3.318952624787358
    vertex 0.0 0.0 0.9999999999999999
    vertex 0.0 0.0 2.652430921239469
  endloop
endfacet
facet normal -1.0 0.0 0.0
  outer loop
    vertex 0.0 0.0 0.9999999999999999
    vertex 0.0 10.0 3.318952624787358
    vertex 0.0 10.0 0.9999999999999999
  endloop
endfacet
facet normal -1.0 0.0 0.0
  outer loop
    vertex 0.0 10.0 0.9999999999999999
    vertex 0.0 10.0 3.318952624787358
    vertex 0.0 10.0 1.9999999999999998
  endloop
endfacet
facet normal -1.0 0.0 0.0
  outer loop
    vertex 0.0 10.0 5.3
    vertex 0.0 0.0 2.652430921239469
    vertex 0.0 0.0 5.3
  endloop
endfacet
facet normal -1.0 0.0 0.0
  outer loop
    vertex 0.0 0.0 2.652430921239469
    vertex 0.0 10.0 5.3
    vertex 0.0 10.0 3.318952624787358
  endloop
endfacet
endsolid nut_enbedding2
