solid ring2
facet normal 0.6087614290087211 0.7933533402912348 0.0
  outer loop
    vertex 8.506086999999999 8.03108891324553 15.0
    vertex 9.230960734152914 7.474873734152911 0.0
    vertex 8.506086999999999 8.03108891324553 0.0
  endloop
endfacet
facet normal 0.6087614290087211 0.7933533402912348 0.0
  outer loop
    vertex 9.230960734152914 7.474873734152911 0.0
    vertex 8.506086999999999 8.03108891324553 15.0
    vertex 9.230960734152914 7.474873734152911 15.0
  endloop
endfacet
facet normal -1.0 0.0 0.0
  outer loop
    vertex 0.0 5.0 3.0
    vertex 0.0 0.0 0.0
    vertex 0.0 0.0 3.0
  endloop
endfacet
facet normal -1.0 0.0 0.0
  outer loop
    vertex 0.0 0.0 0.0
    vertex 0.0 5.0 3.0
    vertex 0.0 5.0 0.0
  endloop
endfacet
facet normal 0.0 0.0 -1.0
  outer loop
    vertex 3.2560869999999973 5.0 0.0
    vertex 0.0 0.0 0.0
    vertex 0.0 5.0 0.0
  endloop
endfacet
facet normal 0.0 0.0 -1.0
  outer loop
    vertex 0.0 0.0 0.0
    vertex 3.2560869999999973 5.0 0.0
    vertex 3.375346607988267 4.09413334214118 0.0
  endloop
endfacet
facet normal 0.0 0.0 -1.0
  outer loop
    vertex 0.0 0.0 0.0
    vertex 3.375346607988267 4.09413334214118 0.0
    vertex 3.724998086754451 3.250000000000004 0.0
  endloop
endfacet
facet normal 0.0 0.0 -1.0
  outer loop
    vertex 0.0 0.0 0.0
    vertex 3.724998086754451 3.250000000000004 0.0
    vertex 4.281213265847068 2.525126265847089 0.0
  endloop
endfacet
facet normal 0.0 0.0 -1.0
  outer loop
    vertex 0.0 0.0 0.0
    vertex 4.281213265847068 2.525126265847089 0.0
    vertex 5.006086999999983 1.9689110867544706 0.0
  endloop
endfacet
facet normal 0.0 0.0 -1.0
  outer loop
    vertex 0.0 0.0 0.0
    vertex 5.006086999999983 1.9689110867544706 0.0
    vertex 5.850220342141167 1.6192596079882668 0.0
  endloop
endfacet
facet normal 0.0 0.0 -1.0
  outer loop
    vertex 0.0 0.0 0.0
    vertex 5.850220342141167 1.6192596079882668 0.0
    vertex 14.256086999999978 0.0 0.0
  endloop
endfacet
facet normal 0.0 0.0 -1.0
  outer loop
    vertex 14.256086999999978 0.0 0.0
    vertex 5.850220342141167 1.6192596079882668 0.0
    vertex 6.756086999999991 1.5000000000000058 0.0
  endloop
endfacet
facet normal 0.0 0.0 -1.0
  outer loop
    vertex 14.256086999999978 0.0 0.0
    vertex 6.756086999999991 1.5000000000000058 0.0
    vertex 7.661953657858815 1.6192596079882662 0.0
  endloop
endfacet
facet normal 0.0 0.0 -1.0
  outer loop
    vertex 14.256086999999978 0.0 0.0
    vertex 7.661953657858815 1.6192596079882662 0.0
    vertex 8.506086999999976 1.968911086754468 0.0
  endloop
endfacet
facet normal 0.0 0.0 -1.0
  outer loop
    vertex 14.256086999999978 0.0 0.0
    vertex 8.506086999999976 1.968911086754468 0.0
    vertex 9.230960734152891 2.5251262658470868 0.0
  endloop
endfacet
facet normal 0.0 0.0 -1.0
  outer loop
    vertex 14.256086999999978 0.0 0.0
    vertex 9.230960734152891 2.5251262658470868 0.0
    vertex 9.78717591324553 3.250000000000001 0.0
  endloop
endfacet
facet normal 0.0 0.0 -1.0
  outer loop
    vertex 14.256086999999978 0.0 0.0
    vertex 9.78717591324553 3.250000000000001 0.0
    vertex 10.136827392011714 4.094133342141175 0.0
  endloop
endfacet
facet normal 0.0 0.0 -1.0
  outer loop
    vertex 14.256086999999978 0.0 0.0
    vertex 10.136827392011714 4.094133342141175 0.0
    vertex 10.256086999999985 4.999999999999999 0.0
  endloop
endfacet
facet normal 0.0 0.0 -1.0
  outer loop
    vertex 14.256086999999978 0.0 0.0
    vertex 10.256086999999985 4.999999999999999 0.0
    vertex 14.256086999999978 4.999999999999999 0.0
  endloop
endfacet
facet normal 0.9238795325112942 0.38268343236507213 0.0
  outer loop
    vertex 9.78717591324553 6.7499999999999964 0.0
    vertex 10.136827392011714 5.90586665785882 15.0
    vertex 10.136827392011714 5.90586665785882 0.0
  endloop
endfacet
facet normal 0.9238795325112942 0.38268343236507213 0.0
  outer loop
    vertex 10.136827392011714 5.90586665785882 15.0
    vertex 9.78717591324553 6.7499999999999964 0.0
    vertex 9.78717591324553 6.7499999999999964 15.0
  endloop
endfacet
facet normal -0.793353340291235 0.6087614290087208 -0.0
  outer loop
    vertex 4.281213265847068 7.474873734152911 15.0
    vertex 3.724998086754451 6.749999999999997 0.0
    vertex 3.724998086754451 6.749999999999997 15.0
  endloop
endfacet
facet normal -0.793353340291235 0.6087614290087208 -0.0
  outer loop
    vertex 3.724998086754451 6.749999999999997 0.0
    vertex 4.281213265847068 7.474873734152911 15.0
    vertex 4.281213265847068 7.474873734152911 0.0
  endloop
endfacet
facet normal -0.1305261922200508 0.9914448613738105 -0.0
  outer loop
    vertex 5.850220342141167 8.380740392011731 15.0
    vertex 6.756086999999991 8.499999999999993 0.0
    vertex 5.850220342141167 8.380740392011731 0.0
  endloop
endfacet
facet normal -0.1305261922200508 0.9914448613738105 -0.0
  outer loop
    vertex 6.756086999999991 8.499999999999993 0.0
    vertex 5.850220342141167 8.380740392011731 15.0
    vertex 6.756086999999991 8.499999999999993 15.0
  endloop
endfacet
facet normal -0.6087614290087092 0.793353340291244 -0.0
  outer loop
    vertex 4.281213265847068 7.474873734152911 15.0
    vertex 5.006087000000005 8.03108891324553 0.0
    vertex 4.281213265847068 7.474873734152911 0.0
  endloop
endfacet
facet normal -0.6087614290087092 0.793353340291244 -0.0
  outer loop
    vertex 5.006087000000005 8.03108891324553 0.0
    vertex 4.281213265847068 7.474873734152911 15.0
    vertex 5.006087000000005 8.03108891324553 15.0
  endloop
endfacet
facet normal -0.9238795325112942 0.38268343236507196 -0.0
  outer loop
    vertex 3.724998086754451 6.749999999999997 15.0
    vertex 3.375346607988267 5.905866657858821 0.0
    vertex 3.375346607988267 5.905866657858821 15.0
  endloop
endfacet
facet normal -0.9238795325112942 0.38268343236507196 -0.0
  outer loop
    vertex 3.375346607988267 5.905866657858821 0.0
    vertex 3.724998086754451 6.749999999999997 15.0
    vertex 3.724998086754451 6.749999999999997 0.0
  endloop
endfacet
facet normal -0.38268343236509533 0.9238795325112845 -0.0
  outer loop
    vertex 5.006087000000005 8.03108891324553 15.0
    vertex 5.850220342141167 8.380740392011731 0.0
    vertex 5.006087000000005 8.03108891324553 0.0
  endloop
endfacet
facet normal -0.38268343236509533 0.9238795325112845 -0.0
  outer loop
    vertex 5.850220342141167 8.380740392011731 0.0
    vertex 5.006087000000005 8.03108891324553 15.0
    vertex 5.850220342141167 8.380740392011731 15.0
  endloop
endfacet
facet normal -0.0 -0.0 1.0
  outer loop
    vertex 3.375346607988267 4.09413334214118 15.0
    vertex 3.375346607988267 5.905866657858821 15.0
    vertex 3.2560869999999973 5.0 15.0
  endloop
endfacet
facet normal -0.0 -0.0 1.0
  outer loop
    vertex 3.375346607988267 5.905866657858821 15.0
    vertex 3.375346607988267 4.09413334214118 15.0
    vertex 3.724998086754451 3.250000000000004 15.0
  endloop
endfacet
facet normal -0.0 -0.0 1.0
  outer loop
    vertex 3.375346607988267 5.905866657858821 15.0
    vertex 3.724998086754451 3.250000000000004 15.0
    vertex 3.724998086754451 6.749999999999997 15.0
  endloop
endfacet
facet normal -0.0 -0.0 1.0
  outer loop
    vertex 3.724998086754451 6.749999999999997 15.0
    vertex 3.724998086754451 3.250000000000004 15.0
    vertex 4.281213265847068 2.525126265847089 15.0
  endloop
endfacet
facet normal -0.0 -0.0 1.0
  outer loop
    vertex 3.724998086754451 6.749999999999997 15.0
    vertex 4.281213265847068 2.525126265847089 15.0
    vertex 4.281213265847068 7.474873734152911 15.0
  endloop
endfacet
facet normal -0.0 -0.0 1.0
  outer loop
    vertex 4.281213265847068 7.474873734152911 15.0
    vertex 4.281213265847068 2.525126265847089 15.0
    vertex 5.006086999999983 1.9689110867544706 15.0
  endloop
endfacet
facet normal -0.0 -0.0 1.0
  outer loop
    vertex 4.281213265847068 7.474873734152911 15.0
    vertex 5.006086999999983 1.9689110867544706 15.0
    vertex 5.006087000000005 8.03108891324553 15.0
  endloop
endfacet
facet normal -0.0 -0.0 1.0
  outer loop
    vertex 5.006087000000005 8.03108891324553 15.0
    vertex 5.006086999999983 1.9689110867544706 15.0
    vertex 5.850220342141167 1.6192596079882668 15.0
  endloop
endfacet
facet normal -0.0 -0.0 1.0
  outer loop
    vertex 5.006087000000005 8.03108891324553 15.0
    vertex 5.850220342141167 1.6192596079882668 15.0
    vertex 5.850220342141167 8.380740392011731 15.0
  endloop
endfacet
facet normal -0.0 -0.0 1.0
  outer loop
    vertex 5.850220342141167 8.380740392011731 15.0
    vertex 5.850220342141167 1.6192596079882668 15.0
    vertex 6.756086999999991 1.5000000000000058 15.0
  endloop
endfacet
facet normal -0.0 -0.0 1.0
  outer loop
    vertex 5.850220342141167 8.380740392011731 15.0
    vertex 6.756086999999991 1.5000000000000058 15.0
    vertex 6.756086999999991 8.499999999999993 15.0
  endloop
endfacet
facet normal -0.0 -0.0 1.0
  outer loop
    vertex 6.756086999999991 8.499999999999993 15.0
    vertex 6.756086999999991 1.5000000000000058 15.0
    vertex 7.661953657858815 1.6192596079882662 15.0
  endloop
endfacet
facet normal -0.0 -0.0 1.0
  outer loop
    vertex 6.756086999999991 8.499999999999993 15.0
    vertex 7.661953657858815 1.6192596079882662 15.0
    vertex 7.661953657858815 8.380740392011731 15.0
  endloop
endfacet
facet normal -0.0 -0.0 1.0
  outer loop
    vertex 7.661953657858815 8.380740392011731 15.0
    vertex 7.661953657858815 1.6192596079882662 15.0
    vertex 8.506086999999976 1.968911086754468 15.0
  endloop
endfacet
facet normal -0.0 -0.0 1.0
  outer loop
    vertex 7.661953657858815 8.380740392011731 15.0
    vertex 8.506086999999976 1.968911086754468 15.0
    vertex 8.506086999999999 8.03108891324553 15.0
  endloop
endfacet
facet normal -0.0 -0.0 1.0
  outer loop
    vertex 8.506086999999999 8.03108891324553 15.0
    vertex 8.506086999999976 1.968911086754468 15.0
    vertex 9.230960734152891 2.5251262658470868 15.0
  endloop
endfacet
facet normal -0.0 -0.0 1.0
  outer loop
    vertex 8.506086999999999 8.03108891324553 15.0
    vertex 9.230960734152891 2.5251262658470868 15.0
    vertex 9.230960734152914 7.474873734152911 15.0
  endloop
endfacet
facet normal -0.0 -0.0 1.0
  outer loop
    vertex 9.230960734152914 7.474873734152911 15.0
    vertex 9.230960734152891 2.5251262658470868 15.0
    vertex 9.78717591324553 3.250000000000001 15.0
  endloop
endfacet
facet normal -0.0 -0.0 1.0
  outer loop
    vertex 9.230960734152914 7.474873734152911 15.0
    vertex 9.78717591324553 3.250000000000001 15.0
    vertex 9.78717591324553 6.7499999999999964 15.0
  endloop
endfacet
facet normal -0.0 -0.0 1.0
  outer loop
    vertex 9.78717591324553 6.7499999999999964 15.0
    vertex 9.78717591324553 3.250000000000001 15.0
    vertex 10.136827392011714 4.094133342141175 15.0
  endloop
endfacet
facet normal -0.0 -0.0 1.0
  outer loop
    vertex 9.78717591324553 6.7499999999999964 15.0
    vertex 10.136827392011714 4.094133342141175 15.0
    vertex 10.136827392011714 5.90586665785882 15.0
  endloop
endfacet
facet normal -0.0 -0.0 1.0
  outer loop
    vertex 10.136827392011714 5.90586665785882 15.0
    vertex 10.136827392011714 4.094133342141175 15.0
    vertex 10.256086999999985 4.999999999999999 15.0
  endloop
endfacet
facet normal -0.0 -1.0 -0.0
  outer loop
    vertex 14.256086999999978 0.0 3.0
    vertex 0.0 0.0 0.0
    vertex 14.256086999999978 0.0 0.0
  endloop
endfacet
facet normal -0.0 -1.0 -0.0
  outer loop
    vertex 0.0 0.0 0.0
    vertex 14.256086999999978 0.0 3.0
    vertex 0.0 0.0 3.0
  endloop
endfacet
facet normal 0.0 1.0 0.0
  outer loop
    vertex 10.256086999999985 4.999999999999999 3.0
    vertex 14.256086999999978 4.999999999999999 0.0
    vertex 10.256086999999985 4.999999999999999 0.0
  endloop
endfacet
facet normal 0.0 1.0 0.0
  outer loop
    vertex 14.256086999999978 4.999999999999999 0.0
    vertex 10.256086999999985 4.999999999999999 3.0
    vertex 14.256086999999978 4.999999999999999 3.0
  endloop
endfacet
facet normal 0.7933533402912355 0.6087614290087202 0.0
  outer loop
    vertex 9.230960734152914 7.474873734152911 0.0
    vertex 9.78717591324553 6.7499999999999964 15.0
    vertex 9.78717591324553 6.7499999999999964 0.0
  endloop
endfacet
facet normal 0.7933533402912355 0.6087614290087202 0.0
  outer loop
    vertex 9.78717591324553 6.7499999999999964 15.0
    vertex 9.230960734152914 7.474873734152911 0.0
    vertex 9.230960734152914 7.474873734152911 15.0
  endloop
endfacet
facet normal 1.0 0.0 0.0
  outer loop
    vertex 14.256086999999978 4.999999999999999 0.0
    vertex 14.256086999999978 0.0 3.0
    vertex 14.256086999999978 0.0 0.0
  endloop
endfacet
facet normal 1.0 0.0 0.0
  outer loop
    vertex 14.256086999999978 0.0 3.0
    vertex 14.256086999999978 4.999999999999999 0.0
    vertex 14.256086999999978 4.999999999999999 3.0
  endloop
endfacet
facet normal 0.0 1.0 0.0
  outer loop
    vertex 0.0 5.0 3.0
    vertex 3.2560869999999973 5.0 0.0
    vertex 0.0 5.0 0.0
  endloop
endfacet
facet normal 0.0 1.0 0.0
  outer loop
    vertex 3.2560869999999973 5.0 0.0
    vertex 0.0 5.0 3.0
    vertex 3.2560869999999973 5.0 3.0
  endloop
endfacet
facet normal 0.9914448613738093 0.13052619222006112 0.0
  outer loop
    vertex 10.136827392011714 5.90586665785882 0.0
    vertex 10.256086999999985 4.999999999999999 3.0
    vertex 10.256086999999985 4.999999999999999 0.0
  endloop
endfacet
facet normal 0.9914448613738093 0.13052619222006112 0.0
  outer loop
    vertex 10.256086999999985 4.999999999999999 3.0
    vertex 10.136827392011714 5.90586665785882 0.0
    vertex 10.256086999999985 4.999999999999999 15.0
  endloop
endfacet
facet normal 0.9914448613738093 0.13052619222006112 0.0
  outer loop
    vertex 10.256086999999985 4.999999999999999 15.0
    vertex 10.136827392011714 5.90586665785882 0.0
    vertex 10.136827392011714 5.90586665785882 15.0
  endloop
endfacet
facet normal 0.0 0.0 1.0
  outer loop
    vertex 0.0 0.0 3.0
    vertex 5.006086999999983 1.9689110867544706 3.0
    vertex 0.0 5.0 3.0
  endloop
endfacet
facet normal 0.0 0.0 1.0
  outer loop
    vertex 5.006086999999983 1.9689110867544706 3.0
    vertex 0.0 0.0 3.0
    vertex 5.850220342141167 1.6192596079882668 3.0
  endloop
endfacet
facet normal 0.0 0.0 1.0
  outer loop
    vertex 5.850220342141167 1.6192596079882668 3.0
    vertex 0.0 0.0 3.0
    vertex 14.256086999999978 0.0 3.0
  endloop
endfacet
facet normal 0.0 0.0 1.0
  outer loop
    vertex 0.0 5.0 3.0
    vertex 5.006086999999983 1.9689110867544706 3.0
    vertex 4.281213265847068 2.525126265847089 3.0
  endloop
endfacet
facet normal 0.0 0.0 1.0
  outer loop
    vertex 0.0 5.0 3.0
    vertex 4.281213265847068 2.525126265847089 3.0
    vertex 3.724998086754451 3.250000000000004 3.0
  endloop
endfacet
facet normal 0.0 0.0 1.0
  outer loop
    vertex 0.0 5.0 3.0
    vertex 3.724998086754451 3.250000000000004 3.0
    vertex 3.375346607988267 4.09413334214118 3.0
  endloop
endfacet
facet normal 0.0 0.0 1.0
  outer loop
    vertex 0.0 5.0 3.0
    vertex 3.375346607988267 4.09413334214118 3.0
    vertex 3.2560869999999973 5.0 3.0
  endloop
endfacet
facet normal 0.0 0.0 1.0
  outer loop
    vertex 5.850220342141167 1.6192596079882668 3.0
    vertex 14.256086999999978 0.0 3.0
    vertex 6.756086999999991 1.5000000000000058 3.0
  endloop
endfacet
facet normal 0.0 0.0 1.0
  outer loop
    vertex 6.756086999999991 1.5000000000000058 3.0
    vertex 14.256086999999978 0.0 3.0
    vertex 7.661953657858815 1.6192596079882662 3.0
  endloop
endfacet
facet normal 0.0 0.0 1.0
  outer loop
    vertex 7.661953657858815 1.6192596079882662 3.0
    vertex 14.256086999999978 0.0 3.0
    vertex 8.506086999999976 1.968911086754468 3.0
  endloop
endfacet
facet normal 0.0 0.0 1.0
  outer loop
    vertex 8.506086999999976 1.968911086754468 3.0
    vertex 14.256086999999978 0.0 3.0
    vertex 9.230960734152891 2.5251262658470868 3.0
  endloop
endfacet
facet normal 0.0 0.0 1.0
  outer loop
    vertex 9.230960734152891 2.5251262658470868 3.0
    vertex 14.256086999999978 0.0 3.0
    vertex 9.78717591324553 3.250000000000001 3.0
  endloop
endfacet
facet normal 0.0 0.0 1.0
  outer loop
    vertex 9.78717591324553 3.250000000000001 3.0
    vertex 14.256086999999978 0.0 3.0
    vertex 10.136827392011714 4.094133342141175 3.0
  endloop
endfacet
facet normal 0.0 0.0 1.0
  outer loop
    vertex 10.136827392011714 4.094133342141175 3.0
    vertex 14.256086999999978 0.0 3.0
    vertex 10.256086999999985 4.999999999999999 3.0
  endloop
endfacet
facet normal 0.0 0.0 1.0
  outer loop
    vertex 10.256086999999985 4.999999999999999 3.0
    vertex 14.256086999999978 0.0 3.0
    vertex 14.256086999999978 4.999999999999999 3.0
  endloop
endfacet
facet normal 0.382683432365094 -0.923879532511285 0.0
  outer loop
    vertex 8.506086999999976 1.968911086754468 15.0
    vertex 7.661953657858815 1.6192596079882662 3.0
    vertex 8.506086999999976 1.968911086754468 3.0
  endloop
endfacet
facet normal 0.382683432365094 -0.923879532511285 0.0
  outer loop
    vertex 7.661953657858815 1.6192596079882662 3.0
    vertex 8.506086999999976 1.968911086754468 15.0
    vertex 7.661953657858815 1.6192596079882662 15.0
  endloop
endfacet
facet normal -0.38268343236508723 -0.9238795325112877 -0.0
  outer loop
    vertex 5.850220342141167 1.6192596079882668 15.0
    vertex 5.006086999999983 1.9689110867544706 3.0
    vertex 5.850220342141167 1.6192596079882668 3.0
  endloop
endfacet
facet normal -0.38268343236508723 -0.9238795325112877 -0.0
  outer loop
    vertex 5.006086999999983 1.9689110867544706 3.0
    vertex 5.850220342141167 1.6192596079882668 15.0
    vertex 5.006086999999983 1.9689110867544706 15.0
  endloop
endfacet
facet normal -0.13052619222005155 -0.9914448613738105 -0.0
  outer loop
    vertex 6.756086999999991 1.5000000000000058 15.0
    vertex 5.850220342141167 1.6192596079882668 3.0
    vertex 6.756086999999991 1.5000000000000058 3.0
  endloop
endfacet
facet normal -0.13052619222005155 -0.9914448613738105 -0.0
  outer loop
    vertex 5.850220342141167 1.6192596079882668 3.0
    vertex 6.756086999999991 1.5000000000000058 15.0
    vertex 5.850220342141167 1.6192596079882668 15.0
  endloop
endfacet
facet normal 0.1305261922200508 -0.9914448613738105 0.0
  outer loop
    vertex 7.661953657858815 1.6192596079882662 15.0
    vertex 6.756086999999991 1.5000000000000058 3.0
    vertex 7.661953657858815 1.6192596079882662 3.0
  endloop
endfacet
facet normal 0.1305261922200508 -0.9914448613738105 0.0
  outer loop
    vertex 6.756086999999991 1.5000000000000058 3.0
    vertex 7.661953657858815 1.6192596079882662 15.0
    vertex 6.756086999999991 1.5000000000000058 15.0
  endloop
endfacet
facet normal 0.9914448613738094 -0.13052619222006065 0.0
  outer loop
    vertex 10.256086999999985 4.999999999999999 3.0
    vertex 10.136827392011714 4.094133342141175 15.0
    vertex 10.136827392011714 4.094133342141175 3.0
  endloop
endfacet
facet normal 0.9914448613738094 -0.13052619222006065 0.0
  outer loop
    vertex 10.136827392011714 4.094133342141175 15.0
    vertex 10.256086999999985 4.999999999999999 3.0
    vertex 10.256086999999985 4.999999999999999 15.0
  endloop
endfacet
facet normal 0.7933533402912233 -0.6087614290087361 0.0
  outer loop
    vertex 9.78717591324553 3.250000000000001 3.0
    vertex 9.230960734152891 2.5251262658470868 15.0
    vertex 9.230960734152891 2.5251262658470868 3.0
  endloop
endfacet
facet normal 0.7933533402912233 -0.6087614290087361 0.0
  outer loop
    vertex 9.230960734152891 2.5251262658470868 15.0
    vertex 9.78717591324553 3.250000000000001 3.0
    vertex 9.78717591324553 3.250000000000001 15.0
  endloop
endfacet
facet normal -0.6087614290087211 -0.7933533402912348 -0.0
  outer loop
    vertex 5.006086999999983 1.9689110867544706 15.0
    vertex 4.281213265847068 2.525126265847089 3.0
    vertex 5.006086999999983 1.9689110867544706 3.0
  endloop
endfacet
facet normal -0.6087614290087211 -0.7933533402912348 -0.0
  outer loop
    vertex 4.281213265847068 2.525126265847089 3.0
    vertex 5.006086999999983 1.9689110867544706 15.0
    vertex 4.281213265847068 2.525126265847089 15.0
  endloop
endfacet
facet normal -0.9238795325112942 -0.38268343236507196 -0.0
  outer loop
    vertex 3.375346607988267 4.09413334214118 15.0
    vertex 3.724998086754451 3.250000000000004 3.0
    vertex 3.724998086754451 3.250000000000004 15.0
  endloop
endfacet
facet normal -0.9238795325112942 -0.38268343236507196 -0.0
  outer loop
    vertex 3.724998086754451 3.250000000000004 3.0
    vertex 3.375346607988267 4.09413334214118 15.0
    vertex 3.375346607988267 4.09413334214118 3.0
  endloop
endfacet
facet normal -0.7933533402912354 -0.6087614290087204 -0.0
  outer loop
    vertex 3.724998086754451 3.250000000000004 15.0
    vertex 4.281213265847068 2.525126265847089 3.0
    vertex 4.281213265847068 2.525126265847089 15.0
  endloop
endfacet
facet normal -0.7933533402912354 -0.6087614290087204 -0.0
  outer loop
    vertex 4.281213265847068 2.525126265847089 3.0
    vertex 3.724998086754451 3.250000000000004 15.0
    vertex 3.724998086754451 3.250000000000004 3.0
  endloop
endfacet
facet normal 0.9238795325112938 -0.38268343236507263 0.0
  outer loop
    vertex 10.136827392011714 4.094133342141175 3.0
    vertex 9.78717591324553 3.250000000000001 15.0
    vertex 9.78717591324553 3.250000000000001 3.0
  endloop
endfacet
facet normal 0.9238795325112938 -0.38268343236507263 0.0
  outer loop
    vertex 9.78717591324553 3.250000000000001 15.0
    vertex 10.136827392011714 4.094133342141175 3.0
    vertex 10.136827392011714 4.094133342141175 15.0
  endloop
endfacet
facet normal 0.6087614290087215 -0.7933533402912344 0.0
  outer loop
    vertex 9.230960734152891 2.5251262658470868 15.0
    vertex 8.506086999999976 1.968911086754468 3.0
    vertex 9.230960734152891 2.5251262658470868 3.0
  endloop
endfacet
facet normal 0.6087614290087215 -0.7933533402912344 0.0
  outer loop
    vertex 8.506086999999976 1.968911086754468 3.0
    vertex 9.230960734152891 2.5251262658470868 15.0
    vertex 8.506086999999976 1.968911086754468 15.0
  endloop
endfacet
facet normal -0.9914448613738093 0.130526192220061 -0.0
  outer loop
    vertex 3.375346607988267 5.905866657858821 15.0
    vertex 3.2560869999999973 5.0 3.0
    vertex 3.2560869999999973 5.0 15.0
  endloop
endfacet
facet normal -0.9914448613738093 0.130526192220061 -0.0
  outer loop
    vertex 3.2560869999999973 5.0 3.0
    vertex 3.375346607988267 5.905866657858821 15.0
    vertex 3.2560869999999973 5.0 0.0
  endloop
endfacet
facet normal -0.9914448613738093 0.130526192220061 -0.0
  outer loop
    vertex 3.2560869999999973 5.0 0.0
    vertex 3.375346607988267 5.905866657858821 15.0
    vertex 3.375346607988267 5.905866657858821 0.0
  endloop
endfacet
facet normal -0.9914448613738093 -0.1305261922200612 -0.0
  outer loop
    vertex 3.2560869999999973 5.0 15.0
    vertex 3.375346607988267 4.09413334214118 3.0
    vertex 3.375346607988267 4.09413334214118 15.0
  endloop
endfacet
facet normal -0.9914448613738093 -0.1305261922200612 -0.0
  outer loop
    vertex 3.375346607988267 4.09413334214118 3.0
    vertex 3.2560869999999973 5.0 15.0
    vertex 3.2560869999999973 5.0 3.0
  endloop
endfacet
facet normal 0.0 0.0 -1.0
  outer loop
    vertex 3.375346607988267 5.905866657858821 0.0
    vertex 3.375346607988267 4.09413334214118 0.0
    vertex 3.2560869999999973 5.0 0.0
  endloop
endfacet
facet normal 0.0 0.0 -1.0
  outer loop
    vertex 3.375346607988267 4.09413334214118 0.0
    vertex 3.375346607988267 5.905866657858821 0.0
    vertex 3.724998086754451 6.749999999999997 0.0
  endloop
endfacet
facet normal 0.0 0.0 -1.0
  outer loop
    vertex 3.375346607988267 4.09413334214118 0.0
    vertex 3.724998086754451 6.749999999999997 0.0
    vertex 3.724998086754451 3.250000000000004 0.0
  endloop
endfacet
facet normal 0.0 0.0 -1.0
  outer loop
    vertex 3.724998086754451 3.250000000000004 0.0
    vertex 3.724998086754451 6.749999999999997 0.0
    vertex 4.281213265847068 7.474873734152911 0.0
  endloop
endfacet
facet normal 0.0 0.0 -1.0
  outer loop
    vertex 3.724998086754451 3.250000000000004 0.0
    vertex 4.281213265847068 7.474873734152911 0.0
    vertex 4.281213265847068 2.525126265847089 0.0
  endloop
endfacet
facet normal 0.0 0.0 -1.0
  outer loop
    vertex 4.281213265847068 2.525126265847089 0.0
    vertex 4.281213265847068 7.474873734152911 0.0
    vertex 5.006087000000005 8.03108891324553 0.0
  endloop
endfacet
facet normal 0.0 0.0 -1.0
  outer loop
    vertex 4.281213265847068 2.525126265847089 0.0
    vertex 5.006087000000005 8.03108891324553 0.0
    vertex 5.006086999999983 1.9689110867544706 0.0
  endloop
endfacet
facet normal 0.0 0.0 -1.0
  outer loop
    vertex 5.006086999999983 1.9689110867544706 0.0
    vertex 5.006087000000005 8.03108891324553 0.0
    vertex 5.850220342141167 1.6192596079882668 0.0
  endloop
endfacet
facet normal 0.0 0.0 -1.0
  outer loop
    vertex 5.850220342141167 1.6192596079882668 0.0
    vertex 5.006087000000005 8.03108891324553 0.0
    vertex 5.850220342141167 8.380740392011731 0.0
  endloop
endfacet
facet normal 0.0 0.0 -1.0
  outer loop
    vertex 5.850220342141167 1.6192596079882668 0.0
    vertex 5.850220342141167 8.380740392011731 0.0
    vertex 6.756086999999991 8.499999999999993 0.0
  endloop
endfacet
facet normal 0.0 0.0 -1.0
  outer loop
    vertex 5.850220342141167 1.6192596079882668 0.0
    vertex 6.756086999999991 8.499999999999993 0.0
    vertex 6.756086999999991 1.5000000000000058 0.0
  endloop
endfacet
facet normal 0.0 0.0 -1.0
  outer loop
    vertex 6.756086999999991 1.5000000000000058 0.0
    vertex 6.756086999999991 8.499999999999993 0.0
    vertex 7.661953657858815 8.380740392011731 0.0
  endloop
endfacet
facet normal 0.0 0.0 -1.0
  outer loop
    vertex 6.756086999999991 1.5000000000000058 0.0
    vertex 7.661953657858815 8.380740392011731 0.0
    vertex 7.661953657858815 1.6192596079882662 0.0
  endloop
endfacet
facet normal 0.0 0.0 -1.0
  outer loop
    vertex 7.661953657858815 1.6192596079882662 0.0
    vertex 7.661953657858815 8.380740392011731 0.0
    vertex 8.506086999999999 8.03108891324553 0.0
  endloop
endfacet
facet normal 0.0 0.0 -1.0
  outer loop
    vertex 7.661953657858815 1.6192596079882662 0.0
    vertex 8.506086999999999 8.03108891324553 0.0
    vertex 8.506086999999976 1.968911086754468 0.0
  endloop
endfacet
facet normal 0.0 0.0 -1.0
  outer loop
    vertex 8.506086999999976 1.968911086754468 0.0
    vertex 8.506086999999999 8.03108891324553 0.0
    vertex 9.230960734152891 2.5251262658470868 0.0
  endloop
endfacet
facet normal 0.0 0.0 -1.0
  outer loop
    vertex 9.230960734152891 2.5251262658470868 0.0
    vertex 8.506086999999999 8.03108891324553 0.0
    vertex 9.230960734152914 7.474873734152911 0.0
  endloop
endfacet
facet normal 0.0 0.0 -1.0
  outer loop
    vertex 9.230960734152891 2.5251262658470868 0.0
    vertex 9.230960734152914 7.474873734152911 0.0
    vertex 9.78717591324553 3.250000000000001 0.0
  endloop
endfacet
facet normal 0.0 0.0 -1.0
  outer loop
    vertex 9.78717591324553 3.250000000000001 0.0
    vertex 9.230960734152914 7.474873734152911 0.0
    vertex 9.78717591324553 6.7499999999999964 0.0
  endloop
endfacet
facet normal 0.0 0.0 -1.0
  outer loop
    vertex 9.78717591324553 3.250000000000001 0.0
    vertex 9.78717591324553 6.7499999999999964 0.0
    vertex 10.136827392011714 5.90586665785882 0.0
  endloop
endfacet
facet normal 0.0 0.0 -1.0
  outer loop
    vertex 9.78717591324553 3.250000000000001 0.0
    vertex 10.136827392011714 5.90586665785882 0.0
    vertex 10.136827392011714 4.094133342141175 0.0
  endloop
endfacet
facet normal 0.0 0.0 -1.0
  outer loop
    vertex 10.136827392011714 4.094133342141175 0.0
    vertex 10.136827392011714 5.90586665785882 0.0
    vertex 10.256086999999985 4.999999999999999 0.0
  endloop
endfacet
facet normal 0.38268343236508623 0.9238795325112882 0.0
  outer loop
    vertex 7.661953657858815 8.380740392011731 15.0
    vertex 8.506086999999999 8.03108891324553 0.0
    vertex 7.661953657858815 8.380740392011731 0.0
  endloop
endfacet
facet normal 0.38268343236508623 0.9238795325112882 0.0
  outer loop
    vertex 8.506086999999999 8.03108891324553 0.0
    vertex 7.661953657858815 8.380740392011731 15.0
    vertex 8.506086999999999 8.03108891324553 15.0
  endloop
endfacet
facet normal 0.13052619222005155 0.9914448613738105 0.0
  outer loop
    vertex 6.756086999999991 8.499999999999993 15.0
    vertex 7.661953657858815 8.380740392011731 0.0
    vertex 6.756086999999991 8.499999999999993 0.0
  endloop
endfacet
facet normal 0.13052619222005155 0.9914448613738105 0.0
  outer loop
    vertex 7.661953657858815 8.380740392011731 0.0
    vertex 6.756086999999991 8.499999999999993 15.0
    vertex 7.661953657858815 8.380740392011731 15.0
  endloop
endfacet
endsolid ring2
