solid wing_print
facet normal 4.939961164435823e-15 0.923879532511287 0.3826834323650895
  outer loop
    vertex 0.004962128873986859 58.669872981077944 12.499999912454287
    vertex 96.00000000011333 58.17037086855466 13.705904686941519
    vertex 96.00000000011333 58.66987298107781 12.499999912454124
  endloop
endfacet
facet normal 4.939961164435823e-15 0.923879532511287 0.3826834323650895
  outer loop
    vertex 96.00000000011333 58.17037086855466 13.705904686941519
    vertex 0.004962128873986859 58.669872981077944 12.499999912454287
    vertex 0.004962128873986859 58.1703708685548 13.705904686941606
  endloop
endfacet
facet normal 1.923963823333145e-15 -0.7933533402912359 0.6087614290087195
  outer loop
    vertex 96.00000000011333 67.3301270189222 12.499999912454129
    vertex 0.004962128874003779 66.53553390593274 11.46446600652159
    vertex 96.00000000011333 66.53553390593274 11.46446600652139
  endloop
endfacet
facet normal 1.923963823333145e-15 -0.7933533402912359 0.6087614290087195
  outer loop
    vertex 0.004962128874003779 66.53553390593274 11.46446600652159
    vertex 96.00000000011333 67.3301270189222 12.499999912454129
    vertex 0.004962128874003779 67.33012701892218 12.49999991245433
  endloop
endfacet
facet normal -9.892474905326755e-15 -0.3826834323650891 0.9238795325112872
  outer loop
    vertex 96.00000000011333 64.2940952255126 10.170370781008783
    vertex 0.0049621288739699395 65.5 10.669872893531068
    vertex 0.0049621288739699395 64.2940952255126 10.170370781007916
  endloop
endfacet
facet normal -9.892474905326755e-15 -0.3826834323650891 0.9238795325112872
  outer loop
    vertex 0.0049621288739699395 65.5 10.669872893531068
    vertex 96.00000000011333 64.2940952255126 10.170370781008783
    vertex 96.00000000011333 65.5 10.669872893531934
  endloop
endfacet
facet normal -1.0615933209923944e-14 -0.13052619222005188 0.9914448613738104
  outer loop
    vertex 96.00000000011333 63.0 9.999999912454125
    vertex 0.0049621288739699395 64.2940952255126 10.170370781007916
    vertex 0.0049621288739699395 63.0 9.999999912453259
  endloop
endfacet
facet normal -1.0615933209923944e-14 -0.13052619222005188 0.9914448613738104
  outer loop
    vertex 0.0049621288739699395 64.2940952255126 10.170370781007916
    vertex 96.00000000011333 63.0 9.999999912454125
    vertex 96.00000000011333 64.2940952255126 10.170370781008783
  endloop
endfacet
facet normal -4.202174589591939e-15 -0.608761429008995 0.7933533402910248
  outer loop
    vertex 96.00000000011333 65.5 10.669872893531934
    vertex 0.0049621288739699395 65.66958494684359 10.799999999999132
    vertex 0.0049621288739699395 65.5 10.669872893531068
  endloop
endfacet
facet normal -4.202174589591939e-15 -0.608761429008995 0.7933533402910248
  outer loop
    vertex 0.0049621288739699395 65.66958494684359 10.799999999999132
    vertex 96.00000000011333 65.5 10.669872893531934
    vertex 0.004962128874003779 66.53553390593274 11.46446600652159
  endloop
endfacet
facet normal -4.202174589591939e-15 -0.608761429008995 0.7933533402910248
  outer loop
    vertex 0.004962128874003779 66.53553390593274 11.46446600652159
    vertex 96.00000000011333 65.5 10.669872893531934
    vertex 96.00000000011332 65.66958494684359 10.8
  endloop
endfacet
facet normal -4.202174589591939e-15 -0.608761429008995 0.7933533402910248
  outer loop
    vertex 96.00000000011333 66.53553390593274 11.46446600652139
    vertex 0.004962128874003779 66.53553390593274 11.46446600652159
    vertex 96.00000000011332 65.66958494684359 10.8
  endloop
endfacet
facet normal 4.902005521741106e-15 0.7933533402912352 0.6087614290087205
  outer loop
    vertex 0.004962128873986859 59.4644660940674 11.46446600652155
    vertex 96.00000000011333 58.66987298107781 12.499999912454124
    vertex 96.00000000011333 59.46446609406726 11.464466006521386
  endloop
endfacet
facet normal 4.902005521741106e-15 0.7933533402912352 0.6087614290087205
  outer loop
    vertex 96.00000000011333 58.66987298107781 12.499999912454124
    vertex 0.004962128873986859 59.4644660940674 11.46446600652155
    vertex 0.004962128873986859 58.669872981077944 12.499999912454287
  endloop
endfacet
facet normal 0.0 0.0 1.0
  outer loop
    vertex 14.000000000113303 73.0 10.8
    vertex 16.456574899255752 75.45657489914245 10.8
    vertex 14.000000000113303 113.00000000000011 10.8
  endloop
endfacet
facet normal 0.0 0.0 1.0
  outer loop
    vertex 16.456574899255752 75.45657489914245 10.8
    vertex 14.000000000113303 73.0 10.8
    vertex 96.00000000011332 73.0 10.8
  endloop
endfacet
facet normal 0.0 0.0 1.0
  outer loop
    vertex 16.456574899255752 75.45657489914245 10.8
    vertex 96.00000000011332 73.0 10.8
    vertex 93.54342510097086 75.45657489914245 10.8
  endloop
endfacet
facet normal 0.0 0.0 1.0
  outer loop
    vertex 93.54342510097086 75.45657489914245 10.8
    vertex 96.00000000011332 73.0 10.8
    vertex 96.0000000001133 113.00000000000011 10.8
  endloop
endfacet
facet normal 0.0 0.0 1.0
  outer loop
    vertex 14.000000000113303 113.00000000000011 10.8
    vertex 16.456574899255752 110.54342510085766 10.8
    vertex 96.0000000001133 113.00000000000011 10.8
  endloop
endfacet
facet normal 0.0 0.0 1.0
  outer loop
    vertex 16.456574899255752 110.54342510085766 10.8
    vertex 14.000000000113303 113.00000000000011 10.8
    vertex 16.456574899255752 75.45657489914245 10.8
  endloop
endfacet
facet normal 0.0 0.0 1.0
  outer loop
    vertex 96.0000000001133 113.00000000000011 10.8
    vertex 16.456574899255752 110.54342510085766 10.8
    vertex 93.54342510097085 110.54342510085766 10.8
  endloop
endfacet
facet normal 0.0 0.0 1.0
  outer loop
    vertex 96.0000000001133 113.00000000000011 10.8
    vertex 93.54342510097085 110.54342510085766 10.8
    vertex 93.54342510097086 75.45657489914245 10.8
  endloop
endfacet
facet normal 3.394805965033041e-11 0.9914448617162264 0.13052618961914467
  outer loop
    vertex 0.004962128873986859 58.1703708685548 13.705904686941606
    vertex 96.00000000011333 57.99999999999999 14.999999912454124
    vertex 96.00000000011333 58.17037086855466 13.705904686941519
  endloop
endfacet
facet normal 3.394805965033041e-11 0.9914448617162264 0.13052618961914467
  outer loop
    vertex 96.00000000011333 57.99999999999999 14.999999912454124
    vertex 0.004962128873986859 58.1703708685548 13.705904686941606
    vertex 0.0049621288739586595 57.99999999999999 14.999999956227065
  endloop
endfacet
facet normal -1.0615933209923944e-14 0.13052619222005188 0.9914448613738104
  outer loop
    vertex 96.00000000011333 61.705904774487394 10.170370781008783
    vertex 0.0049621288739699395 63.0 9.999999912453259
    vertex 0.0049621288739699395 61.705904774487394 10.170370781007916
  endloop
endfacet
facet normal -1.0615933209923944e-14 0.13052619222005188 0.9914448613738104
  outer loop
    vertex 0.0049621288739699395 63.0 9.999999912453259
    vertex 96.00000000011333 61.705904774487394 10.170370781008783
    vertex 96.00000000011333 63.0 9.999999912454125
  endloop
endfacet
facet normal -4.041009389954716e-15 0.6087614290090111 0.7933533402910123
  outer loop
    vertex 96.00000000011333 59.46446609406726 11.464466006521386
    vertex 96.00000000011332 60.3304150531564 10.8
    vertex 0.004962128873986859 59.4644660940674 11.46446600652155
  endloop
endfacet
facet normal -4.041009389954716e-15 0.6087614290090111 0.7933533402910123
  outer loop
    vertex 0.004962128873986859 59.4644660940674 11.46446600652155
    vertex 0.0049621288739699395 60.5 10.669872893531064
    vertex 0.0049621288739699395 60.3304150531564 10.799999999999132
  endloop
endfacet
facet normal -4.041009389954716e-15 0.6087614290090111 0.7933533402910123
  outer loop
    vertex 0.0049621288739699395 60.5 10.669872893531064
    vertex 0.004962128873986859 59.4644660940674 11.46446600652155
    vertex 96.00000000011333 60.5 10.669872893531931
  endloop
endfacet
facet normal -4.041009389954716e-15 0.6087614290090111 0.7933533402910123
  outer loop
    vertex 96.00000000011333 60.5 10.669872893531931
    vertex 0.004962128873986859 59.4644660940674 11.46446600652155
    vertex 96.00000000011332 60.3304150531564 10.8
  endloop
endfacet
facet normal 4.011976628070672e-11 -0.9914448617784924 0.13052618914618594
  outer loop
    vertex 96.00000000011333 68.0 14.999999912454133
    vertex 0.004962128874003779 67.82962913144533 13.705904686941707
    vertex 96.00000000011333 67.82962913144534 13.705904686941528
  endloop
endfacet
facet normal 4.011976628070672e-11 -0.9914448617784924 0.13052618914618594
  outer loop
    vertex 0.004962128874003779 67.82962913144533 13.705904686941707
    vertex 96.00000000011333 68.0 14.999999912454133
    vertex 0.0049621288739586595 68.0 14.99999996418578
  endloop
endfacet
facet normal -2.7810838046804123e-11 -1.1527840943209322e-09 1.0
  outer loop
    vertex 1.0158647256730546e-10 17.991371027691017 14.999999905980234
    vertex 2.634570654251521 20.62561494562936 14.999999907845595
    vertex 0.0049621288739586595 57.99999999999999 14.999999956227065
  endloop
endfacet
facet normal -2.7810838046804123e-11 -1.1527840943209322e-09 1.0
  outer loop
    vertex 2.634570654251521 20.62561494562936 14.999999907845595
    vertex 1.0158647256730546e-10 17.991371027691017 14.999999905980234
    vertex 96.00000000010056 17.991371027946602 14.99999990634137
  endloop
endfacet
facet normal -2.7810838046804123e-11 -1.1527840943209322e-09 1.0
  outer loop
    vertex 2.634570654251521 20.62561494562936 14.999999907845595
    vertex 96.00000000010056 17.991371027946602 14.99999990634137
    vertex 93.36575608217007 20.625614945870918 14.999999907339456
  endloop
endfacet
facet normal -2.7810838046804123e-11 -1.1527840943209322e-09 1.0
  outer loop
    vertex 93.36575608217007 20.625614945870918 14.999999907339456
    vertex 96.00000000010056 17.991371027946602 14.99999990634137
    vertex 93.36575608218116 55.365756082068664 14.99999991179987
  endloop
endfacet
facet normal -2.7810838046804123e-11 -1.1527840943209322e-09 1.0
  outer loop
    vertex 0.0049621288739586595 57.99999999999999 14.999999956227065
    vertex 2.6388793511081095 55.365756082068664 14.999999952323288
    vertex 96.00000000011333 57.99999999999999 14.999999912454124
  endloop
endfacet
facet normal -2.7810838046804123e-11 -1.1527840943209322e-09 1.0
  outer loop
    vertex 2.6388793511081095 55.365756082068664 14.999999952323288
    vertex 0.0049621288739586595 57.99999999999999 14.999999956227065
    vertex 2.634570654251521 20.62561494562936 14.999999907845595
  endloop
endfacet
facet normal -2.7810838046804123e-11 -1.1527840943209322e-09 1.0
  outer loop
    vertex 96.00000000011333 57.99999999999999 14.999999912454124
    vertex 2.6388793511081095 55.365756082068664 14.999999952323288
    vertex 93.36575608218116 55.365756082068664 14.99999991179987
  endloop
endfacet
facet normal -2.7810838046804123e-11 -1.1527840943209322e-09 1.0
  outer loop
    vertex 96.00000000011333 57.99999999999999 14.999999912454124
    vertex 93.36575608218116 55.365756082068664 14.99999991179987
    vertex 96.00000000010056 17.991371027946602 14.99999990634137
  endloop
endfacet
facet normal -0.2747532591449425 0.9615147662699338 2.8880908727756822e-05
  outer loop
    vertex 0.006044732331999286 159.000006107952 13.000000194275456
    vertex 20.999999953232223 165.00000021716238 9.000000000000002
    vertex 0.0009284130357722055 158.99999999891045 9.0
  endloop
endfacet
facet normal -0.2747532591449425 0.9615147662699338 2.8880908727756822e-05
  outer loop
    vertex 20.999999953232223 165.00000021716238 9.000000000000002
    vertex 0.006044732331999286 159.000006107952 13.000000194275456
    vertex 21.000000000771685 165.00000002666567 14.99999993552908
  endloop
endfacet
facet normal -0.2747532591449425 0.9615147662699338 2.8880908727756822e-05
  outer loop
    vertex 21.000000000771685 165.00000002666567 14.99999993552908
    vertex 0.006044732331999286 159.000006107952 13.000000194275456
    vertex 0.0018568289277373085 159.00000000000009 14.999999923365463
  endloop
endfacet
facet normal 1.4598228876231274e-15 -0.9238795325112873 0.3826834323650887
  outer loop
    vertex 96.00000000011333 67.82962913144534 13.705904686941528
    vertex 0.004962128874003779 67.33012701892218 12.49999991245433
    vertex 96.00000000011333 67.3301270189222 12.499999912454129
  endloop
endfacet
facet normal 1.4598228876231274e-15 -0.9238795325112873 0.3826834323650887
  outer loop
    vertex 0.004962128874003779 67.33012701892218 12.49999991245433
    vertex 96.00000000011333 67.82962913144534 13.705904686941528
    vertex 0.004962128874003779 67.82962913144533 13.705904686941707
  endloop
endfacet
facet normal -9.892474905326746e-15 0.3826834323650902 0.9238795325112866
  outer loop
    vertex 96.00000000011333 60.5 10.669872893531931
    vertex 0.0049621288739699395 61.705904774487394 10.170370781007916
    vertex 0.0049621288739699395 60.5 10.669872893531064
  endloop
endfacet
facet normal -9.892474905326746e-15 0.3826834323650902 0.9238795325112866
  outer loop
    vertex 0.0049621288739699395 61.705904774487394 10.170370781007916
    vertex 96.00000000011333 60.5 10.669872893531931
    vertex 96.00000000011333 61.705904774487394 10.170370781008783
  endloop
endfacet
facet normal -0.9999951379357279 -0.0011735873266682448 -0.0028890824998988257
  outer loop
    vertex 0.0018568289277373085 157.79555493652265 13.44708565022109
    vertex 0.006044732331999286 159.000006107952 13.000000194275456
    vertex 0.012325000113315542 157.6103659527956 12.999999910593035
  endloop
endfacet
facet normal -0.9999951379357279 -0.0011735873266682448 -0.0028890824998988257
  outer loop
    vertex 0.006044732331999286 159.000006107952 13.000000194275456
    vertex 0.0018568289277373085 157.79555493652265 13.44708565022109
    vertex 0.0018568289277373085 158.00000000000009 14.99999991059304
  endloop
endfacet
facet normal -0.9999951379357279 -0.0011735873266682448 -0.0028890824998988257
  outer loop
    vertex 0.006044732331999286 159.000006107952 13.000000194275456
    vertex 0.0018568289277373085 158.00000000000009 14.99999991059304
    vertex 0.0018568289277373085 159.00000000000009 14.999999923365463
  endloop
endfacet
facet normal 0.0 1.0 0.0
  outer loop
    vertex 14.000000000113303 73.0 14.99999994030963
    vertex 96.00000000011332 73.0 10.8
    vertex 14.000000000113303 73.0 10.8
  endloop
endfacet
facet normal 0.0 1.0 0.0
  outer loop
    vertex 96.00000000011332 73.0 10.8
    vertex 14.000000000113303 73.0 14.99999994030963
    vertex 96.00000000011332 73.0 14.999999912454133
  endloop
endfacet
facet normal 1.2108120811834655e-10 1.0 -1.2152258460419483e-09
  outer loop
    vertex 20.999999953232223 165.00000021716238 9.000000000000002
    vertex 96.00000000077168 165.00000002666567 14.99999993552908
    vertex 95.99999999862855 164.99999999891048 9.0
  endloop
endfacet
facet normal 1.2108120811834655e-10 1.0 -1.2152258460419483e-09
  outer loop
    vertex 96.00000000077168 165.00000002666567 14.99999993552908
    vertex 20.999999953232223 165.00000021716238 9.000000000000002
    vertex 21.000000000771685 165.00000002666567 14.99999993552908
  endloop
endfacet
facet normal 4.754752207387936e-10 -0.38268342376078823 0.9238795360753052
  outer loop
    vertex 0.012325001525509638 153.29186187592958 10.178705855630524
    vertex 96.00000000042476 154.49568547680954 10.67734585528466
    vertex 0.012325001367207999 154.49568550845103 10.677345917791074
  endloop
endfacet
facet normal 4.754752207387936e-10 -0.38268342376078823 0.9238795360753052
  outer loop
    vertex 96.00000000042476 154.49568547680954 10.67734585528466
    vertex 0.012325001525509638 153.29186187592958 10.178705855630524
    vertex 96.00000000058307 153.29186184428812 10.178705793124111
  endloop
endfacet
facet normal -3.382000786171618e-12 -0.1305261842176419 0.9914448624273476
  outer loop
    vertex 96.00000000011008 12.99999996281149 10.008628960497706
    vertex 1.119865089549421e-10 14.291861844032532 10.178705792762997
    vertex 1.1110667941238717e-10 12.999999962555906 10.00862896013659
  endloop
endfacet
facet normal -3.382000786171618e-12 -0.1305261842176419 0.9914448624273476
  outer loop
    vertex 1.119865089549421e-10 14.291861844032532 10.178705792762997
    vertex 96.00000000011008 12.99999996281149 10.008628960497706
    vertex 96.00000000011096 14.291861844288116 10.178705793124113
  endloop
endfacet
facet normal 5.537483037265098e-10 0.9238795323870517 0.38268343266502003
  outer loop
    vertex 0.01232500161613208 147.31351357986296 13.382683493150656
    vertex 96.00000000066576 147.17870580148778 13.708138120822744
    vertex 96.00000000067368 147.31351354822147 13.382683430644224
  endloop
endfacet
facet normal 5.537483037265098e-10 0.9238795323870517 0.38268343266502003
  outer loop
    vertex 96.00000000066576 147.17870580148778 13.708138120822744
    vertex 0.01232500161613208 147.31351357986296 13.382683493150656
    vertex 0.012325001608213614 147.17870583312927 13.708138183329178
  endloop
endfacet
facet normal -4.077050491393251e-12 0.13052619899132317 0.9914448604823557
  outer loop
    vertex 96.00000000010942 11.708138083869216 10.178705812374357
    vertex 1.1110667941238717e-10 12.999999962555906 10.00862896013659
    vertex 1.1045244718843605e-10 11.708138083613617 10.178705812013241
  endloop
endfacet
facet normal -4.077050491393251e-12 0.13052619899132317 0.9914448604823557
  outer loop
    vertex 1.1110667941238717e-10 12.999999962555906 10.00862896013659
    vertex 96.00000000010942 11.708138083869216 10.178705812374357
    vertex 96.00000000011008 12.99999996281149 10.008628960497706
  endloop
endfacet
facet normal 6.025944009722954e-10 -0.13052618421763984 0.991444862427348
  outer loop
    vertex 0.012325001651821576 151.999999994453 10.008629023004122
    vertex 96.00000000058307 153.29186184428812 10.178705793124111
    vertex 0.012325001525509638 153.29186187592958 10.178705855630524
  endloop
endfacet
facet normal 6.025944009722954e-10 -0.13052618421763984 0.991444862427348
  outer loop
    vertex 96.00000000058307 153.29186184428812 10.178705793124111
    vertex 0.012325001651821576 151.999999994453 10.008629023004122
    vertex 96.00000000070938 151.9999999628115 10.008628960497708
  endloop
endfacet
facet normal 6.88647769001206e-10 0.13052619899132187 0.9914448604823558
  outer loop
    vertex 0.012325001737503437 150.70813811551068 10.178705874880773
    vertex 96.00000000070938 151.9999999628115 10.008628960497708
    vertex 0.012325001651821576 151.999999994453 10.008629023004122
  endloop
endfacet
facet normal 6.88647769001206e-10 0.13052619899132187 0.9914448604823558
  outer loop
    vertex 96.00000000070938 151.9999999628115 10.008628960497708
    vertex 0.012325001737503437 150.70813811551068 10.178705874880773
    vertex 96.00000000079505 150.7081380838692 10.178705812374359
  endloop
endfacet
facet normal 1.348994722392713e-10 -0.7933533331098213 0.6087614383677216
  outer loop
    vertex 96.00000000067413 156.32265406174227 12.504314391136678
    vertex 0.012325001187655093 155.52943230164732 11.470567713611704
    vertex 96.00000000024522 155.52943227000583 11.47056765110529
  endloop
endfacet
facet normal 1.348994722392713e-10 -0.7933533331098213 0.6087614383677216
  outer loop
    vertex 0.012325001187655093 155.52943230164732 11.470567713611704
    vertex 96.00000000067413 156.32265406174227 12.504314391136678
    vertex 0.012325001616583274 156.32265409338376 12.504314453643092
  endloop
endfacet
facet normal 2.148547291858107e-12 -0.9914448595098596 0.13052620637816303
  outer loop
    vertex 96.00000000010249 17.821294168808173 13.70813804661763
    vertex 1.0158647256730546e-10 17.991371027691017 14.999999905980234
    vertex 1.0352660950729841e-10 17.821294168552587 13.708138046256494
  endloop
endfacet
facet normal 2.148547291858107e-12 -0.9914448595098596 0.13052620637816303
  outer loop
    vertex 1.0158647256730546e-10 17.991371027691017 14.999999905980234
    vertex 96.00000000010249 17.821294168808173 13.70813804661763
    vertex 96.00000000010056 17.991371027946602 14.99999990634137
  endloop
endfacet
facet normal -2.4564733185668494e-12 -0.3826834237607908 0.923879536075304
  outer loop
    vertex 96.00000000011096 14.291861844288116 10.178705793124113
    vertex 1.1302425662051974e-10 15.495685476553959 10.677345854923551
    vertex 1.119865089549421e-10 14.291861844032532 10.178705792762997
  endloop
endfacet
facet normal -2.4564733185668494e-12 -0.3826834237607908 0.923879536075304
  outer loop
    vertex 1.1302425662051974e-10 15.495685476553959 10.677345854923551
    vertex 96.00000000011096 14.291861844288116 10.178705793124113
    vertex 96.000000000112 15.495685476809545 10.677345855284665
  endloop
endfacet
facet normal -3.130714501903505e-12 0.9914448614548519 0.13052619160448037
  outer loop
    vertex 1.1277609957005551e-10 8.008628960242117 14.999999999638861
    vertex 96.00000000010955 8.17870580274924 13.708138119790553
    vertex 1.1058780557959834e-10 8.178705802493644 13.708138119429416
  endloop
endfacet
facet normal -3.130714501903505e-12 0.9914448614548519 0.13052619160448037
  outer loop
    vertex 96.00000000010955 8.17870580274924 13.708138119790553
    vertex 1.1277609957005551e-10 8.008628960242117 14.999999999638861
    vertex 96.00000000011174 8.008628960497715 14.999999999999998
  endloop
endfacet
facet normal 1.0202780502251295e-12 -0.9238795275216622 0.3826834444111088
  outer loop
    vertex 95.99999999999898 17.686486415644225 13.382683352618468
    vertex 1.0352660950729841e-10 17.821294168552587 13.708138046256494
    vertex 0.0 17.68648641538864 13.382683352257331
  endloop
endfacet
facet normal 1.0202780502251295e-12 -0.9238795275216622 0.3826834444111088
  outer loop
    vertex 1.0352660950729841e-10 17.821294168552587 13.708138046256494
    vertex 95.99999999999898 17.686486415644225 13.382683352618468
    vertex 96.00000000010249 17.821294168808173 13.70813804661763
  endloop
endfacet
facet normal -4.6051852876753774e-12 0.6087614324567708 0.7933533376454531
  outer loop
    vertex 96.00000000010891 9.47056767740173 11.470567703697943
    vertex 1.1004637201494915e-10 10.504314458522508 10.677345892112163
    vertex 1.0993357335564724e-10 9.470567677146132 11.470567703336828
  endloop
endfacet
facet normal -4.6051852876753774e-12 0.6087614324567708 0.7933533376454531
  outer loop
    vertex 1.1004637201494915e-10 10.504314458522508 10.677345892112163
    vertex 96.00000000010891 9.47056767740173 11.470567703697943
    vertex 96.00000000010901 10.504314458778106 10.677345892473278
  endloop
endfacet
facet normal 3.1595319027751995e-10 -0.6087614206348876 0.7933533467167031
  outer loop
    vertex 0.012325001367207999 154.49568550845103 10.677345917791074
    vertex 96.00000000024522 155.52943227000583 11.47056765110529
    vertex 0.012325001187655093 155.52943230164732 11.470567713611704
  endloop
endfacet
facet normal 3.1595319027751995e-10 -0.6087614206348876 0.7933533467167031
  outer loop
    vertex 96.00000000024522 155.52943227000583 11.47056765110529
    vertex 0.012325001367207999 154.49568550845103 10.677345917791074
    vertex 96.00000000042476 154.49568547680954 10.67734585528466
  endloop
endfacet
facet normal -1.3635412553948315e-12 -0.608761420634884 0.7933533467167059
  outer loop
    vertex 96.000000000112 15.495685476809545 10.677345855284665
    vertex 1.141522432135389e-10 16.529432269750263 11.470567650744186
    vertex 1.1302425662051974e-10 15.495685476553959 10.677345854923551
  endloop
endfacet
facet normal -1.3635412553948315e-12 -0.608761420634884 0.7933533467167059
  outer loop
    vertex 1.141522432135389e-10 16.529432269750263 11.470567650744186
    vertex 96.000000000112 15.495685476809545 10.677345855284665
    vertex 96.00000000011313 16.529432270005845 11.470567651105302
  endloop
endfacet
facet normal 0.0 -1.0 0.0
  outer loop
    vertex 96.0000000001133 113.00000000000011 15.0
    vertex 14.000000000113303 113.00000000000011 10.8
    vertex 96.0000000001133 113.00000000000011 10.8
  endloop
endfacet
facet normal 0.0 -1.0 0.0
  outer loop
    vertex 14.000000000113303 113.00000000000011 10.8
    vertex 96.0000000001133 113.00000000000011 15.0
    vertex 14.000000000113303 113.00000000000011 15.0
  endloop
endfacet
facet normal -6.723551701580166e-16 -1.0 -5.90784442407328e-16
  outer loop
    vertex 96.00000000011325 0.0 14.999999999999998
    vertex -1.3714489619947034e-09 -1.0895348093039527e-09 9.0
    vertex 95.99999999862855 -1.0895348093039527e-09 9.0
  endloop
endfacet
facet normal -6.723551701580166e-16 -1.0 -5.90784442407328e-16
  outer loop
    vertex -1.3714489619947034e-09 -1.0895348093039527e-09 9.0
    vertex 96.00000000011325 0.0 14.999999999999998
    vertex 1.1329779336932687e-10 1.936382890055088e-13 15.0
  endloop
endfacet
facet normal 1.649715483775053e-10 1.2107171775053478e-10 -1.0
  outer loop
    vertex 1.4451931220241612 71.56009904326653 8.999999990976448
    vertex 2.638879346231788 55.36575609154442 9.000000011304795
    vertex 2.6345706493751995 20.625614955105096 8.9999999668271
  endloop
endfacet
facet normal 1.649715483775053e-10 1.2107171775053478e-10 -1.0
  outer loop
    vertex 2.638879346231788 55.36575609154442 9.000000011304795
    vertex 1.4451931220241612 71.56009904326653 8.999999990976448
    vertex 12.560099025227682 71.56009904326653 8.999999969817107
  endloop
endfacet
facet normal 1.649715483775053e-10 1.2107171775053478e-10 -1.0
  outer loop
    vertex 2.638879346231788 55.36575609154442 9.000000011304795
    vertex 12.560099025227682 71.56009904326653 8.999999969817107
    vertex 93.36575607730487 55.36575609154442 8.99999997078138
  endloop
endfacet
facet normal 1.649715483775053e-10 1.2107171775053478e-10 -1.0
  outer loop
    vertex 93.36575607730487 55.36575609154442 8.99999997078138
    vertex 12.560099025227682 71.56009904326653 8.999999969817107
    vertex 16.45657489777101 75.4565748980528 8.999999992499815
  endloop
endfacet
facet normal 1.649715483775053e-10 1.2107171775053478e-10 -1.0
  outer loop
    vertex 16.45657489777101 75.4565748980528 8.999999992499815
    vertex 12.560099025227682 71.56009904326653 8.999999969817107
    vertex 16.45657489777101 110.54342509976803 8.999999992499815
  endloop
endfacet
facet normal 1.649715483775053e-10 1.2107171775053478e-10 -1.0
  outer loop
    vertex 93.36575607730487 55.36575609154442 8.99999997078138
    vertex 16.45657489777101 75.4565748980528 8.999999992499815
    vertex 93.54342509948613 75.4565748980528 8.999999992499815
  endloop
endfacet
facet normal 1.649715483775053e-10 1.2107171775053478e-10 -1.0
  outer loop
    vertex 12.560099025227682 114.43990098374836 9.00000003272589
    vertex 16.45657489777101 110.54342509976803 8.999999992499815
    vertex 12.560099025227682 71.56009904326653 8.999999969817107
  endloop
endfacet
facet normal 1.649715483775053e-10 1.2107171775053478e-10 -1.0
  outer loop
    vertex 16.45657489777101 110.54342509976803 8.999999992499815
    vertex 12.560099025227682 114.43990098374836 9.00000003272589
    vertex 94.56009902522764 114.43990098374836 9.000000031653094
  endloop
endfacet
facet normal 1.649715483775053e-10 1.2107171775053478e-10 -1.0
  outer loop
    vertex 16.45657489777101 110.54342509976803 8.999999992499815
    vertex 94.56009902522764 114.43990098374836 9.000000031653094
    vertex 93.5434250994861 110.54342509976803 8.999999992499815
  endloop
endfacet
facet normal 1.649715483775053e-10 1.2107171775053478e-10 -1.0
  outer loop
    vertex 93.5434250994861 110.54342509976803 8.999999992499815
    vertex 94.56009902522764 114.43990098374836 9.000000031653094
    vertex 93.54342509948613 75.4565748980528 8.999999992499815
  endloop
endfacet
facet normal 1.649715483775053e-10 1.2107171775053478e-10 -1.0
  outer loop
    vertex 0.0009284130357722055 158.99999999891045 9.0
    vertex 1.4519602258613555 144.56009904481758 9.00000002531125
    vertex 1.2243100597905692 6.784318897683293 8.999999999969804
  endloop
endfacet
facet normal 1.649715483775053e-10 1.2107171775053478e-10 -1.0
  outer loop
    vertex 1.4519602258613555 144.56009904481758 9.00000002531125
    vertex 0.0009284130357722055 158.99999999891045 9.0
    vertex 17.207837218380174 163.50967777701837 9.00000002701345
  endloop
endfacet
facet normal 1.649715483775053e-10 1.2107171775053478e-10 -1.0
  outer loop
    vertex 17.207837218380174 163.50967777701837 9.00000002701345
    vertex 0.0009284130357722055 158.99999999891045 9.0
    vertex 20.999999953232223 165.00000021716238 9.000000000000002
  endloop
endfacet
facet normal 1.649715483775053e-10 1.2107171775053478e-10 -1.0
  outer loop
    vertex 1.2243100597905692 6.784318897683293 8.999999999969804
    vertex 1.4519602258613555 144.56009904481758 9.00000002531125
    vertex 1.4451931220241612 71.56009904326653 8.999999990976448
  endloop
endfacet
facet normal 1.649715483775053e-10 1.2107171775053478e-10 -1.0
  outer loop
    vertex 17.207837218380174 163.50967777701837 9.00000002701345
    vertex 20.999999953232223 165.00000021716238 9.000000000000002
    vertex 93.24084919025236 163.50967777701837 9.00000002701345
  endloop
endfacet
facet normal 1.649715483775053e-10 1.2107171775053478e-10 -1.0
  outer loop
    vertex 93.24084919025236 163.50967777701837 9.00000002701345
    vertex 20.999999953232223 165.00000021716238 9.000000000000002
    vertex 95.99999999862855 164.99999999891048 9.0
  endloop
endfacet
facet normal 1.649715483775053e-10 1.2107171775053478e-10 -1.0
  outer loop
    vertex 93.24084919025236 163.50967777701837 9.00000002701345
    vertex 95.99999999862855 164.99999999891048 9.0
    vertex 93.24084919025236 158.00000003717741 8.999999999850552
  endloop
endfacet
facet normal 1.649715483775053e-10 1.2107171775053478e-10 -1.0
  outer loop
    vertex 93.24084919025236 158.00000003717741 8.999999999850552
    vertex 95.99999999862855 164.99999999891048 9.0
    vertex 94.56009902522733 144.56009904219079 9.000000029853561
  endloop
endfacet
facet normal 1.649715483775053e-10 1.2107171775053478e-10 -1.0
  outer loop
    vertex 94.56009902522733 144.56009904219079 9.000000029853561
    vertex 95.99999999862855 164.99999999891048 9.0
    vertex 94.56009902522764 114.43990098374836 9.000000031653094
  endloop
endfacet
facet normal 1.649715483775053e-10 1.2107171775053478e-10 -1.0
  outer loop
    vertex 94.56009902522764 114.43990098374836 9.000000031653094
    vertex 95.99999999862855 164.99999999891048 9.0
    vertex 94.77568993752122 6.784318897932371 9.000000000296424
  endloop
endfacet
facet normal 1.649715483775053e-10 1.2107171775053478e-10 -1.0
  outer loop
    vertex 94.77568993752122 6.784318897932371 9.000000000296424
    vertex 95.99999999862855 164.99999999891048 9.0
    vertex 94.77568993752227 1.2243100597064034 9.000000000271124
  endloop
endfacet
facet normal 1.649715483775053e-10 1.2107171775053478e-10 -1.0
  outer loop
    vertex -1.3714489619947034e-09 -1.0895348093039527e-09 9.0
    vertex 1.2243100597909313 1.224310059706592 9.000000000245823
    vertex 95.99999999862855 -1.0895348093039527e-09 9.0
  endloop
endfacet
facet normal 1.649715483775053e-10 1.2107171775053478e-10 -1.0
  outer loop
    vertex 1.2243100597909313 1.224310059706592 9.000000000245823
    vertex -1.3714489619947034e-09 -1.0895348093039527e-09 9.0
    vertex 0.0009284130357722055 158.99999999891045 9.0
  endloop
endfacet
facet normal 1.649715483775053e-10 1.2107171775053478e-10 -1.0
  outer loop
    vertex 1.2243100597909313 1.224310059706592 9.000000000245823
    vertex 0.0009284130357722055 158.99999999891045 9.0
    vertex 1.2243100597905692 6.784318897683293 8.999999999969804
  endloop
endfacet
facet normal 1.649715483775053e-10 1.2107171775053478e-10 -1.0
  outer loop
    vertex 95.99999999862855 -1.0895348093039527e-09 9.0
    vertex 1.2243100597909313 1.224310059706592 9.000000000245823
    vertex 94.77568993752227 1.2243100597064034 9.000000000271124
  endloop
endfacet
facet normal 1.649715483775053e-10 1.2107171775053478e-10 -1.0
  outer loop
    vertex 95.99999999862855 -1.0895348093039527e-09 9.0
    vertex 94.77568993752227 1.2243100597064034 9.000000000271124
    vertex 95.99999999862855 164.99999999891048 9.0
  endloop
endfacet
facet normal 1.649715483775053e-10 1.2107171775053478e-10 -1.0
  outer loop
    vertex 1.2243100597905692 6.784318897683293 8.999999999969804
    vertex 2.6345706493751995 20.625614955105096 8.9999999668271
    vertex 94.77568993752122 6.784318897932371 9.000000000296424
  endloop
endfacet
facet normal 1.649715483775053e-10 1.2107171775053478e-10 -1.0
  outer loop
    vertex 2.6345706493751995 20.625614955105096 8.9999999668271
    vertex 1.2243100597905692 6.784318897683293 8.999999999969804
    vertex 1.4451931220241612 71.56009904326653 8.999999990976448
  endloop
endfacet
facet normal 1.649715483775053e-10 1.2107171775053478e-10 -1.0
  outer loop
    vertex 94.77568993752122 6.784318897932371 9.000000000296424
    vertex 2.6345706493751995 20.625614955105096 8.9999999668271
    vertex 93.36575607729377 20.625614955346652 8.99999996632096
  endloop
endfacet
facet normal 1.649715483775053e-10 1.2107171775053478e-10 -1.0
  outer loop
    vertex 94.77568993752122 6.784318897932371 9.000000000296424
    vertex 93.36575607729377 20.625614955346652 8.99999996632096
    vertex 93.36575607730487 55.36575609154442 8.99999997078138
  endloop
endfacet
facet normal 1.649715483775053e-10 1.2107171775053478e-10 -1.0
  outer loop
    vertex 94.77568993752122 6.784318897932371 9.000000000296424
    vertex 93.36575607730487 55.36575609154442 8.99999997078138
    vertex 93.54342509948613 75.4565748980528 8.999999992499815
  endloop
endfacet
facet normal 1.649715483775053e-10 1.2107171775053478e-10 -1.0
  outer loop
    vertex 94.77568993752122 6.784318897932371 9.000000000296424
    vertex 93.54342509948613 75.4565748980528 8.999999992499815
    vertex 94.56009902522764 114.43990098374836 9.000000031653094
  endloop
endfacet
facet normal 1.649715483775053e-10 1.2107171775053478e-10 -1.0
  outer loop
    vertex 1.4519602258613555 144.56009904481758 9.00000002531125
    vertex 17.207837218380174 158.00000003717741 9.000000011415741
    vertex 94.56009902522733 144.56009904219079 9.000000029853561
  endloop
endfacet
facet normal 1.649715483775053e-10 1.2107171775053478e-10 -1.0
  outer loop
    vertex 17.207837218380174 158.00000003717741 9.000000011415741
    vertex 1.4519602258613555 144.56009904481758 9.00000002531125
    vertex 17.207837218380174 163.50967777701837 9.00000002701345
  endloop
endfacet
facet normal 1.649715483775053e-10 1.2107171775053478e-10 -1.0
  outer loop
    vertex 94.56009902522733 144.56009904219079 9.000000029853561
    vertex 17.207837218380174 158.00000003717741 9.000000011415741
    vertex 93.24084919025236 158.00000003717741 8.999999999850552
  endloop
endfacet
facet normal -0.9999999476899087 6.77096905811045e-05 0.0003162840138904472
  outer loop
    vertex 0.0018568289277373085 158.00000000000009 14.99999991059304
    vertex 0.012325000113315542 157.6103659527956 12.999999910593035
    vertex 0.01232500716808209 157.00855506087706 15.130526159243406
  endloop
endfacet
facet normal -0.9999999476899087 6.77096905811045e-05 0.0003162840138904472
  outer loop
    vertex 0.012325000113315542 157.6103659527956 12.999999910593035
    vertex 0.0018568289277373085 158.00000000000009 14.99999991059304
    vertex 0.0018568289277373085 157.79555493652265 13.44708565022109
  endloop
endfacet
facet normal -0.9999999476899087 6.77096905811045e-05 0.0003162840138904472
  outer loop
    vertex -1.3714489619947034e-09 -1.0895348093039527e-09 9.0
    vertex 1.1110667941238717e-10 12.999999962555906 10.00862896013659
    vertex 0.0009284130357722055 158.99999999891045 9.0
  endloop
endfacet
facet normal -0.9999999476899087 6.77096905811045e-05 0.0003162840138904472
  outer loop
    vertex 1.1110667941238717e-10 12.999999962555906 10.00862896013659
    vertex -1.3714489619947034e-09 -1.0895348093039527e-09 9.0
    vertex 1.1045244718843605e-10 11.708138083613617 10.178705812013241
  endloop
endfacet
facet normal -0.9999999476899087 6.77096905811045e-05 0.0003162840138904472
  outer loop
    vertex 1.1045244718843605e-10 11.708138083613617 10.178705812013241
    vertex -1.3714489619947034e-09 -1.0895348093039527e-09 9.0
    vertex 1.1329779336932687e-10 1.936382890055088e-13 15.0
  endloop
endfacet
facet normal -0.9999999476899087 6.77096905811045e-05 0.0003162840138904472
  outer loop
    vertex 1.1045244718843605e-10 11.708138083613617 10.178705812013241
    vertex 1.1329779336932687e-10 1.936382890055088e-13 15.0
    vertex 1.1004637201494915e-10 10.504314458522508 10.677345892112163
  endloop
endfacet
facet normal -0.9999999476899087 6.77096905811045e-05 0.0003162840138904472
  outer loop
    vertex 1.1004637201494915e-10 10.504314458522508 10.677345892112163
    vertex 1.1329779336932687e-10 1.936382890055088e-13 15.0
    vertex 1.0993357335564724e-10 9.470567677146132 11.470567703336828
  endloop
endfacet
facet normal -0.9999999476899087 6.77096905811045e-05 0.0003162840138904472
  outer loop
    vertex 1.0993357335564724e-10 9.470567677146132 11.470567703336828
    vertex 1.1329779336932687e-10 1.936382890055088e-13 15.0
    vertex 1.1013661094239068e-10 8.677345873623459 12.504314490623196
  endloop
endfacet
facet normal -0.9999999476899087 6.77096905811045e-05 0.0003162840138904472
  outer loop
    vertex 1.1013661094239068e-10 8.677345873623459 12.504314490623196
    vertex 1.1329779336932687e-10 1.936382890055088e-13 15.0
    vertex 1.1058780557959834e-10 8.313513547965723 13.382683430283173
  endloop
endfacet
facet normal -0.9999999476899087 6.77096905811045e-05 0.0003162840138904472
  outer loop
    vertex 1.1058780557959834e-10 8.313513547965723 13.382683430283173
    vertex 1.1329779336932687e-10 1.936382890055088e-13 15.0
    vertex 1.1058780557959834e-10 8.178705802493644 13.708138119429416
  endloop
endfacet
facet normal -0.9999999476899087 6.77096905811045e-05 0.0003162840138904472
  outer loop
    vertex 1.1058780557959834e-10 8.178705802493644 13.708138119429416
    vertex 1.1329779336932687e-10 1.936382890055088e-13 15.0
    vertex 1.1277609957005551e-10 8.008628960242117 14.999999999638861
  endloop
endfacet
facet normal -0.9999999476899087 6.77096905811045e-05 0.0003162840138904472
  outer loop
    vertex 0.0009284130357722055 158.99999999891045 9.0
    vertex 1.1110667941238717e-10 12.999999962555906 10.00862896013659
    vertex 1.119865089549421e-10 14.291861844032532 10.178705792762997
  endloop
endfacet
facet normal -0.9999999476899087 6.77096905811045e-05 0.0003162840138904472
  outer loop
    vertex 0.0009284130357722055 158.99999999891045 9.0
    vertex 1.119865089549421e-10 14.291861844032532 10.178705792762997
    vertex 0.0049621288739699395 63.0 9.999999912453259
  endloop
endfacet
facet normal -0.9999999476899087 6.77096905811045e-05 0.0003162840138904472
  outer loop
    vertex 0.0049621288739699395 63.0 9.999999912453259
    vertex 1.119865089549421e-10 14.291861844032532 10.178705792762997
    vertex 1.1302425662051974e-10 15.495685476553959 10.677345854923551
  endloop
endfacet
facet normal -0.9999999476899087 6.77096905811045e-05 0.0003162840138904472
  outer loop
    vertex 0.0049621288739699395 63.0 9.999999912453259
    vertex 1.1302425662051974e-10 15.495685476553959 10.677345854923551
    vertex 1.141522432135389e-10 16.529432269750263 11.470567650744186
  endloop
endfacet
facet normal -0.9999999476899087 6.77096905811045e-05 0.0003162840138904472
  outer loop
    vertex 0.0049621288739699395 63.0 9.999999912453259
    vertex 1.141522432135389e-10 16.529432269750263 11.470567650744186
    vertex 1.0127063632126009e-10 17.32265408639291 12.504314423233996
  endloop
endfacet
facet normal -0.9999999476899087 6.77096905811045e-05 0.0003162840138904472
  outer loop
    vertex 0.0049621288739699395 63.0 9.999999912453259
    vertex 1.0127063632126009e-10 17.32265408639291 12.504314423233996
    vertex 0.0 17.68648641538864 13.382683352257331
  endloop
endfacet
facet normal -0.9999999476899087 6.77096905811045e-05 0.0003162840138904472
  outer loop
    vertex 0.0049621288739699395 63.0 9.999999912453259
    vertex 0.0 17.68648641538864 13.382683352257331
    vertex 1.0352660950729841e-10 17.821294168552587 13.708138046256494
  endloop
endfacet
facet normal -0.9999999476899087 6.77096905811045e-05 0.0003162840138904472
  outer loop
    vertex 0.0049621288739699395 63.0 9.999999912453259
    vertex 1.0352660950729841e-10 17.821294168552587 13.708138046256494
    vertex 1.0158647256730546e-10 17.991371027691017 14.999999905980234
  endloop
endfacet
facet normal -0.9999999476899087 6.77096905811045e-05 0.0003162840138904472
  outer loop
    vertex 0.0049621288739699395 63.0 9.999999912453259
    vertex 1.0158647256730546e-10 17.991371027691017 14.999999905980234
    vertex 0.0049621288739699395 61.705904774487394 10.170370781007916
  endloop
endfacet
facet normal -0.9999999476899087 6.77096905811045e-05 0.0003162840138904472
  outer loop
    vertex 0.0049621288739699395 61.705904774487394 10.170370781007916
    vertex 1.0158647256730546e-10 17.991371027691017 14.999999905980234
    vertex 0.0049621288739699395 60.5 10.669872893531064
  endloop
endfacet
facet normal -0.9999999476899087 6.77096905811045e-05 0.0003162840138904472
  outer loop
    vertex 0.0049621288739699395 60.5 10.669872893531064
    vertex 1.0158647256730546e-10 17.991371027691017 14.999999905980234
    vertex 0.0049621288739699395 60.3304150531564 10.799999999999132
  endloop
endfacet
facet normal -0.9999999476899087 6.77096905811045e-05 0.0003162840138904472
  outer loop
    vertex 0.0049621288739699395 60.3304150531564 10.799999999999132
    vertex 1.0158647256730546e-10 17.991371027691017 14.999999905980234
    vertex 0.004962128873986859 59.4644660940674 11.46446600652155
  endloop
endfacet
facet normal -0.9999999476899087 6.77096905811045e-05 0.0003162840138904472
  outer loop
    vertex 0.004962128873986859 59.4644660940674 11.46446600652155
    vertex 1.0158647256730546e-10 17.991371027691017 14.999999905980234
    vertex 0.004962128873986859 58.669872981077944 12.499999912454287
  endloop
endfacet
facet normal -0.9999999476899087 6.77096905811045e-05 0.0003162840138904472
  outer loop
    vertex 0.004962128873986859 58.669872981077944 12.499999912454287
    vertex 1.0158647256730546e-10 17.991371027691017 14.999999905980234
    vertex 0.004962128873986859 58.1703708685548 13.705904686941606
  endloop
endfacet
facet normal -0.9999999476899087 6.77096905811045e-05 0.0003162840138904472
  outer loop
    vertex 0.004962128873986859 58.1703708685548 13.705904686941606
    vertex 1.0158647256730546e-10 17.991371027691017 14.999999905980234
    vertex 0.0049621288739586595 57.99999999999999 14.999999956227065
  endloop
endfacet
facet normal -0.9999999476899087 6.77096905811045e-05 0.0003162840138904472
  outer loop
    vertex 0.0009284130357722055 158.99999999891045 9.0
    vertex 0.0049621288739699395 63.0 9.999999912453259
    vertex 0.0049621288739699395 64.2940952255126 10.170370781007916
  endloop
endfacet
facet normal -0.9999999476899087 6.77096905811045e-05 0.0003162840138904472
  outer loop
    vertex 0.0009284130357722055 158.99999999891045 9.0
    vertex 0.0049621288739699395 64.2940952255126 10.170370781007916
    vertex 0.0049621288739699395 65.5 10.669872893531068
  endloop
endfacet
facet normal -0.9999999476899087 6.77096905811045e-05 0.0003162840138904472
  outer loop
    vertex 0.0009284130357722055 158.99999999891045 9.0
    vertex 0.0049621288739699395 65.5 10.669872893531068
    vertex 0.0049621288739699395 65.66958494684359 10.799999999999132
  endloop
endfacet
facet normal -0.9999999476899087 6.77096905811045e-05 0.0003162840138904472
  outer loop
    vertex 0.0009284130357722055 158.99999999891045 9.0
    vertex 0.0049621288739699395 65.66958494684359 10.799999999999132
    vertex 0.004962128874003779 66.53553390593274 11.46446600652159
  endloop
endfacet
facet normal -0.9999999476899087 6.77096905811045e-05 0.0003162840138904472
  outer loop
    vertex 0.0009284130357722055 158.99999999891045 9.0
    vertex 0.004962128874003779 66.53553390593274 11.46446600652159
    vertex 0.004962128874003779 67.33012701892218 12.49999991245433
  endloop
endfacet
facet normal -0.9999999476899087 6.77096905811045e-05 0.0003162840138904472
  outer loop
    vertex 0.0009284130357722055 158.99999999891045 9.0
    vertex 0.004962128874003779 67.33012701892218 12.49999991245433
    vertex 0.004962128874003779 67.82962913144533 13.705904686941707
  endloop
endfacet
facet normal -0.9999999476899087 6.77096905811045e-05 0.0003162840138904472
  outer loop
    vertex 0.0009284130357722055 158.99999999891045 9.0
    vertex 0.004962128874003779 67.82962913144533 13.705904686941707
    vertex 0.0049621288739586595 68.0 14.99999996418578
  endloop
endfacet
facet normal -0.9999999476899087 6.77096905811045e-05 0.0003162840138904472
  outer loop
    vertex 0.0009284130357722055 158.99999999891045 9.0
    vertex 0.0049621288739586595 68.0 14.99999996418578
    vertex 0.012325001737503437 150.70813811551068 10.178705874880773
  endloop
endfacet
facet normal -0.9999999476899087 6.77096905811045e-05 0.0003162840138904472
  outer loop
    vertex 0.012325001737503437 150.70813811551068 10.178705874880773
    vertex 0.0049621288739586595 68.0 14.99999996418578
    vertex 0.012325001776712252 149.5043144904196 10.677345954979682
  endloop
endfacet
facet normal -0.9999999476899087 6.77096905811045e-05 0.0003162840138904472
  outer loop
    vertex 0.012325001776712252 149.5043144904196 10.677345954979682
    vertex 0.0049621288739586595 68.0 14.99999996418578
    vertex 0.012325001766808528 148.47056770904322 11.470567766204356
  endloop
endfacet
facet normal -0.9999999476899087 6.77096905811045e-05 0.0003162840138904472
  outer loop
    vertex 0.012325001766808528 148.47056770904322 11.470567766204356
    vertex 0.0049621288739586595 68.0 14.99999996418578
    vertex 0.012325001708423943 147.67734590552055 12.504314553490701
  endloop
endfacet
facet normal -0.9999999476899087 6.77096905811045e-05 0.0003162840138904472
  outer loop
    vertex 0.012325001708423943 147.67734590552055 12.504314553490701
    vertex 0.0049621288739586595 68.0 14.99999996418578
    vertex 0.012192732973968478 146.00000000159184 14.999999994805643
  endloop
endfacet
facet normal -0.9999999476899087 6.77096905811045e-05 0.0003162840138904472
  outer loop
    vertex 0.012325001708423943 147.67734590552055 12.504314553490701
    vertex 0.012192732973968478 146.00000000159184 14.999999994805643
    vertex 0.012325001608213614 147.17870583312927 13.708138183329178
  endloop
endfacet
facet normal -0.9999999476899087 6.77096905811045e-05 0.0003162840138904472
  outer loop
    vertex 0.012325001608213614 147.17870583312927 13.708138183329178
    vertex 0.012192732973968478 146.00000000159184 14.999999994805643
    vertex 0.012325001464914198 146.99144489198014 15.130526254040099
  endloop
endfacet
facet normal -0.9999999476899087 6.77096905811045e-05 0.0003162840138904472
  outer loop
    vertex 0.012325001708423943 147.67734590552055 12.504314553490701
    vertex 0.012325001608213614 147.17870583312927 13.708138183329178
    vertex 0.01232500161613208 147.31351357986296 13.382683493150656
  endloop
endfacet
facet normal -0.9999999476899087 6.77096905811045e-05 0.0003162840138904472
  outer loop
    vertex 0.0009284130357722055 158.99999999891045 9.0
    vertex 0.012325001737503437 150.70813811551068 10.178705874880773
    vertex 0.012325001651821576 151.999999994453 10.008629023004122
  endloop
endfacet
facet normal -0.9999999476899087 6.77096905811045e-05 0.0003162840138904472
  outer loop
    vertex 0.0009284130357722055 158.99999999891045 9.0
    vertex 0.012325001651821576 151.999999994453 10.008629023004122
    vertex 0.012325001525509638 153.29186187592958 10.178705855630524
  endloop
endfacet
facet normal -0.9999999476899087 6.77096905811045e-05 0.0003162840138904472
  outer loop
    vertex 0.0009284130357722055 158.99999999891045 9.0
    vertex 0.012325001525509638 153.29186187592958 10.178705855630524
    vertex 0.012325001367207999 154.49568550845103 10.677345917791074
  endloop
endfacet
facet normal -0.9999999476899087 6.77096905811045e-05 0.0003162840138904472
  outer loop
    vertex 0.0009284130357722055 158.99999999891045 9.0
    vertex 0.012325001367207999 154.49568550845103 10.677345917791074
    vertex 0.012325001187655093 155.52943230164732 11.470567713611704
  endloop
endfacet
facet normal -0.9999999476899087 6.77096905811045e-05 0.0003162840138904472
  outer loop
    vertex 0.0009284130357722055 158.99999999891045 9.0
    vertex 0.012325001187655093 155.52943230164732 11.470567713611704
    vertex 0.012325001616583274 156.32265409338376 12.504314453643092
  endloop
endfacet
facet normal -0.9999999476899087 6.77096905811045e-05 0.0003162840138904472
  outer loop
    vertex 0.0009284130357722055 158.99999999891045 9.0
    vertex 0.012325001616583274 156.32265409338376 12.504314453643092
    vertex 0.012325006075514277 156.6864863435994 13.382683392299782
  endloop
endfacet
facet normal -0.9999999476899087 6.77096905811045e-05 0.0003162840138904472
  outer loop
    vertex 0.0009284130357722055 158.99999999891045 9.0
    vertex 0.012325006075514277 156.6864863435994 13.382683392299782
    vertex 0.01232500716808209 156.82129409838743 13.708138090219805
  endloop
endfacet
facet normal -0.9999999476899087 6.77096905811045e-05 0.0003162840138904472
  outer loop
    vertex 0.0009284130357722055 158.99999999891045 9.0
    vertex 0.01232500716808209 156.82129409838743 13.708138090219805
    vertex 0.012325000113315542 157.6103659527956 12.999999910593035
  endloop
endfacet
facet normal -0.9999999476899087 6.77096905811045e-05 0.0003162840138904472
  outer loop
    vertex 0.012325000113315542 157.6103659527956 12.999999910593035
    vertex 0.01232500716808209 156.82129409838743 13.708138090219805
    vertex 0.01232500716808209 157.00855506087706 15.130526159243406
  endloop
endfacet
facet normal -0.9999999476899087 6.77096905811045e-05 0.0003162840138904472
  outer loop
    vertex 0.0009284130357722055 158.99999999891045 9.0
    vertex 0.012325000113315542 157.6103659527956 12.999999910593035
    vertex 0.006044732331999286 159.000006107952 13.000000194275456
  endloop
endfacet
facet normal 1.0 0.0 0.0
  outer loop
    vertex 14.000000000113303 113.00000000000011 10.8
    vertex 14.000000000113303 73.0 14.99999994030963
    vertex 14.000000000113303 73.0 10.8
  endloop
endfacet
facet normal 1.0 0.0 0.0
  outer loop
    vertex 14.000000000113303 73.0 14.99999994030963
    vertex 14.000000000113303 113.00000000000011 10.8
    vertex 14.000000000113303 113.00000000000011 15.0
  endloop
endfacet
facet normal 1.0 -1.193340110995938e-11 -1.0744347703344054e-10
  outer loop
    vertex 95.99999999862855 -1.0895348093039527e-09 9.0
    vertex 96.00000000010942 11.708138083869216 10.178705812374357
    vertex 96.00000000011325 0.0 14.999999999999998
  endloop
endfacet
facet normal 1.0 -1.193340110995938e-11 -1.0744347703344054e-10
  outer loop
    vertex 96.00000000010942 11.708138083869216 10.178705812374357
    vertex 95.99999999862855 -1.0895348093039527e-09 9.0
    vertex 96.00000000011008 12.99999996281149 10.008628960497706
  endloop
endfacet
facet normal 1.0 -1.193340110995938e-11 -1.0744347703344054e-10
  outer loop
    vertex 96.00000000011008 12.99999996281149 10.008628960497706
    vertex 95.99999999862855 -1.0895348093039527e-09 9.0
    vertex 95.99999999862855 164.99999999891048 9.0
  endloop
endfacet
facet normal 1.0 -1.193340110995938e-11 -1.0744347703344054e-10
  outer loop
    vertex 96.00000000011325 0.0 14.999999999999998
    vertex 96.00000000010942 11.708138083869216 10.178705812374357
    vertex 96.00000000010901 10.504314458778106 10.677345892473278
  endloop
endfacet
facet normal 1.0 -1.193340110995938e-11 -1.0744347703344054e-10
  outer loop
    vertex 96.00000000011325 0.0 14.999999999999998
    vertex 96.00000000010901 10.504314458778106 10.677345892473278
    vertex 96.00000000010891 9.47056767740173 11.470567703697943
  endloop
endfacet
facet normal 1.0 -1.193340110995938e-11 -1.0744347703344054e-10
  outer loop
    vertex 96.00000000011325 0.0 14.999999999999998
    vertex 96.00000000010891 9.47056767740173 11.470567703697943
    vertex 96.0000000001091 8.677345873879055 12.504314490984312
  endloop
endfacet
facet normal 1.0 -1.193340110995938e-11 -1.0744347703344054e-10
  outer loop
    vertex 96.00000000011325 0.0 14.999999999999998
    vertex 96.0000000001091 8.677345873879055 12.504314490984312
    vertex 96.00000000010955 8.31351354822132 13.38268343064431
  endloop
endfacet
facet normal 1.0 -1.193340110995938e-11 -1.0744347703344054e-10
  outer loop
    vertex 96.00000000011325 0.0 14.999999999999998
    vertex 96.00000000010955 8.31351354822132 13.38268343064431
    vertex 96.00000000010955 8.17870580274924 13.708138119790553
  endloop
endfacet
facet normal 1.0 -1.193340110995938e-11 -1.0744347703344054e-10
  outer loop
    vertex 96.00000000011325 0.0 14.999999999999998
    vertex 96.00000000010955 8.17870580274924 13.708138119790553
    vertex 96.00000000011174 8.008628960497715 14.999999999999998
  endloop
endfacet
facet normal 1.0 -1.193340110995938e-11 -1.0744347703344054e-10
  outer loop
    vertex 96.00000000011008 12.99999996281149 10.008628960497706
    vertex 95.99999999862855 164.99999999891048 9.0
    vertex 96.00000000011096 14.291861844288116 10.178705793124113
  endloop
endfacet
facet normal 1.0 -1.193340110995938e-11 -1.0744347703344054e-10
  outer loop
    vertex 96.00000000011096 14.291861844288116 10.178705793124113
    vertex 95.99999999862855 164.99999999891048 9.0
    vertex 96.00000000011333 63.0 9.999999912454125
  endloop
endfacet
facet normal 1.0 -1.193340110995938e-11 -1.0744347703344054e-10
  outer loop
    vertex 96.00000000011096 14.291861844288116 10.178705793124113
    vertex 96.00000000011333 63.0 9.999999912454125
    vertex 96.000000000112 15.495685476809545 10.677345855284665
  endloop
endfacet
facet normal 1.0 -1.193340110995938e-11 -1.0744347703344054e-10
  outer loop
    vertex 96.000000000112 15.495685476809545 10.677345855284665
    vertex 96.00000000011333 63.0 9.999999912454125
    vertex 96.00000000011313 16.529432270005845 11.470567651105302
  endloop
endfacet
facet normal 1.0 -1.193340110995938e-11 -1.0744347703344054e-10
  outer loop
    vertex 96.00000000011313 16.529432270005845 11.470567651105302
    vertex 96.00000000011333 63.0 9.999999912454125
    vertex 96.00000000010024 17.322654086648495 12.50431442359511
  endloop
endfacet
facet normal 1.0 -1.193340110995938e-11 -1.0744347703344054e-10
  outer loop
    vertex 96.00000000010024 17.322654086648495 12.50431442359511
    vertex 96.00000000011333 63.0 9.999999912454125
    vertex 95.99999999999898 17.686486415644225 13.382683352618468
  endloop
endfacet
facet normal 1.0 -1.193340110995938e-11 -1.0744347703344054e-10
  outer loop
    vertex 95.99999999999898 17.686486415644225 13.382683352618468
    vertex 96.00000000011333 63.0 9.999999912454125
    vertex 96.00000000010249 17.821294168808173 13.70813804661763
  endloop
endfacet
facet normal 1.0 -1.193340110995938e-11 -1.0744347703344054e-10
  outer loop
    vertex 96.00000000010249 17.821294168808173 13.70813804661763
    vertex 96.00000000011333 63.0 9.999999912454125
    vertex 96.00000000010056 17.991371027946602 14.99999990634137
  endloop
endfacet
facet normal 1.0 -1.193340110995938e-11 -1.0744347703344054e-10
  outer loop
    vertex 96.00000000010056 17.991371027946602 14.99999990634137
    vertex 96.00000000011333 63.0 9.999999912454125
    vertex 96.00000000011333 61.705904774487394 10.170370781008783
  endloop
endfacet
facet normal 1.0 -1.193340110995938e-11 -1.0744347703344054e-10
  outer loop
    vertex 96.00000000010056 17.991371027946602 14.99999990634137
    vertex 96.00000000011333 61.705904774487394 10.170370781008783
    vertex 96.00000000011333 60.5 10.669872893531931
  endloop
endfacet
facet normal 1.0 -1.193340110995938e-11 -1.0744347703344054e-10
  outer loop
    vertex 96.00000000010056 17.991371027946602 14.99999990634137
    vertex 96.00000000011333 60.5 10.669872893531931
    vertex 96.00000000011332 60.3304150531564 10.8
  endloop
endfacet
facet normal 1.0 -1.193340110995938e-11 -1.0744347703344054e-10
  outer loop
    vertex 96.00000000010056 17.991371027946602 14.99999990634137
    vertex 96.00000000011332 60.3304150531564 10.8
    vertex 96.00000000011333 59.46446609406726 11.464466006521386
  endloop
endfacet
facet normal 1.0 -1.193340110995938e-11 -1.0744347703344054e-10
  outer loop
    vertex 96.00000000010056 17.991371027946602 14.99999990634137
    vertex 96.00000000011333 59.46446609406726 11.464466006521386
    vertex 96.00000000011333 58.66987298107781 12.499999912454124
  endloop
endfacet
facet normal 1.0 -1.193340110995938e-11 -1.0744347703344054e-10
  outer loop
    vertex 96.00000000010056 17.991371027946602 14.99999990634137
    vertex 96.00000000011333 58.66987298107781 12.499999912454124
    vertex 96.00000000011333 58.17037086855466 13.705904686941519
  endloop
endfacet
facet normal 1.0 -1.193340110995938e-11 -1.0744347703344054e-10
  outer loop
    vertex 96.00000000010056 17.991371027946602 14.99999990634137
    vertex 96.00000000011333 58.17037086855466 13.705904686941519
    vertex 96.00000000011333 57.99999999999999 14.999999912454124
  endloop
endfacet
facet normal 1.0 -1.193340110995938e-11 -1.0744347703344054e-10
  outer loop
    vertex 96.00000000011333 63.0 9.999999912454125
    vertex 95.99999999862855 164.99999999891048 9.0
    vertex 96.00000000011333 64.2940952255126 10.170370781008783
  endloop
endfacet
facet normal 1.0 -1.193340110995938e-11 -1.0744347703344054e-10
  outer loop
    vertex 96.00000000011333 64.2940952255126 10.170370781008783
    vertex 95.99999999862855 164.99999999891048 9.0
    vertex 96.00000000011333 65.5 10.669872893531934
  endloop
endfacet
facet normal 1.0 -1.193340110995938e-11 -1.0744347703344054e-10
  outer loop
    vertex 96.00000000011333 65.5 10.669872893531934
    vertex 95.99999999862855 164.99999999891048 9.0
    vertex 96.00000000011332 65.66958494684359 10.8
  endloop
endfacet
facet normal 1.0 -1.193340110995938e-11 -1.0744347703344054e-10
  outer loop
    vertex 96.00000000011332 65.66958494684359 10.8
    vertex 95.99999999862855 164.99999999891048 9.0
    vertex 96.00000000011332 73.0 10.8
  endloop
endfacet
facet normal 1.0 -1.193340110995938e-11 -1.0744347703344054e-10
  outer loop
    vertex 96.00000000011332 65.66958494684359 10.8
    vertex 96.00000000011332 73.0 10.8
    vertex 96.00000000011333 66.53553390593274 11.46446600652139
  endloop
endfacet
facet normal 1.0 -1.193340110995938e-11 -1.0744347703344054e-10
  outer loop
    vertex 96.00000000011333 66.53553390593274 11.46446600652139
    vertex 96.00000000011332 73.0 10.8
    vertex 96.00000000011333 67.3301270189222 12.499999912454129
  endloop
endfacet
facet normal 1.0 -1.193340110995938e-11 -1.0744347703344054e-10
  outer loop
    vertex 96.00000000011333 67.3301270189222 12.499999912454129
    vertex 96.00000000011332 73.0 10.8
    vertex 96.00000000011333 67.82962913144534 13.705904686941528
  endloop
endfacet
facet normal 1.0 -1.193340110995938e-11 -1.0744347703344054e-10
  outer loop
    vertex 96.00000000011333 67.82962913144534 13.705904686941528
    vertex 96.00000000011332 73.0 10.8
    vertex 96.00000000011333 68.0 14.999999912454133
  endloop
endfacet
facet normal 1.0 -1.193340110995938e-11 -1.0744347703344054e-10
  outer loop
    vertex 96.00000000011332 73.0 10.8
    vertex 95.99999999862855 164.99999999891048 9.0
    vertex 96.0000000001133 113.00000000000011 10.8
  endloop
endfacet
facet normal 1.0 -1.193340110995938e-11 -1.0744347703344054e-10
  outer loop
    vertex 96.0000000001133 113.00000000000011 10.8
    vertex 95.99999999862855 164.99999999891048 9.0
    vertex 96.00000000070938 151.9999999628115 10.008628960497708
  endloop
endfacet
facet normal 1.0 -1.193340110995938e-11 -1.0744347703344054e-10
  outer loop
    vertex 96.0000000001133 113.00000000000011 10.8
    vertex 96.00000000070938 151.9999999628115 10.008628960497708
    vertex 96.0000000001133 113.00000000000011 15.0
  endloop
endfacet
facet normal 1.0 -1.193340110995938e-11 -1.0744347703344054e-10
  outer loop
    vertex 96.0000000001133 113.00000000000011 15.0
    vertex 96.00000000070938 151.9999999628115 10.008628960497708
    vertex 96.00000000079505 150.7081380838692 10.178705812374359
  endloop
endfacet
facet normal 1.0 -1.193340110995938e-11 -1.0744347703344054e-10
  outer loop
    vertex 96.0000000001133 113.00000000000011 15.0
    vertex 96.00000000079505 150.7081380838692 10.178705812374359
    vertex 96.00000000083426 149.50431445877814 10.677345892473268
  endloop
endfacet
facet normal 1.0 -1.193340110995938e-11 -1.0744347703344054e-10
  outer loop
    vertex 96.0000000001133 113.00000000000011 15.0
    vertex 96.00000000083426 149.50431445877814 10.677345892473268
    vertex 96.00000000082436 148.47056767740173 11.470567703697942
  endloop
endfacet
facet normal 1.0 -1.193340110995938e-11 -1.0744347703344054e-10
  outer loop
    vertex 96.0000000001133 113.00000000000011 15.0
    vertex 96.00000000082436 148.47056767740173 11.470567703697942
    vertex 96.000000000766 147.67734587387906 12.504314490984289
  endloop
endfacet
facet normal 1.0 -1.193340110995938e-11 -1.0744347703344054e-10
  outer loop
    vertex 96.0000000001133 113.00000000000011 15.0
    vertex 96.000000000766 147.67734587387906 12.504314490984289
    vertex 96.00000000011296 145.9999999988838 14.999999999929196
  endloop
endfacet
facet normal 1.0 -1.193340110995938e-11 -1.0744347703344054e-10
  outer loop
    vertex 96.00000000011296 145.9999999988838 14.999999999929196
    vertex 96.000000000766 147.67734587387906 12.504314490984289
    vertex 96.00000000066576 147.17870580148778 13.708138120822744
  endloop
endfacet
facet normal 1.0 -1.193340110995938e-11 -1.0744347703344054e-10
  outer loop
    vertex 96.00000000011296 145.9999999988838 14.999999999929196
    vertex 96.00000000066576 147.17870580148778 13.708138120822744
    vertex 96.00000000052248 146.99144486033865 15.130526191533667
  endloop
endfacet
facet normal 1.0 -1.193340110995938e-11 -1.0744347703344054e-10
  outer loop
    vertex 96.00000000066576 147.17870580148778 13.708138120822744
    vertex 96.000000000766 147.67734587387906 12.504314490984289
    vertex 96.00000000067368 147.31351354822147 13.382683430644224
  endloop
endfacet
facet normal 1.0 -1.193340110995938e-11 -1.0744347703344054e-10
  outer loop
    vertex 96.00000000070938 151.9999999628115 10.008628960497708
    vertex 95.99999999862855 164.99999999891048 9.0
    vertex 96.00000000058307 153.29186184428812 10.178705793124111
  endloop
endfacet
facet normal 1.0 -1.193340110995938e-11 -1.0744347703344054e-10
  outer loop
    vertex 96.00000000058307 153.29186184428812 10.178705793124111
    vertex 95.99999999862855 164.99999999891048 9.0
    vertex 96.00000000042476 154.49568547680954 10.67734585528466
  endloop
endfacet
facet normal 1.0 -1.193340110995938e-11 -1.0744347703344054e-10
  outer loop
    vertex 96.00000000042476 154.49568547680954 10.67734585528466
    vertex 95.99999999862855 164.99999999891048 9.0
    vertex 96.00000000024522 155.52943227000583 11.47056765110529
  endloop
endfacet
facet normal 1.0 -1.193340110995938e-11 -1.0744347703344054e-10
  outer loop
    vertex 96.00000000024522 155.52943227000583 11.47056765110529
    vertex 95.99999999862855 164.99999999891048 9.0
    vertex 96.00000000067413 156.32265406174227 12.504314391136678
  endloop
endfacet
facet normal 1.0 -1.193340110995938e-11 -1.0744347703344054e-10
  outer loop
    vertex 96.00000000067413 156.32265406174227 12.504314391136678
    vertex 95.99999999862855 164.99999999891048 9.0
    vertex 96.00000000513307 156.6864863119579 13.382683329793348
  endloop
endfacet
facet normal 1.0 -1.193340110995938e-11 -1.0744347703344054e-10
  outer loop
    vertex 96.00000000513307 156.6864863119579 13.382683329793348
    vertex 95.99999999862855 164.99999999891048 9.0
    vertex 96.00000000622565 156.82129406674593 13.708138027713373
  endloop
endfacet
facet normal 1.0 -1.193340110995938e-11 -1.0744347703344054e-10
  outer loop
    vertex 96.00000000622565 156.82129406674593 13.708138027713373
    vertex 95.99999999862855 164.99999999891048 9.0
    vertex 96.00000000622565 157.00855502923557 15.130526096736974
  endloop
endfacet
facet normal 1.0 -1.193340110995938e-11 -1.0744347703344054e-10
  outer loop
    vertex 96.00000000622565 157.00855502923557 15.130526096736974
    vertex 95.99999999862855 164.99999999891048 9.0
    vertex 96.00000000646693 157.99999988874544 14.999999890358815
  endloop
endfacet
facet normal 1.0 -1.193340110995938e-11 -1.0744347703344054e-10
  outer loop
    vertex 96.00000000646693 157.99999988874544 14.999999890358815
    vertex 95.99999999862855 164.99999999891048 9.0
    vertex 96.00000000077168 165.00000002666567 14.99999993552908
  endloop
endfacet
facet normal 1.0 -1.193340110995938e-11 -1.0744347703344054e-10
  outer loop
    vertex 96.00000000011332 73.0 14.999999912454133
    vertex 96.00000000011333 68.0 14.999999912454133
    vertex 96.00000000011332 73.0 10.8
  endloop
endfacet
facet normal 2.032266870503602e-10 -9.46130894072925e-10 1.0
  outer loop
    vertex 0.0049621288739586595 68.0 14.99999996418578
    vertex 1.4449965841972805 69.43990097024094 14.999999964772083
    vertex 0.012192732973968478 146.00000000159184 14.999999994805643
  endloop
endfacet
facet normal 2.032266870503602e-10 -9.46130894072925e-10 1.0
  outer loop
    vertex 1.4449965841972805 69.43990097024094 14.999999964772083
    vertex 0.0049621288739586595 68.0 14.99999996418578
    vertex 96.00000000011333 68.0 14.999999912454133
  endloop
endfacet
facet normal 2.032266870503602e-10 -9.46130894072925e-10 1.0
  outer loop
    vertex 1.4449965841972805 69.43990097024094 14.999999964772083
    vertex 96.00000000011333 68.0 14.999999912454133
    vertex 94.56009902987239 69.43990097024094 14.999999912746757
  endloop
endfacet
facet normal 2.032266870503602e-10 -9.46130894072925e-10 1.0
  outer loop
    vertex 94.56009902987239 69.43990097024094 14.999999912746757
    vertex 96.00000000011333 68.0 14.999999912454133
    vertex 96.00000000011332 73.0 14.999999912454133
  endloop
endfacet
facet normal 2.032266870503602e-10 -9.46130894072925e-10 1.0
  outer loop
    vertex 12.560099029872358 71.56009902975906 14.99999993845355
    vertex 14.000000000113303 73.0 14.99999994030963
    vertex 12.560099029872358 114.43990097024106 15.000000001362334
  endloop
endfacet
facet normal 2.032266870503602e-10 -9.46130894072925e-10 1.0
  outer loop
    vertex 14.000000000113303 73.0 14.99999994030963
    vertex 12.560099029872358 71.56009902975906 14.99999993845355
    vertex 94.56009902987238 71.56009902975906 14.999999911580936
  endloop
endfacet
facet normal 2.032266870503602e-10 -9.46130894072925e-10 1.0
  outer loop
    vertex 14.000000000113303 73.0 14.99999994030963
    vertex 94.56009902987238 71.56009902975906 14.999999911580936
    vertex 96.00000000011332 73.0 14.999999912454133
  endloop
endfacet
facet normal 2.032266870503602e-10 -9.46130894072925e-10 1.0
  outer loop
    vertex 96.00000000011332 73.0 14.999999912454133
    vertex 94.56009902987238 71.56009902975906 14.999999911580936
    vertex 94.56009902987239 69.43990097024094 14.999999912746757
  endloop
endfacet
facet normal 2.032266870503602e-10 -9.46130894072925e-10 1.0
  outer loop
    vertex 12.560099029872358 114.43990097024106 15.000000001362334
    vertex 14.000000000113303 113.00000000000011 15.0
    vertex 94.56009902987235 114.43990097024106 15.000000000289536
  endloop
endfacet
facet normal 2.032266870503602e-10 -9.46130894072925e-10 1.0
  outer loop
    vertex 14.000000000113303 113.00000000000011 15.0
    vertex 12.560099029872358 114.43990097024106 15.000000001362334
    vertex 14.000000000113303 73.0 14.99999994030963
  endloop
endfacet
facet normal 2.032266870503602e-10 -9.46130894072925e-10 1.0
  outer loop
    vertex 94.56009902987235 114.43990097024106 15.000000000289536
    vertex 14.000000000113303 113.00000000000011 15.0
    vertex 96.0000000001133 113.00000000000011 15.0
  endloop
endfacet
facet normal 2.032266870503602e-10 -9.46130894072925e-10 1.0
  outer loop
    vertex 94.56009902987235 114.43990097024106 15.000000000289536
    vertex 96.0000000001133 113.00000000000011 15.0
    vertex 96.00000000011296 145.9999999988838 14.999999999929196
  endloop
endfacet
facet normal 2.032266870503602e-10 -9.46130894072925e-10 1.0
  outer loop
    vertex 0.012192732973968478 146.00000000159184 14.999999994805643
    vertex 1.4519602305060348 144.56009903131027 14.999999993947693
    vertex 96.00000000011296 145.9999999988838 14.999999999929196
  endloop
endfacet
facet normal 2.032266870503602e-10 -9.46130894072925e-10 1.0
  outer loop
    vertex 1.4519602305060348 144.56009903131027 14.999999993947693
    vertex 0.012192732973968478 146.00000000159184 14.999999994805643
    vertex 1.4449965841972805 69.43990097024094 14.999999964772083
  endloop
endfacet
facet normal 2.032266870503602e-10 -9.46130894072925e-10 1.0
  outer loop
    vertex 1.4519602305060348 144.56009903131027 14.999999993947693
    vertex 1.4449965841972805 69.43990097024094 14.999999964772083
    vertex 1.4451931266688407 71.56009902975906 14.999999952024544
  endloop
endfacet
facet normal 2.032266870503602e-10 -9.46130894072925e-10 1.0
  outer loop
    vertex 96.00000000011296 145.9999999988838 14.999999999929196
    vertex 1.4519602305060348 144.56009903131027 14.999999993947693
    vertex 94.56009902987202 144.56009902868348 14.999999998490004
  endloop
endfacet
facet normal 2.032266870503602e-10 -9.46130894072925e-10 1.0
  outer loop
    vertex 96.00000000011296 145.9999999988838 14.999999999929196
    vertex 94.56009902987202 144.56009902868348 14.999999998490004
    vertex 94.56009902987235 114.43990097024106 15.000000000289536
  endloop
endfacet
facet normal -2.418224805711393e-10 -0.9914448595098612 0.1305262063781516
  outer loop
    vertex 96.00000000622565 157.00855502923557 15.130526096736974
    vertex 0.01232500716808209 156.82129409838743 13.708138090219805
    vertex 96.00000000622565 156.82129406674593 13.708138027713373
  endloop
endfacet
facet normal -2.418224805711393e-10 -0.9914448595098612 0.1305262063781516
  outer loop
    vertex 0.01232500716808209 156.82129409838743 13.708138090219805
    vertex 96.00000000622565 157.00855502923557 15.130526096736974
    vertex 0.01232500716808209 157.00855506087706 15.130526159243406
  endloop
endfacet
facet normal 4.118177460432018e-10 0.991444861454854 0.13052619160446446
  outer loop
    vertex 0.012325001608213614 147.17870583312927 13.708138183329178
    vertex 96.00000000052248 146.99144486033865 15.130526191533667
    vertex 96.00000000066576 147.17870580148778 13.708138120822744
  endloop
endfacet
facet normal 4.118177460432018e-10 0.991444861454854 0.13052619160446446
  outer loop
    vertex 96.00000000052248 146.99144486033865 15.130526191533667
    vertex 0.012325001608213614 147.17870583312927 13.708138183329178
    vertex 0.012325001464914198 146.99144489198014 15.130526254040099
  endloop
endfacet
facet normal 4.301608912831713e-10 0.1305262178076923 0.9914448580051333
  outer loop
    vertex 0.01232500716808209 157.00855506087706 15.130526159243406
    vertex 17.20783722100572 157.99999998005967 14.99999990696641
    vertex 0.0018568289277373085 158.00000000000009 14.99999991059304
  endloop
endfacet
facet normal 4.301608912831713e-10 0.1305262178076923 0.9914448580051333
  outer loop
    vertex 17.20783722100572 157.99999998005967 14.99999990696641
    vertex 0.01232500716808209 157.00855506087706 15.130526159243406
    vertex 96.00000000622565 157.00855502923557 15.130526096736974
  endloop
endfacet
facet normal 4.301608912831713e-10 0.1305262178076923 0.9914448580051333
  outer loop
    vertex 17.20783722100572 157.99999998005967 14.99999990696641
    vertex 96.00000000622565 157.00855502923557 15.130526096736974
    vertex 93.24084919287793 157.99999998005967 14.99999989540122
  endloop
endfacet
facet normal 4.301608912831713e-10 0.1305262178076923 0.9914448580051333
  outer loop
    vertex 93.24084919287793 157.99999998005967 14.99999989540122
    vertex 96.00000000622565 157.00855502923557 15.130526096736974
    vertex 96.00000000646693 157.99999988874544 14.999999890358815
  endloop
endfacet
facet normal -4.402278865492746e-12 0.7933533421810792 0.6087614265458278
  outer loop
    vertex 1.1013661094239068e-10 8.677345873623459 12.504314490623196
    vertex 96.00000000010891 9.47056767740173 11.470567703697943
    vertex 1.0993357335564724e-10 9.470567677146132 11.470567703336828
  endloop
endfacet
facet normal -4.402278865492746e-12 0.7933533421810792 0.6087614265458278
  outer loop
    vertex 96.00000000010891 9.47056767740173 11.470567703697943
    vertex 1.1013661094239068e-10 8.677345873623459 12.504314490623196
    vertex 96.0000000001091 8.677345873879055 12.504314490984312
  endloop
endfacet
facet normal -3.899364416566313e-12 0.923879533224089 0.38268343064423327
  outer loop
    vertex 1.1058780557959834e-10 8.178705802493644 13.708138119429416
    vertex 96.00000000010955 8.31351354822132 13.38268343064431
    vertex 1.1058780557959834e-10 8.313513547965723 13.382683430283173
  endloop
endfacet
facet normal -3.899364416566313e-12 0.923879533224089 0.38268343064423327
  outer loop
    vertex 96.00000000010955 8.31351354822132 13.38268343064431
    vertex 1.1058780557959834e-10 8.178705802493644 13.708138119429416
    vertex 96.00000000010955 8.17870580274924 13.708138119790553
  endloop
endfacet
facet normal -1.2539255128183736e-12 1.4263370694055531e-11 1.0
  outer loop
    vertex 1.1329779336932687e-10 1.936382890055088e-13 15.0
    vertex 1.2243100612474618 1.224310061134435 14.999999999972395
    vertex 1.2243100612470998 6.784318899111134 14.999999999696374
  endloop
endfacet
facet normal -1.2539255128183736e-12 1.4263370694055531e-11 1.0
  outer loop
    vertex 1.2243100612474618 1.224310061134435 14.999999999972395
    vertex 1.1329779336932687e-10 1.936382890055088e-13 15.0
    vertex 96.00000000011325 0.0 14.999999999999998
  endloop
endfacet
facet normal -1.2539255128183736e-12 1.4263370694055531e-11 1.0
  outer loop
    vertex 1.2243100612474618 1.224310061134435 14.999999999972395
    vertex 96.00000000011325 0.0 14.999999999999998
    vertex 94.77568993897877 1.2243100611342466 14.999999999997694
  endloop
endfacet
facet normal -1.2539255128183736e-12 1.4263370694055531e-11 1.0
  outer loop
    vertex 94.77568993897877 1.2243100611342466 14.999999999997694
    vertex 96.00000000011325 0.0 14.999999999999998
    vertex 96.00000000011174 8.008628960497715 14.999999999999998
  endloop
endfacet
facet normal -1.2539255128183736e-12 1.4263370694055531e-11 1.0
  outer loop
    vertex 1.1277609957005551e-10 8.008628960242117 14.999999999638861
    vertex 1.2243100612470998 6.784318899111134 14.999999999696374
    vertex 96.00000000011174 8.008628960497715 14.999999999999998
  endloop
endfacet
facet normal -1.2539255128183736e-12 1.4263370694055531e-11 1.0
  outer loop
    vertex 1.2243100612470998 6.784318899111134 14.999999999696374
    vertex 1.1277609957005551e-10 8.008628960242117 14.999999999638861
    vertex 1.1329779336932687e-10 1.936382890055088e-13 15.0
  endloop
endfacet
facet normal -1.2539255128183736e-12 1.4263370694055531e-11 1.0
  outer loop
    vertex 96.00000000011174 8.008628960497715 14.999999999999998
    vertex 1.2243100612470998 6.784318899111134 14.999999999696374
    vertex 94.77568993897772 6.784318899360211 15.000000000022997
  endloop
endfacet
facet normal -1.2539255128183736e-12 1.4263370694055531e-11 1.0
  outer loop
    vertex 96.00000000011174 8.008628960497715 14.999999999999998
    vertex 94.77568993897772 6.784318899360211 15.000000000022997
    vertex 94.77568993897877 1.2243100611342466 14.999999999997694
  endloop
endfacet
facet normal 7.277709300595838e-10 0.3826834375276721 0.9238795303728751
  outer loop
    vertex 0.012325001776712252 149.5043144904196 10.677345954979682
    vertex 96.00000000079505 150.7081380838692 10.178705812374359
    vertex 0.012325001737503437 150.70813811551068 10.178705874880773
  endloop
endfacet
facet normal 7.277709300595838e-10 0.3826834375276721 0.9238795303728751
  outer loop
    vertex 96.00000000079505 150.7081380838692 10.178705812374359
    vertex 0.012325001776712252 149.5043144904196 10.677345954979682
    vertex 96.00000000083426 149.50431445877814 10.677345892473268
  endloop
endfacet
facet normal 6.579418279700041e-10 0.7933533421810693 0.608761426545841
  outer loop
    vertex 0.012325001766808528 148.47056770904322 11.470567766204356
    vertex 96.000000000766 147.67734587387906 12.504314490984289
    vertex 96.00000000082436 148.47056767740173 11.470567703697942
  endloop
endfacet
facet normal 6.579418279700041e-10 0.7933533421810693 0.608761426545841
  outer loop
    vertex 96.000000000766 147.67734587387906 12.504314490984289
    vertex 0.012325001766808528 148.47056770904322 11.470567766204356
    vertex 0.012325001708423943 147.67734590552055 12.504314553490701
  endloop
endfacet
facet normal -1.776861099025771e-13 -0.7933533331098276 0.6087614383677131
  outer loop
    vertex 96.00000000011313 16.529432270005845 11.470567651105302
    vertex 1.0127063632126009e-10 17.32265408639291 12.504314423233996
    vertex 1.141522432135389e-10 16.529432269750263 11.470567650744186
  endloop
endfacet
facet normal -1.776861099025771e-13 -0.7933533331098276 0.6087614383677131
  outer loop
    vertex 1.0127063632126009e-10 17.32265408639291 12.504314423233996
    vertex 96.00000000011313 16.529432270005845 11.470567651105302
    vertex 96.00000000010024 17.322654086648495 12.50431442359511
  endloop
endfacet
facet normal 1.0202780833748409e-12 -0.923879530344342 0.38268343759655704
  outer loop
    vertex 96.00000000010024 17.322654086648495 12.50431442359511
    vertex 0.0 17.68648641538864 13.382683352257331
    vertex 1.0127063632126009e-10 17.32265408639291 12.504314423233996
  endloop
endfacet
facet normal 1.0202780833748409e-12 -0.923879530344342 0.38268343759655704
  outer loop
    vertex 0.0 17.68648641538864 13.382683352257331
    vertex 96.00000000010024 17.322654086648495 12.50431442359511
    vertex 95.99999999999898 17.686486415644225 13.382683352618468
  endloop
endfacet
facet normal -4.494255945891591e-12 0.3826834375276689 0.9238795303728764
  outer loop
    vertex 96.00000000010901 10.504314458778106 10.677345892473278
    vertex 1.1045244718843605e-10 11.708138083613617 10.178705812013241
    vertex 1.1004637201494915e-10 10.504314458522508 10.677345892112163
  endloop
endfacet
facet normal -4.494255945891591e-12 0.3826834375276689 0.9238795303728764
  outer loop
    vertex 1.1045244718843605e-10 11.708138083613617 10.178705812013241
    vertex 96.00000000010901 10.504314458778106 10.677345892473278
    vertex 96.00000000010942 11.708138083869216 10.178705812374357
  endloop
endfacet
facet normal 5.537483026865007e-10 0.9238795332240968 0.38268343064421423
  outer loop
    vertex 0.012325001708423943 147.67734590552055 12.504314553490701
    vertex 96.00000000067368 147.31351354822147 13.382683430644224
    vertex 96.000000000766 147.67734587387906 12.504314490984289
  endloop
endfacet
facet normal 5.537483026865007e-10 0.9238795332240968 0.38268343064421423
  outer loop
    vertex 96.00000000067368 147.31351354822147 13.382683430644224
    vertex 0.012325001708423943 147.67734590552055 12.504314553490701
    vertex 0.01232500161613208 147.31351357986296 13.382683493150656
  endloop
endfacet
facet normal -3.8993644165665146e-12 0.9238795332240574 0.3826834306443094
  outer loop
    vertex 1.1058780557959834e-10 8.313513547965723 13.382683430283173
    vertex 96.0000000001091 8.677345873879055 12.504314490984312
    vertex 1.1013661094239068e-10 8.677345873623459 12.504314490623196
  endloop
endfacet
facet normal -3.8993644165665146e-12 0.9238795332240574 0.3826834306443094
  outer loop
    vertex 96.0000000001091 8.677345873879055 12.504314490984312
    vertex 1.1058780557959834e-10 8.313513547965723 13.382683430283173
    vertex 96.00000000010955 8.31351354822132 13.38268343064431
  endloop
endfacet
facet normal 7.172977054005277e-10 0.6087614324567718 0.7933533376454526
  outer loop
    vertex 96.00000000082436 148.47056767740173 11.470567703697942
    vertex 0.012325001776712252 149.5043144904196 10.677345954979682
    vertex 0.012325001766808528 148.47056770904322 11.470567766204356
  endloop
endfacet
facet normal 7.172977054005277e-10 0.6087614324567718 0.7933533376454526
  outer loop
    vertex 0.012325001776712252 149.5043144904196 10.677345954979682
    vertex 96.00000000082436 148.47056767740173 11.470567703697942
    vertex 96.00000000083426 149.50431445877814 10.677345892473268
  endloop
endfacet
facet normal 2.7299527616599584e-10 -0.13052622297123995 0.9914448573253392
  outer loop
    vertex 96.00000000011296 145.9999999988838 14.999999999929196
    vertex 0.012325001464914198 146.99144489198014 15.130526254040099
    vertex 0.012192732973968478 146.00000000159184 14.999999994805643
  endloop
endfacet
facet normal 2.7299527616599584e-10 -0.13052622297123995 0.9914448573253392
  outer loop
    vertex 0.012325001464914198 146.99144489198014 15.130526254040099
    vertex 96.00000000011296 145.9999999988838 14.999999999929196
    vertex 96.00000000052248 146.99144486033865 15.130526191533667
  endloop
endfacet
facet normal -5.534748571753238e-11 -0.9238795611243019 0.38268336328715336
  outer loop
    vertex 96.00000000513307 156.6864863119579 13.382683329793348
    vertex 0.012325001616583274 156.32265409338376 12.504314453643092
    vertex 96.00000000067413 156.32265406174227 12.504314391136678
  endloop
endfacet
facet normal -5.534748571753238e-11 -0.9238795611243019 0.38268336328715336
  outer loop
    vertex 0.012325001616583274 156.32265409338376 12.504314453643092
    vertex 96.00000000513307 156.6864863119579 13.382683329793348
    vertex 0.012325006075514277 156.6864863435994 13.382683392299782
  endloop
endfacet
facet normal -5.5347421813457e-11 -0.9238795275216557 0.38268344441112484
  outer loop
    vertex 96.00000000622565 156.82129406674593 13.708138027713373
    vertex 0.012325006075514277 156.6864863435994 13.382683392299782
    vertex 96.00000000513307 156.6864863119579 13.382683329793348
  endloop
endfacet
facet normal -5.5347421813457e-11 -0.9238795275216557 0.38268344441112484
  outer loop
    vertex 0.012325006075514277 156.6864863435994 13.382683392299782
    vertex 96.00000000622565 156.82129406674593 13.708138027713373
    vertex 0.01232500716808209 156.82129409838743 13.708138090219805
  endloop
endfacet
facet normal 1.2731462965253938e-20 1.0 9.73135822275769e-10
  outer loop
    vertex 12.560099025227682 114.43990098374836 9.00000003272589
    vertex 94.56009902987235 114.43990097024106 15.000000000289536
    vertex 94.56009902522764 114.43990098374836 9.000000031653094
  endloop
endfacet
facet normal 1.2731462965253938e-20 1.0 9.73135822275769e-10
  outer loop
    vertex 94.56009902987235 114.43990097024106 15.000000000289536
    vertex 12.560099025227682 114.43990098374836 9.00000003272589
    vertex 12.560099029872358 114.43990097024106 15.000000001362334
  endloop
endfacet
facet normal -1.0 -1.048584960627181e-14 2.10662391055924e-10
  outer loop
    vertex 94.56009902987202 144.56009902868348 14.999999998490004
    vertex 94.56009902522764 114.43990098374836 9.000000031653094
    vertex 94.56009902987235 114.43990097024106 15.000000000289536
  endloop
endfacet
facet normal -1.0 -1.048584960627181e-14 2.10662391055924e-10
  outer loop
    vertex 94.56009902522764 114.43990098374836 9.000000031653094
    vertex 94.56009902987202 144.56009902868348 14.999999998490004
    vertex 94.56009902522733 144.56009904219079 9.000000029853561
  endloop
endfacet
facet normal -2.8212222133099253e-11 -1.0 -9.73135822269826e-10
  outer loop
    vertex 94.56009902522733 144.56009904219079 9.000000029853561
    vertex 1.4519602305060348 144.56009903131027 14.999999993947693
    vertex 1.4519602258613555 144.56009904481758 9.00000002531125
  endloop
endfacet
facet normal -2.8212222133099253e-11 -1.0 -9.73135822269826e-10
  outer loop
    vertex 1.4519602305060348 144.56009903131027 14.999999993947693
    vertex 94.56009902522733 144.56009904219079 9.000000029853561
    vertex 94.56009902987202 144.56009902868348 14.999999998490004
  endloop
endfacet
facet normal -1.0 3.191727735758177e-13 2.2610517072953721e-10
  outer loop
    vertex 93.36575608218116 55.365756082068664 14.99999991179987
    vertex 93.36575607729377 20.625614955346652 8.99999996632096
    vertex 93.36575608217007 20.625614945870918 14.999999907339456
  endloop
endfacet
facet normal -1.0 3.191727735758177e-13 2.2610517072953721e-10
  outer loop
    vertex 93.36575607729377 20.625614955346652 8.99999996632096
    vertex 93.36575608218116 55.365756082068664 14.99999991179987
    vertex 93.36575607730487 55.36575609154442 8.99999997078138
  endloop
endfacet
facet normal -3.146040744462313e-19 -1.0 -7.043592779318565e-10
  outer loop
    vertex 93.36575608218116 55.365756082068664 14.99999991179987
    vertex 2.638879346231788 55.36575609154442 9.000000011304795
    vertex 93.36575607730487 55.36575609154442 8.99999997078138
  endloop
endfacet
facet normal -3.146040744462313e-19 -1.0 -7.043592779318565e-10
  outer loop
    vertex 2.638879346231788 55.36575609154442 9.000000011304795
    vertex 93.36575608218116 55.365756082068664 14.99999991179987
    vertex 2.6388793511081095 55.365756082068664 14.999999952323288
  endloop
endfacet
facet normal 0.9999999923087184 -0.00012402646283234627 -2.2619252818007888e-10
  outer loop
    vertex 2.6345706493751995 20.625614955105096 8.9999999668271
    vertex 2.6388793511081095 55.365756082068664 14.999999952323288
    vertex 2.634570654251521 20.62561494562936 14.999999907845595
  endloop
endfacet
facet normal 0.9999999923087184 -0.00012402646283234627 -2.2619252818007888e-10
  outer loop
    vertex 2.6388793511081095 55.365756082068664 14.999999952323288
    vertex 2.6345706493751995 20.625614955105096 8.9999999668271
    vertex 2.638879346231788 55.36575609154442 9.000000011304795
  endloop
endfacet
facet normal -2.6623517305464444e-12 1.0 7.043592779324584e-10
  outer loop
    vertex 2.6345706493751995 20.625614955105096 8.9999999668271
    vertex 93.36575608217007 20.625614945870918 14.999999907339456
    vertex 93.36575607729377 20.625614955346652 8.99999996632096
  endloop
endfacet
facet normal -2.6623517305464444e-12 1.0 7.043592779324584e-10
  outer loop
    vertex 93.36575608217007 20.625614945870918 14.999999907339456
    vertex 2.6345706493751995 20.625614955105096 8.9999999668271
    vertex 2.634570654251521 20.62561494562936 14.999999907845595
  endloop
endfacet
facet normal 2.015846899716983e-15 1.0 -2.2546509126523983e-11
  outer loop
    vertex 1.2243100612474618 1.224310061134435 14.999999999972395
    vertex 94.77568993752227 1.2243100597064034 9.000000000271124
    vertex 1.2243100597909313 1.224310059706592 9.000000000245823
  endloop
endfacet
facet normal 2.015846899716983e-15 1.0 -2.2546509126523983e-11
  outer loop
    vertex 94.77568993752227 1.2243100597064034 9.000000000271124
    vertex 1.2243100612474618 1.224310061134435 14.999999999972395
    vertex 94.77568993897877 1.2243100611342466 14.999999999997694
  endloop
endfacet
facet normal -1.0 -1.8867371653224537e-13 -1.8808944219786616e-12
  outer loop
    vertex 94.77568993897877 1.2243100611342466 14.999999999997694
    vertex 94.77568993752122 6.784318897932371 9.000000000296424
    vertex 94.77568993752227 1.2243100597064034 9.000000000271124
  endloop
endfacet
facet normal -1.0 -1.8867371653224537e-13 -1.8808944219786616e-12
  outer loop
    vertex 94.77568993752122 6.784318897932371 9.000000000296424
    vertex 94.77568993897877 1.2243100611342466 14.999999999997694
    vertex 94.77568993897772 6.784318899360211 15.000000000022997
  endloop
endfacet
facet normal 2.662470290004715e-12 -1.0 2.254650912652899e-11
  outer loop
    vertex 94.77568993752122 6.784318897932371 9.000000000296424
    vertex 1.2243100612470998 6.784318899111134 14.999999999696374
    vertex 1.2243100597905692 6.784318897683293 8.999999999969804
  endloop
endfacet
facet normal 2.662470290004715e-12 -1.0 2.254650912652899e-11
  outer loop
    vertex 1.2243100612470998 6.784318899111134 14.999999999696374
    vertex 94.77568993752122 6.784318897932371 9.000000000296424
    vertex 94.77568993897772 6.784318899360211 15.000000000022997
  endloop
endfacet
facet normal 1.0 6.511018386222396e-14 1.8808944219814477e-12
  outer loop
    vertex 1.2243100597905692 6.784318897683293 8.999999999969804
    vertex 1.2243100612474618 1.224310061134435 14.999999999972395
    vertex 1.2243100597909313 1.224310059706592 9.000000000245823
  endloop
endfacet
facet normal 1.0 6.511018386222396e-14 1.8808944219814477e-12
  outer loop
    vertex 1.2243100612474618 1.224310061134435 14.999999999972395
    vertex 1.2243100597905692 6.784318897683293 8.999999999969804
    vertex 1.2243100612470998 6.784318899111134 14.999999999696374
  endloop
endfacet
facet normal 1.4143744285059625e-10 -4.507659414541829e-09 1.0
  outer loop
    vertex 96.00000000646693 157.99999988874544 14.999999890358815
    vertex 93.24084919287793 163.5096777199006 14.999999922564122
    vertex 93.24084919287793 157.99999998005967 14.99999989540122
  endloop
endfacet
facet normal 1.4143744285059625e-10 -4.507659414541829e-09 1.0
  outer loop
    vertex 93.24084919287793 163.5096777199006 14.999999922564122
    vertex 96.00000000646693 157.99999988874544 14.999999890358815
    vertex 96.00000000077168 165.00000002666567 14.99999993552908
  endloop
endfacet
facet normal 1.4143744285059625e-10 -4.507659414541829e-09 1.0
  outer loop
    vertex 17.20783722100572 157.99999998005967 14.99999990696641
    vertex 0.0018568289277373085 159.00000000000009 14.999999923365463
    vertex 0.0018568289277373085 158.00000000000009 14.99999991059304
  endloop
endfacet
facet normal 1.4143744285059625e-10 -4.507659414541829e-09 1.0
  outer loop
    vertex 0.0018568289277373085 159.00000000000009 14.999999923365463
    vertex 17.20783722100572 157.99999998005967 14.99999990696641
    vertex 17.20783722100572 163.5096777199006 14.999999922564122
  endloop
endfacet
facet normal 1.4143744285059625e-10 -4.507659414541829e-09 1.0
  outer loop
    vertex 0.0018568289277373085 159.00000000000009 14.999999923365463
    vertex 17.20783722100572 163.5096777199006 14.999999922564122
    vertex 21.000000000771685 165.00000002666567 14.99999993552908
  endloop
endfacet
facet normal 1.4143744285059625e-10 -4.507659414541829e-09 1.0
  outer loop
    vertex 21.000000000771685 165.00000002666567 14.99999993552908
    vertex 17.20783722100572 163.5096777199006 14.999999922564122
    vertex 93.24084919287793 163.5096777199006 14.999999922564122
  endloop
endfacet
facet normal 1.4143744285059625e-10 -4.507659414541829e-09 1.0
  outer loop
    vertex 21.000000000771685 165.00000002666567 14.99999993552908
    vertex 93.24084919287793 163.5096777199006 14.999999922564122
    vertex 96.00000000077168 165.00000002666567 14.99999993552908
  endloop
endfacet
facet normal 5.9025314039192755e-19 1.0 3.880500324756398e-09
  outer loop
    vertex 17.207837218380174 158.00000003717741 9.000000011415741
    vertex 93.24084919287793 157.99999998005967 14.99999989540122
    vertex 93.24084919025236 158.00000003717741 8.999999999850552
  endloop
endfacet
facet normal 5.9025314039192755e-19 1.0 3.880500324756398e-09
  outer loop
    vertex 93.24084919287793 157.99999998005967 14.99999989540122
    vertex 17.207837218380174 158.00000003717741 9.000000011415741
    vertex 17.20783722100572 157.99999998005967 14.99999990696641
  endloop
endfacet
facet normal -1.0 -3.7494757130904864e-19 7.605374191393492e-11
  outer loop
    vertex 93.24084919287793 163.5096777199006 14.999999922564122
    vertex 93.24084919025236 158.00000003717741 8.999999999850552
    vertex 93.24084919287793 157.99999998005967 14.99999989540122
  endloop
endfacet
facet normal -1.0 -3.7494757130904864e-19 7.605374191393492e-11
  outer loop
    vertex 93.24084919025236 158.00000003717741 8.999999999850552
    vertex 93.24084919287793 163.5096777199006 14.999999922564122
    vertex 93.24084919025236 163.50967777701837 9.00000002701345
  endloop
endfacet
facet normal -0.0 -1.0 -3.880500324756398e-09
  outer loop
    vertex 93.24084919287793 163.5096777199006 14.999999922564122
    vertex 17.207837218380174 163.50967777701837 9.00000002701345
    vertex 93.24084919025236 163.50967777701837 9.00000002701345
  endloop
endfacet
facet normal -0.0 -1.0 -3.880500324756398e-09
  outer loop
    vertex 17.207837218380174 163.50967777701837 9.00000002701345
    vertex 93.24084919287793 163.5096777199006 14.999999922564122
    vertex 17.20783722100572 163.5096777199006 14.999999922564122
  endloop
endfacet
facet normal 1.0 2.1530556908287884e-19 -7.605374191393492e-11
  outer loop
    vertex 17.207837218380174 158.00000003717741 9.000000011415741
    vertex 17.20783722100572 163.5096777199006 14.999999922564122
    vertex 17.20783722100572 157.99999998005967 14.99999990696641
  endloop
endfacet
facet normal 1.0 2.1530556908287884e-19 -7.605374191393492e-11
  outer loop
    vertex 17.20783722100572 163.5096777199006 14.999999922564122
    vertex 17.207837218380174 158.00000003717741 9.000000011415741
    vertex 17.207837218380174 163.50967777701837 9.00000002701345
  endloop
endfacet
facet normal -0.0 1.0 -0.0
  outer loop
    vertex 16.456574899255752 75.45657489914245 10.8
    vertex 93.54342509948613 75.4565748980528 8.999999992499815
    vertex 16.45657489777101 75.4565748980528 8.999999992499815
  endloop
endfacet
facet normal -0.0 1.0 -0.0
  outer loop
    vertex 93.54342509948613 75.4565748980528 8.999999992499815
    vertex 16.456574899255752 75.45657489914245 10.8
    vertex 93.54342510097086 75.45657489914245 10.8
  endloop
endfacet
facet normal -1.0 -6.429682838638037e-16 -0.0
  outer loop
    vertex 93.54342510097086 75.45657489914245 10.8
    vertex 93.5434250994861 110.54342509976803 8.999999992499815
    vertex 93.54342509948613 75.4565748980528 8.999999992499815
  endloop
endfacet
facet normal -1.0 -6.429682838638037e-16 -0.0
  outer loop
    vertex 93.5434250994861 110.54342509976803 8.999999992499815
    vertex 93.54342510097086 75.45657489914245 10.8
    vertex 93.54342510097085 110.54342510085766 10.8
  endloop
endfacet
facet normal -0.0 -1.0 -0.0
  outer loop
    vertex 93.54342510097085 110.54342510085766 10.8
    vertex 16.45657489777101 110.54342509976803 8.999999992499815
    vertex 93.5434250994861 110.54342509976803 8.999999992499815
  endloop
endfacet
facet normal -0.0 -1.0 -0.0
  outer loop
    vertex 16.45657489777101 110.54342509976803 8.999999992499815
    vertex 93.54342510097085 110.54342510085766 10.8
    vertex 16.456574899255752 110.54342510085766 10.8
  endloop
endfacet
facet normal 1.0 0.0 0.0
  outer loop
    vertex 16.45657489777101 110.54342509976803 8.999999992499815
    vertex 16.456574899255752 75.45657489914245 10.8
    vertex 16.45657489777101 75.4565748980528 8.999999992499815
  endloop
endfacet
facet normal 1.0 0.0 0.0
  outer loop
    vertex 16.456574899255752 75.45657489914245 10.8
    vertex 16.45657489777101 110.54342509976803 8.999999992499815
    vertex 16.456574899255752 110.54342510085766 10.8
  endloop
endfacet
facet normal -1.0 -3.0906194769911837e-19 2.1066239105593423e-10
  outer loop
    vertex 12.560099029872358 114.43990097024106 15.000000001362334
    vertex 12.560099025227682 71.56009904326653 8.999999969817107
    vertex 12.560099029872358 71.56009902975906 14.99999993845355
  endloop
endfacet
facet normal -1.0 -3.0906194769911837e-19 2.1066239105593423e-10
  outer loop
    vertex 12.560099025227682 71.56009904326653 8.999999969817107
    vertex 12.560099029872358 114.43990097024106 15.000000001362334
    vertex 12.560099025227682 114.43990098374836 9.00000003272589
  endloop
endfacet
facet normal 4.693247381040974e-10 4.850672357854338e-09 1.0
  outer loop
    vertex 94.56009902987239 69.43990097024094 14.999999912746757
    vertex 1.4451931266688407 71.56009902975906 14.999999952024544
    vertex 1.4449965841972805 69.43990097024094 14.999999964772083
  endloop
endfacet
facet normal 4.693247381040974e-10 4.850672357854338e-09 1.0
  outer loop
    vertex 1.4451931266688407 71.56009902975906 14.999999952024544
    vertex 94.56009902987239 69.43990097024094 14.999999912746757
    vertex 12.560099029872358 71.56009902975906 14.99999993845355
  endloop
endfacet
facet normal 4.693247381040974e-10 4.850672357854338e-09 1.0
  outer loop
    vertex 12.560099029872358 71.56009902975906 14.99999993845355
    vertex 94.56009902987239 69.43990097024094 14.999999912746757
    vertex 94.56009902987238 71.56009902975906 14.999999911580936
  endloop
endfacet
facet normal 0.9999999957033503 -9.270005216403538e-05 -7.743219194655893e-10
  outer loop
    vertex 1.4451931220241612 71.56009904326653 8.999999990976448
    vertex 1.4519602305060348 144.56009903131027 14.999999993947693
    vertex 1.4451931266688407 71.56009902975906 14.999999952024544
  endloop
endfacet
facet normal 0.9999999957033503 -9.270005216403538e-05 -7.743219194655893e-10
  outer loop
    vertex 1.4519602305060348 144.56009903131027 14.999999993947693
    vertex 1.4451931220241612 71.56009904326653 8.999999990976448
    vertex 1.4519602258613555 144.56009904481758 9.00000002531125
  endloop
endfacet
facet normal 3.5171909183343456e-18 1.0 2.251245055427357e-09
  outer loop
    vertex 1.4451931220241612 71.56009904326653 8.999999990976448
    vertex 12.560099029872358 71.56009902975906 14.99999993845355
    vertex 12.560099025227682 71.56009904326653 8.999999969817107
  endloop
endfacet
facet normal 3.5171909183343456e-18 1.0 2.251245055427357e-09
  outer loop
    vertex 12.560099029872358 71.56009902975906 14.99999993845355
    vertex 1.4451931220241612 71.56009904326653 8.999999990976448
    vertex 1.4451931266688407 71.56009902975906 14.999999952024544
  endloop
endfacet
endsolid wing_print
