solid wing_tube_holder2
facet normal 3.969279978494596e-09 3.5104772795518074e-09 1.0
  outer loop
    vertex 2.173194878390066 -58.00000160940212 10.000017988646302
    vertex -0.00038970488169773885 -47.999999994929965 9.999999960110861
    vertex -0.0007453594925641127 -57.99999999107004 10.000000004870323
  endloop
endfacet
facet normal 3.969279978494596e-09 3.5104772795518074e-09 1.0
  outer loop
    vertex -0.00038970488169773885 -47.999999994929965 9.999999960110861
    vertex 2.173194878390066 -58.00000160940212 10.000017988646302
    vertex 2.173194878628703 -48.000001612899666 10.000017963194809
  endloop
endfacet
facet normal 2.1500202730013816e-10 2.257670533732035e-09 1.0
  outer loop
    vertex 2.173194878867317 -38.00000161289968 10.000017957482255
    vertex -0.0001464494148109452 -29.999999996462005 9.999999931811065
    vertex -0.0003897046431285744 -37.99999999492997 9.999999953967334
  endloop
endfacet
facet normal 2.1500202730013816e-10 2.257670533732035e-09 1.0
  outer loop
    vertex -0.0001464494148109452 -29.999999996462005 9.999999931811065
    vertex 2.173194878867317 -38.00000161289968 10.000017957482255
    vertex 2.173194879058308 -30.000001614431703 10.000017943515742
  endloop
endfacet
facet normal 1.1170331006063005e-06 4.852856611712255e-07 0.9999999999992584
  outer loop
    vertex 2.1730972483406936 -23.000040289340962 9.999999931602169
    vertex -9.342762103283774e-05 -17.999999996382687 9.99999993269672
    vertex -0.0001464492478463697 -22.999999996461987 9.999999927510595
  endloop
endfacet
facet normal 1.1170331006063005e-06 4.852856611712255e-07 0.9999999999992584
  outer loop
    vertex -9.342762103283774e-05 -17.999999996382687 9.99999993269672
    vertex 2.1730972483406936 -23.000040289340962 9.999999931602169
    vertex 2.1731376945916487 -18.00000139397178 9.999995073455064
  endloop
endfacet
facet normal 2.386681117488158e-11 1.0 -3.0717625735645655e-10
  outer loop
    vertex -1.8422728231826112e-09 3.0717552803759335e-09 10.000000000000002
    vertex 133.99999999999997 -3.1981599906666615e-09 2.2755104719790954e-13
    vertex -4.511946372076636e-14 -7.293232599419829e-15 6.750073708907367e-16
  endloop
endfacet
facet normal 2.386681117488158e-11 1.0 -3.0717625735645655e-10
  outer loop
    vertex 133.99999999999997 -3.1981599906666615e-09 2.2755104719790954e-13
    vertex -1.8422728231826112e-09 3.0717552803759335e-09 10.000000000000002
    vertex 133.99999999815776 -1.2639741705811732e-10 10.00000000000023
  endloop
endfacet
facet normal 0.4611644883316486 -0.8873146649874603 3.57519180305088e-10
  outer loop
    vertex 151.9999999980906 -80.00000000362776 4.91484725262324e-08
    vertex 143.1268533463738 -84.6116448838725 10.000000047508077
    vertex 143.126853348216 -84.61164488694425 4.750807009391079e-08
  endloop
endfacet
facet normal 0.4611644883316486 -0.8873146649874603 3.57519180305088e-10
  outer loop
    vertex 143.1268533463738 -84.6116448838725 10.000000047508077
    vertex 151.9999999980906 -80.00000000362776 4.91484725262324e-08
    vertex 151.99999999624836 -80.00000000055601 10.000000049148474
  endloop
endfacet
facet normal 0.13960838645228107 0.9902067957917633 -2.7844893603447235e-10
  outer loop
    vertex 133.99999999815776 -1.2639741705811732e-10 10.00000000000023
    vertex 136.28333057526606 -0.3219247755838848 3.878409879607122e-09
    vertex 133.99999999999997 -3.1981599906666615e-09 2.2755104719790954e-13
  endloop
endfacet
facet normal 0.13960838645228107 0.9902067957917633 -2.7844893603447235e-10
  outer loop
    vertex 136.28333057526606 -0.3219247755838848 3.878409879607122e-09
    vertex 133.99999999815776 -1.2639741705811732e-10 10.00000000000023
    vertex 136.28333057342394 -0.32192477251212226 10.00000000387841
  endloop
endfacet
facet normal 0.4611644883316489 -0.8873146649874603 3.5751909007505506e-10
  outer loop
    vertex 143.126853348216 -84.61164488694425 4.750807009391079e-08
    vertex -0.001856834451524314 -158.99999999692827 10.00000002104754
    vertex -0.0018568326092966102 -159.00000000000006 2.1047533589209278e-08
  endloop
endfacet
facet normal 0.4611644883316489 -0.8873146649874603 3.5751909007505506e-10
  outer loop
    vertex -0.001856834451524314 -158.99999999692827 10.00000002104754
    vertex 143.126853348216 -84.61164488694425 4.750807009391079e-08
    vertex 143.1268533463738 -84.6116448838725 10.000000047508077
  endloop
endfacet
facet normal 0.6644305461178784 0.7473500179872199 -1.0716476568295733e-10
  outer loop
    vertex 144.58233973979333 -4.16221731351119 10.000000014604106
    vertex 146.30566375208252 -5.694336251273392 1.5904147477898916e-08
    vertex 144.58233974163537 -4.162217316582954 1.460410448900693e-08
  endloop
endfacet
facet normal 0.6644305461178784 0.7473500179872199 -1.0716476568295733e-10
  outer loop
    vertex 146.30566375208252 -5.694336251273392 1.5904147477898916e-08
    vertex 144.58233973979333 -4.16221731351119 10.000000014604106
    vertex 146.30566375024048 -5.694336248201629 10.000000015904149
  endloop
endfacet
facet normal 0.990206795798427 0.13960838640501727 1.3953452557106205e-10
  outer loop
    vertex 151.67807522729365 -15.716669428346282 1.3336238598745906e-08
    vertex 151.99999999772814 -18.00000000055598 10.000000011058606
    vertex 151.99999999957038 -18.000000003627765 1.1058600649342523e-08
  endloop
endfacet
facet normal 0.990206795798427 0.13960838640501727 1.3953452557106205e-10
  outer loop
    vertex 151.99999999772814 -18.00000000055598 10.000000011058606
    vertex 151.67807522729365 -15.716669428346282 1.3336238598745906e-08
    vertex 151.67807522545158 -15.716669425274496 10.000000013336246
  endloop
endfacet
facet normal 0.5723743053037492 0.8199924722996245 -1.4643768355574605e-10
  outer loop
    vertex 142.69150856044064 -2.8423720475011143 10.000000012721854
    vertex 144.58233974163537 -4.162217316582954 1.460410448900693e-08
    vertex 142.69150856228285 -2.84237205057288 1.272184684411567e-08
  endloop
endfacet
facet normal 0.5723743053037492 0.8199924722996245 -1.4643768355574605e-10
  outer loop
    vertex 144.58233974163537 -4.162217316582954 1.460410448900693e-08
    vertex 142.69150856044064 -2.8423720475011143 10.000000012721854
    vertex 144.58233973979333 -4.16221731351119 10.000000014604106
  endloop
endfacet
facet normal 0.8199900964761516 0.5723777089285282 1.6615296315822256e-06
  outer loop
    vertex 147.8377826866907 -7.417660261793697 1.660409446285033e-08
    vertex 149.1576279507683 -9.30849143813742 10.000000016694337
    vertex 149.1576279526105 -9.30849144120918 1.6694329936768898e-08
  endloop
endfacet
facet normal 0.8199900964761516 0.5723777089285282 1.6615296315822256e-06
  outer loop
    vertex 149.1576279507683 -9.30849143813742 10.000000016694337
    vertex 147.8377826866907 -7.417660261793697 1.660409446285033e-08
    vertex 148.24417628961913 -7.999999999920843 10.000000001059252
  endloop
endfacet
facet normal 0.8199900964761516 0.5723777089285282 1.6615296315822256e-06
  outer loop
    vertex 148.24417628961913 -7.999999999920843 10.000000001059252
    vertex 147.8377826866907 -7.417660261793697 1.660409446285033e-08
    vertex 147.83778268484866 -7.417660258721936 10.000000016604101
  endloop
endfacet
facet normal 0.8813589824841611 0.472447186460544 1.7242073483726677e-11
  outer loop
    vertex 149.1576279526105 -9.30849144120918 1.6694329936768898e-08
    vertex 150.24704998930446 -11.340828441927009 10.000000016173619
    vertex 150.24704999114667 -11.340828444998772 1.6173611378108233e-08
  endloop
endfacet
facet normal 0.8813589824841611 0.472447186460544 1.7242073483726677e-11
  outer loop
    vertex 150.24704998930446 -11.340828441927009 10.000000016173619
    vertex 149.1576279526105 -9.30849144120918 1.6694329936768898e-08
    vertex 149.1576279507683 -9.30849143813742 10.000000016694337
  endloop
endfacet
facet normal 0.4724471865026173 0.8813589824616082 -1.8369689618480074e-10
  outer loop
    vertex 140.65917155670314 -1.7529500088679406 10.000000010283257
    vertex 142.69150856228285 -2.84237205057288 1.272184684411567e-08
    vertex 140.65917155854527 -1.7529500119397057 1.0283256322201155e-08
  endloop
endfacet
facet normal 0.4724471865026173 0.8813589824616082 -1.8369689618480074e-10
  outer loop
    vertex 142.69150856228285 -2.84237205057288 1.272184684411567e-08
    vertex 140.65917155670314 -1.7529500088679406 10.000000010283257
    vertex 142.69150856044064 -2.8423720475011143 10.000000012721854
  endloop
endfacet
facet normal 1.0 -1.3903995288175394e-11 1.842220756833424e-10
  outer loop
    vertex 151.99999999957038 -18.000000003627765 1.1058600649342523e-08
    vertex 151.99999999867936 -23.00225168382745 4.999999992593194
    vertex 151.99999999945098 -23.002251686899214 1.4131747383203834e-08
  endloop
endfacet
facet normal 1.0 -1.3903995288175394e-11 1.842220756833424e-10
  outer loop
    vertex 151.99999999867936 -23.00225168382745 4.999999992593194
    vertex 151.99999999772814 -18.00000000055598 10.000000011058606
    vertex 151.99999999760877 -23.00225170399885 9.9999999925932
  endloop
endfacet
facet normal 1.0 -1.3903995288175394e-11 1.842220756833424e-10
  outer loop
    vertex 151.99999999772814 -18.00000000055598 10.000000011058606
    vertex 151.99999999867936 -23.00225168382745 4.999999992593194
    vertex 151.99999999957038 -18.000000003627765 1.1058600649342523e-08
  endloop
endfacet
facet normal 0.36602331526900733 0.9306056805540599 -2.184300417925628e-10
  outer loop
    vertex 138.51327595897968 -0.9089321425335373 10.000000007321871
    vertex 140.65917155854527 -1.7529500119397057 1.0283256322201155e-08
    vertex 138.5132759608218 -0.9089321456052983 7.321870045038753e-09
  endloop
endfacet
facet normal 0.36602331526900733 0.9306056805540599 -2.184300417925628e-10
  outer loop
    vertex 140.65917155854527 -1.7529500119397057 1.0283256322201155e-08
    vertex 138.51327595897968 -0.9089321425335373 10.000000007321871
    vertex 140.65917155670314 -1.7529500088679406 10.000000010283257
  endloop
endfacet
facet normal 0.7473500180189392 0.6644305460822008 -6.641819536389096e-11
  outer loop
    vertex 146.30566375208252 -5.694336251273392 1.5904147477898916e-08
    vertex 147.83778268484866 -7.417660258721936 10.000000016604101
    vertex 147.8377826866907 -7.417660261793697 1.660409446285033e-08
  endloop
endfacet
facet normal 0.7473500180189392 0.6644305460822008 -6.641819536389096e-11
  outer loop
    vertex 147.83778268484866 -7.417660258721936 10.000000016604101
    vertex 146.30566375208252 -5.694336251273392 1.5904147477898916e-08
    vertex 146.30566375024048 -5.694336248201629 10.000000015904149
  endloop
endfacet
facet normal 0.9306056805715311 0.3660233152245874 5.900533642780275e-11
  outer loop
    vertex 150.24704999114667 -11.340828444998772 1.6173611378108233e-08
    vertex 151.0910678555366 -13.48672403969075 10.000000015049093
    vertex 151.09106785737868 -13.486724042762539 1.5049091516486744e-08
  endloop
endfacet
facet normal 0.9306056805715311 0.3660233152245874 5.900533642780275e-11
  outer loop
    vertex 151.0910678555366 -13.48672403969075 10.000000015049093
    vertex 150.24704999114667 -11.340828444998772 1.6173611378108233e-08
    vertex 150.24704998930446 -11.340828441927009 10.000000016173619
  endloop
endfacet
facet normal -0.9999999999264658 1.212467055053766e-05 2.4695648627809134e-07
  outer loop
    vertex -0.0001464494148109452 -29.999999996462005 9.999999931811065
    vertex -0.000389704072480157 -37.999999989329474 4.999999953967323
    vertex -0.0003897046431285744 -37.99999999492997 9.999999953967334
  endloop
endfacet
facet normal -0.9999999999264658 1.212467055053766e-05 2.4695648627809134e-07
  outer loop
    vertex -9.342762103283774e-05 -17.999999996382687 9.99999993269672
    vertex -0.00014644817713893588 -22.999999976290574 4.999999927510596
    vertex -0.0001464492478463697 -22.999999996461987 9.999999927510595
  endloop
endfacet
facet normal -0.9999999999264658 1.212467055053766e-05 2.4695648627809134e-07
  outer loop
    vertex -0.001856834451524314 -158.99999999692827 10.00000002104754
    vertex -4.511946372076636e-14 -7.293232599419829e-15 6.750073708907367e-16
    vertex -0.0018568326092966102 -159.00000000000006 2.1047533589209278e-08
  endloop
endfacet
facet normal -0.9999999999264658 1.212467055053766e-05 2.4695648627809134e-07
  outer loop
    vertex -4.511946372076636e-14 -7.293232599419829e-15 6.750073708907367e-16
    vertex -0.001856834451524314 -158.99999999692827 10.00000002104754
    vertex -0.000745360091321956 -62.999999994141774 5.000000007942061
  endloop
endfacet
facet normal -0.9999999999264658 1.212467055053766e-05 2.4695648627809134e-07
  outer loop
    vertex -0.000745360091321956 -62.999999994141774 5.000000007942061
    vertex -0.001856834451524314 -158.99999999692827 10.00000002104754
    vertex -0.000745360246374993 -64.29409521954972 5.170370877291745
  endloop
endfacet
facet normal -0.9999999999264658 1.212467055053766e-05 2.4695648627809134e-07
  outer loop
    vertex -0.000745360246374993 -64.29409521954972 5.170370877291745
    vertex -0.001856834451524314 -158.99999999692827 10.00000002104754
    vertex -0.0007453603909377549 -65.49999999373024 5.669872990555735
  endloop
endfacet
facet normal -0.9999999999264658 1.212467055053766e-05 2.4695648627809134e-07
  outer loop
    vertex -0.0007453603909377549 -65.49999999373024 5.669872990555735
    vertex -0.001856834451524314 -158.99999999692827 10.00000002104754
    vertex -0.0007453605150162801 -66.53553389917482 6.464466104181376
  endloop
endfacet
facet normal -0.9999999999264658 1.212467055053766e-05 2.4695648627809134e-07
  outer loop
    vertex -0.0007453605150162801 -66.53553389917482 6.464466104181376
    vertex -0.001856834451524314 -158.99999999692827 10.00000002104754
    vertex -0.0007453606102409082 -67.3301270115281 7.500000010602274
  endloop
endfacet
facet normal -0.9999999999264658 1.212467055053766e-05 2.4695648627809134e-07
  outer loop
    vertex -0.0007453606102409082 -67.3301270115281 7.500000010602274
    vertex -0.001856834451524314 -158.99999999692827 10.00000002104754
    vertex -0.000745360670001638 -67.82962912331041 8.705904785396546
  endloop
endfacet
facet normal -0.9999999999264658 1.212467055053766e-05 2.4695648627809134e-07
  outer loop
    vertex -0.000745360670001638 -67.82962912331041 8.705904785396546
    vertex -0.001856834451524314 -158.99999999692827 10.00000002104754
    vertex -0.0007453606905084342 -67.99999999107004 10.00000001101382
  endloop
endfacet
facet normal -0.9999999999264658 1.212467055053766e-05 2.4695648627809134e-07
  outer loop
    vertex -4.511946372076636e-14 -7.293232599419829e-15 6.750073708907367e-16
    vertex -0.000745360091321956 -62.999999994141774 5.000000007942061
    vertex -0.0007453599363591579 -61.705904768524505 5.170370875701687
  endloop
endfacet
facet normal -0.9999999999264658 1.212467055053766e-05 2.4695648627809134e-07
  outer loop
    vertex -4.511946372076636e-14 -7.293232599419829e-15 6.750073708907367e-16
    vertex -0.0007453599363591579 -61.705904768524505 5.170370875701687
    vertex -0.000745359791796396 -60.49999999373025 5.669872987483993
  endloop
endfacet
facet normal -0.9999999999264658 1.212467055053766e-05 2.4695648627809134e-07
  outer loop
    vertex -4.511946372076636e-14 -7.293232599419829e-15 6.750073708907367e-16
    vertex -0.000745359791796396 -60.49999999373025 5.669872987483993
    vertex -0.00038970431113956035 -47.999999989329474 4.999999960110855
  endloop
endfacet
facet normal -0.9999999999264658 1.212467055053766e-05 2.4695648627809134e-07
  outer loop
    vertex -0.00038970431113956035 -47.999999989329474 4.999999960110855
    vertex -0.000745359791796396 -60.49999999373025 5.669872987483993
    vertex -0.0007453596676501917 -59.46446608730936 6.464466099837267
  endloop
endfacet
facet normal -0.9999999999264658 1.212467055053766e-05 2.4695648627809134e-07
  outer loop
    vertex -0.00038970431113956035 -47.999999989329474 4.999999960110855
    vertex -0.0007453596676501917 -59.46446608730936 6.464466099837267
    vertex -0.000745359572628601 -58.66987297368372 7.500000005281851
  endloop
endfacet
facet normal -0.9999999999264658 1.212467055053766e-05 2.4695648627809134e-07
  outer loop
    vertex -0.00038970431113956035 -47.999999989329474 4.999999960110855
    vertex -0.000745359572628601 -58.66987297368372 7.500000005281851
    vertex -0.0007453595127099532 -58.17037086041972 8.70590477946238
  endloop
endfacet
facet normal -0.9999999999264658 1.212467055053766e-05 2.4695648627809134e-07
  outer loop
    vertex -0.00038970431113956035 -47.999999989329474 4.999999960110855
    vertex -0.0007453595127099532 -58.17037086041972 8.70590477946238
    vertex -0.0007453594925641127 -57.99999999107004 10.000000004870323
  endloop
endfacet
facet normal -0.9999999999264658 1.212467055053766e-05 2.4695648627809134e-07
  outer loop
    vertex -0.00038970431113956035 -47.999999989329474 4.999999960110855
    vertex -0.0007453594925641127 -57.99999999107004 10.000000004870323
    vertex -0.00038970488169773885 -47.999999994929965 9.999999960110861
  endloop
endfacet
facet normal -0.9999999999264658 1.212467055053766e-05 2.4695648627809134e-07
  outer loop
    vertex -4.511946372076636e-14 -7.293232599419829e-15 6.750073708907367e-16
    vertex -0.00038970431113956035 -47.999999989329474 4.999999960110855
    vertex -0.000389704072480157 -37.999999989329474 4.999999953967323
  endloop
endfacet
facet normal -0.9999999999264658 1.212467055053766e-05 2.4695648627809134e-07
  outer loop
    vertex -4.511946372076636e-14 -7.293232599419829e-15 6.750073708907367e-16
    vertex -0.000389704072480157 -37.999999989329474 4.999999953967323
    vertex -0.00014644834410351137 -29.99999997629057 4.999999931811059
  endloop
endfacet
facet normal -0.9999999999264658 1.212467055053766e-05 2.4695648627809134e-07
  outer loop
    vertex -0.00014644834410351137 -29.99999997629057 4.999999931811059
    vertex -0.000389704072480157 -37.999999989329474 4.999999953967323
    vertex -0.0001464494148109452 -29.999999996462005 9.999999931811065
  endloop
endfacet
facet normal -0.9999999999264658 1.212467055053766e-05 2.4695648627809134e-07
  outer loop
    vertex -4.511946372076636e-14 -7.293232599419829e-15 6.750073708907367e-16
    vertex -0.00014644834410351137 -29.99999997629057 4.999999931811059
    vertex -0.00014644817713893588 -22.999999976290574 4.999999927510596
  endloop
endfacet
facet normal -0.9999999999264658 1.212467055053766e-05 2.4695648627809134e-07
  outer loop
    vertex -4.511946372076636e-14 -7.293232599419829e-15 6.750073708907367e-16
    vertex -0.00014644817713893588 -22.999999976290574 4.999999927510596
    vertex -9.342753246333046e-05 -14.294095182881623 5.170370862231718
  endloop
endfacet
facet normal -0.9999999999264658 1.212467055053766e-05 2.4695648627809134e-07
  outer loop
    vertex -9.342753246333046e-05 -14.294095182881623 5.170370862231718
    vertex -0.00014644817713893588 -22.999999976290574 4.999999927510596
    vertex -9.342756133978725e-05 -15.499999956026999 5.66987296190918
  endloop
endfacet
facet normal -0.9999999999264658 1.212467055053766e-05 2.4695648627809134e-07
  outer loop
    vertex -9.342756133978725e-05 -15.499999956026999 5.66987296190918
    vertex -0.00014644817713893588 -22.999999976290574 4.999999927510596
    vertex -9.342758588477551e-05 -16.53553386497485 6.464466060857415
  endloop
endfacet
facet normal -0.9999999999264658 1.212467055053766e-05 2.4695648627809134e-07
  outer loop
    vertex -9.342758588477551e-05 -16.53553386497485 6.464466060857415
    vertex -0.00014644817713893588 -22.999999976290574 4.999999927510596
    vertex -9.342760503798785e-05 -17.33012698579671 7.4999999530210495
  endloop
endfacet
facet normal -0.9999999999264658 1.212467055053766e-05 2.4695648627809134e-07
  outer loop
    vertex -9.342760503798785e-05 -17.33012698579671 7.4999999530210495
    vertex -0.00014644817713893588 -22.999999976290574 4.999999927510596
    vertex -9.342761688184708e-05 -17.82962911094651 8.70590471561543
  endloop
endfacet
facet normal -0.9999999999264658 1.212467055053766e-05 2.4695648627809134e-07
  outer loop
    vertex -9.342761688184708e-05 -17.82962911094651 8.70590471561543
    vertex -0.00014644817713893588 -22.999999976290574 4.999999927510596
    vertex -9.342762103283774e-05 -17.999999996382687 9.99999993269672
  endloop
endfacet
facet normal -0.9999999999264658 1.212467055053766e-05 2.4695648627809134e-07
  outer loop
    vertex -4.511946372076636e-14 -7.293232599419829e-15 6.750073708907367e-16
    vertex -9.342753246333046e-05 -14.294095182881623 5.170370862231718
    vertex -9.342750157905754e-05 -12.999999962201583 5.0000000041307535
  endloop
endfacet
facet normal -0.9999999999264658 1.212467055053766e-05 2.4695648627809134e-07
  outer loop
    vertex -4.511946372076636e-14 -7.293232599419829e-15 6.750073708907367e-16
    vertex -9.342750157905754e-05 -12.999999962201583 5.0000000041307535
    vertex -9.342747069478462e-05 -11.705904743850914 5.170370879925188
  endloop
endfacet
facet normal -0.9999999999264658 1.212467055053766e-05 2.4695648627809134e-07
  outer loop
    vertex -4.511946372076636e-14 -7.293232599419829e-15 6.750073708907367e-16
    vertex -9.342747069478462e-05 -11.705904743850914 5.170370879925188
    vertex -9.342744190856677e-05 -10.499999977534959 5.6698729960903185
  endloop
endfacet
facet normal -0.9999999999264658 1.212467055053766e-05 2.4695648627809134e-07
  outer loop
    vertex -4.511946372076636e-14 -7.293232599419829e-15 6.750073708907367e-16
    vertex -9.342744190856677e-05 -10.499999977534959 5.6698729960903185
    vertex -9.342741711542145e-05 -9.464466079451146 6.464466109196853
  endloop
endfacet
facet normal -0.9999999999264658 1.212467055053766e-05 2.4695648627809134e-07
  outer loop
    vertex -4.511946372076636e-14 -7.293232599419829e-15 6.750073708907367e-16
    vertex -9.342741711542145e-05 -9.464466079451146 6.464466109196853
    vertex -9.342739834572455e-05 -8.66987297278758 7.50000001222452
  endloop
endfacet
facet normal -0.9999999999264658 1.212467055053766e-05 2.4695648627809134e-07
  outer loop
    vertex -4.511946372076636e-14 -7.293232599419829e-15 6.750073708907367e-16
    vertex -9.342739834572455e-05 -8.66987297278758 7.50000001222452
    vertex -9.34273863439472e-05 -8.170370864125436 8.705904781648318
  endloop
endfacet
facet normal -0.9999999999264658 1.212467055053766e-05 2.4695648627809134e-07
  outer loop
    vertex -4.511946372076636e-14 -7.293232599419829e-15 6.750073708907367e-16
    vertex -9.34273863439472e-05 -8.170370864125436 8.705904781648318
    vertex -9.342738246367332e-05 -7.999999996382728 10.000000001059002
  endloop
endfacet
facet normal -0.9999999999264658 1.212467055053766e-05 2.4695648627809134e-07
  outer loop
    vertex -4.511946372076636e-14 -7.293232599419829e-15 6.750073708907367e-16
    vertex -9.342738246367332e-05 -7.999999996382728 10.000000001059002
    vertex -1.8422728231826112e-09 3.0717552803759335e-09 10.000000000000002
  endloop
endfacet
facet normal 0.2545661558039222 0.9670553615585891 -2.501594952504224e-10
  outer loop
    vertex 136.28333057342394 -0.32192477251212226 10.00000000387841
    vertex 138.5132759608218 -0.9089321456052983 7.321870045038753e-09
    vertex 136.28333057526606 -0.3219247755838848 3.878409879607122e-09
  endloop
endfacet
facet normal 0.2545661558039222 0.9670553615585891 -2.501594952504224e-10
  outer loop
    vertex 138.5132759608218 -0.9089321456052983 7.321870045038753e-09
    vertex 136.28333057342394 -0.32192477251212226 10.00000000387841
    vertex 138.51327595897968 -0.9089321425335373 10.000000007321871
  endloop
endfacet
facet normal 0.9670553615707407 0.25456615575776004 9.995720060834204e-11
  outer loop
    vertex 151.09106785737868 -13.486724042762539 1.5049091516486744e-08
    vertex 151.67807522545158 -15.716669425274496 10.000000013336246
    vertex 151.67807522729365 -15.716669428346282 1.3336238598745906e-08
  endloop
endfacet
facet normal 0.9670553615707407 0.25456615575776004 9.995720060834204e-11
  outer loop
    vertex 151.67807522545158 -15.716669425274496 10.000000013336246
    vertex 151.09106785737868 -13.486724042762539 1.5049091516486744e-08
    vertex 151.0910678555366 -13.48672403969075 10.000000015049093
  endloop
endfacet
facet normal 1.0 -2.3866820082675507e-11 1.8422295949454019e-10
  outer loop
    vertex 151.99999999832926 -70.00000000362776 4.300494571381997e-08
    vertex 151.99999999624836 -80.00000000055601 10.000000049148474
    vertex 151.9999999980906 -80.00000000362776 4.91484725262324e-08
  endloop
endfacet
facet normal 1.0 -2.3866820082675507e-11 1.8422295949454019e-10
  outer loop
    vertex 151.99999999624836 -80.00000000055601 10.000000049148474
    vertex 151.99999999832926 -70.00000000362776 4.300494571381997e-08
    vertex 151.99999999648716 -70.000000000556 10.000000043004947
  endloop
endfacet
facet normal 1.0 -1.1191471318538399e-11 1.5992073238966432e-10
  outer loop
    vertex 151.9999999983683 -47.999999996029004 2.948918178690303e-08
    vertex 151.99999999648716 -70.000000000556 10.000000043004947
    vertex 151.99999999832926 -70.00000000362776 4.300494571381997e-08
  endloop
endfacet
facet normal 1.0 -1.1191471318538399e-11 1.5992073238966432e-10
  outer loop
    vertex 151.99999999648716 -70.000000000556 10.000000043004947
    vertex 151.9999999983683 -47.999999996029004 2.948918178690303e-08
    vertex 151.99999999701214 -47.99999999855773 9.999999960111111
  endloop
endfacet
facet normal 1.0 -1.1191471318538399e-11 1.5992073238966432e-10
  outer loop
    vertex 151.99999999701214 -47.99999999855773 9.999999960111111
    vertex 151.9999999983683 -47.999999996029004 2.948918178690303e-08
    vertex 151.9999999975827 -47.99999999295724 4.999999960111107
  endloop
endfacet
facet normal 1.0 -1.9367015367727486e-11 1.4812537597526293e-10
  outer loop
    vertex 151.99999999851696 -37.999999996029004 2.3345658499448742e-08
    vertex 151.9999999975827 -47.99999999295724 4.999999960111107
    vertex 151.9999999983683 -47.999999996029004 2.948918178690303e-08
  endloop
endfacet
facet normal 1.0 -1.9367015367727486e-11 1.4812537597526293e-10
  outer loop
    vertex 151.9999999975827 -47.99999999295724 4.999999960111107
    vertex 151.99999999851696 -37.999999996029004 2.3345658499448742e-08
    vertex 151.99999999782136 -37.99999999295724 4.999999988656622
  endloop
endfacet
facet normal 1.0 -7.493783921327445e-11 1.6288282486158594e-10
  outer loop
    vertex 151.9999999994334 -29.99999995974689 1.843083279727908e-08
    vertex 151.99999999782136 -37.99999999295724 4.999999988656622
    vertex 151.99999999851696 -37.999999996029004 2.3345658499448742e-08
  endloop
endfacet
facet normal 1.0 -7.493783921327445e-11 1.6288282486158594e-10
  outer loop
    vertex 151.99999999782136 -37.99999999295724 4.999999988656622
    vertex 151.9999999994334 -29.99999995974689 1.843083279727908e-08
    vertex 151.99999999851224 -29.999999979918332 4.999999931811317
  endloop
endfacet
facet normal 1.0 -7.493783921327445e-11 1.6288282486158594e-10
  outer loop
    vertex 151.99999999782136 -37.99999999295724 4.999999988656622
    vertex 151.99999999851224 -29.999999979918332 4.999999931811317
    vertex 151.99999999744193 -30.000000000089766 9.999999931811322
  endloop
endfacet
facet normal 1.0 -7.493783921327445e-11 1.6288282486158594e-10
  outer loop
    vertex 151.99999999744193 -30.000000000089766 9.999999931811322
    vertex 151.9999999972509 -37.99999999855774 9.999999988656622
    vertex 151.99999999782136 -37.99999999295724 4.999999988656622
  endloop
endfacet
facet normal 1.78999962895686e-10 -3.0615553382914804e-10 -1.0
  outer loop
    vertex 149.75554330714508 -76.59451809896687 0.00013970824864247423
    vertex 149.71111720706955 -78.91831665507856 5.6707196065064765e-08
    vertex 148.50456931498894 -76.59452913613019 5.467950273847066e-08
  endloop
endfacet
facet normal 1.78999962895686e-10 -3.0615553382914804e-10 -1.0
  outer loop
    vertex 149.93797945509132 -15.064599974088159 1.736765018661919e-08
    vertex 149.75554330858003 -16.471376098966893 0.00013967131182898195
    vertex 148.5045693164239 -16.471387136130236 1.7742689246122852e-08
  endloop
endfacet
facet normal 1.78999962895686e-10 -3.0615553382914804e-10 -1.0
  outer loop
    vertex 133.99999999999997 -3.1981599906666615e-09 2.2755104719790954e-13
    vertex 2.1731376989056335 -2.3216161254389793 -4.917638828385781e-06
    vertex -4.511946372076636e-14 -7.293232599419829e-15 6.750073708907367e-16
  endloop
endfacet
facet normal 1.78999962895686e-10 -3.0615553382914804e-10 -1.0
  outer loop
    vertex 2.1731376989056335 -2.3216161254389793 -4.917638828385781e-06
    vertex 133.99999999999997 -3.1981599906666615e-09 2.2755104719790954e-13
    vertex 136.06937088355667 -2.321614731097439 -5.924289807052117e-08
  endloop
endfacet
facet normal 1.78999962895686e-10 -3.0615553382914804e-10 -1.0
  outer loop
    vertex 136.06937088355667 -2.321614731097439 -5.924289807052117e-08
    vertex 133.99999999999997 -3.1981599906666615e-09 2.2755104719790954e-13
    vertex 136.28333057526606 -0.3219247755838848 3.878409879607122e-09
  endloop
endfacet
facet normal 1.78999962895686e-10 -3.0615553382914804e-10 -1.0
  outer loop
    vertex 136.06937088355667 -2.321614731097439 -5.924289807052117e-08
    vertex 136.28333057526606 -0.3219247755838848 3.878409879607122e-09
    vertex 137.50278102218883 -2.394069569055366 -5.862976997871883e-08
  endloop
endfacet
facet normal 1.78999962895686e-10 -3.0615553382914804e-10 -1.0
  outer loop
    vertex 137.50278102218883 -2.394069569055366 -5.862976997871883e-08
    vertex 136.28333057526606 -0.3219247755838848 3.878409879607122e-09
    vertex 138.5132759608218 -0.9089321456052983 7.321870045038753e-09
  endloop
endfacet
facet normal 1.78999962895686e-10 -3.0615553382914804e-10 -1.0
  outer loop
    vertex 137.50278102218883 -2.394069569055366 -5.862976997871883e-08
    vertex 138.5132759608218 -0.9089321456052983 7.321870045038753e-09
    vertex 149.93797945509132 -15.064599974088159 1.736765018661919e-08
  endloop
endfacet
facet normal 1.78999962895686e-10 -3.0615553382914804e-10 -1.0
  outer loop
    vertex 149.93797945509132 -15.064599974088159 1.736765018661919e-08
    vertex 138.5132759608218 -0.9089321456052983 7.321870045038753e-09
    vertex 140.65917155854527 -1.7529500119397057 1.0283256322201155e-08
  endloop
endfacet
facet normal 1.78999962895686e-10 -3.0615553382914804e-10 -1.0
  outer loop
    vertex 149.93797945509132 -15.064599974088159 1.736765018661919e-08
    vertex 140.65917155854527 -1.7529500119397057 1.0283256322201155e-08
    vertex 142.69150856228285 -2.84237205057288 1.272184684411567e-08
  endloop
endfacet
facet normal 1.78999962895686e-10 -3.0615553382914804e-10 -1.0
  outer loop
    vertex 149.93797945509132 -15.064599974088159 1.736765018661919e-08
    vertex 142.69150856228285 -2.84237205057288 1.272184684411567e-08
    vertex 144.58233974163537 -4.162217316582954 1.460410448900693e-08
  endloop
endfacet
facet normal 1.78999962895686e-10 -3.0615553382914804e-10 -1.0
  outer loop
    vertex 149.93797945509132 -15.064599974088159 1.736765018661919e-08
    vertex 144.58233974163537 -4.162217316582954 1.460410448900693e-08
    vertex 146.30566375208252 -5.694336251273392 1.5904147477898916e-08
  endloop
endfacet
facet normal 1.78999962895686e-10 -3.0615553382914804e-10 -1.0
  outer loop
    vertex 149.93797945509132 -15.064599974088159 1.736765018661919e-08
    vertex 146.30566375208252 -5.694336251273392 1.5904147477898916e-08
    vertex 147.8377826866907 -7.417660261793697 1.660409446285033e-08
  endloop
endfacet
facet normal 1.78999962895686e-10 -3.0615553382914804e-10 -1.0
  outer loop
    vertex 149.93797945509132 -15.064599974088159 1.736765018661919e-08
    vertex 147.8377826866907 -7.417660261793697 1.660409446285033e-08
    vertex 149.1576279526105 -9.30849144120918 1.6694329936768898e-08
  endloop
endfacet
facet normal 1.78999962895686e-10 -3.0615553382914804e-10 -1.0
  outer loop
    vertex 149.93797945509132 -15.064599974088159 1.736765018661919e-08
    vertex 149.1576279526105 -9.30849144120918 1.6694329936768898e-08
    vertex 150.24704999114667 -11.340828444998772 1.6173611378108233e-08
  endloop
endfacet
facet normal 1.78999962895686e-10 -3.0615553382914804e-10 -1.0
  outer loop
    vertex -0.0018568326092966102 -159.00000000000006 2.1047533589209278e-08
    vertex 4.983028772071174 -154.06347024688836 3.46593528344366e-08
    vertex 143.126853348216 -84.61164488694425 4.750807009391079e-08
  endloop
endfacet
facet normal 1.78999962895686e-10 -3.0615553382914804e-10 -1.0
  outer loop
    vertex 4.983028772071174 -154.06347024688836 3.46593528344366e-08
    vertex -0.0018568326092966102 -159.00000000000006 2.1047533589209278e-08
    vertex 2.173194880092559 -151.73968434581965 1.8041053335054555e-05
  endloop
endfacet
facet normal 1.78999962895686e-10 -3.0615553382914804e-10 -1.0
  outer loop
    vertex 2.173194880092559 -151.73968434581965 1.8041053335054555e-05
    vertex -0.0018568326092966102 -159.00000000000006 2.1047533589209278e-08
    vertex -4.511946372076636e-14 -7.293232599419829e-15 6.750073708907367e-16
  endloop
endfacet
facet normal 1.78999962895686e-10 -3.0615553382914804e-10 -1.0
  outer loop
    vertex 2.173194880092559 -151.73968434581965 1.8041053335054555e-05
    vertex -4.511946372076636e-14 -7.293232599419829e-15 6.750073708907367e-16
    vertex 2.1731376989056335 -2.3216161254389793 -4.917638828385781e-06
  endloop
endfacet
facet normal 1.78999962895686e-10 -3.0615553382914804e-10 -1.0
  outer loop
    vertex 4.983028772071174 -154.06347024688836 3.46593528344366e-08
    vertex 2.173194880092559 -151.73968434581965 1.8041053335054555e-05
    vertex 3.7764808799905913 -151.73968272794014 3.263165950784245e-08
  endloop
endfacet
facet normal 1.78999962895686e-10 -3.0615553382914804e-10 -1.0
  outer loop
    vertex 143.126853348216 -84.61164488694425 4.750807009391079e-08
    vertex 4.983028772071174 -154.06347024688836 3.46593528344366e-08
    vertex 149.71111720706955 -78.91831665507856 5.6707196065064765e-08
  endloop
endfacet
facet normal 1.78999962895686e-10 -3.0615553382914804e-10 -1.0
  outer loop
    vertex 143.126853348216 -84.61164488694425 4.750807009391079e-08
    vertex 149.71111720706955 -78.91831665507856 5.6707196065064765e-08
    vertex 151.9999999980906 -80.00000000362776 4.91484725262324e-08
  endloop
endfacet
facet normal 1.78999962895686e-10 -3.0615553382914804e-10 -1.0
  outer loop
    vertex 151.9999999980906 -80.00000000362776 4.91484725262324e-08
    vertex 149.71111720706955 -78.91831665507856 5.6707196065064765e-08
    vertex 149.75554330714508 -76.59451809896687 0.00013970824864247423
  endloop
endfacet
facet normal 1.78999962895686e-10 -3.0615553382914804e-10 -1.0
  outer loop
    vertex 151.9999999980906 -80.00000000362776 4.91484725262324e-08
    vertex 149.75554330714508 -76.59451809896687 0.00013970824864247423
    vertex 149.75554330858003 -16.471376098966893 0.00013967131182898195
  endloop
endfacet
facet normal 1.78999962895686e-10 -3.0615553382914804e-10 -1.0
  outer loop
    vertex 151.9999999980906 -80.00000000362776 4.91484725262324e-08
    vertex 149.75554330858003 -16.471376098966893 0.00013967131182898195
    vertex 149.93797945509132 -15.064599974088159 1.736765018661919e-08
  endloop
endfacet
facet normal 1.78999962895686e-10 -3.0615553382914804e-10 -1.0
  outer loop
    vertex 151.9999999980906 -80.00000000362776 4.91484725262324e-08
    vertex 149.93797945509132 -15.064599974088159 1.736765018661919e-08
    vertex 150.24704999114667 -11.340828444998772 1.6173611378108233e-08
  endloop
endfacet
facet normal 1.78999962895686e-10 -3.0615553382914804e-10 -1.0
  outer loop
    vertex 151.9999999980906 -80.00000000362776 4.91484725262324e-08
    vertex 150.24704999114667 -11.340828444998772 1.6173611378108233e-08
    vertex 151.09106785737868 -13.486724042762539 1.5049091516486744e-08
  endloop
endfacet
facet normal 1.78999962895686e-10 -3.0615553382914804e-10 -1.0
  outer loop
    vertex 151.9999999980906 -80.00000000362776 4.91484725262324e-08
    vertex 151.09106785737868 -13.486724042762539 1.5049091516486744e-08
    vertex 151.67807522729365 -15.716669428346282 1.3336238598745906e-08
  endloop
endfacet
facet normal 1.78999962895686e-10 -3.0615553382914804e-10 -1.0
  outer loop
    vertex 151.9999999980906 -80.00000000362776 4.91484725262324e-08
    vertex 151.67807522729365 -15.716669428346282 1.3336238598745906e-08
    vertex 151.9999999983683 -47.999999996029004 2.948918178690303e-08
  endloop
endfacet
facet normal 1.78999962895686e-10 -3.0615553382914804e-10 -1.0
  outer loop
    vertex 151.9999999983683 -47.999999996029004 2.948918178690303e-08
    vertex 151.67807522729365 -15.716669428346282 1.3336238598745906e-08
    vertex 151.99999999851696 -37.999999996029004 2.3345658499448742e-08
  endloop
endfacet
facet normal 1.78999962895686e-10 -3.0615553382914804e-10 -1.0
  outer loop
    vertex 151.99999999851696 -37.999999996029004 2.3345658499448742e-08
    vertex 151.67807522729365 -15.716669428346282 1.3336238598745906e-08
    vertex 151.99999999957038 -18.000000003627765 1.1058600649342523e-08
  endloop
endfacet
facet normal 1.78999962895686e-10 -3.0615553382914804e-10 -1.0
  outer loop
    vertex 151.9999999980906 -80.00000000362776 4.91484725262324e-08
    vertex 151.9999999983683 -47.999999996029004 2.948918178690303e-08
    vertex 151.99999999832926 -70.00000000362776 4.300494571381997e-08
  endloop
endfacet
facet normal 1.78999962895686e-10 -3.0615553382914804e-10 -1.0
  outer loop
    vertex 151.99999999851696 -37.999999996029004 2.3345658499448742e-08
    vertex 151.99999999957038 -18.000000003627765 1.1058600649342523e-08
    vertex 151.99999999945098 -23.002251686899214 1.4131747383203834e-08
  endloop
endfacet
facet normal 1.78999962895686e-10 -3.0615553382914804e-10 -1.0
  outer loop
    vertex 151.99999999851696 -37.999999996029004 2.3345658499448742e-08
    vertex 151.99999999945098 -23.002251686899214 1.4131747383203834e-08
    vertex 151.9999999994334 -29.99999995974689 1.843083279727908e-08
  endloop
endfacet
facet normal 1.0 -1.3190006505978835e-11 1.6926835688664604e-10
  outer loop
    vertex 151.9999999994334 -29.99999995974689 1.843083279727908e-08
    vertex 151.99999999867936 -23.00225168382745 4.999999992593194
    vertex 151.99999999851224 -29.999999979918332 4.999999931811317
  endloop
endfacet
facet normal 1.0 -1.3190006505978835e-11 1.6926835688664604e-10
  outer loop
    vertex 151.99999999867936 -23.00225168382745 4.999999992593194
    vertex 151.9999999994334 -29.99999995974689 1.843083279727908e-08
    vertex 151.99999999945098 -23.002251686899214 1.4131747383203834e-08
  endloop
endfacet
facet normal -5.832504326007664e-09 -1.6561893729760707e-09 1.0
  outer loop
    vertex 151.99999999760877 -23.00225170399885 9.9999999925932
    vertex 149.75554330464038 -16.47137609228667 10.000139651848329
    vertex 149.75554330448438 -23.002240666752122 10.00013964541398
  endloop
endfacet
facet normal -5.832504326007664e-09 -1.6561893729760707e-09 1.0
  outer loop
    vertex 149.75554330464038 -16.47137609228667 10.000139651848329
    vertex 151.99999999760877 -23.00225170399885 9.9999999925932
    vertex 149.93797945115162 -15.064599967407934 9.999999997904153
  endloop
endfacet
facet normal -5.832504326007664e-09 -1.6561893729760707e-09 1.0
  outer loop
    vertex 149.93797945115162 -15.064599967407934 9.999999997904153
    vertex 151.99999999760877 -23.00225170399885 9.9999999925932
    vertex 150.24704998930446 -11.340828441927009 10.000000016173619
  endloop
endfacet
facet normal -5.832504326007664e-09 -1.6561893729760707e-09 1.0
  outer loop
    vertex 150.24704998930446 -11.340828441927009 10.000000016173619
    vertex 151.99999999760877 -23.00225170399885 9.9999999925932
    vertex 151.0910678555366 -13.48672403969075 10.000000015049093
  endloop
endfacet
facet normal -5.832504326007664e-09 -1.6561893729760707e-09 1.0
  outer loop
    vertex 151.0910678555366 -13.48672403969075 10.000000015049093
    vertex 151.99999999760877 -23.00225170399885 9.9999999925932
    vertex 151.67807522545158 -15.716669425274496 10.000000013336246
  endloop
endfacet
facet normal -5.832504326007664e-09 -1.6561893729760707e-09 1.0
  outer loop
    vertex 151.67807522545158 -15.716669425274496 10.000000013336246
    vertex 151.99999999760877 -23.00225170399885 9.9999999925932
    vertex 151.99999999772814 -18.00000000055598 10.000000011058606
  endloop
endfacet
facet normal -5.832504326007664e-09 -1.6561893729760707e-09 1.0
  outer loop
    vertex 148.67758642811495 -13.780354427873784 9.999999970876278
    vertex 147.24417628961913 -7.9999999998969775 10.00000000105925
    vertex 147.24417628956274 -10.363192964906995 9.999999991258147
  endloop
endfacet
facet normal -5.832504326007664e-09 -1.6561893729760707e-09 1.0
  outer loop
    vertex 147.24417628961913 -7.9999999998969775 10.00000000105925
    vertex 148.67758642811495 -13.780354427873784 9.999999970876278
    vertex 148.24417628961913 -7.999999999920843 10.000000001059252
  endloop
endfacet
facet normal -5.832504326007664e-09 -1.6561893729760707e-09 1.0
  outer loop
    vertex 148.24417628961913 -7.999999999920843 10.000000001059252
    vertex 148.67758642811495 -13.780354427873784 9.999999970876278
    vertex 149.1576279507683 -9.30849143813742 10.000000016694337
  endloop
endfacet
facet normal -5.832504326007664e-09 -1.6561893729760707e-09 1.0
  outer loop
    vertex 149.1576279507683 -9.30849143813742 10.000000016694337
    vertex 148.67758642811495 -13.780354427873784 9.999999970876278
    vertex 149.93797945115162 -15.064599967407934 9.999999997904153
  endloop
endfacet
facet normal -5.832504326007664e-09 -1.6561893729760707e-09 1.0
  outer loop
    vertex 149.1576279507683 -9.30849143813742 10.000000016694337
    vertex 149.93797945115162 -15.064599967407934 9.999999997904153
    vertex 150.24704998930446 -11.340828441927009 10.000000016173619
  endloop
endfacet
facet normal -5.832504326007664e-09 -1.6561893729760707e-09 1.0
  outer loop
    vertex 149.93797945115162 -15.064599967407934 9.999999997904153
    vertex 148.50456931248425 -16.47138712945001 9.999999998279192
    vertex 149.75554330464038 -16.47137609228667 10.000139651848329
  endloop
endfacet
facet normal -1.708562698145343e-08 -4.836580602534424e-08 0.9999999999999987
  outer loop
    vertex 2.1730442676388577 -8.000001393971814 9.999995142663316
    vertex -1.8422728231826112e-09 3.0717552803759335e-09 10.000000000000002
    vertex -9.342738246367332e-05 -7.999999996382728 10.000000001059002
  endloop
endfacet
facet normal -1.708562698145343e-08 -4.836580602534424e-08 0.9999999999999987
  outer loop
    vertex -1.8422728231826112e-09 3.0717552803759335e-09 10.000000000000002
    vertex 2.1730442676388577 -8.000001393971814 9.999995142663316
    vertex 2.173137694965847 -2.3216161187587527 9.999995062897666
  endloop
endfacet
facet normal -1.708562698145343e-08 -4.836580602534424e-08 0.9999999999999987
  outer loop
    vertex -1.8422728231826112e-09 3.0717552803759335e-09 10.000000000000002
    vertex 2.173137694965847 -2.3216161187587527 9.999995062897666
    vertex 133.99999999815776 -1.2639741705811732e-10 10.00000000000023
  endloop
endfacet
facet normal -1.708562698145343e-08 -4.836580602534424e-08 0.9999999999999987
  outer loop
    vertex 133.99999999815776 -1.2639741705811732e-10 10.00000000000023
    vertex 2.173137694965847 -2.3216161187587527 9.999995062897666
    vertex 136.06937087961694 -2.3216147244172123 9.999999921293599
  endloop
endfacet
facet normal -1.708562698145343e-08 -4.836580602534424e-08 0.9999999999999987
  outer loop
    vertex 133.99999999815776 -1.2639741705811732e-10 10.00000000000023
    vertex 136.06937087961694 -2.3216147244172123 9.999999921293599
    vertex 136.28333057342394 -0.32192477251212226 10.00000000387841
  endloop
endfacet
facet normal -1.708562698145343e-08 -4.836580602534424e-08 0.9999999999999987
  outer loop
    vertex 136.28333057342394 -0.32192477251212226 10.00000000387841
    vertex 136.06937087961694 -2.3216147244172123 9.999999921293599
    vertex 137.5027810182491 -2.39406956237514 9.999999921906733
  endloop
endfacet
facet normal -1.708562698145343e-08 -4.836580602534424e-08 0.9999999999999987
  outer loop
    vertex 136.28333057342394 -0.32192477251212226 10.00000000387841
    vertex 137.5027810182491 -2.39406956237514 9.999999921906733
    vertex 138.51327595897968 -0.9089321425335373 10.000000007321871
  endloop
endfacet
facet normal -1.708562698145343e-08 -4.836580602534424e-08 0.9999999999999987
  outer loop
    vertex 138.51327595897968 -0.9089321425335373 10.000000007321871
    vertex 137.5027810182491 -2.39406956237514 9.999999921906733
    vertex 141.6239328727875 -6.593212837686558 9.99999997388863
  endloop
endfacet
facet normal -1.708562698145343e-08 -4.836580602534424e-08 0.9999999999999987
  outer loop
    vertex 138.51327595897968 -0.9089321425335373 10.000000007321871
    vertex 141.6239328727875 -6.593212837686558 9.99999997388863
    vertex 140.65917155670314 -1.7529500088679406 10.000000010283257
  endloop
endfacet
facet normal -1.708562698145343e-08 -4.836580602534424e-08 0.9999999999999987
  outer loop
    vertex 140.65917155670314 -1.7529500088679406 10.000000010283257
    vertex 141.6239328727875 -6.593212837686558 9.99999997388863
    vertex 142.69150856044064 -2.8423720475011143 10.000000012721854
  endloop
endfacet
facet normal -1.708562698145343e-08 -4.836580602534424e-08 0.9999999999999987
  outer loop
    vertex 142.69150856044064 -2.8423720475011143 10.000000012721854
    vertex 141.6239328727875 -6.593212837686558 9.99999997388863
    vertex 144.88098332460913 -7.9999999998405755 9.9999999920819
  endloop
endfacet
facet normal -1.708562698145343e-08 -4.836580602534424e-08 0.9999999999999987
  outer loop
    vertex 142.69150856044064 -2.8423720475011143 10.000000012721854
    vertex 144.88098332460913 -7.9999999998405755 9.9999999920819
    vertex 144.58233973979333 -4.16221731351119 10.000000014604106
  endloop
endfacet
facet normal -1.708562698145343e-08 -4.836580602534424e-08 0.9999999999999987
  outer loop
    vertex 144.58233973979333 -4.16221731351119 10.000000014604106
    vertex 144.88098332460913 -7.9999999998405755 9.9999999920819
    vertex 146.30566375024048 -5.694336248201629 10.000000015904149
  endloop
endfacet
facet normal -1.708562698145343e-08 -4.836580602534424e-08 0.9999999999999987
  outer loop
    vertex 146.30566375024048 -5.694336248201629 10.000000015904149
    vertex 144.88098332460913 -7.9999999998405755 9.9999999920819
    vertex 147.24417628961913 -7.9999999998969775 10.00000000105925
  endloop
endfacet
facet normal -1.708562698145343e-08 -4.836580602534424e-08 0.9999999999999987
  outer loop
    vertex 146.30566375024048 -5.694336248201629 10.000000015904149
    vertex 147.24417628961913 -7.9999999998969775 10.00000000105925
    vertex 147.83778268484866 -7.417660258721936 10.000000016604101
  endloop
endfacet
facet normal -1.708562698145343e-08 -4.836580602534424e-08 0.9999999999999987
  outer loop
    vertex 147.83778268484866 -7.417660258721936 10.000000016604101
    vertex 147.24417628961913 -7.9999999998969775 10.00000000105925
    vertex 148.24417628961913 -7.999999999920843 10.000000001059252
  endloop
endfacet
facet normal -2.2901290361584444e-10 4.925283548855093e-10 1.0
  outer loop
    vertex -0.001856834451524314 -158.99999999692827 10.00000002104754
    vertex 2.1731948761527726 -151.73968433913944 10.000018021589835
    vertex -0.0007453606905084342 -67.99999999107004 10.00000001101382
  endloop
endfacet
facet normal -2.2901290361584444e-10 4.925283548855093e-10 1.0
  outer loop
    vertex 2.1731948761527726 -151.73968433913944 10.000018021589835
    vertex -0.001856834451524314 -158.99999999692827 10.00000002104754
    vertex 4.98302876813141 -154.06347024020818 10.00000001519585
  endloop
endfacet
facet normal -2.2901290361584444e-10 4.925283548855093e-10 1.0
  outer loop
    vertex 4.98302876813141 -154.06347024020818 10.00000001519585
    vertex -0.001856834451524314 -158.99999999692827 10.00000002104754
    vertex 143.1268533463738 -84.6116448838725 10.000000047508077
  endloop
endfacet
facet normal -2.2901290361584444e-10 4.925283548855093e-10 1.0
  outer loop
    vertex 2.1731948761527726 -151.73968433913944 10.000018021589835
    vertex 4.98302876813141 -154.06347024020818 10.00000001519585
    vertex 3.7764808760508273 -151.73968272125992 10.000000013168155
  endloop
endfacet
facet normal -2.2901290361584444e-10 4.925283548855093e-10 1.0
  outer loop
    vertex 4.98302876813141 -154.06347024020818 10.00000001519585
    vertex 143.1268533463738 -84.6116448838725 10.000000047508077
    vertex 149.71111720312982 -78.91831664839833 10.000000037243693
  endloop
endfacet
facet normal -2.2901290361584444e-10 4.925283548855093e-10 1.0
  outer loop
    vertex 149.71111720312982 -78.91831664839833 10.000000037243693
    vertex 143.1268533463738 -84.6116448838725 10.000000047508077
    vertex 151.99999999624836 -80.00000000055601 10.000000049148474
  endloop
endfacet
facet normal -2.2901290361584444e-10 4.925283548855093e-10 1.0
  outer loop
    vertex 149.71111720312982 -78.91831664839833 10.000000037243693
    vertex 151.99999999624836 -80.00000000055601 10.000000049148474
    vertex 149.75554330320534 -76.59451809228665 10.000139688785142
  endloop
endfacet
facet normal -2.2901290361584444e-10 4.925283548855093e-10 1.0
  outer loop
    vertex 149.75554330320534 -76.59451809228665 10.000139688785142
    vertex 151.99999999624836 -80.00000000055601 10.000000049148474
    vertex 149.7555433038878 -47.99998896131097 10.000139642449133
  endloop
endfacet
facet normal -2.2901290361584444e-10 4.925283548855093e-10 1.0
  outer loop
    vertex 149.7555433038878 -47.99998896131097 10.000139642449133
    vertex 151.99999999624836 -80.00000000055601 10.000000049148474
    vertex 151.99999999701214 -47.99999999855773 9.999999960111111
  endloop
endfacet
facet normal -2.2901290361584444e-10 4.925283548855093e-10 1.0
  outer loop
    vertex 151.99999999701214 -47.99999999855773 9.999999960111111
    vertex 151.99999999624836 -80.00000000055601 10.000000049148474
    vertex 151.99999999648716 -70.000000000556 10.000000043004947
  endloop
endfacet
facet normal -2.2901290361584444e-10 4.925283548855093e-10 1.0
  outer loop
    vertex 149.75554330320534 -76.59451809228665 10.000139688785142
    vertex 148.50456931104918 -76.59452912944995 10.000000035216004
    vertex 149.71111720312982 -78.91831664839833 10.000000037243693
  endloop
endfacet
facet normal -2.2901290361584444e-10 4.925283548855093e-10 1.0
  outer loop
    vertex 2.1731948781513615 -68.00000160940212 10.000017994789815
    vertex -0.0007453606905084342 -67.99999999107004 10.00000001101382
    vertex 2.1731948761527726 -151.73968433913944 10.000018021589835
  endloop
endfacet
facet normal 6.925484512449338e-09 5.457906244502048e-09 1.0
  outer loop
    vertex 151.9999999972509 -37.99999999855774 9.999999988656622
    vertex 149.7555433043174 -29.999988962843 10.000139622770067
    vertex 149.75554330412655 -37.99998896131097 10.000139653251267
  endloop
endfacet
facet normal 6.925484512449338e-09 5.457906244502048e-09 1.0
  outer loop
    vertex 149.7555433043174 -29.999988962843 10.000139622770067
    vertex 151.9999999972509 -37.99999999855774 9.999999988656622
    vertex 151.99999999744193 -30.000000000089766 9.999999931811322
  endloop
endfacet
facet normal -3.798823455338922e-09 -4.147397353777397e-09 1.0
  outer loop
    vertex 148.67758642811495 -13.780354427873784 9.999999970876278
    vertex 144.88098332460913 -7.9999999998405755 9.9999999920819
    vertex 141.6239328727875 -6.593212837686558 9.99999997388863
  endloop
endfacet
facet normal -3.798823455338922e-09 -4.147397353777397e-09 1.0
  outer loop
    vertex 144.88098332460913 -7.9999999998405755 9.9999999920819
    vertex 148.67758642811495 -13.780354427873784 9.999999970876278
    vertex 147.24417628956274 -10.363192964906995 9.999999991258147
  endloop
endfacet
facet normal -3.798823096750878e-09 -4.14739702654911e-09 1.0
  outer loop
    vertex 147.24417628961913 -7.9999999998969775 10.00000000105925
    vertex 144.88098332460913 -7.9999999998405755 9.9999999920819
    vertex 147.24417628956274 -10.363192964906995 9.999999991258147
  endloop
endfacet
facet normal -2.3663136656332305e-11 -0.9914448613746649 0.13052619221356168
  outer loop
    vertex 2.1730442676388577 -8.000001393971814 9.999995142663316
    vertex -9.34273863439472e-05 -8.170370864125436 8.705904781648318
    vertex 2.173044267635 -8.170372261714522 8.705899923252638
  endloop
endfacet
facet normal -2.3663136656332305e-11 -0.9914448613746649 0.13052619221356168
  outer loop
    vertex -9.34273863439472e-05 -8.170370864125436 8.705904781648318
    vertex 2.1730442676388577 -8.000001393971814 9.999995142663316
    vertex -9.342738246367332e-05 -7.999999996382728 10.000000001059002
  endloop
endfacet
facet normal -2.205221357389617e-11 -0.9238795329889874 0.3826834312118187
  outer loop
    vertex 2.173044267635 -8.170372261714522 8.705899923252638
    vertex -9.342739834572455e-05 -8.66987297278758 7.50000001222452
    vertex 2.173044267622953 -8.669874370376666 7.4999951538288405
  endloop
endfacet
facet normal -2.205221357389617e-11 -0.9238795329889874 0.3826834312118187
  outer loop
    vertex -9.342739834572455e-05 -8.66987297278758 7.50000001222452
    vertex 2.173044267635 -8.170372261714522 8.705899923252638
    vertex -9.34273863439472e-05 -8.170370864125436 8.705904781648318
  endloop
endfacet
facet normal -1.8938468593579856e-11 -0.793353341807084 0.6087614270332281
  outer loop
    vertex 2.173044267622953 -8.669874370376666 7.4999951538288405
    vertex -9.342741711542145e-05 -9.464466079451146 6.464466109196853
    vertex 2.1730442676042285 -9.464467477040232 6.464461250801169
  endloop
endfacet
facet normal -1.8938468593579856e-11 -0.793353341807084 0.6087614270332281
  outer loop
    vertex -9.342741711542145e-05 -9.464466079451146 6.464466109196853
    vertex 2.173044267622953 -8.669874370376666 7.4999951538288405
    vertex -9.342739834572455e-05 -8.66987297278758 7.50000001222452
  endloop
endfacet
facet normal -1.4534098288083655e-11 -0.6087614319693735 0.7933533380194463
  outer loop
    vertex 2.17304426757939 -10.500001375124045 5.669868137694637
    vertex -9.342741711542145e-05 -9.464466079451146 6.464466109196853
    vertex -9.342744190856677e-05 -10.499999977534959 5.6698729960903185
  endloop
endfacet
facet normal -1.4534098288083655e-11 -0.6087614319693735 0.7933533380194463
  outer loop
    vertex -9.342741711542145e-05 -9.464466079451146 6.464466109196853
    vertex 2.17304426757939 -10.500001375124045 5.669868137694637
    vertex 2.1730442676042285 -9.464467477040232 6.464461250801169
  endloop
endfacet
facet normal -9.1392532123298e-12 -0.3826834369600812 0.9238795306079791
  outer loop
    vertex 2.1730442675506043 -11.70590614144 5.170366021529507
    vertex -9.342744190856677e-05 -10.499999977534959 5.6698729960903185
    vertex -9.342747069478462e-05 -11.705904743850914 5.170370879925188
  endloop
endfacet
facet normal -9.1392532123298e-12 -0.3826834369600812 0.9238795306079791
  outer loop
    vertex -9.342744190856677e-05 -10.499999977534959 5.6698729960903185
    vertex 2.1730442675506043 -11.70590614144 5.170366021529507
    vertex 2.17304426757939 -10.500001375124045 5.669868137694637
  endloop
endfacet
facet normal -3.121583139360368e-12 -0.13052619838222704 0.9914448605625445
  outer loop
    vertex 2.1730442675197197 -13.000001359790668 4.999995145735072
    vertex -9.342747069478462e-05 -11.705904743850914 5.170370879925188
    vertex -9.342750157905754e-05 -12.999999962201583 5.0000000041307535
  endloop
endfacet
facet normal -3.121583139360368e-12 -0.13052619838222704 0.9914448605625445
  outer loop
    vertex -9.342747069478462e-05 -11.705904743850914 5.170370879925188
    vertex 2.1730442675197197 -13.000001359790668 4.999995145735072
    vertex 2.1730442675506043 -11.70590614144 5.170366021529507
  endloop
endfacet
facet normal 3.1088176638899865e-12 0.13052618482673686 0.9914448623471588
  outer loop
    vertex 2.1730442674888355 -14.294096580470708 5.170366003836039
    vertex -9.342750157905754e-05 -12.999999962201583 5.0000000041307535
    vertex -9.342753246333046e-05 -14.294095182881623 5.170370862231718
  endloop
endfacet
facet normal 3.1088176638899865e-12 0.13052618482673686 0.9914448623471588
  outer loop
    vertex -9.342750157905754e-05 -12.999999962201583 5.0000000041307535
    vertex 2.1730442674888355 -14.294096580470708 5.170366003836039
    vertex 2.1730442675197197 -13.000001359790668 4.999995145735072
  endloop
endfacet
facet normal 9.127357682908797e-12 0.38268342432838465 0.923879535840199
  outer loop
    vertex 2.1730442674600043 -15.500001353616085 5.669868103513498
    vertex -9.342753246333046e-05 -14.294095182881623 5.170370862231718
    vertex -9.342756133978725e-05 -15.499999956026999 5.66987296190918
  endloop
endfacet
facet normal 9.127357682908797e-12 0.38268342432838465 0.923879535840199
  outer loop
    vertex -9.342753246333046e-05 -14.294095182881623 5.170370862231718
    vertex 2.1730442674600043 -15.500001353616085 5.669868103513498
    vertex 2.1730442674888355 -14.294096580470708 5.170366003836039
  endloop
endfacet
facet normal 1.4523883365375748e-11 0.6087614211222837 0.7933533463427112
  outer loop
    vertex 2.173044267435437 -16.535535262563936 6.4644612024617345
    vertex -9.342756133978725e-05 -15.499999956026999 5.66987296190918
    vertex -9.342758588477551e-05 -16.53553386497485 6.464466060857415
  endloop
endfacet
facet normal 1.4523883365375748e-11 0.6087614211222837 0.7933533463427112
  outer loop
    vertex -9.342756133978725e-05 -15.499999956026999 5.66987296190918
    vertex 2.173044267435437 -16.535535262563936 6.4644612024617345
    vertex 2.1730442674600043 -15.500001353616085 5.669868103513498
  endloop
endfacet
facet normal 1.8930630407680273e-11 0.7933533334838199 0.608761437880317
  outer loop
    vertex -9.342758588477551e-05 -16.53553386497485 6.464466060857415
    vertex 2.173044267416261 -17.330128383385798 7.499995094625372
    vertex 2.173044267435437 -16.535535262563936 6.4644612024617345
  endloop
endfacet
facet normal 1.8930630407680273e-11 0.7933533334838199 0.608761437880317
  outer loop
    vertex 2.173044267416261 -17.330128383385798 7.499995094625372
    vertex -9.342758588477551e-05 -16.53553386497485 6.464466060857415
    vertex -9.342760503798785e-05 -17.33012698579671 7.4999999530210495
  endloop
endfacet
facet normal 2.2047286284215815e-11 0.9238795277567717 0.38268344384350417
  outer loop
    vertex -9.342760503798785e-05 -17.33012698579671 7.4999999530210495
    vertex 2.173044267404462 -17.829630508535594 8.705899857219748
    vertex 2.173044267416261 -17.330128383385798 7.499995094625372
  endloop
endfacet
facet normal 2.2047286284215815e-11 0.9238795277567717 0.38268344384350417
  outer loop
    vertex 2.173044267404462 -17.829630508535594 8.705899857219748
    vertex -9.342760503798785e-05 -17.33012698579671 7.4999999530210495
    vertex -9.342761688184708e-05 -17.82962911094651 8.70590471561543
  endloop
endfacet
facet normal 9.294359331411655e-07 0.9914448595884423 0.13052620577795992
  outer loop
    vertex -9.342761688184708e-05 -17.82962911094651 8.70590471561543
    vertex 2.1731376945916487 -18.00000139397178 9.999995073455064
    vertex 2.173044267404462 -17.829630508535594 8.705899857219748
  endloop
endfacet
facet normal 9.294359331411655e-07 0.9914448595884423 0.13052620577795992
  outer loop
    vertex 2.1731376945916487 -18.00000139397178 9.999995073455064
    vertex -9.342761688184708e-05 -17.82962911094651 8.70590471561543
    vertex -9.342762103283774e-05 -17.999999996382687 9.99999993269672
  endloop
endfacet
facet normal -5.669444356966982e-06 -0.9999999999682567 -5.59858173628571e-06
  outer loop
    vertex 2.1729508028536673 -22.999984322864755 4.999999928319271
    vertex -0.0001464492478463697 -22.999999996461987 9.999999927510595
    vertex -0.00014644817713893588 -22.999999976290574 4.999999927510596
  endloop
endfacet
facet normal -5.669444356966982e-06 -0.9999999999682567 -5.59858173628571e-06
  outer loop
    vertex -0.0001464492478463697 -22.999999996461987 9.999999927510595
    vertex 2.1729508028536673 -22.999984322864755 4.999999928319271
    vertex 2.1730972483406936 -23.000040289340962 9.999999931602169
  endloop
endfacet
facet normal -4.143868158226047e-06 1.2869012855941202e-06 0.9999999999905862
  outer loop
    vertex 2.173048433571327 -30.00000159426024 5.000017941041385
    vertex -0.00014644817713893588 -22.999999976290574 4.999999927510596
    vertex -0.00014644834410351137 -29.99999997629057 4.999999931811059
  endloop
endfacet
facet normal -4.143868158226047e-06 1.2869012855941202e-06 0.9999999999905862
  outer loop
    vertex -0.00014644817713893588 -22.999999976290574 4.999999927510596
    vertex 2.173048433571327 -30.00000159426024 5.000017941041385
    vertex 2.1729508028536673 -22.999984322864755 4.999999928319271
  endloop
endfacet
facet normal 2.386539107272131e-11 1.0 4.034288254909893e-09
  outer loop
    vertex -0.0001464494148109452 -29.999999996462005 9.999999931811065
    vertex 2.173048433571327 -30.00000159426024 5.000017941041385
    vertex -0.00014644834410351137 -29.99999997629057 4.999999931811059
  endloop
endfacet
facet normal 2.386539107272131e-11 1.0 4.034288254909893e-09
  outer loop
    vertex 2.173048433571327 -30.00000159426024 5.000017941041385
    vertex -0.0001464494148109452 -29.999999996462005 9.999999931811065
    vertex 2.173194879058308 -30.000001614431703 10.000017943515742
  endloop
endfacet
facet normal -2.386686543687932e-11 -1.0 -1.1200999092500194e-09
  outer loop
    vertex 2.172805176842877 -38.00000160729916 5.000017962819948
    vertex -0.0003897046431285744 -37.99999999492997 9.999999953967334
    vertex -0.000389704072480157 -37.999999989329474 4.999999953967323
  endloop
endfacet
facet normal -2.386686543687932e-11 -1.0 -1.1200999092500194e-09
  outer loop
    vertex -0.0003897046431285744 -37.99999999492997 9.999999953967334
    vertex 2.172805176842877 -38.00000160729916 5.000017962819948
    vertex 2.173194878867317 -38.00000161289968 10.000017957482255
  endloop
endfacet
facet normal -1.1411389162798378e-10 6.143532449459123e-10 1.0
  outer loop
    vertex 2.1728051766042404 -48.00000160729916 5.00001796896348
    vertex -0.000389704072480157 -37.999999989329474 4.999999953967323
    vertex -0.00038970431113956035 -47.999999989329474 4.999999960110855
  endloop
endfacet
facet normal -1.1411389162798378e-10 6.143532449459123e-10 1.0
  outer loop
    vertex -0.000389704072480157 -37.999999989329474 4.999999953967323
    vertex 2.1728051766042404 -48.00000160729916 5.00001796896348
    vertex 2.172805176842877 -38.00000160729916 5.000017962819948
  endloop
endfacet
facet normal 2.3865372064676588e-11 1.0 1.1200987813698978e-09
  outer loop
    vertex -0.00038970488169773885 -47.999999994929965 9.999999960110861
    vertex 2.1728051766042404 -48.00000160729916 5.00001796896348
    vertex -0.00038970431113956035 -47.999999989329474 4.999999960110855
  endloop
endfacet
facet normal 2.3865372064676588e-11 1.0 1.1200987813698978e-09
  outer loop
    vertex 2.1728051766042404 -48.00000160729916 5.00001796896348
    vertex -0.00038970488169773885 -47.999999994929965 9.999999960110861
    vertex 2.173194878628703 -48.000001612899666 10.000017963194809
  endloop
endfacet
facet normal 3.0712507460176463e-10 -0.9914448611327914 0.1305261940507738
  outer loop
    vertex 2.172449525826521 -58.17037247875172 8.705922787884113
    vertex -0.0007453594925641127 -57.99999999107004 10.000000004870323
    vertex -0.0007453595127099532 -58.17037086041972 8.70590477946238
  endloop
endfacet
facet normal 3.0712507460176463e-10 -0.9914448611327914 0.1305261940507738
  outer loop
    vertex -0.0007453594925641127 -57.99999999107004 10.000000004870323
    vertex 2.172449525826521 -58.17037247875172 8.705922787884113
    vertex 2.173194878390066 -58.00000160940212 10.000017988646302
  endloop
endfacet
facet normal -1.1069605218472504e-10 -0.9238795322761849 0.3826834329326762
  outer loop
    vertex 2.172449525766557 -58.66987459201572 7.500018013703582
    vertex -0.0007453595127099532 -58.17037086041972 8.70590477946238
    vertex -0.000745359572628601 -58.66987297368372 7.500000005281851
  endloop
endfacet
facet normal -1.1069605218472504e-10 -0.9238795322761849 0.3826834329326762
  outer loop
    vertex -0.0007453595127099532 -58.17037086041972 8.70590477946238
    vertex 2.172449525766557 -58.66987459201572 7.500018013703582
    vertex 2.172449525826521 -58.17037247875172 8.705922787884113
  endloop
endfacet
facet normal -9.506086446247593e-11 -0.7933533399172437 0.6087614294961158
  outer loop
    vertex 2.1724495256715803 -59.464467705641354 6.464484108258994
    vertex -0.000745359572628601 -58.66987297368372 7.500000005281851
    vertex -0.0007453596676501917 -59.46446608730936 6.464466099837267
  endloop
endfacet
facet normal -9.506086446247593e-11 -0.7933533399172437 0.6087614294961158
  outer loop
    vertex -0.000745359572628601 -58.66987297368372 7.500000005281851
    vertex 2.1724495256715803 -59.464467705641354 6.464484108258994
    vertex 2.172449525766557 -58.66987459201572 7.500018013703582
  endloop
endfacet
facet normal -7.294743592261523e-11 -0.6087614285213246 0.7933533406652273
  outer loop
    vertex 2.172449525547389 -60.50000161206224 5.669890995905723
    vertex -0.0007453596676501917 -59.46446608730936 6.464466099837267
    vertex -0.000745359791796396 -60.49999999373025 5.669872987483993
  endloop
endfacet
facet normal -7.294743592261523e-11 -0.6087614285213246 0.7933533406652273
  outer loop
    vertex -0.0007453596676501917 -59.46446608730936 6.464466099837267
    vertex 2.172449525547389 -60.50000161206224 5.669890995905723
    vertex 2.1724495256715803 -59.464467705641354 6.464484108258994
  endloop
endfacet
facet normal -4.586276017596646e-11 -0.3826834317975087 0.9238795327463866
  outer loop
    vertex 2.1724495254028713 -61.705906386856505 5.170388884123417
    vertex -0.000745359791796396 -60.49999999373025 5.669872987483993
    vertex -0.0007453599363591579 -61.705904768524505 5.170370875701687
  endloop
endfacet
facet normal -4.586276017596646e-11 -0.3826834317975087 0.9238795327463866
  outer loop
    vertex -0.000745359791796396 -60.49999999373025 5.669872987483993
    vertex 2.1724495254028713 -61.705906386856505 5.170388884123417
    vertex 2.172449525547389 -60.50000161206224 5.669890995905723
  endloop
endfacet
facet normal -1.5652613115119025e-11 -0.13052619161095408 0.9914448614539997
  outer loop
    vertex 2.1724495252478637 -63.000001612473774 5.000018016363791
    vertex -0.0007453599363591579 -61.705904768524505 5.170370875701687
    vertex -0.000745360091321956 -62.999999994141774 5.000000007942061
  endloop
endfacet
facet normal -1.5652613115119025e-11 -0.13052619161095408 0.9914448614539997
  outer loop
    vertex -0.0007453599363591579 -61.705904768524505 5.170370875701687
    vertex 2.1724495252478637 -63.000001612473774 5.000018016363791
    vertex 2.1724495254028713 -61.705906386856505 5.170388884123417
  endloop
endfacet
facet normal 1.562423366235597e-11 0.13052619282914324 0.991444861293622
  outer loop
    vertex 2.1724495250928104 -64.29409683788172 5.170388885713475
    vertex -0.000745360091321956 -62.999999994141774 5.000000007942061
    vertex -0.000745360246374993 -64.29409521954972 5.170370877291745
  endloop
endfacet
facet normal 1.562423366235597e-11 0.13052619282914324 0.991444861293622
  outer loop
    vertex -0.000745360091321956 -62.999999994141774 5.000000007942061
    vertex 2.1724495250928104 -64.29409683788172 5.170388885713475
    vertex 2.1724495252478637 -63.000001612473774 5.000018016363791
  endloop
endfacet
facet normal 4.5836314736008945e-11 0.3826834329326717 0.9238795322761866
  outer loop
    vertex 2.1724495249482927 -65.50000161206225 5.669890998977465
    vertex -0.000745360246374993 -64.29409521954972 5.170370877291745
    vertex -0.0007453603909377549 -65.49999999373024 5.669872990555735
  endloop
endfacet
facet normal 4.5836314736008945e-11 0.3826834329326717 0.9238795322761866
  outer loop
    vertex -0.000745360246374993 -64.29409521954972 5.170370877291745
    vertex 2.1724495249482927 -65.50000161206225 5.669890998977465
    vertex 2.1724495250928104 -64.29409683788172 5.170388885713475
  endloop
endfacet
facet normal 7.292472670849519e-11 0.6087614294961194 0.7933533399172411
  outer loop
    vertex 2.172449524824192 -66.53553551750683 6.464484112603106
    vertex -0.0007453603909377549 -65.49999999373024 5.669872990555735
    vertex -0.0007453605150162801 -66.53553389917482 6.464466104181376
  endloop
endfacet
facet normal 7.292472670849519e-11 0.6087614294961194 0.7933533399172411
  outer loop
    vertex -0.0007453603909377549 -65.49999999373024 5.669872990555735
    vertex 2.172449524824192 -66.53553551750683 6.464484112603106
    vertex 2.1724495249482927 -65.50000161206225 5.669890998977465
  endloop
endfacet
facet normal 9.504343906960539e-11 0.7933533406652257 0.6087614285213268
  outer loop
    vertex -0.0007453606102409082 -67.3301270115281 7.500000010602274
    vertex 2.172449524824192 -66.53553551750683 6.464484112603106
    vertex -0.0007453605150162801 -66.53553389917482 6.464466104181376
  endloop
endfacet
facet normal 9.504343906960539e-11 0.7933533406652257 0.6087614285213268
  outer loop
    vertex 2.172449524824192 -66.53553551750683 6.464484112603106
    vertex -0.0007453606102409082 -67.3301270115281 7.500000010602274
    vertex 2.1724495247289446 -67.33012862986011 7.500018019024006
  endloop
endfacet
facet normal 1.1068509812483238e-10 0.9238795327463898 0.38268343179750136
  outer loop
    vertex -0.000745360670001638 -67.82962912331041 8.705904785396546
    vertex 2.1724495247289446 -67.33012862986011 7.500018019024006
    vertex -0.0007453606102409082 -67.3301270115281 7.500000010602274
  endloop
endfacet
facet normal 1.1068509812483238e-10 0.9238795327463898 0.38268343179750136
  outer loop
    vertex 2.1724495247289446 -67.33012862986011 7.500018019024006
    vertex -0.000745360670001638 -67.82962912331041 8.705904785396546
    vertex 2.172449524669229 -67.8296307416424 8.705922793818273
  endloop
endfacet
facet normal 5.446998414417172e-10 0.9914448612931699 0.13052619283257694
  outer loop
    vertex -0.0007453606905084342 -67.99999999107004 10.00000001101382
    vertex 2.172449524669229 -67.8296307416424 8.705922793818273
    vertex -0.000745360670001638 -67.82962912331041 8.705904785396546
  endloop
endfacet
facet normal 5.446998414417172e-10 0.9914448612931699 0.13052619283257694
  outer loop
    vertex 2.172449524669229 -67.8296307416424 8.705922793818273
    vertex -0.0007453606905084342 -67.99999999107004 10.00000001101382
    vertex 2.1731948781513615 -68.00000160940212 10.000017994789815
  endloop
endfacet
facet normal 2.386069417699762e-11 1.0 4.034282386096339e-09
  outer loop
    vertex 149.75554330538785 -29.999988942671607 5.000139584632088
    vertex 151.99999999744193 -30.000000000089766 9.999999931811322
    vertex 151.99999999851224 -29.999999979918332 4.999999931811317
  endloop
endfacet
facet normal 2.386069417699762e-11 1.0 4.034282386096339e-09
  outer loop
    vertex 151.99999999744193 -30.000000000089766 9.999999931811322
    vertex 149.75554330538785 -29.999988942671607 5.000139584632088
    vertex 149.7555433043174 -29.999988962843 10.000139622770067
  endloop
endfacet
facet normal -2.1409862338555863e-10 -8.68591939280692e-09 1.0
  outer loop
    vertex 151.99999999851224 -29.999999979918332 4.999999931811317
    vertex 149.75554330555497 -23.002240646580717 5.000139645413966
    vertex 149.75554330538785 -29.999988942671607 5.000139584632088
  endloop
endfacet
facet normal -2.1409862338555863e-10 -8.68591939280692e-09 1.0
  outer loop
    vertex 149.75554330555497 -23.002240646580717 5.000139645413966
    vertex 151.99999999851224 -29.999999979918332 4.999999931811317
    vertex 151.99999999867936 -23.00225168382745 4.999999992593194
  endloop
endfacet
facet normal -2.3854922441734388e-11 -1.0 -4.034281837488991e-09
  outer loop
    vertex 151.99999999760877 -23.00225170399885 9.9999999925932
    vertex 149.75554330555497 -23.002240646580717 5.000139645413966
    vertex 151.99999999867936 -23.00225168382745 4.999999992593194
  endloop
endfacet
facet normal -2.3854922441734388e-11 -1.0 -4.034281837488991e-09
  outer loop
    vertex 149.75554330555497 -23.002240646580717 5.000139645413966
    vertex 151.99999999760877 -23.00225170399885 9.9999999925932
    vertex 149.75554330448438 -23.002240666752122 10.00013964541398
  endloop
endfacet
facet normal 2.3866728956684603e-11 1.0 1.1200982977624187e-09
  outer loop
    vertex 149.7613329897388 -47.99998895571063 5.000139613282047
    vertex 151.99999999701214 -47.99999999855773 9.999999960111111
    vertex 151.9999999975827 -47.99999999295724 4.999999960111107
  endloop
endfacet
facet normal 2.3866728956684603e-11 1.0 1.1200982977624187e-09
  outer loop
    vertex 151.99999999701214 -47.99999999855773 9.999999960111111
    vertex 149.7613329897388 -47.99998895571063 5.000139613282047
    vertex 149.7555433038878 -47.99998896131097 10.000139642449133
  endloop
endfacet
facet normal -1.1410937976440048e-10 -2.8545515384754115e-09 1.0
  outer loop
    vertex 151.9999999975827 -47.99999999295724 4.999999960111107
    vertex 149.7613329899775 -37.99998895571063 5.0001396418275625
    vertex 149.7613329897388 -47.99998895571063 5.000139613282047
  endloop
endfacet
facet normal -1.1410937976440048e-10 -2.8545515384754115e-09 1.0
  outer loop
    vertex 149.7613329899775 -37.99998895571063 5.0001396418275625
    vertex 151.9999999975827 -47.99999999295724 4.999999960111107
    vertex 151.99999999782136 -37.99999999295724 4.999999988656622
  endloop
endfacet
facet normal -2.3866726109071316e-11 -1.0 -1.1200982997482043e-09
  outer loop
    vertex 151.9999999972509 -37.99999999855774 9.999999988656622
    vertex 149.7613329899775 -37.99998895571063 5.0001396418275625
    vertex 151.99999999782136 -37.99999999295724 4.999999988656622
  endloop
endfacet
facet normal -2.3866726109071316e-11 -1.0 -1.1200982997482043e-09
  outer loop
    vertex 149.7613329899775 -37.99998895571063 5.0001396418275625
    vertex 151.9999999972509 -37.99999999855774 9.999999988656622
    vertex 149.75554330412655 -37.99998896131097 10.000139653251267
  endloop
endfacet
facet normal -0.46080501601795876 0.8875014012454793 -7.744170471587911e-10
  outer loop
    vertex 4.98302876813141 -154.06347024020818 10.00000001519585
    vertex 149.71111720706955 -78.91831665507856 5.6707196065064765e-08
    vertex 4.983028772071174 -154.06347024688836 3.46593528344366e-08
  endloop
endfacet
facet normal -0.46080501601795876 0.8875014012454793 -7.744170471587911e-10
  outer loop
    vertex 149.71111720706955 -78.91831665507856 5.6707196065064765e-08
    vertex 4.98302876813141 -154.06347024020818 10.00000001519585
    vertex 149.71111720312982 -78.91831664839833 10.000000037243693
  endloop
endfacet
facet normal 0.8875014012454792 0.46080501601795876 4.1827293494911835e-11
  outer loop
    vertex 3.7764808799905913 -151.73968272794014 3.263165950784245e-08
    vertex 4.98302876813141 -154.06347024020818 10.00000001519585
    vertex 4.983028772071174 -154.06347024688836 3.46593528344366e-08
  endloop
endfacet
facet normal 0.8875014012454792 0.46080501601795876 4.1827293494911835e-11
  outer loop
    vertex 4.98302876813141 -154.06347024020818 10.00000001519585
    vertex 3.7764808799905913 -151.73968272794014 3.263165950784245e-08
    vertex 3.7764808760508273 -151.73968272125992 10.000000013168155
  endloop
endfacet
facet normal -0.887501401245479 -0.4608050160179587 -4.182425175178209e-11
  outer loop
    vertex 149.71111720312982 -78.91831664839833 10.000000037243693
    vertex 148.50456931498894 -76.59452913613019 5.467950273847066e-08
    vertex 149.71111720706955 -78.91831665507856 5.6707196065064765e-08
  endloop
endfacet
facet normal -0.887501401245479 -0.4608050160179587 -4.182425175178209e-11
  outer loop
    vertex 148.50456931498894 -76.59452913613019 5.467950273847066e-08
    vertex 149.71111720312982 -78.91831664839833 10.000000037243693
    vertex 148.50456931104918 -76.59452912944995 10.000000035216004
  endloop
endfacet
facet normal -2.386682097402162e-11 -1.0 6.68022643560723e-10
  outer loop
    vertex 136.06937088355667 -2.321614731097439 -5.924289807052117e-08
    vertex 2.173137694965847 -2.3216161187587527 9.999995062897666
    vertex 2.1731376989056335 -2.3216161254389793 -4.917638828385781e-06
  endloop
endfacet
facet normal -2.386682097402162e-11 -1.0 6.68022643560723e-10
  outer loop
    vertex 2.173137694965847 -2.3216161187587527 9.999995062897666
    vertex 136.06937088355667 -2.321614731097439 -5.924289807052117e-08
    vertex 136.06937087961694 -2.3216147244172123 9.999999921293599
  endloop
endfacet
facet normal -0.7137035888906405 -0.7004478475979634 1.8673421899386022e-10
  outer loop
    vertex 149.93797945115162 -15.064599967407934 9.999999997904153
    vertex 137.50278102218883 -2.394069569055366 -5.862976997871883e-08
    vertex 149.93797945509132 -15.064599974088159 1.736765018661919e-08
  endloop
endfacet
facet normal -0.7137035888906405 -0.7004478475979634 1.8673421899386022e-10
  outer loop
    vertex 137.50278102218883 -2.394069569055366 -5.862976997871883e-08
    vertex 149.93797945115162 -15.064599967407934 9.999999997904153
    vertex 148.67758642811495 -13.780354427873784 9.999999970876278
  endloop
endfacet
facet normal -0.7137035888906405 -0.7004478475979634 1.8673421899386022e-10
  outer loop
    vertex 137.50278102218883 -2.394069569055366 -5.862976997871883e-08
    vertex 148.67758642811495 -13.780354427873784 9.999999970876278
    vertex 141.6239328727875 -6.593212837686558 9.99999997388863
  endloop
endfacet
facet normal -0.7137035888906405 -0.7004478475979634 1.8673421899386022e-10
  outer loop
    vertex 137.50278102218883 -2.394069569055366 -5.862976997871883e-08
    vertex 141.6239328727875 -6.593212837686558 9.99999997388863
    vertex 137.5027810182491 -2.39406956237514 9.999999921906733
  endloop
endfacet
facet normal -0.7004478475979634 0.7137035888906405 -7.527251762727755e-10
  outer loop
    vertex 148.5045693164239 -16.471387136130236 1.7742689246122852e-08
    vertex 149.93797945115162 -15.064599967407934 9.999999997904153
    vertex 149.93797945509132 -15.064599974088159 1.736765018661919e-08
  endloop
endfacet
facet normal -0.7004478475979634 0.7137035888906405 -7.527251762727755e-10
  outer loop
    vertex 149.93797945115162 -15.064599967407934 9.999999997904153
    vertex 148.5045693164239 -16.471387136130236 1.7742689246122852e-08
    vertex 148.50456931248425 -16.47138712945001 9.999999998279192
  endloop
endfacet
facet normal -0.9999999937297952 -8.822855904810545e-06 -0.00011163586864294205
  outer loop
    vertex 149.7555433043174 -29.999988962843 10.000139622770067
    vertex 149.7613329899775 -37.99998895571063 5.0001396418275625
    vertex 149.75554330412655 -37.99998896131097 10.000139653251267
  endloop
endfacet
facet normal -0.9999999937297952 -8.822855904810545e-06 -0.00011163586864294205
  outer loop
    vertex 149.75554330464038 -16.47137609228667 10.000139651848329
    vertex 149.75554330555497 -23.002240646580717 5.000139645413966
    vertex 149.75554330448438 -23.002240666752122 10.00013964541398
  endloop
endfacet
facet normal -0.9999999937297952 -8.822855904810545e-06 -0.00011163586864294205
  outer loop
    vertex 149.75554330555497 -23.002240646580717 5.000139645413966
    vertex 149.75554330464038 -16.47137609228667 10.000139651848329
    vertex 149.75554330858003 -16.471376098966893 0.00013967131182898195
  endloop
endfacet
facet normal -0.9999999937297952 -8.822855904810545e-06 -0.00011163586864294205
  outer loop
    vertex 149.75554330714508 -76.59451809896687 0.00013970824864247423
    vertex 149.7613329897388 -47.99998895571063 5.000139613282047
    vertex 149.75554330858003 -16.471376098966893 0.00013967131182898195
  endloop
endfacet
facet normal -0.9999999937297952 -8.822855904810545e-06 -0.00011163586864294205
  outer loop
    vertex 149.7613329897388 -47.99998895571063 5.000139613282047
    vertex 149.75554330714508 -76.59451809896687 0.00013970824864247423
    vertex 149.75554330320534 -76.59451809228665 10.000139688785142
  endloop
endfacet
facet normal -0.9999999937297952 -8.822855904810545e-06 -0.00011163586864294205
  outer loop
    vertex 149.7613329897388 -47.99998895571063 5.000139613282047
    vertex 149.75554330320534 -76.59451809228665 10.000139688785142
    vertex 149.7555433038878 -47.99998896131097 10.000139642449133
  endloop
endfacet
facet normal -0.9999999937297952 -8.822855904810545e-06 -0.00011163586864294205
  outer loop
    vertex 149.75554330858003 -16.471376098966893 0.00013967131182898195
    vertex 149.7613329897388 -47.99998895571063 5.000139613282047
    vertex 149.7613329899775 -37.99998895571063 5.0001396418275625
  endloop
endfacet
facet normal -0.9999999937297952 -8.822855904810545e-06 -0.00011163586864294205
  outer loop
    vertex 149.75554330858003 -16.471376098966893 0.00013967131182898195
    vertex 149.7613329899775 -37.99998895571063 5.0001396418275625
    vertex 149.75554330538785 -29.999988942671607 5.000139584632088
  endloop
endfacet
facet normal -0.9999999937297952 -8.822855904810545e-06 -0.00011163586864294205
  outer loop
    vertex 149.75554330538785 -29.999988942671607 5.000139584632088
    vertex 149.7613329899775 -37.99998895571063 5.0001396418275625
    vertex 149.7555433043174 -29.999988962843 10.000139622770067
  endloop
endfacet
facet normal -0.9999999937297952 -8.822855904810545e-06 -0.00011163586864294205
  outer loop
    vertex 149.75554330858003 -16.471376098966893 0.00013967131182898195
    vertex 149.75554330538785 -29.999988942671607 5.000139584632088
    vertex 149.75554330555497 -23.002240646580717 5.000139645413966
  endloop
endfacet
facet normal 8.822855885212608e-06 -0.9999999999610787 6.680259012554726e-10
  outer loop
    vertex 149.75554330858003 -16.471376098966893 0.00013967131182898195
    vertex 148.50456931248425 -16.47138712945001 9.999999998279192
    vertex 148.5045693164239 -16.471387136130236 1.7742689246122852e-08
  endloop
endfacet
facet normal 8.822855885212608e-06 -0.9999999999610787 6.680259012554726e-10
  outer loop
    vertex 148.50456931248425 -16.47138712945001 9.999999998279192
    vertex 149.75554330858003 -16.471376098966893 0.00013967131182898195
    vertex 149.75554330464038 -16.47137609228667 10.000139651848329
  endloop
endfacet
facet normal -8.822855885212547e-06 0.9999999999610788 -6.680264652885785e-10
  outer loop
    vertex 148.50456931104918 -76.59452912944995 10.000000035216004
    vertex 149.75554330714508 -76.59451809896687 0.00013970824864247423
    vertex 148.50456931498894 -76.59452913613019 5.467950273847066e-08
  endloop
endfacet
facet normal -8.822855885212547e-06 0.9999999999610788 -6.680264652885785e-10
  outer loop
    vertex 149.75554330714508 -76.59451809896687 0.00013970824864247423
    vertex 148.50456931104918 -76.59452912944995 10.000000035216004
    vertex 149.75554330320534 -76.59451809228665 10.000139688785142
  endloop
endfacet
facet normal -1.009102281272554e-06 0.9999999999994909 -6.680211309265147e-10
  outer loop
    vertex 2.173194880092559 -151.73968434581965 1.8041053335054555e-05
    vertex 3.7764808760508273 -151.73968272125992 10.000000013168155
    vertex 3.7764808799905913 -151.73968272794014 3.263165950784245e-08
  endloop
endfacet
facet normal -1.009102281272554e-06 0.9999999999994909 -6.680211309265147e-10
  outer loop
    vertex 3.7764808760508273 -151.73968272125992 10.000000013168155
    vertex 2.173194880092559 -151.73968434581965 1.8041053335054555e-05
    vertex 2.1731948761527726 -151.73968433913944 10.000018021589835
  endloop
endfacet
facet normal 0.9999999999268807 -2.525750339828725e-06 -1.182620034271192e-05
  outer loop
    vertex 2.1731376989056335 -2.3216161254389793 -4.917638828385781e-06
    vertex 2.1731948761527726 -151.73968433913944 10.000018021589835
    vertex 2.173194880092559 -151.73968434581965 1.8041053335054555e-05
  endloop
endfacet
facet normal 0.9999999999268807 -2.525750339828725e-06 -1.182620034271192e-05
  outer loop
    vertex 2.1731948761527726 -151.73968433913944 10.000018021589835
    vertex 2.1731376989056335 -2.3216161254389793 -4.917638828385781e-06
    vertex 2.1724495252478637 -63.000001612473774 5.000018016363791
  endloop
endfacet
facet normal 0.9999999999268807 -2.525750339828725e-06 -1.182620034271192e-05
  outer loop
    vertex 2.1731948761527726 -151.73968433913944 10.000018021589835
    vertex 2.1724495252478637 -63.000001612473774 5.000018016363791
    vertex 2.1724495250928104 -64.29409683788172 5.170388885713475
  endloop
endfacet
facet normal 0.9999999999268807 -2.525750339828725e-06 -1.182620034271192e-05
  outer loop
    vertex 2.1731948761527726 -151.73968433913944 10.000018021589835
    vertex 2.1724495250928104 -64.29409683788172 5.170388885713475
    vertex 2.1724495249482927 -65.50000161206225 5.669890998977465
  endloop
endfacet
facet normal 0.9999999999268807 -2.525750339828725e-06 -1.182620034271192e-05
  outer loop
    vertex 2.1731948761527726 -151.73968433913944 10.000018021589835
    vertex 2.1724495249482927 -65.50000161206225 5.669890998977465
    vertex 2.172449524824192 -66.53553551750683 6.464484112603106
  endloop
endfacet
facet normal 0.9999999999268807 -2.525750339828725e-06 -1.182620034271192e-05
  outer loop
    vertex 2.1731948761527726 -151.73968433913944 10.000018021589835
    vertex 2.172449524824192 -66.53553551750683 6.464484112603106
    vertex 2.1724495247289446 -67.33012862986011 7.500018019024006
  endloop
endfacet
facet normal 0.9999999999268807 -2.525750339828725e-06 -1.182620034271192e-05
  outer loop
    vertex 2.1731948761527726 -151.73968433913944 10.000018021589835
    vertex 2.1724495247289446 -67.33012862986011 7.500018019024006
    vertex 2.172449524669229 -67.8296307416424 8.705922793818273
  endloop
endfacet
facet normal 0.9999999999268807 -2.525750339828725e-06 -1.182620034271192e-05
  outer loop
    vertex 2.1731948761527726 -151.73968433913944 10.000018021589835
    vertex 2.172449524669229 -67.8296307416424 8.705922793818273
    vertex 2.1731948781513615 -68.00000160940212 10.000017994789815
  endloop
endfacet
facet normal 0.9999999999268807 -2.525750339828725e-06 -1.182620034271192e-05
  outer loop
    vertex 2.1724495252478637 -63.000001612473774 5.000018016363791
    vertex 2.1731376989056335 -2.3216161254389793 -4.917638828385781e-06
    vertex 2.1724495254028713 -61.705906386856505 5.170388884123417
  endloop
endfacet
facet normal 0.9999999999268807 -2.525750339828725e-06 -1.182620034271192e-05
  outer loop
    vertex 2.1724495254028713 -61.705906386856505 5.170388884123417
    vertex 2.1731376989056335 -2.3216161254389793 -4.917638828385781e-06
    vertex 2.172449525547389 -60.50000161206224 5.669890995905723
  endloop
endfacet
facet normal 0.9999999999268807 -2.525750339828725e-06 -1.182620034271192e-05
  outer loop
    vertex 2.172449525547389 -60.50000161206224 5.669890995905723
    vertex 2.1731376989056335 -2.3216161254389793 -4.917638828385781e-06
    vertex 2.1728051766042404 -48.00000160729916 5.00001796896348
  endloop
endfacet
facet normal 0.9999999999268807 -2.525750339828725e-06 -1.182620034271192e-05
  outer loop
    vertex 2.172449525547389 -60.50000161206224 5.669890995905723
    vertex 2.1728051766042404 -48.00000160729916 5.00001796896348
    vertex 2.1724495256715803 -59.464467705641354 6.464484108258994
  endloop
endfacet
facet normal 0.9999999999268807 -2.525750339828725e-06 -1.182620034271192e-05
  outer loop
    vertex 2.1724495256715803 -59.464467705641354 6.464484108258994
    vertex 2.1728051766042404 -48.00000160729916 5.00001796896348
    vertex 2.172449525766557 -58.66987459201572 7.500018013703582
  endloop
endfacet
facet normal 0.9999999999268807 -2.525750339828725e-06 -1.182620034271192e-05
  outer loop
    vertex 2.172449525766557 -58.66987459201572 7.500018013703582
    vertex 2.1728051766042404 -48.00000160729916 5.00001796896348
    vertex 2.172449525826521 -58.17037247875172 8.705922787884113
  endloop
endfacet
facet normal 0.9999999999268807 -2.525750339828725e-06 -1.182620034271192e-05
  outer loop
    vertex 2.172449525826521 -58.17037247875172 8.705922787884113
    vertex 2.1728051766042404 -48.00000160729916 5.00001796896348
    vertex 2.173194878390066 -58.00000160940212 10.000017988646302
  endloop
endfacet
facet normal 0.9999999999268807 -2.525750339828725e-06 -1.182620034271192e-05
  outer loop
    vertex 2.173194878390066 -58.00000160940212 10.000017988646302
    vertex 2.1728051766042404 -48.00000160729916 5.00001796896348
    vertex 2.173194878628703 -48.000001612899666 10.000017963194809
  endloop
endfacet
facet normal 0.9999999999268807 -2.525750339828725e-06 -1.182620034271192e-05
  outer loop
    vertex 2.1728051766042404 -48.00000160729916 5.00001796896348
    vertex 2.1731376989056335 -2.3216161254389793 -4.917638828385781e-06
    vertex 2.172805176842877 -38.00000160729916 5.000017962819948
  endloop
endfacet
facet normal 0.9999999999268807 -2.525750339828725e-06 -1.182620034271192e-05
  outer loop
    vertex 2.172805176842877 -38.00000160729916 5.000017962819948
    vertex 2.1731376989056335 -2.3216161254389793 -4.917638828385781e-06
    vertex 2.173048433571327 -30.00000159426024 5.000017941041385
  endloop
endfacet
facet normal 0.9999999999268807 -2.525750339828725e-06 -1.182620034271192e-05
  outer loop
    vertex 2.172805176842877 -38.00000160729916 5.000017962819948
    vertex 2.173048433571327 -30.00000159426024 5.000017941041385
    vertex 2.173194879058308 -30.000001614431703 10.000017943515742
  endloop
endfacet
facet normal 0.9999999999268807 -2.525750339828725e-06 -1.182620034271192e-05
  outer loop
    vertex 2.173048433571327 -30.00000159426024 5.000017941041385
    vertex 2.1731376989056335 -2.3216161254389793 -4.917638828385781e-06
    vertex 2.1729508028536673 -22.999984322864755 4.999999928319271
  endloop
endfacet
facet normal 0.9999999999268807 -2.525750339828725e-06 -1.182620034271192e-05
  outer loop
    vertex 2.1729508028536673 -22.999984322864755 4.999999928319271
    vertex 2.1731376989056335 -2.3216161254389793 -4.917638828385781e-06
    vertex 2.1730442674600043 -15.500001353616085 5.669868103513498
  endloop
endfacet
facet normal 0.9999999999268807 -2.525750339828725e-06 -1.182620034271192e-05
  outer loop
    vertex 2.1729508028536673 -22.999984322864755 4.999999928319271
    vertex 2.1730442674600043 -15.500001353616085 5.669868103513498
    vertex 2.173044267435437 -16.535535262563936 6.4644612024617345
  endloop
endfacet
facet normal 0.9999999999268807 -2.525750339828725e-06 -1.182620034271192e-05
  outer loop
    vertex 2.1729508028536673 -22.999984322864755 4.999999928319271
    vertex 2.173044267435437 -16.535535262563936 6.4644612024617345
    vertex 2.173044267416261 -17.330128383385798 7.499995094625372
  endloop
endfacet
facet normal 0.9999999999268807 -2.525750339828725e-06 -1.182620034271192e-05
  outer loop
    vertex 2.1729508028536673 -22.999984322864755 4.999999928319271
    vertex 2.173044267416261 -17.330128383385798 7.499995094625372
    vertex 2.173044267404462 -17.829630508535594 8.705899857219748
  endloop
endfacet
facet normal 0.9999999999268807 -2.525750339828725e-06 -1.182620034271192e-05
  outer loop
    vertex 2.1729508028536673 -22.999984322864755 4.999999928319271
    vertex 2.173044267404462 -17.829630508535594 8.705899857219748
    vertex 2.1731376945916487 -18.00000139397178 9.999995073455064
  endloop
endfacet
facet normal 0.9999999999268807 -2.525750339828725e-06 -1.182620034271192e-05
  outer loop
    vertex 2.1730442674600043 -15.500001353616085 5.669868103513498
    vertex 2.1731376989056335 -2.3216161254389793 -4.917638828385781e-06
    vertex 2.1730442674888355 -14.294096580470708 5.170366003836039
  endloop
endfacet
facet normal 0.9999999999268807 -2.525750339828725e-06 -1.182620034271192e-05
  outer loop
    vertex 2.1730442674888355 -14.294096580470708 5.170366003836039
    vertex 2.1731376989056335 -2.3216161254389793 -4.917638828385781e-06
    vertex 2.1730442675197197 -13.000001359790668 4.999995145735072
  endloop
endfacet
facet normal 0.9999999999268807 -2.525750339828725e-06 -1.182620034271192e-05
  outer loop
    vertex 2.1730442675197197 -13.000001359790668 4.999995145735072
    vertex 2.1731376989056335 -2.3216161254389793 -4.917638828385781e-06
    vertex 2.1730442675506043 -11.70590614144 5.170366021529507
  endloop
endfacet
facet normal 0.9999999999268807 -2.525750339828725e-06 -1.182620034271192e-05
  outer loop
    vertex 2.1730442675506043 -11.70590614144 5.170366021529507
    vertex 2.1731376989056335 -2.3216161254389793 -4.917638828385781e-06
    vertex 2.17304426757939 -10.500001375124045 5.669868137694637
  endloop
endfacet
facet normal 0.9999999999268807 -2.525750339828725e-06 -1.182620034271192e-05
  outer loop
    vertex 2.17304426757939 -10.500001375124045 5.669868137694637
    vertex 2.1731376989056335 -2.3216161254389793 -4.917638828385781e-06
    vertex 2.1730442676042285 -9.464467477040232 6.464461250801169
  endloop
endfacet
facet normal 0.9999999999268807 -2.525750339828725e-06 -1.182620034271192e-05
  outer loop
    vertex 2.1730442676042285 -9.464467477040232 6.464461250801169
    vertex 2.1731376989056335 -2.3216161254389793 -4.917638828385781e-06
    vertex 2.173044267622953 -8.669874370376666 7.4999951538288405
  endloop
endfacet
facet normal 0.9999999999268807 -2.525750339828725e-06 -1.182620034271192e-05
  outer loop
    vertex 2.173044267622953 -8.669874370376666 7.4999951538288405
    vertex 2.1731376989056335 -2.3216161254389793 -4.917638828385781e-06
    vertex 2.173044267635 -8.170372261714522 8.705899923252638
  endloop
endfacet
facet normal 0.9999999999268807 -2.525750339828725e-06 -1.182620034271192e-05
  outer loop
    vertex 2.173044267635 -8.170372261714522 8.705899923252638
    vertex 2.1731376989056335 -2.3216161254389793 -4.917638828385781e-06
    vertex 2.1730442676388577 -8.000001393971814 9.999995142663316
  endloop
endfacet
facet normal 0.9999999999268807 -2.525750339828725e-06 -1.182620034271192e-05
  outer loop
    vertex 2.1730442676388577 -8.000001393971814 9.999995142663316
    vertex 2.1731376989056335 -2.3216161254389793 -4.917638828385781e-06
    vertex 2.173137694965847 -2.3216161187587527 9.999995062897666
  endloop
endfacet
facet normal 0.9999999999268807 -2.525750339828725e-06 -1.182620034271192e-05
  outer loop
    vertex 2.1731376945916487 -18.00000139397178 9.999995073455064
    vertex 2.1730972483406936 -23.000040289340962 9.999999931602169
    vertex 2.1729508028536673 -22.999984322864755 4.999999928319271
  endloop
endfacet
facet normal 0.9999999999268807 -2.525750339828725e-06 -1.182620034271192e-05
  outer loop
    vertex 2.173194879058308 -30.000001614431703 10.000017943515742
    vertex 2.173194878867317 -38.00000161289968 10.000017957482255
    vertex 2.172805176842877 -38.00000160729916 5.000017962819948
  endloop
endfacet
facet normal -0.05048272739481153 -0.9987249342210204 6.472819751963115e-10
  outer loop
    vertex 137.50278102218883 -2.394069569055366 -5.862976997871883e-08
    vertex 136.06937087961694 -2.3216147244172123 9.999999921293599
    vertex 136.06937088355667 -2.321614731097439 -5.924289807052117e-08
  endloop
endfacet
facet normal -0.05048272739481153 -0.9987249342210204 6.472819751963115e-10
  outer loop
    vertex 136.06937087961694 -2.3216147244172123 9.999999921293599
    vertex 137.50278102218883 -2.394069569055366 -5.862976997871883e-08
    vertex 137.5027810182491 -2.39406956237514 9.999999921906733
  endloop
endfacet
endsolid wing_tube_holder2
