solid wing_tube_clips
facet normal 0.9914448613738093 0.13052619222006104 0.0
  outer loop
    vertex 39.39999999999997 15.99999999999997 1.6919798895287383e-14
    vertex 39.45451867793749 15.585889527835961 2.00000000000001
    vertex 39.45451867793749 15.585889527835961 1.6919798895287383e-14
  endloop
endfacet
facet normal 0.9914448613738093 0.13052619222006104 0.0
  outer loop
    vertex 39.45451867793749 15.585889527835961 2.00000000000001
    vertex 39.39999999999997 15.99999999999997 1.6919798895287383e-14
    vertex 39.39999999999997 15.99999999999997 2.00000000000001
  endloop
endfacet
facet normal 0.7933533402912227 0.6087614290087371 0.0
  outer loop
    vertex 39.61435935394484 15.199999999999973 1.6919798895287383e-14
    vertex 39.8686291501015 14.868629150101501 2.00000000000001
    vertex 39.8686291501015 14.868629150101501 1.6919798895287383e-14
  endloop
endfacet
facet normal 0.7933533402912227 0.6087614290087371 0.0
  outer loop
    vertex 39.8686291501015 14.868629150101501 2.00000000000001
    vertex 39.61435935394484 15.199999999999973 1.6919798895287383e-14
    vertex 39.61435935394484 15.199999999999973 2.00000000000001
  endloop
endfacet
facet normal 0.9238795325112976 0.3826834323650637 0.0
  outer loop
    vertex 39.45451867793749 15.585889527835961 1.6919798895287383e-14
    vertex 39.61435935394484 15.199999999999973 2.00000000000001
    vertex 39.61435935394484 15.199999999999973 1.6919798895287383e-14
  endloop
endfacet
facet normal 0.9238795325112976 0.3826834323650637 0.0
  outer loop
    vertex 39.61435935394484 15.199999999999973 2.00000000000001
    vertex 39.45451867793749 15.585889527835961 1.6919798895287383e-14
    vertex 39.45451867793749 15.585889527835961 2.00000000000001
  endloop
endfacet
facet normal -0.991444861373809 -0.1305261922200628 -0.0
  outer loop
    vertex 6.545481322062515 16.414110472164026 2.00000000000001
    vertex 6.600000000000033 15.99999999999997 1.6919798895287383e-14
    vertex 6.600000000000033 15.99999999999997 2.00000000000001
  endloop
endfacet
facet normal -0.991444861373809 -0.1305261922200628 -0.0
  outer loop
    vertex 6.600000000000033 15.99999999999997 1.6919798895287383e-14
    vertex 6.545481322062515 16.414110472164026 2.00000000000001
    vertex 6.545481322062515 16.414110472164026 1.6919798895287383e-14
  endloop
endfacet
facet normal 0.0 0.0 1.0
  outer loop
    vertex 9.023892744153272e-14 0.0 2.00000000000001
    vertex 3.454518677937557 15.585889527835961 2.00000000000001
    vertex 9.023892744153272e-14 31.999999999999986 2.00000000000001
  endloop
endfacet
facet normal 0.0 0.0 1.0
  outer loop
    vertex 3.454518677937557 15.585889527835961 2.00000000000001
    vertex 9.023892744153272e-14 0.0 2.00000000000001
    vertex 3.614359353944906 15.199999999999973 2.00000000000001
  endloop
endfacet
facet normal 0.0 0.0 1.0
  outer loop
    vertex 3.614359353944906 15.199999999999973 2.00000000000001
    vertex 9.023892744153272e-14 0.0 2.00000000000001
    vertex 9.999999999999982 0.0 2.00000000000001
  endloop
endfacet
facet normal 0.0 0.0 1.0
  outer loop
    vertex 9.023892744153272e-14 31.999999999999986 2.00000000000001
    vertex 3.454518677937557 15.585889527835961 2.00000000000001
    vertex 3.400000000000039 15.99999999999997 2.00000000000001
  endloop
endfacet
facet normal 0.0 0.0 1.0
  outer loop
    vertex 3.614359353944906 15.199999999999973 2.00000000000001
    vertex 9.999999999999982 0.0 2.00000000000001
    vertex 3.868629150101566 14.868629150101501 2.00000000000001
  endloop
endfacet
facet normal 0.0 0.0 1.0
  outer loop
    vertex 3.868629150101566 14.868629150101501 2.00000000000001
    vertex 9.999999999999982 0.0 2.00000000000001
    vertex 4.2000000000000375 14.614359353944886 2.00000000000001
  endloop
endfacet
facet normal 0.0 0.0 1.0
  outer loop
    vertex 4.2000000000000375 14.614359353944886 2.00000000000001
    vertex 9.999999999999982 0.0 2.00000000000001
    vertex 4.585889527835982 14.454518677937491 2.00000000000001
  endloop
endfacet
facet normal 0.0 0.0 1.0
  outer loop
    vertex 4.585889527835982 14.454518677937491 2.00000000000001
    vertex 9.999999999999982 0.0 2.00000000000001
    vertex 5.0000000000000355 14.399999999999974 2.00000000000001
  endloop
endfacet
facet normal 0.0 0.0 1.0
  outer loop
    vertex 5.0000000000000355 14.399999999999974 2.00000000000001
    vertex 9.999999999999982 0.0 2.00000000000001
    vertex 5.41411047216409 14.454518677937491 2.00000000000001
  endloop
endfacet
facet normal 0.0 0.0 1.0
  outer loop
    vertex 5.41411047216409 14.454518677937491 2.00000000000001
    vertex 9.999999999999982 0.0 2.00000000000001
    vertex 5.8000000000000345 14.614359353944886 2.00000000000001
  endloop
endfacet
facet normal 0.0 0.0 1.0
  outer loop
    vertex 5.8000000000000345 14.614359353944886 2.00000000000001
    vertex 9.999999999999982 0.0 2.00000000000001
    vertex 6.131370849898506 14.868629150101501 2.00000000000001
  endloop
endfacet
facet normal 0.0 0.0 1.0
  outer loop
    vertex 6.131370849898506 14.868629150101501 2.00000000000001
    vertex 9.999999999999982 0.0 2.00000000000001
    vertex 6.385640646055165 15.199999999999973 2.00000000000001
  endloop
endfacet
facet normal 0.0 0.0 1.0
  outer loop
    vertex 6.385640646055165 15.199999999999973 2.00000000000001
    vertex 9.999999999999982 0.0 2.00000000000001
    vertex 6.545481322062515 15.585889527835961 2.00000000000001
  endloop
endfacet
facet normal 0.0 0.0 1.0
  outer loop
    vertex 6.545481322062515 15.585889527835961 2.00000000000001
    vertex 9.999999999999982 0.0 2.00000000000001
    vertex 6.600000000000033 15.99999999999997 2.00000000000001
  endloop
endfacet
facet normal 0.0 0.0 1.0
  outer loop
    vertex 9.023892744153272e-14 31.999999999999986 2.00000000000001
    vertex 3.614359353944906 16.79999999999997 2.00000000000001
    vertex 9.999999999999982 31.999999999999986 2.00000000000001
  endloop
endfacet
facet normal 0.0 0.0 1.0
  outer loop
    vertex 3.614359353944906 16.79999999999997 2.00000000000001
    vertex 9.023892744153272e-14 31.999999999999986 2.00000000000001
    vertex 3.454518677937557 16.414110472164026 2.00000000000001
  endloop
endfacet
facet normal 0.0 0.0 1.0
  outer loop
    vertex 3.454518677937557 16.414110472164026 2.00000000000001
    vertex 9.023892744153272e-14 31.999999999999986 2.00000000000001
    vertex 3.400000000000039 15.99999999999997 2.00000000000001
  endloop
endfacet
facet normal 0.0 0.0 1.0
  outer loop
    vertex 9.999999999999982 31.999999999999986 2.00000000000001
    vertex 3.614359353944906 16.79999999999997 2.00000000000001
    vertex 3.868629150101566 17.131370849898442 2.00000000000001
  endloop
endfacet
facet normal 0.0 0.0 1.0
  outer loop
    vertex 9.999999999999982 31.999999999999986 2.00000000000001
    vertex 3.868629150101566 17.131370849898442 2.00000000000001
    vertex 4.2000000000000375 17.3856406460551 2.00000000000001
  endloop
endfacet
facet normal 0.0 0.0 1.0
  outer loop
    vertex 9.999999999999982 31.999999999999986 2.00000000000001
    vertex 4.2000000000000375 17.3856406460551 2.00000000000001
    vertex 4.585889527835982 17.545481322062496 2.00000000000001
  endloop
endfacet
facet normal 0.0 0.0 1.0
  outer loop
    vertex 9.999999999999982 31.999999999999986 2.00000000000001
    vertex 4.585889527835982 17.545481322062496 2.00000000000001
    vertex 5.0000000000000355 17.59999999999997 2.00000000000001
  endloop
endfacet
facet normal 0.0 0.0 1.0
  outer loop
    vertex 9.999999999999982 31.999999999999986 2.00000000000001
    vertex 5.0000000000000355 17.59999999999997 2.00000000000001
    vertex 5.41411047216409 17.545481322062496 2.00000000000001
  endloop
endfacet
facet normal 0.0 0.0 1.0
  outer loop
    vertex 9.999999999999982 31.999999999999986 2.00000000000001
    vertex 5.41411047216409 17.545481322062496 2.00000000000001
    vertex 5.8000000000000345 17.3856406460551 2.00000000000001
  endloop
endfacet
facet normal 0.0 0.0 1.0
  outer loop
    vertex 9.999999999999982 31.999999999999986 2.00000000000001
    vertex 5.8000000000000345 17.3856406460551 2.00000000000001
    vertex 6.131370849898506 17.131370849898442 2.00000000000001
  endloop
endfacet
facet normal 0.0 0.0 1.0
  outer loop
    vertex 9.999999999999982 31.999999999999986 2.00000000000001
    vertex 6.131370849898506 17.131370849898442 2.00000000000001
    vertex 6.385640646055165 16.79999999999997 2.00000000000001
  endloop
endfacet
facet normal 0.0 0.0 1.0
  outer loop
    vertex 9.999999999999982 31.999999999999986 2.00000000000001
    vertex 6.385640646055165 16.79999999999997 2.00000000000001
    vertex 6.545481322062515 16.414110472164026 2.00000000000001
  endloop
endfacet
facet normal 0.0 0.0 1.0
  outer loop
    vertex 9.999999999999982 31.999999999999986 2.00000000000001
    vertex 6.545481322062515 16.414110472164026 2.00000000000001
    vertex 6.600000000000033 15.99999999999997 2.00000000000001
  endloop
endfacet
facet normal 0.0 0.0 1.0
  outer loop
    vertex 9.999999999999982 31.999999999999986 2.00000000000001
    vertex 6.600000000000033 15.99999999999997 2.00000000000001
    vertex 9.999999999999982 0.0 2.00000000000001
  endloop
endfacet
facet normal 0.0 0.0 1.0
  outer loop
    vertex 9.999999999999982 31.999999999999986 2.00000000000001
    vertex 9.999999999999982 0.0 2.00000000000001
    vertex 14.056449999999986 0.0 2.00000000000001
  endloop
endfacet
facet normal 0.0 0.0 1.0
  outer loop
    vertex 9.999999999999982 31.999999999999986 2.00000000000001
    vertex 14.056449999999986 0.0 2.00000000000001
    vertex 14.056449999999986 31.999999999999986 2.00000000000001
  endloop
endfacet
facet normal 0.0 1.0 0.0
  outer loop
    vertex 9.023892744153272e-14 31.999999999999986 2.00000000000001
    vertex 9.999999999999982 31.999999999999986 5.639932965095795e-15
    vertex 0.0 31.999999999999986 5.639932965095795e-15
  endloop
endfacet
facet normal 0.0 1.0 0.0
  outer loop
    vertex 9.999999999999982 31.999999999999986 5.639932965095795e-15
    vertex 9.023892744153272e-14 31.999999999999986 2.00000000000001
    vertex 9.999999999999982 31.999999999999986 2.00000000000001
  endloop
endfacet
facet normal -0.13052619222004952 -0.9914448613738108 -0.0
  outer loop
    vertex 5.41411047216409 17.545481322062496 2.00000000000001
    vertex 5.0000000000000355 17.59999999999997 1.6919798895287383e-14
    vertex 5.41411047216409 17.545481322062496 1.6919798895287383e-14
  endloop
endfacet
facet normal -0.13052619222004952 -0.9914448613738108 -0.0
  outer loop
    vertex 5.0000000000000355 17.59999999999997 1.6919798895287383e-14
    vertex 5.41411047216409 17.545481322062496 2.00000000000001
    vertex 5.0000000000000355 17.59999999999997 2.00000000000001
  endloop
endfacet
facet normal 0.6087614290087265 0.7933533402912306 0.0
  outer loop
    vertex 3.868629150101566 14.868629150101501 2.00000000000001
    vertex 4.2000000000000375 14.614359353944886 1.6919798895287383e-14
    vertex 3.868629150101566 14.868629150101501 1.6919798895287383e-14
  endloop
endfacet
facet normal 0.6087614290087265 0.7933533402912306 0.0
  outer loop
    vertex 4.2000000000000375 14.614359353944886 1.6919798895287383e-14
    vertex 3.868629150101566 14.868629150101501 2.00000000000001
    vertex 4.2000000000000375 14.614359353944886 2.00000000000001
  endloop
endfacet
facet normal 0.991444861373809 0.1305261922200628 0.0
  outer loop
    vertex 3.400000000000039 15.99999999999997 1.6919798895287383e-14
    vertex 3.454518677937557 15.585889527835961 2.00000000000001
    vertex 3.454518677937557 15.585889527835961 1.6919798895287383e-14
  endloop
endfacet
facet normal 0.991444861373809 0.1305261922200628 0.0
  outer loop
    vertex 3.454518677937557 15.585889527835961 2.00000000000001
    vertex 3.400000000000039 15.99999999999997 1.6919798895287383e-14
    vertex 3.400000000000039 15.99999999999997 2.00000000000001
  endloop
endfacet
facet normal -0.7933533402912227 -0.6087614290087371 -0.0
  outer loop
    vertex 6.131370849898506 17.131370849898442 2.00000000000001
    vertex 6.385640646055165 16.79999999999997 1.6919798895287383e-14
    vertex 6.385640646055165 16.79999999999997 2.00000000000001
  endloop
endfacet
facet normal -0.7933533402912227 -0.6087614290087371 -0.0
  outer loop
    vertex 6.385640646055165 16.79999999999997 1.6919798895287383e-14
    vertex 6.131370849898506 17.131370849898442 2.00000000000001
    vertex 6.131370849898506 17.131370849898442 1.6919798895287383e-14
  endloop
endfacet
facet normal -0.6087614290087265 -0.7933533402912306 -0.0
  outer loop
    vertex 6.131370849898506 17.131370849898442 2.00000000000001
    vertex 5.8000000000000345 17.3856406460551 1.6919798895287383e-14
    vertex 6.131370849898506 17.131370849898442 1.6919798895287383e-14
  endloop
endfacet
facet normal -0.6087614290087265 -0.7933533402912306 -0.0
  outer loop
    vertex 5.8000000000000345 17.3856406460551 1.6919798895287383e-14
    vertex 6.131370849898506 17.131370849898442 2.00000000000001
    vertex 5.8000000000000345 17.3856406460551 2.00000000000001
  endloop
endfacet
facet normal -0.9238795325112976 -0.3826834323650637 -0.0
  outer loop
    vertex 6.385640646055165 16.79999999999997 2.00000000000001
    vertex 6.545481322062515 16.414110472164026 1.6919798895287383e-14
    vertex 6.545481322062515 16.414110472164026 2.00000000000001
  endloop
endfacet
facet normal -0.9238795325112976 -0.3826834323650637 -0.0
  outer loop
    vertex 6.545481322062515 16.414110472164026 1.6919798895287383e-14
    vertex 6.385640646055165 16.79999999999997 2.00000000000001
    vertex 6.385640646055165 16.79999999999997 1.6919798895287383e-14
  endloop
endfacet
facet normal -0.3826834323650867 0.9238795325112881 0.0
  outer loop
    vertex 5.41411047216409 14.454518677937491 2.00000000000001
    vertex 5.8000000000000345 14.614359353944886 1.6919798895287383e-14
    vertex 5.41411047216409 14.454518677937491 1.6919798895287383e-14
  endloop
endfacet
facet normal -0.3826834323650867 0.9238795325112881 0.0
  outer loop
    vertex 5.8000000000000345 14.614359353944886 1.6919798895287383e-14
    vertex 5.41411047216409 14.454518677937491 2.00000000000001
    vertex 5.8000000000000345 14.614359353944886 2.00000000000001
  endloop
endfacet
facet normal 0.7933533402912227 -0.6087614290087371 0.0
  outer loop
    vertex 39.8686291501015 17.131370849898442 1.6919798895287383e-14
    vertex 39.61435935394484 16.79999999999997 2.00000000000001
    vertex 39.61435935394484 16.79999999999997 1.6919798895287383e-14
  endloop
endfacet
facet normal 0.7933533402912227 -0.6087614290087371 0.0
  outer loop
    vertex 39.61435935394484 16.79999999999997 2.00000000000001
    vertex 39.8686291501015 17.131370849898442 1.6919798895287383e-14
    vertex 39.8686291501015 17.131370849898442 2.00000000000001
  endloop
endfacet
facet normal 0.991444861373809 -0.1305261922200628 0.0
  outer loop
    vertex 39.45451867793749 16.414110472164026 1.6919798895287383e-14
    vertex 39.39999999999997 15.99999999999997 2.00000000000001
    vertex 39.39999999999997 15.99999999999997 1.6919798895287383e-14
  endloop
endfacet
facet normal 0.991444861373809 -0.1305261922200628 0.0
  outer loop
    vertex 39.39999999999997 15.99999999999997 2.00000000000001
    vertex 39.45451867793749 16.414110472164026 1.6919798895287383e-14
    vertex 39.45451867793749 16.414110472164026 2.00000000000001
  endloop
endfacet
facet normal 0.9238795325112976 -0.3826834323650637 0.0
  outer loop
    vertex 39.61435935394484 16.79999999999997 1.6919798895287383e-14
    vertex 39.45451867793749 16.414110472164026 2.00000000000001
    vertex 39.45451867793749 16.414110472164026 1.6919798895287383e-14
  endloop
endfacet
facet normal 0.9238795325112976 -0.3826834323650637 0.0
  outer loop
    vertex 39.45451867793749 16.414110472164026 2.00000000000001
    vertex 39.61435935394484 16.79999999999997 1.6919798895287383e-14
    vertex 39.61435935394484 16.79999999999997 2.00000000000001
  endloop
endfacet
facet normal 0.13052619222004952 -0.9914448613738108 0.0
  outer loop
    vertex 40.99999999999997 17.59999999999997 2.00000000000001
    vertex 40.58588952783592 17.545481322062496 1.6919798895287383e-14
    vertex 40.99999999999997 17.59999999999997 1.6919798895287383e-14
  endloop
endfacet
facet normal 0.13052619222004952 -0.9914448613738108 0.0
  outer loop
    vertex 40.58588952783592 17.545481322062496 1.6919798895287383e-14
    vertex 40.99999999999997 17.59999999999997 2.00000000000001
    vertex 40.58588952783592 17.545481322062496 2.00000000000001
  endloop
endfacet
facet normal 0.0 0.0 1.0
  outer loop
    vertex 35.99999999999998 0.0 2.00000000000001
    vertex 32.492543 31.999999999999986 2.00000000000001
    vertex 32.492543 0.0 2.00000000000001
  endloop
endfacet
facet normal 0.0 0.0 1.0
  outer loop
    vertex 32.492543 31.999999999999986 2.00000000000001
    vertex 35.99999999999998 0.0 2.00000000000001
    vertex 35.99999999999998 31.999999999999986 2.00000000000001
  endloop
endfacet
facet normal 0.0 0.0 1.0
  outer loop
    vertex 35.99999999999998 31.999999999999986 2.00000000000001
    vertex 35.99999999999998 0.0 2.00000000000001
    vertex 39.45451867793749 15.585889527835961 2.00000000000001
  endloop
endfacet
facet normal 0.0 0.0 1.0
  outer loop
    vertex 39.45451867793749 15.585889527835961 2.00000000000001
    vertex 35.99999999999998 0.0 2.00000000000001
    vertex 39.61435935394484 15.199999999999973 2.00000000000001
  endloop
endfacet
facet normal 0.0 0.0 1.0
  outer loop
    vertex 39.61435935394484 15.199999999999973 2.00000000000001
    vertex 35.99999999999998 0.0 2.00000000000001
    vertex 45.99999999999996 0.0 2.00000000000001
  endloop
endfacet
facet normal 0.0 0.0 1.0
  outer loop
    vertex 35.99999999999998 31.999999999999986 2.00000000000001
    vertex 39.45451867793749 15.585889527835961 2.00000000000001
    vertex 39.39999999999997 15.99999999999997 2.00000000000001
  endloop
endfacet
facet normal 0.0 0.0 1.0
  outer loop
    vertex 39.61435935394484 15.199999999999973 2.00000000000001
    vertex 45.99999999999996 0.0 2.00000000000001
    vertex 39.8686291501015 14.868629150101501 2.00000000000001
  endloop
endfacet
facet normal 0.0 0.0 1.0
  outer loop
    vertex 39.8686291501015 14.868629150101501 2.00000000000001
    vertex 45.99999999999996 0.0 2.00000000000001
    vertex 40.199999999999974 14.614359353944886 2.00000000000001
  endloop
endfacet
facet normal 0.0 0.0 1.0
  outer loop
    vertex 40.199999999999974 14.614359353944886 2.00000000000001
    vertex 45.99999999999996 0.0 2.00000000000001
    vertex 40.58588952783592 14.454518677937468 2.00000000000001
  endloop
endfacet
facet normal 0.0 0.0 1.0
  outer loop
    vertex 40.58588952783592 14.454518677937468 2.00000000000001
    vertex 45.99999999999996 0.0 2.00000000000001
    vertex 40.99999999999997 14.399999999999974 2.00000000000001
  endloop
endfacet
facet normal 0.0 0.0 1.0
  outer loop
    vertex 40.99999999999997 14.399999999999974 2.00000000000001
    vertex 45.99999999999996 0.0 2.00000000000001
    vertex 41.414110472164026 14.454518677937468 2.00000000000001
  endloop
endfacet
facet normal 0.0 0.0 1.0
  outer loop
    vertex 41.414110472164026 14.454518677937468 2.00000000000001
    vertex 45.99999999999996 0.0 2.00000000000001
    vertex 41.79999999999997 14.614359353944886 2.00000000000001
  endloop
endfacet
facet normal 0.0 0.0 1.0
  outer loop
    vertex 41.79999999999997 14.614359353944886 2.00000000000001
    vertex 45.99999999999996 0.0 2.00000000000001
    vertex 42.13137084989844 14.868629150101501 2.00000000000001
  endloop
endfacet
facet normal 0.0 0.0 1.0
  outer loop
    vertex 42.13137084989844 14.868629150101501 2.00000000000001
    vertex 45.99999999999996 0.0 2.00000000000001
    vertex 42.3856406460551 15.199999999999973 2.00000000000001
  endloop
endfacet
facet normal 0.0 0.0 1.0
  outer loop
    vertex 42.3856406460551 15.199999999999973 2.00000000000001
    vertex 45.99999999999996 0.0 2.00000000000001
    vertex 42.54548132206245 15.585889527835961 2.00000000000001
  endloop
endfacet
facet normal 0.0 0.0 1.0
  outer loop
    vertex 42.54548132206245 15.585889527835961 2.00000000000001
    vertex 45.99999999999996 0.0 2.00000000000001
    vertex 42.599999999999966 15.99999999999997 2.00000000000001
  endloop
endfacet
facet normal 0.0 0.0 1.0
  outer loop
    vertex 35.99999999999998 31.999999999999986 2.00000000000001
    vertex 39.61435935394484 16.79999999999997 2.00000000000001
    vertex 45.99999999999996 31.999999999999986 2.00000000000001
  endloop
endfacet
facet normal 0.0 0.0 1.0
  outer loop
    vertex 39.61435935394484 16.79999999999997 2.00000000000001
    vertex 35.99999999999998 31.999999999999986 2.00000000000001
    vertex 39.45451867793749 16.414110472164026 2.00000000000001
  endloop
endfacet
facet normal 0.0 0.0 1.0
  outer loop
    vertex 39.45451867793749 16.414110472164026 2.00000000000001
    vertex 35.99999999999998 31.999999999999986 2.00000000000001
    vertex 39.39999999999997 15.99999999999997 2.00000000000001
  endloop
endfacet
facet normal 0.0 0.0 1.0
  outer loop
    vertex 45.99999999999996 31.999999999999986 2.00000000000001
    vertex 39.61435935394484 16.79999999999997 2.00000000000001
    vertex 39.8686291501015 17.131370849898442 2.00000000000001
  endloop
endfacet
facet normal 0.0 0.0 1.0
  outer loop
    vertex 45.99999999999996 31.999999999999986 2.00000000000001
    vertex 39.8686291501015 17.131370849898442 2.00000000000001
    vertex 40.199999999999974 17.3856406460551 2.00000000000001
  endloop
endfacet
facet normal 0.0 0.0 1.0
  outer loop
    vertex 45.99999999999996 31.999999999999986 2.00000000000001
    vertex 40.199999999999974 17.3856406460551 2.00000000000001
    vertex 40.58588952783592 17.545481322062496 2.00000000000001
  endloop
endfacet
facet normal 0.0 0.0 1.0
  outer loop
    vertex 45.99999999999996 31.999999999999986 2.00000000000001
    vertex 40.58588952783592 17.545481322062496 2.00000000000001
    vertex 40.99999999999997 17.59999999999997 2.00000000000001
  endloop
endfacet
facet normal 0.0 0.0 1.0
  outer loop
    vertex 45.99999999999996 31.999999999999986 2.00000000000001
    vertex 40.99999999999997 17.59999999999997 2.00000000000001
    vertex 41.414110472164026 17.545481322062496 2.00000000000001
  endloop
endfacet
facet normal 0.0 0.0 1.0
  outer loop
    vertex 45.99999999999996 31.999999999999986 2.00000000000001
    vertex 41.414110472164026 17.545481322062496 2.00000000000001
    vertex 41.79999999999997 17.3856406460551 2.00000000000001
  endloop
endfacet
facet normal 0.0 0.0 1.0
  outer loop
    vertex 45.99999999999996 31.999999999999986 2.00000000000001
    vertex 41.79999999999997 17.3856406460551 2.00000000000001
    vertex 42.13137084989844 17.131370849898442 2.00000000000001
  endloop
endfacet
facet normal 0.0 0.0 1.0
  outer loop
    vertex 45.99999999999996 31.999999999999986 2.00000000000001
    vertex 42.13137084989844 17.131370849898442 2.00000000000001
    vertex 42.3856406460551 16.79999999999997 2.00000000000001
  endloop
endfacet
facet normal 0.0 0.0 1.0
  outer loop
    vertex 45.99999999999996 31.999999999999986 2.00000000000001
    vertex 42.3856406460551 16.79999999999997 2.00000000000001
    vertex 42.54548132206245 16.414110472164026 2.00000000000001
  endloop
endfacet
facet normal 0.0 0.0 1.0
  outer loop
    vertex 45.99999999999996 31.999999999999986 2.00000000000001
    vertex 42.54548132206245 16.414110472164026 2.00000000000001
    vertex 42.599999999999966 15.99999999999997 2.00000000000001
  endloop
endfacet
facet normal 0.0 0.0 1.0
  outer loop
    vertex 45.99999999999996 31.999999999999986 2.00000000000001
    vertex 42.599999999999966 15.99999999999997 2.00000000000001
    vertex 45.99999999999996 0.0 2.00000000000001
  endloop
endfacet
facet normal 0.3826834323650867 0.9238795325112881 0.0
  outer loop
    vertex 4.2000000000000375 14.614359353944886 2.00000000000001
    vertex 4.585889527835982 14.454518677937491 1.6919798895287383e-14
    vertex 4.2000000000000375 14.614359353944886 1.6919798895287383e-14
  endloop
endfacet
facet normal 0.3826834323650867 0.9238795325112881 0.0
  outer loop
    vertex 4.585889527835982 14.454518677937491 1.6919798895287383e-14
    vertex 4.2000000000000375 14.614359353944886 2.00000000000001
    vertex 4.585889527835982 14.454518677937491 2.00000000000001
  endloop
endfacet
facet normal 0.991444861373809 -0.1305261922200628 0.0
  outer loop
    vertex 3.454518677937557 16.414110472164026 1.6919798895287383e-14
    vertex 3.400000000000039 15.99999999999997 2.00000000000001
    vertex 3.400000000000039 15.99999999999997 1.6919798895287383e-14
  endloop
endfacet
facet normal 0.991444861373809 -0.1305261922200628 0.0
  outer loop
    vertex 3.400000000000039 15.99999999999997 2.00000000000001
    vertex 3.454518677937557 16.414110472164026 1.6919798895287383e-14
    vertex 3.454518677937557 16.414110472164026 2.00000000000001
  endloop
endfacet
facet normal 0.6087614290087265 -0.7933533402912306 0.0
  outer loop
    vertex 4.2000000000000375 17.3856406460551 2.00000000000001
    vertex 3.868629150101566 17.131370849898442 1.6919798895287383e-14
    vertex 4.2000000000000375 17.3856406460551 1.6919798895287383e-14
  endloop
endfacet
facet normal 0.6087614290087265 -0.7933533402912306 0.0
  outer loop
    vertex 3.868629150101566 17.131370849898442 1.6919798895287383e-14
    vertex 4.2000000000000375 17.3856406460551 2.00000000000001
    vertex 3.868629150101566 17.131370849898442 2.00000000000001
  endloop
endfacet
facet normal 0.6087614290087265 -0.7933533402912306 0.0
  outer loop
    vertex 40.199999999999974 17.3856406460551 2.00000000000001
    vertex 39.8686291501015 17.131370849898442 1.6919798895287383e-14
    vertex 40.199999999999974 17.3856406460551 1.6919798895287383e-14
  endloop
endfacet
facet normal 0.6087614290087265 -0.7933533402912306 0.0
  outer loop
    vertex 39.8686291501015 17.131370849898442 1.6919798895287383e-14
    vertex 40.199999999999974 17.3856406460551 2.00000000000001
    vertex 39.8686291501015 17.131370849898442 2.00000000000001
  endloop
endfacet
facet normal -0.9238795325112976 0.3826834323650637 0.0
  outer loop
    vertex 6.545481322062515 15.585889527835961 2.00000000000001
    vertex 6.385640646055165 15.199999999999973 1.6919798895287383e-14
    vertex 6.385640646055165 15.199999999999973 2.00000000000001
  endloop
endfacet
facet normal -0.9238795325112976 0.3826834323650637 0.0
  outer loop
    vertex 6.385640646055165 15.199999999999973 1.6919798895287383e-14
    vertex 6.545481322062515 15.585889527835961 2.00000000000001
    vertex 6.545481322062515 15.585889527835961 1.6919798895287383e-14
  endloop
endfacet
facet normal 0.38268343236509816 -0.9238795325112832 0.0
  outer loop
    vertex 40.58588952783592 17.545481322062496 2.00000000000001
    vertex 40.199999999999974 17.3856406460551 1.6919798895287383e-14
    vertex 40.58588952783592 17.545481322062496 1.6919798895287383e-14
  endloop
endfacet
facet normal 0.38268343236509816 -0.9238795325112832 0.0
  outer loop
    vertex 40.199999999999974 17.3856406460551 1.6919798895287383e-14
    vertex 40.58588952783592 17.545481322062496 2.00000000000001
    vertex 40.199999999999974 17.3856406460551 2.00000000000001
  endloop
endfacet
facet normal 0.0 -1.0 0.0
  outer loop
    vertex 9.999999999999982 0.0 2.00000000000001
    vertex 0.0 0.0 5.639932965095795e-15
    vertex 9.999999999999982 0.0 5.639932965095795e-15
  endloop
endfacet
facet normal 0.0 -1.0 0.0
  outer loop
    vertex 0.0 0.0 5.639932965095795e-15
    vertex 9.999999999999982 0.0 2.00000000000001
    vertex 9.023892744153272e-14 0.0 2.00000000000001
  endloop
endfacet
facet normal -1.0 1.4015605235591124e-45 2.2559731860383176e-14
  outer loop
    vertex 9.023892744153272e-14 31.999999999999986 2.00000000000001
    vertex 0.0 0.0 5.639932965095795e-15
    vertex 9.023892744153272e-14 0.0 2.00000000000001
  endloop
endfacet
facet normal -1.0 1.4015605235591124e-45 2.2559731860383176e-14
  outer loop
    vertex 0.0 0.0 5.639932965095795e-15
    vertex 9.023892744153272e-14 31.999999999999986 2.00000000000001
    vertex 0.0 31.999999999999986 5.639932965095795e-15
  endloop
endfacet
facet normal -0.6087614290087265 0.7933533402912306 0.0
  outer loop
    vertex 41.79999999999997 14.614359353944886 2.00000000000001
    vertex 42.13137084989844 14.868629150101501 1.6919798895287383e-14
    vertex 41.79999999999997 14.614359353944886 1.6919798895287383e-14
  endloop
endfacet
facet normal -0.6087614290087265 0.7933533402912306 0.0
  outer loop
    vertex 42.13137084989844 14.868629150101501 1.6919798895287383e-14
    vertex 41.79999999999997 14.614359353944886 2.00000000000001
    vertex 42.13137084989844 14.868629150101501 2.00000000000001
  endloop
endfacet
facet normal -0.7933533402912227 0.6087614290087371 0.0
  outer loop
    vertex 42.3856406460551 15.199999999999973 2.00000000000001
    vertex 42.13137084989844 14.868629150101501 1.6919798895287383e-14
    vertex 42.13137084989844 14.868629150101501 2.00000000000001
  endloop
endfacet
facet normal -0.7933533402912227 0.6087614290087371 0.0
  outer loop
    vertex 42.13137084989844 14.868629150101501 1.6919798895287383e-14
    vertex 42.3856406460551 15.199999999999973 2.00000000000001
    vertex 42.3856406460551 15.199999999999973 1.6919798895287383e-14
  endloop
endfacet
facet normal -0.9238795325112976 0.3826834323650637 0.0
  outer loop
    vertex 42.54548132206245 15.585889527835961 2.00000000000001
    vertex 42.3856406460551 15.199999999999973 1.6919798895287383e-14
    vertex 42.3856406460551 15.199999999999973 2.00000000000001
  endloop
endfacet
facet normal -0.9238795325112976 0.3826834323650637 0.0
  outer loop
    vertex 42.3856406460551 15.199999999999973 1.6919798895287383e-14
    vertex 42.54548132206245 15.585889527835961 2.00000000000001
    vertex 42.54548132206245 15.585889527835961 1.6919798895287383e-14
  endloop
endfacet
facet normal -0.991444861373809 0.1305261922200628 0.0
  outer loop
    vertex 42.599999999999966 15.99999999999997 2.00000000000001
    vertex 42.54548132206245 15.585889527835961 1.6919798895287383e-14
    vertex 42.54548132206245 15.585889527835961 2.00000000000001
  endloop
endfacet
facet normal -0.991444861373809 0.1305261922200628 0.0
  outer loop
    vertex 42.54548132206245 15.585889527835961 1.6919798895287383e-14
    vertex 42.599999999999966 15.99999999999997 2.00000000000001
    vertex 42.599999999999966 15.99999999999997 1.6919798895287383e-14
  endloop
endfacet
facet normal -0.991444861373809 -0.1305261922200628 -0.0
  outer loop
    vertex 42.54548132206245 16.414110472164026 2.00000000000001
    vertex 42.599999999999966 15.99999999999997 1.6919798895287383e-14
    vertex 42.599999999999966 15.99999999999997 2.00000000000001
  endloop
endfacet
facet normal -0.991444861373809 -0.1305261922200628 -0.0
  outer loop
    vertex 42.599999999999966 15.99999999999997 1.6919798895287383e-14
    vertex 42.54548132206245 16.414110472164026 2.00000000000001
    vertex 42.54548132206245 16.414110472164026 1.6919798895287383e-14
  endloop
endfacet
facet normal -0.38268343236509816 0.9238795325112832 0.0
  outer loop
    vertex 41.414110472164026 14.454518677937468 2.00000000000001
    vertex 41.79999999999997 14.614359353944886 1.6919798895287383e-14
    vertex 41.414110472164026 14.454518677937468 1.6919798895287383e-14
  endloop
endfacet
facet normal -0.38268343236509816 0.9238795325112832 0.0
  outer loop
    vertex 41.79999999999997 14.614359353944886 1.6919798895287383e-14
    vertex 41.414110472164026 14.454518677937468 2.00000000000001
    vertex 41.79999999999997 14.614359353944886 2.00000000000001
  endloop
endfacet
facet normal -0.7933533402912227 0.6087614290087371 0.0
  outer loop
    vertex 6.385640646055165 15.199999999999973 2.00000000000001
    vertex 6.131370849898506 14.868629150101501 1.6919798895287383e-14
    vertex 6.131370849898506 14.868629150101501 2.00000000000001
  endloop
endfacet
facet normal -0.7933533402912227 0.6087614290087371 0.0
  outer loop
    vertex 6.131370849898506 14.868629150101501 1.6919798895287383e-14
    vertex 6.385640646055165 15.199999999999973 2.00000000000001
    vertex 6.385640646055165 15.199999999999973 1.6919798895287383e-14
  endloop
endfacet
facet normal -0.6087614290087265 0.7933533402912306 0.0
  outer loop
    vertex 5.8000000000000345 14.614359353944886 2.00000000000001
    vertex 6.131370849898506 14.868629150101501 1.6919798895287383e-14
    vertex 5.8000000000000345 14.614359353944886 1.6919798895287383e-14
  endloop
endfacet
facet normal -0.6087614290087265 0.7933533402912306 0.0
  outer loop
    vertex 6.131370849898506 14.868629150101501 1.6919798895287383e-14
    vertex 5.8000000000000345 14.614359353944886 2.00000000000001
    vertex 6.131370849898506 14.868629150101501 2.00000000000001
  endloop
endfacet
facet normal -0.13052619222004952 0.9914448613738108 0.0
  outer loop
    vertex 5.0000000000000355 14.399999999999974 2.00000000000001
    vertex 5.41411047216409 14.454518677937491 1.6919798895287383e-14
    vertex 5.0000000000000355 14.399999999999974 1.6919798895287383e-14
  endloop
endfacet
facet normal -0.13052619222004952 0.9914448613738108 0.0
  outer loop
    vertex 5.41411047216409 14.454518677937491 1.6919798895287383e-14
    vertex 5.0000000000000355 14.399999999999974 2.00000000000001
    vertex 5.41411047216409 14.454518677937491 2.00000000000001
  endloop
endfacet
facet normal 0.13052619222004952 -0.9914448613738108 0.0
  outer loop
    vertex 5.0000000000000355 17.59999999999997 2.00000000000001
    vertex 4.585889527835982 17.545481322062496 1.6919798895287383e-14
    vertex 5.0000000000000355 17.59999999999997 1.6919798895287383e-14
  endloop
endfacet
facet normal 0.13052619222004952 -0.9914448613738108 0.0
  outer loop
    vertex 4.585889527835982 17.545481322062496 1.6919798895287383e-14
    vertex 5.0000000000000355 17.59999999999997 2.00000000000001
    vertex 4.585889527835982 17.545481322062496 2.00000000000001
  endloop
endfacet
facet normal 0.3826834323650867 -0.9238795325112881 0.0
  outer loop
    vertex 4.585889527835982 17.545481322062496 2.00000000000001
    vertex 4.2000000000000375 17.3856406460551 1.6919798895287383e-14
    vertex 4.585889527835982 17.545481322062496 1.6919798895287383e-14
  endloop
endfacet
facet normal 0.3826834323650867 -0.9238795325112881 0.0
  outer loop
    vertex 4.2000000000000375 17.3856406460551 1.6919798895287383e-14
    vertex 4.585889527835982 17.545481322062496 2.00000000000001
    vertex 4.2000000000000375 17.3856406460551 2.00000000000001
  endloop
endfacet
facet normal 0.9238795325112976 0.3826834323650637 0.0
  outer loop
    vertex 3.454518677937557 15.585889527835961 1.6919798895287383e-14
    vertex 3.614359353944906 15.199999999999973 2.00000000000001
    vertex 3.614359353944906 15.199999999999973 1.6919798895287383e-14
  endloop
endfacet
facet normal 0.9238795325112976 0.3826834323650637 0.0
  outer loop
    vertex 3.614359353944906 15.199999999999973 2.00000000000001
    vertex 3.454518677937557 15.585889527835961 1.6919798895287383e-14
    vertex 3.454518677937557 15.585889527835961 2.00000000000001
  endloop
endfacet
facet normal -0.3826834323650867 -0.9238795325112881 -0.0
  outer loop
    vertex 41.79999999999997 17.3856406460551 2.00000000000001
    vertex 41.414110472164026 17.545481322062496 1.6919798895287383e-14
    vertex 41.79999999999997 17.3856406460551 1.6919798895287383e-14
  endloop
endfacet
facet normal -0.3826834323650867 -0.9238795325112881 -0.0
  outer loop
    vertex 41.414110472164026 17.545481322062496 1.6919798895287383e-14
    vertex 41.79999999999997 17.3856406460551 2.00000000000001
    vertex 41.414110472164026 17.545481322062496 2.00000000000001
  endloop
endfacet
facet normal -0.9238795325112996 -0.38268343236505886 -0.0
  outer loop
    vertex 42.3856406460551 16.79999999999997 2.00000000000001
    vertex 42.54548132206245 16.414110472164026 1.6919798895287383e-14
    vertex 42.54548132206245 16.414110472164026 2.00000000000001
  endloop
endfacet
facet normal -0.9238795325112996 -0.38268343236505886 -0.0
  outer loop
    vertex 42.54548132206245 16.414110472164026 1.6919798895287383e-14
    vertex 42.3856406460551 16.79999999999997 2.00000000000001
    vertex 42.3856406460551 16.79999999999997 1.6919798895287383e-14
  endloop
endfacet
facet normal -0.13052619222004952 -0.9914448613738108 -0.0
  outer loop
    vertex 41.414110472164026 17.545481322062496 2.00000000000001
    vertex 40.99999999999997 17.59999999999997 1.6919798895287383e-14
    vertex 41.414110472164026 17.545481322062496 1.6919798895287383e-14
  endloop
endfacet
facet normal -0.13052619222004952 -0.9914448613738108 -0.0
  outer loop
    vertex 40.99999999999997 17.59999999999997 1.6919798895287383e-14
    vertex 41.414110472164026 17.545481322062496 2.00000000000001
    vertex 40.99999999999997 17.59999999999997 2.00000000000001
  endloop
endfacet
facet normal -0.6087614290087351 -0.7933533402912242 -0.0
  outer loop
    vertex 42.13137084989844 17.131370849898442 2.00000000000001
    vertex 41.79999999999997 17.3856406460551 1.6919798895287383e-14
    vertex 42.13137084989844 17.131370849898442 1.6919798895287383e-14
  endloop
endfacet
facet normal -0.6087614290087351 -0.7933533402912242 -0.0
  outer loop
    vertex 41.79999999999997 17.3856406460551 1.6919798895287383e-14
    vertex 42.13137084989844 17.131370849898442 2.00000000000001
    vertex 41.79999999999997 17.3856406460551 2.00000000000001
  endloop
endfacet
facet normal -0.7933533402912176 -0.6087614290087435 -0.0
  outer loop
    vertex 42.13137084989844 17.131370849898442 2.00000000000001
    vertex 42.3856406460551 16.79999999999997 1.6919798895287383e-14
    vertex 42.3856406460551 16.79999999999997 2.00000000000001
  endloop
endfacet
facet normal -0.7933533402912176 -0.6087614290087435 -0.0
  outer loop
    vertex 42.3856406460551 16.79999999999997 1.6919798895287383e-14
    vertex 42.13137084989844 17.131370849898442 2.00000000000001
    vertex 42.13137084989844 17.131370849898442 1.6919798895287383e-14
  endloop
endfacet
facet normal 0.7933533402912227 0.6087614290087371 0.0
  outer loop
    vertex 3.614359353944906 15.199999999999973 1.6919798895287383e-14
    vertex 3.868629150101566 14.868629150101501 2.00000000000001
    vertex 3.868629150101566 14.868629150101501 1.6919798895287383e-14
  endloop
endfacet
facet normal 0.7933533402912227 0.6087614290087371 0.0
  outer loop
    vertex 3.868629150101566 14.868629150101501 2.00000000000001
    vertex 3.614359353944906 15.199999999999973 1.6919798895287383e-14
    vertex 3.614359353944906 15.199999999999973 2.00000000000001
  endloop
endfacet
facet normal 0.9238795325112976 -0.3826834323650637 0.0
  outer loop
    vertex 3.614359353944906 16.79999999999997 1.6919798895287383e-14
    vertex 3.454518677937557 16.414110472164026 2.00000000000001
    vertex 3.454518677937557 16.414110472164026 1.6919798895287383e-14
  endloop
endfacet
facet normal 0.9238795325112976 -0.3826834323650637 0.0
  outer loop
    vertex 3.454518677937557 16.414110472164026 2.00000000000001
    vertex 3.614359353944906 16.79999999999997 1.6919798895287383e-14
    vertex 3.614359353944906 16.79999999999997 2.00000000000001
  endloop
endfacet
facet normal 0.13052619222004952 0.9914448613738108 0.0
  outer loop
    vertex 4.585889527835982 14.454518677937491 2.00000000000001
    vertex 5.0000000000000355 14.399999999999974 1.6919798895287383e-14
    vertex 4.585889527835982 14.454518677937491 1.6919798895287383e-14
  endloop
endfacet
facet normal 0.13052619222004952 0.9914448613738108 0.0
  outer loop
    vertex 5.0000000000000355 14.399999999999974 1.6919798895287383e-14
    vertex 4.585889527835982 14.454518677937491 2.00000000000001
    vertex 5.0000000000000355 14.399999999999974 2.00000000000001
  endloop
endfacet
facet normal -0.3826834323650867 -0.9238795325112881 -0.0
  outer loop
    vertex 5.8000000000000345 17.3856406460551 2.00000000000001
    vertex 5.41411047216409 17.545481322062496 1.6919798895287383e-14
    vertex 5.8000000000000345 17.3856406460551 1.6919798895287383e-14
  endloop
endfacet
facet normal -0.3826834323650867 -0.9238795325112881 -0.0
  outer loop
    vertex 5.41411047216409 17.545481322062496 1.6919798895287383e-14
    vertex 5.8000000000000345 17.3856406460551 2.00000000000001
    vertex 5.41411047216409 17.545481322062496 2.00000000000001
  endloop
endfacet
facet normal -0.991444861373809 0.1305261922200628 0.0
  outer loop
    vertex 6.600000000000033 15.99999999999997 2.00000000000001
    vertex 6.545481322062515 15.585889527835961 1.6919798895287383e-14
    vertex 6.545481322062515 15.585889527835961 2.00000000000001
  endloop
endfacet
facet normal -0.991444861373809 0.1305261922200628 0.0
  outer loop
    vertex 6.545481322062515 15.585889527835961 1.6919798895287383e-14
    vertex 6.600000000000033 15.99999999999997 2.00000000000001
    vertex 6.600000000000033 15.99999999999997 1.6919798895287383e-14
  endloop
endfacet
facet normal 0.7933533402912227 -0.6087614290087371 0.0
  outer loop
    vertex 3.868629150101566 17.131370849898442 1.6919798895287383e-14
    vertex 3.614359353944906 16.79999999999997 2.00000000000001
    vertex 3.614359353944906 16.79999999999997 1.6919798895287383e-14
  endloop
endfacet
facet normal 0.7933533402912227 -0.6087614290087371 0.0
  outer loop
    vertex 3.614359353944906 16.79999999999997 2.00000000000001
    vertex 3.868629150101566 17.131370849898442 1.6919798895287383e-14
    vertex 3.868629150101566 17.131370849898442 2.00000000000001
  endloop
endfacet
facet normal 0.0 1.0 0.0
  outer loop
    vertex 35.99999999999998 31.999999999999986 2.00000000000001
    vertex 45.99999999999996 31.999999999999986 5.639932965095795e-15
    vertex 35.99999999999998 31.999999999999986 5.639932965095795e-15
  endloop
endfacet
facet normal 0.0 1.0 0.0
  outer loop
    vertex 45.99999999999996 31.999999999999986 5.639932965095795e-15
    vertex 35.99999999999998 31.999999999999986 2.00000000000001
    vertex 45.99999999999996 31.999999999999986 2.00000000000001
  endloop
endfacet
facet normal 1.0 0.0 0.0
  outer loop
    vertex 45.99999999999996 31.999999999999986 5.639932965095795e-15
    vertex 45.99999999999996 0.0 2.00000000000001
    vertex 45.99999999999996 0.0 5.639932965095795e-15
  endloop
endfacet
facet normal 1.0 0.0 0.0
  outer loop
    vertex 45.99999999999996 0.0 2.00000000000001
    vertex 45.99999999999996 31.999999999999986 5.639932965095795e-15
    vertex 45.99999999999996 31.999999999999986 2.00000000000001
  endloop
endfacet
facet normal 0.0 -1.0 0.0
  outer loop
    vertex 45.99999999999996 0.0 2.00000000000001
    vertex 35.99999999999998 0.0 5.639932965095795e-15
    vertex 45.99999999999996 0.0 5.639932965095795e-15
  endloop
endfacet
facet normal 0.0 -1.0 0.0
  outer loop
    vertex 35.99999999999998 0.0 5.639932965095795e-15
    vertex 45.99999999999996 0.0 2.00000000000001
    vertex 35.99999999999998 0.0 2.00000000000001
  endloop
endfacet
facet normal 0.3826834323650867 0.9238795325112881 0.0
  outer loop
    vertex 40.199999999999974 14.614359353944886 2.00000000000001
    vertex 40.58588952783592 14.454518677937468 1.6919798895287383e-14
    vertex 40.199999999999974 14.614359353944886 1.6919798895287383e-14
  endloop
endfacet
facet normal 0.3826834323650867 0.9238795325112881 0.0
  outer loop
    vertex 40.58588952783592 14.454518677937468 1.6919798895287383e-14
    vertex 40.199999999999974 14.614359353944886 2.00000000000001
    vertex 40.58588952783592 14.454518677937468 2.00000000000001
  endloop
endfacet
facet normal 0.6087614290087265 0.7933533402912306 0.0
  outer loop
    vertex 39.8686291501015 14.868629150101501 2.00000000000001
    vertex 40.199999999999974 14.614359353944886 1.6919798895287383e-14
    vertex 39.8686291501015 14.868629150101501 1.6919798895287383e-14
  endloop
endfacet
facet normal 0.6087614290087265 0.7933533402912306 0.0
  outer loop
    vertex 40.199999999999974 14.614359353944886 1.6919798895287383e-14
    vertex 39.8686291501015 14.868629150101501 2.00000000000001
    vertex 40.199999999999974 14.614359353944886 2.00000000000001
  endloop
endfacet
facet normal 0.13052619222004952 0.9914448613738108 0.0
  outer loop
    vertex 40.58588952783592 14.454518677937468 2.00000000000001
    vertex 40.99999999999997 14.399999999999974 1.6919798895287383e-14
    vertex 40.58588952783592 14.454518677937468 1.6919798895287383e-14
  endloop
endfacet
facet normal 0.13052619222004952 0.9914448613738108 0.0
  outer loop
    vertex 40.99999999999997 14.399999999999974 1.6919798895287383e-14
    vertex 40.58588952783592 14.454518677937468 2.00000000000001
    vertex 40.99999999999997 14.399999999999974 2.00000000000001
  endloop
endfacet
facet normal -0.13052619222004952 0.9914448613738108 0.0
  outer loop
    vertex 40.99999999999997 14.399999999999974 2.00000000000001
    vertex 41.414110472164026 14.454518677937468 1.6919798895287383e-14
    vertex 40.99999999999997 14.399999999999974 1.6919798895287383e-14
  endloop
endfacet
facet normal -0.13052619222004952 0.9914448613738108 0.0
  outer loop
    vertex 41.414110472164026 14.454518677937468 1.6919798895287383e-14
    vertex 40.99999999999997 14.399999999999974 2.00000000000001
    vertex 41.414110472164026 14.454518677937468 2.00000000000001
  endloop
endfacet
facet normal 7.896496589608257e-17 7.390521261010323e-17 -1.0
  outer loop
    vertex 35.99999999999998 31.999999999999986 5.639932965095795e-15
    vertex 39.45451867793749 16.414110472164026 1.6919798895287383e-14
    vertex 35.99999999999998 0.0 5.639932965095795e-15
  endloop
endfacet
facet normal 7.896496589608257e-17 7.390521261010323e-17 -1.0
  outer loop
    vertex 39.45451867793749 16.414110472164026 1.6919798895287383e-14
    vertex 35.99999999999998 31.999999999999986 5.639932965095795e-15
    vertex 39.61435935394484 16.79999999999997 1.6919798895287383e-14
  endloop
endfacet
facet normal 7.896496589608257e-17 7.390521261010323e-17 -1.0
  outer loop
    vertex 39.61435935394484 16.79999999999997 1.6919798895287383e-14
    vertex 35.99999999999998 31.999999999999986 5.639932965095795e-15
    vertex 45.99999999999996 31.999999999999986 5.639932965095795e-15
  endloop
endfacet
facet normal 7.896496589608257e-17 7.390521261010323e-17 -1.0
  outer loop
    vertex 35.99999999999998 0.0 5.639932965095795e-15
    vertex 39.45451867793749 16.414110472164026 1.6919798895287383e-14
    vertex 39.39999999999997 15.99999999999997 1.6919798895287383e-14
  endloop
endfacet
facet normal 7.896496589608257e-17 7.390521261010323e-17 -1.0
  outer loop
    vertex 39.61435935394484 16.79999999999997 1.6919798895287383e-14
    vertex 45.99999999999996 31.999999999999986 5.639932965095795e-15
    vertex 39.8686291501015 17.131370849898442 1.6919798895287383e-14
  endloop
endfacet
facet normal 7.896496589608257e-17 7.390521261010323e-17 -1.0
  outer loop
    vertex 39.8686291501015 17.131370849898442 1.6919798895287383e-14
    vertex 45.99999999999996 31.999999999999986 5.639932965095795e-15
    vertex 40.199999999999974 17.3856406460551 1.6919798895287383e-14
  endloop
endfacet
facet normal 7.896496589608257e-17 7.390521261010323e-17 -1.0
  outer loop
    vertex 40.199999999999974 17.3856406460551 1.6919798895287383e-14
    vertex 45.99999999999996 31.999999999999986 5.639932965095795e-15
    vertex 40.58588952783592 17.545481322062496 1.6919798895287383e-14
  endloop
endfacet
facet normal 7.896496589608257e-17 7.390521261010323e-17 -1.0
  outer loop
    vertex 40.58588952783592 17.545481322062496 1.6919798895287383e-14
    vertex 45.99999999999996 31.999999999999986 5.639932965095795e-15
    vertex 40.99999999999997 17.59999999999997 1.6919798895287383e-14
  endloop
endfacet
facet normal 7.896496589608257e-17 7.390521261010323e-17 -1.0
  outer loop
    vertex 40.99999999999997 17.59999999999997 1.6919798895287383e-14
    vertex 45.99999999999996 31.999999999999986 5.639932965095795e-15
    vertex 41.414110472164026 17.545481322062496 1.6919798895287383e-14
  endloop
endfacet
facet normal 7.896496589608257e-17 7.390521261010323e-17 -1.0
  outer loop
    vertex 41.414110472164026 17.545481322062496 1.6919798895287383e-14
    vertex 45.99999999999996 31.999999999999986 5.639932965095795e-15
    vertex 41.79999999999997 17.3856406460551 1.6919798895287383e-14
  endloop
endfacet
facet normal 7.896496589608257e-17 7.390521261010323e-17 -1.0
  outer loop
    vertex 41.79999999999997 17.3856406460551 1.6919798895287383e-14
    vertex 45.99999999999996 31.999999999999986 5.639932965095795e-15
    vertex 42.13137084989844 17.131370849898442 1.6919798895287383e-14
  endloop
endfacet
facet normal 7.896496589608257e-17 7.390521261010323e-17 -1.0
  outer loop
    vertex 42.13137084989844 17.131370849898442 1.6919798895287383e-14
    vertex 45.99999999999996 31.999999999999986 5.639932965095795e-15
    vertex 42.3856406460551 16.79999999999997 1.6919798895287383e-14
  endloop
endfacet
facet normal 7.896496589608257e-17 7.390521261010323e-17 -1.0
  outer loop
    vertex 42.3856406460551 16.79999999999997 1.6919798895287383e-14
    vertex 45.99999999999996 31.999999999999986 5.639932965095795e-15
    vertex 42.54548132206245 16.414110472164026 1.6919798895287383e-14
  endloop
endfacet
facet normal 7.896496589608257e-17 7.390521261010323e-17 -1.0
  outer loop
    vertex 42.54548132206245 16.414110472164026 1.6919798895287383e-14
    vertex 45.99999999999996 31.999999999999986 5.639932965095795e-15
    vertex 42.599999999999966 15.99999999999997 1.6919798895287383e-14
  endloop
endfacet
facet normal 7.896496589608257e-17 7.390521261010323e-17 -1.0
  outer loop
    vertex 35.99999999999998 0.0 5.639932965095795e-15
    vertex 39.61435935394484 15.199999999999973 1.6919798895287383e-14
    vertex 45.99999999999996 0.0 5.639932965095795e-15
  endloop
endfacet
facet normal 7.896496589608257e-17 7.390521261010323e-17 -1.0
  outer loop
    vertex 39.61435935394484 15.199999999999973 1.6919798895287383e-14
    vertex 35.99999999999998 0.0 5.639932965095795e-15
    vertex 39.45451867793749 15.585889527835961 1.6919798895287383e-14
  endloop
endfacet
facet normal 7.896496589608257e-17 7.390521261010323e-17 -1.0
  outer loop
    vertex 39.45451867793749 15.585889527835961 1.6919798895287383e-14
    vertex 35.99999999999998 0.0 5.639932965095795e-15
    vertex 39.39999999999997 15.99999999999997 1.6919798895287383e-14
  endloop
endfacet
facet normal 7.896496589608257e-17 7.390521261010323e-17 -1.0
  outer loop
    vertex 45.99999999999996 0.0 5.639932965095795e-15
    vertex 39.61435935394484 15.199999999999973 1.6919798895287383e-14
    vertex 39.8686291501015 14.868629150101501 1.6919798895287383e-14
  endloop
endfacet
facet normal 7.896496589608257e-17 7.390521261010323e-17 -1.0
  outer loop
    vertex 45.99999999999996 0.0 5.639932965095795e-15
    vertex 39.8686291501015 14.868629150101501 1.6919798895287383e-14
    vertex 40.199999999999974 14.614359353944886 1.6919798895287383e-14
  endloop
endfacet
facet normal 7.896496589608257e-17 7.390521261010323e-17 -1.0
  outer loop
    vertex 45.99999999999996 0.0 5.639932965095795e-15
    vertex 40.199999999999974 14.614359353944886 1.6919798895287383e-14
    vertex 40.58588952783592 14.454518677937468 1.6919798895287383e-14
  endloop
endfacet
facet normal 7.896496589608257e-17 7.390521261010323e-17 -1.0
  outer loop
    vertex 45.99999999999996 0.0 5.639932965095795e-15
    vertex 40.58588952783592 14.454518677937468 1.6919798895287383e-14
    vertex 40.99999999999997 14.399999999999974 1.6919798895287383e-14
  endloop
endfacet
facet normal 7.896496589608257e-17 7.390521261010323e-17 -1.0
  outer loop
    vertex 45.99999999999996 0.0 5.639932965095795e-15
    vertex 40.99999999999997 14.399999999999974 1.6919798895287383e-14
    vertex 41.414110472164026 14.454518677937468 1.6919798895287383e-14
  endloop
endfacet
facet normal 7.896496589608257e-17 7.390521261010323e-17 -1.0
  outer loop
    vertex 45.99999999999996 0.0 5.639932965095795e-15
    vertex 41.414110472164026 14.454518677937468 1.6919798895287383e-14
    vertex 41.79999999999997 14.614359353944886 1.6919798895287383e-14
  endloop
endfacet
facet normal 7.896496589608257e-17 7.390521261010323e-17 -1.0
  outer loop
    vertex 45.99999999999996 0.0 5.639932965095795e-15
    vertex 41.79999999999997 14.614359353944886 1.6919798895287383e-14
    vertex 42.13137084989844 14.868629150101501 1.6919798895287383e-14
  endloop
endfacet
facet normal 7.896496589608257e-17 7.390521261010323e-17 -1.0
  outer loop
    vertex 45.99999999999996 0.0 5.639932965095795e-15
    vertex 42.13137084989844 14.868629150101501 1.6919798895287383e-14
    vertex 42.3856406460551 15.199999999999973 1.6919798895287383e-14
  endloop
endfacet
facet normal 7.896496589608257e-17 7.390521261010323e-17 -1.0
  outer loop
    vertex 45.99999999999996 0.0 5.639932965095795e-15
    vertex 42.3856406460551 15.199999999999973 1.6919798895287383e-14
    vertex 42.54548132206245 15.585889527835961 1.6919798895287383e-14
  endloop
endfacet
facet normal 7.896496589608257e-17 7.390521261010323e-17 -1.0
  outer loop
    vertex 45.99999999999996 0.0 5.639932965095795e-15
    vertex 42.54548132206245 15.585889527835961 1.6919798895287383e-14
    vertex 42.599999999999966 15.99999999999997 1.6919798895287383e-14
  endloop
endfacet
facet normal 7.896496589608257e-17 7.390521261010323e-17 -1.0
  outer loop
    vertex 45.99999999999996 0.0 5.639932965095795e-15
    vertex 42.599999999999966 15.99999999999997 1.6919798895287383e-14
    vertex 45.99999999999996 31.999999999999986 5.639932965095795e-15
  endloop
endfacet
facet normal 4.9685254749935115e-18 -1.164071129563162e-16 -1.0
  outer loop
    vertex 0.0 31.999999999999986 5.639932965095795e-15
    vertex 3.454518677937557 16.414110472164026 1.6919798895287383e-14
    vertex 0.0 0.0 5.639932965095795e-15
  endloop
endfacet
facet normal 4.9685254749935115e-18 -1.164071129563162e-16 -1.0
  outer loop
    vertex 3.454518677937557 16.414110472164026 1.6919798895287383e-14
    vertex 0.0 31.999999999999986 5.639932965095795e-15
    vertex 3.614359353944906 16.79999999999997 1.6919798895287383e-14
  endloop
endfacet
facet normal 4.9685254749935115e-18 -1.164071129563162e-16 -1.0
  outer loop
    vertex 3.614359353944906 16.79999999999997 1.6919798895287383e-14
    vertex 0.0 31.999999999999986 5.639932965095795e-15
    vertex 9.999999999999982 31.999999999999986 5.639932965095795e-15
  endloop
endfacet
facet normal 4.9685254749935115e-18 -1.164071129563162e-16 -1.0
  outer loop
    vertex 0.0 0.0 5.639932965095795e-15
    vertex 3.454518677937557 16.414110472164026 1.6919798895287383e-14
    vertex 3.400000000000039 15.99999999999997 1.6919798895287383e-14
  endloop
endfacet
facet normal 4.9685254749935115e-18 -1.164071129563162e-16 -1.0
  outer loop
    vertex 3.614359353944906 16.79999999999997 1.6919798895287383e-14
    vertex 9.999999999999982 31.999999999999986 5.639932965095795e-15
    vertex 3.868629150101566 17.131370849898442 1.6919798895287383e-14
  endloop
endfacet
facet normal 4.9685254749935115e-18 -1.164071129563162e-16 -1.0
  outer loop
    vertex 3.868629150101566 17.131370849898442 1.6919798895287383e-14
    vertex 9.999999999999982 31.999999999999986 5.639932965095795e-15
    vertex 4.2000000000000375 17.3856406460551 1.6919798895287383e-14
  endloop
endfacet
facet normal 4.9685254749935115e-18 -1.164071129563162e-16 -1.0
  outer loop
    vertex 4.2000000000000375 17.3856406460551 1.6919798895287383e-14
    vertex 9.999999999999982 31.999999999999986 5.639932965095795e-15
    vertex 4.585889527835982 17.545481322062496 1.6919798895287383e-14
  endloop
endfacet
facet normal 4.9685254749935115e-18 -1.164071129563162e-16 -1.0
  outer loop
    vertex 4.585889527835982 17.545481322062496 1.6919798895287383e-14
    vertex 9.999999999999982 31.999999999999986 5.639932965095795e-15
    vertex 5.0000000000000355 17.59999999999997 1.6919798895287383e-14
  endloop
endfacet
facet normal 4.9685254749935115e-18 -1.164071129563162e-16 -1.0
  outer loop
    vertex 5.0000000000000355 17.59999999999997 1.6919798895287383e-14
    vertex 9.999999999999982 31.999999999999986 5.639932965095795e-15
    vertex 5.41411047216409 17.545481322062496 1.6919798895287383e-14
  endloop
endfacet
facet normal 4.9685254749935115e-18 -1.164071129563162e-16 -1.0
  outer loop
    vertex 5.41411047216409 17.545481322062496 1.6919798895287383e-14
    vertex 9.999999999999982 31.999999999999986 5.639932965095795e-15
    vertex 5.8000000000000345 17.3856406460551 1.6919798895287383e-14
  endloop
endfacet
facet normal 4.9685254749935115e-18 -1.164071129563162e-16 -1.0
  outer loop
    vertex 5.8000000000000345 17.3856406460551 1.6919798895287383e-14
    vertex 9.999999999999982 31.999999999999986 5.639932965095795e-15
    vertex 6.131370849898506 17.131370849898442 1.6919798895287383e-14
  endloop
endfacet
facet normal 4.9685254749935115e-18 -1.164071129563162e-16 -1.0
  outer loop
    vertex 6.131370849898506 17.131370849898442 1.6919798895287383e-14
    vertex 9.999999999999982 31.999999999999986 5.639932965095795e-15
    vertex 6.385640646055165 16.79999999999997 1.6919798895287383e-14
  endloop
endfacet
facet normal 4.9685254749935115e-18 -1.164071129563162e-16 -1.0
  outer loop
    vertex 6.385640646055165 16.79999999999997 1.6919798895287383e-14
    vertex 9.999999999999982 31.999999999999986 5.639932965095795e-15
    vertex 6.545481322062515 16.414110472164026 1.6919798895287383e-14
  endloop
endfacet
facet normal 4.9685254749935115e-18 -1.164071129563162e-16 -1.0
  outer loop
    vertex 6.545481322062515 16.414110472164026 1.6919798895287383e-14
    vertex 9.999999999999982 31.999999999999986 5.639932965095795e-15
    vertex 6.600000000000033 15.99999999999997 1.6919798895287383e-14
  endloop
endfacet
facet normal 4.9685254749935115e-18 -1.164071129563162e-16 -1.0
  outer loop
    vertex 0.0 0.0 5.639932965095795e-15
    vertex 3.614359353944906 15.199999999999973 1.6919798895287383e-14
    vertex 9.999999999999982 0.0 5.639932965095795e-15
  endloop
endfacet
facet normal 4.9685254749935115e-18 -1.164071129563162e-16 -1.0
  outer loop
    vertex 3.614359353944906 15.199999999999973 1.6919798895287383e-14
    vertex 0.0 0.0 5.639932965095795e-15
    vertex 3.454518677937557 15.585889527835961 1.6919798895287383e-14
  endloop
endfacet
facet normal 4.9685254749935115e-18 -1.164071129563162e-16 -1.0
  outer loop
    vertex 3.454518677937557 15.585889527835961 1.6919798895287383e-14
    vertex 0.0 0.0 5.639932965095795e-15
    vertex 3.400000000000039 15.99999999999997 1.6919798895287383e-14
  endloop
endfacet
facet normal 4.9685254749935115e-18 -1.164071129563162e-16 -1.0
  outer loop
    vertex 9.999999999999982 0.0 5.639932965095795e-15
    vertex 3.614359353944906 15.199999999999973 1.6919798895287383e-14
    vertex 3.868629150101566 14.868629150101501 1.6919798895287383e-14
  endloop
endfacet
facet normal 4.9685254749935115e-18 -1.164071129563162e-16 -1.0
  outer loop
    vertex 9.999999999999982 0.0 5.639932965095795e-15
    vertex 3.868629150101566 14.868629150101501 1.6919798895287383e-14
    vertex 4.2000000000000375 14.614359353944886 1.6919798895287383e-14
  endloop
endfacet
facet normal 4.9685254749935115e-18 -1.164071129563162e-16 -1.0
  outer loop
    vertex 9.999999999999982 0.0 5.639932965095795e-15
    vertex 4.2000000000000375 14.614359353944886 1.6919798895287383e-14
    vertex 4.585889527835982 14.454518677937491 1.6919798895287383e-14
  endloop
endfacet
facet normal 4.9685254749935115e-18 -1.164071129563162e-16 -1.0
  outer loop
    vertex 9.999999999999982 0.0 5.639932965095795e-15
    vertex 4.585889527835982 14.454518677937491 1.6919798895287383e-14
    vertex 5.0000000000000355 14.399999999999974 1.6919798895287383e-14
  endloop
endfacet
facet normal 4.9685254749935115e-18 -1.164071129563162e-16 -1.0
  outer loop
    vertex 9.999999999999982 0.0 5.639932965095795e-15
    vertex 5.0000000000000355 14.399999999999974 1.6919798895287383e-14
    vertex 5.41411047216409 14.454518677937491 1.6919798895287383e-14
  endloop
endfacet
facet normal 4.9685254749935115e-18 -1.164071129563162e-16 -1.0
  outer loop
    vertex 9.999999999999982 0.0 5.639932965095795e-15
    vertex 5.41411047216409 14.454518677937491 1.6919798895287383e-14
    vertex 5.8000000000000345 14.614359353944886 1.6919798895287383e-14
  endloop
endfacet
facet normal 4.9685254749935115e-18 -1.164071129563162e-16 -1.0
  outer loop
    vertex 9.999999999999982 0.0 5.639932965095795e-15
    vertex 5.8000000000000345 14.614359353944886 1.6919798895287383e-14
    vertex 6.131370849898506 14.868629150101501 1.6919798895287383e-14
  endloop
endfacet
facet normal 4.9685254749935115e-18 -1.164071129563162e-16 -1.0
  outer loop
    vertex 9.999999999999982 0.0 5.639932965095795e-15
    vertex 6.131370849898506 14.868629150101501 1.6919798895287383e-14
    vertex 6.385640646055165 15.199999999999973 1.6919798895287383e-14
  endloop
endfacet
facet normal 4.9685254749935115e-18 -1.164071129563162e-16 -1.0
  outer loop
    vertex 9.999999999999982 0.0 5.639932965095795e-15
    vertex 6.385640646055165 15.199999999999973 1.6919798895287383e-14
    vertex 6.545481322062515 15.585889527835961 1.6919798895287383e-14
  endloop
endfacet
facet normal 4.9685254749935115e-18 -1.164071129563162e-16 -1.0
  outer loop
    vertex 9.999999999999982 0.0 5.639932965095795e-15
    vertex 6.545481322062515 15.585889527835961 1.6919798895287383e-14
    vertex 6.600000000000033 15.99999999999997 1.6919798895287383e-14
  endloop
endfacet
facet normal 4.9685254749935115e-18 -1.164071129563162e-16 -1.0
  outer loop
    vertex 9.999999999999982 0.0 5.639932965095795e-15
    vertex 6.600000000000033 15.99999999999997 1.6919798895287383e-14
    vertex 9.999999999999982 31.999999999999986 5.639932965095795e-15
  endloop
endfacet
facet normal 0.0 0.0 1.0
  outer loop
    vertex 32.492543 0.0 9.467860000000003
    vertex 14.056449999999986 31.999999999999986 9.467860000000003
    vertex 14.056449999999986 0.0 9.467860000000003
  endloop
endfacet
facet normal 0.0 0.0 1.0
  outer loop
    vertex 14.056449999999986 31.999999999999986 9.467860000000003
    vertex 32.492543 0.0 9.467860000000003
    vertex 32.492543 31.999999999999986 9.467860000000003
  endloop
endfacet
facet normal 0.0 0.0 -1.0
  outer loop
    vertex 14.949999999999983 31.999999999999986 5.639932965095795e-15
    vertex 9.999999999999982 0.0 5.639932965095795e-15
    vertex 9.999999999999982 31.999999999999986 5.639932965095795e-15
  endloop
endfacet
facet normal 0.0 0.0 -1.0
  outer loop
    vertex 9.999999999999982 0.0 5.639932965095795e-15
    vertex 14.949999999999983 31.999999999999986 5.639932965095795e-15
    vertex 14.949999999999983 0.0 5.639932965095795e-15
  endloop
endfacet
facet normal 1.139380396989049e-15 0.0 -1.0
  outer loop
    vertex 35.99999999999998 31.999999999999986 5.639932965095795e-15
    vertex 31.049999999999976 0.0 0.0
    vertex 31.049999999999976 31.999999999999986 0.0
  endloop
endfacet
facet normal 1.139380396989049e-15 0.0 -1.0
  outer loop
    vertex 31.049999999999976 0.0 0.0
    vertex 35.99999999999998 31.999999999999986 5.639932965095795e-15
    vertex 35.99999999999998 0.0 5.639932965095795e-15
  endloop
endfacet
facet normal 0.0 1.0 0.0
  outer loop
    vertex 9.999999999999982 31.999999999999986 2.00000000000001
    vertex 14.949999999999983 31.999999999999986 5.639932965095795e-15
    vertex 9.999999999999982 31.999999999999986 5.639932965095795e-15
  endloop
endfacet
facet normal 0.0 1.0 0.0
  outer loop
    vertex 14.949999999999983 31.999999999999986 5.639932965095795e-15
    vertex 9.999999999999982 31.999999999999986 2.00000000000001
    vertex 14.056449999999986 31.999999999999986 2.00000000000001
  endloop
endfacet
facet normal 0.0 1.0 0.0
  outer loop
    vertex 14.949999999999983 31.999999999999986 5.639932965095795e-15
    vertex 14.056449999999986 31.999999999999986 2.00000000000001
    vertex 15.224297098372988 31.999999999999986 2.0834933130752975
  endloop
endfacet
facet normal 0.0 1.0 0.0
  outer loop
    vertex 15.224297098372988 31.999999999999986 2.0834933130752975
    vertex 14.056449999999986 31.999999999999986 2.00000000000001
    vertex 14.056449999999986 31.999999999999986 9.467860000000003
  endloop
endfacet
facet normal 0.0 1.0 0.0
  outer loop
    vertex 15.224297098372988 31.999999999999986 2.0834933130752975
    vertex 14.056449999999986 31.999999999999986 9.467860000000003
    vertex 16.02849549953526 31.999999999999986 4.025000000000004
  endloop
endfacet
facet normal 0.0 1.0 0.0
  outer loop
    vertex 16.02849549953526 31.999999999999986 4.025000000000004
    vertex 14.056449999999986 31.999999999999986 9.467860000000003
    vertex 17.3077904114483 31.999999999999986 5.692209588551718
  endloop
endfacet
facet normal 0.0 1.0 0.0
  outer loop
    vertex 17.3077904114483 31.999999999999986 5.692209588551718
    vertex 14.056449999999986 31.999999999999986 9.467860000000003
    vertex 18.97499999999997 31.999999999999986 6.971504500464747
  endloop
endfacet
facet normal 0.0 1.0 0.0
  outer loop
    vertex 18.97499999999997 31.999999999999986 6.971504500464747
    vertex 14.056449999999986 31.999999999999986 9.467860000000003
    vertex 20.916506686924695 31.999999999999986 7.77570290162702
  endloop
endfacet
facet normal 0.0 1.0 0.0
  outer loop
    vertex 20.916506686924695 31.999999999999986 7.77570290162702
    vertex 14.056449999999986 31.999999999999986 9.467860000000003
    vertex 22.999999999999957 31.999999999999986 8.050000000000026
  endloop
endfacet
facet normal 0.0 1.0 0.0
  outer loop
    vertex 30.77570290162697 31.999999999999986 2.083493313075337
    vertex 35.99999999999998 31.999999999999986 5.639932965095795e-15
    vertex 31.049999999999976 31.999999999999986 0.0
  endloop
endfacet
facet normal 0.0 1.0 0.0
  outer loop
    vertex 35.99999999999998 31.999999999999986 5.639932965095795e-15
    vertex 30.77570290162697 31.999999999999986 2.083493313075337
    vertex 32.492543 31.999999999999986 2.00000000000001
  endloop
endfacet
facet normal 0.0 1.0 0.0
  outer loop
    vertex 32.492543 31.999999999999986 2.00000000000001
    vertex 30.77570290162697 31.999999999999986 2.083493313075337
    vertex 32.492543 31.999999999999986 9.467860000000003
  endloop
endfacet
facet normal 0.0 1.0 0.0
  outer loop
    vertex 32.492543 31.999999999999986 9.467860000000003
    vertex 30.77570290162697 31.999999999999986 2.083493313075337
    vertex 29.9715045004647 31.999999999999986 4.025000000000043
  endloop
endfacet
facet normal 0.0 1.0 0.0
  outer loop
    vertex 32.492543 31.999999999999986 9.467860000000003
    vertex 29.9715045004647 31.999999999999986 4.025000000000043
    vertex 28.69220958855171 31.999999999999986 5.692209588551751
  endloop
endfacet
facet normal 0.0 1.0 0.0
  outer loop
    vertex 32.492543 31.999999999999986 9.467860000000003
    vertex 28.69220958855171 31.999999999999986 5.692209588551751
    vertex 27.02499999999999 31.999999999999986 6.97150450046477
  endloop
endfacet
facet normal 0.0 1.0 0.0
  outer loop
    vertex 32.492543 31.999999999999986 9.467860000000003
    vertex 27.02499999999999 31.999999999999986 6.97150450046477
    vertex 25.083493313075266 31.999999999999986 7.775702901627032
  endloop
endfacet
facet normal 0.0 1.0 0.0
  outer loop
    vertex 32.492543 31.999999999999986 9.467860000000003
    vertex 25.083493313075266 31.999999999999986 7.775702901627032
    vertex 22.999999999999957 31.999999999999986 8.050000000000026
  endloop
endfacet
facet normal 0.0 1.0 0.0
  outer loop
    vertex 32.492543 31.999999999999986 9.467860000000003
    vertex 22.999999999999957 31.999999999999986 8.050000000000026
    vertex 14.056449999999986 31.999999999999986 9.467860000000003
  endloop
endfacet
facet normal 0.0 1.0 0.0
  outer loop
    vertex 35.99999999999998 31.999999999999986 2.00000000000001
    vertex 35.99999999999998 31.999999999999986 5.639932965095795e-15
    vertex 32.492543 31.999999999999986 2.00000000000001
  endloop
endfacet
facet normal -0.9914448613738107 0.0 -0.1305261922200507
  outer loop
    vertex 30.77570290162697 31.999999999999986 2.083493313075337
    vertex 31.049999999999976 0.0 0.0
    vertex 30.77570290162697 0.0 2.083493313075337
  endloop
endfacet
facet normal -0.9914448613738107 0.0 -0.1305261922200507
  outer loop
    vertex 31.049999999999976 0.0 0.0
    vertex 30.77570290162697 31.999999999999986 2.083493313075337
    vertex 31.049999999999976 31.999999999999986 0.0
  endloop
endfacet
facet normal 0.0 -1.0 0.0
  outer loop
    vertex 35.99999999999998 0.0 5.639932965095795e-15
    vertex 30.77570290162697 0.0 2.083493313075337
    vertex 31.049999999999976 0.0 0.0
  endloop
endfacet
facet normal 0.0 -1.0 0.0
  outer loop
    vertex 30.77570290162697 0.0 2.083493313075337
    vertex 35.99999999999998 0.0 5.639932965095795e-15
    vertex 32.492543 0.0 2.00000000000001
  endloop
endfacet
facet normal 0.0 -1.0 0.0
  outer loop
    vertex 32.492543 0.0 2.00000000000001
    vertex 35.99999999999998 0.0 5.639932965095795e-15
    vertex 35.99999999999998 0.0 2.00000000000001
  endloop
endfacet
facet normal 0.0 -1.0 0.0
  outer loop
    vertex 30.77570290162697 0.0 2.083493313075337
    vertex 32.492543 0.0 2.00000000000001
    vertex 32.492543 0.0 9.467860000000003
  endloop
endfacet
facet normal 0.0 -1.0 0.0
  outer loop
    vertex 30.77570290162697 0.0 2.083493313075337
    vertex 32.492543 0.0 9.467860000000003
    vertex 29.9715045004647 0.0 4.025000000000043
  endloop
endfacet
facet normal 0.0 -1.0 0.0
  outer loop
    vertex 29.9715045004647 0.0 4.025000000000043
    vertex 32.492543 0.0 9.467860000000003
    vertex 28.69220958855171 0.0 5.692209588551751
  endloop
endfacet
facet normal 0.0 -1.0 0.0
  outer loop
    vertex 28.69220958855171 0.0 5.692209588551751
    vertex 32.492543 0.0 9.467860000000003
    vertex 27.02499999999999 0.0 6.97150450046477
  endloop
endfacet
facet normal 0.0 -1.0 0.0
  outer loop
    vertex 27.02499999999999 0.0 6.97150450046477
    vertex 32.492543 0.0 9.467860000000003
    vertex 25.083493313075266 0.0 7.775702901627032
  endloop
endfacet
facet normal 0.0 -1.0 0.0
  outer loop
    vertex 25.083493313075266 0.0 7.775702901627032
    vertex 32.492543 0.0 9.467860000000003
    vertex 22.999999999999957 0.0 8.050000000000026
  endloop
endfacet
facet normal 0.0 -1.0 0.0
  outer loop
    vertex 15.224297098372988 0.0 2.0834933130752975
    vertex 9.999999999999982 0.0 5.639932965095795e-15
    vertex 14.949999999999983 0.0 5.639932965095795e-15
  endloop
endfacet
facet normal 0.0 -1.0 0.0
  outer loop
    vertex 9.999999999999982 0.0 5.639932965095795e-15
    vertex 15.224297098372988 0.0 2.0834933130752975
    vertex 14.056449999999986 0.0 2.00000000000001
  endloop
endfacet
facet normal 0.0 -1.0 0.0
  outer loop
    vertex 14.056449999999986 0.0 2.00000000000001
    vertex 15.224297098372988 0.0 2.0834933130752975
    vertex 14.056449999999986 0.0 9.467860000000003
  endloop
endfacet
facet normal 0.0 -1.0 0.0
  outer loop
    vertex 14.056449999999986 0.0 9.467860000000003
    vertex 15.224297098372988 0.0 2.0834933130752975
    vertex 16.02849549953526 0.0 4.025000000000004
  endloop
endfacet
facet normal 0.0 -1.0 0.0
  outer loop
    vertex 14.056449999999986 0.0 9.467860000000003
    vertex 16.02849549953526 0.0 4.025000000000004
    vertex 17.3077904114483 0.0 5.692209588551718
  endloop
endfacet
facet normal 0.0 -1.0 0.0
  outer loop
    vertex 14.056449999999986 0.0 9.467860000000003
    vertex 17.3077904114483 0.0 5.692209588551718
    vertex 18.97499999999997 0.0 6.971504500464747
  endloop
endfacet
facet normal 0.0 -1.0 0.0
  outer loop
    vertex 14.056449999999986 0.0 9.467860000000003
    vertex 18.97499999999997 0.0 6.971504500464747
    vertex 20.916506686924695 0.0 7.77570290162702
  endloop
endfacet
facet normal 0.0 -1.0 0.0
  outer loop
    vertex 14.056449999999986 0.0 9.467860000000003
    vertex 20.916506686924695 0.0 7.77570290162702
    vertex 22.999999999999957 0.0 8.050000000000026
  endloop
endfacet
facet normal 0.0 -1.0 0.0
  outer loop
    vertex 14.056449999999986 0.0 9.467860000000003
    vertex 22.999999999999957 0.0 8.050000000000026
    vertex 32.492543 0.0 9.467860000000003
  endloop
endfacet
facet normal 0.0 -1.0 0.0
  outer loop
    vertex 9.999999999999982 0.0 2.00000000000001
    vertex 9.999999999999982 0.0 5.639932965095795e-15
    vertex 14.056449999999986 0.0 2.00000000000001
  endloop
endfacet
facet normal -0.923879532511286 0.0 -0.38268343236509184
  outer loop
    vertex 29.9715045004647 31.999999999999986 4.025000000000043
    vertex 30.77570290162697 0.0 2.083493313075337
    vertex 29.9715045004647 0.0 4.025000000000043
  endloop
endfacet
facet normal -0.923879532511286 0.0 -0.38268343236509184
  outer loop
    vertex 30.77570290162697 0.0 2.083493313075337
    vertex 29.9715045004647 31.999999999999986 4.025000000000043
    vertex 30.77570290162697 31.999999999999986 2.083493313075337
  endloop
endfacet
facet normal -0.7933533402912428 0.0 -0.6087614290087109
  outer loop
    vertex 28.69220958855171 31.999999999999986 5.692209588551751
    vertex 29.9715045004647 0.0 4.025000000000043
    vertex 28.69220958855171 0.0 5.692209588551751
  endloop
endfacet
facet normal -0.7933533402912428 0.0 -0.6087614290087109
  outer loop
    vertex 29.9715045004647 0.0 4.025000000000043
    vertex 28.69220958855171 31.999999999999986 5.692209588551751
    vertex 29.9715045004647 31.999999999999986 4.025000000000043
  endloop
endfacet
facet normal -0.6087614290087165 0.0 -0.7933533402912383
  outer loop
    vertex 28.69220958855171 31.999999999999986 5.692209588551751
    vertex 27.02499999999999 0.0 6.97150450046477
    vertex 27.02499999999999 31.999999999999986 6.97150450046477
  endloop
endfacet
facet normal -0.6087614290087165 0.0 -0.7933533402912383
  outer loop
    vertex 27.02499999999999 0.0 6.97150450046477
    vertex 28.69220958855171 31.999999999999986 5.692209588551751
    vertex 28.69220958855171 0.0 5.692209588551751
  endloop
endfacet
facet normal -0.3826834323650844 0.0 -0.923879532511289
  outer loop
    vertex 27.02499999999999 31.999999999999986 6.97150450046477
    vertex 25.083493313075266 0.0 7.775702901627032
    vertex 25.083493313075266 31.999999999999986 7.775702901627032
  endloop
endfacet
facet normal -0.3826834323650844 0.0 -0.923879532511289
  outer loop
    vertex 25.083493313075266 0.0 7.775702901627032
    vertex 27.02499999999999 31.999999999999986 6.97150450046477
    vertex 27.02499999999999 0.0 6.97150450046477
  endloop
endfacet
facet normal -0.13052619222004716 0.0 -0.9914448613738112
  outer loop
    vertex 25.083493313075266 31.999999999999986 7.775702901627032
    vertex 22.999999999999957 0.0 8.050000000000026
    vertex 22.999999999999957 31.999999999999986 8.050000000000026
  endloop
endfacet
facet normal -0.13052619222004716 0.0 -0.9914448613738112
  outer loop
    vertex 22.999999999999957 0.0 8.050000000000026
    vertex 25.083493313075266 31.999999999999986 7.775702901627032
    vertex 25.083493313075266 0.0 7.775702901627032
  endloop
endfacet
facet normal 0.382683432365089 0.0 -0.9238795325112871
  outer loop
    vertex 20.916506686924695 31.999999999999986 7.77570290162702
    vertex 18.97499999999997 0.0 6.971504500464747
    vertex 18.97499999999997 31.999999999999986 6.971504500464747
  endloop
endfacet
facet normal 0.382683432365089 0.0 -0.9238795325112871
  outer loop
    vertex 18.97499999999997 0.0 6.971504500464747
    vertex 20.916506686924695 31.999999999999986 7.77570290162702
    vertex 20.916506686924695 0.0 7.77570290162702
  endloop
endfacet
facet normal 0.13052619222005518 0.0 -0.99144486137381
  outer loop
    vertex 22.999999999999957 31.999999999999986 8.050000000000026
    vertex 20.916506686924695 0.0 7.77570290162702
    vertex 20.916506686924695 31.999999999999986 7.77570290162702
  endloop
endfacet
facet normal 0.13052619222005518 0.0 -0.99144486137381
  outer loop
    vertex 20.916506686924695 0.0 7.77570290162702
    vertex 22.999999999999957 31.999999999999986 8.050000000000026
    vertex 22.999999999999957 0.0 8.050000000000026
  endloop
endfacet
facet normal 0.7933533402912334 0.0 -0.608761429008723
  outer loop
    vertex 16.02849549953526 31.999999999999986 4.025000000000004
    vertex 17.3077904114483 0.0 5.692209588551718
    vertex 16.02849549953526 0.0 4.025000000000004
  endloop
endfacet
facet normal 0.7933533402912334 0.0 -0.608761429008723
  outer loop
    vertex 17.3077904114483 0.0 5.692209588551718
    vertex 16.02849549953526 31.999999999999986 4.025000000000004
    vertex 17.3077904114483 31.999999999999986 5.692209588551718
  endloop
endfacet
facet normal 0.9914448613738103 0.0 -0.13052619222005352
  outer loop
    vertex 14.949999999999983 31.999999999999986 5.639932965095795e-15
    vertex 15.224297098372988 0.0 2.0834933130752975
    vertex 14.949999999999983 0.0 5.639932965095795e-15
  endloop
endfacet
facet normal 0.9914448613738103 0.0 -0.13052619222005352
  outer loop
    vertex 15.224297098372988 0.0 2.0834933130752975
    vertex 14.949999999999983 31.999999999999986 5.639932965095795e-15
    vertex 15.224297098372988 31.999999999999986 2.0834933130752975
  endloop
endfacet
facet normal 0.6087614290087303 0.0 -0.7933533402912277
  outer loop
    vertex 18.97499999999997 31.999999999999986 6.971504500464747
    vertex 17.3077904114483 0.0 5.692209588551718
    vertex 17.3077904114483 31.999999999999986 5.692209588551718
  endloop
endfacet
facet normal 0.6087614290087303 0.0 -0.7933533402912277
  outer loop
    vertex 17.3077904114483 0.0 5.692209588551718
    vertex 18.97499999999997 31.999999999999986 6.971504500464747
    vertex 18.97499999999997 0.0 6.971504500464747
  endloop
endfacet
facet normal 0.923879532511286 0.0 -0.38268343236509184
  outer loop
    vertex 15.224297098372988 31.999999999999986 2.0834933130752975
    vertex 16.02849549953526 0.0 4.025000000000004
    vertex 15.224297098372988 0.0 2.0834933130752975
  endloop
endfacet
facet normal 0.923879532511286 0.0 -0.38268343236509184
  outer loop
    vertex 16.02849549953526 0.0 4.025000000000004
    vertex 15.224297098372988 31.999999999999986 2.0834933130752975
    vertex 16.02849549953526 31.999999999999986 4.025000000000004
  endloop
endfacet
facet normal -1.0 0.0 0.0
  outer loop
    vertex 14.056449999999986 31.999999999999986 9.467860000000003
    vertex 14.056449999999986 0.0 2.00000000000001
    vertex 14.056449999999986 0.0 9.467860000000003
  endloop
endfacet
facet normal -1.0 0.0 0.0
  outer loop
    vertex 14.056449999999986 0.0 2.00000000000001
    vertex 14.056449999999986 31.999999999999986 9.467860000000003
    vertex 14.056449999999986 31.999999999999986 2.00000000000001
  endloop
endfacet
facet normal 1.0 0.0 0.0
  outer loop
    vertex 32.492543 31.999999999999986 2.00000000000001
    vertex 32.492543 0.0 9.467860000000003
    vertex 32.492543 0.0 2.00000000000001
  endloop
endfacet
facet normal 1.0 0.0 0.0
  outer loop
    vertex 32.492543 0.0 9.467860000000003
    vertex 32.492543 31.999999999999986 2.00000000000001
    vertex 32.492543 31.999999999999986 9.467860000000003
  endloop
endfacet
endsolid wing_tube_clips
