solid wing_support_test
facet normal 1.0 0.0 0.0
  outer loop
    vertex 2.8937309225100747 39.10626907748993 5.639932965095795e-15
    vertex 2.8937309225100747 2.8937309225100747 2.8
    vertex 2.8937309225100747 2.8937309225100747 5.639932965095795e-15
  endloop
endfacet
facet normal 1.0 0.0 0.0
  outer loop
    vertex 2.8937309225100747 2.8937309225100747 2.8
    vertex 2.8937309225100747 39.10626907748993 5.639932965095795e-15
    vertex 2.8937309225100747 39.10626907748993 2.8
  endloop
endfacet
facet normal 0.0 1.0 0.0
  outer loop
    vertex 2.8937309225100747 2.8937309225100747 2.8
    vertex 43.10626907748992 2.8937309225100747 5.639932965095795e-15
    vertex 2.8937309225100747 2.8937309225100747 5.639932965095795e-15
  endloop
endfacet
facet normal 0.0 1.0 0.0
  outer loop
    vertex 43.10626907748992 2.8937309225100747 5.639932965095795e-15
    vertex 2.8937309225100747 2.8937309225100747 2.8
    vertex 43.10626907748992 2.8937309225100747 2.8
  endloop
endfacet
facet normal -1.0 0.0 0.0
  outer loop
    vertex 187.10626907748994 39.10626907748993 2.8
    vertex 187.10626907748994 5.8937309225100805 5.639932965095795e-15
    vertex 187.10626907748994 5.8937309225100805 2.8
  endloop
endfacet
facet normal -1.0 0.0 0.0
  outer loop
    vertex 187.10626907748994 5.8937309225100805 5.639932965095795e-15
    vertex 187.10626907748994 39.10626907748993 2.8
    vertex 187.10626907748994 39.10626907748993 5.639932965095795e-15
  endloop
endfacet
facet normal -0.0 -1.0 -0.0
  outer loop
    vertex 190.0 3.0000000000000058 2.8
    vertex 45.99999999999999 3.0000000000000058 0.0
    vertex 190.0 3.0000000000000058 0.0
  endloop
endfacet
facet normal -0.0 -1.0 -0.0
  outer loop
    vertex 45.99999999999999 3.0000000000000058 0.0
    vertex 190.0 3.0000000000000058 2.8
    vertex 45.99999999999999 3.0000000000000058 2.8
  endloop
endfacet
facet normal 0.0 1.0 0.0
  outer loop
    vertex 43.10626907748992 5.8937309225100805 2.8
    vertex 187.10626907748994 5.8937309225100805 5.639932965095795e-15
    vertex 43.10626907748992 5.8937309225100805 5.639932965095795e-15
  endloop
endfacet
facet normal 0.0 1.0 0.0
  outer loop
    vertex 187.10626907748994 5.8937309225100805 5.639932965095795e-15
    vertex 43.10626907748992 5.8937309225100805 2.8
    vertex 187.10626907748994 5.8937309225100805 2.8
  endloop
endfacet
facet normal 0.0 1.0 0.0
  outer loop
    vertex 0.0 42.0 2.8
    vertex 75.96831491677396 42.0 0.0
    vertex 0.0 42.0 0.0
  endloop
endfacet
facet normal 0.0 1.0 0.0
  outer loop
    vertex 75.96831491677396 42.0 0.0
    vertex 0.0 42.0 2.8
    vertex 190.0 42.0 0.0
  endloop
endfacet
facet normal 0.0 1.0 0.0
  outer loop
    vertex 190.0 42.0 0.0
    vertex 0.0 42.0 2.8
    vertex 190.0 42.0 2.8
  endloop
endfacet
facet normal -1.0 0.0 0.0
  outer loop
    vertex 0.0 42.0 2.8
    vertex 0.0 0.0 0.0
    vertex 0.0 0.0 2.8
  endloop
endfacet
facet normal -1.0 0.0 0.0
  outer loop
    vertex 0.0 0.0 0.0
    vertex 0.0 42.0 2.8
    vertex 0.0 42.0 0.0
  endloop
endfacet
facet normal 1.0 0.0 0.0
  outer loop
    vertex 45.99999999999999 3.0000000000000058 0.0
    vertex 45.99999999999999 0.0 2.8
    vertex 45.99999999999999 0.0 0.0
  endloop
endfacet
facet normal 1.0 0.0 0.0
  outer loop
    vertex 45.99999999999999 0.0 2.8
    vertex 45.99999999999999 3.0000000000000058 0.0
    vertex 45.99999999999999 3.0000000000000058 2.8
  endloop
endfacet
facet normal 1.0 0.0 0.0
  outer loop
    vertex 190.0 42.0 0.0
    vertex 190.0 3.0000000000000058 2.8
    vertex 190.0 3.0000000000000058 0.0
  endloop
endfacet
facet normal 1.0 0.0 0.0
  outer loop
    vertex 190.0 3.0000000000000058 2.8
    vertex 190.0 42.0 0.0
    vertex 190.0 42.0 2.8
  endloop
endfacet
facet normal 0.0 0.0 1.0
  outer loop
    vertex 0.0 0.0 2.8
    vertex 2.8937309225100747 2.8937309225100747 2.8
    vertex 0.0 42.0 2.8
  endloop
endfacet
facet normal 0.0 0.0 1.0
  outer loop
    vertex 2.8937309225100747 2.8937309225100747 2.8
    vertex 0.0 0.0 2.8
    vertex 45.99999999999999 0.0 2.8
  endloop
endfacet
facet normal 0.0 0.0 1.0
  outer loop
    vertex 2.8937309225100747 2.8937309225100747 2.8
    vertex 45.99999999999999 0.0 2.8
    vertex 43.10626907748992 2.8937309225100747 2.8
  endloop
endfacet
facet normal 0.0 0.0 1.0
  outer loop
    vertex 43.10626907748992 2.8937309225100747 2.8
    vertex 45.99999999999999 0.0 2.8
    vertex 43.10626907748992 5.8937309225100805 2.8
  endloop
endfacet
facet normal 0.0 0.0 1.0
  outer loop
    vertex 43.10626907748992 5.8937309225100805 2.8
    vertex 45.99999999999999 0.0 2.8
    vertex 45.99999999999999 3.0000000000000058 2.8
  endloop
endfacet
facet normal 0.0 0.0 1.0
  outer loop
    vertex 43.10626907748992 5.8937309225100805 2.8
    vertex 45.99999999999999 3.0000000000000058 2.8
    vertex 187.10626907748994 5.8937309225100805 2.8
  endloop
endfacet
facet normal 0.0 0.0 1.0
  outer loop
    vertex 187.10626907748994 5.8937309225100805 2.8
    vertex 45.99999999999999 3.0000000000000058 2.8
    vertex 190.0 3.0000000000000058 2.8
  endloop
endfacet
facet normal 0.0 0.0 1.0
  outer loop
    vertex 187.10626907748994 5.8937309225100805 2.8
    vertex 190.0 3.0000000000000058 2.8
    vertex 187.10626907748994 39.10626907748993 2.8
  endloop
endfacet
facet normal 0.0 0.0 1.0
  outer loop
    vertex 0.0 42.0 2.8
    vertex 2.8937309225100747 39.10626907748993 2.8
    vertex 190.0 42.0 2.8
  endloop
endfacet
facet normal 0.0 0.0 1.0
  outer loop
    vertex 2.8937309225100747 39.10626907748993 2.8
    vertex 0.0 42.0 2.8
    vertex 2.8937309225100747 2.8937309225100747 2.8
  endloop
endfacet
facet normal 0.0 0.0 1.0
  outer loop
    vertex 190.0 42.0 2.8
    vertex 2.8937309225100747 39.10626907748993 2.8
    vertex 187.10626907748994 39.10626907748993 2.8
  endloop
endfacet
facet normal 0.0 0.0 1.0
  outer loop
    vertex 190.0 42.0 2.8
    vertex 187.10626907748994 39.10626907748993 2.8
    vertex 190.0 3.0000000000000058 2.8
  endloop
endfacet
facet normal -0.0 -1.0 -0.0
  outer loop
    vertex 45.99999999999999 0.0 2.8
    vertex 0.0 0.0 0.0
    vertex 45.99999999999999 0.0 0.0
  endloop
endfacet
facet normal -0.0 -1.0 -0.0
  outer loop
    vertex 0.0 0.0 0.0
    vertex 45.99999999999999 0.0 2.8
    vertex 0.0 0.0 2.8
  endloop
endfacet
facet normal -0.0 -1.0 -0.0
  outer loop
    vertex 187.10626907748994 39.10626907748993 2.8
    vertex 76.03244817412207 39.10626907748993 5.639932965095795e-15
    vertex 187.10626907748994 39.10626907748993 5.639932965095795e-15
  endloop
endfacet
facet normal -0.0 -1.0 -0.0
  outer loop
    vertex 76.03244817412207 39.10626907748993 5.639932965095795e-15
    vertex 187.10626907748994 39.10626907748993 2.8
    vertex 2.8937309225100747 39.10626907748993 5.639932965095795e-15
  endloop
endfacet
facet normal -0.0 -1.0 -0.0
  outer loop
    vertex 2.8937309225100747 39.10626907748993 5.639932965095795e-15
    vertex 187.10626907748994 39.10626907748993 2.8
    vertex 2.8937309225100747 39.10626907748993 2.8
  endloop
endfacet
facet normal -1.0 0.0 0.0
  outer loop
    vertex 43.10626907748992 5.8937309225100805 2.8
    vertex 43.10626907748992 2.8937309225100747 5.639932965095795e-15
    vertex 43.10626907748992 2.8937309225100747 2.8
  endloop
endfacet
facet normal -1.0 0.0 0.0
  outer loop
    vertex 43.10626907748992 2.8937309225100747 5.639932965095795e-15
    vertex 43.10626907748992 5.8937309225100805 2.8
    vertex 43.10626907748992 5.8937309225100805 5.639932965095795e-15
  endloop
endfacet
facet normal -1.0491661440354863e-18 6.155813571070436e-18 -1.0
  outer loop
    vertex 190.0 42.0 0.0
    vertex 76.03244817412207 39.10626907748993 5.639932965095795e-15
    vertex 75.96831491677396 42.0 0.0
  endloop
endfacet
facet normal -1.0491661440354863e-18 6.155813571070436e-18 -1.0
  outer loop
    vertex 76.03244817412207 39.10626907748993 5.639932965095795e-15
    vertex 190.0 42.0 0.0
    vertex 187.10626907748994 39.10626907748993 5.639932965095795e-15
  endloop
endfacet
facet normal -1.0491661440354863e-18 6.155813571070436e-18 -1.0
  outer loop
    vertex 187.10626907748994 39.10626907748993 5.639932965095795e-15
    vertex 190.0 42.0 0.0
    vertex 187.10626907748994 5.8937309225100805 5.639932965095795e-15
  endloop
endfacet
facet normal -1.0491661440354863e-18 6.155813571070436e-18 -1.0
  outer loop
    vertex 43.10626907748992 5.8937309225100805 5.639932965095795e-15
    vertex 45.99999999999999 3.0000000000000058 0.0
    vertex 43.10626907748992 2.8937309225100747 5.639932965095795e-15
  endloop
endfacet
facet normal -1.0491661440354863e-18 6.155813571070436e-18 -1.0
  outer loop
    vertex 45.99999999999999 3.0000000000000058 0.0
    vertex 43.10626907748992 5.8937309225100805 5.639932965095795e-15
    vertex 187.10626907748994 5.8937309225100805 5.639932965095795e-15
  endloop
endfacet
facet normal -1.0491661440354863e-18 6.155813571070436e-18 -1.0
  outer loop
    vertex 45.99999999999999 3.0000000000000058 0.0
    vertex 187.10626907748994 5.8937309225100805 5.639932965095795e-15
    vertex 190.0 3.0000000000000058 0.0
  endloop
endfacet
facet normal -1.0491661440354863e-18 6.155813571070436e-18 -1.0
  outer loop
    vertex 190.0 3.0000000000000058 0.0
    vertex 187.10626907748994 5.8937309225100805 5.639932965095795e-15
    vertex 190.0 42.0 0.0
  endloop
endfacet
facet normal -1.0491661440354863e-18 6.155813571070436e-18 -1.0
  outer loop
    vertex 2.8937309225100747 2.8937309225100747 5.639932965095795e-15
    vertex 45.99999999999999 0.0 0.0
    vertex 0.0 0.0 0.0
  endloop
endfacet
facet normal -1.0491661440354863e-18 6.155813571070436e-18 -1.0
  outer loop
    vertex 45.99999999999999 0.0 0.0
    vertex 2.8937309225100747 2.8937309225100747 5.639932965095795e-15
    vertex 43.10626907748992 2.8937309225100747 5.639932965095795e-15
  endloop
endfacet
facet normal -1.0491661440354863e-18 6.155813571070436e-18 -1.0
  outer loop
    vertex 45.99999999999999 0.0 0.0
    vertex 43.10626907748992 2.8937309225100747 5.639932965095795e-15
    vertex 45.99999999999999 3.0000000000000058 0.0
  endloop
endfacet
facet normal 4.3440747392967794e-18 -8.092737330865288e-18 -1.0
  outer loop
    vertex 0.0 42.0 0.0
    vertex 2.8937309225100747 39.10626907748993 5.639932965095795e-15
    vertex 0.0 0.0 0.0
  endloop
endfacet
facet normal 4.3440747392967794e-18 -8.092737330865288e-18 -1.0
  outer loop
    vertex 2.8937309225100747 39.10626907748993 5.639932965095795e-15
    vertex 0.0 42.0 0.0
    vertex 75.96831491677396 42.0 0.0
  endloop
endfacet
facet normal 4.3440747392967794e-18 -8.092737330865288e-18 -1.0
  outer loop
    vertex 2.8937309225100747 39.10626907748993 5.639932965095795e-15
    vertex 75.96831491677396 42.0 0.0
    vertex 76.03244817412207 39.10626907748993 5.639932965095795e-15
  endloop
endfacet
facet normal 4.3440747392967794e-18 -8.092737330865288e-18 -1.0
  outer loop
    vertex 2.8937309225100747 2.8937309225100747 5.639932965095795e-15
    vertex 0.0 0.0 0.0
    vertex 2.8937309225100747 39.10626907748993 5.639932965095795e-15
  endloop
endfacet
endsolid wing_support_test
