solid wing_part3_test
facet normal -0.923879532511286 0.0 -0.38268343236509184
  outer loop
    vertex 25.971504500464707 8.136456999999995 4.025000000000128
    vertex 26.77570290162698 0.0 2.0834933130753823
    vertex 25.971504500464707 0.0 4.025000000000087
  endloop
endfacet
facet normal -0.923879532511286 0.0 -0.38268343236509184
  outer loop
    vertex 26.77570290162698 0.0 2.0834933130753823
    vertex 25.971504500464707 8.136456999999995 4.025000000000128
    vertex 26.77570290162698 8.136456999999995 2.083493313075422
  endloop
endfacet
facet normal -0.7933533402912428 0.0 -0.6087614290087109
  outer loop
    vertex 24.692209588551716 8.136456999999995 5.692209588551836
    vertex 25.971504500464707 0.0 4.025000000000087
    vertex 24.692209588551716 0.0 5.692209588551795
  endloop
endfacet
facet normal -0.7933533402912428 0.0 -0.6087614290087109
  outer loop
    vertex 25.971504500464707 0.0 4.025000000000087
    vertex 24.692209588551716 8.136456999999995 5.692209588551836
    vertex 25.971504500464707 8.136456999999995 4.025000000000128
  endloop
endfacet
facet normal 0.0 -1.0 0.0
  outer loop
    vertex 37.99999999999998 1.127986593019159e-14 3.000000000000096
    vertex 31.999999999999986 1.127986593019159e-14 9.023892744153272e-14
    vertex 37.99999999999998 1.127986593019159e-14 9.023892744153272e-14
  endloop
endfacet
facet normal 0.0 -1.0 0.0
  outer loop
    vertex 31.999999999999986 1.127986593019159e-14 9.023892744153272e-14
    vertex 37.99999999999998 1.127986593019159e-14 3.000000000000096
    vertex 31.999999999999986 1.127986593019159e-14 3.000000000000096
  endloop
endfacet
facet normal -0.6087614290087165 0.0 -0.7933533402912383
  outer loop
    vertex 24.692209588551716 8.136456999999995 5.692209588551836
    vertex 23.025 0.0 6.971504500464815
    vertex 23.025 8.136456999999995 6.971504500464855
  endloop
endfacet
facet normal -0.6087614290087165 0.0 -0.7933533402912383
  outer loop
    vertex 23.025 0.0 6.971504500464815
    vertex 24.692209588551716 8.136456999999995 5.692209588551836
    vertex 24.692209588551716 0.0 5.692209588551795
  endloop
endfacet
facet normal -0.3826834323650844 0.0 -0.923879532511289
  outer loop
    vertex 23.025 8.136456999999995 6.971504500464855
    vertex 21.083493313075273 0.0 7.775702901627077
    vertex 21.083493313075273 8.136456999999995 7.775702901627116
  endloop
endfacet
facet normal -0.3826834323650844 0.0 -0.923879532511289
  outer loop
    vertex 21.083493313075273 0.0 7.775702901627077
    vertex 23.025 8.136456999999995 6.971504500464855
    vertex 23.025 0.0 6.971504500464815
  endloop
endfacet
facet normal 0.13052619222005576 0.9914448613738098 0.0
  outer loop
    vertex 32.58588952783593 2.1212646779374604 3.000000000000096
    vertex 32.999999999999986 2.066745999999965 1.0151879337172431e-13
    vertex 32.58588952783593 2.1212646779374604 1.0151879337172431e-13
  endloop
endfacet
facet normal 0.13052619222005576 0.9914448613738098 0.0
  outer loop
    vertex 32.999999999999986 2.066745999999965 1.0151879337172431e-13
    vertex 32.58588952783593 2.1212646779374604 3.000000000000096
    vertex 32.999999999999986 2.066745999999965 3.000000000000096
  endloop
endfacet
facet normal -0.13052619222004716 0.0 -0.9914448613738112
  outer loop
    vertex 21.083493313075273 8.136456999999995 7.775702901627116
    vertex 18.999999999999964 0.0 8.05000000000007
    vertex 18.999999999999964 8.136456999999995 8.050000000000109
  endloop
endfacet
facet normal -0.13052619222004716 0.0 -0.9914448613738112
  outer loop
    vertex 18.999999999999964 0.0 8.05000000000007
    vertex 21.083493313075273 8.136456999999995 7.775702901627116
    vertex 21.083493313075273 0.0 7.775702901627077
  endloop
endfacet
facet normal 0.9238795325113438 0.38268343236495234 0.0
  outer loop
    vertex 3.454518677937557 3.252635527835953 1.0151879337172431e-13
    vertex 3.614359353944906 2.8667459999999636 3.000000000000096
    vertex 3.614359353944906 2.8667459999999636 1.0151879337172431e-13
  endloop
endfacet
facet normal 0.9238795325113438 0.38268343236495234 0.0
  outer loop
    vertex 3.614359353944906 2.8667459999999636 3.000000000000096
    vertex 3.454518677937557 3.252635527835953 1.0151879337172431e-13
    vertex 3.454518677937557 3.252635527835953 3.000000000000096
  endloop
endfacet
facet normal 0.38268343236508284 -0.9238795325112897 0.0
  outer loop
    vertex 4.585889527835982 5.212227322062486 3.000000000000096
    vertex 4.2000000000000375 5.0523866460550915 1.0151879337172431e-13
    vertex 4.585889527835982 5.212227322062486 1.0151879337172431e-13
  endloop
endfacet
facet normal 0.38268343236508284 -0.9238795325112897 0.0
  outer loop
    vertex 4.2000000000000375 5.0523866460550915 1.0151879337172431e-13
    vertex 4.585889527835982 5.212227322062486 3.000000000000096
    vertex 4.2000000000000375 5.0523866460550915 3.000000000000096
  endloop
endfacet
facet normal 0.382683432365089 0.0 -0.9238795325112871
  outer loop
    vertex 16.916506686924702 8.136456999999995 7.775702901627105
    vertex 14.974999999999978 0.0 6.971504500464793
    vertex 14.974999999999978 8.136456999999995 6.971504500464832
  endloop
endfacet
facet normal 0.382683432365089 0.0 -0.9238795325112871
  outer loop
    vertex 14.974999999999978 0.0 6.971504500464793
    vertex 16.916506686924702 8.136456999999995 7.775702901627105
    vertex 16.916506686924702 0.0 7.775702901627065
  endloop
endfacet
facet normal 0.13052619222005518 0.0 -0.99144486137381
  outer loop
    vertex 18.999999999999964 8.136456999999995 8.050000000000109
    vertex 16.916506686924702 0.0 7.775702901627065
    vertex 16.916506686924702 8.136456999999995 7.775702901627105
  endloop
endfacet
facet normal 0.13052619222005518 0.0 -0.99144486137381
  outer loop
    vertex 16.916506686924702 0.0 7.775702901627065
    vertex 18.999999999999964 8.136456999999995 8.050000000000109
    vertex 18.999999999999964 0.0 8.05000000000007
  endloop
endfacet
facet normal 0.7933533402912334 0.0 -0.608761429008723
  outer loop
    vertex 12.028495499535268 8.136456999999995 4.025000000000088
    vertex 13.307790411448304 0.0 5.692209588551761
    vertex 12.028495499535268 0.0 4.025000000000047
  endloop
endfacet
facet normal 0.7933533402912334 0.0 -0.608761429008723
  outer loop
    vertex 13.307790411448304 0.0 5.692209588551761
    vertex 12.028495499535268 8.136456999999995 4.025000000000088
    vertex 13.307790411448304 8.136456999999995 5.692209588551802
  endloop
endfacet
facet normal 0.6087614290087303 0.0 -0.7933533402912277
  outer loop
    vertex 14.974999999999978 8.136456999999995 6.971504500464832
    vertex 13.307790411448304 0.0 5.692209588551761
    vertex 13.307790411448304 8.136456999999995 5.692209588551802
  endloop
endfacet
facet normal 0.6087614290087303 0.0 -0.7933533402912277
  outer loop
    vertex 13.307790411448304 0.0 5.692209588551761
    vertex 14.974999999999978 8.136456999999995 6.971504500464832
    vertex 14.974999999999978 0.0 6.971504500464793
  endloop
endfacet
facet normal 0.1305261922200474 0.0 0.9914448613738109
  outer loop
    vertex 21.947922334749975 4.511946372076636e-14 11.001795930054211
    vertex 18.999999999999922 8.136456999999995 11.38989726811775
    vertex 18.999999999999922 4.511946372076636e-14 11.38989726811771
  endloop
endfacet
facet normal 0.1305261922200474 0.0 0.9914448613738109
  outer loop
    vertex 18.999999999999922 8.136456999999995 11.38989726811775
    vertex 21.947922334749975 4.511946372076636e-14 11.001795930054211
    vertex 21.947922334749975 8.136456999999995 11.00179593005425
  endloop
endfacet
facet normal 0.6087614290087094 0.7933533402912438 0.0
  outer loop
    vertex 31.868629150101516 2.5353751501014923 3.000000000000096
    vertex 32.19999999999999 2.2811053539448776 1.0151879337172431e-13
    vertex 31.868629150101516 2.5353751501014923 1.0151879337172431e-13
  endloop
endfacet
facet normal 0.6087614290087094 0.7933533402912438 0.0
  outer loop
    vertex 32.19999999999999 2.2811053539448776 1.0151879337172431e-13
    vertex 31.868629150101516 2.5353751501014923 3.000000000000096
    vertex 32.19999999999999 2.2811053539448776 3.000000000000096
  endloop
endfacet
facet normal -0.9914448613738107 0.0 -0.1305261922200507
  outer loop
    vertex 26.77570290162698 8.136456999999995 2.083493313075422
    vertex 27.049999999999983 0.0 4.458649739050827e-14
    vertex 26.77570290162698 0.0 2.0834933130753823
  endloop
endfacet
facet normal -0.9914448613738107 0.0 -0.1305261922200507
  outer loop
    vertex 27.049999999999983 0.0 4.458649739050827e-14
    vertex 26.77570290162698 8.136456999999995 2.083493313075422
    vertex 27.049999999999983 8.136456999999995 8.459899447643693e-14
  endloop
endfacet
facet normal 0.38268343236508473 0.0 0.923879532511289
  outer loop
    vertex 24.69494863405879 4.511946372076636e-14 9.863940380684944
    vertex 21.947922334749975 8.136456999999995 11.00179593005425
    vertex 21.947922334749975 4.511946372076636e-14 11.001795930054211
  endloop
endfacet
facet normal 0.38268343236508473 0.0 0.923879532511289
  outer loop
    vertex 21.947922334749975 8.136456999999995 11.00179593005425
    vertex 24.69494863405879 4.511946372076636e-14 9.863940380684944
    vertex 24.69494863405879 8.136456999999995 9.863940380684983
  endloop
endfacet
facet normal 0.9214708870949468 1.1460374955839017e-18 0.3884474278926964
  outer loop
    vertex 29.99999999999999 8.136456999999995 3.000000000000096
    vertex 28.863940380684834 4.511946372076636e-14 5.6949486340588775
    vertex 29.99999999999999 0.0 3.0000000000000564
  endloop
endfacet
facet normal 0.9214708870949468 1.1460374955839017e-18 0.3884474278926964
  outer loop
    vertex 28.863940380684834 4.511946372076636e-14 5.6949486340588775
    vertex 29.99999999999999 8.136456999999995 3.000000000000096
    vertex 28.863940380684834 8.136456999999995 5.694948634058918
  endloop
endfacet
facet normal -0.13052619222010886 0.9914448613738028 0.0
  outer loop
    vertex 5.0000000000000355 2.066745999999965 3.000000000000096
    vertex 5.41411047216409 2.121264677937483 1.0151879337172431e-13
    vertex 5.0000000000000355 2.066745999999965 1.0151879337172431e-13
  endloop
endfacet
facet normal -0.13052619222010886 0.9914448613738028 0.0
  outer loop
    vertex 5.41411047216409 2.121264677937483 1.0151879337172431e-13
    vertex 5.0000000000000355 2.066745999999965 3.000000000000096
    vertex 5.41411047216409 2.121264677937483 3.000000000000096
  endloop
endfacet
facet normal 0.923879532511286 0.0 -0.38268343236509184
  outer loop
    vertex 11.224297098372995 8.136456999999995 2.0834933130753823
    vertex 12.028495499535268 0.0 4.025000000000047
    vertex 11.224297098372995 0.0 2.083493313075343
  endloop
endfacet
facet normal 0.923879532511286 0.0 -0.38268343236509184
  outer loop
    vertex 12.028495499535268 0.0 4.025000000000047
    vertex 11.224297098372995 8.136456999999995 2.0834933130753823
    vertex 12.028495499535268 8.136456999999995 4.025000000000088
  endloop
endfacet
facet normal -0.9214708870949446 1.389218307155152e-19 0.3884474278927023
  outer loop
    vertex 9.136059619315164 4.511946372076636e-14 5.694948634058884
    vertex 7.999999999999985 8.136456999999995 3.000000000000096
    vertex 7.999999999999985 0.0 3.0000000000000564
  endloop
endfacet
facet normal -0.9214708870949446 1.389218307155152e-19 0.3884474278927023
  outer loop
    vertex 7.999999999999985 8.136456999999995 3.000000000000096
    vertex 9.136059619315164 4.511946372076636e-14 5.694948634058884
    vertex 9.136059619315164 8.136456999999995 5.694948634058925
  endloop
endfacet
facet normal -0.6087614290087305 0.0 0.7933533402912275
  outer loop
    vertex 13.305051365941162 4.511946372076636e-14 9.86394038068491
    vertex 10.946126404695875 8.136456999999995 8.05387359530417
    vertex 10.946126404695875 4.511946372076636e-14 8.05387359530413
  endloop
endfacet
facet normal -0.6087614290087305 0.0 0.7933533402912275
  outer loop
    vertex 10.946126404695875 8.136456999999995 8.05387359530417
    vertex 13.305051365941162 4.511946372076636e-14 9.86394038068491
    vertex 13.305051365941162 8.136456999999995 9.86394038068495
  endloop
endfacet
facet normal 1.0 0.0 0.0
  outer loop
    vertex 37.99999999999998 8.136456999999995 9.023892744153272e-14
    vertex 37.99999999999998 1.127986593019159e-14 3.000000000000096
    vertex 37.99999999999998 1.127986593019159e-14 9.023892744153272e-14
  endloop
endfacet
facet normal 1.0 0.0 0.0
  outer loop
    vertex 37.99999999999998 1.127986593019159e-14 3.000000000000096
    vertex 37.99999999999998 8.136456999999995 9.023892744153272e-14
    vertex 37.99999999999998 8.136456999999995 3.000000000000096
  endloop
endfacet
facet normal -0.7933533402912337 0.0 0.6087614290087225
  outer loop
    vertex 10.946126404695875 8.136456999999995 8.05387359530417
    vertex 9.136059619315164 4.511946372076636e-14 5.694948634058884
    vertex 10.946126404695875 4.511946372076636e-14 8.05387359530413
  endloop
endfacet
facet normal -0.7933533402912337 0.0 0.6087614290087225
  outer loop
    vertex 9.136059619315164 4.511946372076636e-14 5.694948634058884
    vertex 10.946126404695875 8.136456999999995 8.05387359530417
    vertex 9.136059619315164 8.136456999999995 5.694948634058925
  endloop
endfacet
facet normal 0.9914448613738028 -0.13052619222010886 0.0
  outer loop
    vertex 3.454518677937557 4.080856472164016 1.0151879337172431e-13
    vertex 3.400000000000039 3.666745999999962 3.000000000000096
    vertex 3.400000000000039 3.666745999999962 1.0151879337172431e-13
  endloop
endfacet
facet normal 0.9914448613738028 -0.13052619222010886 0.0
  outer loop
    vertex 3.400000000000039 3.666745999999962 3.000000000000096
    vertex 3.454518677937557 4.080856472164016 1.0151879337172431e-13
    vertex 3.454518677937557 4.080856472164016 3.000000000000096
  endloop
endfacet
facet normal -0.9238795325113278 -0.38268343236499064 0.0
  outer loop
    vertex 34.385640646055116 4.466745999999961 3.000000000000096
    vertex 34.545481322062464 4.080856472164016 1.0151879337172431e-13
    vertex 34.545481322062464 4.080856472164016 3.000000000000096
  endloop
endfacet
facet normal -0.9238795325113278 -0.38268343236499064 0.0
  outer loop
    vertex 34.545481322062464 4.080856472164016 1.0151879337172431e-13
    vertex 34.385640646055116 4.466745999999961 3.000000000000096
    vertex 34.385640646055116 4.466745999999961 1.0151879337172431e-13
  endloop
endfacet
facet normal 6.5939425473909786e-15 -6.739816431391764e-17 -1.0
  outer loop
    vertex 4.019509380703351e-30 8.136456999999995 4.8217795362289506e-30
    vertex 3.454518677937557 4.080856472164016 1.0151879337172431e-13
    vertex 3.400000000000039 3.666745999999962 1.0151879337172431e-13
  endloop
endfacet
facet normal 6.5939425473909786e-15 -6.739816431391764e-17 -1.0
  outer loop
    vertex 3.454518677937557 4.080856472164016 1.0151879337172431e-13
    vertex 4.019509380703351e-30 8.136456999999995 4.8217795362289506e-30
    vertex 3.614359353944906 4.466745999999961 1.0151879337172431e-13
  endloop
endfacet
facet normal 6.5939425473909786e-15 -6.739816431391764e-17 -1.0
  outer loop
    vertex 3.614359353944906 4.466745999999961 1.0151879337172431e-13
    vertex 4.019509380703351e-30 8.136456999999995 4.8217795362289506e-30
    vertex 3.868629150101566 4.798116849898432 1.0151879337172431e-13
  endloop
endfacet
facet normal 6.5939425473909786e-15 -6.739816431391764e-17 -1.0
  outer loop
    vertex 3.868629150101566 4.798116849898432 1.0151879337172431e-13
    vertex 4.019509380703351e-30 8.136456999999995 4.8217795362289506e-30
    vertex 4.2000000000000375 5.0523866460550915 1.0151879337172431e-13
  endloop
endfacet
facet normal 6.5939425473909786e-15 -6.739816431391764e-17 -1.0
  outer loop
    vertex 4.2000000000000375 5.0523866460550915 1.0151879337172431e-13
    vertex 4.019509380703351e-30 8.136456999999995 4.8217795362289506e-30
    vertex 10.94999999999999 8.136456999999995 9.023892744153272e-14
  endloop
endfacet
facet normal 6.5939425473909786e-15 -6.739816431391764e-17 -1.0
  outer loop
    vertex 4.2000000000000375 5.0523866460550915 1.0151879337172431e-13
    vertex 10.94999999999999 8.136456999999995 9.023892744153272e-14
    vertex 4.585889527835982 5.212227322062486 1.0151879337172431e-13
  endloop
endfacet
facet normal 6.5939425473909786e-15 -6.739816431391764e-17 -1.0
  outer loop
    vertex 4.585889527835982 5.212227322062486 1.0151879337172431e-13
    vertex 10.94999999999999 8.136456999999995 9.023892744153272e-14
    vertex 5.0000000000000355 5.2667459999999595 1.0151879337172431e-13
  endloop
endfacet
facet normal 6.5939425473909786e-15 -6.739816431391764e-17 -1.0
  outer loop
    vertex 5.0000000000000355 5.2667459999999595 1.0151879337172431e-13
    vertex 10.94999999999999 8.136456999999995 9.023892744153272e-14
    vertex 5.41411047216409 5.212227322062486 1.0151879337172431e-13
  endloop
endfacet
facet normal 6.5939425473909786e-15 -6.739816431391764e-17 -1.0
  outer loop
    vertex 5.41411047216409 5.212227322062486 1.0151879337172431e-13
    vertex 10.94999999999999 8.136456999999995 9.023892744153272e-14
    vertex 5.8000000000000345 5.0523866460550915 1.0151879337172431e-13
  endloop
endfacet
facet normal 6.5939425473909786e-15 -6.739816431391764e-17 -1.0
  outer loop
    vertex 5.8000000000000345 5.0523866460550915 1.0151879337172431e-13
    vertex 10.94999999999999 8.136456999999995 9.023892744153272e-14
    vertex 6.131370849898506 4.798116849898432 1.0151879337172431e-13
  endloop
endfacet
facet normal 6.5939425473909786e-15 -6.739816431391764e-17 -1.0
  outer loop
    vertex 6.131370849898506 4.798116849898432 1.0151879337172431e-13
    vertex 10.94999999999999 8.136456999999995 9.023892744153272e-14
    vertex 6.385640646055165 4.466745999999961 1.0151879337172431e-13
  endloop
endfacet
facet normal 6.5939425473909786e-15 -6.739816431391764e-17 -1.0
  outer loop
    vertex 6.385640646055165 4.466745999999961 1.0151879337172431e-13
    vertex 10.94999999999999 8.136456999999995 9.023892744153272e-14
    vertex 6.545481322062515 4.080856472164016 1.0151879337172431e-13
  endloop
endfacet
facet normal 6.5939425473909786e-15 -6.739816431391764e-17 -1.0
  outer loop
    vertex 6.545481322062515 4.080856472164016 1.0151879337172431e-13
    vertex 10.94999999999999 8.136456999999995 9.023892744153272e-14
    vertex 6.600000000000033 3.666745999999962 1.0151879337172431e-13
  endloop
endfacet
facet normal 6.5939425473909786e-15 -6.739816431391764e-17 -1.0
  outer loop
    vertex 0.0 1.127986593019159e-14 0.0
    vertex 3.868629150101566 2.5353751501014923 1.0151879337172431e-13
    vertex 5.999999999999989 1.127986593019159e-14 9.023892744153272e-14
  endloop
endfacet
facet normal 6.5939425473909786e-15 -6.739816431391764e-17 -1.0
  outer loop
    vertex 3.868629150101566 2.5353751501014923 1.0151879337172431e-13
    vertex 0.0 1.127986593019159e-14 0.0
    vertex 3.614359353944906 2.8667459999999636 1.0151879337172431e-13
  endloop
endfacet
facet normal 6.5939425473909786e-15 -6.739816431391764e-17 -1.0
  outer loop
    vertex 3.614359353944906 2.8667459999999636 1.0151879337172431e-13
    vertex 0.0 1.127986593019159e-14 0.0
    vertex 4.019509380703351e-30 8.136456999999995 4.8217795362289506e-30
  endloop
endfacet
facet normal 6.5939425473909786e-15 -6.739816431391764e-17 -1.0
  outer loop
    vertex 3.614359353944906 2.8667459999999636 1.0151879337172431e-13
    vertex 4.019509380703351e-30 8.136456999999995 4.8217795362289506e-30
    vertex 3.454518677937557 3.252635527835953 1.0151879337172431e-13
  endloop
endfacet
facet normal 6.5939425473909786e-15 -6.739816431391764e-17 -1.0
  outer loop
    vertex 3.454518677937557 3.252635527835953 1.0151879337172431e-13
    vertex 4.019509380703351e-30 8.136456999999995 4.8217795362289506e-30
    vertex 3.400000000000039 3.666745999999962 1.0151879337172431e-13
  endloop
endfacet
facet normal 6.5939425473909786e-15 -6.739816431391764e-17 -1.0
  outer loop
    vertex 5.999999999999989 1.127986593019159e-14 9.023892744153272e-14
    vertex 3.868629150101566 2.5353751501014923 1.0151879337172431e-13
    vertex 4.2000000000000375 2.2811053539448776 1.0151879337172431e-13
  endloop
endfacet
facet normal 6.5939425473909786e-15 -6.739816431391764e-17 -1.0
  outer loop
    vertex 5.999999999999989 1.127986593019159e-14 9.023892744153272e-14
    vertex 4.2000000000000375 2.2811053539448776 1.0151879337172431e-13
    vertex 4.585889527835982 2.121264677937483 1.0151879337172431e-13
  endloop
endfacet
facet normal 6.5939425473909786e-15 -6.739816431391764e-17 -1.0
  outer loop
    vertex 5.999999999999989 1.127986593019159e-14 9.023892744153272e-14
    vertex 4.585889527835982 2.121264677937483 1.0151879337172431e-13
    vertex 5.0000000000000355 2.066745999999965 1.0151879337172431e-13
  endloop
endfacet
facet normal 6.5939425473909786e-15 -6.739816431391764e-17 -1.0
  outer loop
    vertex 5.999999999999989 1.127986593019159e-14 9.023892744153272e-14
    vertex 5.0000000000000355 2.066745999999965 1.0151879337172431e-13
    vertex 5.41411047216409 2.121264677937483 1.0151879337172431e-13
  endloop
endfacet
facet normal 6.5939425473909786e-15 -6.739816431391764e-17 -1.0
  outer loop
    vertex 5.999999999999989 1.127986593019159e-14 9.023892744153272e-14
    vertex 5.41411047216409 2.121264677937483 1.0151879337172431e-13
    vertex 5.8000000000000345 2.2811053539448776 1.0151879337172431e-13
  endloop
endfacet
facet normal 6.5939425473909786e-15 -6.739816431391764e-17 -1.0
  outer loop
    vertex 5.999999999999989 1.127986593019159e-14 9.023892744153272e-14
    vertex 5.8000000000000345 2.2811053539448776 1.0151879337172431e-13
    vertex 6.131370849898506 2.5353751501014923 1.0151879337172431e-13
  endloop
endfacet
facet normal 6.5939425473909786e-15 -6.739816431391764e-17 -1.0
  outer loop
    vertex 5.999999999999989 1.127986593019159e-14 9.023892744153272e-14
    vertex 6.131370849898506 2.5353751501014923 1.0151879337172431e-13
    vertex 10.94999999999999 0.0 5.0226430355604066e-14
  endloop
endfacet
facet normal 6.5939425473909786e-15 -6.739816431391764e-17 -1.0
  outer loop
    vertex 10.94999999999999 0.0 5.0226430355604066e-14
    vertex 6.131370849898506 2.5353751501014923 1.0151879337172431e-13
    vertex 6.385640646055165 2.8667459999999636 1.0151879337172431e-13
  endloop
endfacet
facet normal 6.5939425473909786e-15 -6.739816431391764e-17 -1.0
  outer loop
    vertex 10.94999999999999 0.0 5.0226430355604066e-14
    vertex 6.385640646055165 2.8667459999999636 1.0151879337172431e-13
    vertex 6.545481322062515 3.252635527835953 1.0151879337172431e-13
  endloop
endfacet
facet normal 6.5939425473909786e-15 -6.739816431391764e-17 -1.0
  outer loop
    vertex 10.94999999999999 0.0 5.0226430355604066e-14
    vertex 6.545481322062515 3.252635527835953 1.0151879337172431e-13
    vertex 6.600000000000033 3.666745999999962 1.0151879337172431e-13
  endloop
endfacet
facet normal 6.5939425473909786e-15 -6.739816431391764e-17 -1.0
  outer loop
    vertex 10.94999999999999 0.0 5.0226430355604066e-14
    vertex 6.600000000000033 3.666745999999962 1.0151879337172431e-13
    vertex 10.94999999999999 8.136456999999995 9.023892744153272e-14
  endloop
endfacet
facet normal -0.13052619222005576 0.9914448613738098 0.0
  outer loop
    vertex 32.999999999999986 2.066745999999965 3.000000000000096
    vertex 33.41411047216404 2.1212646779374604 1.0151879337172431e-13
    vertex 32.999999999999986 2.066745999999965 1.0151879337172431e-13
  endloop
endfacet
facet normal -0.13052619222005576 0.9914448613738098 0.0
  outer loop
    vertex 33.41411047216404 2.1212646779374604 1.0151879337172431e-13
    vertex 32.999999999999986 2.066745999999965 3.000000000000096
    vertex 33.41411047216404 2.1212646779374604 3.000000000000096
  endloop
endfacet
facet normal -0.13052619222005704 0.0 0.9914448613738097
  outer loop
    vertex 18.999999999999922 4.511946372076636e-14 11.38989726811771
    vertex 16.05207766525 8.136456999999995 11.00179593005424
    vertex 16.05207766525 4.511946372076636e-14 11.0017959300542
  endloop
endfacet
facet normal -0.13052619222005704 0.0 0.9914448613738097
  outer loop
    vertex 16.05207766525 8.136456999999995 11.00179593005424
    vertex 18.999999999999922 4.511946372076636e-14 11.38989726811771
    vertex 18.999999999999922 8.136456999999995 11.38989726811775
  endloop
endfacet
facet normal -0.38268343236508845 0.0 0.9238795325112873
  outer loop
    vertex 16.05207766525 4.511946372076636e-14 11.0017959300542
    vertex 13.305051365941162 8.136456999999995 9.86394038068495
    vertex 13.305051365941162 4.511946372076636e-14 9.86394038068491
  endloop
endfacet
facet normal -0.38268343236508845 0.0 0.9238795325112873
  outer loop
    vertex 13.305051365941162 8.136456999999995 9.86394038068495
    vertex 16.05207766525 4.511946372076636e-14 11.0017959300542
    vertex 16.05207766525 8.136456999999995 11.00179593005424
  endloop
endfacet
facet normal 2.272004598814013e-15 1.4748322760551071e-15 -1.0
  outer loop
    vertex 27.049999999999983 8.136456999999995 8.459899447643693e-14
    vertex 31.868629150101516 4.798116849898432 1.0151879337172431e-13
    vertex 27.049999999999983 0.0 4.458649739050827e-14
  endloop
endfacet
facet normal 2.272004598814013e-15 1.4748322760551071e-15 -1.0
  outer loop
    vertex 31.868629150101516 4.798116849898432 1.0151879337172431e-13
    vertex 27.049999999999983 8.136456999999995 8.459899447643693e-14
    vertex 32.19999999999999 5.0523866460550915 1.0151879337172431e-13
  endloop
endfacet
facet normal 2.272004598814013e-15 1.4748322760551071e-15 -1.0
  outer loop
    vertex 32.19999999999999 5.0523866460550915 1.0151879337172431e-13
    vertex 27.049999999999983 8.136456999999995 8.459899447643693e-14
    vertex 37.99999999999998 8.136456999999995 9.023892744153272e-14
  endloop
endfacet
facet normal 2.272004598814013e-15 1.4748322760551071e-15 -1.0
  outer loop
    vertex 27.049999999999983 0.0 4.458649739050827e-14
    vertex 31.868629150101516 4.798116849898432 1.0151879337172431e-13
    vertex 31.614359353944856 4.466745999999961 1.0151879337172431e-13
  endloop
endfacet
facet normal 2.272004598814013e-15 1.4748322760551071e-15 -1.0
  outer loop
    vertex 27.049999999999983 0.0 4.458649739050827e-14
    vertex 31.614359353944856 4.466745999999961 1.0151879337172431e-13
    vertex 31.454518677937507 4.080856472164016 1.0151879337172431e-13
  endloop
endfacet
facet normal 2.272004598814013e-15 1.4748322760551071e-15 -1.0
  outer loop
    vertex 27.049999999999983 0.0 4.458649739050827e-14
    vertex 31.454518677937507 4.080856472164016 1.0151879337172431e-13
    vertex 31.399999999999988 3.666745999999962 1.0151879337172431e-13
  endloop
endfacet
facet normal 2.272004598814013e-15 1.4748322760551071e-15 -1.0
  outer loop
    vertex 32.19999999999999 5.0523866460550915 1.0151879337172431e-13
    vertex 37.99999999999998 8.136456999999995 9.023892744153272e-14
    vertex 32.58588952783593 5.212227322062486 1.0151879337172431e-13
  endloop
endfacet
facet normal 2.272004598814013e-15 1.4748322760551071e-15 -1.0
  outer loop
    vertex 32.58588952783593 5.212227322062486 1.0151879337172431e-13
    vertex 37.99999999999998 8.136456999999995 9.023892744153272e-14
    vertex 32.999999999999986 5.2667459999999595 1.0151879337172431e-13
  endloop
endfacet
facet normal 2.272004598814013e-15 1.4748322760551071e-15 -1.0
  outer loop
    vertex 32.999999999999986 5.2667459999999595 1.0151879337172431e-13
    vertex 37.99999999999998 8.136456999999995 9.023892744153272e-14
    vertex 33.41411047216404 5.212227322062486 1.0151879337172431e-13
  endloop
endfacet
facet normal 2.272004598814013e-15 1.4748322760551071e-15 -1.0
  outer loop
    vertex 33.41411047216404 5.212227322062486 1.0151879337172431e-13
    vertex 37.99999999999998 8.136456999999995 9.023892744153272e-14
    vertex 33.79999999999998 5.0523866460550915 1.0151879337172431e-13
  endloop
endfacet
facet normal 2.272004598814013e-15 1.4748322760551071e-15 -1.0
  outer loop
    vertex 33.79999999999998 5.0523866460550915 1.0151879337172431e-13
    vertex 37.99999999999998 8.136456999999995 9.023892744153272e-14
    vertex 34.13137084989845 4.798116849898432 1.0151879337172431e-13
  endloop
endfacet
facet normal 2.272004598814013e-15 1.4748322760551071e-15 -1.0
  outer loop
    vertex 34.13137084989845 4.798116849898432 1.0151879337172431e-13
    vertex 37.99999999999998 8.136456999999995 9.023892744153272e-14
    vertex 34.385640646055116 4.466745999999961 1.0151879337172431e-13
  endloop
endfacet
facet normal 2.272004598814013e-15 1.4748322760551071e-15 -1.0
  outer loop
    vertex 34.385640646055116 4.466745999999961 1.0151879337172431e-13
    vertex 37.99999999999998 8.136456999999995 9.023892744153272e-14
    vertex 34.545481322062464 4.080856472164016 1.0151879337172431e-13
  endloop
endfacet
facet normal 2.272004598814013e-15 1.4748322760551071e-15 -1.0
  outer loop
    vertex 34.545481322062464 4.080856472164016 1.0151879337172431e-13
    vertex 37.99999999999998 8.136456999999995 9.023892744153272e-14
    vertex 34.59999999999998 3.666745999999962 1.0151879337172431e-13
  endloop
endfacet
facet normal 2.272004598814013e-15 1.4748322760551071e-15 -1.0
  outer loop
    vertex 27.049999999999983 0.0 4.458649739050827e-14
    vertex 31.454518677937507 3.252635527835953 1.0151879337172431e-13
    vertex 31.999999999999986 1.127986593019159e-14 9.023892744153272e-14
  endloop
endfacet
facet normal 2.272004598814013e-15 1.4748322760551071e-15 -1.0
  outer loop
    vertex 31.454518677937507 3.252635527835953 1.0151879337172431e-13
    vertex 27.049999999999983 0.0 4.458649739050827e-14
    vertex 31.399999999999988 3.666745999999962 1.0151879337172431e-13
  endloop
endfacet
facet normal 2.272004598814013e-15 1.4748322760551071e-15 -1.0
  outer loop
    vertex 31.999999999999986 1.127986593019159e-14 9.023892744153272e-14
    vertex 31.454518677937507 3.252635527835953 1.0151879337172431e-13
    vertex 31.614359353944856 2.8667459999999636 1.0151879337172431e-13
  endloop
endfacet
facet normal 2.272004598814013e-15 1.4748322760551071e-15 -1.0
  outer loop
    vertex 31.999999999999986 1.127986593019159e-14 9.023892744153272e-14
    vertex 31.614359353944856 2.8667459999999636 1.0151879337172431e-13
    vertex 31.868629150101516 2.5353751501014923 1.0151879337172431e-13
  endloop
endfacet
facet normal 2.272004598814013e-15 1.4748322760551071e-15 -1.0
  outer loop
    vertex 31.999999999999986 1.127986593019159e-14 9.023892744153272e-14
    vertex 31.868629150101516 2.5353751501014923 1.0151879337172431e-13
    vertex 32.19999999999999 2.2811053539448776 1.0151879337172431e-13
  endloop
endfacet
facet normal 2.272004598814013e-15 1.4748322760551071e-15 -1.0
  outer loop
    vertex 31.999999999999986 1.127986593019159e-14 9.023892744153272e-14
    vertex 32.19999999999999 2.2811053539448776 1.0151879337172431e-13
    vertex 32.58588952783593 2.1212646779374604 1.0151879337172431e-13
  endloop
endfacet
facet normal 2.272004598814013e-15 1.4748322760551071e-15 -1.0
  outer loop
    vertex 31.999999999999986 1.127986593019159e-14 9.023892744153272e-14
    vertex 32.58588952783593 2.1212646779374604 1.0151879337172431e-13
    vertex 37.99999999999998 1.127986593019159e-14 9.023892744153272e-14
  endloop
endfacet
facet normal 2.272004598814013e-15 1.4748322760551071e-15 -1.0
  outer loop
    vertex 37.99999999999998 1.127986593019159e-14 9.023892744153272e-14
    vertex 32.58588952783593 2.1212646779374604 1.0151879337172431e-13
    vertex 32.999999999999986 2.066745999999965 1.0151879337172431e-13
  endloop
endfacet
facet normal 2.272004598814013e-15 1.4748322760551071e-15 -1.0
  outer loop
    vertex 37.99999999999998 1.127986593019159e-14 9.023892744153272e-14
    vertex 32.999999999999986 2.066745999999965 1.0151879337172431e-13
    vertex 33.41411047216404 2.1212646779374604 1.0151879337172431e-13
  endloop
endfacet
facet normal 2.272004598814013e-15 1.4748322760551071e-15 -1.0
  outer loop
    vertex 37.99999999999998 1.127986593019159e-14 9.023892744153272e-14
    vertex 33.41411047216404 2.1212646779374604 1.0151879337172431e-13
    vertex 33.79999999999998 2.2811053539448776 1.0151879337172431e-13
  endloop
endfacet
facet normal 2.272004598814013e-15 1.4748322760551071e-15 -1.0
  outer loop
    vertex 37.99999999999998 1.127986593019159e-14 9.023892744153272e-14
    vertex 33.79999999999998 2.2811053539448776 1.0151879337172431e-13
    vertex 34.13137084989845 2.5353751501014923 1.0151879337172431e-13
  endloop
endfacet
facet normal 2.272004598814013e-15 1.4748322760551071e-15 -1.0
  outer loop
    vertex 37.99999999999998 1.127986593019159e-14 9.023892744153272e-14
    vertex 34.13137084989845 2.5353751501014923 1.0151879337172431e-13
    vertex 34.385640646055116 2.8667459999999636 1.0151879337172431e-13
  endloop
endfacet
facet normal 2.272004598814013e-15 1.4748322760551071e-15 -1.0
  outer loop
    vertex 37.99999999999998 1.127986593019159e-14 9.023892744153272e-14
    vertex 34.385640646055116 2.8667459999999636 1.0151879337172431e-13
    vertex 34.545481322062464 3.252635527835953 1.0151879337172431e-13
  endloop
endfacet
facet normal 2.272004598814013e-15 1.4748322760551071e-15 -1.0
  outer loop
    vertex 37.99999999999998 1.127986593019159e-14 9.023892744153272e-14
    vertex 34.545481322062464 3.252635527835953 1.0151879337172431e-13
    vertex 34.59999999999998 3.666745999999962 1.0151879337172431e-13
  endloop
endfacet
facet normal 2.272004598814013e-15 1.4748322760551071e-15 -1.0
  outer loop
    vertex 37.99999999999998 1.127986593019159e-14 9.023892744153272e-14
    vertex 34.59999999999998 3.666745999999962 1.0151879337172431e-13
    vertex 37.99999999999998 8.136456999999995 9.023892744153272e-14
  endloop
endfacet
facet normal 0.38268343236512886 0.9238795325112706 0.0
  outer loop
    vertex 32.19999999999999 2.2811053539448776 3.000000000000096
    vertex 32.58588952783593 2.1212646779374604 1.0151879337172431e-13
    vertex 32.19999999999999 2.2811053539448776 1.0151879337172431e-13
  endloop
endfacet
facet normal 0.38268343236512886 0.9238795325112706 0.0
  outer loop
    vertex 32.58588952783593 2.1212646779374604 1.0151879337172431e-13
    vertex 32.19999999999999 2.2811053539448776 3.000000000000096
    vertex 32.58588952783593 2.1212646779374604 3.000000000000096
  endloop
endfacet
facet normal 0.7933533402912426 0.0 0.6087614290087111
  outer loop
    vertex 28.863940380684834 8.136456999999995 5.694948634058918
    vertex 27.053873595304125 4.511946372076636e-14 8.053873595304196
    vertex 28.863940380684834 4.511946372076636e-14 5.6949486340588775
  endloop
endfacet
facet normal 0.7933533402912426 0.0 0.6087614290087111
  outer loop
    vertex 27.053873595304125 4.511946372076636e-14 8.053873595304196
    vertex 28.863940380684834 8.136456999999995 5.694948634058918
    vertex 27.053873595304125 8.136456999999995 8.053873595304236
  endloop
endfacet
facet normal 0.6087614290087775 -0.7933533402911915 0.0
  outer loop
    vertex 4.2000000000000375 5.0523866460550915 3.000000000000096
    vertex 3.868629150101566 4.798116849898432 1.0151879337172431e-13
    vertex 4.2000000000000375 5.0523866460550915 1.0151879337172431e-13
  endloop
endfacet
facet normal 0.6087614290087775 -0.7933533402911915 0.0
  outer loop
    vertex 3.868629150101566 4.798116849898432 1.0151879337172431e-13
    vertex 4.2000000000000375 5.0523866460550915 3.000000000000096
    vertex 3.868629150101566 4.798116849898432 3.000000000000096
  endloop
endfacet
facet normal 0.6087614290087168 0.0 0.7933533402912382
  outer loop
    vertex 27.053873595304125 4.511946372076636e-14 8.053873595304196
    vertex 24.69494863405879 8.136456999999995 9.863940380684983
    vertex 24.69494863405879 4.511946372076636e-14 9.863940380684944
  endloop
endfacet
facet normal 0.6087614290087168 0.0 0.7933533402912382
  outer loop
    vertex 24.69494863405879 8.136456999999995 9.863940380684983
    vertex 27.053873595304125 4.511946372076636e-14 8.053873595304196
    vertex 27.053873595304125 8.136456999999995 8.053873595304236
  endloop
endfacet
facet normal 0.9914448613738103 0.0 -0.13052619222005352
  outer loop
    vertex 10.94999999999999 8.136456999999995 9.023892744153272e-14
    vertex 11.224297098372995 0.0 2.083493313075343
    vertex 10.94999999999999 0.0 5.0226430355604066e-14
  endloop
endfacet
facet normal 0.9914448613738103 0.0 -0.13052619222005352
  outer loop
    vertex 11.224297098372995 0.0 2.083493313075343
    vertex 10.94999999999999 8.136456999999995 9.023892744153272e-14
    vertex 11.224297098372995 8.136456999999995 2.0834933130753823
  endloop
endfacet
facet normal -0.38268343236508284 -0.9238795325112897 0.0
  outer loop
    vertex 33.79999999999998 5.0523866460550915 3.000000000000096
    vertex 33.41411047216404 5.212227322062486 1.0151879337172431e-13
    vertex 33.79999999999998 5.0523866460550915 1.0151879337172431e-13
  endloop
endfacet
facet normal -0.38268343236508284 -0.9238795325112897 0.0
  outer loop
    vertex 33.41411047216404 5.212227322062486 1.0151879337172431e-13
    vertex 33.79999999999998 5.0523866460550915 3.000000000000096
    vertex 33.41411047216404 5.212227322062486 3.000000000000096
  endloop
endfacet
facet normal 0.38268343236508284 0.9238795325112897 0.0
  outer loop
    vertex 4.2000000000000375 2.2811053539448776 3.000000000000096
    vertex 4.585889527835982 2.121264677937483 1.0151879337172431e-13
    vertex 4.2000000000000375 2.2811053539448776 1.0151879337172431e-13
  endloop
endfacet
facet normal 0.38268343236508284 0.9238795325112897 0.0
  outer loop
    vertex 4.585889527835982 2.121264677937483 1.0151879337172431e-13
    vertex 4.2000000000000375 2.2811053539448776 3.000000000000096
    vertex 4.585889527835982 2.121264677937483 3.000000000000096
  endloop
endfacet
facet normal 0.13052619222000267 -0.9914448613738168 0.0
  outer loop
    vertex 32.999999999999986 5.2667459999999595 3.000000000000096
    vertex 32.58588952783593 5.212227322062486 1.0151879337172431e-13
    vertex 32.999999999999986 5.2667459999999595 1.0151879337172431e-13
  endloop
endfacet
facet normal 0.13052619222000267 -0.9914448613738168 0.0
  outer loop
    vertex 32.58588952783593 5.212227322062486 1.0151879337172431e-13
    vertex 32.999999999999986 5.2667459999999595 3.000000000000096
    vertex 32.58588952783593 5.212227322062486 3.000000000000096
  endloop
endfacet
facet normal 0.9238795325113278 -0.38268343236499064 0.0
  outer loop
    vertex 31.614359353944856 4.466745999999961 1.0151879337172431e-13
    vertex 31.454518677937507 4.080856472164016 3.000000000000096
    vertex 31.454518677937507 4.080856472164016 1.0151879337172431e-13
  endloop
endfacet
facet normal 0.9238795325113278 -0.38268343236499064 0.0
  outer loop
    vertex 31.454518677937507 4.080856472164016 3.000000000000096
    vertex 31.614359353944856 4.466745999999961 1.0151879337172431e-13
    vertex 31.614359353944856 4.466745999999961 3.000000000000096
  endloop
endfacet
facet normal -1.973976537783531e-15 -1.4556531456752252e-15 1.0
  outer loop
    vertex 31.999999999999986 1.127986593019159e-14 3.000000000000096
    vertex 29.99999999999999 8.136456999999995 3.000000000000096
    vertex 29.99999999999999 0.0 3.0000000000000564
  endloop
endfacet
facet normal -1.973976537783531e-15 -1.4556531456752252e-15 1.0
  outer loop
    vertex 29.99999999999999 8.136456999999995 3.000000000000096
    vertex 31.999999999999986 1.127986593019159e-14 3.000000000000096
    vertex 31.454518677937507 3.252635527835953 3.000000000000096
  endloop
endfacet
facet normal -1.973976537783531e-15 -1.4556531456752252e-15 1.0
  outer loop
    vertex 29.99999999999999 8.136456999999995 3.000000000000096
    vertex 31.454518677937507 3.252635527835953 3.000000000000096
    vertex 31.399999999999988 3.666745999999962 3.000000000000096
  endloop
endfacet
facet normal -1.973976537783531e-15 -1.4556531456752252e-15 1.0
  outer loop
    vertex 31.454518677937507 3.252635527835953 3.000000000000096
    vertex 31.999999999999986 1.127986593019159e-14 3.000000000000096
    vertex 31.614359353944856 2.8667459999999636 3.000000000000096
  endloop
endfacet
facet normal -1.973976537783531e-15 -1.4556531456752252e-15 1.0
  outer loop
    vertex 31.614359353944856 2.8667459999999636 3.000000000000096
    vertex 31.999999999999986 1.127986593019159e-14 3.000000000000096
    vertex 31.868629150101516 2.5353751501014923 3.000000000000096
  endloop
endfacet
facet normal -1.973976537783531e-15 -1.4556531456752252e-15 1.0
  outer loop
    vertex 31.868629150101516 2.5353751501014923 3.000000000000096
    vertex 31.999999999999986 1.127986593019159e-14 3.000000000000096
    vertex 32.19999999999999 2.2811053539448776 3.000000000000096
  endloop
endfacet
facet normal -1.973976537783531e-15 -1.4556531456752252e-15 1.0
  outer loop
    vertex 32.19999999999999 2.2811053539448776 3.000000000000096
    vertex 31.999999999999986 1.127986593019159e-14 3.000000000000096
    vertex 32.58588952783593 2.1212646779374604 3.000000000000096
  endloop
endfacet
facet normal -1.973976537783531e-15 -1.4556531456752252e-15 1.0
  outer loop
    vertex 32.58588952783593 2.1212646779374604 3.000000000000096
    vertex 31.999999999999986 1.127986593019159e-14 3.000000000000096
    vertex 37.99999999999998 1.127986593019159e-14 3.000000000000096
  endloop
endfacet
facet normal -1.973976537783531e-15 -1.4556531456752252e-15 1.0
  outer loop
    vertex 32.58588952783593 2.1212646779374604 3.000000000000096
    vertex 37.99999999999998 1.127986593019159e-14 3.000000000000096
    vertex 32.999999999999986 2.066745999999965 3.000000000000096
  endloop
endfacet
facet normal -1.973976537783531e-15 -1.4556531456752252e-15 1.0
  outer loop
    vertex 32.999999999999986 2.066745999999965 3.000000000000096
    vertex 37.99999999999998 1.127986593019159e-14 3.000000000000096
    vertex 33.41411047216404 2.1212646779374604 3.000000000000096
  endloop
endfacet
facet normal -1.973976537783531e-15 -1.4556531456752252e-15 1.0
  outer loop
    vertex 33.41411047216404 2.1212646779374604 3.000000000000096
    vertex 37.99999999999998 1.127986593019159e-14 3.000000000000096
    vertex 33.79999999999998 2.2811053539448776 3.000000000000096
  endloop
endfacet
facet normal -1.973976537783531e-15 -1.4556531456752252e-15 1.0
  outer loop
    vertex 33.79999999999998 2.2811053539448776 3.000000000000096
    vertex 37.99999999999998 1.127986593019159e-14 3.000000000000096
    vertex 34.13137084989845 2.5353751501014923 3.000000000000096
  endloop
endfacet
facet normal -1.973976537783531e-15 -1.4556531456752252e-15 1.0
  outer loop
    vertex 34.13137084989845 2.5353751501014923 3.000000000000096
    vertex 37.99999999999998 1.127986593019159e-14 3.000000000000096
    vertex 34.385640646055116 2.8667459999999636 3.000000000000096
  endloop
endfacet
facet normal -1.973976537783531e-15 -1.4556531456752252e-15 1.0
  outer loop
    vertex 34.385640646055116 2.8667459999999636 3.000000000000096
    vertex 37.99999999999998 1.127986593019159e-14 3.000000000000096
    vertex 34.545481322062464 3.252635527835953 3.000000000000096
  endloop
endfacet
facet normal -1.973976537783531e-15 -1.4556531456752252e-15 1.0
  outer loop
    vertex 34.545481322062464 3.252635527835953 3.000000000000096
    vertex 37.99999999999998 1.127986593019159e-14 3.000000000000096
    vertex 34.59999999999998 3.666745999999962 3.000000000000096
  endloop
endfacet
facet normal -1.973976537783531e-15 -1.4556531456752252e-15 1.0
  outer loop
    vertex 29.99999999999999 8.136456999999995 3.000000000000096
    vertex 32.19999999999999 5.0523866460550915 3.000000000000096
    vertex 37.99999999999998 8.136456999999995 3.000000000000096
  endloop
endfacet
facet normal -1.973976537783531e-15 -1.4556531456752252e-15 1.0
  outer loop
    vertex 32.19999999999999 5.0523866460550915 3.000000000000096
    vertex 29.99999999999999 8.136456999999995 3.000000000000096
    vertex 31.868629150101516 4.798116849898432 3.000000000000096
  endloop
endfacet
facet normal -1.973976537783531e-15 -1.4556531456752252e-15 1.0
  outer loop
    vertex 31.868629150101516 4.798116849898432 3.000000000000096
    vertex 29.99999999999999 8.136456999999995 3.000000000000096
    vertex 31.614359353944856 4.466745999999961 3.000000000000096
  endloop
endfacet
facet normal -1.973976537783531e-15 -1.4556531456752252e-15 1.0
  outer loop
    vertex 31.614359353944856 4.466745999999961 3.000000000000096
    vertex 29.99999999999999 8.136456999999995 3.000000000000096
    vertex 31.454518677937507 4.080856472164016 3.000000000000096
  endloop
endfacet
facet normal -1.973976537783531e-15 -1.4556531456752252e-15 1.0
  outer loop
    vertex 31.454518677937507 4.080856472164016 3.000000000000096
    vertex 29.99999999999999 8.136456999999995 3.000000000000096
    vertex 31.399999999999988 3.666745999999962 3.000000000000096
  endloop
endfacet
facet normal -1.973976537783531e-15 -1.4556531456752252e-15 1.0
  outer loop
    vertex 37.99999999999998 8.136456999999995 3.000000000000096
    vertex 32.19999999999999 5.0523866460550915 3.000000000000096
    vertex 32.58588952783593 5.212227322062486 3.000000000000096
  endloop
endfacet
facet normal -1.973976537783531e-15 -1.4556531456752252e-15 1.0
  outer loop
    vertex 37.99999999999998 8.136456999999995 3.000000000000096
    vertex 32.58588952783593 5.212227322062486 3.000000000000096
    vertex 32.999999999999986 5.2667459999999595 3.000000000000096
  endloop
endfacet
facet normal -1.973976537783531e-15 -1.4556531456752252e-15 1.0
  outer loop
    vertex 37.99999999999998 8.136456999999995 3.000000000000096
    vertex 32.999999999999986 5.2667459999999595 3.000000000000096
    vertex 33.41411047216404 5.212227322062486 3.000000000000096
  endloop
endfacet
facet normal -1.973976537783531e-15 -1.4556531456752252e-15 1.0
  outer loop
    vertex 37.99999999999998 8.136456999999995 3.000000000000096
    vertex 33.41411047216404 5.212227322062486 3.000000000000096
    vertex 33.79999999999998 5.0523866460550915 3.000000000000096
  endloop
endfacet
facet normal -1.973976537783531e-15 -1.4556531456752252e-15 1.0
  outer loop
    vertex 37.99999999999998 8.136456999999995 3.000000000000096
    vertex 33.79999999999998 5.0523866460550915 3.000000000000096
    vertex 34.13137084989845 4.798116849898432 3.000000000000096
  endloop
endfacet
facet normal -1.973976537783531e-15 -1.4556531456752252e-15 1.0
  outer loop
    vertex 37.99999999999998 8.136456999999995 3.000000000000096
    vertex 34.13137084989845 4.798116849898432 3.000000000000096
    vertex 34.385640646055116 4.466745999999961 3.000000000000096
  endloop
endfacet
facet normal -1.973976537783531e-15 -1.4556531456752252e-15 1.0
  outer loop
    vertex 37.99999999999998 8.136456999999995 3.000000000000096
    vertex 34.385640646055116 4.466745999999961 3.000000000000096
    vertex 34.545481322062464 4.080856472164016 3.000000000000096
  endloop
endfacet
facet normal -1.973976537783531e-15 -1.4556531456752252e-15 1.0
  outer loop
    vertex 37.99999999999998 8.136456999999995 3.000000000000096
    vertex 34.545481322062464 4.080856472164016 3.000000000000096
    vertex 34.59999999999998 3.666745999999962 3.000000000000096
  endloop
endfacet
facet normal -1.973976537783531e-15 -1.4556531456752252e-15 1.0
  outer loop
    vertex 37.99999999999998 8.136456999999995 3.000000000000096
    vertex 34.59999999999998 3.666745999999962 3.000000000000096
    vertex 37.99999999999998 1.127986593019159e-14 3.000000000000096
  endloop
endfacet
facet normal 0.9914448613738028 -0.13052619222010886 0.0
  outer loop
    vertex 31.454518677937507 4.080856472164016 1.0151879337172431e-13
    vertex 31.399999999999988 3.666745999999962 3.000000000000096
    vertex 31.399999999999988 3.666745999999962 1.0151879337172431e-13
  endloop
endfacet
facet normal 0.9914448613738028 -0.13052619222010886 0.0
  outer loop
    vertex 31.399999999999988 3.666745999999962 3.000000000000096
    vertex 31.454518677937507 4.080856472164016 1.0151879337172431e-13
    vertex 31.454518677937507 4.080856472164016 3.000000000000096
  endloop
endfacet
facet normal 0.7933533402911915 -0.6087614290087775 0.0
  outer loop
    vertex 31.868629150101516 4.798116849898432 1.0151879337172431e-13
    vertex 31.614359353944856 4.466745999999961 3.000000000000096
    vertex 31.614359353944856 4.466745999999961 1.0151879337172431e-13
  endloop
endfacet
facet normal 0.7933533402911915 -0.6087614290087775 0.0
  outer loop
    vertex 31.614359353944856 4.466745999999961 3.000000000000096
    vertex 31.868629150101516 4.798116849898432 1.0151879337172431e-13
    vertex 31.868629150101516 4.798116849898432 3.000000000000096
  endloop
endfacet
facet normal -0.38268343236508284 0.9238795325112897 0.0
  outer loop
    vertex 5.41411047216409 2.121264677937483 3.000000000000096
    vertex 5.8000000000000345 2.2811053539448776 1.0151879337172431e-13
    vertex 5.41411047216409 2.121264677937483 1.0151879337172431e-13
  endloop
endfacet
facet normal -0.38268343236508284 0.9238795325112897 0.0
  outer loop
    vertex 5.8000000000000345 2.2811053539448776 1.0151879337172431e-13
    vertex 5.41411047216409 2.121264677937483 3.000000000000096
    vertex 5.8000000000000345 2.2811053539448776 3.000000000000096
  endloop
endfacet
facet normal -0.9238795325113278 -0.38268343236499064 0.0
  outer loop
    vertex 6.385640646055165 4.466745999999961 3.000000000000096
    vertex 6.545481322062515 4.080856472164016 1.0151879337172431e-13
    vertex 6.545481322062515 4.080856472164016 3.000000000000096
  endloop
endfacet
facet normal -0.9238795325113278 -0.38268343236499064 0.0
  outer loop
    vertex 6.545481322062515 4.080856472164016 1.0151879337172431e-13
    vertex 6.385640646055165 4.466745999999961 3.000000000000096
    vertex 6.385640646055165 4.466745999999961 1.0151879337172431e-13
  endloop
endfacet
facet normal -9.75708402961585e-15 -5.683978949779385e-16 1.0
  outer loop
    vertex 9.023892744153272e-14 1.127986593019159e-14 3.0000000000000058
    vertex 3.614359353944906 2.8667459999999636 3.000000000000096
    vertex 9.023892744153272e-14 8.136456999999995 3.0000000000000058
  endloop
endfacet
facet normal -9.75708402961585e-15 -5.683978949779385e-16 1.0
  outer loop
    vertex 3.614359353944906 2.8667459999999636 3.000000000000096
    vertex 9.023892744153272e-14 1.127986593019159e-14 3.0000000000000058
    vertex 3.868629150101566 2.5353751501014923 3.000000000000096
  endloop
endfacet
facet normal -9.75708402961585e-15 -5.683978949779385e-16 1.0
  outer loop
    vertex 3.868629150101566 2.5353751501014923 3.000000000000096
    vertex 9.023892744153272e-14 1.127986593019159e-14 3.0000000000000058
    vertex 5.999999999999989 1.127986593019159e-14 3.000000000000096
  endloop
endfacet
facet normal -9.75708402961585e-15 -5.683978949779385e-16 1.0
  outer loop
    vertex 9.023892744153272e-14 8.136456999999995 3.0000000000000058
    vertex 3.614359353944906 2.8667459999999636 3.000000000000096
    vertex 3.454518677937557 3.252635527835953 3.000000000000096
  endloop
endfacet
facet normal -9.75708402961585e-15 -5.683978949779385e-16 1.0
  outer loop
    vertex 9.023892744153272e-14 8.136456999999995 3.0000000000000058
    vertex 3.454518677937557 3.252635527835953 3.000000000000096
    vertex 3.400000000000039 3.666745999999962 3.000000000000096
  endloop
endfacet
facet normal -9.75708402961585e-15 -5.683978949779385e-16 1.0
  outer loop
    vertex 3.868629150101566 2.5353751501014923 3.000000000000096
    vertex 5.999999999999989 1.127986593019159e-14 3.000000000000096
    vertex 4.2000000000000375 2.2811053539448776 3.000000000000096
  endloop
endfacet
facet normal -9.75708402961585e-15 -5.683978949779385e-16 1.0
  outer loop
    vertex 4.2000000000000375 2.2811053539448776 3.000000000000096
    vertex 5.999999999999989 1.127986593019159e-14 3.000000000000096
    vertex 4.585889527835982 2.121264677937483 3.000000000000096
  endloop
endfacet
facet normal -9.75708402961585e-15 -5.683978949779385e-16 1.0
  outer loop
    vertex 4.585889527835982 2.121264677937483 3.000000000000096
    vertex 5.999999999999989 1.127986593019159e-14 3.000000000000096
    vertex 5.0000000000000355 2.066745999999965 3.000000000000096
  endloop
endfacet
facet normal -9.75708402961585e-15 -5.683978949779385e-16 1.0
  outer loop
    vertex 5.0000000000000355 2.066745999999965 3.000000000000096
    vertex 5.999999999999989 1.127986593019159e-14 3.000000000000096
    vertex 5.41411047216409 2.121264677937483 3.000000000000096
  endloop
endfacet
facet normal -9.75708402961585e-15 -5.683978949779385e-16 1.0
  outer loop
    vertex 5.41411047216409 2.121264677937483 3.000000000000096
    vertex 5.999999999999989 1.127986593019159e-14 3.000000000000096
    vertex 5.8000000000000345 2.2811053539448776 3.000000000000096
  endloop
endfacet
facet normal -9.75708402961585e-15 -5.683978949779385e-16 1.0
  outer loop
    vertex 5.8000000000000345 2.2811053539448776 3.000000000000096
    vertex 5.999999999999989 1.127986593019159e-14 3.000000000000096
    vertex 6.131370849898506 2.5353751501014923 3.000000000000096
  endloop
endfacet
facet normal -9.75708402961585e-15 -5.683978949779385e-16 1.0
  outer loop
    vertex 6.131370849898506 2.5353751501014923 3.000000000000096
    vertex 5.999999999999989 1.127986593019159e-14 3.000000000000096
    vertex 7.999999999999985 0.0 3.0000000000000564
  endloop
endfacet
facet normal -9.75708402961585e-15 -5.683978949779385e-16 1.0
  outer loop
    vertex 6.131370849898506 2.5353751501014923 3.000000000000096
    vertex 7.999999999999985 0.0 3.0000000000000564
    vertex 6.385640646055165 2.8667459999999636 3.000000000000096
  endloop
endfacet
facet normal -9.75708402961585e-15 -5.683978949779385e-16 1.0
  outer loop
    vertex 6.385640646055165 2.8667459999999636 3.000000000000096
    vertex 7.999999999999985 0.0 3.0000000000000564
    vertex 6.545481322062515 3.252635527835953 3.000000000000096
  endloop
endfacet
facet normal -9.75708402961585e-15 -5.683978949779385e-16 1.0
  outer loop
    vertex 6.545481322062515 3.252635527835953 3.000000000000096
    vertex 7.999999999999985 0.0 3.0000000000000564
    vertex 6.600000000000033 3.666745999999962 3.000000000000096
  endloop
endfacet
facet normal -9.75708402961585e-15 -5.683978949779385e-16 1.0
  outer loop
    vertex 9.023892744153272e-14 8.136456999999995 3.0000000000000058
    vertex 3.868629150101566 4.798116849898432 3.000000000000096
    vertex 7.999999999999985 8.136456999999995 3.000000000000096
  endloop
endfacet
facet normal -9.75708402961585e-15 -5.683978949779385e-16 1.0
  outer loop
    vertex 3.868629150101566 4.798116849898432 3.000000000000096
    vertex 9.023892744153272e-14 8.136456999999995 3.0000000000000058
    vertex 3.614359353944906 4.466745999999961 3.000000000000096
  endloop
endfacet
facet normal -9.75708402961585e-15 -5.683978949779385e-16 1.0
  outer loop
    vertex 3.614359353944906 4.466745999999961 3.000000000000096
    vertex 9.023892744153272e-14 8.136456999999995 3.0000000000000058
    vertex 3.454518677937557 4.080856472164016 3.000000000000096
  endloop
endfacet
facet normal -9.75708402961585e-15 -5.683978949779385e-16 1.0
  outer loop
    vertex 3.454518677937557 4.080856472164016 3.000000000000096
    vertex 9.023892744153272e-14 8.136456999999995 3.0000000000000058
    vertex 3.400000000000039 3.666745999999962 3.000000000000096
  endloop
endfacet
facet normal -9.75708402961585e-15 -5.683978949779385e-16 1.0
  outer loop
    vertex 7.999999999999985 8.136456999999995 3.000000000000096
    vertex 3.868629150101566 4.798116849898432 3.000000000000096
    vertex 4.2000000000000375 5.0523866460550915 3.000000000000096
  endloop
endfacet
facet normal -9.75708402961585e-15 -5.683978949779385e-16 1.0
  outer loop
    vertex 7.999999999999985 8.136456999999995 3.000000000000096
    vertex 4.2000000000000375 5.0523866460550915 3.000000000000096
    vertex 4.585889527835982 5.212227322062486 3.000000000000096
  endloop
endfacet
facet normal -9.75708402961585e-15 -5.683978949779385e-16 1.0
  outer loop
    vertex 7.999999999999985 8.136456999999995 3.000000000000096
    vertex 4.585889527835982 5.212227322062486 3.000000000000096
    vertex 5.0000000000000355 5.2667459999999595 3.000000000000096
  endloop
endfacet
facet normal -9.75708402961585e-15 -5.683978949779385e-16 1.0
  outer loop
    vertex 7.999999999999985 8.136456999999995 3.000000000000096
    vertex 5.0000000000000355 5.2667459999999595 3.000000000000096
    vertex 5.41411047216409 5.212227322062486 3.000000000000096
  endloop
endfacet
facet normal -9.75708402961585e-15 -5.683978949779385e-16 1.0
  outer loop
    vertex 7.999999999999985 8.136456999999995 3.000000000000096
    vertex 5.41411047216409 5.212227322062486 3.000000000000096
    vertex 5.8000000000000345 5.0523866460550915 3.000000000000096
  endloop
endfacet
facet normal -9.75708402961585e-15 -5.683978949779385e-16 1.0
  outer loop
    vertex 7.999999999999985 8.136456999999995 3.000000000000096
    vertex 5.8000000000000345 5.0523866460550915 3.000000000000096
    vertex 6.131370849898506 4.798116849898432 3.000000000000096
  endloop
endfacet
facet normal -9.75708402961585e-15 -5.683978949779385e-16 1.0
  outer loop
    vertex 7.999999999999985 8.136456999999995 3.000000000000096
    vertex 6.131370849898506 4.798116849898432 3.000000000000096
    vertex 6.385640646055165 4.466745999999961 3.000000000000096
  endloop
endfacet
facet normal -9.75708402961585e-15 -5.683978949779385e-16 1.0
  outer loop
    vertex 7.999999999999985 8.136456999999995 3.000000000000096
    vertex 6.385640646055165 4.466745999999961 3.000000000000096
    vertex 6.545481322062515 4.080856472164016 3.000000000000096
  endloop
endfacet
facet normal -9.75708402961585e-15 -5.683978949779385e-16 1.0
  outer loop
    vertex 7.999999999999985 8.136456999999995 3.000000000000096
    vertex 6.545481322062515 4.080856472164016 3.000000000000096
    vertex 6.600000000000033 3.666745999999962 3.000000000000096
  endloop
endfacet
facet normal -9.75708402961585e-15 -5.683978949779385e-16 1.0
  outer loop
    vertex 7.999999999999985 8.136456999999995 3.000000000000096
    vertex 6.600000000000033 3.666745999999962 3.000000000000096
    vertex 7.999999999999985 0.0 3.0000000000000564
  endloop
endfacet
facet normal -1.0 1.4015605235591124e-45 2.2559731860383176e-14
  outer loop
    vertex 9.023892744153272e-14 8.136456999999995 3.0000000000000058
    vertex 0.0 1.127986593019159e-14 0.0
    vertex 9.023892744153272e-14 1.127986593019159e-14 3.0000000000000058
  endloop
endfacet
facet normal -1.0 1.4015605235591124e-45 2.2559731860383176e-14
  outer loop
    vertex 0.0 1.127986593019159e-14 0.0
    vertex 9.023892744153272e-14 8.136456999999995 3.0000000000000058
    vertex 4.019509380703351e-30 8.136456999999995 4.8217795362289506e-30
  endloop
endfacet
facet normal -0.9238795325113438 0.38268343236495234 0.0
  outer loop
    vertex 6.545481322062515 3.252635527835953 3.000000000000096
    vertex 6.385640646055165 2.8667459999999636 1.0151879337172431e-13
    vertex 6.385640646055165 2.8667459999999636 3.000000000000096
  endloop
endfacet
facet normal -0.9238795325113438 0.38268343236495234 0.0
  outer loop
    vertex 6.385640646055165 2.8667459999999636 1.0151879337172431e-13
    vertex 6.545481322062515 3.252635527835953 3.000000000000096
    vertex 6.545481322062515 3.252635527835953 1.0151879337172431e-13
  endloop
endfacet
facet normal -0.6087614290087094 0.7933533402912438 0.0
  outer loop
    vertex 5.8000000000000345 2.2811053539448776 3.000000000000096
    vertex 6.131370849898506 2.5353751501014923 1.0151879337172431e-13
    vertex 5.8000000000000345 2.2811053539448776 1.0151879337172431e-13
  endloop
endfacet
facet normal -0.6087614290087094 0.7933533402912438 0.0
  outer loop
    vertex 6.131370849898506 2.5353751501014923 1.0151879337172431e-13
    vertex 5.8000000000000345 2.2811053539448776 3.000000000000096
    vertex 6.131370849898506 2.5353751501014923 3.000000000000096
  endloop
endfacet
facet normal -0.7933533402911915 0.6087614290087775 0.0
  outer loop
    vertex 34.385640646055116 2.8667459999999636 3.000000000000096
    vertex 34.13137084989845 2.5353751501014923 1.0151879337172431e-13
    vertex 34.13137084989845 2.5353751501014923 3.000000000000096
  endloop
endfacet
facet normal -0.7933533402911915 0.6087614290087775 0.0
  outer loop
    vertex 34.13137084989845 2.5353751501014923 1.0151879337172431e-13
    vertex 34.385640646055116 2.8667459999999636 3.000000000000096
    vertex 34.385640646055116 2.8667459999999636 1.0151879337172431e-13
  endloop
endfacet
facet normal -0.9914448613738028 -0.13052619222010886 0.0
  outer loop
    vertex 34.545481322062464 4.080856472164016 3.000000000000096
    vertex 34.59999999999998 3.666745999999962 1.0151879337172431e-13
    vertex 34.59999999999998 3.666745999999962 3.000000000000096
  endloop
endfacet
facet normal -0.9914448613738028 -0.13052619222010886 0.0
  outer loop
    vertex 34.59999999999998 3.666745999999962 1.0151879337172431e-13
    vertex 34.545481322062464 4.080856472164016 3.000000000000096
    vertex 34.545481322062464 4.080856472164016 1.0151879337172431e-13
  endloop
endfacet
facet normal -0.9914448613738012 0.13052619222012288 0.0
  outer loop
    vertex 34.59999999999998 3.666745999999962 3.000000000000096
    vertex 34.545481322062464 3.252635527835953 1.0151879337172431e-13
    vertex 34.545481322062464 3.252635527835953 3.000000000000096
  endloop
endfacet
facet normal -0.9914448613738012 0.13052619222012288 0.0
  outer loop
    vertex 34.545481322062464 3.252635527835953 1.0151879337172431e-13
    vertex 34.59999999999998 3.666745999999962 3.000000000000096
    vertex 34.59999999999998 3.666745999999962 1.0151879337172431e-13
  endloop
endfacet
facet normal -0.6087614290087775 -0.7933533402911915 0.0
  outer loop
    vertex 34.13137084989845 4.798116849898432 3.000000000000096
    vertex 33.79999999999998 5.0523866460550915 1.0151879337172431e-13
    vertex 34.13137084989845 4.798116849898432 1.0151879337172431e-13
  endloop
endfacet
facet normal -0.6087614290087775 -0.7933533402911915 0.0
  outer loop
    vertex 33.79999999999998 5.0523866460550915 1.0151879337172431e-13
    vertex 34.13137084989845 4.798116849898432 3.000000000000096
    vertex 33.79999999999998 5.0523866460550915 3.000000000000096
  endloop
endfacet
facet normal -0.7933533402911915 -0.6087614290087775 0.0
  outer loop
    vertex 34.13137084989845 4.798116849898432 3.000000000000096
    vertex 34.385640646055116 4.466745999999961 1.0151879337172431e-13
    vertex 34.385640646055116 4.466745999999961 3.000000000000096
  endloop
endfacet
facet normal -0.7933533402911915 -0.6087614290087775 0.0
  outer loop
    vertex 34.385640646055116 4.466745999999961 1.0151879337172431e-13
    vertex 34.13137084989845 4.798116849898432 3.000000000000096
    vertex 34.13137084989845 4.798116849898432 1.0151879337172431e-13
  endloop
endfacet
facet normal -0.6087614290087094 0.7933533402912438 0.0
  outer loop
    vertex 33.79999999999998 2.2811053539448776 3.000000000000096
    vertex 34.13137084989845 2.5353751501014923 1.0151879337172431e-13
    vertex 33.79999999999998 2.2811053539448776 1.0151879337172431e-13
  endloop
endfacet
facet normal -0.6087614290087094 0.7933533402912438 0.0
  outer loop
    vertex 34.13137084989845 2.5353751501014923 1.0151879337172431e-13
    vertex 33.79999999999998 2.2811053539448776 3.000000000000096
    vertex 34.13137084989845 2.5353751501014923 3.000000000000096
  endloop
endfacet
facet normal -0.9238795325113438 0.38268343236495234 0.0
  outer loop
    vertex 34.545481322062464 3.252635527835953 3.000000000000096
    vertex 34.385640646055116 2.8667459999999636 1.0151879337172431e-13
    vertex 34.385640646055116 2.8667459999999636 3.000000000000096
  endloop
endfacet
facet normal -0.9238795325113438 0.38268343236495234 0.0
  outer loop
    vertex 34.385640646055116 2.8667459999999636 1.0151879337172431e-13
    vertex 34.545481322062464 3.252635527835953 3.000000000000096
    vertex 34.545481322062464 3.252635527835953 1.0151879337172431e-13
  endloop
endfacet
facet normal -0.7933533402911915 0.6087614290087775 0.0
  outer loop
    vertex 6.385640646055165 2.8667459999999636 3.000000000000096
    vertex 6.131370849898506 2.5353751501014923 1.0151879337172431e-13
    vertex 6.131370849898506 2.5353751501014923 3.000000000000096
  endloop
endfacet
facet normal -0.7933533402911915 0.6087614290087775 0.0
  outer loop
    vertex 6.131370849898506 2.5353751501014923 1.0151879337172431e-13
    vertex 6.385640646055165 2.8667459999999636 3.000000000000096
    vertex 6.385640646055165 2.8667459999999636 1.0151879337172431e-13
  endloop
endfacet
facet normal 0.7933533402911915 -0.6087614290087775 0.0
  outer loop
    vertex 3.868629150101566 4.798116849898432 1.0151879337172431e-13
    vertex 3.614359353944906 4.466745999999961 3.000000000000096
    vertex 3.614359353944906 4.466745999999961 1.0151879337172431e-13
  endloop
endfacet
facet normal 0.7933533402911915 -0.6087614290087775 0.0
  outer loop
    vertex 3.614359353944906 4.466745999999961 3.000000000000096
    vertex 3.868629150101566 4.798116849898432 1.0151879337172431e-13
    vertex 3.868629150101566 4.798116849898432 3.000000000000096
  endloop
endfacet
facet normal -0.9914448613738012 0.13052619222012288 0.0
  outer loop
    vertex 6.600000000000033 3.666745999999962 3.000000000000096
    vertex 6.545481322062515 3.252635527835953 1.0151879337172431e-13
    vertex 6.545481322062515 3.252635527835953 3.000000000000096
  endloop
endfacet
facet normal -0.9914448613738012 0.13052619222012288 0.0
  outer loop
    vertex 6.545481322062515 3.252635527835953 1.0151879337172431e-13
    vertex 6.600000000000033 3.666745999999962 3.000000000000096
    vertex 6.600000000000033 3.666745999999962 1.0151879337172431e-13
  endloop
endfacet
facet normal 0.13052619222000267 -0.9914448613738168 0.0
  outer loop
    vertex 5.0000000000000355 5.2667459999999595 3.000000000000096
    vertex 4.585889527835982 5.212227322062486 1.0151879337172431e-13
    vertex 5.0000000000000355 5.2667459999999595 1.0151879337172431e-13
  endloop
endfacet
facet normal 0.13052619222000267 -0.9914448613738168 0.0
  outer loop
    vertex 4.585889527835982 5.212227322062486 1.0151879337172431e-13
    vertex 5.0000000000000355 5.2667459999999595 3.000000000000096
    vertex 4.585889527835982 5.212227322062486 3.000000000000096
  endloop
endfacet
facet normal 0.38268343236508284 -0.9238795325112897 0.0
  outer loop
    vertex 32.58588952783593 5.212227322062486 3.000000000000096
    vertex 32.19999999999999 5.0523866460550915 1.0151879337172431e-13
    vertex 32.58588952783593 5.212227322062486 1.0151879337172431e-13
  endloop
endfacet
facet normal 0.38268343236508284 -0.9238795325112897 0.0
  outer loop
    vertex 32.19999999999999 5.0523866460550915 1.0151879337172431e-13
    vertex 32.58588952783593 5.212227322062486 3.000000000000096
    vertex 32.19999999999999 5.0523866460550915 3.000000000000096
  endloop
endfacet
facet normal -0.38268343236512886 0.9238795325112706 0.0
  outer loop
    vertex 33.41411047216404 2.1212646779374604 3.000000000000096
    vertex 33.79999999999998 2.2811053539448776 1.0151879337172431e-13
    vertex 33.41411047216404 2.1212646779374604 1.0151879337172431e-13
  endloop
endfacet
facet normal -0.38268343236512886 0.9238795325112706 0.0
  outer loop
    vertex 33.79999999999998 2.2811053539448776 1.0151879337172431e-13
    vertex 33.41411047216404 2.1212646779374604 3.000000000000096
    vertex 33.79999999999998 2.2811053539448776 3.000000000000096
  endloop
endfacet
facet normal 0.7933533402911915 0.6087614290087775 0.0
  outer loop
    vertex 3.614359353944906 2.8667459999999636 1.0151879337172431e-13
    vertex 3.868629150101566 2.5353751501014923 3.000000000000096
    vertex 3.868629150101566 2.5353751501014923 1.0151879337172431e-13
  endloop
endfacet
facet normal 0.7933533402911915 0.6087614290087775 0.0
  outer loop
    vertex 3.868629150101566 2.5353751501014923 3.000000000000096
    vertex 3.614359353944906 2.8667459999999636 1.0151879337172431e-13
    vertex 3.614359353944906 2.8667459999999636 3.000000000000096
  endloop
endfacet
facet normal 0.13052619222010886 0.9914448613738028 0.0
  outer loop
    vertex 4.585889527835982 2.121264677937483 3.000000000000096
    vertex 5.0000000000000355 2.066745999999965 1.0151879337172431e-13
    vertex 4.585889527835982 2.121264677937483 1.0151879337172431e-13
  endloop
endfacet
facet normal 0.13052619222010886 0.9914448613738028 0.0
  outer loop
    vertex 5.0000000000000355 2.066745999999965 1.0151879337172431e-13
    vertex 4.585889527835982 2.121264677937483 3.000000000000096
    vertex 5.0000000000000355 2.066745999999965 3.000000000000096
  endloop
endfacet
facet normal 0.9238795325113278 -0.38268343236499064 0.0
  outer loop
    vertex 3.614359353944906 4.466745999999961 1.0151879337172431e-13
    vertex 3.454518677937557 4.080856472164016 3.000000000000096
    vertex 3.454518677937557 4.080856472164016 1.0151879337172431e-13
  endloop
endfacet
facet normal 0.9238795325113278 -0.38268343236499064 0.0
  outer loop
    vertex 3.454518677937557 4.080856472164016 3.000000000000096
    vertex 3.614359353944906 4.466745999999961 1.0151879337172431e-13
    vertex 3.614359353944906 4.466745999999961 3.000000000000096
  endloop
endfacet
facet normal 0.0 -1.0 0.0
  outer loop
    vertex 5.999999999999989 1.127986593019159e-14 9.023892744153272e-14
    vertex 9.023892744153272e-14 1.127986593019159e-14 3.0000000000000058
    vertex 0.0 1.127986593019159e-14 0.0
  endloop
endfacet
facet normal 0.0 -1.0 0.0
  outer loop
    vertex 9.023892744153272e-14 1.127986593019159e-14 3.0000000000000058
    vertex 5.999999999999989 1.127986593019159e-14 9.023892744153272e-14
    vertex 5.999999999999989 1.127986593019159e-14 3.000000000000096
  endloop
endfacet
facet normal -0.13052619222000267 -0.9914448613738168 0.0
  outer loop
    vertex 33.41411047216404 5.212227322062486 3.000000000000096
    vertex 32.999999999999986 5.2667459999999595 1.0151879337172431e-13
    vertex 33.41411047216404 5.212227322062486 1.0151879337172431e-13
  endloop
endfacet
facet normal -0.13052619222000267 -0.9914448613738168 0.0
  outer loop
    vertex 32.999999999999986 5.2667459999999595 1.0151879337172431e-13
    vertex 33.41411047216404 5.212227322062486 3.000000000000096
    vertex 32.999999999999986 5.2667459999999595 3.000000000000096
  endloop
endfacet
facet normal -0.38268343236508284 -0.9238795325112897 0.0
  outer loop
    vertex 5.8000000000000345 5.0523866460550915 3.000000000000096
    vertex 5.41411047216409 5.212227322062486 1.0151879337172431e-13
    vertex 5.8000000000000345 5.0523866460550915 1.0151879337172431e-13
  endloop
endfacet
facet normal -0.38268343236508284 -0.9238795325112897 0.0
  outer loop
    vertex 5.41411047216409 5.212227322062486 1.0151879337172431e-13
    vertex 5.8000000000000345 5.0523866460550915 3.000000000000096
    vertex 5.41411047216409 5.212227322062486 3.000000000000096
  endloop
endfacet
facet normal -0.9914448613738028 -0.13052619222010886 0.0
  outer loop
    vertex 6.545481322062515 4.080856472164016 3.000000000000096
    vertex 6.600000000000033 3.666745999999962 1.0151879337172431e-13
    vertex 6.600000000000033 3.666745999999962 3.000000000000096
  endloop
endfacet
facet normal -0.9914448613738028 -0.13052619222010886 0.0
  outer loop
    vertex 6.600000000000033 3.666745999999962 1.0151879337172431e-13
    vertex 6.545481322062515 4.080856472164016 3.000000000000096
    vertex 6.545481322062515 4.080856472164016 1.0151879337172431e-13
  endloop
endfacet
facet normal 0.9914448613738012 0.13052619222012288 0.0
  outer loop
    vertex 3.400000000000039 3.666745999999962 1.0151879337172431e-13
    vertex 3.454518677937557 3.252635527835953 3.000000000000096
    vertex 3.454518677937557 3.252635527835953 1.0151879337172431e-13
  endloop
endfacet
facet normal 0.9914448613738012 0.13052619222012288 0.0
  outer loop
    vertex 3.454518677937557 3.252635527835953 3.000000000000096
    vertex 3.400000000000039 3.666745999999962 1.0151879337172431e-13
    vertex 3.400000000000039 3.666745999999962 3.000000000000096
  endloop
endfacet
facet normal -0.6087614290087775 -0.7933533402911915 0.0
  outer loop
    vertex 6.131370849898506 4.798116849898432 3.000000000000096
    vertex 5.8000000000000345 5.0523866460550915 1.0151879337172431e-13
    vertex 6.131370849898506 4.798116849898432 1.0151879337172431e-13
  endloop
endfacet
facet normal -0.6087614290087775 -0.7933533402911915 0.0
  outer loop
    vertex 5.8000000000000345 5.0523866460550915 1.0151879337172431e-13
    vertex 6.131370849898506 4.798116849898432 3.000000000000096
    vertex 5.8000000000000345 5.0523866460550915 3.000000000000096
  endloop
endfacet
facet normal -3.4860439150340033e-31 1.0 -4.181837537835306e-31
  outer loop
    vertex 9.023892744153272e-14 8.136456999999995 3.0000000000000058
    vertex 10.94999999999999 8.136456999999995 9.023892744153272e-14
    vertex 4.019509380703351e-30 8.136456999999995 4.8217795362289506e-30
  endloop
endfacet
facet normal -3.4860439150340033e-31 1.0 -4.181837537835306e-31
  outer loop
    vertex 10.94999999999999 8.136456999999995 9.023892744153272e-14
    vertex 9.023892744153272e-14 8.136456999999995 3.0000000000000058
    vertex 11.224297098372995 8.136456999999995 2.0834933130753823
  endloop
endfacet
facet normal -3.4860439150340033e-31 1.0 -4.181837537835306e-31
  outer loop
    vertex 11.224297098372995 8.136456999999995 2.0834933130753823
    vertex 9.023892744153272e-14 8.136456999999995 3.0000000000000058
    vertex 7.999999999999985 8.136456999999995 3.000000000000096
  endloop
endfacet
facet normal -3.4860439150340033e-31 1.0 -4.181837537835306e-31
  outer loop
    vertex 11.224297098372995 8.136456999999995 2.0834933130753823
    vertex 7.999999999999985 8.136456999999995 3.000000000000096
    vertex 12.028495499535268 8.136456999999995 4.025000000000088
  endloop
endfacet
facet normal -3.4860439150340033e-31 1.0 -4.181837537835306e-31
  outer loop
    vertex 12.028495499535268 8.136456999999995 4.025000000000088
    vertex 7.999999999999985 8.136456999999995 3.000000000000096
    vertex 9.136059619315164 8.136456999999995 5.694948634058925
  endloop
endfacet
facet normal -3.4860439150340033e-31 1.0 -4.181837537835306e-31
  outer loop
    vertex 12.028495499535268 8.136456999999995 4.025000000000088
    vertex 9.136059619315164 8.136456999999995 5.694948634058925
    vertex 13.307790411448304 8.136456999999995 5.692209588551802
  endloop
endfacet
facet normal -3.4860439150340033e-31 1.0 -4.181837537835306e-31
  outer loop
    vertex 13.307790411448304 8.136456999999995 5.692209588551802
    vertex 9.136059619315164 8.136456999999995 5.694948634058925
    vertex 14.974999999999978 8.136456999999995 6.971504500464832
  endloop
endfacet
facet normal -3.4860439150340033e-31 1.0 -4.181837537835306e-31
  outer loop
    vertex 14.974999999999978 8.136456999999995 6.971504500464832
    vertex 9.136059619315164 8.136456999999995 5.694948634058925
    vertex 10.946126404695875 8.136456999999995 8.05387359530417
  endloop
endfacet
facet normal -3.4860439150340033e-31 1.0 -4.181837537835306e-31
  outer loop
    vertex 14.974999999999978 8.136456999999995 6.971504500464832
    vertex 10.946126404695875 8.136456999999995 8.05387359530417
    vertex 16.916506686924702 8.136456999999995 7.775702901627105
  endloop
endfacet
facet normal -3.4860439150340033e-31 1.0 -4.181837537835306e-31
  outer loop
    vertex 16.916506686924702 8.136456999999995 7.775702901627105
    vertex 10.946126404695875 8.136456999999995 8.05387359530417
    vertex 18.999999999999964 8.136456999999995 8.050000000000109
  endloop
endfacet
facet normal -3.4860439150340033e-31 1.0 -4.181837537835306e-31
  outer loop
    vertex 25.971504500464707 8.136456999999995 4.025000000000128
    vertex 29.99999999999999 8.136456999999995 3.000000000000096
    vertex 26.77570290162698 8.136456999999995 2.083493313075422
  endloop
endfacet
facet normal -3.4860439150340033e-31 1.0 -4.181837537835306e-31
  outer loop
    vertex 29.99999999999999 8.136456999999995 3.000000000000096
    vertex 25.971504500464707 8.136456999999995 4.025000000000128
    vertex 28.863940380684834 8.136456999999995 5.694948634058918
  endloop
endfacet
facet normal -3.4860439150340033e-31 1.0 -4.181837537835306e-31
  outer loop
    vertex 28.863940380684834 8.136456999999995 5.694948634058918
    vertex 25.971504500464707 8.136456999999995 4.025000000000128
    vertex 24.692209588551716 8.136456999999995 5.692209588551836
  endloop
endfacet
facet normal -3.4860439150340033e-31 1.0 -4.181837537835306e-31
  outer loop
    vertex 28.863940380684834 8.136456999999995 5.694948634058918
    vertex 24.692209588551716 8.136456999999995 5.692209588551836
    vertex 23.025 8.136456999999995 6.971504500464855
  endloop
endfacet
facet normal -3.4860439150340033e-31 1.0 -4.181837537835306e-31
  outer loop
    vertex 28.863940380684834 8.136456999999995 5.694948634058918
    vertex 23.025 8.136456999999995 6.971504500464855
    vertex 27.053873595304125 8.136456999999995 8.053873595304236
  endloop
endfacet
facet normal -3.4860439150340033e-31 1.0 -4.181837537835306e-31
  outer loop
    vertex 27.053873595304125 8.136456999999995 8.053873595304236
    vertex 23.025 8.136456999999995 6.971504500464855
    vertex 21.083493313075273 8.136456999999995 7.775702901627116
  endloop
endfacet
facet normal -3.4860439150340033e-31 1.0 -4.181837537835306e-31
  outer loop
    vertex 27.053873595304125 8.136456999999995 8.053873595304236
    vertex 21.083493313075273 8.136456999999995 7.775702901627116
    vertex 18.999999999999964 8.136456999999995 8.050000000000109
  endloop
endfacet
facet normal -3.4860439150340033e-31 1.0 -4.181837537835306e-31
  outer loop
    vertex 27.053873595304125 8.136456999999995 8.053873595304236
    vertex 18.999999999999964 8.136456999999995 8.050000000000109
    vertex 10.946126404695875 8.136456999999995 8.05387359530417
  endloop
endfacet
facet normal -3.4860439150340033e-31 1.0 -4.181837537835306e-31
  outer loop
    vertex 27.053873595304125 8.136456999999995 8.053873595304236
    vertex 10.946126404695875 8.136456999999995 8.05387359530417
    vertex 13.305051365941162 8.136456999999995 9.86394038068495
  endloop
endfacet
facet normal -3.4860439150340033e-31 1.0 -4.181837537835306e-31
  outer loop
    vertex 27.053873595304125 8.136456999999995 8.053873595304236
    vertex 13.305051365941162 8.136456999999995 9.86394038068495
    vertex 24.69494863405879 8.136456999999995 9.863940380684983
  endloop
endfacet
facet normal -3.4860439150340033e-31 1.0 -4.181837537835306e-31
  outer loop
    vertex 24.69494863405879 8.136456999999995 9.863940380684983
    vertex 13.305051365941162 8.136456999999995 9.86394038068495
    vertex 16.05207766525 8.136456999999995 11.00179593005424
  endloop
endfacet
facet normal -3.4860439150340033e-31 1.0 -4.181837537835306e-31
  outer loop
    vertex 24.69494863405879 8.136456999999995 9.863940380684983
    vertex 16.05207766525 8.136456999999995 11.00179593005424
    vertex 21.947922334749975 8.136456999999995 11.00179593005425
  endloop
endfacet
facet normal -3.4860439150340033e-31 1.0 -4.181837537835306e-31
  outer loop
    vertex 21.947922334749975 8.136456999999995 11.00179593005425
    vertex 16.05207766525 8.136456999999995 11.00179593005424
    vertex 18.999999999999922 8.136456999999995 11.38989726811775
  endloop
endfacet
facet normal -3.4860439150340033e-31 1.0 -4.181837537835306e-31
  outer loop
    vertex 26.77570290162698 8.136456999999995 2.083493313075422
    vertex 37.99999999999998 8.136456999999995 9.023892744153272e-14
    vertex 27.049999999999983 8.136456999999995 8.459899447643693e-14
  endloop
endfacet
facet normal -3.4860439150340033e-31 1.0 -4.181837537835306e-31
  outer loop
    vertex 37.99999999999998 8.136456999999995 9.023892744153272e-14
    vertex 26.77570290162698 8.136456999999995 2.083493313075422
    vertex 37.99999999999998 8.136456999999995 3.000000000000096
  endloop
endfacet
facet normal -3.4860439150340033e-31 1.0 -4.181837537835306e-31
  outer loop
    vertex 37.99999999999998 8.136456999999995 3.000000000000096
    vertex 26.77570290162698 8.136456999999995 2.083493313075422
    vertex 29.99999999999999 8.136456999999995 3.000000000000096
  endloop
endfacet
facet normal 0.9238795325113438 0.38268343236495234 0.0
  outer loop
    vertex 31.454518677937507 3.252635527835953 1.0151879337172431e-13
    vertex 31.614359353944856 2.8667459999999636 3.000000000000096
    vertex 31.614359353944856 2.8667459999999636 1.0151879337172431e-13
  endloop
endfacet
facet normal 0.9238795325113438 0.38268343236495234 0.0
  outer loop
    vertex 31.614359353944856 2.8667459999999636 3.000000000000096
    vertex 31.454518677937507 3.252635527835953 1.0151879337172431e-13
    vertex 31.454518677937507 3.252635527835953 3.000000000000096
  endloop
endfacet
facet normal -0.7933533402911915 -0.6087614290087775 0.0
  outer loop
    vertex 6.131370849898506 4.798116849898432 3.000000000000096
    vertex 6.385640646055165 4.466745999999961 1.0151879337172431e-13
    vertex 6.385640646055165 4.466745999999961 3.000000000000096
  endloop
endfacet
facet normal -0.7933533402911915 -0.6087614290087775 0.0
  outer loop
    vertex 6.385640646055165 4.466745999999961 1.0151879337172431e-13
    vertex 6.131370849898506 4.798116849898432 3.000000000000096
    vertex 6.131370849898506 4.798116849898432 1.0151879337172431e-13
  endloop
endfacet
facet normal 0.6087614290087094 0.7933533402912438 0.0
  outer loop
    vertex 3.868629150101566 2.5353751501014923 3.000000000000096
    vertex 4.2000000000000375 2.2811053539448776 1.0151879337172431e-13
    vertex 3.868629150101566 2.5353751501014923 1.0151879337172431e-13
  endloop
endfacet
facet normal 0.6087614290087094 0.7933533402912438 0.0
  outer loop
    vertex 4.2000000000000375 2.2811053539448776 1.0151879337172431e-13
    vertex 3.868629150101566 2.5353751501014923 3.000000000000096
    vertex 4.2000000000000375 2.2811053539448776 3.000000000000096
  endloop
endfacet
facet normal 0.7933533402911915 0.6087614290087775 0.0
  outer loop
    vertex 31.614359353944856 2.8667459999999636 1.0151879337172431e-13
    vertex 31.868629150101516 2.5353751501014923 3.000000000000096
    vertex 31.868629150101516 2.5353751501014923 1.0151879337172431e-13
  endloop
endfacet
facet normal 0.7933533402911915 0.6087614290087775 0.0
  outer loop
    vertex 31.868629150101516 2.5353751501014923 3.000000000000096
    vertex 31.614359353944856 2.8667459999999636 1.0151879337172431e-13
    vertex 31.614359353944856 2.8667459999999636 3.000000000000096
  endloop
endfacet
facet normal -0.13052619222000267 -0.9914448613738168 0.0
  outer loop
    vertex 5.41411047216409 5.212227322062486 3.000000000000096
    vertex 5.0000000000000355 5.2667459999999595 1.0151879337172431e-13
    vertex 5.41411047216409 5.212227322062486 1.0151879337172431e-13
  endloop
endfacet
facet normal -0.13052619222000267 -0.9914448613738168 0.0
  outer loop
    vertex 5.0000000000000355 5.2667459999999595 1.0151879337172431e-13
    vertex 5.41411047216409 5.212227322062486 3.000000000000096
    vertex 5.0000000000000355 5.2667459999999595 3.000000000000096
  endloop
endfacet
facet normal 0.9914448613738012 0.13052619222012288 0.0
  outer loop
    vertex 31.399999999999988 3.666745999999962 1.0151879337172431e-13
    vertex 31.454518677937507 3.252635527835953 3.000000000000096
    vertex 31.454518677937507 3.252635527835953 1.0151879337172431e-13
  endloop
endfacet
facet normal 0.9914448613738012 0.13052619222012288 0.0
  outer loop
    vertex 31.454518677937507 3.252635527835953 3.000000000000096
    vertex 31.399999999999988 3.666745999999962 1.0151879337172431e-13
    vertex 31.399999999999988 3.666745999999962 3.000000000000096
  endloop
endfacet
facet normal -3.379456808890265e-30 -1.0 3.595173933316913e-15
  outer loop
    vertex 31.999999999999986 1.127986593019159e-14 9.023892744153272e-14
    vertex 26.77570290162698 0.0 2.0834933130753823
    vertex 27.049999999999983 0.0 4.458649739050827e-14
  endloop
endfacet
facet normal -3.379456808890265e-30 -1.0 3.595173933316913e-15
  outer loop
    vertex 26.77570290162698 0.0 2.0834933130753823
    vertex 31.999999999999986 1.127986593019159e-14 9.023892744153272e-14
    vertex 31.999999999999986 1.127986593019159e-14 3.000000000000096
  endloop
endfacet
facet normal -3.379456808890265e-30 -1.0 3.595173933316913e-15
  outer loop
    vertex 26.77570290162698 0.0 2.0834933130753823
    vertex 31.999999999999986 1.127986593019159e-14 3.000000000000096
    vertex 29.99999999999999 0.0 3.0000000000000564
  endloop
endfacet
facet normal -3.379456808890265e-30 -1.0 3.595173933316913e-15
  outer loop
    vertex 29.99999999999999 0.0 3.0000000000000564
    vertex 25.971504500464707 0.0 4.025000000000087
    vertex 26.77570290162698 0.0 2.0834933130753823
  endloop
endfacet
facet normal -3.379456808890265e-30 -1.0 3.595173933316913e-15
  outer loop
    vertex 25.971504500464707 0.0 4.025000000000087
    vertex 29.99999999999999 0.0 3.0000000000000564
    vertex 28.863940380684834 4.511946372076636e-14 5.6949486340588775
  endloop
endfacet
facet normal -3.379456808890265e-30 -1.0 3.595173933316913e-15
  outer loop
    vertex 25.971504500464707 0.0 4.025000000000087
    vertex 28.863940380684834 4.511946372076636e-14 5.6949486340588775
    vertex 24.692209588551716 0.0 5.692209588551795
  endloop
endfacet
facet normal -3.379456808890265e-30 -1.0 3.595173933316913e-15
  outer loop
    vertex 24.692209588551716 0.0 5.692209588551795
    vertex 28.863940380684834 4.511946372076636e-14 5.6949486340588775
    vertex 23.025 0.0 6.971504500464815
  endloop
endfacet
facet normal -3.379456808890265e-30 -1.0 3.595173933316913e-15
  outer loop
    vertex 23.025 0.0 6.971504500464815
    vertex 28.863940380684834 4.511946372076636e-14 5.6949486340588775
    vertex 27.053873595304125 4.511946372076636e-14 8.053873595304196
  endloop
endfacet
facet normal -3.379456808890265e-30 -1.0 3.595173933316913e-15
  outer loop
    vertex 23.025 0.0 6.971504500464815
    vertex 27.053873595304125 4.511946372076636e-14 8.053873595304196
    vertex 21.083493313075273 0.0 7.775702901627077
  endloop
endfacet
facet normal -3.379456808890265e-30 -1.0 3.595173933316913e-15
  outer loop
    vertex 21.083493313075273 0.0 7.775702901627077
    vertex 27.053873595304125 4.511946372076636e-14 8.053873595304196
    vertex 18.999999999999964 0.0 8.05000000000007
  endloop
endfacet
facet normal -3.379456808890265e-30 -1.0 3.595173933316913e-15
  outer loop
    vertex 18.999999999999964 0.0 8.05000000000007
    vertex 27.053873595304125 4.511946372076636e-14 8.053873595304196
    vertex 10.946126404695875 4.511946372076636e-14 8.05387359530413
  endloop
endfacet
facet normal -3.379456808890265e-30 -1.0 3.595173933316913e-15
  outer loop
    vertex 10.946126404695875 4.511946372076636e-14 8.05387359530413
    vertex 27.053873595304125 4.511946372076636e-14 8.053873595304196
    vertex 13.305051365941162 4.511946372076636e-14 9.86394038068491
  endloop
endfacet
facet normal -3.379456808890265e-30 -1.0 3.595173933316913e-15
  outer loop
    vertex 13.305051365941162 4.511946372076636e-14 9.86394038068491
    vertex 27.053873595304125 4.511946372076636e-14 8.053873595304196
    vertex 24.69494863405879 4.511946372076636e-14 9.863940380684944
  endloop
endfacet
facet normal -3.379456808890265e-30 -1.0 3.595173933316913e-15
  outer loop
    vertex 13.305051365941162 4.511946372076636e-14 9.86394038068491
    vertex 24.69494863405879 4.511946372076636e-14 9.863940380684944
    vertex 16.05207766525 4.511946372076636e-14 11.0017959300542
  endloop
endfacet
facet normal -3.379456808890265e-30 -1.0 3.595173933316913e-15
  outer loop
    vertex 16.05207766525 4.511946372076636e-14 11.0017959300542
    vertex 24.69494863405879 4.511946372076636e-14 9.863940380684944
    vertex 21.947922334749975 4.511946372076636e-14 11.001795930054211
  endloop
endfacet
facet normal -3.379456808890265e-30 -1.0 3.595173933316913e-15
  outer loop
    vertex 16.05207766525 4.511946372076636e-14 11.0017959300542
    vertex 21.947922334749975 4.511946372076636e-14 11.001795930054211
    vertex 18.999999999999922 4.511946372076636e-14 11.38989726811771
  endloop
endfacet
facet normal -3.379456808890265e-30 -1.0 3.595173933316913e-15
  outer loop
    vertex 12.028495499535268 0.0 4.025000000000047
    vertex 7.999999999999985 0.0 3.0000000000000564
    vertex 11.224297098372995 0.0 2.083493313075343
  endloop
endfacet
facet normal -3.379456808890265e-30 -1.0 3.595173933316913e-15
  outer loop
    vertex 7.999999999999985 0.0 3.0000000000000564
    vertex 12.028495499535268 0.0 4.025000000000047
    vertex 9.136059619315164 4.511946372076636e-14 5.694948634058884
  endloop
endfacet
facet normal -3.379456808890265e-30 -1.0 3.595173933316913e-15
  outer loop
    vertex 9.136059619315164 4.511946372076636e-14 5.694948634058884
    vertex 12.028495499535268 0.0 4.025000000000047
    vertex 13.307790411448304 0.0 5.692209588551761
  endloop
endfacet
facet normal -3.379456808890265e-30 -1.0 3.595173933316913e-15
  outer loop
    vertex 9.136059619315164 4.511946372076636e-14 5.694948634058884
    vertex 13.307790411448304 0.0 5.692209588551761
    vertex 14.974999999999978 0.0 6.971504500464793
  endloop
endfacet
facet normal -3.379456808890265e-30 -1.0 3.595173933316913e-15
  outer loop
    vertex 9.136059619315164 4.511946372076636e-14 5.694948634058884
    vertex 14.974999999999978 0.0 6.971504500464793
    vertex 10.946126404695875 4.511946372076636e-14 8.05387359530413
  endloop
endfacet
facet normal -3.379456808890265e-30 -1.0 3.595173933316913e-15
  outer loop
    vertex 10.946126404695875 4.511946372076636e-14 8.05387359530413
    vertex 14.974999999999978 0.0 6.971504500464793
    vertex 16.916506686924702 0.0 7.775702901627065
  endloop
endfacet
facet normal -3.379456808890265e-30 -1.0 3.595173933316913e-15
  outer loop
    vertex 10.946126404695875 4.511946372076636e-14 8.05387359530413
    vertex 16.916506686924702 0.0 7.775702901627065
    vertex 18.999999999999964 0.0 8.05000000000007
  endloop
endfacet
facet normal -3.379456808890265e-30 -1.0 3.595173933316913e-15
  outer loop
    vertex 11.224297098372995 0.0 2.083493313075343
    vertex 5.999999999999989 1.127986593019159e-14 9.023892744153272e-14
    vertex 10.94999999999999 0.0 5.0226430355604066e-14
  endloop
endfacet
facet normal -3.379456808890265e-30 -1.0 3.595173933316913e-15
  outer loop
    vertex 5.999999999999989 1.127986593019159e-14 9.023892744153272e-14
    vertex 11.224297098372995 0.0 2.083493313075343
    vertex 5.999999999999989 1.127986593019159e-14 3.000000000000096
  endloop
endfacet
facet normal -3.379456808890265e-30 -1.0 3.595173933316913e-15
  outer loop
    vertex 5.999999999999989 1.127986593019159e-14 3.000000000000096
    vertex 11.224297098372995 0.0 2.083493313075343
    vertex 7.999999999999985 0.0 3.0000000000000564
  endloop
endfacet
facet normal 0.6087614290087775 -0.7933533402911915 0.0
  outer loop
    vertex 32.19999999999999 5.0523866460550915 3.000000000000096
    vertex 31.868629150101516 4.798116849898432 1.0151879337172431e-13
    vertex 32.19999999999999 5.0523866460550915 1.0151879337172431e-13
  endloop
endfacet
facet normal 0.6087614290087775 -0.7933533402911915 0.0
  outer loop
    vertex 31.868629150101516 4.798116849898432 1.0151879337172431e-13
    vertex 32.19999999999999 5.0523866460550915 3.000000000000096
    vertex 31.868629150101516 4.798116849898432 3.000000000000096
  endloop
endfacet
endsolid wing_part3_test
