solid wing_support_test2
facet normal 1.0 0.0 0.0
  outer loop
    vertex 2.8937309225100747 39.10626907748993 5.639932965095795e-15
    vertex 2.8937309225100747 2.8937309225100747 2.8
    vertex 2.8937309225100747 2.8937309225100747 5.639932965095795e-15
  endloop
endfacet
facet normal 1.0 0.0 0.0
  outer loop
    vertex 2.8937309225100747 2.8937309225100747 2.8
    vertex 2.8937309225100747 39.10626907748993 5.639932965095795e-15
    vertex 2.8937309225100747 39.10626907748993 2.8
  endloop
endfacet
facet normal 0.0 1.0 0.0
  outer loop
    vertex 2.8937309225100747 2.8937309225100747 2.8
    vertex 43.10626907748992 2.8937309225100747 5.639932965095795e-15
    vertex 2.8937309225100747 2.8937309225100747 5.639932965095795e-15
  endloop
endfacet
facet normal 0.0 1.0 0.0
  outer loop
    vertex 43.10626907748992 2.8937309225100747 5.639932965095795e-15
    vertex 2.8937309225100747 2.8937309225100747 2.8
    vertex 43.10626907748992 2.8937309225100747 2.8
  endloop
endfacet
facet normal -1.0 0.0 0.0
  outer loop
    vertex 0.0 42.0 2.8
    vertex 0.0 0.0 0.0
    vertex 0.0 0.0 2.8
  endloop
endfacet
facet normal -1.0 0.0 0.0
  outer loop
    vertex 0.0 0.0 0.0
    vertex 0.0 42.0 2.8
    vertex 0.0 42.0 0.0
  endloop
endfacet
facet normal 1.0 0.0 0.0
  outer loop
    vertex 45.99999999999999 3.0000000000000058 0.0
    vertex 45.99999999999999 0.0 2.8
    vertex 45.99999999999999 0.0 0.0
  endloop
endfacet
facet normal 1.0 0.0 0.0
  outer loop
    vertex 45.99999999999999 0.0 2.8
    vertex 45.99999999999999 3.0000000000000058 0.0
    vertex 45.99999999999999 3.0000000000000058 2.8
  endloop
endfacet
facet normal 1.0 0.0 0.0
  outer loop
    vertex 45.99999999999999 3.0000000000000058 2.8
    vertex 45.99999999999999 3.0000000000000058 0.0
    vertex 45.99999999999999 3.0000000000000058 1.9999999999999998
  endloop
endfacet
facet normal 0.0 0.0 1.0
  outer loop
    vertex 0.0 0.0 2.8
    vertex 2.8937309225100747 2.8937309225100747 2.8
    vertex 0.0 42.0 2.8
  endloop
endfacet
facet normal 0.0 0.0 1.0
  outer loop
    vertex 2.8937309225100747 2.8937309225100747 2.8
    vertex 0.0 0.0 2.8
    vertex 45.99999999999999 0.0 2.8
  endloop
endfacet
facet normal 0.0 0.0 1.0
  outer loop
    vertex 2.8937309225100747 2.8937309225100747 2.8
    vertex 45.99999999999999 0.0 2.8
    vertex 43.10626907748992 2.8937309225100747 2.8
  endloop
endfacet
facet normal 0.0 0.0 1.0
  outer loop
    vertex 43.10626907748992 2.8937309225100747 2.8
    vertex 45.99999999999999 0.0 2.8
    vertex 43.10626907748992 5.8937309225100805 2.8
  endloop
endfacet
facet normal 0.0 0.0 1.0
  outer loop
    vertex 43.10626907748992 5.8937309225100805 2.8
    vertex 45.99999999999999 0.0 2.8
    vertex 45.99999999999999 5.8937309225100805 2.8
  endloop
endfacet
facet normal 0.0 0.0 1.0
  outer loop
    vertex 45.99999999999999 5.8937309225100805 2.8
    vertex 45.99999999999999 0.0 2.8
    vertex 45.99999999999999 3.0000000000000058 2.8
  endloop
endfacet
facet normal 0.0 0.0 1.0
  outer loop
    vertex 0.0 42.0 2.8
    vertex 2.8937309225100747 39.10626907748993 2.8
    vertex 46.00000000000001 42.0 2.8
  endloop
endfacet
facet normal 0.0 0.0 1.0
  outer loop
    vertex 2.8937309225100747 39.10626907748993 2.8
    vertex 0.0 42.0 2.8
    vertex 2.8937309225100747 2.8937309225100747 2.8
  endloop
endfacet
facet normal 0.0 0.0 1.0
  outer loop
    vertex 46.00000000000001 42.0 2.8
    vertex 2.8937309225100747 39.10626907748993 2.8
    vertex 46.00000000000001 39.10626907748993 2.8
  endloop
endfacet
facet normal -0.0 -1.0 -0.0
  outer loop
    vertex 45.99999999999999 0.0 2.8
    vertex 0.0 0.0 0.0
    vertex 45.99999999999999 0.0 0.0
  endloop
endfacet
facet normal -0.0 -1.0 -0.0
  outer loop
    vertex 0.0 0.0 0.0
    vertex 45.99999999999999 0.0 2.8
    vertex 0.0 0.0 2.8
  endloop
endfacet
facet normal -1.0 0.0 0.0
  outer loop
    vertex 43.10626907748992 5.8937309225100805 2.8
    vertex 43.10626907748992 2.8937309225100747 5.639932965095795e-15
    vertex 43.10626907748992 2.8937309225100747 2.8
  endloop
endfacet
facet normal -1.0 0.0 0.0
  outer loop
    vertex 43.10626907748992 2.8937309225100747 5.639932965095795e-15
    vertex 43.10626907748992 5.8937309225100805 2.8
    vertex 43.10626907748992 5.8937309225100805 5.639932965095795e-15
  endloop
endfacet
facet normal -0.0 1.0 -0.0
  outer loop
    vertex 43.10626907748992 5.8937309225100805 2.8
    vertex 45.99999999999999 5.8937309225100805 1.9999999999999998
    vertex 43.10626907748992 5.8937309225100805 5.639932965095795e-15
  endloop
endfacet
facet normal -0.0 1.0 -0.0
  outer loop
    vertex 45.99999999999999 5.8937309225100805 1.9999999999999998
    vertex 43.10626907748992 5.8937309225100805 2.8
    vertex 45.99999999999999 5.8937309225100805 2.8
  endloop
endfacet
facet normal -0.0 1.0 -0.0
  outer loop
    vertex 43.10626907748992 5.8937309225100805 5.639932965095795e-15
    vertex 74.43705847390169 5.8937309225100805 1.9999999999999998
    vertex 74.43705847390169 5.8937309225100805 2.8199664825478975e-15
  endloop
endfacet
facet normal -0.0 1.0 -0.0
  outer loop
    vertex 74.43705847390169 5.8937309225100805 1.9999999999999998
    vertex 43.10626907748992 5.8937309225100805 5.639932965095795e-15
    vertex 45.99999999999999 5.8937309225100805 1.9999999999999998
  endloop
endfacet
facet normal -6.016925104061091e-18 2.0386806263084952e-17 -1.0
  outer loop
    vertex 0.0 42.0 0.0
    vertex 2.8937309225100747 39.10626907748993 5.639932965095795e-15
    vertex 0.0 0.0 0.0
  endloop
endfacet
facet normal -6.016925104061091e-18 2.0386806263084952e-17 -1.0
  outer loop
    vertex 2.8937309225100747 39.10626907748993 5.639932965095795e-15
    vertex 0.0 42.0 0.0
    vertex 74.43705847390169 42.0 2.8199664825478975e-15
  endloop
endfacet
facet normal -6.016925104061091e-18 2.0386806263084952e-17 -1.0
  outer loop
    vertex 2.8937309225100747 39.10626907748993 5.639932965095795e-15
    vertex 74.43705847390169 42.0 2.8199664825478975e-15
    vertex 74.43705847390169 39.10626907748993 5.639932965095795e-15
  endloop
endfacet
facet normal -6.016925104061091e-18 2.0386806263084952e-17 -1.0
  outer loop
    vertex 74.43705847390169 39.10626907748993 5.639932965095795e-15
    vertex 74.43705847390169 42.0 2.8199664825478975e-15
    vertex 76.43705847390169 41.99999999999999 1.4099832412739487e-15
  endloop
endfacet
facet normal -6.016925104061091e-18 2.0386806263084952e-17 -1.0
  outer loop
    vertex 74.43705847390169 39.10626907748993 5.639932965095795e-15
    vertex 76.43705847390169 41.99999999999999 1.4099832412739487e-15
    vertex 74.43705847390169 5.8937309225100805 2.8199664825478975e-15
  endloop
endfacet
facet normal -6.016925104061091e-18 2.0386806263084952e-17 -1.0
  outer loop
    vertex 74.43705847390169 5.8937309225100805 2.8199664825478975e-15
    vertex 43.10626907748992 2.8937309225100747 5.639932965095795e-15
    vertex 43.10626907748992 5.8937309225100805 5.639932965095795e-15
  endloop
endfacet
facet normal -6.016925104061091e-18 2.0386806263084952e-17 -1.0
  outer loop
    vertex 43.10626907748992 2.8937309225100747 5.639932965095795e-15
    vertex 74.43705847390169 5.8937309225100805 2.8199664825478975e-15
    vertex 45.99999999999999 3.0000000000000058 0.0
  endloop
endfacet
facet normal -6.016925104061091e-18 2.0386806263084952e-17 -1.0
  outer loop
    vertex 45.99999999999999 3.0000000000000058 0.0
    vertex 74.43705847390169 5.8937309225100805 2.8199664825478975e-15
    vertex 76.43705847390169 3.0000000000000058 0.0
  endloop
endfacet
facet normal -6.016925104061091e-18 2.0386806263084952e-17 -1.0
  outer loop
    vertex 76.43705847390169 3.0000000000000058 0.0
    vertex 74.43705847390169 5.8937309225100805 2.8199664825478975e-15
    vertex 76.43705847390169 41.99999999999999 1.4099832412739487e-15
  endloop
endfacet
facet normal -6.016925104061091e-18 2.0386806263084952e-17 -1.0
  outer loop
    vertex 2.8937309225100747 2.8937309225100747 5.639932965095795e-15
    vertex 45.99999999999999 0.0 0.0
    vertex 0.0 0.0 0.0
  endloop
endfacet
facet normal -6.016925104061091e-18 2.0386806263084952e-17 -1.0
  outer loop
    vertex 45.99999999999999 0.0 0.0
    vertex 2.8937309225100747 2.8937309225100747 5.639932965095795e-15
    vertex 43.10626907748992 2.8937309225100747 5.639932965095795e-15
  endloop
endfacet
facet normal -6.016925104061091e-18 2.0386806263084952e-17 -1.0
  outer loop
    vertex 45.99999999999999 0.0 0.0
    vertex 43.10626907748992 2.8937309225100747 5.639932965095795e-15
    vertex 45.99999999999999 3.0000000000000058 0.0
  endloop
endfacet
facet normal -6.016925104061091e-18 2.0386806263084952e-17 -1.0
  outer loop
    vertex 2.8937309225100747 2.8937309225100747 5.639932965095795e-15
    vertex 0.0 0.0 0.0
    vertex 2.8937309225100747 39.10626907748993 5.639932965095795e-15
  endloop
endfacet
facet normal 1.0 0.0 0.0
  outer loop
    vertex 46.00000000000001 42.0 1.9999999999999998
    vertex 46.00000000000001 39.10626907748993 2.8
    vertex 46.00000000000001 39.10626907748993 1.9999999999999998
  endloop
endfacet
facet normal 1.0 0.0 0.0
  outer loop
    vertex 46.00000000000001 39.10626907748993 2.8
    vertex 46.00000000000001 42.0 1.9999999999999998
    vertex 46.00000000000001 42.0 2.8
  endloop
endfacet
facet normal -0.0 1.0 -0.0
  outer loop
    vertex 74.43705847390169 42.0 1.9999999999999998
    vertex 74.43705847390169 42.0 2.8199664825478975e-15
    vertex 46.00000000000001 42.0 1.9999999999999998
  endloop
endfacet
facet normal -0.0 1.0 -0.0
  outer loop
    vertex 0.0 42.0 2.8
    vertex 74.43705847390169 42.0 2.8199664825478975e-15
    vertex 0.0 42.0 0.0
  endloop
endfacet
facet normal -0.0 1.0 -0.0
  outer loop
    vertex 74.43705847390169 42.0 2.8199664825478975e-15
    vertex 0.0 42.0 2.8
    vertex 46.00000000000001 42.0 1.9999999999999998
  endloop
endfacet
facet normal -0.0 1.0 -0.0
  outer loop
    vertex 46.00000000000001 42.0 1.9999999999999998
    vertex 0.0 42.0 2.8
    vertex 46.00000000000001 42.0 2.8
  endloop
endfacet
facet normal 1.0 0.0 0.0
  outer loop
    vertex 45.99999999999999 5.8937309225100805 1.9999999999999998
    vertex 45.99999999999999 3.0000000000000058 2.8
    vertex 45.99999999999999 3.0000000000000058 1.9999999999999998
  endloop
endfacet
facet normal 1.0 0.0 0.0
  outer loop
    vertex 45.99999999999999 3.0000000000000058 2.8
    vertex 45.99999999999999 5.8937309225100805 1.9999999999999998
    vertex 45.99999999999999 5.8937309225100805 2.8
  endloop
endfacet
facet normal -1.6001677091317515e-16 1.903390981930231e-17 1.0
  outer loop
    vertex 76.43705847390169 3.0000000000000058 2.0000000000000098
    vertex 45.99999999999999 5.8937309225100805 1.9999999999999998
    vertex 45.99999999999999 3.0000000000000058 1.9999999999999998
  endloop
endfacet
facet normal -1.6001677091317515e-16 1.903390981930231e-17 1.0
  outer loop
    vertex 45.99999999999999 5.8937309225100805 1.9999999999999998
    vertex 76.43705847390169 3.0000000000000058 2.0000000000000098
    vertex 74.43705847390169 5.8937309225100805 1.9999999999999998
  endloop
endfacet
facet normal -1.6001677091317515e-16 1.903390981930231e-17 1.0
  outer loop
    vertex 74.43705847390169 5.8937309225100805 1.9999999999999998
    vertex 76.43705847390169 3.0000000000000058 2.0000000000000098
    vertex 74.43705847390169 39.10626907748993 1.9999999999999998
  endloop
endfacet
facet normal -1.6001677091317515e-16 1.903390981930231e-17 1.0
  outer loop
    vertex 74.43705847390169 39.10626907748993 1.9999999999999998
    vertex 76.43705847390169 3.0000000000000058 2.0000000000000098
    vertex 74.43705847390169 42.0 1.9999999999999998
  endloop
endfacet
facet normal -1.6001677091317515e-16 1.903390981930231e-17 1.0
  outer loop
    vertex 74.43705847390169 42.0 1.9999999999999998
    vertex 76.43705847390169 3.0000000000000058 2.0000000000000098
    vertex 76.43705847390169 41.99999999999999 2.000000000000011
  endloop
endfacet
facet normal -1.6001677091317515e-16 1.903390981930231e-17 1.0
  outer loop
    vertex 74.43705847390169 39.10626907748993 1.9999999999999998
    vertex 46.00000000000001 42.0 1.9999999999999998
    vertex 46.00000000000001 39.10626907748993 1.9999999999999998
  endloop
endfacet
facet normal -1.6001677091317515e-16 1.903390981930231e-17 1.0
  outer loop
    vertex 46.00000000000001 42.0 1.9999999999999998
    vertex 74.43705847390169 39.10626907748993 1.9999999999999998
    vertex 74.43705847390169 42.0 1.9999999999999998
  endloop
endfacet
facet normal 0.0 -1.0 0.0
  outer loop
    vertex 74.43705847390169 39.10626907748993 1.9999999999999998
    vertex 2.8937309225100747 39.10626907748993 5.639932965095795e-15
    vertex 74.43705847390169 39.10626907748993 5.639932965095795e-15
  endloop
endfacet
facet normal 0.0 -1.0 0.0
  outer loop
    vertex 2.8937309225100747 39.10626907748993 5.639932965095795e-15
    vertex 74.43705847390169 39.10626907748993 1.9999999999999998
    vertex 46.00000000000001 39.10626907748993 1.9999999999999998
  endloop
endfacet
facet normal 0.0 -1.0 0.0
  outer loop
    vertex 2.8937309225100747 39.10626907748993 5.639932965095795e-15
    vertex 46.00000000000001 39.10626907748993 1.9999999999999998
    vertex 2.8937309225100747 39.10626907748993 2.8
  endloop
endfacet
facet normal 0.0 -1.0 0.0
  outer loop
    vertex 2.8937309225100747 39.10626907748993 2.8
    vertex 46.00000000000001 39.10626907748993 1.9999999999999998
    vertex 46.00000000000001 39.10626907748993 2.8
  endloop
endfacet
facet normal 2.819966482547903e-15 1.0 -4.426523680406831e-32
  outer loop
    vertex 74.43705847390169 42.0 2.8199664825478975e-15
    vertex 76.43705847390169 41.99999999999999 2.000000000000011
    vertex 76.43705847390169 41.99999999999999 1.4099832412739487e-15
  endloop
endfacet
facet normal 2.819966482547903e-15 1.0 -4.426523680406831e-32
  outer loop
    vertex 76.43705847390169 41.99999999999999 2.000000000000011
    vertex 74.43705847390169 42.0 2.8199664825478975e-15
    vertex 74.43705847390169 42.0 1.9999999999999998
  endloop
endfacet
facet normal 1.0 -0.0 -0.0
  outer loop
    vertex 76.43705847390169 41.99999999999999 1.4099832412739487e-15
    vertex 76.43705847390169 3.0000000000000058 2.0000000000000098
    vertex 76.43705847390169 3.0000000000000058 0.0
  endloop
endfacet
facet normal 1.0 -0.0 -0.0
  outer loop
    vertex 76.43705847390169 3.0000000000000058 2.0000000000000098
    vertex 76.43705847390169 41.99999999999999 1.4099832412739487e-15
    vertex 76.43705847390169 41.99999999999999 2.000000000000011
  endloop
endfacet
facet normal 0.0 -1.0 0.0
  outer loop
    vertex 76.43705847390169 3.0000000000000058 2.0000000000000098
    vertex 45.99999999999999 3.0000000000000058 0.0
    vertex 76.43705847390169 3.0000000000000058 0.0
  endloop
endfacet
facet normal 0.0 -1.0 0.0
  outer loop
    vertex 45.99999999999999 3.0000000000000058 0.0
    vertex 76.43705847390169 3.0000000000000058 2.0000000000000098
    vertex 45.99999999999999 3.0000000000000058 1.9999999999999998
  endloop
endfacet
facet normal -1.0 0.0 0.0
  outer loop
    vertex 74.43705847390169 39.10626907748993 1.9999999999999998
    vertex 74.43705847390169 5.8937309225100805 2.8199664825478975e-15
    vertex 74.43705847390169 5.8937309225100805 1.9999999999999998
  endloop
endfacet
facet normal -1.0 0.0 0.0
  outer loop
    vertex 74.43705847390169 5.8937309225100805 2.8199664825478975e-15
    vertex 74.43705847390169 39.10626907748993 1.9999999999999998
    vertex 74.43705847390169 39.10626907748993 5.639932965095795e-15
  endloop
endfacet
endsolid wing_support_test2
