solid wing_support
facet normal 0.0 0.0 -1.0
  outer loop
    vertex 190.0 39.0 0.0
    vertex 0.0 -3.0 0.0
    vertex 0.0 39.0 0.0
  endloop
endfacet
facet normal 0.0 0.0 -1.0
  outer loop
    vertex 0.0 -3.0 0.0
    vertex 190.0 39.0 0.0
    vertex 92.83531429703864 13.346666218300811 -1.6919798895287383e-14
  endloop
endfacet
facet normal 0.0 0.0 -1.0
  outer loop
    vertex 0.0 -3.0 0.0
    vertex 92.83531429703864 13.346666218300811 -1.6919798895287383e-14
    vertex 45.99999999999999 0.0 0.0
  endloop
endfacet
facet normal 0.0 0.0 -1.0
  outer loop
    vertex 45.99999999999999 0.0 0.0
    vertex 92.83531429703864 13.346666218300811 -1.6919798895287383e-14
    vertex 91.74999999999997 12.897114317029978 -1.6919798895287383e-14
  endloop
endfacet
facet normal 0.0 0.0 -1.0
  outer loop
    vertex 45.99999999999999 0.0 0.0
    vertex 91.74999999999997 12.897114317029978 -1.6919798895287383e-14
    vertex 90.81801948466051 12.181980515339463 -1.6919798895287383e-14
  endloop
endfacet
facet normal 0.0 0.0 -1.0
  outer loop
    vertex 45.99999999999999 0.0 0.0
    vertex 90.81801948466051 12.181980515339463 -1.6919798895287383e-14
    vertex 90.10288568297001 11.25 -1.6919798895287383e-14
  endloop
endfacet
facet normal 0.0 0.0 -1.0
  outer loop
    vertex 45.99999999999999 0.0 0.0
    vertex 90.10288568297001 11.25 -1.6919798895287383e-14
    vertex 89.65333378169917 10.164685702961343 -1.6919798895287383e-14
  endloop
endfacet
facet normal 0.0 0.0 -1.0
  outer loop
    vertex 45.99999999999999 0.0 0.0
    vertex 89.65333378169917 10.164685702961343 -1.6919798895287383e-14
    vertex 89.49999999999999 9.0 -1.6919798895287383e-14
  endloop
endfacet
facet normal 0.0 0.0 -1.0
  outer loop
    vertex 92.83531429703864 13.346666218300811 -1.6919798895287383e-14
    vertex 190.0 39.0 0.0
    vertex 93.99999999999999 13.500000000000004 -1.6919798895287383e-14
  endloop
endfacet
facet normal 0.0 0.0 -1.0
  outer loop
    vertex 93.99999999999999 13.500000000000004 -1.6919798895287383e-14
    vertex 190.0 39.0 0.0
    vertex 95.16468570296134 13.346666218300811 -1.6919798895287383e-14
  endloop
endfacet
facet normal 0.0 0.0 -1.0
  outer loop
    vertex 95.16468570296134 13.346666218300811 -1.6919798895287383e-14
    vertex 190.0 39.0 0.0
    vertex 96.24999999999999 12.89711431702998 -1.6919798895287383e-14
  endloop
endfacet
facet normal 0.0 0.0 -1.0
  outer loop
    vertex 96.24999999999999 12.89711431702998 -1.6919798895287383e-14
    vertex 190.0 39.0 0.0
    vertex 97.18198051533945 12.181980515339466 -1.6919798895287383e-14
  endloop
endfacet
facet normal 0.0 0.0 -1.0
  outer loop
    vertex 97.18198051533945 12.181980515339466 -1.6919798895287383e-14
    vertex 190.0 39.0 0.0
    vertex 97.89711431702996 11.250000000000005 -1.6919798895287383e-14
  endloop
endfacet
facet normal 0.0 0.0 -1.0
  outer loop
    vertex 97.89711431702996 11.250000000000005 -1.6919798895287383e-14
    vertex 190.0 39.0 0.0
    vertex 98.3466662183008 10.164685702961348 -1.6919798895287383e-14
  endloop
endfacet
facet normal 0.0 0.0 -1.0
  outer loop
    vertex 98.3466662183008 10.164685702961348 -1.6919798895287383e-14
    vertex 190.0 39.0 0.0
    vertex 98.49999999999999 9.0 -1.6919798895287383e-14
  endloop
endfacet
facet normal 0.0 0.0 -1.0
  outer loop
    vertex 45.99999999999999 0.0 0.0
    vertex 93.99999999999999 4.499999999999997 -1.6919798895287383e-14
    vertex 190.0 0.0 0.0
  endloop
endfacet
facet normal 0.0 0.0 -1.0
  outer loop
    vertex 93.99999999999999 4.499999999999997 -1.6919798895287383e-14
    vertex 45.99999999999999 0.0 0.0
    vertex 92.83531429703864 4.653333781699191 -1.6919798895287383e-14
  endloop
endfacet
facet normal 0.0 0.0 -1.0
  outer loop
    vertex 92.83531429703864 4.653333781699191 -1.6919798895287383e-14
    vertex 45.99999999999999 0.0 0.0
    vertex 91.74999999999999 5.102885682970023 -1.6919798895287383e-14
  endloop
endfacet
facet normal 0.0 0.0 -1.0
  outer loop
    vertex 91.74999999999999 5.102885682970023 -1.6919798895287383e-14
    vertex 45.99999999999999 0.0 0.0
    vertex 90.81801948466052 5.818019484660534 -1.6919798895287383e-14
  endloop
endfacet
facet normal 0.0 0.0 -1.0
  outer loop
    vertex 90.81801948466052 5.818019484660534 -1.6919798895287383e-14
    vertex 45.99999999999999 0.0 0.0
    vertex 90.10288568297001 6.749999999999997 -1.6919798895287383e-14
  endloop
endfacet
facet normal 0.0 0.0 -1.0
  outer loop
    vertex 90.10288568297001 6.749999999999997 -1.6919798895287383e-14
    vertex 45.99999999999999 0.0 0.0
    vertex 89.65333378169917 7.835314297038655 -1.6919798895287383e-14
  endloop
endfacet
facet normal 0.0 0.0 -1.0
  outer loop
    vertex 89.65333378169917 7.835314297038655 -1.6919798895287383e-14
    vertex 45.99999999999999 0.0 0.0
    vertex 89.49999999999999 9.0 -1.6919798895287383e-14
  endloop
endfacet
facet normal 0.0 0.0 -1.0
  outer loop
    vertex 190.0 0.0 0.0
    vertex 93.99999999999999 4.499999999999997 -1.6919798895287383e-14
    vertex 95.16468570296134 4.653333781699191 -1.6919798895287383e-14
  endloop
endfacet
facet normal 0.0 0.0 -1.0
  outer loop
    vertex 190.0 0.0 0.0
    vertex 95.16468570296134 4.653333781699191 -1.6919798895287383e-14
    vertex 96.24999999999999 5.102885682970024 -1.6919798895287383e-14
  endloop
endfacet
facet normal 0.0 0.0 -1.0
  outer loop
    vertex 190.0 0.0 0.0
    vertex 96.24999999999999 5.102885682970024 -1.6919798895287383e-14
    vertex 97.18198051533946 5.818019484660535 -1.6919798895287383e-14
  endloop
endfacet
facet normal 0.0 0.0 -1.0
  outer loop
    vertex 190.0 0.0 0.0
    vertex 97.18198051533946 5.818019484660535 -1.6919798895287383e-14
    vertex 97.89711431702996 6.749999999999999 -1.6919798895287383e-14
  endloop
endfacet
facet normal 0.0 0.0 -1.0
  outer loop
    vertex 190.0 0.0 0.0
    vertex 97.89711431702996 6.749999999999999 -1.6919798895287383e-14
    vertex 98.3466662183008 7.835314297038656 -1.6919798895287383e-14
  endloop
endfacet
facet normal 0.0 0.0 -1.0
  outer loop
    vertex 190.0 0.0 0.0
    vertex 98.3466662183008 7.835314297038656 -1.6919798895287383e-14
    vertex 98.49999999999999 9.0 -1.6919798895287383e-14
  endloop
endfacet
facet normal 0.0 0.0 -1.0
  outer loop
    vertex 190.0 0.0 0.0
    vertex 98.49999999999999 9.0 -1.6919798895287383e-14
    vertex 190.0 39.0 0.0
  endloop
endfacet
facet normal 0.0 0.0 -1.0
  outer loop
    vertex 190.0 0.0 0.0
    vertex 190.0 39.0 0.0
    vertex 190.0 36.0 5.874930171974789e-17
  endloop
endfacet
facet normal 0.0 0.0 -1.0
  outer loop
    vertex 190.0 0.0 0.0
    vertex 190.0 36.0 5.874930171974789e-17
    vertex 190.0 3.0 7.049916206369744e-16
  endloop
endfacet
facet normal 0.0 0.0 -1.0
  outer loop
    vertex 45.99999999999999 -3.0 0.0
    vertex 0.0 -3.0 0.0
    vertex 45.99999999999999 0.0 0.0
  endloop
endfacet
facet normal -4.202457947131844e-18 -5.262839102450635e-18 1.0
  outer loop
    vertex 40.99999999999999 -3.0 2.8
    vertex 0.0 39.0 2.8
    vertex 0.0 -3.0 2.8
  endloop
endfacet
facet normal -4.202457947131844e-18 -5.262839102450635e-18 1.0
  outer loop
    vertex 0.0 39.0 2.8
    vertex 40.99999999999999 -3.0 2.8
    vertex 40.99999999999999 39.0 2.8
  endloop
endfacet
facet normal -4.202457947131844e-18 -5.262839102450635e-18 1.0
  outer loop
    vertex 40.99999999999999 39.0 2.8
    vertex 40.99999999999999 -3.0 2.8
    vertex 40.99999999999999 3.0 2.8
  endloop
endfacet
facet normal -4.202457947131844e-18 -5.262839102450635e-18 1.0
  outer loop
    vertex 40.99999999999999 39.0 2.8
    vertex 40.99999999999999 3.0 2.8
    vertex 40.99999999999999 33.0 2.8000000000000007
  endloop
endfacet
facet normal 1.0 -0.0 -0.0
  outer loop
    vertex 45.99999999999999 0.0 0.0
    vertex 45.99999999999999 -3.0 2.8
    vertex 45.99999999999999 -3.0 0.0
  endloop
endfacet
facet normal 1.0 -0.0 -0.0
  outer loop
    vertex 45.99999999999999 -3.0 2.8
    vertex 45.99999999999999 0.0 0.0
    vertex 45.99999999999999 0.0 2.8
  endloop
endfacet
facet normal 0.0 -1.0 0.0
  outer loop
    vertex 45.99999999999999 -3.0 2.8
    vertex 0.0 -3.0 0.0
    vertex 45.99999999999999 -3.0 0.0
  endloop
endfacet
facet normal 0.0 -1.0 0.0
  outer loop
    vertex 0.0 -3.0 0.0
    vertex 45.99999999999999 -3.0 2.8
    vertex 0.0 -3.0 2.8
  endloop
endfacet
facet normal 0.0 -1.0 0.0
  outer loop
    vertex 0.0 -3.0 2.8
    vertex 45.99999999999999 -3.0 2.8
    vertex 40.99999999999999 -3.0 2.8
  endloop
endfacet
facet normal -1.0 0.0 0.0
  outer loop
    vertex 0.0 39.0 2.8
    vertex 0.0 -3.0 0.0
    vertex 0.0 -3.0 2.8
  endloop
endfacet
facet normal -1.0 0.0 0.0
  outer loop
    vertex 0.0 -3.0 0.0
    vertex 0.0 39.0 2.8
    vertex 0.0 39.0 0.0
  endloop
endfacet
facet normal -0.0 1.0 -0.0
  outer loop
    vertex 0.0 39.0 2.8
    vertex 190.0 39.0 0.0
    vertex 0.0 39.0 0.0
  endloop
endfacet
facet normal -0.0 1.0 -0.0
  outer loop
    vertex 190.0 39.0 0.0
    vertex 0.0 39.0 2.8
    vertex 188.0 39.0 1.9999999999999998
  endloop
endfacet
facet normal -0.0 1.0 -0.0
  outer loop
    vertex 188.0 39.0 1.9999999999999998
    vertex 0.0 39.0 2.8
    vertex 45.999999999999986 39.0 2.8
  endloop
endfacet
facet normal -0.0 1.0 -0.0
  outer loop
    vertex 188.0 39.0 1.9999999999999998
    vertex 45.999999999999986 39.0 2.8
    vertex 188.0 39.0 3.9999999999999996
  endloop
endfacet
facet normal -0.0 1.0 -0.0
  outer loop
    vertex 45.999999999999986 39.0 2.8
    vertex 0.0 39.0 2.8
    vertex 40.99999999999999 39.0 2.8
  endloop
endfacet
facet normal -0.0 1.0 -0.0
  outer loop
    vertex 188.0 39.0 3.9999999999999996
    vertex 45.999999999999986 39.0 2.8
    vertex 45.999999999999986 39.0 3.9999999999999996
  endloop
endfacet
facet normal 0.9238795325112867 0.38268343236508984 0.0
  outer loop
    vertex 89.65333378169917 7.835314297038655 -1.6919798895287383e-14
    vertex 90.10288568297001 6.749999999999997 1.9999999999999998
    vertex 90.10288568297001 6.749999999999997 -1.6919798895287383e-14
  endloop
endfacet
facet normal 0.9238795325112867 0.38268343236508984 0.0
  outer loop
    vertex 90.10288568297001 6.749999999999997 1.9999999999999998
    vertex 89.65333378169917 7.835314297038655 -1.6919798895287383e-14
    vertex 89.65333378169917 7.835314297038655 1.9999999999999998
  endloop
endfacet
facet normal 0.7933533402912337 0.6087614290087224 0.0
  outer loop
    vertex 90.10288568297001 6.749999999999997 -1.6919798895287383e-14
    vertex 90.81801948466052 5.818019484660534 1.9999999999999998
    vertex 90.81801948466052 5.818019484660534 -1.6919798895287383e-14
  endloop
endfacet
facet normal 0.7933533402912337 0.6087614290087224 0.0
  outer loop
    vertex 90.81801948466052 5.818019484660534 1.9999999999999998
    vertex 90.10288568297001 6.749999999999997 -1.6919798895287383e-14
    vertex 90.10288568297001 6.749999999999997 1.9999999999999998
  endloop
endfacet
facet normal 0.6087614290087208 0.793353340291235 0.0
  outer loop
    vertex 90.81801948466052 5.818019484660534 1.9999999999999998
    vertex 91.74999999999999 5.102885682970023 -1.6919798895287383e-14
    vertex 90.81801948466052 5.818019484660534 -1.6919798895287383e-14
  endloop
endfacet
facet normal 0.6087614290087208 0.793353340291235 0.0
  outer loop
    vertex 91.74999999999999 5.102885682970023 -1.6919798895287383e-14
    vertex 90.81801948466052 5.818019484660534 1.9999999999999998
    vertex 91.74999999999999 5.102885682970023 1.9999999999999998
  endloop
endfacet
facet normal 0.3826834323650919 0.9238795325112859 0.0
  outer loop
    vertex 91.74999999999999 5.102885682970023 1.9999999999999998
    vertex 92.83531429703864 4.653333781699191 -1.6919798895287383e-14
    vertex 91.74999999999999 5.102885682970023 -1.6919798895287383e-14
  endloop
endfacet
facet normal 0.3826834323650919 0.9238795325112859 0.0
  outer loop
    vertex 92.83531429703864 4.653333781699191 -1.6919798895287383e-14
    vertex 91.74999999999999 5.102885682970023 1.9999999999999998
    vertex 92.83531429703864 4.653333781699191 1.9999999999999998
  endloop
endfacet
facet normal 0.13052619222005135 0.9914448613738104 0.0
  outer loop
    vertex 92.83531429703864 4.653333781699191 1.9999999999999998
    vertex 93.99999999999999 4.499999999999997 -1.6919798895287383e-14
    vertex 92.83531429703864 4.653333781699191 -1.6919798895287383e-14
  endloop
endfacet
facet normal 0.13052619222005135 0.9914448613738104 0.0
  outer loop
    vertex 93.99999999999999 4.499999999999997 -1.6919798895287383e-14
    vertex 92.83531429703864 4.653333781699191 1.9999999999999998
    vertex 93.99999999999999 4.499999999999997 1.9999999999999998
  endloop
endfacet
facet normal -0.13052619222005135 0.9914448613738104 -0.0
  outer loop
    vertex 93.99999999999999 4.499999999999997 1.9999999999999998
    vertex 95.16468570296134 4.653333781699191 -1.6919798895287383e-14
    vertex 93.99999999999999 4.499999999999997 -1.6919798895287383e-14
  endloop
endfacet
facet normal -0.13052619222005135 0.9914448613738104 -0.0
  outer loop
    vertex 95.16468570296134 4.653333781699191 -1.6919798895287383e-14
    vertex 93.99999999999999 4.499999999999997 1.9999999999999998
    vertex 95.16468570296134 4.653333781699191 1.9999999999999998
  endloop
endfacet
facet normal -0.382683432365089 0.9238795325112872 -0.0
  outer loop
    vertex 95.16468570296134 4.653333781699191 1.9999999999999998
    vertex 96.24999999999999 5.102885682970024 -1.6919798895287383e-14
    vertex 95.16468570296134 4.653333781699191 -1.6919798895287383e-14
  endloop
endfacet
facet normal -0.382683432365089 0.9238795325112872 -0.0
  outer loop
    vertex 96.24999999999999 5.102885682970024 -1.6919798895287383e-14
    vertex 95.16468570296134 4.653333781699191 1.9999999999999998
    vertex 96.24999999999999 5.102885682970024 1.9999999999999998
  endloop
endfacet
facet normal -0.6087614290087208 0.793353340291235 -0.0
  outer loop
    vertex 96.24999999999999 5.102885682970024 1.9999999999999998
    vertex 97.18198051533946 5.818019484660535 -1.6919798895287383e-14
    vertex 96.24999999999999 5.102885682970024 -1.6919798895287383e-14
  endloop
endfacet
facet normal -0.6087614290087208 0.793353340291235 -0.0
  outer loop
    vertex 97.18198051533946 5.818019484660535 -1.6919798895287383e-14
    vertex 96.24999999999999 5.102885682970024 1.9999999999999998
    vertex 97.18198051533946 5.818019484660535 1.9999999999999998
  endloop
endfacet
facet normal -0.7933533402912386 0.6087614290087161 -0.0
  outer loop
    vertex 97.89711431702996 6.749999999999999 1.9999999999999998
    vertex 97.18198051533946 5.818019484660535 -1.6919798895287383e-14
    vertex 97.18198051533946 5.818019484660535 1.9999999999999998
  endloop
endfacet
facet normal -0.7933533402912386 0.6087614290087161 -0.0
  outer loop
    vertex 97.18198051533946 5.818019484660535 -1.6919798895287383e-14
    vertex 97.89711431702996 6.749999999999999 1.9999999999999998
    vertex 97.89711431702996 6.749999999999999 -1.6919798895287383e-14
  endloop
endfacet
facet normal -0.9238795325112867 0.38268343236508984 -0.0
  outer loop
    vertex 98.3466662183008 7.835314297038656 1.9999999999999998
    vertex 97.89711431702996 6.749999999999999 -1.6919798895287383e-14
    vertex 97.89711431702996 6.749999999999999 1.9999999999999998
  endloop
endfacet
facet normal -0.9238795325112867 0.38268343236508984 -0.0
  outer loop
    vertex 97.89711431702996 6.749999999999999 -1.6919798895287383e-14
    vertex 98.3466662183008 7.835314297038656 1.9999999999999998
    vertex 98.3466662183008 7.835314297038656 -1.6919798895287383e-14
  endloop
endfacet
facet normal -0.9914448613738102 0.13052619222005404 -0.0
  outer loop
    vertex 98.49999999999999 9.0 1.9999999999999998
    vertex 98.3466662183008 7.835314297038656 -1.6919798895287383e-14
    vertex 98.3466662183008 7.835314297038656 1.9999999999999998
  endloop
endfacet
facet normal -0.9914448613738102 0.13052619222005404 -0.0
  outer loop
    vertex 98.3466662183008 7.835314297038656 -1.6919798895287383e-14
    vertex 98.49999999999999 9.0 1.9999999999999998
    vertex 98.49999999999999 9.0 -1.6919798895287383e-14
  endloop
endfacet
facet normal -0.9914448613738102 -0.13052619222005357 -0.0
  outer loop
    vertex 98.3466662183008 10.164685702961348 1.9999999999999998
    vertex 98.49999999999999 9.0 -1.6919798895287383e-14
    vertex 98.49999999999999 9.0 1.9999999999999998
  endloop
endfacet
facet normal -0.9914448613738102 -0.13052619222005357 -0.0
  outer loop
    vertex 98.49999999999999 9.0 -1.6919798895287383e-14
    vertex 98.3466662183008 10.164685702961348 1.9999999999999998
    vertex 98.3466662183008 10.164685702961348 -1.6919798895287383e-14
  endloop
endfacet
facet normal -0.9238795325112865 -0.3826834323650903 -0.0
  outer loop
    vertex 97.89711431702996 11.250000000000005 1.9999999999999998
    vertex 98.3466662183008 10.164685702961348 -1.6919798895287383e-14
    vertex 98.3466662183008 10.164685702961348 1.9999999999999998
  endloop
endfacet
facet normal -0.9238795325112865 -0.3826834323650903 -0.0
  outer loop
    vertex 98.3466662183008 10.164685702961348 -1.6919798895287383e-14
    vertex 97.89711431702996 11.250000000000005 1.9999999999999998
    vertex 97.89711431702996 11.250000000000005 -1.6919798895287383e-14
  endloop
endfacet
facet normal -0.7933533402912334 -0.608761429008723 -0.0
  outer loop
    vertex 97.18198051533945 12.181980515339466 1.9999999999999998
    vertex 97.89711431702996 11.250000000000005 -1.6919798895287383e-14
    vertex 97.89711431702996 11.250000000000005 1.9999999999999998
  endloop
endfacet
facet normal -0.7933533402912334 -0.608761429008723 -0.0
  outer loop
    vertex 97.89711431702996 11.250000000000005 -1.6919798895287383e-14
    vertex 97.18198051533945 12.181980515339466 1.9999999999999998
    vertex 97.18198051533945 12.181980515339466 -1.6919798895287383e-14
  endloop
endfacet
facet normal -0.6087614290087219 -0.7933533402912343 -0.0
  outer loop
    vertex 97.18198051533945 12.181980515339466 1.9999999999999998
    vertex 96.24999999999999 12.89711431702998 -1.6919798895287383e-14
    vertex 97.18198051533945 12.181980515339466 -1.6919798895287383e-14
  endloop
endfacet
facet normal -0.6087614290087219 -0.7933533402912343 -0.0
  outer loop
    vertex 96.24999999999999 12.89711431702998 -1.6919798895287383e-14
    vertex 97.18198051533945 12.181980515339466 1.9999999999999998
    vertex 96.24999999999999 12.89711431702998 1.9999999999999998
  endloop
endfacet
facet normal -0.38268343236509034 -0.9238795325112865 -0.0
  outer loop
    vertex 96.24999999999999 12.89711431702998 1.9999999999999998
    vertex 95.16468570296134 13.346666218300811 -1.6919798895287383e-14
    vertex 96.24999999999999 12.89711431702998 -1.6919798895287383e-14
  endloop
endfacet
facet normal -0.38268343236509034 -0.9238795325112865 -0.0
  outer loop
    vertex 95.16468570296134 13.346666218300811 -1.6919798895287383e-14
    vertex 96.24999999999999 12.89711431702998 1.9999999999999998
    vertex 95.16468570296134 13.346666218300811 1.9999999999999998
  endloop
endfacet
facet normal -0.13052619222005135 -0.9914448613738104 -0.0
  outer loop
    vertex 95.16468570296134 13.346666218300811 1.9999999999999998
    vertex 93.99999999999999 13.500000000000004 -1.6919798895287383e-14
    vertex 95.16468570296134 13.346666218300811 -1.6919798895287383e-14
  endloop
endfacet
facet normal -0.13052619222005135 -0.9914448613738104 -0.0
  outer loop
    vertex 93.99999999999999 13.500000000000004 -1.6919798895287383e-14
    vertex 95.16468570296134 13.346666218300811 1.9999999999999998
    vertex 93.99999999999999 13.500000000000004 1.9999999999999998
  endloop
endfacet
facet normal 0.13052619222005135 -0.9914448613738104 -0.0
  outer loop
    vertex 93.99999999999999 13.500000000000004 1.9999999999999998
    vertex 92.83531429703864 13.346666218300811 -1.6919798895287383e-14
    vertex 93.99999999999999 13.500000000000004 -1.6919798895287383e-14
  endloop
endfacet
facet normal 0.13052619222005135 -0.9914448613738104 -0.0
  outer loop
    vertex 92.83531429703864 13.346666218300811 -1.6919798895287383e-14
    vertex 93.99999999999999 13.500000000000004 1.9999999999999998
    vertex 92.83531429703864 13.346666218300811 1.9999999999999998
  endloop
endfacet
facet normal 0.382683432365089 -0.9238795325112872 -0.0
  outer loop
    vertex 92.83531429703864 13.346666218300811 1.9999999999999998
    vertex 91.74999999999997 12.897114317029978 -1.6919798895287383e-14
    vertex 92.83531429703864 13.346666218300811 -1.6919798895287383e-14
  endloop
endfacet
facet normal 0.382683432365089 -0.9238795325112872 -0.0
  outer loop
    vertex 91.74999999999997 12.897114317029978 -1.6919798895287383e-14
    vertex 92.83531429703864 13.346666218300811 1.9999999999999998
    vertex 91.74999999999997 12.897114317029978 1.9999999999999998
  endloop
endfacet
facet normal 0.6087614290087219 -0.7933533402912343 -0.0
  outer loop
    vertex 91.74999999999997 12.897114317029978 1.9999999999999998
    vertex 90.81801948466051 12.181980515339463 -1.6919798895287383e-14
    vertex 91.74999999999997 12.897114317029978 -1.6919798895287383e-14
  endloop
endfacet
facet normal 0.6087614290087219 -0.7933533402912343 -0.0
  outer loop
    vertex 90.81801948466051 12.181980515339463 -1.6919798895287383e-14
    vertex 91.74999999999997 12.897114317029978 1.9999999999999998
    vertex 90.81801948466051 12.181980515339463 1.9999999999999998
  endloop
endfacet
facet normal 0.7933533402912385 -0.6087614290087164 -0.0
  outer loop
    vertex 90.81801948466051 12.181980515339463 -1.6919798895287383e-14
    vertex 90.10288568297001 11.25 1.9999999999999998
    vertex 90.10288568297001 11.25 -1.6919798895287383e-14
  endloop
endfacet
facet normal 0.7933533402912385 -0.6087614290087164 -0.0
  outer loop
    vertex 90.10288568297001 11.25 1.9999999999999998
    vertex 90.81801948466051 12.181980515339463 -1.6919798895287383e-14
    vertex 90.81801948466051 12.181980515339463 1.9999999999999998
  endloop
endfacet
facet normal 0.9238795325112867 -0.38268343236508984 -0.0
  outer loop
    vertex 90.10288568297001 11.25 -1.6919798895287383e-14
    vertex 89.65333378169917 10.164685702961343 1.9999999999999998
    vertex 89.65333378169917 10.164685702961343 -1.6919798895287383e-14
  endloop
endfacet
facet normal 0.9238795325112867 -0.38268343236508984 -0.0
  outer loop
    vertex 89.65333378169917 10.164685702961343 1.9999999999999998
    vertex 90.10288568297001 11.25 -1.6919798895287383e-14
    vertex 90.10288568297001 11.25 1.9999999999999998
  endloop
endfacet
facet normal 0.99144486137381 -0.13052619222005418 -0.0
  outer loop
    vertex 89.65333378169917 10.164685702961343 -1.6919798895287383e-14
    vertex 89.49999999999999 9.0 1.9999999999999998
    vertex 89.49999999999999 9.0 -1.6919798895287383e-14
  endloop
endfacet
facet normal 0.99144486137381 -0.13052619222005418 -0.0
  outer loop
    vertex 89.49999999999999 9.0 1.9999999999999998
    vertex 89.65333378169917 10.164685702961343 -1.6919798895287383e-14
    vertex 89.65333378169917 10.164685702961343 1.9999999999999998
  endloop
endfacet
facet normal 0.9914448613738102 0.1305261922200539 0.0
  outer loop
    vertex 89.49999999999999 9.0 -1.6919798895287383e-14
    vertex 89.65333378169917 7.835314297038655 1.9999999999999998
    vertex 89.65333378169917 7.835314297038655 -1.6919798895287383e-14
  endloop
endfacet
facet normal 0.9914448613738102 0.1305261922200539 0.0
  outer loop
    vertex 89.65333378169917 7.835314297038655 1.9999999999999998
    vertex 89.49999999999999 9.0 -1.6919798895287383e-14
    vertex 89.49999999999999 9.0 1.9999999999999998
  endloop
endfacet
facet normal 1.0 -0.0 -0.0
  outer loop
    vertex 45.999999999999986 36.0 1.9999999999999998
    vertex 45.999999999999986 3.0 2.8
    vertex 45.999999999999986 3.0 1.9999999999999998
  endloop
endfacet
facet normal 1.0 -0.0 -0.0
  outer loop
    vertex 45.999999999999986 3.0 2.8
    vertex 45.999999999999986 36.0 1.9999999999999998
    vertex 45.999999999999986 33.0 2.8
  endloop
endfacet
facet normal 1.0 -0.0 -0.0
  outer loop
    vertex 45.999999999999986 33.0 2.8
    vertex 45.999999999999986 36.0 1.9999999999999998
    vertex 45.999999999999986 36.0 2.8
  endloop
endfacet
facet normal 0.0 -1.0 0.0
  outer loop
    vertex 188.0 0.0 1.9999999999999998
    vertex 45.99999999999999 0.0 0.0
    vertex 190.0 0.0 0.0
  endloop
endfacet
facet normal 0.0 -1.0 0.0
  outer loop
    vertex 45.99999999999999 0.0 0.0
    vertex 188.0 0.0 1.9999999999999998
    vertex 45.99999999999999 0.0 2.8
  endloop
endfacet
facet normal 0.0 -1.0 0.0
  outer loop
    vertex 45.99999999999999 0.0 2.8
    vertex 188.0 0.0 1.9999999999999998
    vertex 188.0 0.0 3.9999999999999996
  endloop
endfacet
facet normal 0.0 -1.0 0.0
  outer loop
    vertex 45.99999999999999 0.0 2.8
    vertex 188.0 0.0 3.9999999999999996
    vertex 45.99999999999999 0.0 3.9999999999999996
  endloop
endfacet
facet normal 0.707106781186548 5.813595331981309e-18 0.707106781186547
  outer loop
    vertex 190.0 36.0 5.874930171974789e-17
    vertex 188.0 3.0 1.9999999999999998
    vertex 190.0 3.0 7.049916206369744e-16
  endloop
endfacet
facet normal 0.707106781186548 5.813595331981309e-18 0.707106781186547
  outer loop
    vertex 188.0 3.0 1.9999999999999998
    vertex 190.0 36.0 5.874930171974789e-17
    vertex 188.0 36.0 1.9999999999999998
  endloop
endfacet
facet normal -0.0 -0.0 1.0
  outer loop
    vertex 45.999999999999986 3.0 1.9999999999999998
    vertex 91.74999999999999 5.102885682970023 1.9999999999999998
    vertex 45.999999999999986 36.0 1.9999999999999998
  endloop
endfacet
facet normal -0.0 -0.0 1.0
  outer loop
    vertex 91.74999999999999 5.102885682970023 1.9999999999999998
    vertex 45.999999999999986 3.0 1.9999999999999998
    vertex 92.83531429703864 4.653333781699191 1.9999999999999998
  endloop
endfacet
facet normal -0.0 -0.0 1.0
  outer loop
    vertex 92.83531429703864 4.653333781699191 1.9999999999999998
    vertex 45.999999999999986 3.0 1.9999999999999998
    vertex 93.99999999999999 4.499999999999997 1.9999999999999998
  endloop
endfacet
facet normal -0.0 -0.0 1.0
  outer loop
    vertex 93.99999999999999 4.499999999999997 1.9999999999999998
    vertex 45.999999999999986 3.0 1.9999999999999998
    vertex 188.0 3.0 1.9999999999999998
  endloop
endfacet
facet normal -0.0 -0.0 1.0
  outer loop
    vertex 45.999999999999986 36.0 1.9999999999999998
    vertex 91.74999999999999 5.102885682970023 1.9999999999999998
    vertex 90.81801948466052 5.818019484660534 1.9999999999999998
  endloop
endfacet
facet normal -0.0 -0.0 1.0
  outer loop
    vertex 45.999999999999986 36.0 1.9999999999999998
    vertex 90.81801948466052 5.818019484660534 1.9999999999999998
    vertex 90.10288568297001 6.749999999999997 1.9999999999999998
  endloop
endfacet
facet normal -0.0 -0.0 1.0
  outer loop
    vertex 45.999999999999986 36.0 1.9999999999999998
    vertex 90.10288568297001 6.749999999999997 1.9999999999999998
    vertex 89.65333378169917 7.835314297038655 1.9999999999999998
  endloop
endfacet
facet normal -0.0 -0.0 1.0
  outer loop
    vertex 45.999999999999986 36.0 1.9999999999999998
    vertex 89.65333378169917 7.835314297038655 1.9999999999999998
    vertex 89.49999999999999 9.0 1.9999999999999998
  endloop
endfacet
facet normal -0.0 -0.0 1.0
  outer loop
    vertex 93.99999999999999 4.499999999999997 1.9999999999999998
    vertex 188.0 3.0 1.9999999999999998
    vertex 95.16468570296134 4.653333781699191 1.9999999999999998
  endloop
endfacet
facet normal -0.0 -0.0 1.0
  outer loop
    vertex 95.16468570296134 4.653333781699191 1.9999999999999998
    vertex 188.0 3.0 1.9999999999999998
    vertex 96.24999999999999 5.102885682970024 1.9999999999999998
  endloop
endfacet
facet normal -0.0 -0.0 1.0
  outer loop
    vertex 96.24999999999999 5.102885682970024 1.9999999999999998
    vertex 188.0 3.0 1.9999999999999998
    vertex 97.18198051533946 5.818019484660535 1.9999999999999998
  endloop
endfacet
facet normal -0.0 -0.0 1.0
  outer loop
    vertex 97.18198051533946 5.818019484660535 1.9999999999999998
    vertex 188.0 3.0 1.9999999999999998
    vertex 97.89711431702996 6.749999999999999 1.9999999999999998
  endloop
endfacet
facet normal -0.0 -0.0 1.0
  outer loop
    vertex 97.89711431702996 6.749999999999999 1.9999999999999998
    vertex 188.0 3.0 1.9999999999999998
    vertex 98.3466662183008 7.835314297038656 1.9999999999999998
  endloop
endfacet
facet normal -0.0 -0.0 1.0
  outer loop
    vertex 98.3466662183008 7.835314297038656 1.9999999999999998
    vertex 188.0 3.0 1.9999999999999998
    vertex 98.49999999999999 9.0 1.9999999999999998
  endloop
endfacet
facet normal -0.0 -0.0 1.0
  outer loop
    vertex 45.999999999999986 36.0 1.9999999999999998
    vertex 92.83531429703864 13.346666218300811 1.9999999999999998
    vertex 188.0 36.0 1.9999999999999998
  endloop
endfacet
facet normal -0.0 -0.0 1.0
  outer loop
    vertex 92.83531429703864 13.346666218300811 1.9999999999999998
    vertex 45.999999999999986 36.0 1.9999999999999998
    vertex 91.74999999999997 12.897114317029978 1.9999999999999998
  endloop
endfacet
facet normal -0.0 -0.0 1.0
  outer loop
    vertex 91.74999999999997 12.897114317029978 1.9999999999999998
    vertex 45.999999999999986 36.0 1.9999999999999998
    vertex 90.81801948466051 12.181980515339463 1.9999999999999998
  endloop
endfacet
facet normal -0.0 -0.0 1.0
  outer loop
    vertex 90.81801948466051 12.181980515339463 1.9999999999999998
    vertex 45.999999999999986 36.0 1.9999999999999998
    vertex 90.10288568297001 11.25 1.9999999999999998
  endloop
endfacet
facet normal -0.0 -0.0 1.0
  outer loop
    vertex 90.10288568297001 11.25 1.9999999999999998
    vertex 45.999999999999986 36.0 1.9999999999999998
    vertex 89.65333378169917 10.164685702961343 1.9999999999999998
  endloop
endfacet
facet normal -0.0 -0.0 1.0
  outer loop
    vertex 89.65333378169917 10.164685702961343 1.9999999999999998
    vertex 45.999999999999986 36.0 1.9999999999999998
    vertex 89.49999999999999 9.0 1.9999999999999998
  endloop
endfacet
facet normal -0.0 -0.0 1.0
  outer loop
    vertex 188.0 36.0 1.9999999999999998
    vertex 92.83531429703864 13.346666218300811 1.9999999999999998
    vertex 93.99999999999999 13.500000000000004 1.9999999999999998
  endloop
endfacet
facet normal -0.0 -0.0 1.0
  outer loop
    vertex 188.0 36.0 1.9999999999999998
    vertex 93.99999999999999 13.500000000000004 1.9999999999999998
    vertex 95.16468570296134 13.346666218300811 1.9999999999999998
  endloop
endfacet
facet normal -0.0 -0.0 1.0
  outer loop
    vertex 188.0 36.0 1.9999999999999998
    vertex 95.16468570296134 13.346666218300811 1.9999999999999998
    vertex 96.24999999999999 12.89711431702998 1.9999999999999998
  endloop
endfacet
facet normal -0.0 -0.0 1.0
  outer loop
    vertex 188.0 36.0 1.9999999999999998
    vertex 96.24999999999999 12.89711431702998 1.9999999999999998
    vertex 97.18198051533945 12.181980515339466 1.9999999999999998
  endloop
endfacet
facet normal -0.0 -0.0 1.0
  outer loop
    vertex 188.0 36.0 1.9999999999999998
    vertex 97.18198051533945 12.181980515339466 1.9999999999999998
    vertex 97.89711431702996 11.250000000000005 1.9999999999999998
  endloop
endfacet
facet normal -0.0 -0.0 1.0
  outer loop
    vertex 188.0 36.0 1.9999999999999998
    vertex 97.89711431702996 11.250000000000005 1.9999999999999998
    vertex 98.3466662183008 10.164685702961348 1.9999999999999998
  endloop
endfacet
facet normal -0.0 -0.0 1.0
  outer loop
    vertex 188.0 36.0 1.9999999999999998
    vertex 98.3466662183008 10.164685702961348 1.9999999999999998
    vertex 98.49999999999999 9.0 1.9999999999999998
  endloop
endfacet
facet normal -0.0 -0.0 1.0
  outer loop
    vertex 188.0 36.0 1.9999999999999998
    vertex 98.49999999999999 9.0 1.9999999999999998
    vertex 188.0 3.0 1.9999999999999998
  endloop
endfacet
facet normal 0.0 -1.0 0.0
  outer loop
    vertex 188.0 36.0 3.9999999999999996
    vertex 45.999999999999986 36.0 1.9999999999999998
    vertex 188.0 36.0 1.9999999999999998
  endloop
endfacet
facet normal 0.0 -1.0 0.0
  outer loop
    vertex 45.999999999999986 36.0 1.9999999999999998
    vertex 188.0 36.0 3.9999999999999996
    vertex 45.999999999999986 36.0 2.8
  endloop
endfacet
facet normal 0.0 -1.0 0.0
  outer loop
    vertex 45.999999999999986 36.0 2.8
    vertex 188.0 36.0 3.9999999999999996
    vertex 45.999999999999986 36.0 3.9999999999999996
  endloop
endfacet
facet normal 0.0 0.0 1.0
  outer loop
    vertex 188.0 36.0 3.9999999999999996
    vertex 45.999999999999986 39.0 3.9999999999999996
    vertex 45.999999999999986 36.0 3.9999999999999996
  endloop
endfacet
facet normal 0.0 0.0 1.0
  outer loop
    vertex 45.999999999999986 39.0 3.9999999999999996
    vertex 188.0 36.0 3.9999999999999996
    vertex 188.0 39.0 3.9999999999999996
  endloop
endfacet
facet normal -0.0 1.0 -0.0
  outer loop
    vertex 45.999999999999986 3.0 2.8
    vertex 188.0 3.0 1.9999999999999998
    vertex 45.999999999999986 3.0 1.9999999999999998
  endloop
endfacet
facet normal -0.0 1.0 -0.0
  outer loop
    vertex 188.0 3.0 1.9999999999999998
    vertex 45.999999999999986 3.0 2.8
    vertex 188.0 3.0 3.9999999999999996
  endloop
endfacet
facet normal -0.0 1.0 -0.0
  outer loop
    vertex 188.0 3.0 3.9999999999999996
    vertex 45.999999999999986 3.0 2.8
    vertex 45.999999999999986 3.0 3.9999999999999996
  endloop
endfacet
facet normal 0.0 0.0 1.0
  outer loop
    vertex 45.99999999999999 0.0 3.9999999999999996
    vertex 188.0 3.0 3.9999999999999996
    vertex 45.999999999999986 3.0 3.9999999999999996
  endloop
endfacet
facet normal 0.0 0.0 1.0
  outer loop
    vertex 188.0 3.0 3.9999999999999996
    vertex 45.99999999999999 0.0 3.9999999999999996
    vertex 188.0 0.0 3.9999999999999996
  endloop
endfacet
facet normal -0.2333729524753242 -2.1765415572144403e-16 0.9723873019805175
  outer loop
    vertex 45.99999999999999 -3.0 3.9999999999999996
    vertex 40.99999999999999 3.0 2.8
    vertex 40.99999999999999 -3.0 2.8
  endloop
endfacet
facet normal -0.2333729524753242 -2.1765415572144403e-16 0.9723873019805175
  outer loop
    vertex 40.99999999999999 3.0 2.8
    vertex 45.99999999999999 -3.0 3.9999999999999996
    vertex 45.999999999999986 3.0 3.9999999999999996
  endloop
endfacet
facet normal -0.2333729524753242 -2.1765415572144403e-16 0.9723873019805175
  outer loop
    vertex 45.999999999999986 3.0 3.9999999999999996
    vertex 45.99999999999999 -3.0 3.9999999999999996
    vertex 45.99999999999999 0.0 3.9999999999999996
  endloop
endfacet
facet normal -0.0 1.0 -0.0
  outer loop
    vertex 45.999999999999986 3.0 3.9999999999999996
    vertex 45.999999999999986 3.0 2.8
    vertex 40.99999999999999 3.0 2.8
  endloop
endfacet
facet normal -0.0 1.0 -0.0
  outer loop
    vertex 45.999999999999986 39.0 3.9999999999999996
    vertex 45.999999999999986 39.0 2.8
    vertex 40.99999999999999 39.0 2.8
  endloop
endfacet
facet normal -0.23337295247532436 3.2345825919714554e-16 0.9723873019805175
  outer loop
    vertex 45.999999999999986 33.0 3.9999999999999996
    vertex 40.99999999999999 39.0 2.8
    vertex 40.99999999999999 33.0 2.8000000000000007
  endloop
endfacet
facet normal -0.23337295247532436 3.2345825919714554e-16 0.9723873019805175
  outer loop
    vertex 40.99999999999999 39.0 2.8
    vertex 45.999999999999986 33.0 3.9999999999999996
    vertex 45.999999999999986 36.0 3.9999999999999996
  endloop
endfacet
facet normal -0.23337295247532436 3.2345825919714554e-16 0.9723873019805175
  outer loop
    vertex 40.99999999999999 39.0 2.8
    vertex 45.999999999999986 36.0 3.9999999999999996
    vertex 45.999999999999986 39.0 3.9999999999999996
  endloop
endfacet
facet normal 7.049916206369756e-17 -1.0681691221772337e-17 1.0
  outer loop
    vertex 45.999999999999986 3.0 2.8
    vertex 40.99999999999999 33.0 2.8000000000000007
    vertex 40.99999999999999 3.0 2.8
  endloop
endfacet
facet normal 7.049916206369756e-17 -1.0681691221772337e-17 1.0
  outer loop
    vertex 40.99999999999999 33.0 2.8000000000000007
    vertex 45.999999999999986 3.0 2.8
    vertex 45.999999999999986 33.0 2.8
  endloop
endfacet
facet normal -0.0 1.0 -0.0
  outer loop
    vertex 188.0 39.0 3.9999999999999996
    vertex 190.0 39.0 0.0
    vertex 188.0 39.0 1.9999999999999998
  endloop
endfacet
facet normal 0.0 -1.0 0.0
  outer loop
    vertex 188.0 0.0 3.9999999999999996
    vertex 188.0 0.0 1.9999999999999998
    vertex 190.0 0.0 0.0
  endloop
endfacet
facet normal 0.8944271909999162 -5.561221299684057e-17 0.4472135954999574
  outer loop
    vertex 190.0 3.0 7.049916206369744e-16
    vertex 188.0 0.0 3.9999999999999996
    vertex 190.0 0.0 0.0
  endloop
endfacet
facet normal 0.8944271909999162 -5.561221299684057e-17 0.4472135954999574
  outer loop
    vertex 188.0 0.0 3.9999999999999996
    vertex 190.0 3.0 7.049916206369744e-16
    vertex 188.0 3.0 3.9999999999999996
  endloop
endfacet
facet normal -0.0 1.0 -0.0
  outer loop
    vertex 188.0 3.0 3.9999999999999996
    vertex 190.0 3.0 7.049916206369744e-16
    vertex 188.0 3.0 1.9999999999999998
  endloop
endfacet
facet normal 0.8944271909999162 -0.0 0.44721359549995726
  outer loop
    vertex 190.0 39.0 0.0
    vertex 188.0 36.0 3.9999999999999996
    vertex 190.0 36.0 5.874930171974789e-17
  endloop
endfacet
facet normal 0.8944271909999162 -0.0 0.44721359549995726
  outer loop
    vertex 188.0 36.0 3.9999999999999996
    vertex 190.0 39.0 0.0
    vertex 188.0 39.0 3.9999999999999996
  endloop
endfacet
facet normal 0.0 -1.0 0.0
  outer loop
    vertex 188.0 36.0 3.9999999999999996
    vertex 188.0 36.0 1.9999999999999998
    vertex 190.0 36.0 5.874930171974789e-17
  endloop
endfacet
facet normal 0.0 -1.0 0.0
  outer loop
    vertex 45.99999999999999 -3.0 3.9999999999999996
    vertex 40.99999999999999 -3.0 2.8
    vertex 45.99999999999999 -3.0 2.8
  endloop
endfacet
facet normal 1.0 -0.0 -0.0
  outer loop
    vertex 45.99999999999999 0.0 2.8
    vertex 45.99999999999999 -3.0 3.9999999999999996
    vertex 45.99999999999999 -3.0 2.8
  endloop
endfacet
facet normal 1.0 -0.0 -0.0
  outer loop
    vertex 45.99999999999999 -3.0 3.9999999999999996
    vertex 45.99999999999999 0.0 2.8
    vertex 45.99999999999999 0.0 3.9999999999999996
  endloop
endfacet
facet normal 0.0 -1.0 0.0
  outer loop
    vertex 45.999999999999986 33.0 3.9999999999999996
    vertex 40.99999999999999 33.0 2.8000000000000007
    vertex 45.999999999999986 33.0 2.8
  endloop
endfacet
facet normal 1.0 0.0 -0.0
  outer loop
    vertex 45.999999999999986 36.0 2.8
    vertex 45.999999999999986 33.0 3.9999999999999996
    vertex 45.999999999999986 33.0 2.8
  endloop
endfacet
facet normal 1.0 0.0 -0.0
  outer loop
    vertex 45.999999999999986 33.0 3.9999999999999996
    vertex 45.999999999999986 36.0 2.8
    vertex 45.999999999999986 36.0 3.9999999999999996
  endloop
endfacet
endsolid wing_support
