solid gopro_sun_protector
facet normal 0.38268343236508756 0.9238795325112878 -3.1932679391603285e-17
  outer loop
    vertex 15.434630618404888 21.233027675689293 2.000000000000007
    vertex 15.67581157330237 21.13312725318466 0.0
    vertex 15.434630618404888 21.233027675689293 0.0
  endloop
endfacet
facet normal 0.38268343236508756 0.9238795325112878 -3.1932679391603285e-17
  outer loop
    vertex 15.67581157330237 21.13312725318466 0.0
    vertex 15.434630618404888 21.233027675689293 2.000000000000007
    vertex 15.67581157330237 21.13312725318466 2.000000000000007
  endloop
endfacet
facet normal 2.4678833810203896e-18 -3.5585913874682836e-17 -1.0
  outer loop
    vertex 15.284180416560986 24.934527816144332 0.0
    vertex 14.934630618404888 22.099053079473727 0.0
    vertex 14.57246910597152 24.669562457286077 0.0
  endloop
endfacet
facet normal 2.4678833810203896e-18 -3.5585913874682836e-17 -1.0
  outer loop
    vertex 14.934630618404888 22.099053079473727 0.0
    vertex 15.284180416560986 24.934527816144332 0.0
    vertex 14.96870479211582 22.357872124576247 0.0
  endloop
endfacet
facet normal 2.4678833810203896e-18 -3.5585913874682836e-17 -1.0
  outer loop
    vertex 14.96870479211582 22.357872124576247 0.0
    vertex 15.284180416560986 24.934527816144332 0.0
    vertex 15.068605214620447 22.599053079473727 0.0
  endloop
endfacet
facet normal 2.4678833810203896e-18 -3.5585913874682836e-17 -1.0
  outer loop
    vertex 15.068605214620447 22.599053079473727 0.0
    vertex 15.284180416560986 24.934527816144332 0.0
    vertex 15.227523837218344 22.806159860660273 0.0
  endloop
endfacet
facet normal 2.4678833810203896e-18 -3.5585913874682836e-17 -1.0
  outer loop
    vertex 15.227523837218344 22.806159860660273 0.0
    vertex 15.284180416560986 24.934527816144332 0.0
    vertex 15.434630618404888 22.965078483258164 0.0
  endloop
endfacet
facet normal 2.4678833810203896e-18 -3.5585913874682836e-17 -1.0
  outer loop
    vertex 15.434630618404888 22.965078483258164 0.0
    vertex 15.284180416560986 24.934527816144332 0.0
    vertex 16.040218833486332 25.00626025754204 0.0
  endloop
endfacet
facet normal 2.4678833810203896e-18 -3.5585913874682836e-17 -1.0
  outer loop
    vertex 15.434630618404888 22.965078483258164 0.0
    vertex 16.040218833486332 25.00626025754204 0.0
    vertex 15.675811573302365 23.064978905762793 0.0
  endloop
endfacet
facet normal 2.4678833810203896e-18 -3.5585913874682836e-17 -1.0
  outer loop
    vertex 15.675811573302365 23.064978905762793 0.0
    vertex 16.040218833486332 25.00626025754204 0.0
    vertex 15.934630618404887 23.099053079473727 0.0
  endloop
endfacet
facet normal 2.4678833810203896e-18 -3.5585913874682836e-17 -1.0
  outer loop
    vertex 15.934630618404887 23.099053079473727 0.0
    vertex 16.040218833486332 25.00626025754204 0.0
    vertex 16.040218833486332 23.08515212724246 3.524958103184872e-16
  endloop
endfacet
facet normal 2.4678833810203896e-18 -3.5585913874682836e-17 -1.0
  outer loop
    vertex 16.040218833486332 23.08515212724246 3.524958103184872e-16
    vertex 16.040218833486332 25.00626025754204 0.0
    vertex 16.789061588046657 24.879871334141413 0.0
  endloop
endfacet
facet normal 2.4678833810203896e-18 -3.5585913874682836e-17 -1.0
  outer loop
    vertex 16.040218833486332 23.08515212724246 3.524958103184872e-16
    vertex 16.789061588046657 24.879871334141413 0.0
    vertex 16.19344966350741 23.064978905762793 0.0
  endloop
endfacet
facet normal 2.4678833810203896e-18 -3.5585913874682836e-17 -1.0
  outer loop
    vertex 16.19344966350741 23.064978905762793 0.0
    vertex 16.789061588046657 24.879871334141413 0.0
    vertex 16.434630618404885 22.965078483258164 0.0
  endloop
endfacet
facet normal 2.4678833810203896e-18 -3.5585913874682836e-17 -1.0
  outer loop
    vertex 16.434630618404885 22.965078483258164 0.0
    vertex 16.789061588046657 24.879871334141413 0.0
    vertex 16.64173739959143 22.806159860660273 0.0
  endloop
endfacet
facet normal 2.4678833810203896e-18 -3.5585913874682836e-17 -1.0
  outer loop
    vertex 16.64173739959143 22.806159860660273 0.0
    vertex 16.789061588046657 24.879871334141413 0.0
    vertex 16.800656022189326 22.599053079473727 0.0
  endloop
endfacet
facet normal 2.4678833810203896e-18 -3.5585913874682836e-17 -1.0
  outer loop
    vertex 16.800656022189326 22.599053079473727 0.0
    vertex 16.789061588046657 24.879871334141413 0.0
    vertex 17.47967628403983 24.56397424220463 0.0
  endloop
endfacet
facet normal 2.4678833810203896e-18 -3.5585913874682836e-17 -1.0
  outer loop
    vertex 16.800656022189326 22.599053079473727 0.0
    vertex 17.47967628403983 24.56397424220463 0.0
    vertex 16.900556444693954 22.357872124576247 0.0
  endloop
endfacet
facet normal 2.4678833810203896e-18 -3.5585913874682836e-17 -1.0
  outer loop
    vertex 16.900556444693954 22.357872124576247 0.0
    vertex 17.47967628403983 24.56397424220463 0.0
    vertex 16.934630618404885 22.099053079473727 0.0
  endloop
endfacet
facet normal 2.4678833810203896e-18 -3.5585913874682836e-17 -1.0
  outer loop
    vertex 16.934630618404885 22.099053079473727 0.0
    vertex 17.47967628403983 24.56397424220463 0.0
    vertex 17.296792130838256 19.528543701661377 0.0
  endloop
endfacet
facet normal 2.4678833810203896e-18 -3.5585913874682836e-17 -1.0
  outer loop
    vertex 17.296792130838256 19.528543701661377 0.0
    vertex 17.47967628403983 24.56397424220463 0.0
    vertex 17.91567438543372 19.968685026649943 0.0
  endloop
endfacet
facet normal 2.4678833810203896e-18 -3.5585913874682836e-17 -1.0
  outer loop
    vertex 17.91567438543372 19.968685026649943 0.0
    vertex 17.47967628403983 24.56397424220463 0.0
    vertex 18.064998671228672 24.08009684650256 0.0
  endloop
endfacet
facet normal 2.4678833810203896e-18 -3.5585913874682836e-17 -1.0
  outer loop
    vertex 17.91567438543372 19.968685026649943 0.0
    vertex 18.064998671228672 24.08009684650256 0.0
    vertex 18.39955178113579 20.554007413838786 0.0
  endloop
endfacet
facet normal 2.4678833810203896e-18 -3.5585913874682836e-17 -1.0
  outer loop
    vertex 18.39955178113579 20.554007413838786 0.0
    vertex 18.064998671228672 24.08009684650256 0.0
    vertex 18.505139996217235 23.461214591907094 0.0
  endloop
endfacet
facet normal 2.4678833810203896e-18 -3.5585913874682836e-17 -1.0
  outer loop
    vertex 18.39955178113579 20.554007413838786 0.0
    vertex 18.505139996217235 23.461214591907094 0.0
    vertex 18.71544887307257 21.244622109831962 0.0
  endloop
endfacet
facet normal 2.4678833810203896e-18 -3.5585913874682836e-17 -1.0
  outer loop
    vertex 18.71544887307257 21.244622109831962 0.0
    vertex 18.505139996217235 23.461214591907094 0.0
    vertex 18.77010535507549 22.74950328131763 0.0
  endloop
endfacet
facet normal 2.4678833810203896e-18 -3.5585913874682836e-17 -1.0
  outer loop
    vertex 18.71544887307257 21.244622109831962 0.0
    vertex 18.77010535507549 22.74950328131763 0.0
    vertex 18.841837796473197 21.993464864392283 0.0
  endloop
endfacet
facet normal 2.4678833810203896e-18 -3.5585913874682836e-17 -1.0
  outer loop
    vertex 13.153812363737202 22.9534840491155 0.0
    vertex 13.099155881734283 21.44860287762983 0.0
    vertex 13.027423440336577 22.204641294555177 0.0
  endloop
endfacet
facet normal 2.4678833810203896e-18 -3.5585913874682836e-17 -1.0
  outer loop
    vertex 13.099155881734283 21.44860287762983 0.0
    vertex 13.153812363737202 22.9534840491155 0.0
    vertex 13.364121240592537 20.736891567040363 0.0
  endloop
endfacet
facet normal 2.4678833810203896e-18 -3.5585913874682836e-17 -1.0
  outer loop
    vertex 13.364121240592537 20.736891567040363 0.0
    vertex 13.153812363737202 22.9534840491155 0.0
    vertex 13.469709455673984 23.64409874510867 0.0
  endloop
endfacet
facet normal 2.4678833810203896e-18 -3.5585913874682836e-17 -1.0
  outer loop
    vertex 13.364121240592537 20.736891567040363 0.0
    vertex 13.469709455673984 23.64409874510867 0.0
    vertex 13.804262565581103 20.118009312444894 0.0
  endloop
endfacet
facet normal 2.4678833810203896e-18 -3.5585913874682836e-17 -1.0
  outer loop
    vertex 13.804262565581103 20.118009312444894 0.0
    vertex 13.469709455673984 23.64409874510867 0.0
    vertex 13.953586851376054 24.22942113229751 0.0
  endloop
endfacet
facet normal 2.4678833810203896e-18 -3.5585913874682836e-17 -1.0
  outer loop
    vertex 13.804262565581103 20.118009312444894 0.0
    vertex 13.953586851376054 24.22942113229751 0.0
    vertex 14.389584952769944 19.634131916742824 0.0
  endloop
endfacet
facet normal 2.4678833810203896e-18 -3.5585913874682836e-17 -1.0
  outer loop
    vertex 14.389584952769944 19.634131916742824 0.0
    vertex 13.953586851376054 24.22942113229751 0.0
    vertex 14.57246910597152 24.669562457286077 0.0
  endloop
endfacet
facet normal 2.4678833810203896e-18 -3.5585913874682836e-17 -1.0
  outer loop
    vertex 14.389584952769944 19.634131916742824 0.0
    vertex 14.57246910597152 24.669562457286077 0.0
    vertex 15.080199648763116 19.318234824806044 0.0
  endloop
endfacet
facet normal 2.4678833810203896e-18 -3.5585913874682836e-17 -1.0
  outer loop
    vertex 15.080199648763116 19.318234824806044 0.0
    vertex 14.57246910597152 24.669562457286077 0.0
    vertex 14.934630618404888 22.099053079473727 0.0
  endloop
endfacet
facet normal 2.4678833810203896e-18 -3.5585913874682836e-17 -1.0
  outer loop
    vertex 15.080199648763116 19.318234824806044 0.0
    vertex 14.934630618404888 22.099053079473727 0.0
    vertex 14.96870479211582 21.840234034371207 0.0
  endloop
endfacet
facet normal 2.4678833810203896e-18 -3.5585913874682836e-17 -1.0
  outer loop
    vertex 15.080199648763116 19.318234824806044 0.0
    vertex 14.96870479211582 21.840234034371207 0.0
    vertex 15.068605214620447 21.59905307947373 0.0
  endloop
endfacet
facet normal 2.4678833810203896e-18 -3.5585913874682836e-17 -1.0
  outer loop
    vertex 15.080199648763116 19.318234824806044 0.0
    vertex 15.068605214620447 21.59905307947373 0.0
    vertex 15.227523837218344 21.39194629828718 0.0
  endloop
endfacet
facet normal 2.4678833810203896e-18 -3.5585913874682836e-17 -1.0
  outer loop
    vertex 15.080199648763116 19.318234824806044 0.0
    vertex 15.227523837218344 21.39194629828718 0.0
    vertex 15.829042403323442 19.19184590140542 0.0
  endloop
endfacet
facet normal 2.4678833810203896e-18 -3.5585913874682836e-17 -1.0
  outer loop
    vertex 15.829042403323442 19.19184590140542 0.0
    vertex 15.227523837218344 21.39194629828718 0.0
    vertex 15.434630618404888 21.233027675689293 0.0
  endloop
endfacet
facet normal 2.4678833810203896e-18 -3.5585913874682836e-17 -1.0
  outer loop
    vertex 15.829042403323442 19.19184590140542 0.0
    vertex 15.434630618404888 21.233027675689293 0.0
    vertex 15.67581157330237 21.13312725318466 0.0
  endloop
endfacet
facet normal 2.4678833810203896e-18 -3.5585913874682836e-17 -1.0
  outer loop
    vertex 15.829042403323442 19.19184590140542 0.0
    vertex 15.67581157330237 21.13312725318466 0.0
    vertex 15.934630618404887 21.09905307947373 0.0
  endloop
endfacet
facet normal 2.4678833810203896e-18 -3.5585913874682836e-17 -1.0
  outer loop
    vertex 15.829042403323442 19.19184590140542 0.0
    vertex 15.934630618404887 21.09905307947373 0.0
    vertex 16.040218833486332 19.211882186020215 7.049916206369744e-16
  endloop
endfacet
facet normal 2.4678833810203896e-18 -3.5585913874682836e-17 -1.0
  outer loop
    vertex 16.040218833486332 19.211882186020215 7.049916206369744e-16
    vertex 15.934630618404887 21.09905307947373 0.0
    vertex 16.040218833486332 21.112954031704998 7.049916206369744e-16
  endloop
endfacet
facet normal 2.4678833810203896e-18 -3.5585913874682836e-17 -1.0
  outer loop
    vertex 16.040218833486332 19.211882186020215 7.049916206369744e-16
    vertex 16.040218833486332 21.112954031704998 7.049916206369744e-16
    vertex 16.19344966350741 21.13312725318466 0.0
  endloop
endfacet
facet normal 2.4678833810203896e-18 -3.5585913874682836e-17 -1.0
  outer loop
    vertex 16.040218833486332 19.211882186020215 7.049916206369744e-16
    vertex 16.19344966350741 21.13312725318466 0.0
    vertex 16.585080820248788 19.263578342803125 0.0
  endloop
endfacet
facet normal 2.4678833810203896e-18 -3.5585913874682836e-17 -1.0
  outer loop
    vertex 16.585080820248788 19.263578342803125 0.0
    vertex 16.19344966350741 21.13312725318466 0.0
    vertex 16.434630618404885 21.233027675689293 0.0
  endloop
endfacet
facet normal 2.4678833810203896e-18 -3.5585913874682836e-17 -1.0
  outer loop
    vertex 16.585080820248788 19.263578342803125 0.0
    vertex 16.434630618404885 21.233027675689293 0.0
    vertex 16.64173739959143 21.39194629828718 0.0
  endloop
endfacet
facet normal 2.4678833810203896e-18 -3.5585913874682836e-17 -1.0
  outer loop
    vertex 16.585080820248788 19.263578342803125 0.0
    vertex 16.64173739959143 21.39194629828718 0.0
    vertex 17.296792130838256 19.528543701661377 0.0
  endloop
endfacet
facet normal 2.4678833810203896e-18 -3.5585913874682836e-17 -1.0
  outer loop
    vertex 17.296792130838256 19.528543701661377 0.0
    vertex 16.64173739959143 21.39194629828718 0.0
    vertex 16.800656022189326 21.59905307947373 0.0
  endloop
endfacet
facet normal 2.4678833810203896e-18 -3.5585913874682836e-17 -1.0
  outer loop
    vertex 17.296792130838256 19.528543701661377 0.0
    vertex 16.800656022189326 21.59905307947373 0.0
    vertex 16.900556444693954 21.840234034371207 0.0
  endloop
endfacet
facet normal 2.4678833810203896e-18 -3.5585913874682836e-17 -1.0
  outer loop
    vertex 17.296792130838256 19.528543701661377 0.0
    vertex 16.900556444693954 21.840234034371207 0.0
    vertex 16.934630618404885 22.099053079473727 0.0
  endloop
endfacet
facet normal -1.3084049875237768e-17 3.9911882998233643e-17 1.0
  outer loop
    vertex 5.704561706833452 0.7510197963460428 10.000000000000002
    vertex 5.1824569379532415 2.6995413206809755 10.000000000000002
    vertex 0.0 0.0 10.000000000000002
  endloop
endfacet
facet normal -1.3084049875237768e-17 3.9911882998233643e-17 1.0
  outer loop
    vertex 5.1824569379532415 2.6995413206809755 10.000000000000002
    vertex 5.704561706833452 0.7510197963460428 10.000000000000002
    vertex 10.011738000000003 4.699895033092284 10.000000000000002
  endloop
endfacet
facet normal -1.3084049875237768e-17 3.9911882998233643e-17 1.0
  outer loop
    vertex 10.011738000000003 4.699895033092284 10.000000000000002
    vertex 5.704561706833452 0.7510197963460428 10.000000000000002
    vertex 11.02036696058016 2.9528984273820797 10.000000000000002
  endloop
endfacet
facet normal -1.3084049875237768e-17 3.9911882998233643e-17 1.0
  outer loop
    vertex 10.011738000000003 4.699895033092284 10.000000000000002
    vertex 11.02036696058016 2.9528984273820797 10.000000000000002
    vertex 14.158735662526095 7.881998258634217 10.000000000000002
  endloop
endfacet
facet normal -1.3084049875237768e-17 3.9911882998233643e-17 1.0
  outer loop
    vertex 14.158735662526095 7.881998258634217 10.000000000000002
    vertex 11.02036696058016 2.9528984273820797 10.000000000000002
    vertex 15.585152417980831 6.455581503179492 10.000000000000002
  endloop
endfacet
facet normal -1.3084049875237768e-17 3.9911882998233643e-17 1.0
  outer loop
    vertex 14.158735662526095 7.881998258634217 10.000000000000002
    vertex 15.585152417980831 6.455581503179492 10.000000000000002
    vertex 16.040218833486332 10.333994865603332 10.000000000000002
  endloop
endfacet
facet normal -1.3084049875237768e-17 3.9911882998233643e-17 1.0
  outer loop
    vertex 16.040218833486332 10.333994865603332 10.000000000000002
    vertex 15.585152417980831 6.455581503179492 10.000000000000002
    vertex 19.087835493778236 11.020366960580152 10.000000000000002
  endloop
endfacet
facet normal -1.3084049875237768e-17 3.9911882998233643e-17 1.0
  outer loop
    vertex 16.040218833486332 10.333994865603332 10.000000000000002
    vertex 19.087835493778236 11.020366960580152 10.000000000000002
    vertex 17.34083888806802 12.028995921160305 10.000000000000002
  endloop
endfacet
facet normal -1.3084049875237768e-17 3.9911882998233643e-17 1.0
  outer loop
    vertex 17.34083888806802 12.028995921160305 10.000000000000002
    vertex 19.087835493778236 11.020366960580152 10.000000000000002
    vertex 19.34119260047934 16.858276983207066 10.000000000000002
  endloop
endfacet
facet normal -1.3084049875237768e-17 3.9911882998233643e-17 1.0
  outer loop
    vertex 19.34119260047934 16.858276983207066 10.000000000000002
    vertex 19.087835493778236 11.020366960580152 10.000000000000002
    vertex 21.28971412481427 16.336172214326847 10.000000000000002
  endloop
endfacet
facet normal -1.3084049875237768e-17 3.9911882998233643e-17 1.0
  outer loop
    vertex 19.34119260047934 16.858276983207066 10.000000000000002
    vertex 21.28971412481427 16.336172214326847 10.000000000000002
    vertex 20.023476000000006 22.040733921160307 10.000000000000002
  endloop
endfacet
facet normal -1.3084049875237768e-17 3.9911882998233643e-17 1.0
  outer loop
    vertex 5.182456937953248 41.38192652163963 9.999999999999998
    vertex 5.704561706833452 43.33044804597456 9.999999999999998
    vertex 5.639932965095795e-15 44.081467842320606 9.999999999999998
  endloop
endfacet
facet normal -1.3084049875237768e-17 3.9911882998233643e-17 1.0
  outer loop
    vertex 5.704561706833452 43.33044804597456 9.999999999999998
    vertex 5.182456937953248 41.38192652163963 9.999999999999998
    vertex 10.011738000000003 39.381572809228324 9.999999999999998
  endloop
endfacet
facet normal -1.3084049875237768e-17 3.9911882998233643e-17 1.0
  outer loop
    vertex 5.704561706833452 43.33044804597456 9.999999999999998
    vertex 10.011738000000003 39.381572809228324 9.999999999999998
    vertex 11.020366960580127 41.128569414938546 9.999999999999998
  endloop
endfacet
facet normal -1.3084049875237768e-17 3.9911882998233643e-17 1.0
  outer loop
    vertex 11.020366960580127 41.128569414938546 9.999999999999998
    vertex 10.011738000000003 39.381572809228324 9.999999999999998
    vertex 14.15873566252609 36.19946958368639 9.999999999999998
  endloop
endfacet
facet normal -1.3084049875237768e-17 3.9911882998233643e-17 1.0
  outer loop
    vertex 11.020366960580127 41.128569414938546 9.999999999999998
    vertex 14.15873566252609 36.19946958368639 9.999999999999998
    vertex 15.585152417980813 37.62588633914112 9.999999999999998
  endloop
endfacet
facet normal -1.3084049875237768e-17 3.9911882998233643e-17 1.0
  outer loop
    vertex 15.585152417980813 37.62588633914112 9.999999999999998
    vertex 14.15873566252609 36.19946958368639 9.999999999999998
    vertex 16.040218833486332 33.74747297671727 10.000000000000002
  endloop
endfacet
facet normal -1.3084049875237768e-17 3.9911882998233643e-17 1.0
  outer loop
    vertex 15.585152417980813 37.62588633914112 9.999999999999998
    vertex 16.040218833486332 33.74747297671727 10.000000000000002
    vertex 19.087835493778236 33.061100881740444 9.999999999999998
  endloop
endfacet
facet normal -1.3084049875237768e-17 3.9911882998233643e-17 1.0
  outer loop
    vertex 19.087835493778236 33.061100881740444 9.999999999999998
    vertex 16.040218833486332 33.74747297671727 10.000000000000002
    vertex 17.340838888068017 32.052471921160304 9.999999999999998
  endloop
endfacet
facet normal -1.3084049875237768e-17 3.9911882998233643e-17 1.0
  outer loop
    vertex 19.087835493778236 33.061100881740444 9.999999999999998
    vertex 17.340838888068017 32.052471921160304 9.999999999999998
    vertex 19.34119260047933 27.223190859113547 9.999999999999998
  endloop
endfacet
facet normal -1.3084049875237768e-17 3.9911882998233643e-17 1.0
  outer loop
    vertex 19.087835493778236 33.061100881740444 9.999999999999998
    vertex 19.34119260047933 27.223190859113547 9.999999999999998
    vertex 21.28971412481427 27.745295627993734 9.999999999999998
  endloop
endfacet
facet normal -1.3084049875237768e-17 3.9911882998233643e-17 1.0
  outer loop
    vertex 21.28971412481427 27.745295627993734 9.999999999999998
    vertex 19.34119260047933 27.223190859113547 9.999999999999998
    vertex 20.023476000000006 22.040733921160307 10.000000000000002
  endloop
endfacet
facet normal -1.3084049875237768e-17 3.9911882998233643e-17 1.0
  outer loop
    vertex 21.28971412481427 27.745295627993734 9.999999999999998
    vertex 20.023476000000006 22.040733921160307 10.000000000000002
    vertex 21.28971412481427 16.336172214326847 10.000000000000002
  endloop
endfacet
facet normal -1.3084049875237768e-17 3.9911882998233643e-17 1.0
  outer loop
    vertex 21.28971412481427 27.745295627993734 9.999999999999998
    vertex 21.28971412481427 16.336172214326847 10.000000000000002
    vertex 22.040733921160314 22.040733921160328 10.000000000000002
  endloop
endfacet
facet normal -0.7933533402912356 -0.6087614290087199 2.3345825463231153e-17
  outer loop
    vertex 16.040218833486332 33.74747297671727 10.000000000000002
    vertex 17.340838888068017 32.052471921160304 1.9999999999999998
    vertex 17.340838888068017 32.052471921160304 9.999999999999998
  endloop
endfacet
facet normal -0.7933533402912356 -0.6087614290087199 2.3345825463231153e-17
  outer loop
    vertex 17.340838888068017 32.052471921160304 1.9999999999999998
    vertex 16.040218833486332 33.74747297671727 10.000000000000002
    vertex 16.040218833486332 33.74747297671727 2.0000000000000004
  endloop
endfacet
facet normal -0.9238795325112866 -0.38268343236509045 1.3940592830729355e-17
  outer loop
    vertex 17.340838888068017 32.052471921160304 9.999999999999998
    vertex 19.34119260047933 27.223190859113547 1.9999999999999998
    vertex 19.34119260047933 27.223190859113547 9.999999999999998
  endloop
endfacet
facet normal -0.9238795325112866 -0.38268343236509045 1.3940592830729355e-17
  outer loop
    vertex 19.34119260047933 27.223190859113547 1.9999999999999998
    vertex 17.340838888068017 32.052471921160304 9.999999999999998
    vertex 17.340838888068017 32.052471921160304 1.9999999999999998
  endloop
endfacet
facet normal -0.9914448613738104 -0.13052619222005177 3.585331834732205e-18
  outer loop
    vertex 19.34119260047933 27.223190859113547 9.999999999999998
    vertex 20.023476000000006 22.040733921160307 2.0000000000000004
    vertex 20.023476000000006 22.040733921160307 10.000000000000002
  endloop
endfacet
facet normal -0.9914448613738104 -0.13052619222005177 3.585331834732205e-18
  outer loop
    vertex 20.023476000000006 22.040733921160307 2.0000000000000004
    vertex 19.34119260047933 27.223190859113547 9.999999999999998
    vertex 19.34119260047933 27.223190859113547 1.9999999999999998
  endloop
endfacet
facet normal -0.9914448613738105 0.13052619222005069 -7.014263600760897e-18
  outer loop
    vertex 20.023476000000006 22.040733921160307 10.000000000000002
    vertex 19.34119260047934 16.858276983207066 2.0000000000000013
    vertex 19.34119260047934 16.858276983207066 10.000000000000002
  endloop
endfacet
facet normal -0.9914448613738105 0.13052619222005069 -7.014263600760897e-18
  outer loop
    vertex 19.34119260047934 16.858276983207066 2.0000000000000013
    vertex 20.023476000000006 22.040733921160307 10.000000000000002
    vertex 20.023476000000006 22.040733921160307 2.0000000000000004
  endloop
endfacet
facet normal -0.9238795325112867 0.3826834323650902 -1.7135848563480894e-17
  outer loop
    vertex 19.34119260047934 16.858276983207066 10.000000000000002
    vertex 17.34083888806802 12.028995921160305 2.0000000000000013
    vertex 17.34083888806802 12.028995921160305 10.000000000000002
  endloop
endfacet
facet normal -0.9238795325112867 0.3826834323650902 -1.7135848563480894e-17
  outer loop
    vertex 17.34083888806802 12.028995921160305 2.0000000000000013
    vertex 19.34119260047934 16.858276983207066 10.000000000000002
    vertex 19.34119260047934 16.858276983207066 2.0000000000000013
  endloop
endfacet
facet normal -0.7933533402912356 0.60876142900872 -2.608965376492826e-17
  outer loop
    vertex 17.34083888806802 12.028995921160305 10.000000000000002
    vertex 16.040218833486332 10.333994865603332 2.0000000000000013
    vertex 16.040218833486332 10.333994865603332 10.000000000000002
  endloop
endfacet
facet normal -0.7933533402912356 0.60876142900872 -2.608965376492826e-17
  outer loop
    vertex 16.040218833486332 10.333994865603332 2.0000000000000013
    vertex 17.34083888806802 12.028995921160305 10.000000000000002
    vertex 17.34083888806802 12.028995921160305 2.0000000000000013
  endloop
endfacet
facet normal 4.092661971275993e-19 -3.310016805430116e-17 -1.0
  outer loop
    vertex 5.704561706833452 43.33044804597456 0.0
    vertex 5.182456937953248 41.38192652163963 0.0
    vertex 5.639932965095795e-15 44.081467842320606 0.0
  endloop
endfacet
facet normal 4.092661971275993e-19 -3.310016805430116e-17 -1.0
  outer loop
    vertex 5.182456937953248 41.38192652163963 0.0
    vertex 5.704561706833452 43.33044804597456 0.0
    vertex 10.011738000000003 39.381572809228324 0.0
  endloop
endfacet
facet normal 4.092661971275993e-19 -3.310016805430116e-17 -1.0
  outer loop
    vertex 10.011738000000003 39.381572809228324 0.0
    vertex 5.704561706833452 43.33044804597456 0.0
    vertex 11.020366960580127 41.128569414938546 0.0
  endloop
endfacet
facet normal 4.092661971275993e-19 -3.310016805430116e-17 -1.0
  outer loop
    vertex 10.011738000000003 39.381572809228324 0.0
    vertex 11.020366960580127 41.128569414938546 0.0
    vertex 14.15873566252609 36.19946958368639 3.524958103184872e-16
  endloop
endfacet
facet normal 4.092661971275993e-19 -3.310016805430116e-17 -1.0
  outer loop
    vertex 14.15873566252609 36.19946958368639 3.524958103184872e-16
    vertex 11.020366960580127 41.128569414938546 0.0
    vertex 15.585152417980813 37.62588633914112 3.524958103184872e-16
  endloop
endfacet
facet normal 4.092661971275993e-19 -3.310016805430116e-17 -1.0
  outer loop
    vertex 14.15873566252609 36.19946958368639 3.524958103184872e-16
    vertex 15.585152417980813 37.62588633914112 3.524958103184872e-16
    vertex 16.040218833486332 33.74747297671727 7.049916206369744e-16
  endloop
endfacet
facet normal 4.092661971275993e-19 -3.310016805430116e-17 -1.0
  outer loop
    vertex 16.040218833486332 33.74747297671727 7.049916206369744e-16
    vertex 15.585152417980813 37.62588633914112 3.524958103184872e-16
    vertex 19.087835493778236 33.061100881740444 3.524958103184872e-16
  endloop
endfacet
facet normal 4.092661971275993e-19 -3.310016805430116e-17 -1.0
  outer loop
    vertex 16.040218833486332 33.74747297671727 7.049916206369744e-16
    vertex 19.087835493778236 33.061100881740444 3.524958103184872e-16
    vertex 17.340838888068017 32.052471921160304 3.524958103184872e-16
  endloop
endfacet
facet normal 4.092661971275993e-19 -3.310016805430116e-17 -1.0
  outer loop
    vertex 17.340838888068017 32.052471921160304 3.524958103184872e-16
    vertex 19.087835493778236 33.061100881740444 3.524958103184872e-16
    vertex 19.34119260047933 27.223190859113547 3.524958103184872e-16
  endloop
endfacet
facet normal 4.092661971275993e-19 -3.310016805430116e-17 -1.0
  outer loop
    vertex 19.34119260047933 27.223190859113547 3.524958103184872e-16
    vertex 19.087835493778236 33.061100881740444 3.524958103184872e-16
    vertex 21.28971412481427 27.745295627993734 3.524958103184872e-16
  endloop
endfacet
facet normal 4.092661971275993e-19 -3.310016805430116e-17 -1.0
  outer loop
    vertex 19.34119260047933 27.223190859113547 3.524958103184872e-16
    vertex 21.28971412481427 27.745295627993734 3.524958103184872e-16
    vertex 20.023476000000006 22.040733921160307 7.049916206369744e-16
  endloop
endfacet
facet normal 4.092661971275993e-19 -3.310016805430116e-17 -1.0
  outer loop
    vertex 5.1824569379532415 2.6995413206809755 1.4099832412739487e-15
    vertex 5.704561706833452 0.7510197963460428 1.4099832412739487e-15
    vertex 0.0 0.0 1.4099832412739487e-15
  endloop
endfacet
facet normal 4.092661971275993e-19 -3.310016805430116e-17 -1.0
  outer loop
    vertex 5.704561706833452 0.7510197963460428 1.4099832412739487e-15
    vertex 5.1824569379532415 2.6995413206809755 1.4099832412739487e-15
    vertex 10.011738000000003 4.699895033092284 1.4099832412739487e-15
  endloop
endfacet
facet normal 4.092661971275993e-19 -3.310016805430116e-17 -1.0
  outer loop
    vertex 5.704561706833452 0.7510197963460428 1.4099832412739487e-15
    vertex 10.011738000000003 4.699895033092284 1.4099832412739487e-15
    vertex 11.02036696058016 2.9528984273820797 1.4099832412739487e-15
  endloop
endfacet
facet normal 4.092661971275993e-19 -3.310016805430116e-17 -1.0
  outer loop
    vertex 11.02036696058016 2.9528984273820797 1.4099832412739487e-15
    vertex 10.011738000000003 4.699895033092284 1.4099832412739487e-15
    vertex 14.158735662526095 7.881998258634217 1.0574874309554614e-15
  endloop
endfacet
facet normal 4.092661971275993e-19 -3.310016805430116e-17 -1.0
  outer loop
    vertex 11.02036696058016 2.9528984273820797 1.4099832412739487e-15
    vertex 14.158735662526095 7.881998258634217 1.0574874309554614e-15
    vertex 15.585152417980831 6.455581503179492 1.0574874309554614e-15
  endloop
endfacet
facet normal 4.092661971275993e-19 -3.310016805430116e-17 -1.0
  outer loop
    vertex 15.585152417980831 6.455581503179492 1.0574874309554614e-15
    vertex 14.158735662526095 7.881998258634217 1.0574874309554614e-15
    vertex 16.040218833486332 10.333994865603332 1.0574874309554614e-15
  endloop
endfacet
facet normal 4.092661971275993e-19 -3.310016805430116e-17 -1.0
  outer loop
    vertex 15.585152417980831 6.455581503179492 1.0574874309554614e-15
    vertex 16.040218833486332 10.333994865603332 1.0574874309554614e-15
    vertex 19.087835493778236 11.020366960580152 1.0574874309554614e-15
  endloop
endfacet
facet normal 4.092661971275993e-19 -3.310016805430116e-17 -1.0
  outer loop
    vertex 19.087835493778236 11.020366960580152 1.0574874309554614e-15
    vertex 16.040218833486332 10.333994865603332 1.0574874309554614e-15
    vertex 17.34083888806802 12.028995921160305 1.0574874309554614e-15
  endloop
endfacet
facet normal 4.092661971275993e-19 -3.310016805430116e-17 -1.0
  outer loop
    vertex 19.087835493778236 11.020366960580152 1.0574874309554614e-15
    vertex 17.34083888806802 12.028995921160305 1.0574874309554614e-15
    vertex 19.34119260047934 16.858276983207066 1.0574874309554614e-15
  endloop
endfacet
facet normal 4.092661971275993e-19 -3.310016805430116e-17 -1.0
  outer loop
    vertex 19.087835493778236 11.020366960580152 1.0574874309554614e-15
    vertex 19.34119260047934 16.858276983207066 1.0574874309554614e-15
    vertex 21.28971412481427 16.336172214326847 1.0574874309554614e-15
  endloop
endfacet
facet normal 4.092661971275993e-19 -3.310016805430116e-17 -1.0
  outer loop
    vertex 21.28971412481427 16.336172214326847 1.0574874309554614e-15
    vertex 19.34119260047934 16.858276983207066 1.0574874309554614e-15
    vertex 20.023476000000006 22.040733921160307 7.049916206369744e-16
  endloop
endfacet
facet normal 4.092661971275993e-19 -3.310016805430116e-17 -1.0
  outer loop
    vertex 21.28971412481427 16.336172214326847 1.0574874309554614e-15
    vertex 20.023476000000006 22.040733921160307 7.049916206369744e-16
    vertex 21.28971412481427 27.745295627993734 3.524958103184872e-16
  endloop
endfacet
facet normal 4.092661971275993e-19 -3.310016805430116e-17 -1.0
  outer loop
    vertex 21.28971412481427 16.336172214326847 1.0574874309554614e-15
    vertex 21.28971412481427 27.745295627993734 3.524958103184872e-16
    vertex 22.040733921160314 22.040733921160328 7.049916206369744e-16
  endloop
endfacet
facet normal 2.429115613268555e-16 5.692385648934177e-17 1.0
  outer loop
    vertex 17.34083888806802 12.028995921160305 2.0000000000000013
    vertex 16.040218833486332 19.211882186020215 2.000000000000005
    vertex 16.040218833486332 10.333994865603332 2.0000000000000013
  endloop
endfacet
facet normal 2.429115613268555e-16 5.692385648934177e-17 1.0
  outer loop
    vertex 16.040218833486332 19.211882186020215 2.000000000000005
    vertex 17.34083888806802 12.028995921160305 2.0000000000000013
    vertex 16.585080820248788 19.263578342803125 2.0000000000000036
  endloop
endfacet
facet normal 2.429115613268555e-16 5.692385648934177e-17 1.0
  outer loop
    vertex 16.585080820248788 19.263578342803125 2.0000000000000036
    vertex 17.34083888806802 12.028995921160305 2.0000000000000013
    vertex 17.296792130838256 19.528543701661377 2.0000000000000036
  endloop
endfacet
facet normal 2.429115613268555e-16 5.692385648934177e-17 1.0
  outer loop
    vertex 17.296792130838256 19.528543701661377 2.0000000000000036
    vertex 17.34083888806802 12.028995921160305 2.0000000000000013
    vertex 17.91567438543372 19.968685026649943 2.0000000000000036
  endloop
endfacet
facet normal 2.429115613268555e-16 5.692385648934177e-17 1.0
  outer loop
    vertex 17.91567438543372 19.968685026649943 2.0000000000000036
    vertex 17.34083888806802 12.028995921160305 2.0000000000000013
    vertex 19.34119260047934 16.858276983207066 2.0000000000000013
  endloop
endfacet
facet normal 2.429115613268555e-16 5.692385648934177e-17 1.0
  outer loop
    vertex 17.91567438543372 19.968685026649943 2.0000000000000036
    vertex 19.34119260047934 16.858276983207066 2.0000000000000013
    vertex 18.39955178113579 20.554007413838786 2.0000000000000036
  endloop
endfacet
facet normal 2.429115613268555e-16 5.692385648934177e-17 1.0
  outer loop
    vertex 18.39955178113579 20.554007413838786 2.0000000000000036
    vertex 19.34119260047934 16.858276983207066 2.0000000000000013
    vertex 18.71544887307257 21.244622109831962 2.0000000000000036
  endloop
endfacet
facet normal 2.429115613268555e-16 5.692385648934177e-17 1.0
  outer loop
    vertex 18.71544887307257 21.244622109831962 2.0000000000000036
    vertex 19.34119260047934 16.858276983207066 2.0000000000000013
    vertex 18.841837796473197 21.993464864392283 2.0000000000000036
  endloop
endfacet
facet normal 2.429115613268555e-16 5.692385648934177e-17 1.0
  outer loop
    vertex 18.841837796473197 21.993464864392283 2.0000000000000036
    vertex 19.34119260047934 16.858276983207066 2.0000000000000013
    vertex 19.34119260047933 27.223190859113547 1.9999999999999998
  endloop
endfacet
facet normal 2.429115613268555e-16 5.692385648934177e-17 1.0
  outer loop
    vertex 19.34119260047933 27.223190859113547 1.9999999999999998
    vertex 19.34119260047934 16.858276983207066 2.0000000000000013
    vertex 20.023476000000006 22.040733921160307 2.0000000000000004
  endloop
endfacet
facet normal 2.429115613268555e-16 5.692385648934177e-17 1.0
  outer loop
    vertex 16.789061588046657 24.879871334141413 2.0000000000000036
    vertex 16.040218833486332 33.74747297671727 2.0000000000000004
    vertex 16.040218833486332 25.00626025754204 2.0000000000000036
  endloop
endfacet
facet normal 2.429115613268555e-16 5.692385648934177e-17 1.0
  outer loop
    vertex 16.040218833486332 33.74747297671727 2.0000000000000004
    vertex 16.789061588046657 24.879871334141413 2.0000000000000036
    vertex 17.340838888068017 32.052471921160304 1.9999999999999998
  endloop
endfacet
facet normal 2.429115613268555e-16 5.692385648934177e-17 1.0
  outer loop
    vertex 17.340838888068017 32.052471921160304 1.9999999999999998
    vertex 16.789061588046657 24.879871334141413 2.0000000000000036
    vertex 17.47967628403983 24.56397424220463 2.0000000000000036
  endloop
endfacet
facet normal 2.429115613268555e-16 5.692385648934177e-17 1.0
  outer loop
    vertex 17.340838888068017 32.052471921160304 1.9999999999999998
    vertex 17.47967628403983 24.56397424220463 2.0000000000000036
    vertex 19.34119260047933 27.223190859113547 1.9999999999999998
  endloop
endfacet
facet normal 2.429115613268555e-16 5.692385648934177e-17 1.0
  outer loop
    vertex 19.34119260047933 27.223190859113547 1.9999999999999998
    vertex 17.47967628403983 24.56397424220463 2.0000000000000036
    vertex 18.064998671228672 24.08009684650256 2.0000000000000036
  endloop
endfacet
facet normal 2.429115613268555e-16 5.692385648934177e-17 1.0
  outer loop
    vertex 19.34119260047933 27.223190859113547 1.9999999999999998
    vertex 18.064998671228672 24.08009684650256 2.0000000000000036
    vertex 18.505139996217235 23.461214591907094 2.0000000000000036
  endloop
endfacet
facet normal 2.429115613268555e-16 5.692385648934177e-17 1.0
  outer loop
    vertex 19.34119260047933 27.223190859113547 1.9999999999999998
    vertex 18.505139996217235 23.461214591907094 2.0000000000000036
    vertex 18.77010535507549 22.74950328131763 2.0000000000000036
  endloop
endfacet
facet normal 2.429115613268555e-16 5.692385648934177e-17 1.0
  outer loop
    vertex 19.34119260047933 27.223190859113547 1.9999999999999998
    vertex 18.77010535507549 22.74950328131763 2.0000000000000036
    vertex 18.841837796473197 21.993464864392283 2.0000000000000036
  endloop
endfacet
facet normal -0.461980860611703 0.8868898941968333 1.763183884833548e-32
  outer loop
    vertex 0.0 0.0 10.000000000000002
    vertex 5.1824569379532415 2.6995413206809755 1.4099832412739487e-15
    vertex 0.0 0.0 1.4099832412739487e-15
  endloop
endfacet
facet normal -0.461980860611703 0.8868898941968333 1.763183884833548e-32
  outer loop
    vertex 5.1824569379532415 2.6995413206809755 1.4099832412739487e-15
    vertex 0.0 0.0 10.000000000000002
    vertex 5.1824569379532415 2.6995413206809755 10.000000000000002
  endloop
endfacet
facet normal -1.0 0.0 0.0
  outer loop
    vertex 16.040218833486332 19.211882186020215 2.000000000000005
    vertex 16.040218833486332 10.333994865603332 1.0574874309554614e-15
    vertex 16.040218833486332 10.333994865603332 2.0000000000000013
  endloop
endfacet
facet normal -1.0 0.0 0.0
  outer loop
    vertex 16.040218833486332 10.333994865603332 1.0574874309554614e-15
    vertex 16.040218833486332 19.211882186020215 2.000000000000005
    vertex 16.040218833486332 19.211882186020215 7.049916206369744e-16
  endloop
endfacet
facet normal -1.0 0.0 0.0
  outer loop
    vertex 16.040218833486332 33.74747297671727 2.0000000000000004
    vertex 16.040218833486332 25.00626025754204 0.0
    vertex 16.040218833486332 25.00626025754204 2.0000000000000036
  endloop
endfacet
facet normal -1.0 0.0 0.0
  outer loop
    vertex 16.040218833486332 25.00626025754204 0.0
    vertex 16.040218833486332 33.74747297671727 2.0000000000000004
    vertex 16.040218833486332 33.74747297671727 7.049916206369744e-16
  endloop
endfacet
facet normal 0.6087614290087265 0.7933533402912307 -2.6729851426138824e-17
  outer loop
    vertex 15.227523837218344 21.39194629828718 2.000000000000007
    vertex 15.434630618404888 21.233027675689293 0.0
    vertex 15.227523837218344 21.39194629828718 0.0
  endloop
endfacet
facet normal 0.6087614290087265 0.7933533402912307 -2.6729851426138824e-17
  outer loop
    vertex 15.434630618404888 21.233027675689293 0.0
    vertex 15.227523837218344 21.39194629828718 2.000000000000007
    vertex 15.434630618404888 21.233027675689293 2.000000000000007
  endloop
endfacet
facet normal 0.7933533402912248 0.6087614290087342 -1.9705428259151936e-17
  outer loop
    vertex 15.068605214620447 21.59905307947373 0.0
    vertex 15.227523837218344 21.39194629828718 2.000000000000007
    vertex 15.227523837218344 21.39194629828718 0.0
  endloop
endfacet
facet normal 0.7933533402912248 0.6087614290087342 -1.9705428259151936e-17
  outer loop
    vertex 15.227523837218344 21.39194629828718 2.000000000000007
    vertex 15.068605214620447 21.59905307947373 0.0
    vertex 15.068605214620447 21.59905307947373 2.000000000000007
  endloop
endfacet
facet normal 0.92387953251129 0.38268343236508207 -1.1338112721062327e-17
  outer loop
    vertex 14.96870479211582 21.840234034371207 0.0
    vertex 15.068605214620447 21.59905307947373 2.000000000000007
    vertex 15.068605214620447 21.59905307947373 0.0
  endloop
endfacet
facet normal 0.92387953251129 0.38268343236508207 -1.1338112721062327e-17
  outer loop
    vertex 15.068605214620447 21.59905307947373 2.000000000000007
    vertex 14.96870479211582 21.840234034371207 0.0
    vertex 14.96870479211582 21.840234034371207 2.000000000000007
  endloop
endfacet
facet normal 0.9914448613738104 0.13052619222005216 -2.1981235381505818e-18
  outer loop
    vertex 14.934630618404888 22.099053079473727 0.0
    vertex 14.96870479211582 21.840234034371207 2.000000000000007
    vertex 14.96870479211582 21.840234034371207 0.0
  endloop
endfacet
facet normal 0.9914448613738104 0.13052619222005216 -2.1981235381505818e-18
  outer loop
    vertex 14.96870479211582 21.840234034371207 2.000000000000007
    vertex 14.934630618404888 22.099053079473727 0.0
    vertex 14.934630618404888 22.099053079473727 2.000000000000007
  endloop
endfacet
facet normal 0.9914448613738104 -0.13052619222005216 7.091664131315564e-18
  outer loop
    vertex 14.96870479211582 22.357872124576247 0.0
    vertex 14.934630618404888 22.099053079473727 2.000000000000007
    vertex 14.934630618404888 22.099053079473727 0.0
  endloop
endfacet
facet normal 0.9914448613738104 -0.13052619222005216 7.091664131315564e-18
  outer loop
    vertex 14.934630618404888 22.099053079473727 2.000000000000007
    vertex 14.96870479211582 22.357872124576247 0.0
    vertex 14.96870479211582 22.357872124576247 2.000000000000007
  endloop
endfacet
facet normal 0.92387953251129 -0.38268343236508207 1.5898166609761326e-17
  outer loop
    vertex 15.068605214620447 22.599053079473727 0.0
    vertex 14.96870479211582 22.357872124576247 2.000000000000007
    vertex 14.96870479211582 22.357872124576247 0.0
  endloop
endfacet
facet normal 0.92387953251129 -0.38268343236508207 1.5898166609761326e-17
  outer loop
    vertex 14.96870479211582 22.357872124576247 2.000000000000007
    vertex 15.068605214620447 22.599053079473727 0.0
    vertex 15.068605214620447 22.599053079473727 2.000000000000007
  endloop
endfacet
facet normal 0.7933533402912268 -0.6087614290087315 2.3621235306715303e-17
  outer loop
    vertex 15.227523837218344 22.806159860660273 0.0
    vertex 15.068605214620447 22.599053079473727 2.000000000000007
    vertex 15.068605214620447 22.599053079473727 0.0
  endloop
endfacet
facet normal 0.7933533402912268 -0.6087614290087315 2.3621235306715303e-17
  outer loop
    vertex 15.068605214620447 22.599053079473727 2.000000000000007
    vertex 15.227523837218344 22.806159860660273 0.0
    vertex 15.227523837218344 22.806159860660273 2.000000000000007
  endloop
endfacet
facet normal 0.6087614290087231 -0.7933533402912333 2.973455585345262e-17
  outer loop
    vertex 15.434630618404888 22.965078483258164 2.000000000000007
    vertex 15.227523837218344 22.806159860660273 0.0
    vertex 15.434630618404888 22.965078483258164 0.0
  endloop
endfacet
facet normal 0.6087614290087231 -0.7933533402912333 2.973455585345262e-17
  outer loop
    vertex 15.227523837218344 22.806159860660273 0.0
    vertex 15.434630618404888 22.965078483258164 2.000000000000007
    vertex 15.227523837218344 22.806159860660273 2.000000000000007
  endloop
endfacet
facet normal 0.3826834323650951 -0.9238795325112845 3.3821515557454474e-17
  outer loop
    vertex 15.675811573302365 23.064978905762793 2.000000000000007
    vertex 15.434630618404888 22.965078483258164 0.0
    vertex 15.675811573302365 23.064978905762793 0.0
  endloop
endfacet
facet normal 0.3826834323650951 -0.9238795325112845 3.3821515557454474e-17
  outer loop
    vertex 15.434630618404888 22.965078483258164 0.0
    vertex 15.675811573302365 23.064978905762793 2.000000000000007
    vertex 15.434630618404888 22.965078483258164 2.000000000000007
  endloop
endfacet
facet normal 0.13052619222005077 -0.9914448613738106 3.5603594868913025e-17
  outer loop
    vertex 15.934630618404887 23.099053079473727 2.000000000000007
    vertex 15.675811573302365 23.064978905762793 0.0
    vertex 15.934630618404887 23.099053079473727 0.0
  endloop
endfacet
facet normal 0.13052619222005077 -0.9914448613738106 3.5603594868913025e-17
  outer loop
    vertex 15.675811573302365 23.064978905762793 0.0
    vertex 15.934630618404887 23.099053079473727 2.000000000000007
    vertex 15.675811573302365 23.064978905762793 2.000000000000007
  endloop
endfacet
facet normal -0.13052619222003647 -0.9914448613738125 3.4959348027777657e-17
  outer loop
    vertex 16.040218833486332 23.08515212724246 3.524958103184872e-16
    vertex 15.934630618404887 23.099053079473727 2.000000000000007
    vertex 15.934630618404887 23.099053079473727 0.0
  endloop
endfacet
facet normal -0.13052619222003647 -0.9914448613738125 3.4959348027777657e-17
  outer loop
    vertex 15.934630618404887 23.099053079473727 2.000000000000007
    vertex 16.040218833486332 23.08515212724246 3.524958103184872e-16
    vertex 16.040218833486332 23.085152127242463 2.0000000000000084
  endloop
endfacet
facet normal -0.13052619222006062 -0.9914448613738094 3.4959348027777484e-17
  outer loop
    vertex 16.19344966350741 23.064978905762793 2.000000000000007
    vertex 16.040218833486332 23.08515212724246 3.524958103184872e-16
    vertex 16.19344966350741 23.064978905762793 0.0
  endloop
endfacet
facet normal -0.13052619222006062 -0.9914448613738094 3.4959348027777484e-17
  outer loop
    vertex 16.040218833486332 23.08515212724246 3.524958103184872e-16
    vertex 16.19344966350741 23.064978905762793 2.000000000000007
    vertex 16.040218833486332 23.085152127242463 2.0000000000000084
  endloop
endfacet
facet normal -0.3826834323650951 -0.9238795325112845 3.193267939160315e-17
  outer loop
    vertex 16.434630618404885 22.965078483258164 2.000000000000007
    vertex 16.19344966350741 23.064978905762793 0.0
    vertex 16.434630618404885 22.965078483258164 0.0
  endloop
endfacet
facet normal -0.3826834323650951 -0.9238795325112845 3.193267939160315e-17
  outer loop
    vertex 16.19344966350741 23.064978905762793 0.0
    vertex 16.434630618404885 22.965078483258164 2.000000000000007
    vertex 16.19344966350741 23.064978905762793 2.000000000000007
  endloop
endfacet
facet normal -0.6087614290087231 -0.7933533402912333 2.6729851426138922e-17
  outer loop
    vertex 16.64173739959143 22.806159860660273 2.000000000000007
    vertex 16.434630618404885 22.965078483258164 0.0
    vertex 16.64173739959143 22.806159860660273 0.0
  endloop
endfacet
facet normal -0.6087614290087231 -0.7933533402912333 2.6729851426138922e-17
  outer loop
    vertex 16.434630618404885 22.965078483258164 0.0
    vertex 16.64173739959143 22.806159860660273 2.000000000000007
    vertex 16.434630618404885 22.965078483258164 2.000000000000007
  endloop
endfacet
facet normal -0.7933533402912268 -0.6087614290087315 1.9705428259151838e-17
  outer loop
    vertex 16.64173739959143 22.806159860660273 2.000000000000007
    vertex 16.800656022189326 22.599053079473727 0.0
    vertex 16.800656022189326 22.599053079473727 2.000000000000007
  endloop
endfacet
facet normal -0.7933533402912268 -0.6087614290087315 1.9705428259151838e-17
  outer loop
    vertex 16.800656022189326 22.599053079473727 0.0
    vertex 16.64173739959143 22.806159860660273 2.000000000000007
    vertex 16.64173739959143 22.806159860660273 0.0
  endloop
endfacet
facet normal -0.92387953251129 -0.38268343236508207 1.1338112721062327e-17
  outer loop
    vertex 16.800656022189326 22.599053079473727 2.000000000000007
    vertex 16.900556444693954 22.357872124576247 0.0
    vertex 16.900556444693954 22.357872124576247 2.000000000000007
  endloop
endfacet
facet normal -0.92387953251129 -0.38268343236508207 1.1338112721062327e-17
  outer loop
    vertex 16.900556444693954 22.357872124576247 0.0
    vertex 16.800656022189326 22.599053079473727 2.000000000000007
    vertex 16.800656022189326 22.599053079473727 0.0
  endloop
endfacet
facet normal -0.9914448613738104 -0.13052619222005216 2.1981235381505818e-18
  outer loop
    vertex 16.900556444693954 22.357872124576247 2.000000000000007
    vertex 16.934630618404885 22.099053079473727 0.0
    vertex 16.934630618404885 22.099053079473727 2.000000000000007
  endloop
endfacet
facet normal -0.9914448613738104 -0.13052619222005216 2.1981235381505818e-18
  outer loop
    vertex 16.934630618404885 22.099053079473727 0.0
    vertex 16.900556444693954 22.357872124576247 2.000000000000007
    vertex 16.900556444693954 22.357872124576247 0.0
  endloop
endfacet
facet normal -0.9914448613738104 0.13052619222005216 -7.091664131315564e-18
  outer loop
    vertex 16.934630618404885 22.099053079473727 2.000000000000007
    vertex 16.900556444693954 21.840234034371207 0.0
    vertex 16.900556444693954 21.840234034371207 2.000000000000007
  endloop
endfacet
facet normal -0.9914448613738104 0.13052619222005216 -7.091664131315564e-18
  outer loop
    vertex 16.900556444693954 21.840234034371207 0.0
    vertex 16.934630618404885 22.099053079473727 2.000000000000007
    vertex 16.934630618404885 22.099053079473727 0.0
  endloop
endfacet
facet normal -0.92387953251129 0.38268343236508207 -1.5898166609761326e-17
  outer loop
    vertex 16.900556444693954 21.840234034371207 2.000000000000007
    vertex 16.800656022189326 21.59905307947373 0.0
    vertex 16.800656022189326 21.59905307947373 2.000000000000007
  endloop
endfacet
facet normal -0.92387953251129 0.38268343236508207 -1.5898166609761326e-17
  outer loop
    vertex 16.800656022189326 21.59905307947373 0.0
    vertex 16.900556444693954 21.840234034371207 2.000000000000007
    vertex 16.900556444693954 21.840234034371207 0.0
  endloop
endfacet
facet normal -0.7933533402912268 0.6087614290087315 -2.3621235306715303e-17
  outer loop
    vertex 16.800656022189326 21.59905307947373 2.000000000000007
    vertex 16.64173739959143 21.39194629828718 0.0
    vertex 16.64173739959143 21.39194629828718 2.000000000000007
  endloop
endfacet
facet normal -0.7933533402912268 0.6087614290087315 -2.3621235306715303e-17
  outer loop
    vertex 16.64173739959143 21.39194629828718 0.0
    vertex 16.800656022189326 21.59905307947373 2.000000000000007
    vertex 16.800656022189326 21.59905307947373 0.0
  endloop
endfacet
facet normal -0.6087614290087231 0.7933533402912333 -2.973455585345262e-17
  outer loop
    vertex 16.434630618404885 21.233027675689293 2.000000000000007
    vertex 16.64173739959143 21.39194629828718 0.0
    vertex 16.434630618404885 21.233027675689293 0.0
  endloop
endfacet
facet normal -0.6087614290087231 0.7933533402912333 -2.973455585345262e-17
  outer loop
    vertex 16.64173739959143 21.39194629828718 0.0
    vertex 16.434630618404885 21.233027675689293 2.000000000000007
    vertex 16.64173739959143 21.39194629828718 2.000000000000007
  endloop
endfacet
facet normal -0.3826834323650892 0.9238795325112871 8.565788468274016e-18
  outer loop
    vertex 5.1824569379532415 2.6995413206809755 10.000000000000002
    vertex 10.011738000000003 4.699895033092284 1.4099832412739487e-15
    vertex 5.1824569379532415 2.6995413206809755 1.4099832412739487e-15
  endloop
endfacet
facet normal -0.3826834323650892 0.9238795325112871 8.565788468274016e-18
  outer loop
    vertex 10.011738000000003 4.699895033092284 1.4099832412739487e-15
    vertex 5.1824569379532415 2.6995413206809755 10.000000000000002
    vertex 10.011738000000003 4.699895033092284 10.000000000000002
  endloop
endfacet
facet normal -0.6087614290087203 0.7933533402912356 -2.7024099998137768e-17
  outer loop
    vertex 10.011738000000003 4.699895033092284 1.4099832412739487e-15
    vertex 14.158735662526095 7.881998258634217 10.000000000000002
    vertex 14.158735662526095 7.881998258634217 1.0574874309554614e-15
  endloop
endfacet
facet normal -0.6087614290087203 0.7933533402912356 -2.7024099998137768e-17
  outer loop
    vertex 14.158735662526095 7.881998258634217 10.000000000000002
    vertex 10.011738000000003 4.699895033092284 1.4099832412739487e-15
    vertex 10.011738000000003 4.699895033092284 10.000000000000002
  endloop
endfacet
facet normal -0.7933533402912359 0.6087614290087199 0.0
  outer loop
    vertex 16.040218833486332 10.333994865603332 10.000000000000002
    vertex 14.158735662526095 7.881998258634217 1.0574874309554614e-15
    vertex 14.158735662526095 7.881998258634217 10.000000000000002
  endloop
endfacet
facet normal -0.7933533402912359 0.6087614290087199 0.0
  outer loop
    vertex 14.158735662526095 7.881998258634217 1.0574874309554614e-15
    vertex 16.040218833486332 10.333994865603332 10.000000000000002
    vertex 16.040218833486332 10.333994865603332 1.0574874309554614e-15
  endloop
endfacet
facet normal -0.7933533402912359 0.6087614290087199 0.0
  outer loop
    vertex 16.040218833486332 10.333994865603332 1.0574874309554614e-15
    vertex 16.040218833486332 10.333994865603332 10.000000000000002
    vertex 16.040218833486332 10.333994865603332 2.0000000000000013
  endloop
endfacet
facet normal -0.3826834323650951 0.9238795325112845 -3.3821515557454474e-17
  outer loop
    vertex 16.19344966350741 21.13312725318466 2.000000000000007
    vertex 16.434630618404885 21.233027675689293 0.0
    vertex 16.19344966350741 21.13312725318466 0.0
  endloop
endfacet
facet normal -0.3826834323650951 0.9238795325112845 -3.3821515557454474e-17
  outer loop
    vertex 16.434630618404885 21.233027675689293 0.0
    vertex 16.19344966350741 21.13312725318466 2.000000000000007
    vertex 16.434630618404885 21.233027675689293 2.000000000000007
  endloop
endfacet
facet normal -3.069403391809367e-17 -2.859235785076403e-17 -1.0
  outer loop
    vertex 17.340838888068017 32.052471921160304 3.524958103184872e-16
    vertex 16.040218833486332 25.00626025754204 0.0
    vertex 16.040218833486332 33.74747297671727 7.049916206369744e-16
  endloop
endfacet
facet normal -3.069403391809367e-17 -2.859235785076403e-17 -1.0
  outer loop
    vertex 16.040218833486332 25.00626025754204 0.0
    vertex 17.340838888068017 32.052471921160304 3.524958103184872e-16
    vertex 16.789061588046657 24.879871334141413 0.0
  endloop
endfacet
facet normal -3.069403391809367e-17 -2.859235785076403e-17 -1.0
  outer loop
    vertex 16.789061588046657 24.879871334141413 0.0
    vertex 17.340838888068017 32.052471921160304 3.524958103184872e-16
    vertex 17.47967628403983 24.56397424220463 0.0
  endloop
endfacet
facet normal -3.069403391809367e-17 -2.859235785076403e-17 -1.0
  outer loop
    vertex 17.47967628403983 24.56397424220463 0.0
    vertex 17.340838888068017 32.052471921160304 3.524958103184872e-16
    vertex 19.34119260047933 27.223190859113547 3.524958103184872e-16
  endloop
endfacet
facet normal -3.069403391809367e-17 -2.859235785076403e-17 -1.0
  outer loop
    vertex 17.47967628403983 24.56397424220463 0.0
    vertex 19.34119260047933 27.223190859113547 3.524958103184872e-16
    vertex 18.064998671228672 24.08009684650256 0.0
  endloop
endfacet
facet normal -3.069403391809367e-17 -2.859235785076403e-17 -1.0
  outer loop
    vertex 18.064998671228672 24.08009684650256 0.0
    vertex 19.34119260047933 27.223190859113547 3.524958103184872e-16
    vertex 18.505139996217235 23.461214591907094 0.0
  endloop
endfacet
facet normal -3.069403391809367e-17 -2.859235785076403e-17 -1.0
  outer loop
    vertex 18.505139996217235 23.461214591907094 0.0
    vertex 19.34119260047933 27.223190859113547 3.524958103184872e-16
    vertex 18.77010535507549 22.74950328131763 0.0
  endloop
endfacet
facet normal -3.069403391809367e-17 -2.859235785076403e-17 -1.0
  outer loop
    vertex 18.77010535507549 22.74950328131763 0.0
    vertex 19.34119260047933 27.223190859113547 3.524958103184872e-16
    vertex 18.841837796473197 21.993464864392283 0.0
  endloop
endfacet
facet normal -3.069403391809367e-17 -2.859235785076403e-17 -1.0
  outer loop
    vertex 16.585080820248788 19.263578342803125 0.0
    vertex 16.040218833486332 10.333994865603332 1.0574874309554614e-15
    vertex 16.040218833486332 19.211882186020215 7.049916206369744e-16
  endloop
endfacet
facet normal -3.069403391809367e-17 -2.859235785076403e-17 -1.0
  outer loop
    vertex 16.040218833486332 10.333994865603332 1.0574874309554614e-15
    vertex 16.585080820248788 19.263578342803125 0.0
    vertex 17.34083888806802 12.028995921160305 1.0574874309554614e-15
  endloop
endfacet
facet normal -3.069403391809367e-17 -2.859235785076403e-17 -1.0
  outer loop
    vertex 17.34083888806802 12.028995921160305 1.0574874309554614e-15
    vertex 16.585080820248788 19.263578342803125 0.0
    vertex 17.296792130838256 19.528543701661377 0.0
  endloop
endfacet
facet normal -3.069403391809367e-17 -2.859235785076403e-17 -1.0
  outer loop
    vertex 17.34083888806802 12.028995921160305 1.0574874309554614e-15
    vertex 17.296792130838256 19.528543701661377 0.0
    vertex 17.91567438543372 19.968685026649943 0.0
  endloop
endfacet
facet normal -3.069403391809367e-17 -2.859235785076403e-17 -1.0
  outer loop
    vertex 17.34083888806802 12.028995921160305 1.0574874309554614e-15
    vertex 17.91567438543372 19.968685026649943 0.0
    vertex 19.34119260047934 16.858276983207066 1.0574874309554614e-15
  endloop
endfacet
facet normal -3.069403391809367e-17 -2.859235785076403e-17 -1.0
  outer loop
    vertex 19.34119260047934 16.858276983207066 1.0574874309554614e-15
    vertex 17.91567438543372 19.968685026649943 0.0
    vertex 18.39955178113579 20.554007413838786 0.0
  endloop
endfacet
facet normal -3.069403391809367e-17 -2.859235785076403e-17 -1.0
  outer loop
    vertex 19.34119260047934 16.858276983207066 1.0574874309554614e-15
    vertex 18.39955178113579 20.554007413838786 0.0
    vertex 18.71544887307257 21.244622109831962 0.0
  endloop
endfacet
facet normal -3.069403391809367e-17 -2.859235785076403e-17 -1.0
  outer loop
    vertex 19.34119260047934 16.858276983207066 1.0574874309554614e-15
    vertex 18.71544887307257 21.244622109831962 0.0
    vertex 18.841837796473197 21.993464864392283 0.0
  endloop
endfacet
facet normal -3.069403391809367e-17 -2.859235785076403e-17 -1.0
  outer loop
    vertex 19.34119260047934 16.858276983207066 1.0574874309554614e-15
    vertex 18.841837796473197 21.993464864392283 0.0
    vertex 19.34119260047933 27.223190859113547 3.524958103184872e-16
  endloop
endfacet
facet normal -3.069403391809367e-17 -2.859235785076403e-17 -1.0
  outer loop
    vertex 19.34119260047934 16.858276983207066 1.0574874309554614e-15
    vertex 19.34119260047933 27.223190859113547 3.524958103184872e-16
    vertex 20.023476000000006 22.040733921160307 7.049916206369744e-16
  endloop
endfacet
facet normal -0.7933533402912352 -0.6087614290087207 2.6097925525667298e-18
  outer loop
    vertex 14.15873566252609 36.19946958368639 9.999999999999998
    vertex 16.040218833486332 33.74747297671727 2.0000000000000004
    vertex 16.040218833486332 33.74747297671727 10.000000000000002
  endloop
endfacet
facet normal -0.7933533402912352 -0.6087614290087207 2.6097925525667298e-18
  outer loop
    vertex 16.040218833486332 33.74747297671727 2.0000000000000004
    vertex 14.15873566252609 36.19946958368639 9.999999999999998
    vertex 16.040218833486332 33.74747297671727 7.049916206369744e-16
  endloop
endfacet
facet normal -0.7933533402912352 -0.6087614290087207 2.6097925525667298e-18
  outer loop
    vertex 16.040218833486332 33.74747297671727 7.049916206369744e-16
    vertex 14.15873566252609 36.19946958368639 9.999999999999998
    vertex 14.15873566252609 36.19946958368639 3.524958103184872e-16
  endloop
endfacet
facet normal -0.6087614290087204 -0.7933533402912354 2.702409999813775e-17
  outer loop
    vertex 14.15873566252609 36.19946958368639 3.524958103184872e-16
    vertex 10.011738000000003 39.381572809228324 9.999999999999998
    vertex 10.011738000000003 39.381572809228324 0.0
  endloop
endfacet
facet normal -0.6087614290087204 -0.7933533402912354 2.702409999813775e-17
  outer loop
    vertex 10.011738000000003 39.381572809228324 9.999999999999998
    vertex 14.15873566252609 36.19946958368639 3.524958103184872e-16
    vertex 14.15873566252609 36.19946958368639 9.999999999999998
  endloop
endfacet
facet normal -0.3826834323650896 -0.9238795325112868 3.043179386094866e-32
  outer loop
    vertex 10.011738000000003 39.381572809228324 9.999999999999998
    vertex 5.182456937953248 41.38192652163963 0.0
    vertex 10.011738000000003 39.381572809228324 0.0
  endloop
endfacet
facet normal -0.3826834323650896 -0.9238795325112868 3.043179386094866e-32
  outer loop
    vertex 5.182456937953248 41.38192652163963 0.0
    vertex 10.011738000000003 39.381572809228324 9.999999999999998
    vertex 5.182456937953248 41.38192652163963 9.999999999999998
  endloop
endfacet
facet normal 0.13052619222005188 0.9914448613738105 0.0
  outer loop
    vertex 5.639932965095795e-15 44.081467842320606 9.999999999999998
    vertex 5.704561706833452 43.33044804597456 0.0
    vertex 5.639932965095795e-15 44.081467842320606 0.0
  endloop
endfacet
facet normal 0.13052619222005188 0.9914448613738105 0.0
  outer loop
    vertex 5.704561706833452 43.33044804597456 0.0
    vertex 5.639932965095795e-15 44.081467842320606 9.999999999999998
    vertex 5.704561706833452 43.33044804597456 9.999999999999998
  endloop
endfacet
facet normal 0.3826834323650891 0.923879532511287 -3.147023098642597e-17
  outer loop
    vertex 5.704561706833452 43.33044804597456 9.999999999999998
    vertex 11.020366960580127 41.128569414938546 0.0
    vertex 5.704561706833452 43.33044804597456 0.0
  endloop
endfacet
facet normal 0.3826834323650891 0.923879532511287 -3.147023098642597e-17
  outer loop
    vertex 11.020366960580127 41.128569414938546 0.0
    vertex 5.704561706833452 43.33044804597456 9.999999999999998
    vertex 11.020366960580127 41.128569414938546 9.999999999999998
  endloop
endfacet
facet normal 0.6087614290087197 0.7933533402912358 -2.7024099998137768e-17
  outer loop
    vertex 11.020366960580127 41.128569414938546 9.999999999999998
    vertex 15.585152417980813 37.62588633914112 3.524958103184872e-16
    vertex 11.020366960580127 41.128569414938546 0.0
  endloop
endfacet
facet normal 0.6087614290087197 0.7933533402912358 -2.7024099998137768e-17
  outer loop
    vertex 15.585152417980813 37.62588633914112 3.524958103184872e-16
    vertex 11.020366960580127 41.128569414938546 9.999999999999998
    vertex 15.585152417980813 37.62588633914112 9.999999999999998
  endloop
endfacet
facet normal 0.793353340291235 0.6087614290087208 -2.0736321254413263e-17
  outer loop
    vertex 15.585152417980813 37.62588633914112 3.524958103184872e-16
    vertex 19.087835493778236 33.061100881740444 9.999999999999998
    vertex 19.087835493778236 33.061100881740444 3.524958103184872e-16
  endloop
endfacet
facet normal 0.793353340291235 0.6087614290087208 -2.0736321254413263e-17
  outer loop
    vertex 19.087835493778236 33.061100881740444 9.999999999999998
    vertex 15.585152417980813 37.62588633914112 3.524958103184872e-16
    vertex 15.585152417980813 37.62588633914112 9.999999999999998
  endloop
endfacet
facet normal 0.9238795325112868 0.3826834323650895 -1.303539648559164e-17
  outer loop
    vertex 19.087835493778236 33.061100881740444 3.524958103184872e-16
    vertex 21.28971412481427 27.745295627993734 9.999999999999998
    vertex 21.28971412481427 27.745295627993734 3.524958103184872e-16
  endloop
endfacet
facet normal 0.9238795325112868 0.3826834323650895 -1.303539648559164e-17
  outer loop
    vertex 21.28971412481427 27.745295627993734 9.999999999999998
    vertex 19.087835493778236 33.061100881740444 3.524958103184872e-16
    vertex 19.087835493778236 33.061100881740444 9.999999999999998
  endloop
endfacet
facet normal 0.9914448613738103 0.1305261922200527 -4.446130988288241e-18
  outer loop
    vertex 21.28971412481427 27.745295627993734 3.524958103184872e-16
    vertex 22.040733921160314 22.040733921160328 10.000000000000002
    vertex 22.040733921160314 22.040733921160328 7.049916206369744e-16
  endloop
endfacet
facet normal 0.9914448613738103 0.1305261922200527 -4.446130988288241e-18
  outer loop
    vertex 22.040733921160314 22.040733921160328 10.000000000000002
    vertex 21.28971412481427 27.745295627993734 3.524958103184872e-16
    vertex 21.28971412481427 27.745295627993734 9.999999999999998
  endloop
endfacet
facet normal 0.9914448613738105 -0.13052619222005107 4.446130988288203e-18
  outer loop
    vertex 22.040733921160314 22.040733921160328 7.049916206369744e-16
    vertex 21.28971412481427 16.336172214326847 10.000000000000002
    vertex 21.28971412481427 16.336172214326847 1.0574874309554614e-15
  endloop
endfacet
facet normal 0.9914448613738105 -0.13052619222005107 4.446130988288203e-18
  outer loop
    vertex 21.28971412481427 16.336172214326847 10.000000000000002
    vertex 22.040733921160314 22.040733921160328 7.049916206369744e-16
    vertex 22.040733921160314 22.040733921160328 10.000000000000002
  endloop
endfacet
facet normal 0.9238795325112866 -0.3826834323650905 1.3035396485591691e-17
  outer loop
    vertex 21.28971412481427 16.336172214326847 1.0574874309554614e-15
    vertex 19.087835493778236 11.020366960580152 10.000000000000002
    vertex 19.087835493778236 11.020366960580152 1.0574874309554614e-15
  endloop
endfacet
facet normal 0.9238795325112866 -0.3826834323650905 1.3035396485591691e-17
  outer loop
    vertex 19.087835493778236 11.020366960580152 10.000000000000002
    vertex 21.28971412481427 16.336172214326847 1.0574874309554614e-15
    vertex 21.28971412481427 16.336172214326847 10.000000000000002
  endloop
endfacet
facet normal 0.7933533402912356 -0.6087614290087202 2.0736321254413263e-17
  outer loop
    vertex 19.087835493778236 11.020366960580152 1.0574874309554614e-15
    vertex 15.585152417980831 6.455581503179492 10.000000000000002
    vertex 15.585152417980831 6.455581503179492 1.0574874309554614e-15
  endloop
endfacet
facet normal 0.7933533402912356 -0.6087614290087202 2.0736321254413263e-17
  outer loop
    vertex 15.585152417980831 6.455581503179492 10.000000000000002
    vertex 19.087835493778236 11.020366960580152 1.0574874309554614e-15
    vertex 19.087835493778236 11.020366960580152 10.000000000000002
  endloop
endfacet
facet normal 0.6087614290087201 -0.7933533402912355 2.7024099998137765e-17
  outer loop
    vertex 15.585152417980831 6.455581503179492 10.000000000000002
    vertex 11.02036696058016 2.9528984273820797 1.4099832412739487e-15
    vertex 15.585152417980831 6.455581503179492 1.0574874309554614e-15
  endloop
endfacet
facet normal 0.6087614290087201 -0.7933533402912355 2.7024099998137765e-17
  outer loop
    vertex 11.02036696058016 2.9528984273820797 1.4099832412739487e-15
    vertex 15.585152417980831 6.455581503179492 10.000000000000002
    vertex 11.02036696058016 2.9528984273820797 10.000000000000002
  endloop
endfacet
facet normal 0.3826834323650896 -0.923879532511287 3.147023098642597e-17
  outer loop
    vertex 11.02036696058016 2.9528984273820797 10.000000000000002
    vertex 5.704561706833452 0.7510197963460428 1.4099832412739487e-15
    vertex 11.02036696058016 2.9528984273820797 1.4099832412739487e-15
  endloop
endfacet
facet normal 0.3826834323650896 -0.923879532511287 3.147023098642597e-17
  outer loop
    vertex 5.704561706833452 0.7510197963460428 1.4099832412739487e-15
    vertex 11.02036696058016 2.9528984273820797 10.000000000000002
    vertex 5.704561706833452 0.7510197963460428 10.000000000000002
  endloop
endfacet
facet normal 0.1305261922200517 -0.9914448613738105 -5.1898590834547136e-33
  outer loop
    vertex 5.704561706833452 0.7510197963460428 10.000000000000002
    vertex 0.0 0.0 1.4099832412739487e-15
    vertex 5.704561706833452 0.7510197963460428 1.4099832412739487e-15
  endloop
endfacet
facet normal 0.1305261922200517 -0.9914448613738105 -5.1898590834547136e-33
  outer loop
    vertex 0.0 0.0 1.4099832412739487e-15
    vertex 5.704561706833452 0.7510197963460428 10.000000000000002
    vertex 0.0 0.0 10.000000000000002
  endloop
endfacet
facet normal 0.13052619222005354 0.9914448613738103 -3.4959348027777533e-17
  outer loop
    vertex 15.67581157330237 21.13312725318466 2.000000000000007
    vertex 15.934630618404887 21.09905307947373 0.0
    vertex 15.67581157330237 21.13312725318466 0.0
  endloop
endfacet
facet normal 0.13052619222005354 0.9914448613738103 -3.4959348027777533e-17
  outer loop
    vertex 15.934630618404887 21.09905307947373 0.0
    vertex 15.67581157330237 21.13312725318466 2.000000000000007
    vertex 15.934630618404887 21.09905307947373 2.000000000000007
  endloop
endfacet
facet normal -0.1305261922200495 0.9914448613738108 -3.5603594868913025e-17
  outer loop
    vertex 15.934630618404887 21.09905307947373 2.000000000000007
    vertex 16.040218833486332 21.112954031704998 7.049916206369744e-16
    vertex 15.934630618404887 21.09905307947373 0.0
  endloop
endfacet
facet normal -0.1305261922200495 0.9914448613738108 -3.5603594868913025e-17
  outer loop
    vertex 16.040218833486332 21.112954031704998 7.049916206369744e-16
    vertex 15.934630618404887 21.09905307947373 2.000000000000007
    vertex 16.040218833486332 21.112954031704998 2.0000000000000084
  endloop
endfacet
facet normal -0.4619808606117034 -0.8868898941968331 0.0
  outer loop
    vertex 5.182456937953248 41.38192652163963 9.999999999999998
    vertex 5.639932965095795e-15 44.081467842320606 0.0
    vertex 5.182456937953248 41.38192652163963 0.0
  endloop
endfacet
facet normal -0.4619808606117034 -0.8868898941968331 0.0
  outer loop
    vertex 5.639932965095795e-15 44.081467842320606 0.0
    vertex 5.182456937953248 41.38192652163963 9.999999999999998
    vertex 5.639932965095795e-15 44.081467842320606 9.999999999999998
  endloop
endfacet
facet normal 0.0944551657763327 -0.9955291164291308 4.522585322989734e-19
  outer loop
    vertex 16.040218833486332 19.211882186020215 7.049916206369744e-16
    vertex 15.829042403323442 19.19184590140542 2.000000000000007
    vertex 15.829042403323442 19.19184590140542 0.0
  endloop
endfacet
facet normal 0.0944551657763327 -0.9955291164291308 4.522585322989734e-19
  outer loop
    vertex 15.829042403323442 19.19184590140542 2.000000000000007
    vertex 16.040218833486332 19.211882186020215 7.049916206369744e-16
    vertex 16.040218833486332 19.211882186020215 2.000000000000005
  endloop
endfacet
facet normal 7.705808942283359e-16 6.087347830568295e-17 1.0
  outer loop
    vertex 13.099155881734283 21.44860287762983 2.000000000000007
    vertex 13.153812363737202 22.9534840491155 2.000000000000007
    vertex 13.027423440336577 22.204641294555177 2.000000000000007
  endloop
endfacet
facet normal 7.705808942283359e-16 6.087347830568295e-17 1.0
  outer loop
    vertex 13.153812363737202 22.9534840491155 2.000000000000007
    vertex 13.099155881734283 21.44860287762983 2.000000000000007
    vertex 13.364121240592537 20.736891567040363 2.000000000000007
  endloop
endfacet
facet normal 7.705808942283359e-16 6.087347830568295e-17 1.0
  outer loop
    vertex 13.153812363737202 22.9534840491155 2.000000000000007
    vertex 13.364121240592537 20.736891567040363 2.000000000000007
    vertex 13.469709455673984 23.64409874510867 2.000000000000007
  endloop
endfacet
facet normal 7.705808942283359e-16 6.087347830568295e-17 1.0
  outer loop
    vertex 13.469709455673984 23.64409874510867 2.000000000000007
    vertex 13.364121240592537 20.736891567040363 2.000000000000007
    vertex 13.804262565581103 20.118009312444894 2.000000000000007
  endloop
endfacet
facet normal 7.705808942283359e-16 6.087347830568295e-17 1.0
  outer loop
    vertex 13.469709455673984 23.64409874510867 2.000000000000007
    vertex 13.804262565581103 20.118009312444894 2.000000000000007
    vertex 13.953586851376054 24.22942113229751 2.000000000000007
  endloop
endfacet
facet normal 7.705808942283359e-16 6.087347830568295e-17 1.0
  outer loop
    vertex 13.953586851376054 24.22942113229751 2.000000000000007
    vertex 13.804262565581103 20.118009312444894 2.000000000000007
    vertex 14.389584952769944 19.634131916742824 2.000000000000007
  endloop
endfacet
facet normal 7.705808942283359e-16 6.087347830568295e-17 1.0
  outer loop
    vertex 13.953586851376054 24.22942113229751 2.000000000000007
    vertex 14.389584952769944 19.634131916742824 2.000000000000007
    vertex 14.57246910597152 24.669562457286077 2.000000000000007
  endloop
endfacet
facet normal 7.705808942283359e-16 6.087347830568295e-17 1.0
  outer loop
    vertex 14.57246910597152 24.669562457286077 2.000000000000007
    vertex 14.389584952769944 19.634131916742824 2.000000000000007
    vertex 15.080199648763116 19.318234824806044 2.000000000000007
  endloop
endfacet
facet normal 7.705808942283359e-16 6.087347830568295e-17 1.0
  outer loop
    vertex 14.57246910597152 24.669562457286077 2.000000000000007
    vertex 15.080199648763116 19.318234824806044 2.000000000000007
    vertex 14.934630618404888 22.099053079473727 2.000000000000007
  endloop
endfacet
facet normal 7.705808942283359e-16 6.087347830568295e-17 1.0
  outer loop
    vertex 14.934630618404888 22.099053079473727 2.000000000000007
    vertex 15.080199648763116 19.318234824806044 2.000000000000007
    vertex 14.96870479211582 21.840234034371207 2.000000000000007
  endloop
endfacet
facet normal 7.705808942283359e-16 6.087347830568295e-17 1.0
  outer loop
    vertex 14.96870479211582 21.840234034371207 2.000000000000007
    vertex 15.080199648763116 19.318234824806044 2.000000000000007
    vertex 15.068605214620447 21.59905307947373 2.000000000000007
  endloop
endfacet
facet normal 7.705808942283359e-16 6.087347830568295e-17 1.0
  outer loop
    vertex 15.068605214620447 21.59905307947373 2.000000000000007
    vertex 15.080199648763116 19.318234824806044 2.000000000000007
    vertex 15.227523837218344 21.39194629828718 2.000000000000007
  endloop
endfacet
facet normal 7.705808942283359e-16 6.087347830568295e-17 1.0
  outer loop
    vertex 15.227523837218344 21.39194629828718 2.000000000000007
    vertex 15.080199648763116 19.318234824806044 2.000000000000007
    vertex 15.829042403323442 19.19184590140542 2.000000000000007
  endloop
endfacet
facet normal 7.705808942283359e-16 6.087347830568295e-17 1.0
  outer loop
    vertex 15.227523837218344 21.39194629828718 2.000000000000007
    vertex 15.829042403323442 19.19184590140542 2.000000000000007
    vertex 15.434630618404888 21.233027675689293 2.000000000000007
  endloop
endfacet
facet normal 7.705808942283359e-16 6.087347830568295e-17 1.0
  outer loop
    vertex 15.434630618404888 21.233027675689293 2.000000000000007
    vertex 15.829042403323442 19.19184590140542 2.000000000000007
    vertex 15.67581157330237 21.13312725318466 2.000000000000007
  endloop
endfacet
facet normal 7.705808942283359e-16 6.087347830568295e-17 1.0
  outer loop
    vertex 15.67581157330237 21.13312725318466 2.000000000000007
    vertex 15.829042403323442 19.19184590140542 2.000000000000007
    vertex 15.934630618404887 21.09905307947373 2.000000000000007
  endloop
endfacet
facet normal 7.705808942283359e-16 6.087347830568295e-17 1.0
  outer loop
    vertex 15.934630618404887 21.09905307947373 2.000000000000007
    vertex 15.829042403323442 19.19184590140542 2.000000000000007
    vertex 16.040218833486332 19.211882186020215 2.000000000000005
  endloop
endfacet
facet normal 7.705808942283359e-16 6.087347830568295e-17 1.0
  outer loop
    vertex 15.934630618404887 21.09905307947373 2.000000000000007
    vertex 16.040218833486332 19.211882186020215 2.000000000000005
    vertex 16.040218833486332 21.112954031704998 2.0000000000000084
  endloop
endfacet
facet normal 7.705808942283359e-16 6.087347830568295e-17 1.0
  outer loop
    vertex 16.040218833486332 21.112954031704998 2.0000000000000084
    vertex 16.040218833486332 19.211882186020215 2.000000000000005
    vertex 16.585080820248788 19.263578342803125 2.0000000000000036
  endloop
endfacet
facet normal 7.705808942283359e-16 6.087347830568295e-17 1.0
  outer loop
    vertex 16.040218833486332 21.112954031704998 2.0000000000000084
    vertex 16.585080820248788 19.263578342803125 2.0000000000000036
    vertex 16.19344966350741 21.13312725318466 2.000000000000007
  endloop
endfacet
facet normal 7.705808942283359e-16 6.087347830568295e-17 1.0
  outer loop
    vertex 16.19344966350741 21.13312725318466 2.000000000000007
    vertex 16.585080820248788 19.263578342803125 2.0000000000000036
    vertex 16.434630618404885 21.233027675689293 2.000000000000007
  endloop
endfacet
facet normal 7.705808942283359e-16 6.087347830568295e-17 1.0
  outer loop
    vertex 16.434630618404885 21.233027675689293 2.000000000000007
    vertex 16.585080820248788 19.263578342803125 2.0000000000000036
    vertex 16.64173739959143 21.39194629828718 2.000000000000007
  endloop
endfacet
facet normal 7.705808942283359e-16 6.087347830568295e-17 1.0
  outer loop
    vertex 16.64173739959143 21.39194629828718 2.000000000000007
    vertex 16.585080820248788 19.263578342803125 2.0000000000000036
    vertex 17.296792130838256 19.528543701661377 2.0000000000000036
  endloop
endfacet
facet normal 7.705808942283359e-16 6.087347830568295e-17 1.0
  outer loop
    vertex 16.64173739959143 21.39194629828718 2.000000000000007
    vertex 17.296792130838256 19.528543701661377 2.0000000000000036
    vertex 16.800656022189326 21.59905307947373 2.000000000000007
  endloop
endfacet
facet normal 7.705808942283359e-16 6.087347830568295e-17 1.0
  outer loop
    vertex 16.800656022189326 21.59905307947373 2.000000000000007
    vertex 17.296792130838256 19.528543701661377 2.0000000000000036
    vertex 16.900556444693954 21.840234034371207 2.000000000000007
  endloop
endfacet
facet normal 7.705808942283359e-16 6.087347830568295e-17 1.0
  outer loop
    vertex 16.900556444693954 21.840234034371207 2.000000000000007
    vertex 17.296792130838256 19.528543701661377 2.0000000000000036
    vertex 16.934630618404885 22.099053079473727 2.000000000000007
  endloop
endfacet
facet normal 7.705808942283359e-16 6.087347830568295e-17 1.0
  outer loop
    vertex 14.934630618404888 22.099053079473727 2.000000000000007
    vertex 15.284180416560986 24.934527816144332 2.000000000000007
    vertex 14.57246910597152 24.669562457286077 2.000000000000007
  endloop
endfacet
facet normal 7.705808942283359e-16 6.087347830568295e-17 1.0
  outer loop
    vertex 15.284180416560986 24.934527816144332 2.000000000000007
    vertex 14.934630618404888 22.099053079473727 2.000000000000007
    vertex 14.96870479211582 22.357872124576247 2.000000000000007
  endloop
endfacet
facet normal 7.705808942283359e-16 6.087347830568295e-17 1.0
  outer loop
    vertex 15.284180416560986 24.934527816144332 2.000000000000007
    vertex 14.96870479211582 22.357872124576247 2.000000000000007
    vertex 15.068605214620447 22.599053079473727 2.000000000000007
  endloop
endfacet
facet normal 7.705808942283359e-16 6.087347830568295e-17 1.0
  outer loop
    vertex 15.284180416560986 24.934527816144332 2.000000000000007
    vertex 15.068605214620447 22.599053079473727 2.000000000000007
    vertex 15.227523837218344 22.806159860660273 2.000000000000007
  endloop
endfacet
facet normal 7.705808942283359e-16 6.087347830568295e-17 1.0
  outer loop
    vertex 15.284180416560986 24.934527816144332 2.000000000000007
    vertex 15.227523837218344 22.806159860660273 2.000000000000007
    vertex 15.434630618404888 22.965078483258164 2.000000000000007
  endloop
endfacet
facet normal 7.705808942283359e-16 6.087347830568295e-17 1.0
  outer loop
    vertex 15.284180416560986 24.934527816144332 2.000000000000007
    vertex 15.434630618404888 22.965078483258164 2.000000000000007
    vertex 16.040218833486332 25.00626025754204 2.0000000000000036
  endloop
endfacet
facet normal 7.705808942283359e-16 6.087347830568295e-17 1.0
  outer loop
    vertex 16.040218833486332 25.00626025754204 2.0000000000000036
    vertex 15.434630618404888 22.965078483258164 2.000000000000007
    vertex 15.675811573302365 23.064978905762793 2.000000000000007
  endloop
endfacet
facet normal 7.705808942283359e-16 6.087347830568295e-17 1.0
  outer loop
    vertex 16.040218833486332 25.00626025754204 2.0000000000000036
    vertex 15.675811573302365 23.064978905762793 2.000000000000007
    vertex 15.934630618404887 23.099053079473727 2.000000000000007
  endloop
endfacet
facet normal 7.705808942283359e-16 6.087347830568295e-17 1.0
  outer loop
    vertex 16.040218833486332 25.00626025754204 2.0000000000000036
    vertex 15.934630618404887 23.099053079473727 2.000000000000007
    vertex 16.040218833486332 23.085152127242463 2.0000000000000084
  endloop
endfacet
facet normal 7.705808942283359e-16 6.087347830568295e-17 1.0
  outer loop
    vertex 16.040218833486332 25.00626025754204 2.0000000000000036
    vertex 16.040218833486332 23.085152127242463 2.0000000000000084
    vertex 16.19344966350741 23.064978905762793 2.000000000000007
  endloop
endfacet
facet normal 7.705808942283359e-16 6.087347830568295e-17 1.0
  outer loop
    vertex 16.040218833486332 25.00626025754204 2.0000000000000036
    vertex 16.19344966350741 23.064978905762793 2.000000000000007
    vertex 16.789061588046657 24.879871334141413 2.0000000000000036
  endloop
endfacet
facet normal 7.705808942283359e-16 6.087347830568295e-17 1.0
  outer loop
    vertex 16.789061588046657 24.879871334141413 2.0000000000000036
    vertex 16.19344966350741 23.064978905762793 2.000000000000007
    vertex 16.434630618404885 22.965078483258164 2.000000000000007
  endloop
endfacet
facet normal 7.705808942283359e-16 6.087347830568295e-17 1.0
  outer loop
    vertex 16.789061588046657 24.879871334141413 2.0000000000000036
    vertex 16.434630618404885 22.965078483258164 2.000000000000007
    vertex 16.64173739959143 22.806159860660273 2.000000000000007
  endloop
endfacet
facet normal 7.705808942283359e-16 6.087347830568295e-17 1.0
  outer loop
    vertex 16.789061588046657 24.879871334141413 2.0000000000000036
    vertex 16.64173739959143 22.806159860660273 2.000000000000007
    vertex 16.800656022189326 22.599053079473727 2.000000000000007
  endloop
endfacet
facet normal 7.705808942283359e-16 6.087347830568295e-17 1.0
  outer loop
    vertex 16.789061588046657 24.879871334141413 2.0000000000000036
    vertex 16.800656022189326 22.599053079473727 2.000000000000007
    vertex 17.47967628403983 24.56397424220463 2.0000000000000036
  endloop
endfacet
facet normal 7.705808942283359e-16 6.087347830568295e-17 1.0
  outer loop
    vertex 17.47967628403983 24.56397424220463 2.0000000000000036
    vertex 16.800656022189326 22.599053079473727 2.000000000000007
    vertex 16.900556444693954 22.357872124576247 2.000000000000007
  endloop
endfacet
facet normal 7.705808942283359e-16 6.087347830568295e-17 1.0
  outer loop
    vertex 17.47967628403983 24.56397424220463 2.0000000000000036
    vertex 16.900556444693954 22.357872124576247 2.000000000000007
    vertex 16.934630618404885 22.099053079473727 2.000000000000007
  endloop
endfacet
facet normal 7.705808942283359e-16 6.087347830568295e-17 1.0
  outer loop
    vertex 17.47967628403983 24.56397424220463 2.0000000000000036
    vertex 16.934630618404885 22.099053079473727 2.000000000000007
    vertex 17.296792130838256 19.528543701661377 2.0000000000000036
  endloop
endfacet
facet normal 7.705808942283359e-16 6.087347830568295e-17 1.0
  outer loop
    vertex 17.47967628403983 24.56397424220463 2.0000000000000036
    vertex 17.296792130838256 19.528543701661377 2.0000000000000036
    vertex 17.91567438543372 19.968685026649943 2.0000000000000036
  endloop
endfacet
facet normal 7.705808942283359e-16 6.087347830568295e-17 1.0
  outer loop
    vertex 17.47967628403983 24.56397424220463 2.0000000000000036
    vertex 17.91567438543372 19.968685026649943 2.0000000000000036
    vertex 18.064998671228672 24.08009684650256 2.0000000000000036
  endloop
endfacet
facet normal 7.705808942283359e-16 6.087347830568295e-17 1.0
  outer loop
    vertex 18.064998671228672 24.08009684650256 2.0000000000000036
    vertex 17.91567438543372 19.968685026649943 2.0000000000000036
    vertex 18.39955178113579 20.554007413838786 2.0000000000000036
  endloop
endfacet
facet normal 7.705808942283359e-16 6.087347830568295e-17 1.0
  outer loop
    vertex 18.064998671228672 24.08009684650256 2.0000000000000036
    vertex 18.39955178113579 20.554007413838786 2.0000000000000036
    vertex 18.505139996217235 23.461214591907094 2.0000000000000036
  endloop
endfacet
facet normal 7.705808942283359e-16 6.087347830568295e-17 1.0
  outer loop
    vertex 18.505139996217235 23.461214591907094 2.0000000000000036
    vertex 18.39955178113579 20.554007413838786 2.0000000000000036
    vertex 18.71544887307257 21.244622109831962 2.0000000000000036
  endloop
endfacet
facet normal 7.705808942283359e-16 6.087347830568295e-17 1.0
  outer loop
    vertex 18.505139996217235 23.461214591907094 2.0000000000000036
    vertex 18.71544887307257 21.244622109831962 2.0000000000000036
    vertex 18.77010535507549 22.74950328131763 2.0000000000000036
  endloop
endfacet
facet normal 7.705808942283359e-16 6.087347830568295e-17 1.0
  outer loop
    vertex 18.77010535507549 22.74950328131763 2.0000000000000036
    vertex 18.71544887307257 21.244622109831962 2.0000000000000036
    vertex 18.841837796473197 21.993464864392283 2.0000000000000036
  endloop
endfacet
facet normal -0.09445516577633818 0.9955291164291301 1.8222173872484114e-18
  outer loop
    vertex 15.284180416560986 24.934527816144332 2.000000000000007
    vertex 16.040218833486332 25.00626025754204 0.0
    vertex 15.284180416560986 24.934527816144332 0.0
  endloop
endfacet
facet normal -0.09445516577633818 0.9955291164291301 1.8222173872484114e-18
  outer loop
    vertex 16.040218833486332 25.00626025754204 0.0
    vertex 15.284180416560986 24.934527816144332 2.000000000000007
    vertex 16.040218833486332 25.00626025754204 2.0000000000000036
  endloop
endfacet
facet normal -0.34889857933572577 0.9371604885704009 -3.4210753438626233e-17
  outer loop
    vertex 14.57246910597152 24.669562457286077 2.000000000000007
    vertex 15.284180416560986 24.934527816144332 0.0
    vertex 14.57246910597152 24.669562457286077 0.0
  endloop
endfacet
facet normal -0.34889857933572577 0.9371604885704009 -3.4210753438626233e-17
  outer loop
    vertex 15.284180416560986 24.934527816144332 0.0
    vertex 14.57246910597152 24.669562457286077 2.000000000000007
    vertex 15.284180416560986 24.934527816144332 2.000000000000007
  endloop
endfacet
facet normal -0.5795651312955451 0.8149259221465331 -3.04301828354962e-17
  outer loop
    vertex 13.953586851376054 24.22942113229751 2.000000000000007
    vertex 14.57246910597152 24.669562457286077 0.0
    vertex 13.953586851376054 24.22942113229751 0.0
  endloop
endfacet
facet normal -0.5795651312955451 0.8149259221465331 -3.04301828354962e-17
  outer loop
    vertex 14.57246910597152 24.669562457286077 0.0
    vertex 13.953586851376054 24.22942113229751 2.000000000000007
    vertex 14.57246910597152 24.669562457286077 2.000000000000007
  endloop
endfacet
facet normal -0.7707352773342381 0.6371555008571418 -2.4575845560381956e-17
  outer loop
    vertex 13.953586851376054 24.22942113229751 2.000000000000007
    vertex 13.469709455673984 23.64409874510867 0.0
    vertex 13.469709455673984 23.64409874510867 2.000000000000007
  endloop
endfacet
facet normal -0.7707352773342381 0.6371555008571418 -2.4575845560381956e-17
  outer loop
    vertex 13.469709455673984 23.64409874510867 0.0
    vertex 13.953586851376054 24.22942113229751 2.000000000000007
    vertex 13.953586851376054 24.22942113229751 0.0
  endloop
endfacet
facet normal -0.9093810879228708 0.4159639851335884 -1.704670502383282e-17
  outer loop
    vertex 13.469709455673984 23.64409874510867 2.000000000000007
    vertex 13.153812363737202 22.9534840491155 0.0
    vertex 13.153812363737202 22.9534840491155 2.000000000000007
  endloop
endfacet
facet normal -0.9093810879228708 0.4159639851335884 -1.704670502383282e-17
  outer loop
    vertex 13.153812363737202 22.9534840491155 0.0
    vertex 13.469709455673984 23.64409874510867 2.000000000000007
    vertex 13.469709455673984 23.64409874510867 0.0
  endloop
endfacet
facet normal -0.9860540801928661 0.16642521123616097 -8.355859710921243e-18
  outer loop
    vertex 13.153812363737202 22.9534840491155 2.000000000000007
    vertex 13.027423440336577 22.204641294555177 0.0
    vertex 13.027423440336577 22.204641294555177 2.000000000000007
  endloop
endfacet
facet normal -0.9860540801928661 0.16642521123616097 -8.355859710921243e-18
  outer loop
    vertex 13.027423440336577 22.204641294555177 0.0
    vertex 13.153812363737202 22.9534840491155 2.000000000000007
    vertex 13.153812363737202 22.9534840491155 0.0
  endloop
endfacet
facet normal -0.9955291164291301 -0.09445516577633799 9.044236325782907e-19
  outer loop
    vertex 13.027423440336577 22.204641294555177 2.000000000000007
    vertex 13.099155881734283 21.44860287762983 0.0
    vertex 13.099155881734283 21.44860287762983 2.000000000000007
  endloop
endfacet
facet normal -0.9955291164291301 -0.09445516577633799 9.044236325782907e-19
  outer loop
    vertex 13.099155881734283 21.44860287762983 0.0
    vertex 13.027423440336577 22.204641294555177 2.000000000000007
    vertex 13.027423440336577 22.204641294555177 0.0
  endloop
endfacet
facet normal -0.9371604885704009 -0.34889857933572577 1.0103072000148493e-17
  outer loop
    vertex 13.099155881734283 21.44860287762983 2.000000000000007
    vertex 13.364121240592537 20.736891567040363 0.0
    vertex 13.364121240592537 20.736891567040363 2.000000000000007
  endloop
endfacet
facet normal -0.9371604885704009 -0.34889857933572577 1.0103072000148493e-17
  outer loop
    vertex 13.364121240592537 20.736891567040363 0.0
    vertex 13.099155881734283 21.44860287762983 2.000000000000007
    vertex 13.099155881734283 21.44860287762983 0.0
  endloop
endfacet
facet normal -0.8149259221465338 -0.5795651312955443 1.8613212707024342e-17
  outer loop
    vertex 13.364121240592537 20.736891567040363 2.000000000000007
    vertex 13.804262565581103 20.118009312444894 0.0
    vertex 13.804262565581103 20.118009312444894 2.000000000000007
  endloop
endfacet
facet normal -0.8149259221465338 -0.5795651312955443 1.8613212707024342e-17
  outer loop
    vertex 13.804262565581103 20.118009312444894 0.0
    vertex 13.364121240592537 20.736891567040363 2.000000000000007
    vertex 13.364121240592537 20.736891567040363 0.0
  endloop
endfacet
facet normal -0.6371555008571418 -0.7707352773342381 2.5854893727704924e-17
  outer loop
    vertex 14.389584952769944 19.634131916742824 2.000000000000007
    vertex 13.804262565581103 20.118009312444894 0.0
    vertex 14.389584952769944 19.634131916742824 0.0
  endloop
endfacet
facet normal -0.6371555008571418 -0.7707352773342381 2.5854893727704924e-17
  outer loop
    vertex 13.804262565581103 20.118009312444894 0.0
    vertex 14.389584952769944 19.634131916742824 2.000000000000007
    vertex 13.804262565581103 20.118009312444894 2.000000000000007
  endloop
endfacet
facet normal -0.4159639851335869 -0.9093810879228715 3.1334606468074494e-17
  outer loop
    vertex 15.080199648763116 19.318234824806044 2.000000000000007
    vertex 14.389584952769944 19.634131916742824 0.0
    vertex 15.080199648763116 19.318234824806044 0.0
  endloop
endfacet
facet normal -0.4159639851335869 -0.9093810879228715 3.1334606468074494e-17
  outer loop
    vertex 14.389584952769944 19.634131916742824 0.0
    vertex 15.080199648763116 19.318234824806044 2.000000000000007
    vertex 14.389584952769944 19.634131916742824 2.000000000000007
  endloop
endfacet
facet normal -0.1664252112361622 -0.986054080192866 3.46789175605304e-17
  outer loop
    vertex 15.829042403323442 19.19184590140542 2.000000000000007
    vertex 15.080199648763116 19.318234824806044 0.0
    vertex 15.829042403323442 19.19184590140542 0.0
  endloop
endfacet
facet normal -0.1664252112361622 -0.986054080192866 3.46789175605304e-17
  outer loop
    vertex 15.080199648763116 19.318234824806044 0.0
    vertex 15.829042403323442 19.19184590140542 2.000000000000007
    vertex 15.080199648763116 19.318234824806044 2.000000000000007
  endloop
endfacet
facet normal -0.13052619222005163 0.9914448613738105 -3.5603594868913025e-17
  outer loop
    vertex 16.040218833486332 21.112954031704998 7.049916206369744e-16
    vertex 16.19344966350741 21.13312725318466 2.000000000000007
    vertex 16.19344966350741 21.13312725318466 0.0
  endloop
endfacet
facet normal -0.13052619222005163 0.9914448613738105 -3.5603594868913025e-17
  outer loop
    vertex 16.19344966350741 21.13312725318466 2.000000000000007
    vertex 16.040218833486332 21.112954031704998 7.049916206369744e-16
    vertex 16.040218833486332 21.112954031704998 2.0000000000000084
  endloop
endfacet
endsolid gopro_sun_protector
